%TF.GenerationSoftware,KiCad,Pcbnew,(6.0.4)*%
%TF.CreationDate,2022-05-27T00:32:28-07:00*%
%TF.ProjectId,bot_L,626f745f-4c2e-46b6-9963-61645f706362,rev?*%
%TF.SameCoordinates,Original*%
%TF.FileFunction,Copper,L1,Top*%
%TF.FilePolarity,Positive*%
%FSLAX46Y46*%
G04 Gerber Fmt 4.6, Leading zero omitted, Abs format (unit mm)*
G04 Created by KiCad (PCBNEW (6.0.4)) date 2022-05-27 00:32:28*
%MOMM*%
%LPD*%
G01*
G04 APERTURE LIST*
G04 Aperture macros list*
%AMRoundRect*
0 Rectangle with rounded corners*
0 $1 Rounding radius*
0 $2 $3 $4 $5 $6 $7 $8 $9 X,Y pos of 4 corners*
0 Add a 4 corners polygon primitive as box body*
4,1,4,$2,$3,$4,$5,$6,$7,$8,$9,$2,$3,0*
0 Add four circle primitives for the rounded corners*
1,1,$1+$1,$2,$3*
1,1,$1+$1,$4,$5*
1,1,$1+$1,$6,$7*
1,1,$1+$1,$8,$9*
0 Add four rect primitives between the rounded corners*
20,1,$1+$1,$2,$3,$4,$5,0*
20,1,$1+$1,$4,$5,$6,$7,0*
20,1,$1+$1,$6,$7,$8,$9,0*
20,1,$1+$1,$8,$9,$2,$3,0*%
G04 Aperture macros list end*
%TA.AperFunction,SMDPad,CuDef*%
%ADD10R,1.450000X0.600000*%
%TD*%
%TA.AperFunction,SMDPad,CuDef*%
%ADD11R,1.450000X0.300000*%
%TD*%
%TA.AperFunction,ComponentPad*%
%ADD12O,1.600000X1.000000*%
%TD*%
%TA.AperFunction,ComponentPad*%
%ADD13O,2.100000X1.000000*%
%TD*%
%TA.AperFunction,ComponentPad*%
%ADD14O,1.000000X2.100000*%
%TD*%
%TA.AperFunction,ComponentPad*%
%ADD15O,1.000000X1.600000*%
%TD*%
%TA.AperFunction,SMDPad,CuDef*%
%ADD16R,0.600000X1.450000*%
%TD*%
%TA.AperFunction,SMDPad,CuDef*%
%ADD17R,0.300000X1.450000*%
%TD*%
%TA.AperFunction,SMDPad,CuDef*%
%ADD18RoundRect,0.140000X-0.140000X-0.170000X0.140000X-0.170000X0.140000X0.170000X-0.140000X0.170000X0*%
%TD*%
%TA.AperFunction,SMDPad,CuDef*%
%ADD19R,0.550000X0.550000*%
%TD*%
%TA.AperFunction,SMDPad,CuDef*%
%ADD20RoundRect,0.250000X0.250000X0.475000X-0.250000X0.475000X-0.250000X-0.475000X0.250000X-0.475000X0*%
%TD*%
%TA.AperFunction,SMDPad,CuDef*%
%ADD21RoundRect,0.200000X0.200000X0.275000X-0.200000X0.275000X-0.200000X-0.275000X0.200000X-0.275000X0*%
%TD*%
%TA.AperFunction,SMDPad,CuDef*%
%ADD22RoundRect,0.150000X-0.875000X-0.150000X0.875000X-0.150000X0.875000X0.150000X-0.875000X0.150000X0*%
%TD*%
%TA.AperFunction,SMDPad,CuDef*%
%ADD23RoundRect,0.140000X-0.170000X0.140000X-0.170000X-0.140000X0.170000X-0.140000X0.170000X0.140000X0*%
%TD*%
%TA.AperFunction,SMDPad,CuDef*%
%ADD24RoundRect,0.200000X0.275000X-0.200000X0.275000X0.200000X-0.275000X0.200000X-0.275000X-0.200000X0*%
%TD*%
%TA.AperFunction,SMDPad,CuDef*%
%ADD25RoundRect,0.200000X-0.200000X-0.275000X0.200000X-0.275000X0.200000X0.275000X-0.200000X0.275000X0*%
%TD*%
%TA.AperFunction,SMDPad,CuDef*%
%ADD26RoundRect,0.150000X0.512500X0.150000X-0.512500X0.150000X-0.512500X-0.150000X0.512500X-0.150000X0*%
%TD*%
%TA.AperFunction,SMDPad,CuDef*%
%ADD27RoundRect,0.150000X-0.150000X0.512500X-0.150000X-0.512500X0.150000X-0.512500X0.150000X0.512500X0*%
%TD*%
%TA.AperFunction,SMDPad,CuDef*%
%ADD28R,0.900000X1.000000*%
%TD*%
%TA.AperFunction,SMDPad,CuDef*%
%ADD29R,0.400000X1.825000*%
%TD*%
%TA.AperFunction,SMDPad,CuDef*%
%ADD30R,1.200000X1.200000*%
%TD*%
%TA.AperFunction,SMDPad,CuDef*%
%ADD31R,1.500000X1.200000*%
%TD*%
%TA.AperFunction,SMDPad,CuDef*%
%ADD32R,0.400000X2.012500*%
%TD*%
%TA.AperFunction,SMDPad,CuDef*%
%ADD33RoundRect,0.150000X0.150000X-0.512500X0.150000X0.512500X-0.150000X0.512500X-0.150000X-0.512500X0*%
%TD*%
%TA.AperFunction,SMDPad,CuDef*%
%ADD34RoundRect,0.140000X0.140000X0.170000X-0.140000X0.170000X-0.140000X-0.170000X0.140000X-0.170000X0*%
%TD*%
%TA.AperFunction,SMDPad,CuDef*%
%ADD35RoundRect,0.140000X0.170000X-0.140000X0.170000X0.140000X-0.170000X0.140000X-0.170000X-0.140000X0*%
%TD*%
%TA.AperFunction,SMDPad,CuDef*%
%ADD36R,1.981200X0.558800*%
%TD*%
%TA.AperFunction,SMDPad,CuDef*%
%ADD37RoundRect,0.250000X0.475000X-0.250000X0.475000X0.250000X-0.475000X0.250000X-0.475000X-0.250000X0*%
%TD*%
%TA.AperFunction,SMDPad,CuDef*%
%ADD38RoundRect,0.250000X-0.250000X-0.475000X0.250000X-0.475000X0.250000X0.475000X-0.250000X0.475000X0*%
%TD*%
%TA.AperFunction,SMDPad,CuDef*%
%ADD39RoundRect,0.200000X-0.275000X0.200000X-0.275000X-0.200000X0.275000X-0.200000X0.275000X0.200000X0*%
%TD*%
%TA.AperFunction,SMDPad,CuDef*%
%ADD40R,1.400000X1.200000*%
%TD*%
%TA.AperFunction,SMDPad,CuDef*%
%ADD41RoundRect,0.150000X0.650000X0.150000X-0.650000X0.150000X-0.650000X-0.150000X0.650000X-0.150000X0*%
%TD*%
%TA.AperFunction,SMDPad,CuDef*%
%ADD42RoundRect,0.135000X0.135000X0.185000X-0.135000X0.185000X-0.135000X-0.185000X0.135000X-0.185000X0*%
%TD*%
%TA.AperFunction,SMDPad,CuDef*%
%ADD43RoundRect,0.250000X-0.475000X0.250000X-0.475000X-0.250000X0.475000X-0.250000X0.475000X0.250000X0*%
%TD*%
%TA.AperFunction,SMDPad,CuDef*%
%ADD44R,0.900000X1.200000*%
%TD*%
%TA.AperFunction,SMDPad,CuDef*%
%ADD45R,1.200000X0.900000*%
%TD*%
%TA.AperFunction,SMDPad,CuDef*%
%ADD46RoundRect,0.050000X-0.050000X0.387500X-0.050000X-0.387500X0.050000X-0.387500X0.050000X0.387500X0*%
%TD*%
%TA.AperFunction,SMDPad,CuDef*%
%ADD47RoundRect,0.050000X-0.387500X0.050000X-0.387500X-0.050000X0.387500X-0.050000X0.387500X0.050000X0*%
%TD*%
%TA.AperFunction,SMDPad,CuDef*%
%ADD48RoundRect,0.144000X-1.456000X1.456000X-1.456000X-1.456000X1.456000X-1.456000X1.456000X1.456000X0*%
%TD*%
G04 APERTURE END LIST*
D10*
%TO.P,J1,A1,GND*%
%TO.N,GND*%
X282252038Y-165024520D03*
%TO.P,J1,A4,VBUS*%
%TO.N,+5V*%
X282252038Y-164224520D03*
D11*
%TO.P,J1,A5,CC1*%
%TO.N,N/C*%
X282252038Y-163024520D03*
%TO.P,J1,A6,D+*%
X282252038Y-162024520D03*
%TO.P,J1,A7,D-*%
X282252038Y-161524520D03*
%TO.P,J1,A8,SBU1*%
%TO.N,unconnected-(J1-PadA8)*%
X282252038Y-160524520D03*
D10*
%TO.P,J1,A9,VBUS*%
%TO.N,+5V*%
X282252038Y-159324520D03*
%TO.P,J1,A12,GND*%
%TO.N,GND*%
X282252038Y-158524520D03*
%TO.P,J1,B1,GND*%
X282252038Y-158524520D03*
%TO.P,J1,B4,VBUS*%
%TO.N,+5V*%
X282252038Y-159324520D03*
D11*
%TO.P,J1,B5,CC2*%
%TO.N,N/C*%
X282252038Y-160024520D03*
%TO.P,J1,B6,D+*%
X282252038Y-161024520D03*
%TO.P,J1,B7,D-*%
X282252038Y-162524520D03*
%TO.P,J1,B8,SBU2*%
%TO.N,unconnected-(J1-PadB8)*%
X282252038Y-163524520D03*
D10*
%TO.P,J1,B9,VBUS*%
%TO.N,+5V*%
X282252038Y-164224520D03*
%TO.P,J1,B12,GND*%
%TO.N,GND*%
X282252038Y-165024520D03*
D12*
%TO.P,J1,S1,SHIELD*%
%TO.N,Net-(J1-PadS1)*%
X287347038Y-166094520D03*
X287347038Y-157454520D03*
D13*
X283167038Y-157454520D03*
X283167038Y-166094520D03*
%TD*%
D14*
%TO.P,J1,S1,SHIELD*%
%TO.N,Net-(J1-PadS1)*%
X270680000Y-90630000D03*
D15*
X279320000Y-86450000D03*
X270680000Y-86450000D03*
D14*
X279320000Y-90630000D03*
D16*
%TO.P,J1,B12,GND*%
%TO.N,GND*%
X278250000Y-91545000D03*
%TO.P,J1,B9,VBUS*%
%TO.N,+5V*%
X277450000Y-91545000D03*
D17*
%TO.P,J1,B8,SBU2*%
%TO.N,unconnected-(J1-PadB8)*%
X276750000Y-91545000D03*
%TO.P,J1,B7,D-*%
%TO.N,/SUP34*%
X275750000Y-91545000D03*
%TO.P,J1,B6,D+*%
%TO.N,/GPIO0_SDA*%
X274250000Y-91545000D03*
%TO.P,J1,B5,CC2*%
%TO.N,/LED_BR2BL*%
X273250000Y-91545000D03*
D16*
%TO.P,J1,B4,VBUS*%
%TO.N,+5V*%
X272550000Y-91545000D03*
%TO.P,J1,B1,GND*%
%TO.N,GND*%
X271750000Y-91545000D03*
%TO.P,J1,A12,GND*%
X271750000Y-91545000D03*
%TO.P,J1,A9,VBUS*%
%TO.N,+5V*%
X272550000Y-91545000D03*
D17*
%TO.P,J1,A8,SBU1*%
%TO.N,unconnected-(J1-PadA8)*%
X273750000Y-91545000D03*
%TO.P,J1,A7,D-*%
%TO.N,/SUP34*%
X274750000Y-91545000D03*
%TO.P,J1,A6,D+*%
%TO.N,/GPIO0_SDA*%
X275250000Y-91545000D03*
%TO.P,J1,A5,CC1*%
%TO.N,/GPIO1_SCL*%
X276250000Y-91545000D03*
D16*
%TO.P,J1,A4,VBUS*%
%TO.N,+5V*%
X277450000Y-91545000D03*
%TO.P,J1,A1,GND*%
%TO.N,GND*%
X278250000Y-91545000D03*
%TD*%
D18*
%TO.P,C7,1*%
%TO.N,+3V3*%
X247417038Y-158624520D03*
%TO.P,C7,2*%
%TO.N,GND*%
X248377038Y-158624520D03*
%TD*%
D19*
%TO.P,D3,1,DIN*%
%TO.N,Net-(D2-Pad3)*%
X212025000Y-97975000D03*
%TO.P,D3,2,VDD*%
%TO.N,+5V*%
X212975000Y-97975000D03*
%TO.P,D3,3,DOUT*%
%TO.N,Net-(D3-Pad3)*%
X212975000Y-97025000D03*
%TO.P,D3,4,VSS*%
%TO.N,GND*%
X212025000Y-97025000D03*
%TD*%
D20*
%TO.P,C6,1*%
%TO.N,VS*%
X163700000Y-61500000D03*
%TO.P,C6,2*%
%TO.N,GND*%
X161800000Y-61500000D03*
%TD*%
D21*
%TO.P,R26,1*%
%TO.N,+3V3*%
X82325000Y-173500000D03*
%TO.P,R26,2*%
%TO.N,/GPIO0_SDA*%
X80675000Y-173500000D03*
%TD*%
D22*
%TO.P,U2,1,AIN0*%
%TO.N,/SUP10*%
X88920118Y-36555000D03*
%TO.P,U2,2,AIN1*%
%TO.N,/SUP11*%
X88920118Y-37825000D03*
%TO.P,U2,3,AIN2*%
%TO.N,/SUP12*%
X88920118Y-39095000D03*
%TO.P,U2,4,AIN3*%
%TO.N,/SUP13*%
X88920118Y-40365000D03*
%TO.P,U2,5,A0*%
%TO.N,GND*%
X88920118Y-41635000D03*
%TO.P,U2,6,A1*%
%TO.N,+3V3*%
X88920118Y-42905000D03*
%TO.P,U2,7,A2*%
%TO.N,GND*%
X88920118Y-44175000D03*
%TO.P,U2,8,VSS*%
X88920118Y-45445000D03*
%TO.P,U2,9,SDA*%
%TO.N,/GPIO0_SDA*%
X98220118Y-45445000D03*
%TO.P,U2,10,SCL*%
%TO.N,/GPIO1_SCL*%
X98220118Y-44175000D03*
%TO.P,U2,11,OSC*%
%TO.N,unconnected-(U2-Pad11)*%
X98220118Y-42905000D03*
%TO.P,U2,12,EXT*%
%TO.N,GND*%
X98220118Y-41635000D03*
%TO.P,U2,13,AGND*%
X98220118Y-40365000D03*
%TO.P,U2,14,VREF*%
%TO.N,Net-(R17-Pad1)*%
X98220118Y-39095000D03*
%TO.P,U2,15,AOUT*%
%TO.N,unconnected-(U2-Pad15)*%
X98220118Y-37825000D03*
%TO.P,U2,16,VDD*%
%TO.N,+3V3*%
X98220118Y-36555000D03*
%TD*%
D23*
%TO.P,C8,1*%
%TO.N,+3V3*%
X245897038Y-163944520D03*
%TO.P,C8,2*%
%TO.N,GND*%
X245897038Y-164904520D03*
%TD*%
D24*
%TO.P,R14,1*%
%TO.N,Net-(R14-Pad1)*%
X32320118Y-40825000D03*
%TO.P,R14,2*%
%TO.N,VS*%
X32320118Y-39175000D03*
%TD*%
D25*
%TO.P,R15,1*%
%TO.N,+5V*%
X37495118Y-35000000D03*
%TO.P,R15,2*%
%TO.N,GND*%
X39145118Y-35000000D03*
%TD*%
D26*
%TO.P,U3,1,VIN*%
%TO.N,VS*%
X47387500Y-136450000D03*
%TO.P,U3,2,GND*%
%TO.N,GND*%
X47387500Y-135500000D03*
%TO.P,U3,3,EN*%
%TO.N,N/C*%
X47387500Y-134550000D03*
%TO.P,U3,4,NC*%
X45112500Y-134550000D03*
%TO.P,U3,5,VOUT*%
%TO.N,+3V3*%
X45112500Y-136450000D03*
%TD*%
D27*
%TO.P,U1,1,VIN*%
%TO.N,VS*%
X36770118Y-41362500D03*
%TO.P,U1,2,GND*%
%TO.N,GND*%
X35820118Y-41362500D03*
%TO.P,U1,3,EN*%
%TO.N,Net-(R14-Pad1)*%
X34870118Y-41362500D03*
%TO.P,U1,4,NC*%
%TO.N,unconnected-(U1-Pad4)*%
X34870118Y-43637500D03*
%TO.P,U1,5,VOUT*%
%TO.N,+3V3*%
X36770118Y-43637500D03*
%TD*%
D21*
%TO.P,R2,1*%
%TO.N,+3V3*%
X82325000Y-155750000D03*
%TO.P,R2,2*%
%TO.N,/GPIO1_SCL*%
X80675000Y-155750000D03*
%TD*%
D25*
%TO.P,R41,1*%
%TO.N,N/C*%
X264222038Y-176274520D03*
%TO.P,R41,2*%
%TO.N,+3V3*%
X265872038Y-176274520D03*
%TD*%
%TO.P,R8,1*%
%TO.N,GND*%
X275972038Y-154774520D03*
%TO.P,R8,2*%
%TO.N,Net-(J1-PadS1)*%
X277622038Y-154774520D03*
%TD*%
D22*
%TO.P,U9,1,AIN0*%
%TO.N,N/C*%
X250397038Y-173829520D03*
%TO.P,U9,2,AIN1*%
X250397038Y-175099520D03*
%TO.P,U9,3,AIN2*%
X250397038Y-176369520D03*
%TO.P,U9,4,AIN3*%
X250397038Y-177639520D03*
%TO.P,U9,5,A0*%
%TO.N,GND*%
X250397038Y-178909520D03*
%TO.P,U9,6,A1*%
X250397038Y-180179520D03*
%TO.P,U9,7,A2*%
X250397038Y-181449520D03*
%TO.P,U9,8,VSS*%
X250397038Y-182719520D03*
%TO.P,U9,9,SDA*%
%TO.N,/GPIO0_SDA*%
X259697038Y-182719520D03*
%TO.P,U9,10,SCL*%
%TO.N,/GPIO1_SCL*%
X259697038Y-181449520D03*
%TO.P,U9,11,OSC*%
%TO.N,N/C*%
X259697038Y-180179520D03*
%TO.P,U9,12,EXT*%
%TO.N,GND*%
X259697038Y-178909520D03*
%TO.P,U9,13,AGND*%
X259697038Y-177639520D03*
%TO.P,U9,14,VREF*%
%TO.N,N/C*%
X259697038Y-176369520D03*
%TO.P,U9,15,AOUT*%
X259697038Y-175099520D03*
%TO.P,U9,16,VDD*%
%TO.N,+3V3*%
X259697038Y-173829520D03*
%TD*%
D28*
%TO.P,SW3,1,1*%
%TO.N,N/C*%
X129000000Y-188000000D03*
X124900000Y-188000000D03*
%TO.P,SW3,2,2*%
%TO.N,+3V3*%
X129000000Y-189600000D03*
X124900000Y-189600000D03*
%TD*%
D18*
%TO.P,C17,1*%
%TO.N,+3V3*%
X247417038Y-161424520D03*
%TO.P,C17,2*%
%TO.N,GND*%
X248377038Y-161424520D03*
%TD*%
D29*
%TO.P,P1,A1,GND*%
%TO.N,GND*%
X234750000Y-49750000D03*
%TO.P,P1,A4,VBUS*%
%TO.N,+5V*%
X236250000Y-49750000D03*
%TO.P,P1,A5,CC*%
%TO.N,/GPIO1_SCL*%
X236750000Y-49750000D03*
%TO.P,P1,A6,D+*%
%TO.N,/GPIO0_SDA*%
X237250000Y-49750000D03*
%TO.P,P1,A7,D-*%
%TO.N,/SUP34*%
X237750000Y-49750000D03*
%TO.P,P1,A10,RX2-*%
%TO.N,unconnected-(P1-PadA10)*%
X239250000Y-49750000D03*
%TO.P,P1,A11,RX2+*%
%TO.N,unconnected-(P1-PadA11)*%
X239750000Y-49750000D03*
%TO.P,P1,B2,TX2+*%
%TO.N,unconnected-(P1-PadB2)*%
X240250000Y-49750000D03*
%TO.P,P1,B3,TX2-*%
%TO.N,unconnected-(P1-PadB3)*%
X238750000Y-49750000D03*
%TO.P,P1,B5,VCONN*%
%TO.N,unconnected-(P1-PadB5)*%
X238250000Y-49750000D03*
%TO.P,P1,B9,VBUS*%
%TO.N,+5V*%
X235750000Y-49750000D03*
%TO.P,P1,B12,GND*%
%TO.N,GND*%
X235250000Y-49750000D03*
D30*
%TO.P,P1,S1,SHIELD*%
%TO.N,Net-(P1-PadS1)*%
X235750000Y-45200000D03*
D31*
X242050000Y-45250000D03*
D30*
X238750000Y-46950000D03*
X239250000Y-45200000D03*
D32*
X240750000Y-49650000D03*
X234250000Y-49656250D03*
D30*
X236250000Y-46950000D03*
D31*
X232950000Y-47850000D03*
X232950000Y-45200000D03*
X242050000Y-47900000D03*
%TD*%
D21*
%TO.P,R28,1*%
%TO.N,N/C*%
X230522038Y-157824520D03*
%TO.P,R28,2*%
X228872038Y-157824520D03*
%TD*%
D33*
%TO.P,U1,1,VIN*%
%TO.N,VS*%
X261547038Y-163562020D03*
%TO.P,U1,2,GND*%
%TO.N,GND*%
X262497038Y-163562020D03*
%TO.P,U1,3,EN*%
%TO.N,N/C*%
X263447038Y-163562020D03*
%TO.P,U1,4,NC*%
%TO.N,unconnected-(U1-Pad4)*%
X263447038Y-161287020D03*
%TO.P,U1,5,VOUT*%
%TO.N,+3V3*%
X261547038Y-161287020D03*
%TD*%
D34*
%TO.P,C1,1*%
%TO.N,N/C*%
X237177038Y-159624520D03*
%TO.P,C1,2*%
%TO.N,GND*%
X236217038Y-159624520D03*
%TD*%
D35*
%TO.P,C5,1*%
%TO.N,+3V3*%
X241297038Y-153504520D03*
%TO.P,C5,2*%
%TO.N,GND*%
X241297038Y-152544520D03*
%TD*%
D33*
%TO.P,U1,1,VIN*%
%TO.N,VS*%
X166300000Y-61387500D03*
%TO.P,U1,2,GND*%
%TO.N,GND*%
X167250000Y-61387500D03*
%TO.P,U1,3,EN*%
%TO.N,N/C*%
X168200000Y-61387500D03*
%TO.P,U1,4,NC*%
%TO.N,unconnected-(U1-Pad4)*%
X168200000Y-59112500D03*
%TO.P,U1,5,VOUT*%
%TO.N,+3V3*%
X166300000Y-59112500D03*
%TD*%
D36*
%TO.P,U8,1,\u002A1OE*%
%TO.N,GND*%
X211083238Y-156964520D03*
%TO.P,U8,2,1A*%
%TO.N,N/C*%
X211083238Y-158234520D03*
%TO.P,U8,3,1Y*%
X211083238Y-159504520D03*
%TO.P,U8,4,\u002A2OE*%
%TO.N,GND*%
X211083238Y-160774520D03*
%TO.P,U8,5,2A*%
%TO.N,N/C*%
X211083238Y-162044520D03*
%TO.P,U8,6,2Y*%
X211083238Y-163314520D03*
%TO.P,U8,7,GND*%
%TO.N,GND*%
X211083238Y-164584520D03*
%TO.P,U8,8,3Y*%
%TO.N,N/C*%
X216010838Y-164584520D03*
%TO.P,U8,9,3A*%
X216010838Y-163314520D03*
%TO.P,U8,10,\u002A3OE*%
X216010838Y-162044520D03*
%TO.P,U8,11,4Y*%
X216010838Y-160774520D03*
%TO.P,U8,12,4A*%
X216010838Y-159504520D03*
%TO.P,U8,13,\u002A4OE*%
X216010838Y-158234520D03*
%TO.P,U8,14,VCC*%
%TO.N,+5V*%
X216010838Y-156964520D03*
%TD*%
D21*
%TO.P,R20,1*%
%TO.N,+3V3*%
X82325000Y-157500000D03*
%TO.P,R20,2*%
%TO.N,/GPIO0_SDA*%
X80675000Y-157500000D03*
%TD*%
D37*
%TO.P,C22,1*%
%TO.N,+3V3*%
X260297038Y-171224520D03*
%TO.P,C22,2*%
%TO.N,GND*%
X260297038Y-169324520D03*
%TD*%
D25*
%TO.P,R22,1*%
%TO.N,N/C*%
X80425000Y-167500000D03*
%TO.P,R22,2*%
%TO.N,+3V3*%
X82075000Y-167500000D03*
%TD*%
D38*
%TO.P,C1,1*%
%TO.N,+3V3*%
X80550000Y-146500000D03*
%TO.P,C1,2*%
%TO.N,GND*%
X82450000Y-146500000D03*
%TD*%
D21*
%TO.P,R19,1*%
%TO.N,+3V3*%
X103820118Y-59250000D03*
%TO.P,R19,2*%
%TO.N,/GPIO0_SDA*%
X102170118Y-59250000D03*
%TD*%
D18*
%TO.P,C16,1*%
%TO.N,N/C*%
X247417038Y-160424520D03*
%TO.P,C16,2*%
%TO.N,GND*%
X248377038Y-160424520D03*
%TD*%
D38*
%TO.P,C16,1*%
%TO.N,+3V3*%
X102045118Y-37800000D03*
%TO.P,C16,2*%
%TO.N,GND*%
X103945118Y-37800000D03*
%TD*%
D25*
%TO.P,R21,1*%
%TO.N,Net-(R21-Pad1)*%
X102170118Y-55800000D03*
%TO.P,R21,2*%
%TO.N,+3V3*%
X103820118Y-55800000D03*
%TD*%
%TO.P,R1,1*%
%TO.N,N/C*%
X80425000Y-135500000D03*
%TO.P,R1,2*%
%TO.N,+3V3*%
X82075000Y-135500000D03*
%TD*%
D39*
%TO.P,R2,1*%
%TO.N,N/C*%
X170750000Y-61925000D03*
%TO.P,R2,2*%
%TO.N,VS*%
X170750000Y-63575000D03*
%TD*%
D25*
%TO.P,R23,1*%
%TO.N,N/C*%
X49425000Y-133000000D03*
%TO.P,R23,2*%
%TO.N,VS*%
X51075000Y-133000000D03*
%TD*%
D40*
%TO.P,Y1,1,1*%
%TO.N,N/C*%
X224797038Y-159674520D03*
%TO.P,Y1,2,2*%
%TO.N,GND*%
X226997038Y-159674520D03*
%TO.P,Y1,3,3*%
%TO.N,N/C*%
X226997038Y-157974520D03*
%TO.P,Y1,4,4*%
%TO.N,GND*%
X224797038Y-157974520D03*
%TD*%
D25*
%TO.P,R4,1*%
%TO.N,GND*%
X275972038Y-159274520D03*
%TO.P,R4,2*%
%TO.N,N/C*%
X277622038Y-159274520D03*
%TD*%
%TO.P,R20,1*%
%TO.N,Net-(R20-Pad1)*%
X102170118Y-70800000D03*
%TO.P,R20,2*%
%TO.N,+3V3*%
X103820118Y-70800000D03*
%TD*%
D41*
%TO.P,U2,1,~{CS}*%
%TO.N,N/C*%
X257097038Y-146929520D03*
%TO.P,U2,2,DO(IO1)*%
X257097038Y-145659520D03*
%TO.P,U2,3,IO2*%
X257097038Y-144389520D03*
%TO.P,U2,4,GND*%
%TO.N,GND*%
X257097038Y-143119520D03*
%TO.P,U2,5,DI(IO0)*%
%TO.N,N/C*%
X249897038Y-143119520D03*
%TO.P,U2,6,CLK*%
X249897038Y-144389520D03*
%TO.P,U2,7,IO3*%
X249897038Y-145659520D03*
%TO.P,U2,8,VCC*%
%TO.N,+3V3*%
X249897038Y-146929520D03*
%TD*%
D22*
%TO.P,U3,1,AIN0*%
%TO.N,/SUP14*%
X88920118Y-66555000D03*
%TO.P,U3,2,AIN1*%
%TO.N,/SUP15*%
X88920118Y-67825000D03*
%TO.P,U3,3,AIN2*%
%TO.N,/SUP16*%
X88920118Y-69095000D03*
%TO.P,U3,4,AIN3*%
%TO.N,/SUP17*%
X88920118Y-70365000D03*
%TO.P,U3,5,A0*%
%TO.N,GND*%
X88920118Y-71635000D03*
%TO.P,U3,6,A1*%
X88920118Y-72905000D03*
%TO.P,U3,7,A2*%
%TO.N,+3V3*%
X88920118Y-74175000D03*
%TO.P,U3,8,VSS*%
%TO.N,GND*%
X88920118Y-75445000D03*
%TO.P,U3,9,SDA*%
%TO.N,/GPIO0_SDA*%
X98220118Y-75445000D03*
%TO.P,U3,10,SCL*%
%TO.N,/GPIO1_SCL*%
X98220118Y-74175000D03*
%TO.P,U3,11,OSC*%
%TO.N,unconnected-(U3-Pad11)*%
X98220118Y-72905000D03*
%TO.P,U3,12,EXT*%
%TO.N,GND*%
X98220118Y-71635000D03*
%TO.P,U3,13,AGND*%
X98220118Y-70365000D03*
%TO.P,U3,14,VREF*%
%TO.N,Net-(R20-Pad1)*%
X98220118Y-69095000D03*
%TO.P,U3,15,AOUT*%
%TO.N,unconnected-(U3-Pad15)*%
X98220118Y-67825000D03*
%TO.P,U3,16,VDD*%
%TO.N,+3V3*%
X98220118Y-66555000D03*
%TD*%
D42*
%TO.P,R7,1*%
%TO.N,N/C*%
X250607038Y-160224520D03*
%TO.P,R7,2*%
X249587038Y-160224520D03*
%TD*%
D24*
%TO.P,R3,1*%
%TO.N,+5V*%
X162750000Y-66325000D03*
%TO.P,R3,2*%
%TO.N,GND*%
X162750000Y-64675000D03*
%TD*%
D28*
%TO.P,SW4,1,1*%
%TO.N,GND*%
X282347038Y-137974520D03*
X278247038Y-137974520D03*
%TO.P,SW4,2,2*%
%TO.N,N/C*%
X278247038Y-139574520D03*
X282347038Y-139574520D03*
%TD*%
D43*
%TO.P,C12,1*%
%TO.N,VS*%
X267697038Y-162074520D03*
%TO.P,C12,2*%
%TO.N,GND*%
X267697038Y-163974520D03*
%TD*%
D24*
%TO.P,R1,1*%
%TO.N,N/C*%
X265497038Y-163849520D03*
%TO.P,R1,2*%
%TO.N,VS*%
X265497038Y-162199520D03*
%TD*%
D43*
%TO.P,C13,1*%
%TO.N,+3V3*%
X34320118Y-46050000D03*
%TO.P,C13,2*%
%TO.N,GND*%
X34320118Y-47950000D03*
%TD*%
%TO.P,C14,1*%
%TO.N,+3V3*%
X36820118Y-46050000D03*
%TO.P,C14,2*%
%TO.N,GND*%
X36820118Y-47950000D03*
%TD*%
D19*
%TO.P,D4,1,DIN*%
%TO.N,Net-(D3-Pad3)*%
X133475000Y-182275000D03*
%TO.P,D4,2,VDD*%
%TO.N,+5V*%
X134425000Y-182275000D03*
%TO.P,D4,3,DOUT*%
%TO.N,N/C*%
X134425000Y-181325000D03*
%TO.P,D4,4,VSS*%
%TO.N,GND*%
X133475000Y-181325000D03*
%TD*%
%TO.P,D3,1,DIN*%
%TO.N,Net-(D2-Pad3)*%
X292025000Y-32975000D03*
%TO.P,D3,2,VDD*%
%TO.N,+5V*%
X292975000Y-32975000D03*
%TO.P,D3,3,DOUT*%
%TO.N,Net-(D3-Pad3)*%
X292975000Y-32025000D03*
%TO.P,D3,4,VSS*%
%TO.N,GND*%
X292025000Y-32025000D03*
%TD*%
D38*
%TO.P,C9,1*%
%TO.N,+3V3*%
X80550000Y-131000000D03*
%TO.P,C9,2*%
%TO.N,GND*%
X82450000Y-131000000D03*
%TD*%
D35*
%TO.P,C4,1*%
%TO.N,+3V3*%
X245897038Y-153504520D03*
%TO.P,C4,2*%
%TO.N,GND*%
X245897038Y-152544520D03*
%TD*%
D44*
%TO.P,D1,1,K*%
%TO.N,VS*%
X49600000Y-136500000D03*
%TO.P,D1,2,A*%
%TO.N,+5V*%
X52900000Y-136500000D03*
%TD*%
D38*
%TO.P,C8,1*%
%TO.N,+3V3*%
X80550000Y-133500000D03*
%TO.P,C8,2*%
%TO.N,GND*%
X82450000Y-133500000D03*
%TD*%
D37*
%TO.P,C11,1*%
%TO.N,+3V3*%
X261497038Y-159374520D03*
%TO.P,C11,2*%
%TO.N,GND*%
X261497038Y-157474520D03*
%TD*%
D34*
%TO.P,C6,1*%
%TO.N,+3V3*%
X237177038Y-158624520D03*
%TO.P,C6,2*%
%TO.N,GND*%
X236217038Y-158624520D03*
%TD*%
D38*
%TO.P,C20,1*%
%TO.N,+3V3*%
X102045118Y-68800000D03*
%TO.P,C20,2*%
%TO.N,GND*%
X103945118Y-68800000D03*
%TD*%
D23*
%TO.P,C3,1*%
%TO.N,+3V3*%
X241297038Y-163944520D03*
%TO.P,C3,2*%
%TO.N,GND*%
X241297038Y-164904520D03*
%TD*%
D25*
%TO.P,R19,1*%
%TO.N,+3V3*%
X274272038Y-147974520D03*
%TO.P,R19,2*%
%TO.N,N/C*%
X275922038Y-147974520D03*
%TD*%
D28*
%TO.P,SW5,1,1*%
%TO.N,GND*%
X278247038Y-146174520D03*
X282347038Y-146174520D03*
%TO.P,SW5,2,2*%
%TO.N,N/C*%
X278247038Y-147774520D03*
X282347038Y-147774520D03*
%TD*%
D38*
%TO.P,C4,1*%
%TO.N,+3V3*%
X80550000Y-165500000D03*
%TO.P,C4,2*%
%TO.N,GND*%
X82450000Y-165500000D03*
%TD*%
%TO.P,C19,1*%
%TO.N,+3V3*%
X102045118Y-51300000D03*
%TO.P,C19,2*%
%TO.N,GND*%
X103945118Y-51300000D03*
%TD*%
D37*
%TO.P,C5,1*%
%TO.N,+3V3*%
X165750000Y-56700000D03*
%TO.P,C5,2*%
%TO.N,GND*%
X165750000Y-54800000D03*
%TD*%
D38*
%TO.P,C8,1*%
%TO.N,+3V3*%
X180550000Y-40500000D03*
%TO.P,C8,2*%
%TO.N,GND*%
X182450000Y-40500000D03*
%TD*%
D18*
%TO.P,C9,1*%
%TO.N,+3V3*%
X247417038Y-162424520D03*
%TO.P,C9,2*%
%TO.N,GND*%
X248377038Y-162424520D03*
%TD*%
%TO.P,C2,1*%
%TO.N,N/C*%
X247417038Y-157624520D03*
%TO.P,C2,2*%
%TO.N,GND*%
X248377038Y-157624520D03*
%TD*%
D21*
%TO.P,R19,1*%
%TO.N,+3V3*%
X82325000Y-171750000D03*
%TO.P,R19,2*%
%TO.N,/GPIO1_SCL*%
X80675000Y-171750000D03*
%TD*%
D34*
%TO.P,C20,1*%
%TO.N,N/C*%
X226377038Y-156024520D03*
%TO.P,C20,2*%
%TO.N,GND*%
X225417038Y-156024520D03*
%TD*%
D45*
%TO.P,D13,1,K*%
%TO.N,VS*%
X35320118Y-38650000D03*
%TO.P,D13,2,A*%
%TO.N,+5V*%
X35320118Y-35350000D03*
%TD*%
D21*
%TO.P,R42,1*%
%TO.N,+3V3*%
X265872038Y-181024520D03*
%TO.P,R42,2*%
%TO.N,/GPIO1_SCL*%
X264222038Y-181024520D03*
%TD*%
D22*
%TO.P,U2,1,AIN0*%
%TO.N,N/C*%
X67850000Y-148055000D03*
%TO.P,U2,2,AIN1*%
X67850000Y-149325000D03*
%TO.P,U2,3,AIN2*%
X67850000Y-150595000D03*
%TO.P,U2,4,AIN3*%
X67850000Y-151865000D03*
%TO.P,U2,5,A0*%
%TO.N,GND*%
X67850000Y-153135000D03*
%TO.P,U2,6,A1*%
%TO.N,+3V3*%
X67850000Y-154405000D03*
%TO.P,U2,7,A2*%
X67850000Y-155675000D03*
%TO.P,U2,8,VSS*%
%TO.N,GND*%
X67850000Y-156945000D03*
%TO.P,U2,9,SDA*%
%TO.N,/GPIO0_SDA*%
X77150000Y-156945000D03*
%TO.P,U2,10,SCL*%
%TO.N,/GPIO1_SCL*%
X77150000Y-155675000D03*
%TO.P,U2,11,OSC*%
%TO.N,unconnected-(U2-Pad11)*%
X77150000Y-154405000D03*
%TO.P,U2,12,EXT*%
%TO.N,GND*%
X77150000Y-153135000D03*
%TO.P,U2,13,AGND*%
X77150000Y-151865000D03*
%TO.P,U2,14,VREF*%
%TO.N,N/C*%
X77150000Y-150595000D03*
%TO.P,U2,15,AOUT*%
%TO.N,unconnected-(U2-Pad15)*%
X77150000Y-149325000D03*
%TO.P,U2,16,VDD*%
%TO.N,+3V3*%
X77150000Y-148055000D03*
%TD*%
D44*
%TO.P,D1,1,K*%
%TO.N,VS*%
X267447038Y-160024520D03*
%TO.P,D1,2,A*%
%TO.N,+5V*%
X270747038Y-160024520D03*
%TD*%
D19*
%TO.P,D3,1,DIN*%
%TO.N,Net-(D2-Pad3)*%
X133475000Y-175275000D03*
%TO.P,D3,2,VDD*%
%TO.N,+5V*%
X134425000Y-175275000D03*
%TO.P,D3,3,DOUT*%
%TO.N,Net-(D3-Pad3)*%
X134425000Y-174325000D03*
%TO.P,D3,4,VSS*%
%TO.N,GND*%
X133475000Y-174325000D03*
%TD*%
D21*
%TO.P,R24,1*%
%TO.N,+3V3*%
X103820118Y-43250000D03*
%TO.P,R24,2*%
%TO.N,/GPIO0_SDA*%
X102170118Y-43250000D03*
%TD*%
D20*
%TO.P,C5,1*%
%TO.N,+3V3*%
X42700000Y-137000000D03*
%TO.P,C5,2*%
%TO.N,GND*%
X40800000Y-137000000D03*
%TD*%
D42*
%TO.P,R6,1*%
%TO.N,N/C*%
X250607038Y-159224520D03*
%TO.P,R6,2*%
X249587038Y-159224520D03*
%TD*%
D21*
%TO.P,R24,1*%
%TO.N,+5V*%
X53075000Y-139000000D03*
%TO.P,R24,2*%
%TO.N,GND*%
X51425000Y-139000000D03*
%TD*%
D38*
%TO.P,C2,1*%
%TO.N,+3V3*%
X80550000Y-149000000D03*
%TO.P,C2,2*%
%TO.N,GND*%
X82450000Y-149000000D03*
%TD*%
D22*
%TO.P,U4,1,AIN0*%
%TO.N,/SUP18*%
X88920118Y-51555000D03*
%TO.P,U4,2,AIN1*%
%TO.N,/SUP19*%
X88920118Y-52825000D03*
%TO.P,U4,3,AIN2*%
%TO.N,/SUP20*%
X88920118Y-54095000D03*
%TO.P,U4,4,AIN3*%
%TO.N,/SUP21*%
X88920118Y-55365000D03*
%TO.P,U4,5,A0*%
%TO.N,+3V3*%
X88920118Y-56635000D03*
%TO.P,U4,6,A1*%
X88920118Y-57905000D03*
%TO.P,U4,7,A2*%
%TO.N,GND*%
X88920118Y-59175000D03*
%TO.P,U4,8,VSS*%
X88920118Y-60445000D03*
%TO.P,U4,9,SDA*%
%TO.N,/GPIO0_SDA*%
X98220118Y-60445000D03*
%TO.P,U4,10,SCL*%
%TO.N,/GPIO1_SCL*%
X98220118Y-59175000D03*
%TO.P,U4,11,OSC*%
%TO.N,unconnected-(U4-Pad11)*%
X98220118Y-57905000D03*
%TO.P,U4,12,EXT*%
%TO.N,GND*%
X98220118Y-56635000D03*
%TO.P,U4,13,AGND*%
X98220118Y-55365000D03*
%TO.P,U4,14,VREF*%
%TO.N,Net-(R21-Pad1)*%
X98220118Y-54095000D03*
%TO.P,U4,15,AOUT*%
%TO.N,unconnected-(U4-Pad15)*%
X98220118Y-52825000D03*
%TO.P,U4,16,VDD*%
%TO.N,+3V3*%
X98220118Y-51555000D03*
%TD*%
D37*
%TO.P,C4,1*%
%TO.N,+3V3*%
X168500000Y-56700000D03*
%TO.P,C4,2*%
%TO.N,GND*%
X168500000Y-54800000D03*
%TD*%
D34*
%TO.P,C18,1*%
%TO.N,+3V3*%
X247777038Y-147024520D03*
%TO.P,C18,2*%
%TO.N,GND*%
X246817038Y-147024520D03*
%TD*%
D21*
%TO.P,R25,1*%
%TO.N,+3V3*%
X82075000Y-139750000D03*
%TO.P,R25,2*%
%TO.N,/GPIO1_SCL*%
X80425000Y-139750000D03*
%TD*%
%TO.P,R6,1*%
%TO.N,+3V3*%
X182325000Y-48000000D03*
%TO.P,R6,2*%
%TO.N,/GPIO1_SCL*%
X180675000Y-48000000D03*
%TD*%
%TO.P,R18,1*%
%TO.N,+3V3*%
X103820118Y-57500000D03*
%TO.P,R18,2*%
%TO.N,/GPIO1_SCL*%
X102170118Y-57500000D03*
%TD*%
D25*
%TO.P,R17,1*%
%TO.N,Net-(R17-Pad1)*%
X102170118Y-39800000D03*
%TO.P,R17,2*%
%TO.N,+3V3*%
X103820118Y-39800000D03*
%TD*%
D21*
%TO.P,R23,1*%
%TO.N,+3V3*%
X103820118Y-41500000D03*
%TO.P,R23,2*%
%TO.N,/GPIO1_SCL*%
X102170118Y-41500000D03*
%TD*%
D37*
%TO.P,C21,1*%
%TO.N,+3V3*%
X258047038Y-171224520D03*
%TO.P,C21,2*%
%TO.N,GND*%
X258047038Y-169324520D03*
%TD*%
D38*
%TO.P,C18,1*%
%TO.N,+3V3*%
X102045118Y-53800000D03*
%TO.P,C18,2*%
%TO.N,GND*%
X103945118Y-53800000D03*
%TD*%
D25*
%TO.P,R10,1*%
%TO.N,N/C*%
X274272038Y-139774520D03*
%TO.P,R10,2*%
X275922038Y-139774520D03*
%TD*%
%TO.P,R5,1*%
%TO.N,N/C*%
X180675000Y-43000000D03*
%TO.P,R5,2*%
%TO.N,+3V3*%
X182325000Y-43000000D03*
%TD*%
%TO.P,R18,1*%
%TO.N,N/C*%
X80425000Y-151000000D03*
%TO.P,R18,2*%
%TO.N,+3V3*%
X82075000Y-151000000D03*
%TD*%
D21*
%TO.P,R22,1*%
%TO.N,+3V3*%
X103820118Y-72500000D03*
%TO.P,R22,2*%
%TO.N,/GPIO1_SCL*%
X102170118Y-72500000D03*
%TD*%
%TO.P,R3,1*%
%TO.N,+3V3*%
X82075000Y-141500000D03*
%TO.P,R3,2*%
%TO.N,/GPIO0_SDA*%
X80425000Y-141500000D03*
%TD*%
D20*
%TO.P,C6,1*%
%TO.N,+3V3*%
X42700000Y-134250000D03*
%TO.P,C6,2*%
%TO.N,GND*%
X40800000Y-134250000D03*
%TD*%
D43*
%TO.P,C7,1*%
%TO.N,VS*%
X47750000Y-139300000D03*
%TO.P,C7,2*%
%TO.N,GND*%
X47750000Y-141200000D03*
%TD*%
D37*
%TO.P,C10,1*%
%TO.N,+3V3*%
X263697038Y-159374520D03*
%TO.P,C10,2*%
%TO.N,GND*%
X263697038Y-157474520D03*
%TD*%
D45*
%TO.P,D4,1,K*%
%TO.N,VS*%
X166200000Y-63850000D03*
%TO.P,D4,2,A*%
%TO.N,+5V*%
X166200000Y-67150000D03*
%TD*%
D28*
%TO.P,SW2,1,1*%
%TO.N,N/C*%
X119000000Y-188000000D03*
X114900000Y-188000000D03*
%TO.P,SW2,2,2*%
%TO.N,+3V3*%
X114900000Y-189600000D03*
X119000000Y-189600000D03*
%TD*%
D37*
%TO.P,C15,1*%
%TO.N,VS*%
X39320118Y-38950000D03*
%TO.P,C15,2*%
%TO.N,GND*%
X39320118Y-37050000D03*
%TD*%
D21*
%TO.P,R25,1*%
%TO.N,+3V3*%
X103820118Y-74250000D03*
%TO.P,R25,2*%
%TO.N,/GPIO0_SDA*%
X102170118Y-74250000D03*
%TD*%
D38*
%TO.P,C3,1*%
%TO.N,+3V3*%
X80550000Y-163000000D03*
%TO.P,C3,2*%
%TO.N,GND*%
X82450000Y-163000000D03*
%TD*%
D20*
%TO.P,C7,1*%
%TO.N,+3V3*%
X164450000Y-45500000D03*
%TO.P,C7,2*%
%TO.N,GND*%
X162550000Y-45500000D03*
%TD*%
D21*
%TO.P,R43,1*%
%TO.N,+3V3*%
X265872038Y-182774520D03*
%TO.P,R43,2*%
%TO.N,/GPIO0_SDA*%
X264222038Y-182774520D03*
%TD*%
D39*
%TO.P,R2,1*%
%TO.N,+5V*%
X270697038Y-161999520D03*
%TO.P,R2,2*%
%TO.N,GND*%
X270697038Y-163649520D03*
%TD*%
D25*
%TO.P,R3,1*%
%TO.N,GND*%
X275972038Y-164274520D03*
%TO.P,R3,2*%
%TO.N,N/C*%
X277622038Y-164274520D03*
%TD*%
D21*
%TO.P,R9,1*%
%TO.N,+3V3*%
X261122038Y-147024520D03*
%TO.P,R9,2*%
%TO.N,N/C*%
X259472038Y-147024520D03*
%TD*%
D35*
%TO.P,C19,1*%
%TO.N,N/C*%
X222897038Y-159304520D03*
%TO.P,C19,2*%
%TO.N,GND*%
X222897038Y-158344520D03*
%TD*%
D28*
%TO.P,SW1,1,1*%
%TO.N,N/C*%
X177500000Y-145000000D03*
X173400000Y-145000000D03*
%TO.P,SW1,2,2*%
%TO.N,+3V3*%
X173400000Y-146600000D03*
X177500000Y-146600000D03*
%TD*%
D19*
%TO.P,D3,1,DIN*%
%TO.N,Net-(D2-Pad3)*%
X137025000Y-112975000D03*
%TO.P,D3,2,VDD*%
%TO.N,+5V*%
X137975000Y-112975000D03*
%TO.P,D3,3,DOUT*%
%TO.N,Net-(D3-Pad3)*%
X137975000Y-112025000D03*
%TO.P,D3,4,VSS*%
%TO.N,GND*%
X137025000Y-112025000D03*
%TD*%
D22*
%TO.P,U4,1,AIN0*%
%TO.N,N/C*%
X67850000Y-164055000D03*
%TO.P,U4,2,AIN1*%
X67850000Y-165325000D03*
%TO.P,U4,3,AIN2*%
X67850000Y-166595000D03*
%TO.P,U4,4,AIN3*%
X67850000Y-167865000D03*
%TO.P,U4,5,A0*%
%TO.N,GND*%
X67850000Y-169135000D03*
%TO.P,U4,6,A1*%
X67850000Y-170405000D03*
%TO.P,U4,7,A2*%
X67850000Y-171675000D03*
%TO.P,U4,8,VSS*%
X67850000Y-172945000D03*
%TO.P,U4,9,SDA*%
%TO.N,/GPIO0_SDA*%
X77150000Y-172945000D03*
%TO.P,U4,10,SCL*%
%TO.N,/GPIO1_SCL*%
X77150000Y-171675000D03*
%TO.P,U4,11,OSC*%
%TO.N,unconnected-(U4-Pad11)*%
X77150000Y-170405000D03*
%TO.P,U4,12,EXT*%
%TO.N,GND*%
X77150000Y-169135000D03*
%TO.P,U4,13,AGND*%
X77150000Y-167865000D03*
%TO.P,U4,14,VREF*%
%TO.N,N/C*%
X77150000Y-166595000D03*
%TO.P,U4,15,AOUT*%
%TO.N,unconnected-(U4-Pad15)*%
X77150000Y-165325000D03*
%TO.P,U4,16,VDD*%
%TO.N,+3V3*%
X77150000Y-164055000D03*
%TD*%
%TO.P,U1,1,AIN0*%
%TO.N,N/C*%
X67850000Y-132055000D03*
%TO.P,U1,2,AIN1*%
X67850000Y-133325000D03*
%TO.P,U1,3,AIN2*%
X67850000Y-134595000D03*
%TO.P,U1,4,AIN3*%
X67850000Y-135865000D03*
%TO.P,U1,5,A0*%
%TO.N,+3V3*%
X67850000Y-137135000D03*
%TO.P,U1,6,A1*%
%TO.N,GND*%
X67850000Y-138405000D03*
%TO.P,U1,7,A2*%
%TO.N,+3V3*%
X67850000Y-139675000D03*
%TO.P,U1,8,VSS*%
%TO.N,GND*%
X67850000Y-140945000D03*
%TO.P,U1,9,SDA*%
%TO.N,/GPIO0_SDA*%
X77150000Y-140945000D03*
%TO.P,U1,10,SCL*%
%TO.N,/GPIO1_SCL*%
X77150000Y-139675000D03*
%TO.P,U1,11,OSC*%
%TO.N,N/C*%
X77150000Y-138405000D03*
%TO.P,U1,12,EXT*%
%TO.N,GND*%
X77150000Y-137135000D03*
%TO.P,U1,13,AGND*%
X77150000Y-135865000D03*
%TO.P,U1,14,VREF*%
%TO.N,N/C*%
X77150000Y-134595000D03*
%TO.P,U1,15,AOUT*%
X77150000Y-133325000D03*
%TO.P,U1,16,VDD*%
%TO.N,+3V3*%
X77150000Y-132055000D03*
%TD*%
D21*
%TO.P,R7,1*%
%TO.N,+3V3*%
X182325000Y-50000000D03*
%TO.P,R7,2*%
%TO.N,/GPIO0_SDA*%
X180675000Y-50000000D03*
%TD*%
D38*
%TO.P,C17,1*%
%TO.N,+3V3*%
X102045118Y-35300000D03*
%TO.P,C17,2*%
%TO.N,GND*%
X103945118Y-35300000D03*
%TD*%
D19*
%TO.P,D2,1,DIN*%
%TO.N,N/C*%
X133475000Y-168775000D03*
%TO.P,D2,2,VDD*%
%TO.N,+5V*%
X134425000Y-168775000D03*
%TO.P,D2,3,DOUT*%
%TO.N,Net-(D2-Pad3)*%
X134425000Y-167825000D03*
%TO.P,D2,4,VSS*%
%TO.N,GND*%
X133475000Y-167825000D03*
%TD*%
D22*
%TO.P,U2,1,AIN0*%
%TO.N,N/C*%
X167850000Y-40555000D03*
%TO.P,U2,2,AIN1*%
X167850000Y-41825000D03*
%TO.P,U2,3,AIN2*%
X167850000Y-43095000D03*
%TO.P,U2,4,AIN3*%
X167850000Y-44365000D03*
%TO.P,U2,5,A0*%
%TO.N,+3V3*%
X167850000Y-45635000D03*
%TO.P,U2,6,A1*%
%TO.N,GND*%
X167850000Y-46905000D03*
%TO.P,U2,7,A2*%
X167850000Y-48175000D03*
%TO.P,U2,8,VSS*%
X167850000Y-49445000D03*
%TO.P,U2,9,SDA*%
%TO.N,/GPIO0_SDA*%
X177150000Y-49445000D03*
%TO.P,U2,10,SCL*%
%TO.N,/GPIO1_SCL*%
X177150000Y-48175000D03*
%TO.P,U2,11,OSC*%
%TO.N,unconnected-(U2-Pad11)*%
X177150000Y-46905000D03*
%TO.P,U2,12,EXT*%
%TO.N,GND*%
X177150000Y-45635000D03*
%TO.P,U2,13,AGND*%
X177150000Y-44365000D03*
%TO.P,U2,14,VREF*%
%TO.N,N/C*%
X177150000Y-43095000D03*
%TO.P,U2,15,AOUT*%
%TO.N,unconnected-(U2-Pad15)*%
X177150000Y-41825000D03*
%TO.P,U2,16,VDD*%
%TO.N,+3V3*%
X177150000Y-40555000D03*
%TD*%
D38*
%TO.P,C21,1*%
%TO.N,+3V3*%
X102045118Y-66300000D03*
%TO.P,C21,2*%
%TO.N,GND*%
X103945118Y-66300000D03*
%TD*%
D46*
%TO.P,U3,1,IOVDD*%
%TO.N,+3V3*%
X244897038Y-155337020D03*
%TO.P,U3,2,GPIO0*%
%TO.N,/GPIO0_SDA*%
X244497038Y-155337020D03*
%TO.P,U3,3,GPIO1*%
%TO.N,/GPIO1_SCL*%
X244097038Y-155337020D03*
%TO.P,U3,4,GPIO2*%
%TO.N,N/C*%
X243697038Y-155337020D03*
%TO.P,U3,5,GPIO3*%
X243297038Y-155337020D03*
%TO.P,U3,6,GPIO4*%
X242897038Y-155337020D03*
%TO.P,U3,7,GPIO5*%
X242497038Y-155337020D03*
%TO.P,U3,8,GPIO6*%
X242097038Y-155337020D03*
%TO.P,U3,9,GPIO7*%
X241697038Y-155337020D03*
%TO.P,U3,10,IOVDD*%
%TO.N,+3V3*%
X241297038Y-155337020D03*
%TO.P,U3,11,GPIO8*%
%TO.N,N/C*%
X240897038Y-155337020D03*
%TO.P,U3,12,GPIO9*%
X240497038Y-155337020D03*
%TO.P,U3,13,GPIO10*%
X240097038Y-155337020D03*
%TO.P,U3,14,GPIO11*%
X239697038Y-155337020D03*
D47*
%TO.P,U3,15,GPIO12*%
X238859538Y-156174520D03*
%TO.P,U3,16,GPIO13*%
X238859538Y-156574520D03*
%TO.P,U3,17,GPIO14*%
X238859538Y-156974520D03*
%TO.P,U3,18,GPIO15*%
X238859538Y-157374520D03*
%TO.P,U3,19,TESTEN*%
%TO.N,GND*%
X238859538Y-157774520D03*
%TO.P,U3,20,XIN*%
%TO.N,N/C*%
X238859538Y-158174520D03*
%TO.P,U3,21,XOUT*%
X238859538Y-158574520D03*
%TO.P,U3,22,IOVDD*%
%TO.N,+3V3*%
X238859538Y-158974520D03*
%TO.P,U3,23,DVDD*%
%TO.N,N/C*%
X238859538Y-159374520D03*
%TO.P,U3,24,SWCLK*%
X238859538Y-159774520D03*
%TO.P,U3,25,SWD*%
X238859538Y-160174520D03*
%TO.P,U3,26,RUN*%
X238859538Y-160574520D03*
%TO.P,U3,27,GPIO16*%
X238859538Y-160974520D03*
%TO.P,U3,28,GPIO17*%
X238859538Y-161374520D03*
D46*
%TO.P,U3,29,GPIO18*%
X239697038Y-162212020D03*
%TO.P,U3,30,GPIO19*%
X240097038Y-162212020D03*
%TO.P,U3,31,GPIO20*%
X240497038Y-162212020D03*
%TO.P,U3,32,GPIO21*%
X240897038Y-162212020D03*
%TO.P,U3,33,IOVDD*%
%TO.N,+3V3*%
X241297038Y-162212020D03*
%TO.P,U3,34,GPIO22*%
%TO.N,N/C*%
X241697038Y-162212020D03*
%TO.P,U3,35,GPIO23*%
X242097038Y-162212020D03*
%TO.P,U3,36,GPIO24*%
X242497038Y-162212020D03*
%TO.P,U3,37,GPIO25*%
X242897038Y-162212020D03*
%TO.P,U3,38,GPIO26_ADC0*%
X243297038Y-162212020D03*
%TO.P,U3,39,GPIO27_ADC1*%
X243697038Y-162212020D03*
%TO.P,U3,40,GPIO28_ADC2*%
%TO.N,/SUP34*%
X244097038Y-162212020D03*
%TO.P,U3,41,GPIO29_ADC3*%
%TO.N,N/C*%
X244497038Y-162212020D03*
%TO.P,U3,42,IOVDD*%
%TO.N,+3V3*%
X244897038Y-162212020D03*
D47*
%TO.P,U3,43,ADC_AVDD*%
X245734538Y-161374520D03*
%TO.P,U3,44,VREG_IN*%
X245734538Y-160974520D03*
%TO.P,U3,45,VREG_VOUT*%
%TO.N,N/C*%
X245734538Y-160574520D03*
%TO.P,U3,46,USB_DM*%
X245734538Y-160174520D03*
%TO.P,U3,47,USB_DP*%
X245734538Y-159774520D03*
%TO.P,U3,48,USB_VDD*%
%TO.N,+3V3*%
X245734538Y-159374520D03*
%TO.P,U3,49,IOVDD*%
X245734538Y-158974520D03*
%TO.P,U3,50,DVDD*%
%TO.N,N/C*%
X245734538Y-158574520D03*
%TO.P,U3,51,QSPI_SD3*%
X245734538Y-158174520D03*
%TO.P,U3,52,QSPI_SCLK*%
X245734538Y-157774520D03*
%TO.P,U3,53,QSPI_SD0*%
X245734538Y-157374520D03*
%TO.P,U3,54,QSPI_SD2*%
X245734538Y-156974520D03*
%TO.P,U3,55,QSPI_SD1*%
X245734538Y-156574520D03*
%TO.P,U3,56,QSPI_SS*%
X245734538Y-156174520D03*
D48*
%TO.P,U3,57,GND*%
%TO.N,GND*%
X242297038Y-158774520D03*
%TD*%
M02*
