%TF.GenerationSoftware,KiCad,Pcbnew,(6.0.4)*%
%TF.CreationDate,2022-05-27T00:32:28-07:00*%
%TF.ProjectId,bot_L,626f745f-4c2e-46b6-9963-61645f706362,rev?*%
%TF.SameCoordinates,Original*%
%TF.FileFunction,Legend,Top*%
%TF.FilePolarity,Positive*%
%FSLAX46Y46*%
G04 Gerber Fmt 4.6, Leading zero omitted, Abs format (unit mm)*
G04 Created by KiCad (PCBNEW (6.0.4)) date 2022-05-27 00:32:28*
%MOMM*%
%LPD*%
G01*
G04 APERTURE LIST*
G04 Aperture macros list*
%AMRoundRect*
0 Rectangle with rounded corners*
0 $1 Rounding radius*
0 $2 $3 $4 $5 $6 $7 $8 $9 X,Y pos of 4 corners*
0 Add a 4 corners polygon primitive as box body*
4,1,4,$2,$3,$4,$5,$6,$7,$8,$9,$2,$3,0*
0 Add four circle primitives for the rounded corners*
1,1,$1+$1,$2,$3*
1,1,$1+$1,$4,$5*
1,1,$1+$1,$6,$7*
1,1,$1+$1,$8,$9*
0 Add four rect primitives between the rounded corners*
20,1,$1+$1,$2,$3,$4,$5,0*
20,1,$1+$1,$4,$5,$6,$7,0*
20,1,$1+$1,$6,$7,$8,$9,0*
20,1,$1+$1,$8,$9,$2,$3,0*%
G04 Aperture macros list end*
%ADD10C,0.150000*%
%ADD11C,0.062500*%
%ADD12C,0.120000*%
%ADD13C,0.010000*%
%ADD14C,0.100000*%
%ADD15C,0.650000*%
%ADD16R,1.450000X0.600000*%
%ADD17R,1.450000X0.300000*%
%ADD18O,1.600000X1.000000*%
%ADD19O,2.100000X1.000000*%
%ADD20O,1.000000X2.100000*%
%ADD21O,1.000000X1.600000*%
%ADD22R,0.600000X1.450000*%
%ADD23R,0.300000X1.450000*%
%ADD24RoundRect,0.140000X-0.140000X-0.170000X0.140000X-0.170000X0.140000X0.170000X-0.140000X0.170000X0*%
%ADD25R,0.550000X0.550000*%
%ADD26RoundRect,0.250000X0.250000X0.475000X-0.250000X0.475000X-0.250000X-0.475000X0.250000X-0.475000X0*%
%ADD27RoundRect,0.200000X0.200000X0.275000X-0.200000X0.275000X-0.200000X-0.275000X0.200000X-0.275000X0*%
%ADD28RoundRect,0.150000X-0.875000X-0.150000X0.875000X-0.150000X0.875000X0.150000X-0.875000X0.150000X0*%
%ADD29RoundRect,0.140000X-0.170000X0.140000X-0.170000X-0.140000X0.170000X-0.140000X0.170000X0.140000X0*%
%ADD30RoundRect,0.200000X0.275000X-0.200000X0.275000X0.200000X-0.275000X0.200000X-0.275000X-0.200000X0*%
%ADD31RoundRect,0.200000X-0.200000X-0.275000X0.200000X-0.275000X0.200000X0.275000X-0.200000X0.275000X0*%
%ADD32RoundRect,0.150000X0.512500X0.150000X-0.512500X0.150000X-0.512500X-0.150000X0.512500X-0.150000X0*%
%ADD33RoundRect,0.150000X-0.150000X0.512500X-0.150000X-0.512500X0.150000X-0.512500X0.150000X0.512500X0*%
%ADD34R,0.900000X1.000000*%
%ADD35R,0.400000X1.825000*%
%ADD36R,1.200000X1.200000*%
%ADD37R,1.500000X1.200000*%
%ADD38R,0.400000X2.012500*%
%ADD39RoundRect,0.150000X0.150000X-0.512500X0.150000X0.512500X-0.150000X0.512500X-0.150000X-0.512500X0*%
%ADD40RoundRect,0.140000X0.140000X0.170000X-0.140000X0.170000X-0.140000X-0.170000X0.140000X-0.170000X0*%
%ADD41RoundRect,0.140000X0.170000X-0.140000X0.170000X0.140000X-0.170000X0.140000X-0.170000X-0.140000X0*%
%ADD42R,1.981200X0.558800*%
%ADD43RoundRect,0.250000X0.475000X-0.250000X0.475000X0.250000X-0.475000X0.250000X-0.475000X-0.250000X0*%
%ADD44RoundRect,0.250000X-0.250000X-0.475000X0.250000X-0.475000X0.250000X0.475000X-0.250000X0.475000X0*%
%ADD45RoundRect,0.200000X-0.275000X0.200000X-0.275000X-0.200000X0.275000X-0.200000X0.275000X0.200000X0*%
%ADD46R,1.400000X1.200000*%
%ADD47RoundRect,0.150000X0.650000X0.150000X-0.650000X0.150000X-0.650000X-0.150000X0.650000X-0.150000X0*%
%ADD48RoundRect,0.135000X0.135000X0.185000X-0.135000X0.185000X-0.135000X-0.185000X0.135000X-0.185000X0*%
%ADD49RoundRect,0.250000X-0.475000X0.250000X-0.475000X-0.250000X0.475000X-0.250000X0.475000X0.250000X0*%
%ADD50R,0.900000X1.200000*%
%ADD51R,1.200000X0.900000*%
%ADD52RoundRect,0.050000X-0.050000X0.387500X-0.050000X-0.387500X0.050000X-0.387500X0.050000X0.387500X0*%
%ADD53RoundRect,0.050000X-0.387500X0.050000X-0.387500X-0.050000X0.387500X-0.050000X0.387500X0.050000X0*%
%ADD54RoundRect,0.144000X-1.456000X1.456000X-1.456000X-1.456000X1.456000X-1.456000X1.456000X1.456000X0*%
G04 APERTURE END LIST*
D10*
X287500000Y-100000000D02*
X262500000Y-100000000D01*
X262500000Y-77500000D02*
X287500000Y-77500000D01*
X225000000Y-35000000D02*
X250000000Y-35000000D01*
X147500000Y-102500000D02*
X127500000Y-102500000D01*
X185000000Y-137500000D02*
X185000000Y-197500000D01*
X262500000Y-100000000D02*
X262500000Y-77500000D01*
X190000000Y-32500000D02*
X190000000Y-75000000D01*
X287500000Y-77500000D02*
X287500000Y-100000000D01*
X147500000Y-122500000D02*
X147500000Y-102500000D01*
X291750000Y-129000000D02*
X291750000Y-189000000D01*
X35000000Y-182500000D02*
X90000000Y-182500000D01*
X90000000Y-122500000D02*
X35000000Y-122500000D01*
X185000000Y-197500000D02*
X110000000Y-197500000D01*
X204250000Y-129000000D02*
X291750000Y-129000000D01*
X250000000Y-57500000D02*
X225000000Y-57500000D01*
X190000000Y-75000000D02*
X155000000Y-75000000D01*
X302500000Y-22500000D02*
X282500000Y-22500000D01*
X127500000Y-102500000D02*
X127500000Y-122500000D01*
X155000000Y-75000000D02*
X155000000Y-32500000D01*
X112500000Y-25000000D02*
X112500000Y-85000000D01*
X110000000Y-197500000D02*
X110000000Y-137500000D01*
X155000000Y-32500000D02*
X190000000Y-32500000D01*
X25000000Y-25000000D02*
X112500000Y-25000000D01*
X127500000Y-122500000D02*
X147500000Y-122500000D01*
X282500000Y-22500000D02*
X282500000Y-42500000D01*
X250000000Y-35000000D02*
X250000000Y-57500000D01*
X302500000Y-42500000D02*
X302500000Y-22500000D01*
X291750000Y-189000000D02*
X204250000Y-189000000D01*
X112500000Y-85000000D02*
X25000000Y-85000000D01*
X35000000Y-122500000D02*
X35000000Y-182500000D01*
X222500000Y-107500000D02*
X222500000Y-87500000D01*
X90000000Y-182500000D02*
X90000000Y-122500000D01*
X202500000Y-87500000D02*
X202500000Y-107500000D01*
X282500000Y-42500000D02*
X302500000Y-42500000D01*
X204250000Y-189000000D02*
X204250000Y-129000000D01*
X110000000Y-137500000D02*
X185000000Y-137500000D01*
X222500000Y-87500000D02*
X202500000Y-87500000D01*
X202500000Y-107500000D02*
X222500000Y-107500000D01*
X225000000Y-57500000D02*
X225000000Y-35000000D01*
X25000000Y-85000000D02*
X25000000Y-25000000D01*
X53214285Y-27428571D02*
X53357142Y-27476190D01*
X53404761Y-27523809D01*
X53452380Y-27619047D01*
X53452380Y-27761904D01*
X53404761Y-27857142D01*
X53357142Y-27904761D01*
X53261904Y-27952380D01*
X52880952Y-27952380D01*
X52880952Y-26952380D01*
X53214285Y-26952380D01*
X53309523Y-27000000D01*
X53357142Y-27047619D01*
X53404761Y-27142857D01*
X53404761Y-27238095D01*
X53357142Y-27333333D01*
X53309523Y-27380952D01*
X53214285Y-27428571D01*
X52880952Y-27428571D01*
X54071428Y-26952380D02*
X54261904Y-26952380D01*
X54357142Y-27000000D01*
X54452380Y-27095238D01*
X54500000Y-27285714D01*
X54500000Y-27619047D01*
X54452380Y-27809523D01*
X54357142Y-27904761D01*
X54261904Y-27952380D01*
X54071428Y-27952380D01*
X53976190Y-27904761D01*
X53880952Y-27809523D01*
X53833333Y-27619047D01*
X53833333Y-27285714D01*
X53880952Y-27095238D01*
X53976190Y-27000000D01*
X54071428Y-26952380D01*
X54785714Y-26952380D02*
X55357142Y-26952380D01*
X55071428Y-27952380D02*
X55071428Y-26952380D01*
X55547619Y-26952380D02*
X56119047Y-26952380D01*
X55833333Y-27952380D02*
X55833333Y-26952380D01*
X56642857Y-26952380D02*
X56833333Y-26952380D01*
X56928571Y-27000000D01*
X57023809Y-27095238D01*
X57071428Y-27285714D01*
X57071428Y-27619047D01*
X57023809Y-27809523D01*
X56928571Y-27904761D01*
X56833333Y-27952380D01*
X56642857Y-27952380D01*
X56547619Y-27904761D01*
X56452380Y-27809523D01*
X56404761Y-27619047D01*
X56404761Y-27285714D01*
X56452380Y-27095238D01*
X56547619Y-27000000D01*
X56642857Y-26952380D01*
X57500000Y-27952380D02*
X57500000Y-26952380D01*
X57833333Y-27666666D01*
X58166666Y-26952380D01*
X58166666Y-27952380D01*
X59880952Y-27952380D02*
X59404761Y-27952380D01*
X59404761Y-26952380D01*
X60214285Y-27428571D02*
X60547619Y-27428571D01*
X60690476Y-27952380D02*
X60214285Y-27952380D01*
X60214285Y-26952380D01*
X60690476Y-26952380D01*
X61452380Y-27428571D02*
X61119047Y-27428571D01*
X61119047Y-27952380D02*
X61119047Y-26952380D01*
X61595238Y-26952380D01*
X61833333Y-26952380D02*
X62404761Y-26952380D01*
X62119047Y-27952380D02*
X62119047Y-26952380D01*
X63500000Y-27952380D02*
X63500000Y-26952380D01*
X63880952Y-26952380D01*
X63976190Y-27000000D01*
X64023809Y-27047619D01*
X64071428Y-27142857D01*
X64071428Y-27285714D01*
X64023809Y-27380952D01*
X63976190Y-27428571D01*
X63880952Y-27476190D01*
X63500000Y-27476190D01*
X64690476Y-26952380D02*
X64880952Y-26952380D01*
X64976190Y-27000000D01*
X65071428Y-27095238D01*
X65119047Y-27285714D01*
X65119047Y-27619047D01*
X65071428Y-27809523D01*
X64976190Y-27904761D01*
X64880952Y-27952380D01*
X64690476Y-27952380D01*
X64595238Y-27904761D01*
X64500000Y-27809523D01*
X64452380Y-27619047D01*
X64452380Y-27285714D01*
X64500000Y-27095238D01*
X64595238Y-27000000D01*
X64690476Y-26952380D01*
X65452380Y-26952380D02*
X65690476Y-27952380D01*
X65880952Y-27238095D01*
X66071428Y-27952380D01*
X66309523Y-26952380D01*
X66690476Y-27428571D02*
X67023809Y-27428571D01*
X67166666Y-27952380D02*
X66690476Y-27952380D01*
X66690476Y-26952380D01*
X67166666Y-26952380D01*
X68166666Y-27952380D02*
X67833333Y-27476190D01*
X67595238Y-27952380D02*
X67595238Y-26952380D01*
X67976190Y-26952380D01*
X68071428Y-27000000D01*
X68119047Y-27047619D01*
X68166666Y-27142857D01*
X68166666Y-27285714D01*
X68119047Y-27380952D01*
X68071428Y-27428571D01*
X67976190Y-27476190D01*
X67595238Y-27476190D01*
X69309523Y-27666666D02*
X69785714Y-27666666D01*
X69214285Y-27952380D02*
X69547619Y-26952380D01*
X69880952Y-27952380D01*
X70214285Y-27952380D02*
X70214285Y-26952380D01*
X70785714Y-27952380D01*
X70785714Y-26952380D01*
X71261904Y-27952380D02*
X71261904Y-26952380D01*
X71500000Y-26952380D01*
X71642857Y-27000000D01*
X71738095Y-27095238D01*
X71785714Y-27190476D01*
X71833333Y-27380952D01*
X71833333Y-27523809D01*
X71785714Y-27714285D01*
X71738095Y-27809523D01*
X71642857Y-27904761D01*
X71500000Y-27952380D01*
X71261904Y-27952380D01*
X72976190Y-27666666D02*
X73452380Y-27666666D01*
X72880952Y-27952380D02*
X73214285Y-26952380D01*
X73547619Y-27952380D01*
X73880952Y-27952380D02*
X73880952Y-26952380D01*
X74119047Y-26952380D01*
X74261904Y-27000000D01*
X74357142Y-27095238D01*
X74404761Y-27190476D01*
X74452380Y-27380952D01*
X74452380Y-27523809D01*
X74404761Y-27714285D01*
X74357142Y-27809523D01*
X74261904Y-27904761D01*
X74119047Y-27952380D01*
X73880952Y-27952380D01*
X75452380Y-27857142D02*
X75404761Y-27904761D01*
X75261904Y-27952380D01*
X75166666Y-27952380D01*
X75023809Y-27904761D01*
X74928571Y-27809523D01*
X74880952Y-27714285D01*
X74833333Y-27523809D01*
X74833333Y-27380952D01*
X74880952Y-27190476D01*
X74928571Y-27095238D01*
X75023809Y-27000000D01*
X75166666Y-26952380D01*
X75261904Y-26952380D01*
X75404761Y-27000000D01*
X75452380Y-27047619D01*
X76595238Y-27904761D02*
X76738095Y-27952380D01*
X76976190Y-27952380D01*
X77071428Y-27904761D01*
X77119047Y-27857142D01*
X77166666Y-27761904D01*
X77166666Y-27666666D01*
X77119047Y-27571428D01*
X77071428Y-27523809D01*
X76976190Y-27476190D01*
X76785714Y-27428571D01*
X76690476Y-27380952D01*
X76642857Y-27333333D01*
X76595238Y-27238095D01*
X76595238Y-27142857D01*
X76642857Y-27047619D01*
X76690476Y-27000000D01*
X76785714Y-26952380D01*
X77023809Y-26952380D01*
X77166666Y-27000000D01*
X77452380Y-26952380D02*
X78023809Y-26952380D01*
X77738095Y-27952380D02*
X77738095Y-26952380D01*
X78357142Y-27428571D02*
X78690476Y-27428571D01*
X78833333Y-27952380D02*
X78357142Y-27952380D01*
X78357142Y-26952380D01*
X78833333Y-26952380D01*
X79261904Y-27952380D02*
X79261904Y-26952380D01*
X79833333Y-27952380D01*
X79833333Y-26952380D01*
X80880952Y-27857142D02*
X80833333Y-27904761D01*
X80690476Y-27952380D01*
X80595238Y-27952380D01*
X80452380Y-27904761D01*
X80357142Y-27809523D01*
X80309523Y-27714285D01*
X80261904Y-27523809D01*
X80261904Y-27380952D01*
X80309523Y-27190476D01*
X80357142Y-27095238D01*
X80452380Y-27000000D01*
X80595238Y-26952380D01*
X80690476Y-26952380D01*
X80833333Y-27000000D01*
X80880952Y-27047619D01*
X81309523Y-27952380D02*
X81309523Y-26952380D01*
X82261904Y-27952380D02*
X81785714Y-27952380D01*
X81785714Y-26952380D01*
X285619047Y-24928571D02*
X285285714Y-24928571D01*
X285285714Y-25452380D02*
X285285714Y-24452380D01*
X285761904Y-24452380D01*
X286714285Y-25452380D02*
X286380952Y-24976190D01*
X286142857Y-25452380D02*
X286142857Y-24452380D01*
X286523809Y-24452380D01*
X286619047Y-24500000D01*
X286666666Y-24547619D01*
X286714285Y-24642857D01*
X286714285Y-24785714D01*
X286666666Y-24880952D01*
X286619047Y-24928571D01*
X286523809Y-24976190D01*
X286142857Y-24976190D01*
X287333333Y-24452380D02*
X287523809Y-24452380D01*
X287619047Y-24500000D01*
X287714285Y-24595238D01*
X287761904Y-24785714D01*
X287761904Y-25119047D01*
X287714285Y-25309523D01*
X287619047Y-25404761D01*
X287523809Y-25452380D01*
X287333333Y-25452380D01*
X287238095Y-25404761D01*
X287142857Y-25309523D01*
X287095238Y-25119047D01*
X287095238Y-24785714D01*
X287142857Y-24595238D01*
X287238095Y-24500000D01*
X287333333Y-24452380D01*
X288190476Y-25452380D02*
X288190476Y-24452380D01*
X288761904Y-25452380D01*
X288761904Y-24452380D01*
X289095238Y-24452380D02*
X289666666Y-24452380D01*
X289380952Y-25452380D02*
X289380952Y-24452380D01*
X291238095Y-25452380D02*
X290761904Y-25452380D01*
X290761904Y-24452380D01*
X291571428Y-24928571D02*
X291904761Y-24928571D01*
X292047619Y-25452380D02*
X291571428Y-25452380D01*
X291571428Y-24452380D01*
X292047619Y-24452380D01*
X292476190Y-25452380D02*
X292476190Y-24452380D01*
X292714285Y-24452380D01*
X292857142Y-24500000D01*
X292952380Y-24595238D01*
X293000000Y-24690476D01*
X293047619Y-24880952D01*
X293047619Y-25023809D01*
X293000000Y-25214285D01*
X292952380Y-25309523D01*
X292857142Y-25404761D01*
X292714285Y-25452380D01*
X292476190Y-25452380D01*
X294190476Y-25404761D02*
X294333333Y-25452380D01*
X294571428Y-25452380D01*
X294666666Y-25404761D01*
X294714285Y-25357142D01*
X294761904Y-25261904D01*
X294761904Y-25166666D01*
X294714285Y-25071428D01*
X294666666Y-25023809D01*
X294571428Y-24976190D01*
X294380952Y-24928571D01*
X294285714Y-24880952D01*
X294238095Y-24833333D01*
X294190476Y-24738095D01*
X294190476Y-24642857D01*
X294238095Y-24547619D01*
X294285714Y-24500000D01*
X294380952Y-24452380D01*
X294619047Y-24452380D01*
X294761904Y-24500000D01*
X295047619Y-24452380D02*
X295619047Y-24452380D01*
X295333333Y-25452380D02*
X295333333Y-24452380D01*
X295952380Y-24928571D02*
X296285714Y-24928571D01*
X296428571Y-25452380D02*
X295952380Y-25452380D01*
X295952380Y-24452380D01*
X296428571Y-24452380D01*
X296857142Y-25452380D02*
X296857142Y-24452380D01*
X297428571Y-25452380D01*
X297428571Y-24452380D01*
X298476190Y-25357142D02*
X298428571Y-25404761D01*
X298285714Y-25452380D01*
X298190476Y-25452380D01*
X298047619Y-25404761D01*
X297952380Y-25309523D01*
X297904761Y-25214285D01*
X297857142Y-25023809D01*
X297857142Y-24880952D01*
X297904761Y-24690476D01*
X297952380Y-24595238D01*
X298047619Y-24500000D01*
X298190476Y-24452380D01*
X298285714Y-24452380D01*
X298428571Y-24500000D01*
X298476190Y-24547619D01*
X298904761Y-25452380D02*
X298904761Y-24452380D01*
X299857142Y-25452380D02*
X299380952Y-25452380D01*
X299380952Y-24452380D01*
X130619047Y-104928571D02*
X130285714Y-104928571D01*
X130285714Y-105452380D02*
X130285714Y-104452380D01*
X130761904Y-104452380D01*
X131714285Y-105452380D02*
X131380952Y-104976190D01*
X131142857Y-105452380D02*
X131142857Y-104452380D01*
X131523809Y-104452380D01*
X131619047Y-104500000D01*
X131666666Y-104547619D01*
X131714285Y-104642857D01*
X131714285Y-104785714D01*
X131666666Y-104880952D01*
X131619047Y-104928571D01*
X131523809Y-104976190D01*
X131142857Y-104976190D01*
X132333333Y-104452380D02*
X132523809Y-104452380D01*
X132619047Y-104500000D01*
X132714285Y-104595238D01*
X132761904Y-104785714D01*
X132761904Y-105119047D01*
X132714285Y-105309523D01*
X132619047Y-105404761D01*
X132523809Y-105452380D01*
X132333333Y-105452380D01*
X132238095Y-105404761D01*
X132142857Y-105309523D01*
X132095238Y-105119047D01*
X132095238Y-104785714D01*
X132142857Y-104595238D01*
X132238095Y-104500000D01*
X132333333Y-104452380D01*
X133190476Y-105452380D02*
X133190476Y-104452380D01*
X133761904Y-105452380D01*
X133761904Y-104452380D01*
X134095238Y-104452380D02*
X134666666Y-104452380D01*
X134380952Y-105452380D02*
X134380952Y-104452380D01*
X136238095Y-105452380D02*
X135761904Y-105452380D01*
X135761904Y-104452380D01*
X136571428Y-104928571D02*
X136904761Y-104928571D01*
X137047619Y-105452380D02*
X136571428Y-105452380D01*
X136571428Y-104452380D01*
X137047619Y-104452380D01*
X137476190Y-105452380D02*
X137476190Y-104452380D01*
X137714285Y-104452380D01*
X137857142Y-104500000D01*
X137952380Y-104595238D01*
X138000000Y-104690476D01*
X138047619Y-104880952D01*
X138047619Y-105023809D01*
X138000000Y-105214285D01*
X137952380Y-105309523D01*
X137857142Y-105404761D01*
X137714285Y-105452380D01*
X137476190Y-105452380D01*
X139190476Y-105404761D02*
X139333333Y-105452380D01*
X139571428Y-105452380D01*
X139666666Y-105404761D01*
X139714285Y-105357142D01*
X139761904Y-105261904D01*
X139761904Y-105166666D01*
X139714285Y-105071428D01*
X139666666Y-105023809D01*
X139571428Y-104976190D01*
X139380952Y-104928571D01*
X139285714Y-104880952D01*
X139238095Y-104833333D01*
X139190476Y-104738095D01*
X139190476Y-104642857D01*
X139238095Y-104547619D01*
X139285714Y-104500000D01*
X139380952Y-104452380D01*
X139619047Y-104452380D01*
X139761904Y-104500000D01*
X140047619Y-104452380D02*
X140619047Y-104452380D01*
X140333333Y-105452380D02*
X140333333Y-104452380D01*
X140952380Y-104928571D02*
X141285714Y-104928571D01*
X141428571Y-105452380D02*
X140952380Y-105452380D01*
X140952380Y-104452380D01*
X141428571Y-104452380D01*
X141857142Y-105452380D02*
X141857142Y-104452380D01*
X142428571Y-105452380D01*
X142428571Y-104452380D01*
X143476190Y-105357142D02*
X143428571Y-105404761D01*
X143285714Y-105452380D01*
X143190476Y-105452380D01*
X143047619Y-105404761D01*
X142952380Y-105309523D01*
X142904761Y-105214285D01*
X142857142Y-105023809D01*
X142857142Y-104880952D01*
X142904761Y-104690476D01*
X142952380Y-104595238D01*
X143047619Y-104500000D01*
X143190476Y-104452380D01*
X143285714Y-104452380D01*
X143428571Y-104500000D01*
X143476190Y-104547619D01*
X143904761Y-105452380D02*
X143904761Y-104452380D01*
X144857142Y-105452380D02*
X144380952Y-105452380D01*
X144380952Y-104452380D01*
X223345238Y-130952380D02*
X223916666Y-130952380D01*
X223630952Y-131952380D02*
X223630952Y-130952380D01*
X224440476Y-130952380D02*
X224630952Y-130952380D01*
X224726190Y-131000000D01*
X224821428Y-131095238D01*
X224869047Y-131285714D01*
X224869047Y-131619047D01*
X224821428Y-131809523D01*
X224726190Y-131904761D01*
X224630952Y-131952380D01*
X224440476Y-131952380D01*
X224345238Y-131904761D01*
X224250000Y-131809523D01*
X224202380Y-131619047D01*
X224202380Y-131285714D01*
X224250000Y-131095238D01*
X224345238Y-131000000D01*
X224440476Y-130952380D01*
X225297619Y-131952380D02*
X225297619Y-130952380D01*
X225678571Y-130952380D01*
X225773809Y-131000000D01*
X225821428Y-131047619D01*
X225869047Y-131142857D01*
X225869047Y-131285714D01*
X225821428Y-131380952D01*
X225773809Y-131428571D01*
X225678571Y-131476190D01*
X225297619Y-131476190D01*
X227535714Y-131952380D02*
X227059523Y-131952380D01*
X227059523Y-130952380D01*
X227869047Y-131428571D02*
X228202380Y-131428571D01*
X228345238Y-131952380D02*
X227869047Y-131952380D01*
X227869047Y-130952380D01*
X228345238Y-130952380D01*
X229107142Y-131428571D02*
X228773809Y-131428571D01*
X228773809Y-131952380D02*
X228773809Y-130952380D01*
X229250000Y-130952380D01*
X229488095Y-130952380D02*
X230059523Y-130952380D01*
X229773809Y-131952380D02*
X229773809Y-130952380D01*
X230440476Y-131904761D02*
X230440476Y-131952380D01*
X230392857Y-132047619D01*
X230345238Y-132095238D01*
X231964285Y-131428571D02*
X232107142Y-131476190D01*
X232154761Y-131523809D01*
X232202380Y-131619047D01*
X232202380Y-131761904D01*
X232154761Y-131857142D01*
X232107142Y-131904761D01*
X232011904Y-131952380D01*
X231630952Y-131952380D01*
X231630952Y-130952380D01*
X231964285Y-130952380D01*
X232059523Y-131000000D01*
X232107142Y-131047619D01*
X232154761Y-131142857D01*
X232154761Y-131238095D01*
X232107142Y-131333333D01*
X232059523Y-131380952D01*
X231964285Y-131428571D01*
X231630952Y-131428571D01*
X232583333Y-131666666D02*
X233059523Y-131666666D01*
X232488095Y-131952380D02*
X232821428Y-130952380D01*
X233154761Y-131952380D01*
X234059523Y-131857142D02*
X234011904Y-131904761D01*
X233869047Y-131952380D01*
X233773809Y-131952380D01*
X233630952Y-131904761D01*
X233535714Y-131809523D01*
X233488095Y-131714285D01*
X233440476Y-131523809D01*
X233440476Y-131380952D01*
X233488095Y-131190476D01*
X233535714Y-131095238D01*
X233630952Y-131000000D01*
X233773809Y-130952380D01*
X233869047Y-130952380D01*
X234011904Y-131000000D01*
X234059523Y-131047619D01*
X234488095Y-131952380D02*
X234488095Y-130952380D01*
X235059523Y-131952380D02*
X234630952Y-131380952D01*
X235059523Y-130952380D02*
X234488095Y-131523809D01*
X205619047Y-89928571D02*
X205285714Y-89928571D01*
X205285714Y-90452380D02*
X205285714Y-89452380D01*
X205761904Y-89452380D01*
X206714285Y-90452380D02*
X206380952Y-89976190D01*
X206142857Y-90452380D02*
X206142857Y-89452380D01*
X206523809Y-89452380D01*
X206619047Y-89500000D01*
X206666666Y-89547619D01*
X206714285Y-89642857D01*
X206714285Y-89785714D01*
X206666666Y-89880952D01*
X206619047Y-89928571D01*
X206523809Y-89976190D01*
X206142857Y-89976190D01*
X207333333Y-89452380D02*
X207523809Y-89452380D01*
X207619047Y-89500000D01*
X207714285Y-89595238D01*
X207761904Y-89785714D01*
X207761904Y-90119047D01*
X207714285Y-90309523D01*
X207619047Y-90404761D01*
X207523809Y-90452380D01*
X207333333Y-90452380D01*
X207238095Y-90404761D01*
X207142857Y-90309523D01*
X207095238Y-90119047D01*
X207095238Y-89785714D01*
X207142857Y-89595238D01*
X207238095Y-89500000D01*
X207333333Y-89452380D01*
X208190476Y-90452380D02*
X208190476Y-89452380D01*
X208761904Y-90452380D01*
X208761904Y-89452380D01*
X209095238Y-89452380D02*
X209666666Y-89452380D01*
X209380952Y-90452380D02*
X209380952Y-89452380D01*
X211238095Y-90452380D02*
X210761904Y-90452380D01*
X210761904Y-89452380D01*
X211571428Y-89928571D02*
X211904761Y-89928571D01*
X212047619Y-90452380D02*
X211571428Y-90452380D01*
X211571428Y-89452380D01*
X212047619Y-89452380D01*
X212476190Y-90452380D02*
X212476190Y-89452380D01*
X212714285Y-89452380D01*
X212857142Y-89500000D01*
X212952380Y-89595238D01*
X213000000Y-89690476D01*
X213047619Y-89880952D01*
X213047619Y-90023809D01*
X213000000Y-90214285D01*
X212952380Y-90309523D01*
X212857142Y-90404761D01*
X212714285Y-90452380D01*
X212476190Y-90452380D01*
X214190476Y-90404761D02*
X214333333Y-90452380D01*
X214571428Y-90452380D01*
X214666666Y-90404761D01*
X214714285Y-90357142D01*
X214761904Y-90261904D01*
X214761904Y-90166666D01*
X214714285Y-90071428D01*
X214666666Y-90023809D01*
X214571428Y-89976190D01*
X214380952Y-89928571D01*
X214285714Y-89880952D01*
X214238095Y-89833333D01*
X214190476Y-89738095D01*
X214190476Y-89642857D01*
X214238095Y-89547619D01*
X214285714Y-89500000D01*
X214380952Y-89452380D01*
X214619047Y-89452380D01*
X214761904Y-89500000D01*
X215047619Y-89452380D02*
X215619047Y-89452380D01*
X215333333Y-90452380D02*
X215333333Y-89452380D01*
X215952380Y-89928571D02*
X216285714Y-89928571D01*
X216428571Y-90452380D02*
X215952380Y-90452380D01*
X215952380Y-89452380D01*
X216428571Y-89452380D01*
X216857142Y-90452380D02*
X216857142Y-89452380D01*
X217428571Y-90452380D01*
X217428571Y-89452380D01*
X218476190Y-90357142D02*
X218428571Y-90404761D01*
X218285714Y-90452380D01*
X218190476Y-90452380D01*
X218047619Y-90404761D01*
X217952380Y-90309523D01*
X217904761Y-90214285D01*
X217857142Y-90023809D01*
X217857142Y-89880952D01*
X217904761Y-89690476D01*
X217952380Y-89595238D01*
X218047619Y-89500000D01*
X218190476Y-89452380D01*
X218285714Y-89452380D01*
X218428571Y-89500000D01*
X218476190Y-89547619D01*
X218904761Y-90452380D02*
X218904761Y-89452380D01*
X219857142Y-90452380D02*
X219380952Y-90452380D01*
X219380952Y-89452380D01*
X128904761Y-139452380D02*
X129476190Y-139452380D01*
X129190476Y-140452380D02*
X129190476Y-139452380D01*
X130000000Y-139452380D02*
X130190476Y-139452380D01*
X130285714Y-139500000D01*
X130380952Y-139595238D01*
X130428571Y-139785714D01*
X130428571Y-140119047D01*
X130380952Y-140309523D01*
X130285714Y-140404761D01*
X130190476Y-140452380D01*
X130000000Y-140452380D01*
X129904761Y-140404761D01*
X129809523Y-140309523D01*
X129761904Y-140119047D01*
X129761904Y-139785714D01*
X129809523Y-139595238D01*
X129904761Y-139500000D01*
X130000000Y-139452380D01*
X130857142Y-140452380D02*
X130857142Y-139452380D01*
X131238095Y-139452380D01*
X131333333Y-139500000D01*
X131380952Y-139547619D01*
X131428571Y-139642857D01*
X131428571Y-139785714D01*
X131380952Y-139880952D01*
X131333333Y-139928571D01*
X131238095Y-139976190D01*
X130857142Y-139976190D01*
X133095238Y-140452380D02*
X132619047Y-140452380D01*
X132619047Y-139452380D01*
X133428571Y-139928571D02*
X133761904Y-139928571D01*
X133904761Y-140452380D02*
X133428571Y-140452380D01*
X133428571Y-139452380D01*
X133904761Y-139452380D01*
X134666666Y-139928571D02*
X134333333Y-139928571D01*
X134333333Y-140452380D02*
X134333333Y-139452380D01*
X134809523Y-139452380D01*
X135047619Y-139452380D02*
X135619047Y-139452380D01*
X135333333Y-140452380D02*
X135333333Y-139452380D01*
X137047619Y-139928571D02*
X136714285Y-139928571D01*
X136714285Y-140452380D02*
X136714285Y-139452380D01*
X137190476Y-139452380D01*
X138142857Y-140452380D02*
X137809523Y-139976190D01*
X137571428Y-140452380D02*
X137571428Y-139452380D01*
X137952380Y-139452380D01*
X138047619Y-139500000D01*
X138095238Y-139547619D01*
X138142857Y-139642857D01*
X138142857Y-139785714D01*
X138095238Y-139880952D01*
X138047619Y-139928571D01*
X137952380Y-139976190D01*
X137571428Y-139976190D01*
X138761904Y-139452380D02*
X138952380Y-139452380D01*
X139047619Y-139500000D01*
X139142857Y-139595238D01*
X139190476Y-139785714D01*
X139190476Y-140119047D01*
X139142857Y-140309523D01*
X139047619Y-140404761D01*
X138952380Y-140452380D01*
X138761904Y-140452380D01*
X138666666Y-140404761D01*
X138571428Y-140309523D01*
X138523809Y-140119047D01*
X138523809Y-139785714D01*
X138571428Y-139595238D01*
X138666666Y-139500000D01*
X138761904Y-139452380D01*
X139619047Y-140452380D02*
X139619047Y-139452380D01*
X140190476Y-140452380D01*
X140190476Y-139452380D01*
X140523809Y-139452380D02*
X141095238Y-139452380D01*
X140809523Y-140452380D02*
X140809523Y-139452380D01*
X158738095Y-34452380D02*
X159309523Y-34452380D01*
X159023809Y-35452380D02*
X159023809Y-34452380D01*
X159833333Y-34452380D02*
X160023809Y-34452380D01*
X160119047Y-34500000D01*
X160214285Y-34595238D01*
X160261904Y-34785714D01*
X160261904Y-35119047D01*
X160214285Y-35309523D01*
X160119047Y-35404761D01*
X160023809Y-35452380D01*
X159833333Y-35452380D01*
X159738095Y-35404761D01*
X159642857Y-35309523D01*
X159595238Y-35119047D01*
X159595238Y-34785714D01*
X159642857Y-34595238D01*
X159738095Y-34500000D01*
X159833333Y-34452380D01*
X160690476Y-35452380D02*
X160690476Y-34452380D01*
X161071428Y-34452380D01*
X161166666Y-34500000D01*
X161214285Y-34547619D01*
X161261904Y-34642857D01*
X161261904Y-34785714D01*
X161214285Y-34880952D01*
X161166666Y-34928571D01*
X161071428Y-34976190D01*
X160690476Y-34976190D01*
X163023809Y-35452380D02*
X162690476Y-34976190D01*
X162452380Y-35452380D02*
X162452380Y-34452380D01*
X162833333Y-34452380D01*
X162928571Y-34500000D01*
X162976190Y-34547619D01*
X163023809Y-34642857D01*
X163023809Y-34785714D01*
X162976190Y-34880952D01*
X162928571Y-34928571D01*
X162833333Y-34976190D01*
X162452380Y-34976190D01*
X163452380Y-35452380D02*
X163452380Y-34452380D01*
X164452380Y-34500000D02*
X164357142Y-34452380D01*
X164214285Y-34452380D01*
X164071428Y-34500000D01*
X163976190Y-34595238D01*
X163928571Y-34690476D01*
X163880952Y-34880952D01*
X163880952Y-35023809D01*
X163928571Y-35214285D01*
X163976190Y-35309523D01*
X164071428Y-35404761D01*
X164214285Y-35452380D01*
X164309523Y-35452380D01*
X164452380Y-35404761D01*
X164500000Y-35357142D01*
X164500000Y-35023809D01*
X164309523Y-35023809D01*
X164928571Y-35452380D02*
X164928571Y-34452380D01*
X164928571Y-34928571D02*
X165500000Y-34928571D01*
X165500000Y-35452380D02*
X165500000Y-34452380D01*
X165833333Y-34452380D02*
X166404761Y-34452380D01*
X166119047Y-35452380D02*
X166119047Y-34452380D01*
X167500000Y-35452380D02*
X167500000Y-34452380D01*
X167880952Y-34452380D01*
X167976190Y-34500000D01*
X168023809Y-34547619D01*
X168071428Y-34642857D01*
X168071428Y-34785714D01*
X168023809Y-34880952D01*
X167976190Y-34928571D01*
X167880952Y-34976190D01*
X167500000Y-34976190D01*
X168690476Y-34452380D02*
X168880952Y-34452380D01*
X168976190Y-34500000D01*
X169071428Y-34595238D01*
X169119047Y-34785714D01*
X169119047Y-35119047D01*
X169071428Y-35309523D01*
X168976190Y-35404761D01*
X168880952Y-35452380D01*
X168690476Y-35452380D01*
X168595238Y-35404761D01*
X168500000Y-35309523D01*
X168452380Y-35119047D01*
X168452380Y-34785714D01*
X168500000Y-34595238D01*
X168595238Y-34500000D01*
X168690476Y-34452380D01*
X169452380Y-34452380D02*
X169690476Y-35452380D01*
X169880952Y-34738095D01*
X170071428Y-35452380D01*
X170309523Y-34452380D01*
X170690476Y-34928571D02*
X171023809Y-34928571D01*
X171166666Y-35452380D02*
X170690476Y-35452380D01*
X170690476Y-34452380D01*
X171166666Y-34452380D01*
X172166666Y-35452380D02*
X171833333Y-34976190D01*
X171595238Y-35452380D02*
X171595238Y-34452380D01*
X171976190Y-34452380D01*
X172071428Y-34500000D01*
X172119047Y-34547619D01*
X172166666Y-34642857D01*
X172166666Y-34785714D01*
X172119047Y-34880952D01*
X172071428Y-34928571D01*
X171976190Y-34976190D01*
X171595238Y-34976190D01*
X173309523Y-35166666D02*
X173785714Y-35166666D01*
X173214285Y-35452380D02*
X173547619Y-34452380D01*
X173880952Y-35452380D01*
X174214285Y-35452380D02*
X174214285Y-34452380D01*
X174785714Y-35452380D01*
X174785714Y-34452380D01*
X175261904Y-35452380D02*
X175261904Y-34452380D01*
X175500000Y-34452380D01*
X175642857Y-34500000D01*
X175738095Y-34595238D01*
X175785714Y-34690476D01*
X175833333Y-34880952D01*
X175833333Y-35023809D01*
X175785714Y-35214285D01*
X175738095Y-35309523D01*
X175642857Y-35404761D01*
X175500000Y-35452380D01*
X175261904Y-35452380D01*
X176976190Y-35166666D02*
X177452380Y-35166666D01*
X176880952Y-35452380D02*
X177214285Y-34452380D01*
X177547619Y-35452380D01*
X177880952Y-35452380D02*
X177880952Y-34452380D01*
X178119047Y-34452380D01*
X178261904Y-34500000D01*
X178357142Y-34595238D01*
X178404761Y-34690476D01*
X178452380Y-34880952D01*
X178452380Y-35023809D01*
X178404761Y-35214285D01*
X178357142Y-35309523D01*
X178261904Y-35404761D01*
X178119047Y-35452380D01*
X177880952Y-35452380D01*
X179452380Y-35357142D02*
X179404761Y-35404761D01*
X179261904Y-35452380D01*
X179166666Y-35452380D01*
X179023809Y-35404761D01*
X178928571Y-35309523D01*
X178880952Y-35214285D01*
X178833333Y-35023809D01*
X178833333Y-34880952D01*
X178880952Y-34690476D01*
X178928571Y-34595238D01*
X179023809Y-34500000D01*
X179166666Y-34452380D01*
X179261904Y-34452380D01*
X179404761Y-34500000D01*
X179452380Y-34547619D01*
X180595238Y-35404761D02*
X180738095Y-35452380D01*
X180976190Y-35452380D01*
X181071428Y-35404761D01*
X181119047Y-35357142D01*
X181166666Y-35261904D01*
X181166666Y-35166666D01*
X181119047Y-35071428D01*
X181071428Y-35023809D01*
X180976190Y-34976190D01*
X180785714Y-34928571D01*
X180690476Y-34880952D01*
X180642857Y-34833333D01*
X180595238Y-34738095D01*
X180595238Y-34642857D01*
X180642857Y-34547619D01*
X180690476Y-34500000D01*
X180785714Y-34452380D01*
X181023809Y-34452380D01*
X181166666Y-34500000D01*
X181452380Y-34452380D02*
X182023809Y-34452380D01*
X181738095Y-35452380D02*
X181738095Y-34452380D01*
X182357142Y-34928571D02*
X182690476Y-34928571D01*
X182833333Y-35452380D02*
X182357142Y-35452380D01*
X182357142Y-34452380D01*
X182833333Y-34452380D01*
X183261904Y-35452380D02*
X183261904Y-34452380D01*
X183833333Y-35452380D01*
X183833333Y-34452380D01*
X184880952Y-35357142D02*
X184833333Y-35404761D01*
X184690476Y-35452380D01*
X184595238Y-35452380D01*
X184452380Y-35404761D01*
X184357142Y-35309523D01*
X184309523Y-35214285D01*
X184261904Y-35023809D01*
X184261904Y-34880952D01*
X184309523Y-34690476D01*
X184357142Y-34595238D01*
X184452380Y-34500000D01*
X184595238Y-34452380D01*
X184690476Y-34452380D01*
X184833333Y-34500000D01*
X184880952Y-34547619D01*
X185309523Y-35452380D02*
X185309523Y-34452380D01*
X186261904Y-35452380D02*
X185785714Y-35452380D01*
X185785714Y-34452380D01*
X47738095Y-124928571D02*
X47880952Y-124976190D01*
X47928571Y-125023809D01*
X47976190Y-125119047D01*
X47976190Y-125261904D01*
X47928571Y-125357142D01*
X47880952Y-125404761D01*
X47785714Y-125452380D01*
X47404761Y-125452380D01*
X47404761Y-124452380D01*
X47738095Y-124452380D01*
X47833333Y-124500000D01*
X47880952Y-124547619D01*
X47928571Y-124642857D01*
X47928571Y-124738095D01*
X47880952Y-124833333D01*
X47833333Y-124880952D01*
X47738095Y-124928571D01*
X47404761Y-124928571D01*
X48595238Y-124452380D02*
X48785714Y-124452380D01*
X48880952Y-124500000D01*
X48976190Y-124595238D01*
X49023809Y-124785714D01*
X49023809Y-125119047D01*
X48976190Y-125309523D01*
X48880952Y-125404761D01*
X48785714Y-125452380D01*
X48595238Y-125452380D01*
X48500000Y-125404761D01*
X48404761Y-125309523D01*
X48357142Y-125119047D01*
X48357142Y-124785714D01*
X48404761Y-124595238D01*
X48500000Y-124500000D01*
X48595238Y-124452380D01*
X49309523Y-124452380D02*
X49880952Y-124452380D01*
X49595238Y-125452380D02*
X49595238Y-124452380D01*
X50071428Y-124452380D02*
X50642857Y-124452380D01*
X50357142Y-125452380D02*
X50357142Y-124452380D01*
X51166666Y-124452380D02*
X51357142Y-124452380D01*
X51452380Y-124500000D01*
X51547619Y-124595238D01*
X51595238Y-124785714D01*
X51595238Y-125119047D01*
X51547619Y-125309523D01*
X51452380Y-125404761D01*
X51357142Y-125452380D01*
X51166666Y-125452380D01*
X51071428Y-125404761D01*
X50976190Y-125309523D01*
X50928571Y-125119047D01*
X50928571Y-124785714D01*
X50976190Y-124595238D01*
X51071428Y-124500000D01*
X51166666Y-124452380D01*
X52023809Y-125452380D02*
X52023809Y-124452380D01*
X52357142Y-125166666D01*
X52690476Y-124452380D01*
X52690476Y-125452380D01*
X54500000Y-125452380D02*
X54166666Y-124976190D01*
X53928571Y-125452380D02*
X53928571Y-124452380D01*
X54309523Y-124452380D01*
X54404761Y-124500000D01*
X54452380Y-124547619D01*
X54500000Y-124642857D01*
X54500000Y-124785714D01*
X54452380Y-124880952D01*
X54404761Y-124928571D01*
X54309523Y-124976190D01*
X53928571Y-124976190D01*
X54928571Y-125452380D02*
X54928571Y-124452380D01*
X55928571Y-124500000D02*
X55833333Y-124452380D01*
X55690476Y-124452380D01*
X55547619Y-124500000D01*
X55452380Y-124595238D01*
X55404761Y-124690476D01*
X55357142Y-124880952D01*
X55357142Y-125023809D01*
X55404761Y-125214285D01*
X55452380Y-125309523D01*
X55547619Y-125404761D01*
X55690476Y-125452380D01*
X55785714Y-125452380D01*
X55928571Y-125404761D01*
X55976190Y-125357142D01*
X55976190Y-125023809D01*
X55785714Y-125023809D01*
X56404761Y-125452380D02*
X56404761Y-124452380D01*
X56404761Y-124928571D02*
X56976190Y-124928571D01*
X56976190Y-125452380D02*
X56976190Y-124452380D01*
X57309523Y-124452380D02*
X57880952Y-124452380D01*
X57595238Y-125452380D02*
X57595238Y-124452380D01*
X58976190Y-125452380D02*
X58976190Y-124452380D01*
X59357142Y-124452380D01*
X59452380Y-124500000D01*
X59499999Y-124547619D01*
X59547619Y-124642857D01*
X59547619Y-124785714D01*
X59499999Y-124880952D01*
X59452380Y-124928571D01*
X59357142Y-124976190D01*
X58976190Y-124976190D01*
X60166666Y-124452380D02*
X60357142Y-124452380D01*
X60452380Y-124500000D01*
X60547619Y-124595238D01*
X60595238Y-124785714D01*
X60595238Y-125119047D01*
X60547619Y-125309523D01*
X60452380Y-125404761D01*
X60357142Y-125452380D01*
X60166666Y-125452380D01*
X60071428Y-125404761D01*
X59976190Y-125309523D01*
X59928571Y-125119047D01*
X59928571Y-124785714D01*
X59976190Y-124595238D01*
X60071428Y-124500000D01*
X60166666Y-124452380D01*
X60928571Y-124452380D02*
X61166666Y-125452380D01*
X61357142Y-124738095D01*
X61547619Y-125452380D01*
X61785714Y-124452380D01*
X62166666Y-124928571D02*
X62499999Y-124928571D01*
X62642857Y-125452380D02*
X62166666Y-125452380D01*
X62166666Y-124452380D01*
X62642857Y-124452380D01*
X63642857Y-125452380D02*
X63309523Y-124976190D01*
X63071428Y-125452380D02*
X63071428Y-124452380D01*
X63452380Y-124452380D01*
X63547619Y-124500000D01*
X63595238Y-124547619D01*
X63642857Y-124642857D01*
X63642857Y-124785714D01*
X63595238Y-124880952D01*
X63547619Y-124928571D01*
X63452380Y-124976190D01*
X63071428Y-124976190D01*
X64785714Y-125166666D02*
X65261904Y-125166666D01*
X64690476Y-125452380D02*
X65023809Y-124452380D01*
X65357142Y-125452380D01*
X65690476Y-125452380D02*
X65690476Y-124452380D01*
X66261904Y-125452380D01*
X66261904Y-124452380D01*
X66738095Y-125452380D02*
X66738095Y-124452380D01*
X66976190Y-124452380D01*
X67119047Y-124500000D01*
X67214285Y-124595238D01*
X67261904Y-124690476D01*
X67309523Y-124880952D01*
X67309523Y-125023809D01*
X67261904Y-125214285D01*
X67214285Y-125309523D01*
X67119047Y-125404761D01*
X66976190Y-125452380D01*
X66738095Y-125452380D01*
X68452380Y-125166666D02*
X68928571Y-125166666D01*
X68357142Y-125452380D02*
X68690476Y-124452380D01*
X69023809Y-125452380D01*
X69357142Y-125452380D02*
X69357142Y-124452380D01*
X69595238Y-124452380D01*
X69738095Y-124500000D01*
X69833333Y-124595238D01*
X69880952Y-124690476D01*
X69928571Y-124880952D01*
X69928571Y-125023809D01*
X69880952Y-125214285D01*
X69833333Y-125309523D01*
X69738095Y-125404761D01*
X69595238Y-125452380D01*
X69357142Y-125452380D01*
X70928571Y-125357142D02*
X70880952Y-125404761D01*
X70738095Y-125452380D01*
X70642857Y-125452380D01*
X70500000Y-125404761D01*
X70404761Y-125309523D01*
X70357142Y-125214285D01*
X70309523Y-125023809D01*
X70309523Y-124880952D01*
X70357142Y-124690476D01*
X70404761Y-124595238D01*
X70500000Y-124500000D01*
X70642857Y-124452380D01*
X70738095Y-124452380D01*
X70880952Y-124500000D01*
X70928571Y-124547619D01*
X72071428Y-125404761D02*
X72214285Y-125452380D01*
X72452380Y-125452380D01*
X72547619Y-125404761D01*
X72595238Y-125357142D01*
X72642857Y-125261904D01*
X72642857Y-125166666D01*
X72595238Y-125071428D01*
X72547619Y-125023809D01*
X72452380Y-124976190D01*
X72261904Y-124928571D01*
X72166666Y-124880952D01*
X72119047Y-124833333D01*
X72071428Y-124738095D01*
X72071428Y-124642857D01*
X72119047Y-124547619D01*
X72166666Y-124500000D01*
X72261904Y-124452380D01*
X72500000Y-124452380D01*
X72642857Y-124500000D01*
X72928571Y-124452380D02*
X73500000Y-124452380D01*
X73214285Y-125452380D02*
X73214285Y-124452380D01*
X73833333Y-124928571D02*
X74166666Y-124928571D01*
X74309523Y-125452380D02*
X73833333Y-125452380D01*
X73833333Y-124452380D01*
X74309523Y-124452380D01*
X74738095Y-125452380D02*
X74738095Y-124452380D01*
X75309523Y-125452380D01*
X75309523Y-124452380D01*
X76357142Y-125357142D02*
X76309523Y-125404761D01*
X76166666Y-125452380D01*
X76071428Y-125452380D01*
X75928571Y-125404761D01*
X75833333Y-125309523D01*
X75785714Y-125214285D01*
X75738095Y-125023809D01*
X75738095Y-124880952D01*
X75785714Y-124690476D01*
X75833333Y-124595238D01*
X75928571Y-124500000D01*
X76071428Y-124452380D01*
X76166666Y-124452380D01*
X76309523Y-124500000D01*
X76357142Y-124547619D01*
X76785714Y-125452380D02*
X76785714Y-124452380D01*
X77738095Y-125452380D02*
X77261904Y-125452380D01*
X77261904Y-124452380D01*
%TO.C,J1*%
X280104418Y-162107853D02*
X280818704Y-162107853D01*
X280961561Y-162155472D01*
X281056799Y-162250710D01*
X281104418Y-162393567D01*
X281104418Y-162488805D01*
X281104418Y-161107853D02*
X281104418Y-161679281D01*
X281104418Y-161393567D02*
X280104418Y-161393567D01*
X280247276Y-161488805D01*
X280342514Y-161584043D01*
X280390133Y-161679281D01*
D11*
X289730133Y-165274520D02*
X289730133Y-165107853D01*
X289980133Y-165214996D01*
X289956323Y-165012615D02*
X289968228Y-165000710D01*
X289980133Y-165012615D01*
X289968228Y-165024520D01*
X289956323Y-165012615D01*
X289980133Y-165012615D01*
X289730133Y-164917377D02*
X289730133Y-164762615D01*
X289825371Y-164845948D01*
X289825371Y-164810234D01*
X289837276Y-164786424D01*
X289849180Y-164774520D01*
X289872990Y-164762615D01*
X289932514Y-164762615D01*
X289956323Y-164774520D01*
X289968228Y-164786424D01*
X289980133Y-164810234D01*
X289980133Y-164881662D01*
X289968228Y-164905472D01*
X289956323Y-164917377D01*
X289730133Y-164536424D02*
X289730133Y-164655472D01*
X289849180Y-164667377D01*
X289837276Y-164655472D01*
X289825371Y-164631662D01*
X289825371Y-164572139D01*
X289837276Y-164548329D01*
X289849180Y-164536424D01*
X289872990Y-164524520D01*
X289932514Y-164524520D01*
X289956323Y-164536424D01*
X289968228Y-164548329D01*
X289980133Y-164572139D01*
X289980133Y-164631662D01*
X289968228Y-164655472D01*
X289956323Y-164667377D01*
X289980133Y-164417377D02*
X289813466Y-164417377D01*
X289837276Y-164417377D02*
X289825371Y-164405472D01*
X289813466Y-164381662D01*
X289813466Y-164345948D01*
X289825371Y-164322139D01*
X289849180Y-164310234D01*
X289980133Y-164310234D01*
X289849180Y-164310234D02*
X289825371Y-164298329D01*
X289813466Y-164274520D01*
X289813466Y-164238805D01*
X289825371Y-164214996D01*
X289849180Y-164203091D01*
X289980133Y-164203091D01*
X289980133Y-164084043D02*
X289813466Y-164084043D01*
X289837276Y-164084043D02*
X289825371Y-164072139D01*
X289813466Y-164048329D01*
X289813466Y-164012615D01*
X289825371Y-163988805D01*
X289849180Y-163976900D01*
X289980133Y-163976900D01*
X289849180Y-163976900D02*
X289825371Y-163964996D01*
X289813466Y-163941186D01*
X289813466Y-163905472D01*
X289825371Y-163881662D01*
X289849180Y-163869758D01*
X289980133Y-163869758D01*
X289813466Y-163595948D02*
X289813466Y-163500710D01*
X289980133Y-163560234D02*
X289765847Y-163560234D01*
X289742038Y-163548329D01*
X289730133Y-163524520D01*
X289730133Y-163500710D01*
X289980133Y-163417377D02*
X289813466Y-163417377D01*
X289861085Y-163417377D02*
X289837276Y-163405472D01*
X289825371Y-163393567D01*
X289813466Y-163369758D01*
X289813466Y-163345948D01*
X289980133Y-163226900D02*
X289968228Y-163250710D01*
X289956323Y-163262615D01*
X289932514Y-163274520D01*
X289861085Y-163274520D01*
X289837276Y-163262615D01*
X289825371Y-163250710D01*
X289813466Y-163226900D01*
X289813466Y-163191186D01*
X289825371Y-163167377D01*
X289837276Y-163155472D01*
X289861085Y-163143567D01*
X289932514Y-163143567D01*
X289956323Y-163155472D01*
X289968228Y-163167377D01*
X289980133Y-163191186D01*
X289980133Y-163226900D01*
X289980133Y-163036424D02*
X289813466Y-163036424D01*
X289837276Y-163036424D02*
X289825371Y-163024520D01*
X289813466Y-163000710D01*
X289813466Y-162964996D01*
X289825371Y-162941186D01*
X289849180Y-162929281D01*
X289980133Y-162929281D01*
X289849180Y-162929281D02*
X289825371Y-162917377D01*
X289813466Y-162893567D01*
X289813466Y-162857853D01*
X289825371Y-162834043D01*
X289849180Y-162822139D01*
X289980133Y-162822139D01*
X289980133Y-162512615D02*
X289730133Y-162512615D01*
X289825371Y-162512615D02*
X289813466Y-162488805D01*
X289813466Y-162441186D01*
X289825371Y-162417377D01*
X289837276Y-162405472D01*
X289861085Y-162393567D01*
X289932514Y-162393567D01*
X289956323Y-162405472D01*
X289968228Y-162417377D01*
X289980133Y-162441186D01*
X289980133Y-162488805D01*
X289968228Y-162512615D01*
X289980133Y-162179281D02*
X289849180Y-162179281D01*
X289825371Y-162191186D01*
X289813466Y-162214996D01*
X289813466Y-162262615D01*
X289825371Y-162286424D01*
X289968228Y-162179281D02*
X289980133Y-162203091D01*
X289980133Y-162262615D01*
X289968228Y-162286424D01*
X289944418Y-162298329D01*
X289920609Y-162298329D01*
X289896799Y-162286424D01*
X289884895Y-162262615D01*
X289884895Y-162203091D01*
X289872990Y-162179281D01*
X289968228Y-161953091D02*
X289980133Y-161976900D01*
X289980133Y-162024520D01*
X289968228Y-162048329D01*
X289956323Y-162060234D01*
X289932514Y-162072139D01*
X289861085Y-162072139D01*
X289837276Y-162060234D01*
X289825371Y-162048329D01*
X289813466Y-162024520D01*
X289813466Y-161976900D01*
X289825371Y-161953091D01*
X289980133Y-161845948D02*
X289730133Y-161845948D01*
X289884895Y-161822139D02*
X289980133Y-161750710D01*
X289813466Y-161750710D02*
X289908704Y-161845948D01*
X289980133Y-161417377D02*
X289968228Y-161441186D01*
X289956323Y-161453091D01*
X289932514Y-161464996D01*
X289861085Y-161464996D01*
X289837276Y-161453091D01*
X289825371Y-161441186D01*
X289813466Y-161417377D01*
X289813466Y-161381662D01*
X289825371Y-161357853D01*
X289837276Y-161345948D01*
X289861085Y-161334043D01*
X289932514Y-161334043D01*
X289956323Y-161345948D01*
X289968228Y-161357853D01*
X289980133Y-161381662D01*
X289980133Y-161417377D01*
X289813466Y-161262615D02*
X289813466Y-161167377D01*
X289980133Y-161226900D02*
X289765847Y-161226900D01*
X289742038Y-161214996D01*
X289730133Y-161191186D01*
X289730133Y-161167377D01*
X289980133Y-160893567D02*
X289813466Y-160893567D01*
X289837276Y-160893567D02*
X289825371Y-160881662D01*
X289813466Y-160857853D01*
X289813466Y-160822139D01*
X289825371Y-160798329D01*
X289849180Y-160786424D01*
X289980133Y-160786424D01*
X289849180Y-160786424D02*
X289825371Y-160774520D01*
X289813466Y-160750710D01*
X289813466Y-160714996D01*
X289825371Y-160691186D01*
X289849180Y-160679281D01*
X289980133Y-160679281D01*
X289980133Y-160524520D02*
X289968228Y-160548329D01*
X289956323Y-160560234D01*
X289932514Y-160572139D01*
X289861085Y-160572139D01*
X289837276Y-160560234D01*
X289825371Y-160548329D01*
X289813466Y-160524520D01*
X289813466Y-160488805D01*
X289825371Y-160464996D01*
X289837276Y-160453091D01*
X289861085Y-160441186D01*
X289932514Y-160441186D01*
X289956323Y-160453091D01*
X289968228Y-160464996D01*
X289980133Y-160488805D01*
X289980133Y-160524520D01*
X289813466Y-160226900D02*
X289980133Y-160226900D01*
X289813466Y-160334043D02*
X289944418Y-160334043D01*
X289968228Y-160322139D01*
X289980133Y-160298329D01*
X289980133Y-160262615D01*
X289968228Y-160238805D01*
X289956323Y-160226900D01*
X289813466Y-160107853D02*
X289980133Y-160107853D01*
X289837276Y-160107853D02*
X289825371Y-160095948D01*
X289813466Y-160072139D01*
X289813466Y-160036424D01*
X289825371Y-160012615D01*
X289849180Y-160000710D01*
X289980133Y-160000710D01*
X289813466Y-159917377D02*
X289813466Y-159822139D01*
X289730133Y-159881662D02*
X289944418Y-159881662D01*
X289968228Y-159869758D01*
X289980133Y-159845948D01*
X289980133Y-159822139D01*
X289980133Y-159738805D02*
X289813466Y-159738805D01*
X289730133Y-159738805D02*
X289742038Y-159750710D01*
X289753942Y-159738805D01*
X289742038Y-159726900D01*
X289730133Y-159738805D01*
X289753942Y-159738805D01*
X289813466Y-159619758D02*
X289980133Y-159619758D01*
X289837276Y-159619758D02*
X289825371Y-159607853D01*
X289813466Y-159584043D01*
X289813466Y-159548329D01*
X289825371Y-159524520D01*
X289849180Y-159512615D01*
X289980133Y-159512615D01*
X289813466Y-159286424D02*
X290015847Y-159286424D01*
X290039657Y-159298329D01*
X290051561Y-159310234D01*
X290063466Y-159334043D01*
X290063466Y-159369758D01*
X290051561Y-159393567D01*
X289968228Y-159286424D02*
X289980133Y-159310234D01*
X289980133Y-159357853D01*
X289968228Y-159381662D01*
X289956323Y-159393567D01*
X289932514Y-159405472D01*
X289861085Y-159405472D01*
X289837276Y-159393567D01*
X289825371Y-159381662D01*
X289813466Y-159357853D01*
X289813466Y-159310234D01*
X289825371Y-159286424D01*
X289980133Y-158976900D02*
X289730133Y-158976900D01*
X289980133Y-158869758D02*
X289849180Y-158869758D01*
X289825371Y-158881662D01*
X289813466Y-158905472D01*
X289813466Y-158941186D01*
X289825371Y-158964996D01*
X289837276Y-158976900D01*
X289980133Y-158714996D02*
X289968228Y-158738805D01*
X289956323Y-158750710D01*
X289932514Y-158762615D01*
X289861085Y-158762615D01*
X289837276Y-158750710D01*
X289825371Y-158738805D01*
X289813466Y-158714996D01*
X289813466Y-158679281D01*
X289825371Y-158655472D01*
X289837276Y-158643567D01*
X289861085Y-158631662D01*
X289932514Y-158631662D01*
X289956323Y-158643567D01*
X289968228Y-158655472D01*
X289980133Y-158679281D01*
X289980133Y-158714996D01*
X289980133Y-158488805D02*
X289968228Y-158512615D01*
X289944418Y-158524520D01*
X289730133Y-158524520D01*
X289968228Y-158298329D02*
X289980133Y-158322139D01*
X289980133Y-158369758D01*
X289968228Y-158393567D01*
X289944418Y-158405472D01*
X289849180Y-158405472D01*
X289825371Y-158393567D01*
X289813466Y-158369758D01*
X289813466Y-158322139D01*
X289825371Y-158298329D01*
X289849180Y-158286424D01*
X289872990Y-158286424D01*
X289896799Y-158405472D01*
D10*
X274666666Y-92597380D02*
X274666666Y-93311666D01*
X274619047Y-93454523D01*
X274523809Y-93549761D01*
X274380952Y-93597380D01*
X274285714Y-93597380D01*
X275666666Y-93597380D02*
X275095238Y-93597380D01*
X275380952Y-93597380D02*
X275380952Y-92597380D01*
X275285714Y-92740238D01*
X275190476Y-92835476D01*
X275095238Y-92883095D01*
D11*
X278500000Y-84066904D02*
X278333333Y-84066904D01*
X278440476Y-83816904D01*
X278238095Y-83840714D02*
X278226190Y-83828809D01*
X278238095Y-83816904D01*
X278250000Y-83828809D01*
X278238095Y-83840714D01*
X278238095Y-83816904D01*
X278142857Y-84066904D02*
X277988095Y-84066904D01*
X278071428Y-83971666D01*
X278035714Y-83971666D01*
X278011904Y-83959761D01*
X278000000Y-83947857D01*
X277988095Y-83924047D01*
X277988095Y-83864523D01*
X278000000Y-83840714D01*
X278011904Y-83828809D01*
X278035714Y-83816904D01*
X278107142Y-83816904D01*
X278130952Y-83828809D01*
X278142857Y-83840714D01*
X277761904Y-84066904D02*
X277880952Y-84066904D01*
X277892857Y-83947857D01*
X277880952Y-83959761D01*
X277857142Y-83971666D01*
X277797619Y-83971666D01*
X277773809Y-83959761D01*
X277761904Y-83947857D01*
X277750000Y-83924047D01*
X277750000Y-83864523D01*
X277761904Y-83840714D01*
X277773809Y-83828809D01*
X277797619Y-83816904D01*
X277857142Y-83816904D01*
X277880952Y-83828809D01*
X277892857Y-83840714D01*
X277642857Y-83816904D02*
X277642857Y-83983571D01*
X277642857Y-83959761D02*
X277630952Y-83971666D01*
X277607142Y-83983571D01*
X277571428Y-83983571D01*
X277547619Y-83971666D01*
X277535714Y-83947857D01*
X277535714Y-83816904D01*
X277535714Y-83947857D02*
X277523809Y-83971666D01*
X277500000Y-83983571D01*
X277464285Y-83983571D01*
X277440476Y-83971666D01*
X277428571Y-83947857D01*
X277428571Y-83816904D01*
X277309523Y-83816904D02*
X277309523Y-83983571D01*
X277309523Y-83959761D02*
X277297619Y-83971666D01*
X277273809Y-83983571D01*
X277238095Y-83983571D01*
X277214285Y-83971666D01*
X277202380Y-83947857D01*
X277202380Y-83816904D01*
X277202380Y-83947857D02*
X277190476Y-83971666D01*
X277166666Y-83983571D01*
X277130952Y-83983571D01*
X277107142Y-83971666D01*
X277095238Y-83947857D01*
X277095238Y-83816904D01*
X276821428Y-83983571D02*
X276726190Y-83983571D01*
X276785714Y-83816904D02*
X276785714Y-84031190D01*
X276773809Y-84055000D01*
X276750000Y-84066904D01*
X276726190Y-84066904D01*
X276642857Y-83816904D02*
X276642857Y-83983571D01*
X276642857Y-83935952D02*
X276630952Y-83959761D01*
X276619047Y-83971666D01*
X276595238Y-83983571D01*
X276571428Y-83983571D01*
X276452380Y-83816904D02*
X276476190Y-83828809D01*
X276488095Y-83840714D01*
X276500000Y-83864523D01*
X276500000Y-83935952D01*
X276488095Y-83959761D01*
X276476190Y-83971666D01*
X276452380Y-83983571D01*
X276416666Y-83983571D01*
X276392857Y-83971666D01*
X276380952Y-83959761D01*
X276369047Y-83935952D01*
X276369047Y-83864523D01*
X276380952Y-83840714D01*
X276392857Y-83828809D01*
X276416666Y-83816904D01*
X276452380Y-83816904D01*
X276261904Y-83816904D02*
X276261904Y-83983571D01*
X276261904Y-83959761D02*
X276250000Y-83971666D01*
X276226190Y-83983571D01*
X276190476Y-83983571D01*
X276166666Y-83971666D01*
X276154761Y-83947857D01*
X276154761Y-83816904D01*
X276154761Y-83947857D02*
X276142857Y-83971666D01*
X276119047Y-83983571D01*
X276083333Y-83983571D01*
X276059523Y-83971666D01*
X276047619Y-83947857D01*
X276047619Y-83816904D01*
X275738095Y-83816904D02*
X275738095Y-84066904D01*
X275738095Y-83971666D02*
X275714285Y-83983571D01*
X275666666Y-83983571D01*
X275642857Y-83971666D01*
X275630952Y-83959761D01*
X275619047Y-83935952D01*
X275619047Y-83864523D01*
X275630952Y-83840714D01*
X275642857Y-83828809D01*
X275666666Y-83816904D01*
X275714285Y-83816904D01*
X275738095Y-83828809D01*
X275404761Y-83816904D02*
X275404761Y-83947857D01*
X275416666Y-83971666D01*
X275440476Y-83983571D01*
X275488095Y-83983571D01*
X275511904Y-83971666D01*
X275404761Y-83828809D02*
X275428571Y-83816904D01*
X275488095Y-83816904D01*
X275511904Y-83828809D01*
X275523809Y-83852619D01*
X275523809Y-83876428D01*
X275511904Y-83900238D01*
X275488095Y-83912142D01*
X275428571Y-83912142D01*
X275404761Y-83924047D01*
X275178571Y-83828809D02*
X275202380Y-83816904D01*
X275250000Y-83816904D01*
X275273809Y-83828809D01*
X275285714Y-83840714D01*
X275297619Y-83864523D01*
X275297619Y-83935952D01*
X275285714Y-83959761D01*
X275273809Y-83971666D01*
X275250000Y-83983571D01*
X275202380Y-83983571D01*
X275178571Y-83971666D01*
X275071428Y-83816904D02*
X275071428Y-84066904D01*
X275047619Y-83912142D02*
X274976190Y-83816904D01*
X274976190Y-83983571D02*
X275071428Y-83888333D01*
X274642857Y-83816904D02*
X274666666Y-83828809D01*
X274678571Y-83840714D01*
X274690476Y-83864523D01*
X274690476Y-83935952D01*
X274678571Y-83959761D01*
X274666666Y-83971666D01*
X274642857Y-83983571D01*
X274607142Y-83983571D01*
X274583333Y-83971666D01*
X274571428Y-83959761D01*
X274559523Y-83935952D01*
X274559523Y-83864523D01*
X274571428Y-83840714D01*
X274583333Y-83828809D01*
X274607142Y-83816904D01*
X274642857Y-83816904D01*
X274488095Y-83983571D02*
X274392857Y-83983571D01*
X274452380Y-83816904D02*
X274452380Y-84031190D01*
X274440476Y-84055000D01*
X274416666Y-84066904D01*
X274392857Y-84066904D01*
X274119047Y-83816904D02*
X274119047Y-83983571D01*
X274119047Y-83959761D02*
X274107142Y-83971666D01*
X274083333Y-83983571D01*
X274047619Y-83983571D01*
X274023809Y-83971666D01*
X274011904Y-83947857D01*
X274011904Y-83816904D01*
X274011904Y-83947857D02*
X274000000Y-83971666D01*
X273976190Y-83983571D01*
X273940476Y-83983571D01*
X273916666Y-83971666D01*
X273904761Y-83947857D01*
X273904761Y-83816904D01*
X273750000Y-83816904D02*
X273773809Y-83828809D01*
X273785714Y-83840714D01*
X273797619Y-83864523D01*
X273797619Y-83935952D01*
X273785714Y-83959761D01*
X273773809Y-83971666D01*
X273750000Y-83983571D01*
X273714285Y-83983571D01*
X273690476Y-83971666D01*
X273678571Y-83959761D01*
X273666666Y-83935952D01*
X273666666Y-83864523D01*
X273678571Y-83840714D01*
X273690476Y-83828809D01*
X273714285Y-83816904D01*
X273750000Y-83816904D01*
X273452380Y-83983571D02*
X273452380Y-83816904D01*
X273559523Y-83983571D02*
X273559523Y-83852619D01*
X273547619Y-83828809D01*
X273523809Y-83816904D01*
X273488095Y-83816904D01*
X273464285Y-83828809D01*
X273452380Y-83840714D01*
X273333333Y-83983571D02*
X273333333Y-83816904D01*
X273333333Y-83959761D02*
X273321428Y-83971666D01*
X273297619Y-83983571D01*
X273261904Y-83983571D01*
X273238095Y-83971666D01*
X273226190Y-83947857D01*
X273226190Y-83816904D01*
X273142857Y-83983571D02*
X273047619Y-83983571D01*
X273107142Y-84066904D02*
X273107142Y-83852619D01*
X273095238Y-83828809D01*
X273071428Y-83816904D01*
X273047619Y-83816904D01*
X272964285Y-83816904D02*
X272964285Y-83983571D01*
X272964285Y-84066904D02*
X272976190Y-84055000D01*
X272964285Y-84043095D01*
X272952380Y-84055000D01*
X272964285Y-84066904D01*
X272964285Y-84043095D01*
X272845238Y-83983571D02*
X272845238Y-83816904D01*
X272845238Y-83959761D02*
X272833333Y-83971666D01*
X272809523Y-83983571D01*
X272773809Y-83983571D01*
X272750000Y-83971666D01*
X272738095Y-83947857D01*
X272738095Y-83816904D01*
X272511904Y-83983571D02*
X272511904Y-83781190D01*
X272523809Y-83757380D01*
X272535714Y-83745476D01*
X272559523Y-83733571D01*
X272595238Y-83733571D01*
X272619047Y-83745476D01*
X272511904Y-83828809D02*
X272535714Y-83816904D01*
X272583333Y-83816904D01*
X272607142Y-83828809D01*
X272619047Y-83840714D01*
X272630952Y-83864523D01*
X272630952Y-83935952D01*
X272619047Y-83959761D01*
X272607142Y-83971666D01*
X272583333Y-83983571D01*
X272535714Y-83983571D01*
X272511904Y-83971666D01*
X272202380Y-83816904D02*
X272202380Y-84066904D01*
X272095238Y-83816904D02*
X272095238Y-83947857D01*
X272107142Y-83971666D01*
X272130952Y-83983571D01*
X272166666Y-83983571D01*
X272190476Y-83971666D01*
X272202380Y-83959761D01*
X271940476Y-83816904D02*
X271964285Y-83828809D01*
X271976190Y-83840714D01*
X271988095Y-83864523D01*
X271988095Y-83935952D01*
X271976190Y-83959761D01*
X271964285Y-83971666D01*
X271940476Y-83983571D01*
X271904761Y-83983571D01*
X271880952Y-83971666D01*
X271869047Y-83959761D01*
X271857142Y-83935952D01*
X271857142Y-83864523D01*
X271869047Y-83840714D01*
X271880952Y-83828809D01*
X271904761Y-83816904D01*
X271940476Y-83816904D01*
X271714285Y-83816904D02*
X271738095Y-83828809D01*
X271750000Y-83852619D01*
X271750000Y-84066904D01*
X271523809Y-83828809D02*
X271547619Y-83816904D01*
X271595238Y-83816904D01*
X271619047Y-83828809D01*
X271630952Y-83852619D01*
X271630952Y-83947857D01*
X271619047Y-83971666D01*
X271595238Y-83983571D01*
X271547619Y-83983571D01*
X271523809Y-83971666D01*
X271511904Y-83947857D01*
X271511904Y-83924047D01*
X271630952Y-83900238D01*
D10*
%TO.C,C7*%
X249880371Y-158381662D02*
X249832752Y-158429281D01*
X249689895Y-158476900D01*
X249594657Y-158476900D01*
X249451799Y-158429281D01*
X249356561Y-158334043D01*
X249308942Y-158238805D01*
X249261323Y-158048329D01*
X249261323Y-157905472D01*
X249308942Y-157714996D01*
X249356561Y-157619758D01*
X249451799Y-157524520D01*
X249594657Y-157476900D01*
X249689895Y-157476900D01*
X249832752Y-157524520D01*
X249880371Y-157572139D01*
X250213704Y-157476900D02*
X250880371Y-157476900D01*
X250451799Y-158476900D01*
%TO.C,C6*%
X162583333Y-63537142D02*
X162535714Y-63584761D01*
X162392857Y-63632380D01*
X162297619Y-63632380D01*
X162154761Y-63584761D01*
X162059523Y-63489523D01*
X162011904Y-63394285D01*
X161964285Y-63203809D01*
X161964285Y-63060952D01*
X162011904Y-62870476D01*
X162059523Y-62775238D01*
X162154761Y-62680000D01*
X162297619Y-62632380D01*
X162392857Y-62632380D01*
X162535714Y-62680000D01*
X162583333Y-62727619D01*
X163440476Y-62632380D02*
X163250000Y-62632380D01*
X163154761Y-62680000D01*
X163107142Y-62727619D01*
X163011904Y-62870476D01*
X162964285Y-63060952D01*
X162964285Y-63441904D01*
X163011904Y-63537142D01*
X163059523Y-63584761D01*
X163154761Y-63632380D01*
X163345238Y-63632380D01*
X163440476Y-63584761D01*
X163488095Y-63537142D01*
X163535714Y-63441904D01*
X163535714Y-63203809D01*
X163488095Y-63108571D01*
X163440476Y-63060952D01*
X163345238Y-63013333D01*
X163154761Y-63013333D01*
X163059523Y-63060952D01*
X163011904Y-63108571D01*
X162964285Y-63203809D01*
%TO.C,R26*%
X80857142Y-175452380D02*
X80523809Y-174976190D01*
X80285714Y-175452380D02*
X80285714Y-174452380D01*
X80666666Y-174452380D01*
X80761904Y-174500000D01*
X80809523Y-174547619D01*
X80857142Y-174642857D01*
X80857142Y-174785714D01*
X80809523Y-174880952D01*
X80761904Y-174928571D01*
X80666666Y-174976190D01*
X80285714Y-174976190D01*
X81238095Y-174547619D02*
X81285714Y-174500000D01*
X81380952Y-174452380D01*
X81619047Y-174452380D01*
X81714285Y-174500000D01*
X81761904Y-174547619D01*
X81809523Y-174642857D01*
X81809523Y-174738095D01*
X81761904Y-174880952D01*
X81190476Y-175452380D01*
X81809523Y-175452380D01*
X82666666Y-174452380D02*
X82476190Y-174452380D01*
X82380952Y-174500000D01*
X82333333Y-174547619D01*
X82238095Y-174690476D01*
X82190476Y-174880952D01*
X82190476Y-175261904D01*
X82238095Y-175357142D01*
X82285714Y-175404761D01*
X82380952Y-175452380D01*
X82571428Y-175452380D01*
X82666666Y-175404761D01*
X82714285Y-175357142D01*
X82761904Y-175261904D01*
X82761904Y-175023809D01*
X82714285Y-174928571D01*
X82666666Y-174880952D01*
X82571428Y-174833333D01*
X82380952Y-174833333D01*
X82285714Y-174880952D01*
X82238095Y-174928571D01*
X82190476Y-175023809D01*
%TO.C,U2*%
X92808213Y-34352380D02*
X92808213Y-35161904D01*
X92855832Y-35257142D01*
X92903451Y-35304761D01*
X92998689Y-35352380D01*
X93189165Y-35352380D01*
X93284403Y-35304761D01*
X93332022Y-35257142D01*
X93379641Y-35161904D01*
X93379641Y-34352380D01*
X93808213Y-34447619D02*
X93855832Y-34400000D01*
X93951070Y-34352380D01*
X94189165Y-34352380D01*
X94284403Y-34400000D01*
X94332022Y-34447619D01*
X94379641Y-34542857D01*
X94379641Y-34638095D01*
X94332022Y-34780952D01*
X93760594Y-35352380D01*
X94379641Y-35352380D01*
%TO.C,C8*%
X245154180Y-164591186D02*
X245201799Y-164638805D01*
X245249418Y-164781662D01*
X245249418Y-164876900D01*
X245201799Y-165019758D01*
X245106561Y-165114996D01*
X245011323Y-165162615D01*
X244820847Y-165210234D01*
X244677990Y-165210234D01*
X244487514Y-165162615D01*
X244392276Y-165114996D01*
X244297038Y-165019758D01*
X244249418Y-164876900D01*
X244249418Y-164781662D01*
X244297038Y-164638805D01*
X244344657Y-164591186D01*
X244677990Y-164019758D02*
X244630371Y-164114996D01*
X244582752Y-164162615D01*
X244487514Y-164210234D01*
X244439895Y-164210234D01*
X244344657Y-164162615D01*
X244297038Y-164114996D01*
X244249418Y-164019758D01*
X244249418Y-163829281D01*
X244297038Y-163734043D01*
X244344657Y-163686424D01*
X244439895Y-163638805D01*
X244487514Y-163638805D01*
X244582752Y-163686424D01*
X244630371Y-163734043D01*
X244677990Y-163829281D01*
X244677990Y-164019758D01*
X244725609Y-164114996D01*
X244773228Y-164162615D01*
X244868466Y-164210234D01*
X245058942Y-164210234D01*
X245154180Y-164162615D01*
X245201799Y-164114996D01*
X245249418Y-164019758D01*
X245249418Y-163829281D01*
X245201799Y-163734043D01*
X245154180Y-163686424D01*
X245058942Y-163638805D01*
X244868466Y-163638805D01*
X244773228Y-163686424D01*
X244725609Y-163734043D01*
X244677990Y-163829281D01*
%TO.C,R14*%
X31342498Y-40642857D02*
X30866308Y-40976190D01*
X31342498Y-41214285D02*
X30342498Y-41214285D01*
X30342498Y-40833333D01*
X30390118Y-40738095D01*
X30437737Y-40690476D01*
X30532975Y-40642857D01*
X30675832Y-40642857D01*
X30771070Y-40690476D01*
X30818689Y-40738095D01*
X30866308Y-40833333D01*
X30866308Y-41214285D01*
X31342498Y-39690476D02*
X31342498Y-40261904D01*
X31342498Y-39976190D02*
X30342498Y-39976190D01*
X30485356Y-40071428D01*
X30580594Y-40166666D01*
X30628213Y-40261904D01*
X30675832Y-38833333D02*
X31342498Y-38833333D01*
X30294879Y-39071428D02*
X31009165Y-39309523D01*
X31009165Y-38690476D01*
%TO.C,R15*%
X37677260Y-34022380D02*
X37343927Y-33546190D01*
X37105832Y-34022380D02*
X37105832Y-33022380D01*
X37486784Y-33022380D01*
X37582022Y-33070000D01*
X37629641Y-33117619D01*
X37677260Y-33212857D01*
X37677260Y-33355714D01*
X37629641Y-33450952D01*
X37582022Y-33498571D01*
X37486784Y-33546190D01*
X37105832Y-33546190D01*
X38629641Y-34022380D02*
X38058213Y-34022380D01*
X38343927Y-34022380D02*
X38343927Y-33022380D01*
X38248689Y-33165238D01*
X38153451Y-33260476D01*
X38058213Y-33308095D01*
X39534403Y-33022380D02*
X39058213Y-33022380D01*
X39010594Y-33498571D01*
X39058213Y-33450952D01*
X39153451Y-33403333D01*
X39391546Y-33403333D01*
X39486784Y-33450952D01*
X39534403Y-33498571D01*
X39582022Y-33593809D01*
X39582022Y-33831904D01*
X39534403Y-33927142D01*
X39486784Y-33974761D01*
X39391546Y-34022380D01*
X39153451Y-34022380D01*
X39058213Y-33974761D01*
X39010594Y-33927142D01*
%TO.C,U3*%
X45488095Y-137352380D02*
X45488095Y-138161904D01*
X45535714Y-138257142D01*
X45583333Y-138304761D01*
X45678571Y-138352380D01*
X45869047Y-138352380D01*
X45964285Y-138304761D01*
X46011904Y-138257142D01*
X46059523Y-138161904D01*
X46059523Y-137352380D01*
X46440476Y-137352380D02*
X47059523Y-137352380D01*
X46726190Y-137733333D01*
X46869047Y-137733333D01*
X46964285Y-137780952D01*
X47011904Y-137828571D01*
X47059523Y-137923809D01*
X47059523Y-138161904D01*
X47011904Y-138257142D01*
X46964285Y-138304761D01*
X46869047Y-138352380D01*
X46583333Y-138352380D01*
X46488095Y-138304761D01*
X46440476Y-138257142D01*
%TO.C,U1*%
X37672498Y-43261904D02*
X38482022Y-43261904D01*
X38577260Y-43214285D01*
X38624879Y-43166666D01*
X38672498Y-43071428D01*
X38672498Y-42880952D01*
X38624879Y-42785714D01*
X38577260Y-42738095D01*
X38482022Y-42690476D01*
X37672498Y-42690476D01*
X38672498Y-41690476D02*
X38672498Y-42261904D01*
X38672498Y-41976190D02*
X37672498Y-41976190D01*
X37815356Y-42071428D01*
X37910594Y-42166666D01*
X37958213Y-42261904D01*
%TO.C,R2*%
X81333333Y-154702380D02*
X81000000Y-154226190D01*
X80761904Y-154702380D02*
X80761904Y-153702380D01*
X81142857Y-153702380D01*
X81238095Y-153750000D01*
X81285714Y-153797619D01*
X81333333Y-153892857D01*
X81333333Y-154035714D01*
X81285714Y-154130952D01*
X81238095Y-154178571D01*
X81142857Y-154226190D01*
X80761904Y-154226190D01*
X81714285Y-153797619D02*
X81761904Y-153750000D01*
X81857142Y-153702380D01*
X82095238Y-153702380D01*
X82190476Y-153750000D01*
X82238095Y-153797619D01*
X82285714Y-153892857D01*
X82285714Y-153988095D01*
X82238095Y-154130952D01*
X81666666Y-154702380D01*
X82285714Y-154702380D01*
%TO.C,R41*%
X264404180Y-175296900D02*
X264070847Y-174820710D01*
X263832752Y-175296900D02*
X263832752Y-174296900D01*
X264213704Y-174296900D01*
X264308942Y-174344520D01*
X264356561Y-174392139D01*
X264404180Y-174487377D01*
X264404180Y-174630234D01*
X264356561Y-174725472D01*
X264308942Y-174773091D01*
X264213704Y-174820710D01*
X263832752Y-174820710D01*
X265261323Y-174630234D02*
X265261323Y-175296900D01*
X265023228Y-174249281D02*
X264785133Y-174963567D01*
X265404180Y-174963567D01*
X266308942Y-175296900D02*
X265737514Y-175296900D01*
X266023228Y-175296900D02*
X266023228Y-174296900D01*
X265927990Y-174439758D01*
X265832752Y-174534996D01*
X265737514Y-174582615D01*
%TO.C,R8*%
X276630371Y-153796900D02*
X276297038Y-153320710D01*
X276058942Y-153796900D02*
X276058942Y-152796900D01*
X276439895Y-152796900D01*
X276535133Y-152844520D01*
X276582752Y-152892139D01*
X276630371Y-152987377D01*
X276630371Y-153130234D01*
X276582752Y-153225472D01*
X276535133Y-153273091D01*
X276439895Y-153320710D01*
X276058942Y-153320710D01*
X277201799Y-153225472D02*
X277106561Y-153177853D01*
X277058942Y-153130234D01*
X277011323Y-153034996D01*
X277011323Y-152987377D01*
X277058942Y-152892139D01*
X277106561Y-152844520D01*
X277201799Y-152796900D01*
X277392276Y-152796900D01*
X277487514Y-152844520D01*
X277535133Y-152892139D01*
X277582752Y-152987377D01*
X277582752Y-153034996D01*
X277535133Y-153130234D01*
X277487514Y-153177853D01*
X277392276Y-153225472D01*
X277201799Y-153225472D01*
X277106561Y-153273091D01*
X277058942Y-153320710D01*
X277011323Y-153415948D01*
X277011323Y-153606424D01*
X277058942Y-153701662D01*
X277106561Y-153749281D01*
X277201799Y-153796900D01*
X277392276Y-153796900D01*
X277487514Y-153749281D01*
X277535133Y-153701662D01*
X277582752Y-153606424D01*
X277582752Y-153415948D01*
X277535133Y-153320710D01*
X277487514Y-153273091D01*
X277392276Y-153225472D01*
%TO.C,U9*%
X254285133Y-183726900D02*
X254285133Y-184536424D01*
X254332752Y-184631662D01*
X254380371Y-184679281D01*
X254475609Y-184726900D01*
X254666085Y-184726900D01*
X254761323Y-184679281D01*
X254808942Y-184631662D01*
X254856561Y-184536424D01*
X254856561Y-183726900D01*
X255380371Y-184726900D02*
X255570847Y-184726900D01*
X255666085Y-184679281D01*
X255713704Y-184631662D01*
X255808942Y-184488805D01*
X255856561Y-184298329D01*
X255856561Y-183917377D01*
X255808942Y-183822139D01*
X255761323Y-183774520D01*
X255666085Y-183726900D01*
X255475609Y-183726900D01*
X255380371Y-183774520D01*
X255332752Y-183822139D01*
X255285133Y-183917377D01*
X255285133Y-184155472D01*
X255332752Y-184250710D01*
X255380371Y-184298329D01*
X255475609Y-184345948D01*
X255666085Y-184345948D01*
X255761323Y-184298329D01*
X255808942Y-184250710D01*
X255856561Y-184155472D01*
%TO.C,C17*%
X249654180Y-163131662D02*
X249606561Y-163179281D01*
X249463704Y-163226900D01*
X249368466Y-163226900D01*
X249225609Y-163179281D01*
X249130371Y-163084043D01*
X249082752Y-162988805D01*
X249035133Y-162798329D01*
X249035133Y-162655472D01*
X249082752Y-162464996D01*
X249130371Y-162369758D01*
X249225609Y-162274520D01*
X249368466Y-162226900D01*
X249463704Y-162226900D01*
X249606561Y-162274520D01*
X249654180Y-162322139D01*
X250606561Y-163226900D02*
X250035133Y-163226900D01*
X250320847Y-163226900D02*
X250320847Y-162226900D01*
X250225609Y-162369758D01*
X250130371Y-162464996D01*
X250035133Y-162512615D01*
X250939895Y-162226900D02*
X251606561Y-162226900D01*
X251177990Y-163226900D01*
%TO.C,P1*%
X236761904Y-50312380D02*
X236761904Y-49312380D01*
X237142857Y-49312380D01*
X237238095Y-49360000D01*
X237285714Y-49407619D01*
X237333333Y-49502857D01*
X237333333Y-49645714D01*
X237285714Y-49740952D01*
X237238095Y-49788571D01*
X237142857Y-49836190D01*
X236761904Y-49836190D01*
X238285714Y-50312380D02*
X237714285Y-50312380D01*
X238000000Y-50312380D02*
X238000000Y-49312380D01*
X237904761Y-49455238D01*
X237809523Y-49550476D01*
X237714285Y-49598095D01*
X240904761Y-41407619D02*
X240904761Y-42407619D01*
X240523809Y-42407619D01*
X240428571Y-42360000D01*
X240380952Y-42312380D01*
X240333333Y-42217142D01*
X240333333Y-42074285D01*
X240380952Y-41979047D01*
X240428571Y-41931428D01*
X240523809Y-41883809D01*
X240904761Y-41883809D01*
X239333333Y-41502857D02*
X239380952Y-41455238D01*
X239523809Y-41407619D01*
X239619047Y-41407619D01*
X239761904Y-41455238D01*
X239857142Y-41550476D01*
X239904761Y-41645714D01*
X239952380Y-41836190D01*
X239952380Y-41979047D01*
X239904761Y-42169523D01*
X239857142Y-42264761D01*
X239761904Y-42360000D01*
X239619047Y-42407619D01*
X239523809Y-42407619D01*
X239380952Y-42360000D01*
X239333333Y-42312380D01*
X238571428Y-41931428D02*
X238428571Y-41883809D01*
X238380952Y-41836190D01*
X238333333Y-41740952D01*
X238333333Y-41598095D01*
X238380952Y-41502857D01*
X238428571Y-41455238D01*
X238523809Y-41407619D01*
X238904761Y-41407619D01*
X238904761Y-42407619D01*
X238571428Y-42407619D01*
X238476190Y-42360000D01*
X238428571Y-42312380D01*
X238380952Y-42217142D01*
X238380952Y-42121904D01*
X238428571Y-42026666D01*
X238476190Y-41979047D01*
X238571428Y-41931428D01*
X238904761Y-41931428D01*
X236761904Y-41455238D02*
X236857142Y-41407619D01*
X237047619Y-41407619D01*
X237142857Y-41455238D01*
X237190476Y-41550476D01*
X237190476Y-41931428D01*
X237142857Y-42026666D01*
X237047619Y-42074285D01*
X236857142Y-42074285D01*
X236761904Y-42026666D01*
X236714285Y-41931428D01*
X236714285Y-41836190D01*
X237190476Y-41740952D01*
X235857142Y-41407619D02*
X235857142Y-42407619D01*
X235857142Y-41455238D02*
X235952380Y-41407619D01*
X236142857Y-41407619D01*
X236238095Y-41455238D01*
X236285714Y-41502857D01*
X236333333Y-41598095D01*
X236333333Y-41883809D01*
X236285714Y-41979047D01*
X236238095Y-42026666D01*
X236142857Y-42074285D01*
X235952380Y-42074285D01*
X235857142Y-42026666D01*
X234952380Y-42074285D02*
X234952380Y-41264761D01*
X235000000Y-41169523D01*
X235047619Y-41121904D01*
X235142857Y-41074285D01*
X235285714Y-41074285D01*
X235380952Y-41121904D01*
X234952380Y-41455238D02*
X235047619Y-41407619D01*
X235238095Y-41407619D01*
X235333333Y-41455238D01*
X235380952Y-41502857D01*
X235428571Y-41598095D01*
X235428571Y-41883809D01*
X235380952Y-41979047D01*
X235333333Y-42026666D01*
X235238095Y-42074285D01*
X235047619Y-42074285D01*
X234952380Y-42026666D01*
X234095238Y-41455238D02*
X234190476Y-41407619D01*
X234380952Y-41407619D01*
X234476190Y-41455238D01*
X234523809Y-41550476D01*
X234523809Y-41931428D01*
X234476190Y-42026666D01*
X234380952Y-42074285D01*
X234190476Y-42074285D01*
X234095238Y-42026666D01*
X234047619Y-41931428D01*
X234047619Y-41836190D01*
X234523809Y-41740952D01*
%TO.C,R28*%
X229054180Y-159706900D02*
X228720847Y-159230710D01*
X228482752Y-159706900D02*
X228482752Y-158706900D01*
X228863704Y-158706900D01*
X228958942Y-158754520D01*
X229006561Y-158802139D01*
X229054180Y-158897377D01*
X229054180Y-159040234D01*
X229006561Y-159135472D01*
X228958942Y-159183091D01*
X228863704Y-159230710D01*
X228482752Y-159230710D01*
X229435133Y-158802139D02*
X229482752Y-158754520D01*
X229577990Y-158706900D01*
X229816085Y-158706900D01*
X229911323Y-158754520D01*
X229958942Y-158802139D01*
X230006561Y-158897377D01*
X230006561Y-158992615D01*
X229958942Y-159135472D01*
X229387514Y-159706900D01*
X230006561Y-159706900D01*
X230577990Y-159135472D02*
X230482752Y-159087853D01*
X230435133Y-159040234D01*
X230387514Y-158944996D01*
X230387514Y-158897377D01*
X230435133Y-158802139D01*
X230482752Y-158754520D01*
X230577990Y-158706900D01*
X230768466Y-158706900D01*
X230863704Y-158754520D01*
X230911323Y-158802139D01*
X230958942Y-158897377D01*
X230958942Y-158944996D01*
X230911323Y-159040234D01*
X230863704Y-159087853D01*
X230768466Y-159135472D01*
X230577990Y-159135472D01*
X230482752Y-159183091D01*
X230435133Y-159230710D01*
X230387514Y-159325948D01*
X230387514Y-159516424D01*
X230435133Y-159611662D01*
X230482752Y-159659281D01*
X230577990Y-159706900D01*
X230768466Y-159706900D01*
X230863704Y-159659281D01*
X230911323Y-159611662D01*
X230958942Y-159516424D01*
X230958942Y-159325948D01*
X230911323Y-159230710D01*
X230863704Y-159183091D01*
X230768466Y-159135472D01*
%TO.C,U1*%
X259035133Y-161876900D02*
X259035133Y-162686424D01*
X259082752Y-162781662D01*
X259130371Y-162829281D01*
X259225609Y-162876900D01*
X259416085Y-162876900D01*
X259511323Y-162829281D01*
X259558942Y-162781662D01*
X259606561Y-162686424D01*
X259606561Y-161876900D01*
X260606561Y-162876900D02*
X260035133Y-162876900D01*
X260320847Y-162876900D02*
X260320847Y-161876900D01*
X260225609Y-162019758D01*
X260130371Y-162114996D01*
X260035133Y-162162615D01*
%TO.C,C1*%
X236530371Y-161141662D02*
X236482752Y-161189281D01*
X236339895Y-161236900D01*
X236244657Y-161236900D01*
X236101799Y-161189281D01*
X236006561Y-161094043D01*
X235958942Y-160998805D01*
X235911323Y-160808329D01*
X235911323Y-160665472D01*
X235958942Y-160474996D01*
X236006561Y-160379758D01*
X236101799Y-160284520D01*
X236244657Y-160236900D01*
X236339895Y-160236900D01*
X236482752Y-160284520D01*
X236530371Y-160332139D01*
X237482752Y-161236900D02*
X236911323Y-161236900D01*
X237197038Y-161236900D02*
X237197038Y-160236900D01*
X237101799Y-160379758D01*
X237006561Y-160474996D01*
X236911323Y-160522615D01*
%TO.C,C5*%
X240494180Y-153191186D02*
X240541799Y-153238805D01*
X240589418Y-153381662D01*
X240589418Y-153476900D01*
X240541799Y-153619758D01*
X240446561Y-153714996D01*
X240351323Y-153762615D01*
X240160847Y-153810234D01*
X240017990Y-153810234D01*
X239827514Y-153762615D01*
X239732276Y-153714996D01*
X239637038Y-153619758D01*
X239589418Y-153476900D01*
X239589418Y-153381662D01*
X239637038Y-153238805D01*
X239684657Y-153191186D01*
X239589418Y-152286424D02*
X239589418Y-152762615D01*
X240065609Y-152810234D01*
X240017990Y-152762615D01*
X239970371Y-152667377D01*
X239970371Y-152429281D01*
X240017990Y-152334043D01*
X240065609Y-152286424D01*
X240160847Y-152238805D01*
X240398942Y-152238805D01*
X240494180Y-152286424D01*
X240541799Y-152334043D01*
X240589418Y-152429281D01*
X240589418Y-152667377D01*
X240541799Y-152762615D01*
X240494180Y-152810234D01*
%TO.C,U1*%
X164302380Y-60261904D02*
X165111904Y-60261904D01*
X165207142Y-60214285D01*
X165254761Y-60166666D01*
X165302380Y-60071428D01*
X165302380Y-59880952D01*
X165254761Y-59785714D01*
X165207142Y-59738095D01*
X165111904Y-59690476D01*
X164302380Y-59690476D01*
X165302380Y-58690476D02*
X165302380Y-59261904D01*
X165302380Y-58976190D02*
X164302380Y-58976190D01*
X164445238Y-59071428D01*
X164540476Y-59166666D01*
X164588095Y-59261904D01*
%TO.C,U8*%
X212785133Y-154851900D02*
X212785133Y-155661424D01*
X212832752Y-155756662D01*
X212880371Y-155804281D01*
X212975609Y-155851900D01*
X213166085Y-155851900D01*
X213261323Y-155804281D01*
X213308942Y-155756662D01*
X213356561Y-155661424D01*
X213356561Y-154851900D01*
X213975609Y-155280472D02*
X213880371Y-155232853D01*
X213832752Y-155185234D01*
X213785133Y-155089996D01*
X213785133Y-155042377D01*
X213832752Y-154947139D01*
X213880371Y-154899520D01*
X213975609Y-154851900D01*
X214166085Y-154851900D01*
X214261323Y-154899520D01*
X214308942Y-154947139D01*
X214356561Y-155042377D01*
X214356561Y-155089996D01*
X214308942Y-155185234D01*
X214261323Y-155232853D01*
X214166085Y-155280472D01*
X213975609Y-155280472D01*
X213880371Y-155328091D01*
X213832752Y-155375710D01*
X213785133Y-155470948D01*
X213785133Y-155661424D01*
X213832752Y-155756662D01*
X213880371Y-155804281D01*
X213975609Y-155851900D01*
X214166085Y-155851900D01*
X214261323Y-155804281D01*
X214308942Y-155756662D01*
X214356561Y-155661424D01*
X214356561Y-155470948D01*
X214308942Y-155375710D01*
X214261323Y-155328091D01*
X214166085Y-155280472D01*
%TO.C,R20*%
X80857142Y-159382380D02*
X80523809Y-158906190D01*
X80285714Y-159382380D02*
X80285714Y-158382380D01*
X80666666Y-158382380D01*
X80761904Y-158430000D01*
X80809523Y-158477619D01*
X80857142Y-158572857D01*
X80857142Y-158715714D01*
X80809523Y-158810952D01*
X80761904Y-158858571D01*
X80666666Y-158906190D01*
X80285714Y-158906190D01*
X81238095Y-158477619D02*
X81285714Y-158430000D01*
X81380952Y-158382380D01*
X81619047Y-158382380D01*
X81714285Y-158430000D01*
X81761904Y-158477619D01*
X81809523Y-158572857D01*
X81809523Y-158668095D01*
X81761904Y-158810952D01*
X81190476Y-159382380D01*
X81809523Y-159382380D01*
X82428571Y-158382380D02*
X82523809Y-158382380D01*
X82619047Y-158430000D01*
X82666666Y-158477619D01*
X82714285Y-158572857D01*
X82761904Y-158763333D01*
X82761904Y-159001428D01*
X82714285Y-159191904D01*
X82666666Y-159287142D01*
X82619047Y-159334761D01*
X82523809Y-159382380D01*
X82428571Y-159382380D01*
X82333333Y-159334761D01*
X82285714Y-159287142D01*
X82238095Y-159191904D01*
X82190476Y-159001428D01*
X82190476Y-158763333D01*
X82238095Y-158572857D01*
X82285714Y-158477619D01*
X82333333Y-158430000D01*
X82428571Y-158382380D01*
%TO.C,C22*%
X262154180Y-170917377D02*
X262201799Y-170964996D01*
X262249418Y-171107853D01*
X262249418Y-171203091D01*
X262201799Y-171345948D01*
X262106561Y-171441186D01*
X262011323Y-171488805D01*
X261820847Y-171536424D01*
X261677990Y-171536424D01*
X261487514Y-171488805D01*
X261392276Y-171441186D01*
X261297038Y-171345948D01*
X261249418Y-171203091D01*
X261249418Y-171107853D01*
X261297038Y-170964996D01*
X261344657Y-170917377D01*
X261344657Y-170536424D02*
X261297038Y-170488805D01*
X261249418Y-170393567D01*
X261249418Y-170155472D01*
X261297038Y-170060234D01*
X261344657Y-170012615D01*
X261439895Y-169964996D01*
X261535133Y-169964996D01*
X261677990Y-170012615D01*
X262249418Y-170584043D01*
X262249418Y-169964996D01*
X261344657Y-169584043D02*
X261297038Y-169536424D01*
X261249418Y-169441186D01*
X261249418Y-169203091D01*
X261297038Y-169107853D01*
X261344657Y-169060234D01*
X261439895Y-169012615D01*
X261535133Y-169012615D01*
X261677990Y-169060234D01*
X262249418Y-169631662D01*
X262249418Y-169012615D01*
%TO.C,R22*%
X80607142Y-169702380D02*
X80273809Y-169226190D01*
X80035714Y-169702380D02*
X80035714Y-168702380D01*
X80416666Y-168702380D01*
X80511904Y-168750000D01*
X80559523Y-168797619D01*
X80607142Y-168892857D01*
X80607142Y-169035714D01*
X80559523Y-169130952D01*
X80511904Y-169178571D01*
X80416666Y-169226190D01*
X80035714Y-169226190D01*
X80988095Y-168797619D02*
X81035714Y-168750000D01*
X81130952Y-168702380D01*
X81369047Y-168702380D01*
X81464285Y-168750000D01*
X81511904Y-168797619D01*
X81559523Y-168892857D01*
X81559523Y-168988095D01*
X81511904Y-169130952D01*
X80940476Y-169702380D01*
X81559523Y-169702380D01*
X81940476Y-168797619D02*
X81988095Y-168750000D01*
X82083333Y-168702380D01*
X82321428Y-168702380D01*
X82416666Y-168750000D01*
X82464285Y-168797619D01*
X82511904Y-168892857D01*
X82511904Y-168988095D01*
X82464285Y-169130952D01*
X81892857Y-169702380D01*
X82511904Y-169702380D01*
%TO.C,C1*%
X81333333Y-145177142D02*
X81285714Y-145224761D01*
X81142857Y-145272380D01*
X81047619Y-145272380D01*
X80904761Y-145224761D01*
X80809523Y-145129523D01*
X80761904Y-145034285D01*
X80714285Y-144843809D01*
X80714285Y-144700952D01*
X80761904Y-144510476D01*
X80809523Y-144415238D01*
X80904761Y-144320000D01*
X81047619Y-144272380D01*
X81142857Y-144272380D01*
X81285714Y-144320000D01*
X81333333Y-144367619D01*
X82285714Y-145272380D02*
X81714285Y-145272380D01*
X82000000Y-145272380D02*
X82000000Y-144272380D01*
X81904761Y-144415238D01*
X81809523Y-144510476D01*
X81714285Y-144558095D01*
%TO.C,R19*%
X102352260Y-61132380D02*
X102018927Y-60656190D01*
X101780832Y-61132380D02*
X101780832Y-60132380D01*
X102161784Y-60132380D01*
X102257022Y-60180000D01*
X102304641Y-60227619D01*
X102352260Y-60322857D01*
X102352260Y-60465714D01*
X102304641Y-60560952D01*
X102257022Y-60608571D01*
X102161784Y-60656190D01*
X101780832Y-60656190D01*
X103304641Y-61132380D02*
X102733213Y-61132380D01*
X103018927Y-61132380D02*
X103018927Y-60132380D01*
X102923689Y-60275238D01*
X102828451Y-60370476D01*
X102733213Y-60418095D01*
X103780832Y-61132380D02*
X103971308Y-61132380D01*
X104066546Y-61084761D01*
X104114165Y-61037142D01*
X104209403Y-60894285D01*
X104257022Y-60703809D01*
X104257022Y-60322857D01*
X104209403Y-60227619D01*
X104161784Y-60180000D01*
X104066546Y-60132380D01*
X103876070Y-60132380D01*
X103780832Y-60180000D01*
X103733213Y-60227619D01*
X103685594Y-60322857D01*
X103685594Y-60560952D01*
X103733213Y-60656190D01*
X103780832Y-60703809D01*
X103876070Y-60751428D01*
X104066546Y-60751428D01*
X104161784Y-60703809D01*
X104209403Y-60656190D01*
X104257022Y-60560952D01*
%TO.C,C16*%
X249654180Y-161881662D02*
X249606561Y-161929281D01*
X249463704Y-161976900D01*
X249368466Y-161976900D01*
X249225609Y-161929281D01*
X249130371Y-161834043D01*
X249082752Y-161738805D01*
X249035133Y-161548329D01*
X249035133Y-161405472D01*
X249082752Y-161214996D01*
X249130371Y-161119758D01*
X249225609Y-161024520D01*
X249368466Y-160976900D01*
X249463704Y-160976900D01*
X249606561Y-161024520D01*
X249654180Y-161072139D01*
X250606561Y-161976900D02*
X250035133Y-161976900D01*
X250320847Y-161976900D02*
X250320847Y-160976900D01*
X250225609Y-161119758D01*
X250130371Y-161214996D01*
X250035133Y-161262615D01*
X251463704Y-160976900D02*
X251273228Y-160976900D01*
X251177990Y-161024520D01*
X251130371Y-161072139D01*
X251035133Y-161214996D01*
X250987514Y-161405472D01*
X250987514Y-161786424D01*
X251035133Y-161881662D01*
X251082752Y-161929281D01*
X251177990Y-161976900D01*
X251368466Y-161976900D01*
X251463704Y-161929281D01*
X251511323Y-161881662D01*
X251558942Y-161786424D01*
X251558942Y-161548329D01*
X251511323Y-161453091D01*
X251463704Y-161405472D01*
X251368466Y-161357853D01*
X251177990Y-161357853D01*
X251082752Y-161405472D01*
X251035133Y-161453091D01*
X250987514Y-161548329D01*
X105677260Y-38107142D02*
X105629641Y-38154761D01*
X105486784Y-38202380D01*
X105391546Y-38202380D01*
X105248689Y-38154761D01*
X105153451Y-38059523D01*
X105105832Y-37964285D01*
X105058213Y-37773809D01*
X105058213Y-37630952D01*
X105105832Y-37440476D01*
X105153451Y-37345238D01*
X105248689Y-37250000D01*
X105391546Y-37202380D01*
X105486784Y-37202380D01*
X105629641Y-37250000D01*
X105677260Y-37297619D01*
X106629641Y-38202380D02*
X106058213Y-38202380D01*
X106343927Y-38202380D02*
X106343927Y-37202380D01*
X106248689Y-37345238D01*
X106153451Y-37440476D01*
X106058213Y-37488095D01*
X107486784Y-37202380D02*
X107296308Y-37202380D01*
X107201070Y-37250000D01*
X107153451Y-37297619D01*
X107058213Y-37440476D01*
X107010594Y-37630952D01*
X107010594Y-38011904D01*
X107058213Y-38107142D01*
X107105832Y-38154761D01*
X107201070Y-38202380D01*
X107391546Y-38202380D01*
X107486784Y-38154761D01*
X107534403Y-38107142D01*
X107582022Y-38011904D01*
X107582022Y-37773809D01*
X107534403Y-37678571D01*
X107486784Y-37630952D01*
X107391546Y-37583333D01*
X107201070Y-37583333D01*
X107105832Y-37630952D01*
X107058213Y-37678571D01*
X107010594Y-37773809D01*
%TO.C,R21*%
X105677260Y-56202380D02*
X105343927Y-55726190D01*
X105105832Y-56202380D02*
X105105832Y-55202380D01*
X105486784Y-55202380D01*
X105582022Y-55250000D01*
X105629641Y-55297619D01*
X105677260Y-55392857D01*
X105677260Y-55535714D01*
X105629641Y-55630952D01*
X105582022Y-55678571D01*
X105486784Y-55726190D01*
X105105832Y-55726190D01*
X106058213Y-55297619D02*
X106105832Y-55250000D01*
X106201070Y-55202380D01*
X106439165Y-55202380D01*
X106534403Y-55250000D01*
X106582022Y-55297619D01*
X106629641Y-55392857D01*
X106629641Y-55488095D01*
X106582022Y-55630952D01*
X106010594Y-56202380D01*
X106629641Y-56202380D01*
X107582022Y-56202380D02*
X107010594Y-56202380D01*
X107296308Y-56202380D02*
X107296308Y-55202380D01*
X107201070Y-55345238D01*
X107105832Y-55440476D01*
X107010594Y-55488095D01*
%TO.C,R1*%
X81083333Y-137202380D02*
X80750000Y-136726190D01*
X80511904Y-137202380D02*
X80511904Y-136202380D01*
X80892857Y-136202380D01*
X80988095Y-136250000D01*
X81035714Y-136297619D01*
X81083333Y-136392857D01*
X81083333Y-136535714D01*
X81035714Y-136630952D01*
X80988095Y-136678571D01*
X80892857Y-136726190D01*
X80511904Y-136726190D01*
X82035714Y-137202380D02*
X81464285Y-137202380D01*
X81750000Y-137202380D02*
X81750000Y-136202380D01*
X81654761Y-136345238D01*
X81559523Y-136440476D01*
X81464285Y-136488095D01*
%TO.C,R2*%
X172632380Y-62916666D02*
X172156190Y-63250000D01*
X172632380Y-63488095D02*
X171632380Y-63488095D01*
X171632380Y-63107142D01*
X171680000Y-63011904D01*
X171727619Y-62964285D01*
X171822857Y-62916666D01*
X171965714Y-62916666D01*
X172060952Y-62964285D01*
X172108571Y-63011904D01*
X172156190Y-63107142D01*
X172156190Y-63488095D01*
X171727619Y-62535714D02*
X171680000Y-62488095D01*
X171632380Y-62392857D01*
X171632380Y-62154761D01*
X171680000Y-62059523D01*
X171727619Y-62011904D01*
X171822857Y-61964285D01*
X171918095Y-61964285D01*
X172060952Y-62011904D01*
X172632380Y-62583333D01*
X172632380Y-61964285D01*
%TO.C,R23*%
X49607142Y-132022380D02*
X49273809Y-131546190D01*
X49035714Y-132022380D02*
X49035714Y-131022380D01*
X49416666Y-131022380D01*
X49511904Y-131070000D01*
X49559523Y-131117619D01*
X49607142Y-131212857D01*
X49607142Y-131355714D01*
X49559523Y-131450952D01*
X49511904Y-131498571D01*
X49416666Y-131546190D01*
X49035714Y-131546190D01*
X49988095Y-131117619D02*
X50035714Y-131070000D01*
X50130952Y-131022380D01*
X50369047Y-131022380D01*
X50464285Y-131070000D01*
X50511904Y-131117619D01*
X50559523Y-131212857D01*
X50559523Y-131308095D01*
X50511904Y-131450952D01*
X49940476Y-132022380D01*
X50559523Y-132022380D01*
X50892857Y-131022380D02*
X51511904Y-131022380D01*
X51178571Y-131403333D01*
X51321428Y-131403333D01*
X51416666Y-131450952D01*
X51464285Y-131498571D01*
X51511904Y-131593809D01*
X51511904Y-131831904D01*
X51464285Y-131927142D01*
X51416666Y-131974761D01*
X51321428Y-132022380D01*
X51035714Y-132022380D01*
X50940476Y-131974761D01*
X50892857Y-131927142D01*
%TO.C,Y1*%
X225420847Y-161250710D02*
X225420847Y-161726900D01*
X225087514Y-160726900D02*
X225420847Y-161250710D01*
X225754180Y-160726900D01*
X226611323Y-161726900D02*
X226039895Y-161726900D01*
X226325609Y-161726900D02*
X226325609Y-160726900D01*
X226230371Y-160869758D01*
X226135133Y-160964996D01*
X226039895Y-161012615D01*
%TO.C,R4*%
X276630371Y-158296900D02*
X276297038Y-157820710D01*
X276058942Y-158296900D02*
X276058942Y-157296900D01*
X276439895Y-157296900D01*
X276535133Y-157344520D01*
X276582752Y-157392139D01*
X276630371Y-157487377D01*
X276630371Y-157630234D01*
X276582752Y-157725472D01*
X276535133Y-157773091D01*
X276439895Y-157820710D01*
X276058942Y-157820710D01*
X277487514Y-157630234D02*
X277487514Y-158296900D01*
X277249418Y-157249281D02*
X277011323Y-157963567D01*
X277630371Y-157963567D01*
%TO.C,R20*%
X105677260Y-71202380D02*
X105343927Y-70726190D01*
X105105832Y-71202380D02*
X105105832Y-70202380D01*
X105486784Y-70202380D01*
X105582022Y-70250000D01*
X105629641Y-70297619D01*
X105677260Y-70392857D01*
X105677260Y-70535714D01*
X105629641Y-70630952D01*
X105582022Y-70678571D01*
X105486784Y-70726190D01*
X105105832Y-70726190D01*
X106058213Y-70297619D02*
X106105832Y-70250000D01*
X106201070Y-70202380D01*
X106439165Y-70202380D01*
X106534403Y-70250000D01*
X106582022Y-70297619D01*
X106629641Y-70392857D01*
X106629641Y-70488095D01*
X106582022Y-70630952D01*
X106010594Y-71202380D01*
X106629641Y-71202380D01*
X107248689Y-70202380D02*
X107343927Y-70202380D01*
X107439165Y-70250000D01*
X107486784Y-70297619D01*
X107534403Y-70392857D01*
X107582022Y-70583333D01*
X107582022Y-70821428D01*
X107534403Y-71011904D01*
X107486784Y-71107142D01*
X107439165Y-71154761D01*
X107343927Y-71202380D01*
X107248689Y-71202380D01*
X107153451Y-71154761D01*
X107105832Y-71107142D01*
X107058213Y-71011904D01*
X107010594Y-70821428D01*
X107010594Y-70583333D01*
X107058213Y-70392857D01*
X107105832Y-70297619D01*
X107153451Y-70250000D01*
X107248689Y-70202380D01*
%TO.C,U2*%
X252735133Y-148036900D02*
X252735133Y-148846424D01*
X252782752Y-148941662D01*
X252830371Y-148989281D01*
X252925609Y-149036900D01*
X253116085Y-149036900D01*
X253211323Y-148989281D01*
X253258942Y-148941662D01*
X253306561Y-148846424D01*
X253306561Y-148036900D01*
X253735133Y-148132139D02*
X253782752Y-148084520D01*
X253877990Y-148036900D01*
X254116085Y-148036900D01*
X254211323Y-148084520D01*
X254258942Y-148132139D01*
X254306561Y-148227377D01*
X254306561Y-148322615D01*
X254258942Y-148465472D01*
X253687514Y-149036900D01*
X254306561Y-149036900D01*
%TO.C,U3*%
X92808213Y-64352380D02*
X92808213Y-65161904D01*
X92855832Y-65257142D01*
X92903451Y-65304761D01*
X92998689Y-65352380D01*
X93189165Y-65352380D01*
X93284403Y-65304761D01*
X93332022Y-65257142D01*
X93379641Y-65161904D01*
X93379641Y-64352380D01*
X93760594Y-64352380D02*
X94379641Y-64352380D01*
X94046308Y-64733333D01*
X94189165Y-64733333D01*
X94284403Y-64780952D01*
X94332022Y-64828571D01*
X94379641Y-64923809D01*
X94379641Y-65161904D01*
X94332022Y-65257142D01*
X94284403Y-65304761D01*
X94189165Y-65352380D01*
X93903451Y-65352380D01*
X93808213Y-65304761D01*
X93760594Y-65257142D01*
%TO.C,R7*%
X251880371Y-160726900D02*
X251547038Y-160250710D01*
X251308942Y-160726900D02*
X251308942Y-159726900D01*
X251689895Y-159726900D01*
X251785133Y-159774520D01*
X251832752Y-159822139D01*
X251880371Y-159917377D01*
X251880371Y-160060234D01*
X251832752Y-160155472D01*
X251785133Y-160203091D01*
X251689895Y-160250710D01*
X251308942Y-160250710D01*
X252213704Y-159726900D02*
X252880371Y-159726900D01*
X252451799Y-160726900D01*
%TO.C,R3*%
X161772380Y-65666666D02*
X161296190Y-66000000D01*
X161772380Y-66238095D02*
X160772380Y-66238095D01*
X160772380Y-65857142D01*
X160820000Y-65761904D01*
X160867619Y-65714285D01*
X160962857Y-65666666D01*
X161105714Y-65666666D01*
X161200952Y-65714285D01*
X161248571Y-65761904D01*
X161296190Y-65857142D01*
X161296190Y-66238095D01*
X160772380Y-65333333D02*
X160772380Y-64714285D01*
X161153333Y-65047619D01*
X161153333Y-64904761D01*
X161200952Y-64809523D01*
X161248571Y-64761904D01*
X161343809Y-64714285D01*
X161581904Y-64714285D01*
X161677142Y-64761904D01*
X161724761Y-64809523D01*
X161772380Y-64904761D01*
X161772380Y-65190476D01*
X161724761Y-65285714D01*
X161677142Y-65333333D01*
%TO.C,SW4*%
X278963704Y-136729281D02*
X279106561Y-136776900D01*
X279344657Y-136776900D01*
X279439895Y-136729281D01*
X279487514Y-136681662D01*
X279535133Y-136586424D01*
X279535133Y-136491186D01*
X279487514Y-136395948D01*
X279439895Y-136348329D01*
X279344657Y-136300710D01*
X279154180Y-136253091D01*
X279058942Y-136205472D01*
X279011323Y-136157853D01*
X278963704Y-136062615D01*
X278963704Y-135967377D01*
X279011323Y-135872139D01*
X279058942Y-135824520D01*
X279154180Y-135776900D01*
X279392276Y-135776900D01*
X279535133Y-135824520D01*
X279868466Y-135776900D02*
X280106561Y-136776900D01*
X280297038Y-136062615D01*
X280487514Y-136776900D01*
X280725609Y-135776900D01*
X281535133Y-136110234D02*
X281535133Y-136776900D01*
X281297038Y-135729281D02*
X281058942Y-136443567D01*
X281677990Y-136443567D01*
X278892276Y-141776900D02*
X278892276Y-140776900D01*
X278892276Y-141157853D02*
X278987514Y-141110234D01*
X279177990Y-141110234D01*
X279273228Y-141157853D01*
X279320847Y-141205472D01*
X279368466Y-141300710D01*
X279368466Y-141586424D01*
X279320847Y-141681662D01*
X279273228Y-141729281D01*
X279177990Y-141776900D01*
X278987514Y-141776900D01*
X278892276Y-141729281D01*
X279939895Y-141776900D02*
X279844657Y-141729281D01*
X279797038Y-141681662D01*
X279749418Y-141586424D01*
X279749418Y-141300710D01*
X279797038Y-141205472D01*
X279844657Y-141157853D01*
X279939895Y-141110234D01*
X280082752Y-141110234D01*
X280177990Y-141157853D01*
X280225609Y-141205472D01*
X280273228Y-141300710D01*
X280273228Y-141586424D01*
X280225609Y-141681662D01*
X280177990Y-141729281D01*
X280082752Y-141776900D01*
X279939895Y-141776900D01*
X280844657Y-141776900D02*
X280749418Y-141729281D01*
X280701799Y-141681662D01*
X280654180Y-141586424D01*
X280654180Y-141300710D01*
X280701799Y-141205472D01*
X280749418Y-141157853D01*
X280844657Y-141110234D01*
X280987514Y-141110234D01*
X281082752Y-141157853D01*
X281130371Y-141205472D01*
X281177990Y-141300710D01*
X281177990Y-141586424D01*
X281130371Y-141681662D01*
X281082752Y-141729281D01*
X280987514Y-141776900D01*
X280844657Y-141776900D01*
X281463704Y-141110234D02*
X281844657Y-141110234D01*
X281606561Y-140776900D02*
X281606561Y-141634043D01*
X281654180Y-141729281D01*
X281749418Y-141776900D01*
X281844657Y-141776900D01*
%TO.C,C12*%
X269654180Y-163667377D02*
X269701799Y-163714996D01*
X269749418Y-163857853D01*
X269749418Y-163953091D01*
X269701799Y-164095948D01*
X269606561Y-164191186D01*
X269511323Y-164238805D01*
X269320847Y-164286424D01*
X269177990Y-164286424D01*
X268987514Y-164238805D01*
X268892276Y-164191186D01*
X268797038Y-164095948D01*
X268749418Y-163953091D01*
X268749418Y-163857853D01*
X268797038Y-163714996D01*
X268844657Y-163667377D01*
X269749418Y-162714996D02*
X269749418Y-163286424D01*
X269749418Y-163000710D02*
X268749418Y-163000710D01*
X268892276Y-163095948D01*
X268987514Y-163191186D01*
X269035133Y-163286424D01*
X268844657Y-162334043D02*
X268797038Y-162286424D01*
X268749418Y-162191186D01*
X268749418Y-161953091D01*
X268797038Y-161857853D01*
X268844657Y-161810234D01*
X268939895Y-161762615D01*
X269035133Y-161762615D01*
X269177990Y-161810234D01*
X269749418Y-162381662D01*
X269749418Y-161762615D01*
%TO.C,R1*%
X265999418Y-165691186D02*
X265523228Y-166024520D01*
X265999418Y-166262615D02*
X264999418Y-166262615D01*
X264999418Y-165881662D01*
X265047038Y-165786424D01*
X265094657Y-165738805D01*
X265189895Y-165691186D01*
X265332752Y-165691186D01*
X265427990Y-165738805D01*
X265475609Y-165786424D01*
X265523228Y-165881662D01*
X265523228Y-166262615D01*
X265999418Y-164738805D02*
X265999418Y-165310234D01*
X265999418Y-165024520D02*
X264999418Y-165024520D01*
X265142276Y-165119758D01*
X265237514Y-165214996D01*
X265285133Y-165310234D01*
%TO.C,C13*%
X32927260Y-47642857D02*
X32974879Y-47690476D01*
X33022498Y-47833333D01*
X33022498Y-47928571D01*
X32974879Y-48071428D01*
X32879641Y-48166666D01*
X32784403Y-48214285D01*
X32593927Y-48261904D01*
X32451070Y-48261904D01*
X32260594Y-48214285D01*
X32165356Y-48166666D01*
X32070118Y-48071428D01*
X32022498Y-47928571D01*
X32022498Y-47833333D01*
X32070118Y-47690476D01*
X32117737Y-47642857D01*
X33022498Y-46690476D02*
X33022498Y-47261904D01*
X33022498Y-46976190D02*
X32022498Y-46976190D01*
X32165356Y-47071428D01*
X32260594Y-47166666D01*
X32308213Y-47261904D01*
X32022498Y-46357142D02*
X32022498Y-45738095D01*
X32403451Y-46071428D01*
X32403451Y-45928571D01*
X32451070Y-45833333D01*
X32498689Y-45785714D01*
X32593927Y-45738095D01*
X32832022Y-45738095D01*
X32927260Y-45785714D01*
X32974879Y-45833333D01*
X33022498Y-45928571D01*
X33022498Y-46214285D01*
X32974879Y-46309523D01*
X32927260Y-46357142D01*
%TO.C,C14*%
X38857260Y-47642857D02*
X38904879Y-47690476D01*
X38952498Y-47833333D01*
X38952498Y-47928571D01*
X38904879Y-48071428D01*
X38809641Y-48166666D01*
X38714403Y-48214285D01*
X38523927Y-48261904D01*
X38381070Y-48261904D01*
X38190594Y-48214285D01*
X38095356Y-48166666D01*
X38000118Y-48071428D01*
X37952498Y-47928571D01*
X37952498Y-47833333D01*
X38000118Y-47690476D01*
X38047737Y-47642857D01*
X38952498Y-46690476D02*
X38952498Y-47261904D01*
X38952498Y-46976190D02*
X37952498Y-46976190D01*
X38095356Y-47071428D01*
X38190594Y-47166666D01*
X38238213Y-47261904D01*
X38285832Y-45833333D02*
X38952498Y-45833333D01*
X37904879Y-46071428D02*
X38619165Y-46309523D01*
X38619165Y-45690476D01*
%TO.C,C9*%
X81333333Y-129677142D02*
X81285714Y-129724761D01*
X81142857Y-129772380D01*
X81047619Y-129772380D01*
X80904761Y-129724761D01*
X80809523Y-129629523D01*
X80761904Y-129534285D01*
X80714285Y-129343809D01*
X80714285Y-129200952D01*
X80761904Y-129010476D01*
X80809523Y-128915238D01*
X80904761Y-128820000D01*
X81047619Y-128772380D01*
X81142857Y-128772380D01*
X81285714Y-128820000D01*
X81333333Y-128867619D01*
X81809523Y-129772380D02*
X82000000Y-129772380D01*
X82095238Y-129724761D01*
X82142857Y-129677142D01*
X82238095Y-129534285D01*
X82285714Y-129343809D01*
X82285714Y-128962857D01*
X82238095Y-128867619D01*
X82190476Y-128820000D01*
X82095238Y-128772380D01*
X81904761Y-128772380D01*
X81809523Y-128820000D01*
X81761904Y-128867619D01*
X81714285Y-128962857D01*
X81714285Y-129200952D01*
X81761904Y-129296190D01*
X81809523Y-129343809D01*
X81904761Y-129391428D01*
X82095238Y-129391428D01*
X82190476Y-129343809D01*
X82238095Y-129296190D01*
X82285714Y-129200952D01*
%TO.C,C4*%
X245004180Y-153191186D02*
X245051799Y-153238805D01*
X245099418Y-153381662D01*
X245099418Y-153476900D01*
X245051799Y-153619758D01*
X244956561Y-153714996D01*
X244861323Y-153762615D01*
X244670847Y-153810234D01*
X244527990Y-153810234D01*
X244337514Y-153762615D01*
X244242276Y-153714996D01*
X244147038Y-153619758D01*
X244099418Y-153476900D01*
X244099418Y-153381662D01*
X244147038Y-153238805D01*
X244194657Y-153191186D01*
X244432752Y-152334043D02*
X245099418Y-152334043D01*
X244051799Y-152572139D02*
X244766085Y-152810234D01*
X244766085Y-152191186D01*
%TO.C,D1*%
X50511904Y-134952380D02*
X50511904Y-133952380D01*
X50750000Y-133952380D01*
X50892857Y-134000000D01*
X50988095Y-134095238D01*
X51035714Y-134190476D01*
X51083333Y-134380952D01*
X51083333Y-134523809D01*
X51035714Y-134714285D01*
X50988095Y-134809523D01*
X50892857Y-134904761D01*
X50750000Y-134952380D01*
X50511904Y-134952380D01*
X52035714Y-134952380D02*
X51464285Y-134952380D01*
X51750000Y-134952380D02*
X51750000Y-133952380D01*
X51654761Y-134095238D01*
X51559523Y-134190476D01*
X51464285Y-134238095D01*
%TO.C,C8*%
X84083333Y-133857142D02*
X84035714Y-133904761D01*
X83892857Y-133952380D01*
X83797619Y-133952380D01*
X83654761Y-133904761D01*
X83559523Y-133809523D01*
X83511904Y-133714285D01*
X83464285Y-133523809D01*
X83464285Y-133380952D01*
X83511904Y-133190476D01*
X83559523Y-133095238D01*
X83654761Y-133000000D01*
X83797619Y-132952380D01*
X83892857Y-132952380D01*
X84035714Y-133000000D01*
X84083333Y-133047619D01*
X84654761Y-133380952D02*
X84559523Y-133333333D01*
X84511904Y-133285714D01*
X84464285Y-133190476D01*
X84464285Y-133142857D01*
X84511904Y-133047619D01*
X84559523Y-133000000D01*
X84654761Y-132952380D01*
X84845238Y-132952380D01*
X84940476Y-133000000D01*
X84988095Y-133047619D01*
X85035714Y-133142857D01*
X85035714Y-133190476D01*
X84988095Y-133285714D01*
X84940476Y-133333333D01*
X84845238Y-133380952D01*
X84654761Y-133380952D01*
X84559523Y-133428571D01*
X84511904Y-133476190D01*
X84464285Y-133571428D01*
X84464285Y-133761904D01*
X84511904Y-133857142D01*
X84559523Y-133904761D01*
X84654761Y-133952380D01*
X84845238Y-133952380D01*
X84940476Y-133904761D01*
X84988095Y-133857142D01*
X85035714Y-133761904D01*
X85035714Y-133571428D01*
X84988095Y-133476190D01*
X84940476Y-133428571D01*
X84845238Y-133380952D01*
%TO.C,C11*%
X260174180Y-159067377D02*
X260221799Y-159114996D01*
X260269418Y-159257853D01*
X260269418Y-159353091D01*
X260221799Y-159495948D01*
X260126561Y-159591186D01*
X260031323Y-159638805D01*
X259840847Y-159686424D01*
X259697990Y-159686424D01*
X259507514Y-159638805D01*
X259412276Y-159591186D01*
X259317038Y-159495948D01*
X259269418Y-159353091D01*
X259269418Y-159257853D01*
X259317038Y-159114996D01*
X259364657Y-159067377D01*
X260269418Y-158114996D02*
X260269418Y-158686424D01*
X260269418Y-158400710D02*
X259269418Y-158400710D01*
X259412276Y-158495948D01*
X259507514Y-158591186D01*
X259555133Y-158686424D01*
X260269418Y-157162615D02*
X260269418Y-157734043D01*
X260269418Y-157448329D02*
X259269418Y-157448329D01*
X259412276Y-157543567D01*
X259507514Y-157638805D01*
X259555133Y-157734043D01*
%TO.C,C6*%
X236530371Y-157881662D02*
X236482752Y-157929281D01*
X236339895Y-157976900D01*
X236244657Y-157976900D01*
X236101799Y-157929281D01*
X236006561Y-157834043D01*
X235958942Y-157738805D01*
X235911323Y-157548329D01*
X235911323Y-157405472D01*
X235958942Y-157214996D01*
X236006561Y-157119758D01*
X236101799Y-157024520D01*
X236244657Y-156976900D01*
X236339895Y-156976900D01*
X236482752Y-157024520D01*
X236530371Y-157072139D01*
X237387514Y-156976900D02*
X237197038Y-156976900D01*
X237101799Y-157024520D01*
X237054180Y-157072139D01*
X236958942Y-157214996D01*
X236911323Y-157405472D01*
X236911323Y-157786424D01*
X236958942Y-157881662D01*
X237006561Y-157929281D01*
X237101799Y-157976900D01*
X237292276Y-157976900D01*
X237387514Y-157929281D01*
X237435133Y-157881662D01*
X237482752Y-157786424D01*
X237482752Y-157548329D01*
X237435133Y-157453091D01*
X237387514Y-157405472D01*
X237292276Y-157357853D01*
X237101799Y-157357853D01*
X237006561Y-157405472D01*
X236958942Y-157453091D01*
X236911323Y-157548329D01*
%TO.C,C20*%
X105677260Y-69357142D02*
X105629641Y-69404761D01*
X105486784Y-69452380D01*
X105391546Y-69452380D01*
X105248689Y-69404761D01*
X105153451Y-69309523D01*
X105105832Y-69214285D01*
X105058213Y-69023809D01*
X105058213Y-68880952D01*
X105105832Y-68690476D01*
X105153451Y-68595238D01*
X105248689Y-68500000D01*
X105391546Y-68452380D01*
X105486784Y-68452380D01*
X105629641Y-68500000D01*
X105677260Y-68547619D01*
X106058213Y-68547619D02*
X106105832Y-68500000D01*
X106201070Y-68452380D01*
X106439165Y-68452380D01*
X106534403Y-68500000D01*
X106582022Y-68547619D01*
X106629641Y-68642857D01*
X106629641Y-68738095D01*
X106582022Y-68880952D01*
X106010594Y-69452380D01*
X106629641Y-69452380D01*
X107248689Y-68452380D02*
X107343927Y-68452380D01*
X107439165Y-68500000D01*
X107486784Y-68547619D01*
X107534403Y-68642857D01*
X107582022Y-68833333D01*
X107582022Y-69071428D01*
X107534403Y-69261904D01*
X107486784Y-69357142D01*
X107439165Y-69404761D01*
X107343927Y-69452380D01*
X107248689Y-69452380D01*
X107153451Y-69404761D01*
X107105832Y-69357142D01*
X107058213Y-69261904D01*
X107010594Y-69071428D01*
X107010594Y-68833333D01*
X107058213Y-68642857D01*
X107105832Y-68547619D01*
X107153451Y-68500000D01*
X107248689Y-68452380D01*
%TO.C,C3*%
X242654180Y-164591186D02*
X242701799Y-164638805D01*
X242749418Y-164781662D01*
X242749418Y-164876900D01*
X242701799Y-165019758D01*
X242606561Y-165114996D01*
X242511323Y-165162615D01*
X242320847Y-165210234D01*
X242177990Y-165210234D01*
X241987514Y-165162615D01*
X241892276Y-165114996D01*
X241797038Y-165019758D01*
X241749418Y-164876900D01*
X241749418Y-164781662D01*
X241797038Y-164638805D01*
X241844657Y-164591186D01*
X241749418Y-164257853D02*
X241749418Y-163638805D01*
X242130371Y-163972139D01*
X242130371Y-163829281D01*
X242177990Y-163734043D01*
X242225609Y-163686424D01*
X242320847Y-163638805D01*
X242558942Y-163638805D01*
X242654180Y-163686424D01*
X242701799Y-163734043D01*
X242749418Y-163829281D01*
X242749418Y-164114996D01*
X242701799Y-164210234D01*
X242654180Y-164257853D01*
%TO.C,R19*%
X274454180Y-146996900D02*
X274120847Y-146520710D01*
X273882752Y-146996900D02*
X273882752Y-145996900D01*
X274263704Y-145996900D01*
X274358942Y-146044520D01*
X274406561Y-146092139D01*
X274454180Y-146187377D01*
X274454180Y-146330234D01*
X274406561Y-146425472D01*
X274358942Y-146473091D01*
X274263704Y-146520710D01*
X273882752Y-146520710D01*
X275406561Y-146996900D02*
X274835133Y-146996900D01*
X275120847Y-146996900D02*
X275120847Y-145996900D01*
X275025609Y-146139758D01*
X274930371Y-146234996D01*
X274835133Y-146282615D01*
X275882752Y-146996900D02*
X276073228Y-146996900D01*
X276168466Y-146949281D01*
X276216085Y-146901662D01*
X276311323Y-146758805D01*
X276358942Y-146568329D01*
X276358942Y-146187377D01*
X276311323Y-146092139D01*
X276263704Y-146044520D01*
X276168466Y-145996900D01*
X275977990Y-145996900D01*
X275882752Y-146044520D01*
X275835133Y-146092139D01*
X275787514Y-146187377D01*
X275787514Y-146425472D01*
X275835133Y-146520710D01*
X275882752Y-146568329D01*
X275977990Y-146615948D01*
X276168466Y-146615948D01*
X276263704Y-146568329D01*
X276311323Y-146520710D01*
X276358942Y-146425472D01*
%TO.C,SW5*%
X278963704Y-144929281D02*
X279106561Y-144976900D01*
X279344657Y-144976900D01*
X279439895Y-144929281D01*
X279487514Y-144881662D01*
X279535133Y-144786424D01*
X279535133Y-144691186D01*
X279487514Y-144595948D01*
X279439895Y-144548329D01*
X279344657Y-144500710D01*
X279154180Y-144453091D01*
X279058942Y-144405472D01*
X279011323Y-144357853D01*
X278963704Y-144262615D01*
X278963704Y-144167377D01*
X279011323Y-144072139D01*
X279058942Y-144024520D01*
X279154180Y-143976900D01*
X279392276Y-143976900D01*
X279535133Y-144024520D01*
X279868466Y-143976900D02*
X280106561Y-144976900D01*
X280297038Y-144262615D01*
X280487514Y-144976900D01*
X280725609Y-143976900D01*
X281582752Y-143976900D02*
X281106561Y-143976900D01*
X281058942Y-144453091D01*
X281106561Y-144405472D01*
X281201799Y-144357853D01*
X281439895Y-144357853D01*
X281535133Y-144405472D01*
X281582752Y-144453091D01*
X281630371Y-144548329D01*
X281630371Y-144786424D01*
X281582752Y-144881662D01*
X281535133Y-144929281D01*
X281439895Y-144976900D01*
X281201799Y-144976900D01*
X281106561Y-144929281D01*
X281058942Y-144881662D01*
X279320847Y-149976900D02*
X279320847Y-149310234D01*
X279320847Y-149500710D02*
X279368466Y-149405472D01*
X279416085Y-149357853D01*
X279511323Y-149310234D01*
X279606561Y-149310234D01*
X280368466Y-149310234D02*
X280368466Y-149976900D01*
X279939895Y-149310234D02*
X279939895Y-149834043D01*
X279987514Y-149929281D01*
X280082752Y-149976900D01*
X280225609Y-149976900D01*
X280320847Y-149929281D01*
X280368466Y-149881662D01*
X280844657Y-149310234D02*
X280844657Y-149976900D01*
X280844657Y-149405472D02*
X280892276Y-149357853D01*
X280987514Y-149310234D01*
X281130371Y-149310234D01*
X281225609Y-149357853D01*
X281273228Y-149453091D01*
X281273228Y-149976900D01*
%TO.C,C4*%
X84083333Y-165857142D02*
X84035714Y-165904761D01*
X83892857Y-165952380D01*
X83797619Y-165952380D01*
X83654761Y-165904761D01*
X83559523Y-165809523D01*
X83511904Y-165714285D01*
X83464285Y-165523809D01*
X83464285Y-165380952D01*
X83511904Y-165190476D01*
X83559523Y-165095238D01*
X83654761Y-165000000D01*
X83797619Y-164952380D01*
X83892857Y-164952380D01*
X84035714Y-165000000D01*
X84083333Y-165047619D01*
X84940476Y-165285714D02*
X84940476Y-165952380D01*
X84702380Y-164904761D02*
X84464285Y-165619047D01*
X85083333Y-165619047D01*
%TO.C,C19*%
X102352260Y-49977142D02*
X102304641Y-50024761D01*
X102161784Y-50072380D01*
X102066546Y-50072380D01*
X101923689Y-50024761D01*
X101828451Y-49929523D01*
X101780832Y-49834285D01*
X101733213Y-49643809D01*
X101733213Y-49500952D01*
X101780832Y-49310476D01*
X101828451Y-49215238D01*
X101923689Y-49120000D01*
X102066546Y-49072380D01*
X102161784Y-49072380D01*
X102304641Y-49120000D01*
X102352260Y-49167619D01*
X103304641Y-50072380D02*
X102733213Y-50072380D01*
X103018927Y-50072380D02*
X103018927Y-49072380D01*
X102923689Y-49215238D01*
X102828451Y-49310476D01*
X102733213Y-49358095D01*
X103780832Y-50072380D02*
X103971308Y-50072380D01*
X104066546Y-50024761D01*
X104114165Y-49977142D01*
X104209403Y-49834285D01*
X104257022Y-49643809D01*
X104257022Y-49262857D01*
X104209403Y-49167619D01*
X104161784Y-49120000D01*
X104066546Y-49072380D01*
X103876070Y-49072380D01*
X103780832Y-49120000D01*
X103733213Y-49167619D01*
X103685594Y-49262857D01*
X103685594Y-49500952D01*
X103733213Y-49596190D01*
X103780832Y-49643809D01*
X103876070Y-49691428D01*
X104066546Y-49691428D01*
X104161784Y-49643809D01*
X104209403Y-49596190D01*
X104257022Y-49500952D01*
%TO.C,C5*%
X164427142Y-55916666D02*
X164474761Y-55964285D01*
X164522380Y-56107142D01*
X164522380Y-56202380D01*
X164474761Y-56345238D01*
X164379523Y-56440476D01*
X164284285Y-56488095D01*
X164093809Y-56535714D01*
X163950952Y-56535714D01*
X163760476Y-56488095D01*
X163665238Y-56440476D01*
X163570000Y-56345238D01*
X163522380Y-56202380D01*
X163522380Y-56107142D01*
X163570000Y-55964285D01*
X163617619Y-55916666D01*
X163522380Y-55011904D02*
X163522380Y-55488095D01*
X163998571Y-55535714D01*
X163950952Y-55488095D01*
X163903333Y-55392857D01*
X163903333Y-55154761D01*
X163950952Y-55059523D01*
X163998571Y-55011904D01*
X164093809Y-54964285D01*
X164331904Y-54964285D01*
X164427142Y-55011904D01*
X164474761Y-55059523D01*
X164522380Y-55154761D01*
X164522380Y-55392857D01*
X164474761Y-55488095D01*
X164427142Y-55535714D01*
%TO.C,C8*%
X181333333Y-39177142D02*
X181285714Y-39224761D01*
X181142857Y-39272380D01*
X181047619Y-39272380D01*
X180904761Y-39224761D01*
X180809523Y-39129523D01*
X180761904Y-39034285D01*
X180714285Y-38843809D01*
X180714285Y-38700952D01*
X180761904Y-38510476D01*
X180809523Y-38415238D01*
X180904761Y-38320000D01*
X181047619Y-38272380D01*
X181142857Y-38272380D01*
X181285714Y-38320000D01*
X181333333Y-38367619D01*
X181904761Y-38700952D02*
X181809523Y-38653333D01*
X181761904Y-38605714D01*
X181714285Y-38510476D01*
X181714285Y-38462857D01*
X181761904Y-38367619D01*
X181809523Y-38320000D01*
X181904761Y-38272380D01*
X182095238Y-38272380D01*
X182190476Y-38320000D01*
X182238095Y-38367619D01*
X182285714Y-38462857D01*
X182285714Y-38510476D01*
X182238095Y-38605714D01*
X182190476Y-38653333D01*
X182095238Y-38700952D01*
X181904761Y-38700952D01*
X181809523Y-38748571D01*
X181761904Y-38796190D01*
X181714285Y-38891428D01*
X181714285Y-39081904D01*
X181761904Y-39177142D01*
X181809523Y-39224761D01*
X181904761Y-39272380D01*
X182095238Y-39272380D01*
X182190476Y-39224761D01*
X182238095Y-39177142D01*
X182285714Y-39081904D01*
X182285714Y-38891428D01*
X182238095Y-38796190D01*
X182190476Y-38748571D01*
X182095238Y-38700952D01*
%TO.C,C9*%
X247730371Y-163881662D02*
X247682752Y-163929281D01*
X247539895Y-163976900D01*
X247444657Y-163976900D01*
X247301799Y-163929281D01*
X247206561Y-163834043D01*
X247158942Y-163738805D01*
X247111323Y-163548329D01*
X247111323Y-163405472D01*
X247158942Y-163214996D01*
X247206561Y-163119758D01*
X247301799Y-163024520D01*
X247444657Y-162976900D01*
X247539895Y-162976900D01*
X247682752Y-163024520D01*
X247730371Y-163072139D01*
X248206561Y-163976900D02*
X248397038Y-163976900D01*
X248492276Y-163929281D01*
X248539895Y-163881662D01*
X248635133Y-163738805D01*
X248682752Y-163548329D01*
X248682752Y-163167377D01*
X248635133Y-163072139D01*
X248587514Y-163024520D01*
X248492276Y-162976900D01*
X248301799Y-162976900D01*
X248206561Y-163024520D01*
X248158942Y-163072139D01*
X248111323Y-163167377D01*
X248111323Y-163405472D01*
X248158942Y-163500710D01*
X248206561Y-163548329D01*
X248301799Y-163595948D01*
X248492276Y-163595948D01*
X248587514Y-163548329D01*
X248635133Y-163500710D01*
X248682752Y-163405472D01*
%TO.C,C2*%
X247730371Y-156881662D02*
X247682752Y-156929281D01*
X247539895Y-156976900D01*
X247444657Y-156976900D01*
X247301799Y-156929281D01*
X247206561Y-156834043D01*
X247158942Y-156738805D01*
X247111323Y-156548329D01*
X247111323Y-156405472D01*
X247158942Y-156214996D01*
X247206561Y-156119758D01*
X247301799Y-156024520D01*
X247444657Y-155976900D01*
X247539895Y-155976900D01*
X247682752Y-156024520D01*
X247730371Y-156072139D01*
X248111323Y-156072139D02*
X248158942Y-156024520D01*
X248254180Y-155976900D01*
X248492276Y-155976900D01*
X248587514Y-156024520D01*
X248635133Y-156072139D01*
X248682752Y-156167377D01*
X248682752Y-156262615D01*
X248635133Y-156405472D01*
X248063704Y-156976900D01*
X248682752Y-156976900D01*
%TO.C,R19*%
X83857142Y-172202380D02*
X83523809Y-171726190D01*
X83285714Y-172202380D02*
X83285714Y-171202380D01*
X83666666Y-171202380D01*
X83761904Y-171250000D01*
X83809523Y-171297619D01*
X83857142Y-171392857D01*
X83857142Y-171535714D01*
X83809523Y-171630952D01*
X83761904Y-171678571D01*
X83666666Y-171726190D01*
X83285714Y-171726190D01*
X84809523Y-172202380D02*
X84238095Y-172202380D01*
X84523809Y-172202380D02*
X84523809Y-171202380D01*
X84428571Y-171345238D01*
X84333333Y-171440476D01*
X84238095Y-171488095D01*
X85285714Y-172202380D02*
X85476190Y-172202380D01*
X85571428Y-172154761D01*
X85619047Y-172107142D01*
X85714285Y-171964285D01*
X85761904Y-171773809D01*
X85761904Y-171392857D01*
X85714285Y-171297619D01*
X85666666Y-171250000D01*
X85571428Y-171202380D01*
X85380952Y-171202380D01*
X85285714Y-171250000D01*
X85238095Y-171297619D01*
X85190476Y-171392857D01*
X85190476Y-171630952D01*
X85238095Y-171726190D01*
X85285714Y-171773809D01*
X85380952Y-171821428D01*
X85571428Y-171821428D01*
X85666666Y-171773809D01*
X85714285Y-171726190D01*
X85761904Y-171630952D01*
%TO.C,C20*%
X225254180Y-155131662D02*
X225206561Y-155179281D01*
X225063704Y-155226900D01*
X224968466Y-155226900D01*
X224825609Y-155179281D01*
X224730371Y-155084043D01*
X224682752Y-154988805D01*
X224635133Y-154798329D01*
X224635133Y-154655472D01*
X224682752Y-154464996D01*
X224730371Y-154369758D01*
X224825609Y-154274520D01*
X224968466Y-154226900D01*
X225063704Y-154226900D01*
X225206561Y-154274520D01*
X225254180Y-154322139D01*
X225635133Y-154322139D02*
X225682752Y-154274520D01*
X225777990Y-154226900D01*
X226016085Y-154226900D01*
X226111323Y-154274520D01*
X226158942Y-154322139D01*
X226206561Y-154417377D01*
X226206561Y-154512615D01*
X226158942Y-154655472D01*
X225587514Y-155226900D01*
X226206561Y-155226900D01*
X226825609Y-154226900D02*
X226920847Y-154226900D01*
X227016085Y-154274520D01*
X227063704Y-154322139D01*
X227111323Y-154417377D01*
X227158942Y-154607853D01*
X227158942Y-154845948D01*
X227111323Y-155036424D01*
X227063704Y-155131662D01*
X227016085Y-155179281D01*
X226920847Y-155226900D01*
X226825609Y-155226900D01*
X226730371Y-155179281D01*
X226682752Y-155131662D01*
X226635133Y-155036424D01*
X226587514Y-154845948D01*
X226587514Y-154607853D01*
X226635133Y-154417377D01*
X226682752Y-154322139D01*
X226730371Y-154274520D01*
X226825609Y-154226900D01*
%TO.C,D13*%
X33772498Y-38214285D02*
X32772498Y-38214285D01*
X32772498Y-37976190D01*
X32820118Y-37833333D01*
X32915356Y-37738095D01*
X33010594Y-37690476D01*
X33201070Y-37642857D01*
X33343927Y-37642857D01*
X33534403Y-37690476D01*
X33629641Y-37738095D01*
X33724879Y-37833333D01*
X33772498Y-37976190D01*
X33772498Y-38214285D01*
X33772498Y-36690476D02*
X33772498Y-37261904D01*
X33772498Y-36976190D02*
X32772498Y-36976190D01*
X32915356Y-37071428D01*
X33010594Y-37166666D01*
X33058213Y-37261904D01*
X32772498Y-36357142D02*
X32772498Y-35738095D01*
X33153451Y-36071428D01*
X33153451Y-35928571D01*
X33201070Y-35833333D01*
X33248689Y-35785714D01*
X33343927Y-35738095D01*
X33582022Y-35738095D01*
X33677260Y-35785714D01*
X33724879Y-35833333D01*
X33772498Y-35928571D01*
X33772498Y-36214285D01*
X33724879Y-36309523D01*
X33677260Y-36357142D01*
%TO.C,R42*%
X264404180Y-179976900D02*
X264070847Y-179500710D01*
X263832752Y-179976900D02*
X263832752Y-178976900D01*
X264213704Y-178976900D01*
X264308942Y-179024520D01*
X264356561Y-179072139D01*
X264404180Y-179167377D01*
X264404180Y-179310234D01*
X264356561Y-179405472D01*
X264308942Y-179453091D01*
X264213704Y-179500710D01*
X263832752Y-179500710D01*
X265261323Y-179310234D02*
X265261323Y-179976900D01*
X265023228Y-178929281D02*
X264785133Y-179643567D01*
X265404180Y-179643567D01*
X265737514Y-179072139D02*
X265785133Y-179024520D01*
X265880371Y-178976900D01*
X266118466Y-178976900D01*
X266213704Y-179024520D01*
X266261323Y-179072139D01*
X266308942Y-179167377D01*
X266308942Y-179262615D01*
X266261323Y-179405472D01*
X265689895Y-179976900D01*
X266308942Y-179976900D01*
%TO.C,U2*%
X71738095Y-145852380D02*
X71738095Y-146661904D01*
X71785714Y-146757142D01*
X71833333Y-146804761D01*
X71928571Y-146852380D01*
X72119047Y-146852380D01*
X72214285Y-146804761D01*
X72261904Y-146757142D01*
X72309523Y-146661904D01*
X72309523Y-145852380D01*
X72738095Y-145947619D02*
X72785714Y-145900000D01*
X72880952Y-145852380D01*
X73119047Y-145852380D01*
X73214285Y-145900000D01*
X73261904Y-145947619D01*
X73309523Y-146042857D01*
X73309523Y-146138095D01*
X73261904Y-146280952D01*
X72690476Y-146852380D01*
X73309523Y-146852380D01*
%TO.C,D1*%
X268358942Y-158476900D02*
X268358942Y-157476900D01*
X268597038Y-157476900D01*
X268739895Y-157524520D01*
X268835133Y-157619758D01*
X268882752Y-157714996D01*
X268930371Y-157905472D01*
X268930371Y-158048329D01*
X268882752Y-158238805D01*
X268835133Y-158334043D01*
X268739895Y-158429281D01*
X268597038Y-158476900D01*
X268358942Y-158476900D01*
X269882752Y-158476900D02*
X269311323Y-158476900D01*
X269597038Y-158476900D02*
X269597038Y-157476900D01*
X269501799Y-157619758D01*
X269406561Y-157714996D01*
X269311323Y-157762615D01*
%TO.C,R24*%
X102352260Y-45132380D02*
X102018927Y-44656190D01*
X101780832Y-45132380D02*
X101780832Y-44132380D01*
X102161784Y-44132380D01*
X102257022Y-44180000D01*
X102304641Y-44227619D01*
X102352260Y-44322857D01*
X102352260Y-44465714D01*
X102304641Y-44560952D01*
X102257022Y-44608571D01*
X102161784Y-44656190D01*
X101780832Y-44656190D01*
X102733213Y-44227619D02*
X102780832Y-44180000D01*
X102876070Y-44132380D01*
X103114165Y-44132380D01*
X103209403Y-44180000D01*
X103257022Y-44227619D01*
X103304641Y-44322857D01*
X103304641Y-44418095D01*
X103257022Y-44560952D01*
X102685594Y-45132380D01*
X103304641Y-45132380D01*
X104161784Y-44465714D02*
X104161784Y-45132380D01*
X103923689Y-44084761D02*
X103685594Y-44799047D01*
X104304641Y-44799047D01*
%TO.C,C5*%
X41583333Y-139037142D02*
X41535714Y-139084761D01*
X41392857Y-139132380D01*
X41297619Y-139132380D01*
X41154761Y-139084761D01*
X41059523Y-138989523D01*
X41011904Y-138894285D01*
X40964285Y-138703809D01*
X40964285Y-138560952D01*
X41011904Y-138370476D01*
X41059523Y-138275238D01*
X41154761Y-138180000D01*
X41297619Y-138132380D01*
X41392857Y-138132380D01*
X41535714Y-138180000D01*
X41583333Y-138227619D01*
X42488095Y-138132380D02*
X42011904Y-138132380D01*
X41964285Y-138608571D01*
X42011904Y-138560952D01*
X42107142Y-138513333D01*
X42345238Y-138513333D01*
X42440476Y-138560952D01*
X42488095Y-138608571D01*
X42535714Y-138703809D01*
X42535714Y-138941904D01*
X42488095Y-139037142D01*
X42440476Y-139084761D01*
X42345238Y-139132380D01*
X42107142Y-139132380D01*
X42011904Y-139084761D01*
X41964285Y-139037142D01*
%TO.C,R6*%
X251880371Y-159476900D02*
X251547038Y-159000710D01*
X251308942Y-159476900D02*
X251308942Y-158476900D01*
X251689895Y-158476900D01*
X251785133Y-158524520D01*
X251832752Y-158572139D01*
X251880371Y-158667377D01*
X251880371Y-158810234D01*
X251832752Y-158905472D01*
X251785133Y-158953091D01*
X251689895Y-159000710D01*
X251308942Y-159000710D01*
X252737514Y-158476900D02*
X252547038Y-158476900D01*
X252451799Y-158524520D01*
X252404180Y-158572139D01*
X252308942Y-158714996D01*
X252261323Y-158905472D01*
X252261323Y-159286424D01*
X252308942Y-159381662D01*
X252356561Y-159429281D01*
X252451799Y-159476900D01*
X252642276Y-159476900D01*
X252737514Y-159429281D01*
X252785133Y-159381662D01*
X252832752Y-159286424D01*
X252832752Y-159048329D01*
X252785133Y-158953091D01*
X252737514Y-158905472D01*
X252642276Y-158857853D01*
X252451799Y-158857853D01*
X252356561Y-158905472D01*
X252308942Y-158953091D01*
X252261323Y-159048329D01*
%TO.C,R24*%
X51607142Y-140882380D02*
X51273809Y-140406190D01*
X51035714Y-140882380D02*
X51035714Y-139882380D01*
X51416666Y-139882380D01*
X51511904Y-139930000D01*
X51559523Y-139977619D01*
X51607142Y-140072857D01*
X51607142Y-140215714D01*
X51559523Y-140310952D01*
X51511904Y-140358571D01*
X51416666Y-140406190D01*
X51035714Y-140406190D01*
X51988095Y-139977619D02*
X52035714Y-139930000D01*
X52130952Y-139882380D01*
X52369047Y-139882380D01*
X52464285Y-139930000D01*
X52511904Y-139977619D01*
X52559523Y-140072857D01*
X52559523Y-140168095D01*
X52511904Y-140310952D01*
X51940476Y-140882380D01*
X52559523Y-140882380D01*
X53416666Y-140215714D02*
X53416666Y-140882380D01*
X53178571Y-139834761D02*
X52940476Y-140549047D01*
X53559523Y-140549047D01*
%TO.C,C2*%
X84083333Y-149357142D02*
X84035714Y-149404761D01*
X83892857Y-149452380D01*
X83797619Y-149452380D01*
X83654761Y-149404761D01*
X83559523Y-149309523D01*
X83511904Y-149214285D01*
X83464285Y-149023809D01*
X83464285Y-148880952D01*
X83511904Y-148690476D01*
X83559523Y-148595238D01*
X83654761Y-148500000D01*
X83797619Y-148452380D01*
X83892857Y-148452380D01*
X84035714Y-148500000D01*
X84083333Y-148547619D01*
X84464285Y-148547619D02*
X84511904Y-148500000D01*
X84607142Y-148452380D01*
X84845238Y-148452380D01*
X84940476Y-148500000D01*
X84988095Y-148547619D01*
X85035714Y-148642857D01*
X85035714Y-148738095D01*
X84988095Y-148880952D01*
X84416666Y-149452380D01*
X85035714Y-149452380D01*
%TO.C,U4*%
X92808213Y-49352380D02*
X92808213Y-50161904D01*
X92855832Y-50257142D01*
X92903451Y-50304761D01*
X92998689Y-50352380D01*
X93189165Y-50352380D01*
X93284403Y-50304761D01*
X93332022Y-50257142D01*
X93379641Y-50161904D01*
X93379641Y-49352380D01*
X94284403Y-49685714D02*
X94284403Y-50352380D01*
X94046308Y-49304761D02*
X93808213Y-50019047D01*
X94427260Y-50019047D01*
%TO.C,C4*%
X170357142Y-55916666D02*
X170404761Y-55964285D01*
X170452380Y-56107142D01*
X170452380Y-56202380D01*
X170404761Y-56345238D01*
X170309523Y-56440476D01*
X170214285Y-56488095D01*
X170023809Y-56535714D01*
X169880952Y-56535714D01*
X169690476Y-56488095D01*
X169595238Y-56440476D01*
X169500000Y-56345238D01*
X169452380Y-56202380D01*
X169452380Y-56107142D01*
X169500000Y-55964285D01*
X169547619Y-55916666D01*
X169785714Y-55059523D02*
X170452380Y-55059523D01*
X169404761Y-55297619D02*
X170119047Y-55535714D01*
X170119047Y-54916666D01*
%TO.C,C18*%
X246654180Y-148541662D02*
X246606561Y-148589281D01*
X246463704Y-148636900D01*
X246368466Y-148636900D01*
X246225609Y-148589281D01*
X246130371Y-148494043D01*
X246082752Y-148398805D01*
X246035133Y-148208329D01*
X246035133Y-148065472D01*
X246082752Y-147874996D01*
X246130371Y-147779758D01*
X246225609Y-147684520D01*
X246368466Y-147636900D01*
X246463704Y-147636900D01*
X246606561Y-147684520D01*
X246654180Y-147732139D01*
X247606561Y-148636900D02*
X247035133Y-148636900D01*
X247320847Y-148636900D02*
X247320847Y-147636900D01*
X247225609Y-147779758D01*
X247130371Y-147874996D01*
X247035133Y-147922615D01*
X248177990Y-148065472D02*
X248082752Y-148017853D01*
X248035133Y-147970234D01*
X247987514Y-147874996D01*
X247987514Y-147827377D01*
X248035133Y-147732139D01*
X248082752Y-147684520D01*
X248177990Y-147636900D01*
X248368466Y-147636900D01*
X248463704Y-147684520D01*
X248511323Y-147732139D01*
X248558942Y-147827377D01*
X248558942Y-147874996D01*
X248511323Y-147970234D01*
X248463704Y-148017853D01*
X248368466Y-148065472D01*
X248177990Y-148065472D01*
X248082752Y-148113091D01*
X248035133Y-148160710D01*
X247987514Y-148255948D01*
X247987514Y-148446424D01*
X248035133Y-148541662D01*
X248082752Y-148589281D01*
X248177990Y-148636900D01*
X248368466Y-148636900D01*
X248463704Y-148589281D01*
X248511323Y-148541662D01*
X248558942Y-148446424D01*
X248558942Y-148255948D01*
X248511323Y-148160710D01*
X248463704Y-148113091D01*
X248368466Y-148065472D01*
%TO.C,R25*%
X80607142Y-138952380D02*
X80273809Y-138476190D01*
X80035714Y-138952380D02*
X80035714Y-137952380D01*
X80416666Y-137952380D01*
X80511904Y-138000000D01*
X80559523Y-138047619D01*
X80607142Y-138142857D01*
X80607142Y-138285714D01*
X80559523Y-138380952D01*
X80511904Y-138428571D01*
X80416666Y-138476190D01*
X80035714Y-138476190D01*
X80988095Y-138047619D02*
X81035714Y-138000000D01*
X81130952Y-137952380D01*
X81369047Y-137952380D01*
X81464285Y-138000000D01*
X81511904Y-138047619D01*
X81559523Y-138142857D01*
X81559523Y-138238095D01*
X81511904Y-138380952D01*
X80940476Y-138952380D01*
X81559523Y-138952380D01*
X82464285Y-137952380D02*
X81988095Y-137952380D01*
X81940476Y-138428571D01*
X81988095Y-138380952D01*
X82083333Y-138333333D01*
X82321428Y-138333333D01*
X82416666Y-138380952D01*
X82464285Y-138428571D01*
X82511904Y-138523809D01*
X82511904Y-138761904D01*
X82464285Y-138857142D01*
X82416666Y-138904761D01*
X82321428Y-138952380D01*
X82083333Y-138952380D01*
X81988095Y-138904761D01*
X81940476Y-138857142D01*
%TO.C,R6*%
X181333333Y-46952380D02*
X181000000Y-46476190D01*
X180761904Y-46952380D02*
X180761904Y-45952380D01*
X181142857Y-45952380D01*
X181238095Y-46000000D01*
X181285714Y-46047619D01*
X181333333Y-46142857D01*
X181333333Y-46285714D01*
X181285714Y-46380952D01*
X181238095Y-46428571D01*
X181142857Y-46476190D01*
X180761904Y-46476190D01*
X182190476Y-45952380D02*
X182000000Y-45952380D01*
X181904761Y-46000000D01*
X181857142Y-46047619D01*
X181761904Y-46190476D01*
X181714285Y-46380952D01*
X181714285Y-46761904D01*
X181761904Y-46857142D01*
X181809523Y-46904761D01*
X181904761Y-46952380D01*
X182095238Y-46952380D01*
X182190476Y-46904761D01*
X182238095Y-46857142D01*
X182285714Y-46761904D01*
X182285714Y-46523809D01*
X182238095Y-46428571D01*
X182190476Y-46380952D01*
X182095238Y-46333333D01*
X181904761Y-46333333D01*
X181809523Y-46380952D01*
X181761904Y-46428571D01*
X181714285Y-46523809D01*
%TO.C,R18*%
X105677260Y-57952380D02*
X105343927Y-57476190D01*
X105105832Y-57952380D02*
X105105832Y-56952380D01*
X105486784Y-56952380D01*
X105582022Y-57000000D01*
X105629641Y-57047619D01*
X105677260Y-57142857D01*
X105677260Y-57285714D01*
X105629641Y-57380952D01*
X105582022Y-57428571D01*
X105486784Y-57476190D01*
X105105832Y-57476190D01*
X106629641Y-57952380D02*
X106058213Y-57952380D01*
X106343927Y-57952380D02*
X106343927Y-56952380D01*
X106248689Y-57095238D01*
X106153451Y-57190476D01*
X106058213Y-57238095D01*
X107201070Y-57380952D02*
X107105832Y-57333333D01*
X107058213Y-57285714D01*
X107010594Y-57190476D01*
X107010594Y-57142857D01*
X107058213Y-57047619D01*
X107105832Y-57000000D01*
X107201070Y-56952380D01*
X107391546Y-56952380D01*
X107486784Y-57000000D01*
X107534403Y-57047619D01*
X107582022Y-57142857D01*
X107582022Y-57190476D01*
X107534403Y-57285714D01*
X107486784Y-57333333D01*
X107391546Y-57380952D01*
X107201070Y-57380952D01*
X107105832Y-57428571D01*
X107058213Y-57476190D01*
X107010594Y-57571428D01*
X107010594Y-57761904D01*
X107058213Y-57857142D01*
X107105832Y-57904761D01*
X107201070Y-57952380D01*
X107391546Y-57952380D01*
X107486784Y-57904761D01*
X107534403Y-57857142D01*
X107582022Y-57761904D01*
X107582022Y-57571428D01*
X107534403Y-57476190D01*
X107486784Y-57428571D01*
X107391546Y-57380952D01*
%TO.C,R17*%
X105427260Y-40202380D02*
X105093927Y-39726190D01*
X104855832Y-40202380D02*
X104855832Y-39202380D01*
X105236784Y-39202380D01*
X105332022Y-39250000D01*
X105379641Y-39297619D01*
X105427260Y-39392857D01*
X105427260Y-39535714D01*
X105379641Y-39630952D01*
X105332022Y-39678571D01*
X105236784Y-39726190D01*
X104855832Y-39726190D01*
X106379641Y-40202380D02*
X105808213Y-40202380D01*
X106093927Y-40202380D02*
X106093927Y-39202380D01*
X105998689Y-39345238D01*
X105903451Y-39440476D01*
X105808213Y-39488095D01*
X106712975Y-39202380D02*
X107379641Y-39202380D01*
X106951070Y-40202380D01*
%TO.C,R23*%
X105427260Y-41952380D02*
X105093927Y-41476190D01*
X104855832Y-41952380D02*
X104855832Y-40952380D01*
X105236784Y-40952380D01*
X105332022Y-41000000D01*
X105379641Y-41047619D01*
X105427260Y-41142857D01*
X105427260Y-41285714D01*
X105379641Y-41380952D01*
X105332022Y-41428571D01*
X105236784Y-41476190D01*
X104855832Y-41476190D01*
X105808213Y-41047619D02*
X105855832Y-41000000D01*
X105951070Y-40952380D01*
X106189165Y-40952380D01*
X106284403Y-41000000D01*
X106332022Y-41047619D01*
X106379641Y-41142857D01*
X106379641Y-41238095D01*
X106332022Y-41380952D01*
X105760594Y-41952380D01*
X106379641Y-41952380D01*
X106712975Y-40952380D02*
X107332022Y-40952380D01*
X106998689Y-41333333D01*
X107141546Y-41333333D01*
X107236784Y-41380952D01*
X107284403Y-41428571D01*
X107332022Y-41523809D01*
X107332022Y-41761904D01*
X107284403Y-41857142D01*
X107236784Y-41904761D01*
X107141546Y-41952380D01*
X106855832Y-41952380D01*
X106760594Y-41904761D01*
X106712975Y-41857142D01*
%TO.C,C21*%
X256724180Y-170917377D02*
X256771799Y-170964996D01*
X256819418Y-171107853D01*
X256819418Y-171203091D01*
X256771799Y-171345948D01*
X256676561Y-171441186D01*
X256581323Y-171488805D01*
X256390847Y-171536424D01*
X256247990Y-171536424D01*
X256057514Y-171488805D01*
X255962276Y-171441186D01*
X255867038Y-171345948D01*
X255819418Y-171203091D01*
X255819418Y-171107853D01*
X255867038Y-170964996D01*
X255914657Y-170917377D01*
X255914657Y-170536424D02*
X255867038Y-170488805D01*
X255819418Y-170393567D01*
X255819418Y-170155472D01*
X255867038Y-170060234D01*
X255914657Y-170012615D01*
X256009895Y-169964996D01*
X256105133Y-169964996D01*
X256247990Y-170012615D01*
X256819418Y-170584043D01*
X256819418Y-169964996D01*
X256819418Y-169012615D02*
X256819418Y-169584043D01*
X256819418Y-169298329D02*
X255819418Y-169298329D01*
X255962276Y-169393567D01*
X256057514Y-169488805D01*
X256105133Y-169584043D01*
%TO.C,C18*%
X105677260Y-54107142D02*
X105629641Y-54154761D01*
X105486784Y-54202380D01*
X105391546Y-54202380D01*
X105248689Y-54154761D01*
X105153451Y-54059523D01*
X105105832Y-53964285D01*
X105058213Y-53773809D01*
X105058213Y-53630952D01*
X105105832Y-53440476D01*
X105153451Y-53345238D01*
X105248689Y-53250000D01*
X105391546Y-53202380D01*
X105486784Y-53202380D01*
X105629641Y-53250000D01*
X105677260Y-53297619D01*
X106629641Y-54202380D02*
X106058213Y-54202380D01*
X106343927Y-54202380D02*
X106343927Y-53202380D01*
X106248689Y-53345238D01*
X106153451Y-53440476D01*
X106058213Y-53488095D01*
X107201070Y-53630952D02*
X107105832Y-53583333D01*
X107058213Y-53535714D01*
X107010594Y-53440476D01*
X107010594Y-53392857D01*
X107058213Y-53297619D01*
X107105832Y-53250000D01*
X107201070Y-53202380D01*
X107391546Y-53202380D01*
X107486784Y-53250000D01*
X107534403Y-53297619D01*
X107582022Y-53392857D01*
X107582022Y-53440476D01*
X107534403Y-53535714D01*
X107486784Y-53583333D01*
X107391546Y-53630952D01*
X107201070Y-53630952D01*
X107105832Y-53678571D01*
X107058213Y-53726190D01*
X107010594Y-53821428D01*
X107010594Y-54011904D01*
X107058213Y-54107142D01*
X107105832Y-54154761D01*
X107201070Y-54202380D01*
X107391546Y-54202380D01*
X107486784Y-54154761D01*
X107534403Y-54107142D01*
X107582022Y-54011904D01*
X107582022Y-53821428D01*
X107534403Y-53726190D01*
X107486784Y-53678571D01*
X107391546Y-53630952D01*
%TO.C,R10*%
X274454180Y-138796900D02*
X274120847Y-138320710D01*
X273882752Y-138796900D02*
X273882752Y-137796900D01*
X274263704Y-137796900D01*
X274358942Y-137844520D01*
X274406561Y-137892139D01*
X274454180Y-137987377D01*
X274454180Y-138130234D01*
X274406561Y-138225472D01*
X274358942Y-138273091D01*
X274263704Y-138320710D01*
X273882752Y-138320710D01*
X275406561Y-138796900D02*
X274835133Y-138796900D01*
X275120847Y-138796900D02*
X275120847Y-137796900D01*
X275025609Y-137939758D01*
X274930371Y-138034996D01*
X274835133Y-138082615D01*
X276025609Y-137796900D02*
X276120847Y-137796900D01*
X276216085Y-137844520D01*
X276263704Y-137892139D01*
X276311323Y-137987377D01*
X276358942Y-138177853D01*
X276358942Y-138415948D01*
X276311323Y-138606424D01*
X276263704Y-138701662D01*
X276216085Y-138749281D01*
X276120847Y-138796900D01*
X276025609Y-138796900D01*
X275930371Y-138749281D01*
X275882752Y-138701662D01*
X275835133Y-138606424D01*
X275787514Y-138415948D01*
X275787514Y-138177853D01*
X275835133Y-137987377D01*
X275882752Y-137892139D01*
X275930371Y-137844520D01*
X276025609Y-137796900D01*
%TO.C,R5*%
X181333333Y-44952380D02*
X181000000Y-44476190D01*
X180761904Y-44952380D02*
X180761904Y-43952380D01*
X181142857Y-43952380D01*
X181238095Y-44000000D01*
X181285714Y-44047619D01*
X181333333Y-44142857D01*
X181333333Y-44285714D01*
X181285714Y-44380952D01*
X181238095Y-44428571D01*
X181142857Y-44476190D01*
X180761904Y-44476190D01*
X182238095Y-43952380D02*
X181761904Y-43952380D01*
X181714285Y-44428571D01*
X181761904Y-44380952D01*
X181857142Y-44333333D01*
X182095238Y-44333333D01*
X182190476Y-44380952D01*
X182238095Y-44428571D01*
X182285714Y-44523809D01*
X182285714Y-44761904D01*
X182238095Y-44857142D01*
X182190476Y-44904761D01*
X182095238Y-44952380D01*
X181857142Y-44952380D01*
X181761904Y-44904761D01*
X181714285Y-44857142D01*
%TO.C,R18*%
X80607142Y-153202380D02*
X80273809Y-152726190D01*
X80035714Y-153202380D02*
X80035714Y-152202380D01*
X80416666Y-152202380D01*
X80511904Y-152250000D01*
X80559523Y-152297619D01*
X80607142Y-152392857D01*
X80607142Y-152535714D01*
X80559523Y-152630952D01*
X80511904Y-152678571D01*
X80416666Y-152726190D01*
X80035714Y-152726190D01*
X81559523Y-153202380D02*
X80988095Y-153202380D01*
X81273809Y-153202380D02*
X81273809Y-152202380D01*
X81178571Y-152345238D01*
X81083333Y-152440476D01*
X80988095Y-152488095D01*
X82130952Y-152630952D02*
X82035714Y-152583333D01*
X81988095Y-152535714D01*
X81940476Y-152440476D01*
X81940476Y-152392857D01*
X81988095Y-152297619D01*
X82035714Y-152250000D01*
X82130952Y-152202380D01*
X82321428Y-152202380D01*
X82416666Y-152250000D01*
X82464285Y-152297619D01*
X82511904Y-152392857D01*
X82511904Y-152440476D01*
X82464285Y-152535714D01*
X82416666Y-152583333D01*
X82321428Y-152630952D01*
X82130952Y-152630952D01*
X82035714Y-152678571D01*
X81988095Y-152726190D01*
X81940476Y-152821428D01*
X81940476Y-153011904D01*
X81988095Y-153107142D01*
X82035714Y-153154761D01*
X82130952Y-153202380D01*
X82321428Y-153202380D01*
X82416666Y-153154761D01*
X82464285Y-153107142D01*
X82511904Y-153011904D01*
X82511904Y-152821428D01*
X82464285Y-152726190D01*
X82416666Y-152678571D01*
X82321428Y-152630952D01*
%TO.C,R22*%
X105677260Y-72952380D02*
X105343927Y-72476190D01*
X105105832Y-72952380D02*
X105105832Y-71952380D01*
X105486784Y-71952380D01*
X105582022Y-72000000D01*
X105629641Y-72047619D01*
X105677260Y-72142857D01*
X105677260Y-72285714D01*
X105629641Y-72380952D01*
X105582022Y-72428571D01*
X105486784Y-72476190D01*
X105105832Y-72476190D01*
X106058213Y-72047619D02*
X106105832Y-72000000D01*
X106201070Y-71952380D01*
X106439165Y-71952380D01*
X106534403Y-72000000D01*
X106582022Y-72047619D01*
X106629641Y-72142857D01*
X106629641Y-72238095D01*
X106582022Y-72380952D01*
X106010594Y-72952380D01*
X106629641Y-72952380D01*
X107010594Y-72047619D02*
X107058213Y-72000000D01*
X107153451Y-71952380D01*
X107391546Y-71952380D01*
X107486784Y-72000000D01*
X107534403Y-72047619D01*
X107582022Y-72142857D01*
X107582022Y-72238095D01*
X107534403Y-72380952D01*
X106962975Y-72952380D01*
X107582022Y-72952380D01*
%TO.C,R3*%
X81083333Y-143382380D02*
X80750000Y-142906190D01*
X80511904Y-143382380D02*
X80511904Y-142382380D01*
X80892857Y-142382380D01*
X80988095Y-142430000D01*
X81035714Y-142477619D01*
X81083333Y-142572857D01*
X81083333Y-142715714D01*
X81035714Y-142810952D01*
X80988095Y-142858571D01*
X80892857Y-142906190D01*
X80511904Y-142906190D01*
X81416666Y-142382380D02*
X82035714Y-142382380D01*
X81702380Y-142763333D01*
X81845238Y-142763333D01*
X81940476Y-142810952D01*
X81988095Y-142858571D01*
X82035714Y-142953809D01*
X82035714Y-143191904D01*
X81988095Y-143287142D01*
X81940476Y-143334761D01*
X81845238Y-143382380D01*
X81559523Y-143382380D01*
X81464285Y-143334761D01*
X81416666Y-143287142D01*
%TO.C,C6*%
X41583333Y-133107142D02*
X41535714Y-133154761D01*
X41392857Y-133202380D01*
X41297619Y-133202380D01*
X41154761Y-133154761D01*
X41059523Y-133059523D01*
X41011904Y-132964285D01*
X40964285Y-132773809D01*
X40964285Y-132630952D01*
X41011904Y-132440476D01*
X41059523Y-132345238D01*
X41154761Y-132250000D01*
X41297619Y-132202380D01*
X41392857Y-132202380D01*
X41535714Y-132250000D01*
X41583333Y-132297619D01*
X42440476Y-132202380D02*
X42250000Y-132202380D01*
X42154761Y-132250000D01*
X42107142Y-132297619D01*
X42011904Y-132440476D01*
X41964285Y-132630952D01*
X41964285Y-133011904D01*
X42011904Y-133107142D01*
X42059523Y-133154761D01*
X42154761Y-133202380D01*
X42345238Y-133202380D01*
X42440476Y-133154761D01*
X42488095Y-133107142D01*
X42535714Y-133011904D01*
X42535714Y-132773809D01*
X42488095Y-132678571D01*
X42440476Y-132630952D01*
X42345238Y-132583333D01*
X42154761Y-132583333D01*
X42059523Y-132630952D01*
X42011904Y-132678571D01*
X41964285Y-132773809D01*
%TO.C,C7*%
X49787142Y-140416666D02*
X49834761Y-140464285D01*
X49882380Y-140607142D01*
X49882380Y-140702380D01*
X49834761Y-140845238D01*
X49739523Y-140940476D01*
X49644285Y-140988095D01*
X49453809Y-141035714D01*
X49310952Y-141035714D01*
X49120476Y-140988095D01*
X49025238Y-140940476D01*
X48930000Y-140845238D01*
X48882380Y-140702380D01*
X48882380Y-140607142D01*
X48930000Y-140464285D01*
X48977619Y-140416666D01*
X48882380Y-140083333D02*
X48882380Y-139416666D01*
X49882380Y-139845238D01*
%TO.C,C10*%
X265654180Y-159067377D02*
X265701799Y-159114996D01*
X265749418Y-159257853D01*
X265749418Y-159353091D01*
X265701799Y-159495948D01*
X265606561Y-159591186D01*
X265511323Y-159638805D01*
X265320847Y-159686424D01*
X265177990Y-159686424D01*
X264987514Y-159638805D01*
X264892276Y-159591186D01*
X264797038Y-159495948D01*
X264749418Y-159353091D01*
X264749418Y-159257853D01*
X264797038Y-159114996D01*
X264844657Y-159067377D01*
X265749418Y-158114996D02*
X265749418Y-158686424D01*
X265749418Y-158400710D02*
X264749418Y-158400710D01*
X264892276Y-158495948D01*
X264987514Y-158591186D01*
X265035133Y-158686424D01*
X264749418Y-157495948D02*
X264749418Y-157400710D01*
X264797038Y-157305472D01*
X264844657Y-157257853D01*
X264939895Y-157210234D01*
X265130371Y-157162615D01*
X265368466Y-157162615D01*
X265558942Y-157210234D01*
X265654180Y-157257853D01*
X265701799Y-157305472D01*
X265749418Y-157400710D01*
X265749418Y-157495948D01*
X265701799Y-157591186D01*
X265654180Y-157638805D01*
X265558942Y-157686424D01*
X265368466Y-157734043D01*
X265130371Y-157734043D01*
X264939895Y-157686424D01*
X264844657Y-157638805D01*
X264797038Y-157591186D01*
X264749418Y-157495948D01*
%TO.C,D4*%
X168652380Y-66238095D02*
X167652380Y-66238095D01*
X167652380Y-66000000D01*
X167700000Y-65857142D01*
X167795238Y-65761904D01*
X167890476Y-65714285D01*
X168080952Y-65666666D01*
X168223809Y-65666666D01*
X168414285Y-65714285D01*
X168509523Y-65761904D01*
X168604761Y-65857142D01*
X168652380Y-66000000D01*
X168652380Y-66238095D01*
X167985714Y-64809523D02*
X168652380Y-64809523D01*
X167604761Y-65047619D02*
X168319047Y-65285714D01*
X168319047Y-64666666D01*
%TO.C,C15*%
X37997260Y-38642857D02*
X38044879Y-38690476D01*
X38092498Y-38833333D01*
X38092498Y-38928571D01*
X38044879Y-39071428D01*
X37949641Y-39166666D01*
X37854403Y-39214285D01*
X37663927Y-39261904D01*
X37521070Y-39261904D01*
X37330594Y-39214285D01*
X37235356Y-39166666D01*
X37140118Y-39071428D01*
X37092498Y-38928571D01*
X37092498Y-38833333D01*
X37140118Y-38690476D01*
X37187737Y-38642857D01*
X38092498Y-37690476D02*
X38092498Y-38261904D01*
X38092498Y-37976190D02*
X37092498Y-37976190D01*
X37235356Y-38071428D01*
X37330594Y-38166666D01*
X37378213Y-38261904D01*
X37092498Y-36785714D02*
X37092498Y-37261904D01*
X37568689Y-37309523D01*
X37521070Y-37261904D01*
X37473451Y-37166666D01*
X37473451Y-36928571D01*
X37521070Y-36833333D01*
X37568689Y-36785714D01*
X37663927Y-36738095D01*
X37902022Y-36738095D01*
X37997260Y-36785714D01*
X38044879Y-36833333D01*
X38092498Y-36928571D01*
X38092498Y-37166666D01*
X38044879Y-37261904D01*
X37997260Y-37309523D01*
%TO.C,R25*%
X102352260Y-76132380D02*
X102018927Y-75656190D01*
X101780832Y-76132380D02*
X101780832Y-75132380D01*
X102161784Y-75132380D01*
X102257022Y-75180000D01*
X102304641Y-75227619D01*
X102352260Y-75322857D01*
X102352260Y-75465714D01*
X102304641Y-75560952D01*
X102257022Y-75608571D01*
X102161784Y-75656190D01*
X101780832Y-75656190D01*
X102733213Y-75227619D02*
X102780832Y-75180000D01*
X102876070Y-75132380D01*
X103114165Y-75132380D01*
X103209403Y-75180000D01*
X103257022Y-75227619D01*
X103304641Y-75322857D01*
X103304641Y-75418095D01*
X103257022Y-75560952D01*
X102685594Y-76132380D01*
X103304641Y-76132380D01*
X104209403Y-75132380D02*
X103733213Y-75132380D01*
X103685594Y-75608571D01*
X103733213Y-75560952D01*
X103828451Y-75513333D01*
X104066546Y-75513333D01*
X104161784Y-75560952D01*
X104209403Y-75608571D01*
X104257022Y-75703809D01*
X104257022Y-75941904D01*
X104209403Y-76037142D01*
X104161784Y-76084761D01*
X104066546Y-76132380D01*
X103828451Y-76132380D01*
X103733213Y-76084761D01*
X103685594Y-76037142D01*
%TO.C,C3*%
X81333333Y-161677142D02*
X81285714Y-161724761D01*
X81142857Y-161772380D01*
X81047619Y-161772380D01*
X80904761Y-161724761D01*
X80809523Y-161629523D01*
X80761904Y-161534285D01*
X80714285Y-161343809D01*
X80714285Y-161200952D01*
X80761904Y-161010476D01*
X80809523Y-160915238D01*
X80904761Y-160820000D01*
X81047619Y-160772380D01*
X81142857Y-160772380D01*
X81285714Y-160820000D01*
X81333333Y-160867619D01*
X81666666Y-160772380D02*
X82285714Y-160772380D01*
X81952380Y-161153333D01*
X82095238Y-161153333D01*
X82190476Y-161200952D01*
X82238095Y-161248571D01*
X82285714Y-161343809D01*
X82285714Y-161581904D01*
X82238095Y-161677142D01*
X82190476Y-161724761D01*
X82095238Y-161772380D01*
X81809523Y-161772380D01*
X81714285Y-161724761D01*
X81666666Y-161677142D01*
%TO.C,C7*%
X163333333Y-47537142D02*
X163285714Y-47584761D01*
X163142857Y-47632380D01*
X163047619Y-47632380D01*
X162904761Y-47584761D01*
X162809523Y-47489523D01*
X162761904Y-47394285D01*
X162714285Y-47203809D01*
X162714285Y-47060952D01*
X162761904Y-46870476D01*
X162809523Y-46775238D01*
X162904761Y-46680000D01*
X163047619Y-46632380D01*
X163142857Y-46632380D01*
X163285714Y-46680000D01*
X163333333Y-46727619D01*
X163666666Y-46632380D02*
X164333333Y-46632380D01*
X163904761Y-47632380D01*
%TO.C,R43*%
X264404180Y-184656900D02*
X264070847Y-184180710D01*
X263832752Y-184656900D02*
X263832752Y-183656900D01*
X264213704Y-183656900D01*
X264308942Y-183704520D01*
X264356561Y-183752139D01*
X264404180Y-183847377D01*
X264404180Y-183990234D01*
X264356561Y-184085472D01*
X264308942Y-184133091D01*
X264213704Y-184180710D01*
X263832752Y-184180710D01*
X265261323Y-183990234D02*
X265261323Y-184656900D01*
X265023228Y-183609281D02*
X264785133Y-184323567D01*
X265404180Y-184323567D01*
X265689895Y-183656900D02*
X266308942Y-183656900D01*
X265975609Y-184037853D01*
X266118466Y-184037853D01*
X266213704Y-184085472D01*
X266261323Y-184133091D01*
X266308942Y-184228329D01*
X266308942Y-184466424D01*
X266261323Y-184561662D01*
X266213704Y-184609281D01*
X266118466Y-184656900D01*
X265832752Y-184656900D01*
X265737514Y-184609281D01*
X265689895Y-184561662D01*
%TO.C,R2*%
X272579418Y-162991186D02*
X272103228Y-163324520D01*
X272579418Y-163562615D02*
X271579418Y-163562615D01*
X271579418Y-163181662D01*
X271627038Y-163086424D01*
X271674657Y-163038805D01*
X271769895Y-162991186D01*
X271912752Y-162991186D01*
X272007990Y-163038805D01*
X272055609Y-163086424D01*
X272103228Y-163181662D01*
X272103228Y-163562615D01*
X271674657Y-162610234D02*
X271627038Y-162562615D01*
X271579418Y-162467377D01*
X271579418Y-162229281D01*
X271627038Y-162134043D01*
X271674657Y-162086424D01*
X271769895Y-162038805D01*
X271865133Y-162038805D01*
X272007990Y-162086424D01*
X272579418Y-162657853D01*
X272579418Y-162038805D01*
%TO.C,R3*%
X276630371Y-163296900D02*
X276297038Y-162820710D01*
X276058942Y-163296900D02*
X276058942Y-162296900D01*
X276439895Y-162296900D01*
X276535133Y-162344520D01*
X276582752Y-162392139D01*
X276630371Y-162487377D01*
X276630371Y-162630234D01*
X276582752Y-162725472D01*
X276535133Y-162773091D01*
X276439895Y-162820710D01*
X276058942Y-162820710D01*
X276963704Y-162296900D02*
X277582752Y-162296900D01*
X277249418Y-162677853D01*
X277392276Y-162677853D01*
X277487514Y-162725472D01*
X277535133Y-162773091D01*
X277582752Y-162868329D01*
X277582752Y-163106424D01*
X277535133Y-163201662D01*
X277487514Y-163249281D01*
X277392276Y-163296900D01*
X277106561Y-163296900D01*
X277011323Y-163249281D01*
X276963704Y-163201662D01*
%TO.C,R9*%
X260130371Y-148906900D02*
X259797038Y-148430710D01*
X259558942Y-148906900D02*
X259558942Y-147906900D01*
X259939895Y-147906900D01*
X260035133Y-147954520D01*
X260082752Y-148002139D01*
X260130371Y-148097377D01*
X260130371Y-148240234D01*
X260082752Y-148335472D01*
X260035133Y-148383091D01*
X259939895Y-148430710D01*
X259558942Y-148430710D01*
X260606561Y-148906900D02*
X260797038Y-148906900D01*
X260892276Y-148859281D01*
X260939895Y-148811662D01*
X261035133Y-148668805D01*
X261082752Y-148478329D01*
X261082752Y-148097377D01*
X261035133Y-148002139D01*
X260987514Y-147954520D01*
X260892276Y-147906900D01*
X260701799Y-147906900D01*
X260606561Y-147954520D01*
X260558942Y-148002139D01*
X260511323Y-148097377D01*
X260511323Y-148335472D01*
X260558942Y-148430710D01*
X260606561Y-148478329D01*
X260701799Y-148525948D01*
X260892276Y-148525948D01*
X260987514Y-148478329D01*
X261035133Y-148430710D01*
X261082752Y-148335472D01*
%TO.C,C19*%
X222094180Y-159467377D02*
X222141799Y-159514996D01*
X222189418Y-159657853D01*
X222189418Y-159753091D01*
X222141799Y-159895948D01*
X222046561Y-159991186D01*
X221951323Y-160038805D01*
X221760847Y-160086424D01*
X221617990Y-160086424D01*
X221427514Y-160038805D01*
X221332276Y-159991186D01*
X221237038Y-159895948D01*
X221189418Y-159753091D01*
X221189418Y-159657853D01*
X221237038Y-159514996D01*
X221284657Y-159467377D01*
X222189418Y-158514996D02*
X222189418Y-159086424D01*
X222189418Y-158800710D02*
X221189418Y-158800710D01*
X221332276Y-158895948D01*
X221427514Y-158991186D01*
X221475133Y-159086424D01*
X222189418Y-158038805D02*
X222189418Y-157848329D01*
X222141799Y-157753091D01*
X222094180Y-157705472D01*
X221951323Y-157610234D01*
X221760847Y-157562615D01*
X221379895Y-157562615D01*
X221284657Y-157610234D01*
X221237038Y-157657853D01*
X221189418Y-157753091D01*
X221189418Y-157943567D01*
X221237038Y-158038805D01*
X221284657Y-158086424D01*
X221379895Y-158134043D01*
X221617990Y-158134043D01*
X221713228Y-158086424D01*
X221760847Y-158038805D01*
X221808466Y-157943567D01*
X221808466Y-157753091D01*
X221760847Y-157657853D01*
X221713228Y-157610234D01*
X221617990Y-157562615D01*
%TO.C,U4*%
X71738095Y-161852380D02*
X71738095Y-162661904D01*
X71785714Y-162757142D01*
X71833333Y-162804761D01*
X71928571Y-162852380D01*
X72119047Y-162852380D01*
X72214285Y-162804761D01*
X72261904Y-162757142D01*
X72309523Y-162661904D01*
X72309523Y-161852380D01*
X73214285Y-162185714D02*
X73214285Y-162852380D01*
X72976190Y-161804761D02*
X72738095Y-162519047D01*
X73357142Y-162519047D01*
%TO.C,U1*%
X71738095Y-129852380D02*
X71738095Y-130661904D01*
X71785714Y-130757142D01*
X71833333Y-130804761D01*
X71928571Y-130852380D01*
X72119047Y-130852380D01*
X72214285Y-130804761D01*
X72261904Y-130757142D01*
X72309523Y-130661904D01*
X72309523Y-129852380D01*
X73309523Y-130852380D02*
X72738095Y-130852380D01*
X73023809Y-130852380D02*
X73023809Y-129852380D01*
X72928571Y-129995238D01*
X72833333Y-130090476D01*
X72738095Y-130138095D01*
%TO.C,R7*%
X181333333Y-51882380D02*
X181000000Y-51406190D01*
X180761904Y-51882380D02*
X180761904Y-50882380D01*
X181142857Y-50882380D01*
X181238095Y-50930000D01*
X181285714Y-50977619D01*
X181333333Y-51072857D01*
X181333333Y-51215714D01*
X181285714Y-51310952D01*
X181238095Y-51358571D01*
X181142857Y-51406190D01*
X180761904Y-51406190D01*
X181666666Y-50882380D02*
X182333333Y-50882380D01*
X181904761Y-51882380D01*
%TO.C,C17*%
X102352260Y-33977142D02*
X102304641Y-34024761D01*
X102161784Y-34072380D01*
X102066546Y-34072380D01*
X101923689Y-34024761D01*
X101828451Y-33929523D01*
X101780832Y-33834285D01*
X101733213Y-33643809D01*
X101733213Y-33500952D01*
X101780832Y-33310476D01*
X101828451Y-33215238D01*
X101923689Y-33120000D01*
X102066546Y-33072380D01*
X102161784Y-33072380D01*
X102304641Y-33120000D01*
X102352260Y-33167619D01*
X103304641Y-34072380D02*
X102733213Y-34072380D01*
X103018927Y-34072380D02*
X103018927Y-33072380D01*
X102923689Y-33215238D01*
X102828451Y-33310476D01*
X102733213Y-33358095D01*
X103637975Y-33072380D02*
X104304641Y-33072380D01*
X103876070Y-34072380D01*
%TO.C,U2*%
X171738095Y-38352380D02*
X171738095Y-39161904D01*
X171785714Y-39257142D01*
X171833333Y-39304761D01*
X171928571Y-39352380D01*
X172119047Y-39352380D01*
X172214285Y-39304761D01*
X172261904Y-39257142D01*
X172309523Y-39161904D01*
X172309523Y-38352380D01*
X172738095Y-38447619D02*
X172785714Y-38400000D01*
X172880952Y-38352380D01*
X173119047Y-38352380D01*
X173214285Y-38400000D01*
X173261904Y-38447619D01*
X173309523Y-38542857D01*
X173309523Y-38638095D01*
X173261904Y-38780952D01*
X172690476Y-39352380D01*
X173309523Y-39352380D01*
%TO.C,C21*%
X102352260Y-64977142D02*
X102304641Y-65024761D01*
X102161784Y-65072380D01*
X102066546Y-65072380D01*
X101923689Y-65024761D01*
X101828451Y-64929523D01*
X101780832Y-64834285D01*
X101733213Y-64643809D01*
X101733213Y-64500952D01*
X101780832Y-64310476D01*
X101828451Y-64215238D01*
X101923689Y-64120000D01*
X102066546Y-64072380D01*
X102161784Y-64072380D01*
X102304641Y-64120000D01*
X102352260Y-64167619D01*
X102733213Y-64167619D02*
X102780832Y-64120000D01*
X102876070Y-64072380D01*
X103114165Y-64072380D01*
X103209403Y-64120000D01*
X103257022Y-64167619D01*
X103304641Y-64262857D01*
X103304641Y-64358095D01*
X103257022Y-64500952D01*
X102685594Y-65072380D01*
X103304641Y-65072380D01*
X104257022Y-65072380D02*
X103685594Y-65072380D01*
X103971308Y-65072380D02*
X103971308Y-64072380D01*
X103876070Y-64215238D01*
X103780832Y-64310476D01*
X103685594Y-64358095D01*
%TO.C,U3*%
X237035133Y-162576900D02*
X237035133Y-163386424D01*
X237082752Y-163481662D01*
X237130371Y-163529281D01*
X237225609Y-163576900D01*
X237416085Y-163576900D01*
X237511323Y-163529281D01*
X237558942Y-163481662D01*
X237606561Y-163386424D01*
X237606561Y-162576900D01*
X237987514Y-162576900D02*
X238606561Y-162576900D01*
X238273228Y-162957853D01*
X238416085Y-162957853D01*
X238511323Y-163005472D01*
X238558942Y-163053091D01*
X238606561Y-163148329D01*
X238606561Y-163386424D01*
X238558942Y-163481662D01*
X238511323Y-163529281D01*
X238416085Y-163576900D01*
X238130371Y-163576900D01*
X238035133Y-163529281D01*
X237987514Y-163481662D01*
D12*
%TO.C,J1*%
X284397038Y-157074520D02*
X286397038Y-157074520D01*
X288297038Y-166474520D02*
X290197038Y-166474520D01*
X290197038Y-166474520D02*
X290197038Y-157074520D01*
X284397038Y-166474520D02*
X286397038Y-166474520D01*
D13*
X289667038Y-166244520D02*
X289667038Y-157304520D01*
D12*
X288297038Y-157074520D02*
X290197038Y-157074520D01*
X270300000Y-89400000D02*
X270300000Y-87400000D01*
X279700000Y-89400000D02*
X279700000Y-87400000D01*
X279700000Y-85500000D02*
X279700000Y-83600000D01*
X270300000Y-85500000D02*
X270300000Y-83600000D01*
X279700000Y-83600000D02*
X270300000Y-83600000D01*
D13*
X279470000Y-84130000D02*
X270530000Y-84130000D01*
D12*
%TO.C,C7*%
X247789202Y-158984520D02*
X248004874Y-158984520D01*
X247789202Y-158264520D02*
X248004874Y-158264520D01*
%TO.C,C6*%
X163011252Y-62235000D02*
X162488748Y-62235000D01*
X163011252Y-60765000D02*
X162488748Y-60765000D01*
%TO.C,R26*%
X81737258Y-172977500D02*
X81262742Y-172977500D01*
X81737258Y-174022500D02*
X81262742Y-174022500D01*
%TO.C,U2*%
X97430118Y-35740000D02*
X97430118Y-35995000D01*
X89710118Y-35995000D02*
X87895118Y-35995000D01*
X97430118Y-46260000D02*
X97430118Y-46005000D01*
X93570118Y-35740000D02*
X97430118Y-35740000D01*
X93570118Y-46260000D02*
X89710118Y-46260000D01*
X93570118Y-35740000D02*
X89710118Y-35740000D01*
X89710118Y-35740000D02*
X89710118Y-35995000D01*
X89710118Y-46260000D02*
X89710118Y-46005000D01*
X93570118Y-46260000D02*
X97430118Y-46260000D01*
%TO.C,C8*%
X245537038Y-164316684D02*
X245537038Y-164532356D01*
X246257038Y-164316684D02*
X246257038Y-164532356D01*
%TO.C,R14*%
X31797618Y-40237258D02*
X31797618Y-39762742D01*
X32842618Y-40237258D02*
X32842618Y-39762742D01*
%TO.C,R15*%
X38082860Y-34477500D02*
X38557376Y-34477500D01*
X38082860Y-35522500D02*
X38557376Y-35522500D01*
%TO.C,U3*%
X46250000Y-137060000D02*
X45450000Y-137060000D01*
X46250000Y-133940000D02*
X45450000Y-133940000D01*
X46250000Y-137060000D02*
X48050000Y-137060000D01*
X46250000Y-133940000D02*
X47050000Y-133940000D01*
%TO.C,U1*%
X34260118Y-42500000D02*
X34260118Y-43300000D01*
X34260118Y-42500000D02*
X34260118Y-41700000D01*
X37380118Y-42500000D02*
X37380118Y-43300000D01*
X37380118Y-42500000D02*
X37380118Y-40700000D01*
%TO.C,R2*%
X81737258Y-156272500D02*
X81262742Y-156272500D01*
X81737258Y-155227500D02*
X81262742Y-155227500D01*
%TO.C,R41*%
X264809780Y-176797020D02*
X265284296Y-176797020D01*
X264809780Y-175752020D02*
X265284296Y-175752020D01*
%TO.C,R8*%
X276559780Y-155297020D02*
X277034296Y-155297020D01*
X276559780Y-154252020D02*
X277034296Y-154252020D01*
%TO.C,U9*%
X258907038Y-173014520D02*
X258907038Y-173269520D01*
X255047038Y-173014520D02*
X258907038Y-173014520D01*
X251187038Y-173014520D02*
X251187038Y-173269520D01*
X255047038Y-183534520D02*
X258907038Y-183534520D01*
X255047038Y-183534520D02*
X251187038Y-183534520D01*
X255047038Y-173014520D02*
X251187038Y-173014520D01*
X251187038Y-173269520D02*
X249372038Y-173269520D01*
X251187038Y-183534520D02*
X251187038Y-183279520D01*
X258907038Y-183534520D02*
X258907038Y-183279520D01*
%TO.C,SW3*%
X129150000Y-188850000D02*
X129150000Y-188750000D01*
X129150000Y-187250000D02*
X124750000Y-187250000D01*
X124750000Y-190350000D02*
X129150000Y-190350000D01*
X124750000Y-188850000D02*
X124750000Y-188750000D01*
%TO.C,C17*%
X247789202Y-161064520D02*
X248004874Y-161064520D01*
X247789202Y-161784520D02*
X248004874Y-161784520D01*
D13*
%TO.C,P1*%
X241620000Y-42860000D02*
X233380000Y-42860000D01*
D12*
X233375000Y-36660000D02*
X241625000Y-36660000D01*
X232200000Y-44000000D02*
X242800000Y-44000000D01*
D13*
X241620000Y-41300000D02*
X233380000Y-41300000D01*
D12*
X233375000Y-48825000D02*
X233375000Y-47850000D01*
X233375000Y-47850000D02*
X233375000Y-36660000D01*
X241625000Y-48850000D02*
X241625000Y-47900000D01*
X241625000Y-47900000D02*
X241625000Y-36660000D01*
X237500000Y-48850000D02*
X233375000Y-48850000D01*
X241600000Y-48850000D02*
X241625000Y-48850000D01*
X237500000Y-48850000D02*
X241600000Y-48850000D01*
%TO.C,R28*%
X229934296Y-158347020D02*
X229459780Y-158347020D01*
X229934296Y-157302020D02*
X229459780Y-157302020D01*
%TO.C,U1*%
X264057038Y-162424520D02*
X264057038Y-161624520D01*
X260937038Y-162424520D02*
X260937038Y-164224520D01*
X260937038Y-162424520D02*
X260937038Y-161624520D01*
X264057038Y-162424520D02*
X264057038Y-163224520D01*
%TO.C,C1*%
X236804874Y-159264520D02*
X236589202Y-159264520D01*
X236804874Y-159984520D02*
X236589202Y-159984520D01*
%TO.C,C5*%
X240937038Y-153132356D02*
X240937038Y-152916684D01*
X241657038Y-153132356D02*
X241657038Y-152916684D01*
%TO.C,U1*%
X168810000Y-60250000D02*
X168810000Y-59450000D01*
X168810000Y-60250000D02*
X168810000Y-61050000D01*
X165690000Y-60250000D02*
X165690000Y-59450000D01*
X165690000Y-60250000D02*
X165690000Y-62050000D01*
%TO.C,U8*%
X212254535Y-165143320D02*
X214839541Y-165143320D01*
X214839541Y-156405720D02*
X212254535Y-156405720D01*
X213242238Y-156405720D02*
G75*
G03*
X213851838Y-156405720I304800J0D01*
G01*
G36*
X217509438Y-162235020D02*
G01*
X217255438Y-162235020D01*
X217255438Y-161854020D01*
X217509438Y-161854020D01*
X217509438Y-162235020D01*
G37*
D14*
X217509438Y-162235020D02*
X217255438Y-162235020D01*
X217255438Y-161854020D01*
X217509438Y-161854020D01*
X217509438Y-162235020D01*
D12*
%TO.C,R20*%
X81737258Y-156977500D02*
X81262742Y-156977500D01*
X81737258Y-158022500D02*
X81262742Y-158022500D01*
%TO.C,C22*%
X259562038Y-170535772D02*
X259562038Y-170013268D01*
X261032038Y-170535772D02*
X261032038Y-170013268D01*
%TO.C,R22*%
X81012742Y-168022500D02*
X81487258Y-168022500D01*
X81012742Y-166977500D02*
X81487258Y-166977500D01*
%TO.C,C1*%
X81238748Y-147235000D02*
X81761252Y-147235000D01*
X81238748Y-145765000D02*
X81761252Y-145765000D01*
%TO.C,R19*%
X103232376Y-59772500D02*
X102757860Y-59772500D01*
X103232376Y-58727500D02*
X102757860Y-58727500D01*
%TO.C,C16*%
X247789202Y-160064520D02*
X248004874Y-160064520D01*
X247789202Y-160784520D02*
X248004874Y-160784520D01*
X102733866Y-37065000D02*
X103256370Y-37065000D01*
X102733866Y-38535000D02*
X103256370Y-38535000D01*
%TO.C,R21*%
X102757860Y-55277500D02*
X103232376Y-55277500D01*
X102757860Y-56322500D02*
X103232376Y-56322500D01*
%TO.C,R1*%
X81012742Y-134977500D02*
X81487258Y-134977500D01*
X81012742Y-136022500D02*
X81487258Y-136022500D01*
%TO.C,R2*%
X170227500Y-62512742D02*
X170227500Y-62987258D01*
X171272500Y-62512742D02*
X171272500Y-62987258D01*
%TO.C,R23*%
X50012742Y-132477500D02*
X50487258Y-132477500D01*
X50012742Y-133522500D02*
X50487258Y-133522500D01*
%TO.C,Y1*%
X223897038Y-157174520D02*
X223897038Y-160474520D01*
X223897038Y-160474520D02*
X227897038Y-160474520D01*
%TO.C,R4*%
X276559780Y-159797020D02*
X277034296Y-159797020D01*
X276559780Y-158752020D02*
X277034296Y-158752020D01*
%TO.C,R20*%
X102757860Y-70277500D02*
X103232376Y-70277500D01*
X102757860Y-71322500D02*
X103232376Y-71322500D01*
%TO.C,U2*%
X253497038Y-142299520D02*
X250772038Y-142299520D01*
X256222038Y-142299520D02*
X256222038Y-142559520D01*
X256222038Y-147749520D02*
X256222038Y-147489520D01*
X253497038Y-142299520D02*
X256222038Y-142299520D01*
X250772038Y-147749520D02*
X250772038Y-147489520D01*
X256222038Y-147489520D02*
X257897038Y-147489520D01*
X253497038Y-147749520D02*
X250772038Y-147749520D01*
X253497038Y-147749520D02*
X256222038Y-147749520D01*
X250772038Y-142299520D02*
X250772038Y-142559520D01*
%TO.C,U3*%
X97430118Y-76260000D02*
X97430118Y-76005000D01*
X93570118Y-65740000D02*
X97430118Y-65740000D01*
X89710118Y-76260000D02*
X89710118Y-76005000D01*
X93570118Y-65740000D02*
X89710118Y-65740000D01*
X93570118Y-76260000D02*
X97430118Y-76260000D01*
X89710118Y-65740000D02*
X89710118Y-65995000D01*
X97430118Y-65740000D02*
X97430118Y-65995000D01*
X89710118Y-65995000D02*
X87895118Y-65995000D01*
X93570118Y-76260000D02*
X89710118Y-76260000D01*
%TO.C,R7*%
X250250679Y-159844520D02*
X249943397Y-159844520D01*
X250250679Y-160604520D02*
X249943397Y-160604520D01*
%TO.C,R3*%
X162227500Y-65737258D02*
X162227500Y-65262742D01*
X163272500Y-65737258D02*
X163272500Y-65262742D01*
%TO.C,SW4*%
X282497038Y-138824520D02*
X282497038Y-138724520D01*
X282497038Y-137224520D02*
X278097038Y-137224520D01*
X278097038Y-138824520D02*
X278097038Y-138724520D01*
X278097038Y-140324520D02*
X282497038Y-140324520D01*
%TO.C,C12*%
X268432038Y-162763268D02*
X268432038Y-163285772D01*
X266962038Y-162763268D02*
X266962038Y-163285772D01*
%TO.C,R1*%
X264974538Y-163261778D02*
X264974538Y-162787262D01*
X266019538Y-163261778D02*
X266019538Y-162787262D01*
%TO.C,C13*%
X35055118Y-46738748D02*
X35055118Y-47261252D01*
X33585118Y-46738748D02*
X33585118Y-47261252D01*
%TO.C,C14*%
X37555118Y-46738748D02*
X37555118Y-47261252D01*
X36085118Y-46738748D02*
X36085118Y-47261252D01*
%TO.C,C9*%
X81238748Y-131735000D02*
X81761252Y-131735000D01*
X81238748Y-130265000D02*
X81761252Y-130265000D01*
%TO.C,C4*%
X245537038Y-153132356D02*
X245537038Y-152916684D01*
X246257038Y-153132356D02*
X246257038Y-152916684D01*
%TO.C,D1*%
X49000000Y-137500000D02*
X52900000Y-137500000D01*
X49000000Y-135500000D02*
X49000000Y-137500000D01*
X49000000Y-135500000D02*
X52900000Y-135500000D01*
%TO.C,C8*%
X81238748Y-132765000D02*
X81761252Y-132765000D01*
X81238748Y-134235000D02*
X81761252Y-134235000D01*
%TO.C,C11*%
X260762038Y-158685772D02*
X260762038Y-158163268D01*
X262232038Y-158685772D02*
X262232038Y-158163268D01*
%TO.C,C6*%
X236804874Y-158984520D02*
X236589202Y-158984520D01*
X236804874Y-158264520D02*
X236589202Y-158264520D01*
%TO.C,C20*%
X102733866Y-69535000D02*
X103256370Y-69535000D01*
X102733866Y-68065000D02*
X103256370Y-68065000D01*
%TO.C,C3*%
X240937038Y-164316684D02*
X240937038Y-164532356D01*
X241657038Y-164316684D02*
X241657038Y-164532356D01*
%TO.C,R19*%
X274859780Y-147452020D02*
X275334296Y-147452020D01*
X274859780Y-148497020D02*
X275334296Y-148497020D01*
%TO.C,SW5*%
X282497038Y-147024520D02*
X282497038Y-146924520D01*
X278097038Y-147024520D02*
X278097038Y-146924520D01*
X278097038Y-148524520D02*
X282497038Y-148524520D01*
X282497038Y-145424520D02*
X278097038Y-145424520D01*
%TO.C,C4*%
X81238748Y-164765000D02*
X81761252Y-164765000D01*
X81238748Y-166235000D02*
X81761252Y-166235000D01*
%TO.C,C19*%
X102733866Y-52035000D02*
X103256370Y-52035000D01*
X102733866Y-50565000D02*
X103256370Y-50565000D01*
%TO.C,C5*%
X165015000Y-56011252D02*
X165015000Y-55488748D01*
X166485000Y-56011252D02*
X166485000Y-55488748D01*
%TO.C,C8*%
X181238748Y-39765000D02*
X181761252Y-39765000D01*
X181238748Y-41235000D02*
X181761252Y-41235000D01*
%TO.C,C9*%
X247789202Y-162784520D02*
X248004874Y-162784520D01*
X247789202Y-162064520D02*
X248004874Y-162064520D01*
%TO.C,C2*%
X247789202Y-157984520D02*
X248004874Y-157984520D01*
X247789202Y-157264520D02*
X248004874Y-157264520D01*
%TO.C,R19*%
X81737258Y-171227500D02*
X81262742Y-171227500D01*
X81737258Y-172272500D02*
X81262742Y-172272500D01*
%TO.C,C20*%
X226004874Y-156384520D02*
X225789202Y-156384520D01*
X226004874Y-155664520D02*
X225789202Y-155664520D01*
%TO.C,D13*%
X34320118Y-39250000D02*
X34320118Y-35350000D01*
X36320118Y-39250000D02*
X36320118Y-35350000D01*
X34320118Y-39250000D02*
X36320118Y-39250000D01*
%TO.C,R42*%
X265284296Y-180502020D02*
X264809780Y-180502020D01*
X265284296Y-181547020D02*
X264809780Y-181547020D01*
%TO.C,U2*%
X68640000Y-147240000D02*
X68640000Y-147495000D01*
X72500000Y-147240000D02*
X76360000Y-147240000D01*
X68640000Y-157760000D02*
X68640000Y-157505000D01*
X72500000Y-157760000D02*
X68640000Y-157760000D01*
X76360000Y-157760000D02*
X76360000Y-157505000D01*
X72500000Y-147240000D02*
X68640000Y-147240000D01*
X76360000Y-147240000D02*
X76360000Y-147495000D01*
X72500000Y-157760000D02*
X76360000Y-157760000D01*
X68640000Y-147495000D02*
X66825000Y-147495000D01*
%TO.C,D1*%
X266847038Y-159024520D02*
X266847038Y-161024520D01*
X266847038Y-159024520D02*
X270747038Y-159024520D01*
X266847038Y-161024520D02*
X270747038Y-161024520D01*
%TO.C,R24*%
X103232376Y-43772500D02*
X102757860Y-43772500D01*
X103232376Y-42727500D02*
X102757860Y-42727500D01*
%TO.C,C5*%
X42011252Y-136265000D02*
X41488748Y-136265000D01*
X42011252Y-137735000D02*
X41488748Y-137735000D01*
%TO.C,R6*%
X250250679Y-159604520D02*
X249943397Y-159604520D01*
X250250679Y-158844520D02*
X249943397Y-158844520D01*
%TO.C,R24*%
X52487258Y-138477500D02*
X52012742Y-138477500D01*
X52487258Y-139522500D02*
X52012742Y-139522500D01*
%TO.C,C2*%
X81238748Y-149735000D02*
X81761252Y-149735000D01*
X81238748Y-148265000D02*
X81761252Y-148265000D01*
%TO.C,U4*%
X89710118Y-50740000D02*
X89710118Y-50995000D01*
X97430118Y-50740000D02*
X97430118Y-50995000D01*
X93570118Y-61260000D02*
X89710118Y-61260000D01*
X93570118Y-50740000D02*
X97430118Y-50740000D01*
X89710118Y-61260000D02*
X89710118Y-61005000D01*
X93570118Y-61260000D02*
X97430118Y-61260000D01*
X93570118Y-50740000D02*
X89710118Y-50740000D01*
X97430118Y-61260000D02*
X97430118Y-61005000D01*
X89710118Y-50995000D02*
X87895118Y-50995000D01*
%TO.C,C4*%
X167765000Y-56011252D02*
X167765000Y-55488748D01*
X169235000Y-56011252D02*
X169235000Y-55488748D01*
%TO.C,C18*%
X247404874Y-147384520D02*
X247189202Y-147384520D01*
X247404874Y-146664520D02*
X247189202Y-146664520D01*
%TO.C,R25*%
X81487258Y-139227500D02*
X81012742Y-139227500D01*
X81487258Y-140272500D02*
X81012742Y-140272500D01*
%TO.C,R6*%
X181737258Y-48522500D02*
X181262742Y-48522500D01*
X181737258Y-47477500D02*
X181262742Y-47477500D01*
%TO.C,R18*%
X103232376Y-56977500D02*
X102757860Y-56977500D01*
X103232376Y-58022500D02*
X102757860Y-58022500D01*
%TO.C,R17*%
X102757860Y-39277500D02*
X103232376Y-39277500D01*
X102757860Y-40322500D02*
X103232376Y-40322500D01*
%TO.C,R23*%
X103232376Y-40977500D02*
X102757860Y-40977500D01*
X103232376Y-42022500D02*
X102757860Y-42022500D01*
%TO.C,C21*%
X258782038Y-170535772D02*
X258782038Y-170013268D01*
X257312038Y-170535772D02*
X257312038Y-170013268D01*
%TO.C,C18*%
X102733866Y-53065000D02*
X103256370Y-53065000D01*
X102733866Y-54535000D02*
X103256370Y-54535000D01*
%TO.C,R10*%
X274859780Y-140297020D02*
X275334296Y-140297020D01*
X274859780Y-139252020D02*
X275334296Y-139252020D01*
%TO.C,R5*%
X181262742Y-43522500D02*
X181737258Y-43522500D01*
X181262742Y-42477500D02*
X181737258Y-42477500D01*
%TO.C,R18*%
X81012742Y-150477500D02*
X81487258Y-150477500D01*
X81012742Y-151522500D02*
X81487258Y-151522500D01*
%TO.C,R22*%
X103232376Y-73022500D02*
X102757860Y-73022500D01*
X103232376Y-71977500D02*
X102757860Y-71977500D01*
%TO.C,R3*%
X81487258Y-142022500D02*
X81012742Y-142022500D01*
X81487258Y-140977500D02*
X81012742Y-140977500D01*
%TO.C,C6*%
X42011252Y-133515000D02*
X41488748Y-133515000D01*
X42011252Y-134985000D02*
X41488748Y-134985000D01*
%TO.C,C7*%
X48485000Y-139988748D02*
X48485000Y-140511252D01*
X47015000Y-139988748D02*
X47015000Y-140511252D01*
%TO.C,C10*%
X262962038Y-158685772D02*
X262962038Y-158163268D01*
X264432038Y-158685772D02*
X264432038Y-158163268D01*
%TO.C,D4*%
X167200000Y-63250000D02*
X165200000Y-63250000D01*
X167200000Y-63250000D02*
X167200000Y-67150000D01*
X165200000Y-63250000D02*
X165200000Y-67150000D01*
%TO.C,SW2*%
X114750000Y-190350000D02*
X119150000Y-190350000D01*
X114750000Y-188850000D02*
X114750000Y-188750000D01*
X119150000Y-187250000D02*
X114750000Y-187250000D01*
X119150000Y-188850000D02*
X119150000Y-188750000D01*
%TO.C,C15*%
X38585118Y-38261252D02*
X38585118Y-37738748D01*
X40055118Y-38261252D02*
X40055118Y-37738748D01*
%TO.C,R25*%
X103232376Y-73727500D02*
X102757860Y-73727500D01*
X103232376Y-74772500D02*
X102757860Y-74772500D01*
%TO.C,C3*%
X81238748Y-163735000D02*
X81761252Y-163735000D01*
X81238748Y-162265000D02*
X81761252Y-162265000D01*
%TO.C,C7*%
X163761252Y-46235000D02*
X163238748Y-46235000D01*
X163761252Y-44765000D02*
X163238748Y-44765000D01*
%TO.C,R43*%
X265284296Y-183297020D02*
X264809780Y-183297020D01*
X265284296Y-182252020D02*
X264809780Y-182252020D01*
%TO.C,R2*%
X270174538Y-162587262D02*
X270174538Y-163061778D01*
X271219538Y-162587262D02*
X271219538Y-163061778D01*
%TO.C,R3*%
X276559780Y-164797020D02*
X277034296Y-164797020D01*
X276559780Y-163752020D02*
X277034296Y-163752020D01*
%TO.C,R9*%
X260534296Y-147547020D02*
X260059780Y-147547020D01*
X260534296Y-146502020D02*
X260059780Y-146502020D01*
%TO.C,C19*%
X223257038Y-158932356D02*
X223257038Y-158716684D01*
X222537038Y-158932356D02*
X222537038Y-158716684D01*
%TO.C,SW1*%
X173250000Y-145850000D02*
X173250000Y-145750000D01*
X173250000Y-147350000D02*
X177650000Y-147350000D01*
X177650000Y-144250000D02*
X173250000Y-144250000D01*
X177650000Y-145850000D02*
X177650000Y-145750000D01*
%TO.C,U4*%
X68640000Y-163495000D02*
X66825000Y-163495000D01*
X72500000Y-173760000D02*
X68640000Y-173760000D01*
X68640000Y-173760000D02*
X68640000Y-173505000D01*
X76360000Y-173760000D02*
X76360000Y-173505000D01*
X72500000Y-163240000D02*
X68640000Y-163240000D01*
X72500000Y-173760000D02*
X76360000Y-173760000D01*
X72500000Y-163240000D02*
X76360000Y-163240000D01*
X76360000Y-163240000D02*
X76360000Y-163495000D01*
X68640000Y-163240000D02*
X68640000Y-163495000D01*
%TO.C,U1*%
X72500000Y-141760000D02*
X68640000Y-141760000D01*
X68640000Y-131495000D02*
X66825000Y-131495000D01*
X72500000Y-131240000D02*
X76360000Y-131240000D01*
X68640000Y-141760000D02*
X68640000Y-141505000D01*
X76360000Y-131240000D02*
X76360000Y-131495000D01*
X76360000Y-141760000D02*
X76360000Y-141505000D01*
X72500000Y-141760000D02*
X76360000Y-141760000D01*
X68640000Y-131240000D02*
X68640000Y-131495000D01*
X72500000Y-131240000D02*
X68640000Y-131240000D01*
%TO.C,R7*%
X181737258Y-49477500D02*
X181262742Y-49477500D01*
X181737258Y-50522500D02*
X181262742Y-50522500D01*
%TO.C,C17*%
X102733866Y-34565000D02*
X103256370Y-34565000D01*
X102733866Y-36035000D02*
X103256370Y-36035000D01*
%TO.C,U2*%
X168640000Y-50260000D02*
X168640000Y-50005000D01*
X168640000Y-39740000D02*
X168640000Y-39995000D01*
X172500000Y-39740000D02*
X176360000Y-39740000D01*
X168640000Y-39995000D02*
X166825000Y-39995000D01*
X172500000Y-50260000D02*
X168640000Y-50260000D01*
X172500000Y-39740000D02*
X168640000Y-39740000D01*
X172500000Y-50260000D02*
X176360000Y-50260000D01*
X176360000Y-50260000D02*
X176360000Y-50005000D01*
X176360000Y-39740000D02*
X176360000Y-39995000D01*
%TO.C,C21*%
X102733866Y-65565000D02*
X103256370Y-65565000D01*
X102733866Y-67035000D02*
X103256370Y-67035000D01*
%TO.C,U3*%
X245907038Y-161734520D02*
X245907038Y-162384520D01*
X238687038Y-162384520D02*
X239337038Y-162384520D01*
X238687038Y-155164520D02*
X239337038Y-155164520D01*
X245907038Y-155814520D02*
X245907038Y-155164520D01*
X245907038Y-162384520D02*
X245257038Y-162384520D01*
X238687038Y-155814520D02*
X238687038Y-155164520D01*
X238687038Y-161734520D02*
X238687038Y-162384520D01*
%TD*%
%LPC*%
D15*
%TO.C,J1*%
X283697038Y-158884520D03*
X283697038Y-164664520D03*
D16*
X282252038Y-165024520D03*
X282252038Y-164224520D03*
D17*
X282252038Y-163024520D03*
X282252038Y-162024520D03*
X282252038Y-161524520D03*
X282252038Y-160524520D03*
D16*
X282252038Y-159324520D03*
X282252038Y-158524520D03*
X282252038Y-158524520D03*
X282252038Y-159324520D03*
D17*
X282252038Y-160024520D03*
X282252038Y-161024520D03*
X282252038Y-162524520D03*
X282252038Y-163524520D03*
D16*
X282252038Y-164224520D03*
X282252038Y-165024520D03*
D18*
X287347038Y-166094520D03*
X287347038Y-157454520D03*
D19*
X283167038Y-157454520D03*
X283167038Y-166094520D03*
%TD*%
D20*
%TO.C,J1*%
X270680000Y-90630000D03*
D21*
X279320000Y-86450000D03*
X270680000Y-86450000D03*
D20*
X279320000Y-90630000D03*
D22*
X278250000Y-91545000D03*
X277450000Y-91545000D03*
D23*
X276750000Y-91545000D03*
X275750000Y-91545000D03*
X274250000Y-91545000D03*
X273250000Y-91545000D03*
D22*
X272550000Y-91545000D03*
X271750000Y-91545000D03*
X271750000Y-91545000D03*
X272550000Y-91545000D03*
D23*
X273750000Y-91545000D03*
X274750000Y-91545000D03*
X275250000Y-91545000D03*
X276250000Y-91545000D03*
D22*
X277450000Y-91545000D03*
X278250000Y-91545000D03*
D15*
X272110000Y-90100000D03*
X277890000Y-90100000D03*
%TD*%
D24*
%TO.C,C7*%
X247417038Y-158624520D03*
X248377038Y-158624520D03*
%TD*%
D25*
%TO.C,D3*%
X212025000Y-97975000D03*
X212975000Y-97975000D03*
X212975000Y-97025000D03*
X212025000Y-97025000D03*
%TD*%
D26*
%TO.C,C6*%
X163700000Y-61500000D03*
X161800000Y-61500000D03*
%TD*%
D27*
%TO.C,R26*%
X82325000Y-173500000D03*
X80675000Y-173500000D03*
%TD*%
D28*
%TO.C,U2*%
X88920118Y-36555000D03*
X88920118Y-37825000D03*
X88920118Y-39095000D03*
X88920118Y-40365000D03*
X88920118Y-41635000D03*
X88920118Y-42905000D03*
X88920118Y-44175000D03*
X88920118Y-45445000D03*
X98220118Y-45445000D03*
X98220118Y-44175000D03*
X98220118Y-42905000D03*
X98220118Y-41635000D03*
X98220118Y-40365000D03*
X98220118Y-39095000D03*
X98220118Y-37825000D03*
X98220118Y-36555000D03*
%TD*%
D29*
%TO.C,C8*%
X245897038Y-163944520D03*
X245897038Y-164904520D03*
%TD*%
D30*
%TO.C,R14*%
X32320118Y-40825000D03*
X32320118Y-39175000D03*
%TD*%
D31*
%TO.C,R15*%
X37495118Y-35000000D03*
X39145118Y-35000000D03*
%TD*%
D32*
%TO.C,U3*%
X47387500Y-136450000D03*
X47387500Y-135500000D03*
X47387500Y-134550000D03*
X45112500Y-134550000D03*
X45112500Y-136450000D03*
%TD*%
D33*
%TO.C,U1*%
X36770118Y-41362500D03*
X35820118Y-41362500D03*
X34870118Y-41362500D03*
X34870118Y-43637500D03*
X36770118Y-43637500D03*
%TD*%
D27*
%TO.C,R2*%
X82325000Y-155750000D03*
X80675000Y-155750000D03*
%TD*%
D31*
%TO.C,R41*%
X264222038Y-176274520D03*
X265872038Y-176274520D03*
%TD*%
%TO.C,R8*%
X275972038Y-154774520D03*
X277622038Y-154774520D03*
%TD*%
D28*
%TO.C,U9*%
X250397038Y-173829520D03*
X250397038Y-175099520D03*
X250397038Y-176369520D03*
X250397038Y-177639520D03*
X250397038Y-178909520D03*
X250397038Y-180179520D03*
X250397038Y-181449520D03*
X250397038Y-182719520D03*
X259697038Y-182719520D03*
X259697038Y-181449520D03*
X259697038Y-180179520D03*
X259697038Y-178909520D03*
X259697038Y-177639520D03*
X259697038Y-176369520D03*
X259697038Y-175099520D03*
X259697038Y-173829520D03*
%TD*%
D34*
%TO.C,SW3*%
X129000000Y-188000000D03*
X124900000Y-188000000D03*
X129000000Y-189600000D03*
X124900000Y-189600000D03*
%TD*%
D24*
%TO.C,C17*%
X247417038Y-161424520D03*
X248377038Y-161424520D03*
%TD*%
D35*
%TO.C,P1*%
X234750000Y-49750000D03*
X236250000Y-49750000D03*
X236750000Y-49750000D03*
X237250000Y-49750000D03*
X237750000Y-49750000D03*
X239250000Y-49750000D03*
X239750000Y-49750000D03*
X240250000Y-49750000D03*
X238750000Y-49750000D03*
X238250000Y-49750000D03*
X235750000Y-49750000D03*
X235250000Y-49750000D03*
D36*
X235750000Y-45200000D03*
D37*
X242050000Y-45250000D03*
D36*
X238750000Y-46950000D03*
X239250000Y-45200000D03*
D38*
X240750000Y-49650000D03*
X234250000Y-49656250D03*
D36*
X236250000Y-46950000D03*
D37*
X232950000Y-47850000D03*
X232950000Y-45200000D03*
X242050000Y-47900000D03*
%TD*%
D27*
%TO.C,R28*%
X230522038Y-157824520D03*
X228872038Y-157824520D03*
%TD*%
D39*
%TO.C,U1*%
X261547038Y-163562020D03*
X262497038Y-163562020D03*
X263447038Y-163562020D03*
X263447038Y-161287020D03*
X261547038Y-161287020D03*
%TD*%
D40*
%TO.C,C1*%
X237177038Y-159624520D03*
X236217038Y-159624520D03*
%TD*%
D41*
%TO.C,C5*%
X241297038Y-153504520D03*
X241297038Y-152544520D03*
%TD*%
D39*
%TO.C,U1*%
X166300000Y-61387500D03*
X167250000Y-61387500D03*
X168200000Y-61387500D03*
X168200000Y-59112500D03*
X166300000Y-59112500D03*
%TD*%
D42*
%TO.C,U8*%
X211083238Y-156964520D03*
X211083238Y-158234520D03*
X211083238Y-159504520D03*
X211083238Y-160774520D03*
X211083238Y-162044520D03*
X211083238Y-163314520D03*
X211083238Y-164584520D03*
X216010838Y-164584520D03*
X216010838Y-163314520D03*
X216010838Y-162044520D03*
X216010838Y-160774520D03*
X216010838Y-159504520D03*
X216010838Y-158234520D03*
X216010838Y-156964520D03*
%TD*%
D27*
%TO.C,R20*%
X82325000Y-157500000D03*
X80675000Y-157500000D03*
%TD*%
D43*
%TO.C,C22*%
X260297038Y-171224520D03*
X260297038Y-169324520D03*
%TD*%
D31*
%TO.C,R22*%
X80425000Y-167500000D03*
X82075000Y-167500000D03*
%TD*%
D44*
%TO.C,C1*%
X80550000Y-146500000D03*
X82450000Y-146500000D03*
%TD*%
D27*
%TO.C,R19*%
X103820118Y-59250000D03*
X102170118Y-59250000D03*
%TD*%
D24*
%TO.C,C16*%
X247417038Y-160424520D03*
X248377038Y-160424520D03*
%TD*%
D44*
%TO.C,C16*%
X102045118Y-37800000D03*
X103945118Y-37800000D03*
%TD*%
D31*
%TO.C,R21*%
X102170118Y-55800000D03*
X103820118Y-55800000D03*
%TD*%
%TO.C,R1*%
X80425000Y-135500000D03*
X82075000Y-135500000D03*
%TD*%
D45*
%TO.C,R2*%
X170750000Y-61925000D03*
X170750000Y-63575000D03*
%TD*%
D31*
%TO.C,R23*%
X49425000Y-133000000D03*
X51075000Y-133000000D03*
%TD*%
D46*
%TO.C,Y1*%
X224797038Y-159674520D03*
X226997038Y-159674520D03*
X226997038Y-157974520D03*
X224797038Y-157974520D03*
%TD*%
D31*
%TO.C,R4*%
X275972038Y-159274520D03*
X277622038Y-159274520D03*
%TD*%
%TO.C,R20*%
X102170118Y-70800000D03*
X103820118Y-70800000D03*
%TD*%
D47*
%TO.C,U2*%
X257097038Y-146929520D03*
X257097038Y-145659520D03*
X257097038Y-144389520D03*
X257097038Y-143119520D03*
X249897038Y-143119520D03*
X249897038Y-144389520D03*
X249897038Y-145659520D03*
X249897038Y-146929520D03*
%TD*%
D28*
%TO.C,U3*%
X88920118Y-66555000D03*
X88920118Y-67825000D03*
X88920118Y-69095000D03*
X88920118Y-70365000D03*
X88920118Y-71635000D03*
X88920118Y-72905000D03*
X88920118Y-74175000D03*
X88920118Y-75445000D03*
X98220118Y-75445000D03*
X98220118Y-74175000D03*
X98220118Y-72905000D03*
X98220118Y-71635000D03*
X98220118Y-70365000D03*
X98220118Y-69095000D03*
X98220118Y-67825000D03*
X98220118Y-66555000D03*
%TD*%
D48*
%TO.C,R7*%
X250607038Y-160224520D03*
X249587038Y-160224520D03*
%TD*%
D30*
%TO.C,R3*%
X162750000Y-66325000D03*
X162750000Y-64675000D03*
%TD*%
D34*
%TO.C,SW4*%
X282347038Y-137974520D03*
X278247038Y-137974520D03*
X278247038Y-139574520D03*
X282347038Y-139574520D03*
%TD*%
D49*
%TO.C,C12*%
X267697038Y-162074520D03*
X267697038Y-163974520D03*
%TD*%
D30*
%TO.C,R1*%
X265497038Y-163849520D03*
X265497038Y-162199520D03*
%TD*%
D49*
%TO.C,C13*%
X34320118Y-46050000D03*
X34320118Y-47950000D03*
%TD*%
%TO.C,C14*%
X36820118Y-46050000D03*
X36820118Y-47950000D03*
%TD*%
D25*
%TO.C,D4*%
X133475000Y-182275000D03*
X134425000Y-182275000D03*
X134425000Y-181325000D03*
X133475000Y-181325000D03*
%TD*%
%TO.C,D3*%
X292025000Y-32975000D03*
X292975000Y-32975000D03*
X292975000Y-32025000D03*
X292025000Y-32025000D03*
%TD*%
D44*
%TO.C,C9*%
X80550000Y-131000000D03*
X82450000Y-131000000D03*
%TD*%
D41*
%TO.C,C4*%
X245897038Y-153504520D03*
X245897038Y-152544520D03*
%TD*%
D50*
%TO.C,D1*%
X49600000Y-136500000D03*
X52900000Y-136500000D03*
%TD*%
D44*
%TO.C,C8*%
X80550000Y-133500000D03*
X82450000Y-133500000D03*
%TD*%
D43*
%TO.C,C11*%
X261497038Y-159374520D03*
X261497038Y-157474520D03*
%TD*%
D40*
%TO.C,C6*%
X237177038Y-158624520D03*
X236217038Y-158624520D03*
%TD*%
D44*
%TO.C,C20*%
X102045118Y-68800000D03*
X103945118Y-68800000D03*
%TD*%
D29*
%TO.C,C3*%
X241297038Y-163944520D03*
X241297038Y-164904520D03*
%TD*%
D31*
%TO.C,R19*%
X274272038Y-147974520D03*
X275922038Y-147974520D03*
%TD*%
D34*
%TO.C,SW5*%
X278247038Y-146174520D03*
X282347038Y-146174520D03*
X278247038Y-147774520D03*
X282347038Y-147774520D03*
%TD*%
D44*
%TO.C,C4*%
X80550000Y-165500000D03*
X82450000Y-165500000D03*
%TD*%
%TO.C,C19*%
X102045118Y-51300000D03*
X103945118Y-51300000D03*
%TD*%
D43*
%TO.C,C5*%
X165750000Y-56700000D03*
X165750000Y-54800000D03*
%TD*%
D44*
%TO.C,C8*%
X180550000Y-40500000D03*
X182450000Y-40500000D03*
%TD*%
D24*
%TO.C,C9*%
X247417038Y-162424520D03*
X248377038Y-162424520D03*
%TD*%
%TO.C,C2*%
X247417038Y-157624520D03*
X248377038Y-157624520D03*
%TD*%
D27*
%TO.C,R19*%
X82325000Y-171750000D03*
X80675000Y-171750000D03*
%TD*%
D40*
%TO.C,C20*%
X226377038Y-156024520D03*
X225417038Y-156024520D03*
%TD*%
D51*
%TO.C,D13*%
X35320118Y-38650000D03*
X35320118Y-35350000D03*
%TD*%
D27*
%TO.C,R42*%
X265872038Y-181024520D03*
X264222038Y-181024520D03*
%TD*%
D28*
%TO.C,U2*%
X67850000Y-148055000D03*
X67850000Y-149325000D03*
X67850000Y-150595000D03*
X67850000Y-151865000D03*
X67850000Y-153135000D03*
X67850000Y-154405000D03*
X67850000Y-155675000D03*
X67850000Y-156945000D03*
X77150000Y-156945000D03*
X77150000Y-155675000D03*
X77150000Y-154405000D03*
X77150000Y-153135000D03*
X77150000Y-151865000D03*
X77150000Y-150595000D03*
X77150000Y-149325000D03*
X77150000Y-148055000D03*
%TD*%
D50*
%TO.C,D1*%
X267447038Y-160024520D03*
X270747038Y-160024520D03*
%TD*%
D25*
%TO.C,D3*%
X133475000Y-175275000D03*
X134425000Y-175275000D03*
X134425000Y-174325000D03*
X133475000Y-174325000D03*
%TD*%
D27*
%TO.C,R24*%
X103820118Y-43250000D03*
X102170118Y-43250000D03*
%TD*%
D26*
%TO.C,C5*%
X42700000Y-137000000D03*
X40800000Y-137000000D03*
%TD*%
D48*
%TO.C,R6*%
X250607038Y-159224520D03*
X249587038Y-159224520D03*
%TD*%
D27*
%TO.C,R24*%
X53075000Y-139000000D03*
X51425000Y-139000000D03*
%TD*%
D44*
%TO.C,C2*%
X80550000Y-149000000D03*
X82450000Y-149000000D03*
%TD*%
D28*
%TO.C,U4*%
X88920118Y-51555000D03*
X88920118Y-52825000D03*
X88920118Y-54095000D03*
X88920118Y-55365000D03*
X88920118Y-56635000D03*
X88920118Y-57905000D03*
X88920118Y-59175000D03*
X88920118Y-60445000D03*
X98220118Y-60445000D03*
X98220118Y-59175000D03*
X98220118Y-57905000D03*
X98220118Y-56635000D03*
X98220118Y-55365000D03*
X98220118Y-54095000D03*
X98220118Y-52825000D03*
X98220118Y-51555000D03*
%TD*%
D43*
%TO.C,C4*%
X168500000Y-56700000D03*
X168500000Y-54800000D03*
%TD*%
D40*
%TO.C,C18*%
X247777038Y-147024520D03*
X246817038Y-147024520D03*
%TD*%
D27*
%TO.C,R25*%
X82075000Y-139750000D03*
X80425000Y-139750000D03*
%TD*%
%TO.C,R6*%
X182325000Y-48000000D03*
X180675000Y-48000000D03*
%TD*%
%TO.C,R18*%
X103820118Y-57500000D03*
X102170118Y-57500000D03*
%TD*%
D31*
%TO.C,R17*%
X102170118Y-39800000D03*
X103820118Y-39800000D03*
%TD*%
D27*
%TO.C,R23*%
X103820118Y-41500000D03*
X102170118Y-41500000D03*
%TD*%
D43*
%TO.C,C21*%
X258047038Y-171224520D03*
X258047038Y-169324520D03*
%TD*%
D44*
%TO.C,C18*%
X102045118Y-53800000D03*
X103945118Y-53800000D03*
%TD*%
D31*
%TO.C,R10*%
X274272038Y-139774520D03*
X275922038Y-139774520D03*
%TD*%
%TO.C,R5*%
X180675000Y-43000000D03*
X182325000Y-43000000D03*
%TD*%
%TO.C,R18*%
X80425000Y-151000000D03*
X82075000Y-151000000D03*
%TD*%
D27*
%TO.C,R22*%
X103820118Y-72500000D03*
X102170118Y-72500000D03*
%TD*%
%TO.C,R3*%
X82075000Y-141500000D03*
X80425000Y-141500000D03*
%TD*%
D26*
%TO.C,C6*%
X42700000Y-134250000D03*
X40800000Y-134250000D03*
%TD*%
D49*
%TO.C,C7*%
X47750000Y-139300000D03*
X47750000Y-141200000D03*
%TD*%
D43*
%TO.C,C10*%
X263697038Y-159374520D03*
X263697038Y-157474520D03*
%TD*%
D51*
%TO.C,D4*%
X166200000Y-63850000D03*
X166200000Y-67150000D03*
%TD*%
D34*
%TO.C,SW2*%
X119000000Y-188000000D03*
X114900000Y-188000000D03*
X114900000Y-189600000D03*
X119000000Y-189600000D03*
%TD*%
D43*
%TO.C,C15*%
X39320118Y-38950000D03*
X39320118Y-37050000D03*
%TD*%
D27*
%TO.C,R25*%
X103820118Y-74250000D03*
X102170118Y-74250000D03*
%TD*%
D44*
%TO.C,C3*%
X80550000Y-163000000D03*
X82450000Y-163000000D03*
%TD*%
D26*
%TO.C,C7*%
X164450000Y-45500000D03*
X162550000Y-45500000D03*
%TD*%
D27*
%TO.C,R43*%
X265872038Y-182774520D03*
X264222038Y-182774520D03*
%TD*%
D45*
%TO.C,R2*%
X270697038Y-161999520D03*
X270697038Y-163649520D03*
%TD*%
D31*
%TO.C,R3*%
X275972038Y-164274520D03*
X277622038Y-164274520D03*
%TD*%
D27*
%TO.C,R9*%
X261122038Y-147024520D03*
X259472038Y-147024520D03*
%TD*%
D41*
%TO.C,C19*%
X222897038Y-159304520D03*
X222897038Y-158344520D03*
%TD*%
D34*
%TO.C,SW1*%
X177500000Y-145000000D03*
X173400000Y-145000000D03*
X173400000Y-146600000D03*
X177500000Y-146600000D03*
%TD*%
D25*
%TO.C,D3*%
X137025000Y-112975000D03*
X137975000Y-112975000D03*
X137975000Y-112025000D03*
X137025000Y-112025000D03*
%TD*%
D28*
%TO.C,U4*%
X67850000Y-164055000D03*
X67850000Y-165325000D03*
X67850000Y-166595000D03*
X67850000Y-167865000D03*
X67850000Y-169135000D03*
X67850000Y-170405000D03*
X67850000Y-171675000D03*
X67850000Y-172945000D03*
X77150000Y-172945000D03*
X77150000Y-171675000D03*
X77150000Y-170405000D03*
X77150000Y-169135000D03*
X77150000Y-167865000D03*
X77150000Y-166595000D03*
X77150000Y-165325000D03*
X77150000Y-164055000D03*
%TD*%
%TO.C,U1*%
X67850000Y-132055000D03*
X67850000Y-133325000D03*
X67850000Y-134595000D03*
X67850000Y-135865000D03*
X67850000Y-137135000D03*
X67850000Y-138405000D03*
X67850000Y-139675000D03*
X67850000Y-140945000D03*
X77150000Y-140945000D03*
X77150000Y-139675000D03*
X77150000Y-138405000D03*
X77150000Y-137135000D03*
X77150000Y-135865000D03*
X77150000Y-134595000D03*
X77150000Y-133325000D03*
X77150000Y-132055000D03*
%TD*%
D27*
%TO.C,R7*%
X182325000Y-50000000D03*
X180675000Y-50000000D03*
%TD*%
D44*
%TO.C,C17*%
X102045118Y-35300000D03*
X103945118Y-35300000D03*
%TD*%
D25*
%TO.C,D2*%
X133475000Y-168775000D03*
X134425000Y-168775000D03*
X134425000Y-167825000D03*
X133475000Y-167825000D03*
%TD*%
D28*
%TO.C,U2*%
X167850000Y-40555000D03*
X167850000Y-41825000D03*
X167850000Y-43095000D03*
X167850000Y-44365000D03*
X167850000Y-45635000D03*
X167850000Y-46905000D03*
X167850000Y-48175000D03*
X167850000Y-49445000D03*
X177150000Y-49445000D03*
X177150000Y-48175000D03*
X177150000Y-46905000D03*
X177150000Y-45635000D03*
X177150000Y-44365000D03*
X177150000Y-43095000D03*
X177150000Y-41825000D03*
X177150000Y-40555000D03*
%TD*%
D44*
%TO.C,C21*%
X102045118Y-66300000D03*
X103945118Y-66300000D03*
%TD*%
D52*
%TO.C,U3*%
X244897038Y-155337020D03*
X244497038Y-155337020D03*
X244097038Y-155337020D03*
X243697038Y-155337020D03*
X243297038Y-155337020D03*
X242897038Y-155337020D03*
X242497038Y-155337020D03*
X242097038Y-155337020D03*
X241697038Y-155337020D03*
X241297038Y-155337020D03*
X240897038Y-155337020D03*
X240497038Y-155337020D03*
X240097038Y-155337020D03*
X239697038Y-155337020D03*
D53*
X238859538Y-156174520D03*
X238859538Y-156574520D03*
X238859538Y-156974520D03*
X238859538Y-157374520D03*
X238859538Y-157774520D03*
X238859538Y-158174520D03*
X238859538Y-158574520D03*
X238859538Y-158974520D03*
X238859538Y-159374520D03*
X238859538Y-159774520D03*
X238859538Y-160174520D03*
X238859538Y-160574520D03*
X238859538Y-160974520D03*
X238859538Y-161374520D03*
D52*
X239697038Y-162212020D03*
X240097038Y-162212020D03*
X240497038Y-162212020D03*
X240897038Y-162212020D03*
X241297038Y-162212020D03*
X241697038Y-162212020D03*
X242097038Y-162212020D03*
X242497038Y-162212020D03*
X242897038Y-162212020D03*
X243297038Y-162212020D03*
X243697038Y-162212020D03*
X244097038Y-162212020D03*
X244497038Y-162212020D03*
X244897038Y-162212020D03*
D53*
X245734538Y-161374520D03*
X245734538Y-160974520D03*
X245734538Y-160574520D03*
X245734538Y-160174520D03*
X245734538Y-159774520D03*
X245734538Y-159374520D03*
X245734538Y-158974520D03*
X245734538Y-158574520D03*
X245734538Y-158174520D03*
X245734538Y-157774520D03*
X245734538Y-157374520D03*
X245734538Y-156974520D03*
X245734538Y-156574520D03*
X245734538Y-156174520D03*
D54*
X242297038Y-158774520D03*
%TD*%
M02*
