%TF.GenerationSoftware,KiCad,Pcbnew,(6.0.4)*%
%TF.CreationDate,2022-05-27T00:32:28-07:00*%
%TF.ProjectId,bot_L,626f745f-4c2e-46b6-9963-61645f706362,rev?*%
%TF.SameCoordinates,Original*%
%TF.FileFunction,Legend,Bot*%
%TF.FilePolarity,Positive*%
%FSLAX46Y46*%
G04 Gerber Fmt 4.6, Leading zero omitted, Abs format (unit mm)*
G04 Created by KiCad (PCBNEW (6.0.4)) date 2022-05-27 00:32:28*
%MOMM*%
%LPD*%
G01*
G04 APERTURE LIST*
%ADD10C,0.120000*%
%ADD11C,0.650000*%
%ADD12O,1.600000X1.000000*%
%ADD13O,2.100000X1.000000*%
%ADD14O,1.000000X2.100000*%
%ADD15O,1.000000X1.600000*%
G04 APERTURE END LIST*
D10*
%TO.C,D3*%
X211675000Y-96675000D02*
X211675000Y-98325000D01*
X213325000Y-96675000D02*
X211675000Y-96675000D01*
X212850000Y-97400000D02*
X213150000Y-97400000D01*
X213000000Y-97600000D02*
X213150000Y-97400000D01*
X211675000Y-98325000D02*
X213325000Y-98325000D01*
X213000000Y-97600000D02*
X212850000Y-97400000D01*
X213325000Y-98325000D02*
X213325000Y-96675000D01*
X213000000Y-97400000D02*
X213000000Y-97600000D01*
%TO.C,D4*%
X134450000Y-181900000D02*
X134300000Y-181700000D01*
X133125000Y-180975000D02*
X133125000Y-182625000D01*
X134450000Y-181900000D02*
X134600000Y-181700000D01*
X133125000Y-182625000D02*
X134775000Y-182625000D01*
X134450000Y-181700000D02*
X134450000Y-181900000D01*
X134300000Y-181700000D02*
X134600000Y-181700000D01*
X134775000Y-182625000D02*
X134775000Y-180975000D01*
X134775000Y-180975000D02*
X133125000Y-180975000D01*
%TO.C,D3*%
X293000000Y-32600000D02*
X293150000Y-32400000D01*
X292850000Y-32400000D02*
X293150000Y-32400000D01*
X293000000Y-32600000D02*
X292850000Y-32400000D01*
X291675000Y-33325000D02*
X293325000Y-33325000D01*
X293325000Y-31675000D02*
X291675000Y-31675000D01*
X293325000Y-33325000D02*
X293325000Y-31675000D01*
X293000000Y-32400000D02*
X293000000Y-32600000D01*
X291675000Y-31675000D02*
X291675000Y-33325000D01*
X134775000Y-173975000D02*
X133125000Y-173975000D01*
X134775000Y-175625000D02*
X134775000Y-173975000D01*
X134300000Y-174700000D02*
X134600000Y-174700000D01*
X133125000Y-173975000D02*
X133125000Y-175625000D01*
X134450000Y-174900000D02*
X134300000Y-174700000D01*
X133125000Y-175625000D02*
X134775000Y-175625000D01*
X134450000Y-174900000D02*
X134600000Y-174700000D01*
X134450000Y-174700000D02*
X134450000Y-174900000D01*
X136675000Y-111675000D02*
X136675000Y-113325000D01*
X138000000Y-112600000D02*
X138150000Y-112400000D01*
X138325000Y-111675000D02*
X136675000Y-111675000D01*
X138000000Y-112400000D02*
X138000000Y-112600000D01*
X138325000Y-113325000D02*
X138325000Y-111675000D01*
X137850000Y-112400000D02*
X138150000Y-112400000D01*
X138000000Y-112600000D02*
X137850000Y-112400000D01*
X136675000Y-113325000D02*
X138325000Y-113325000D01*
%TO.C,D2*%
X134450000Y-168200000D02*
X134450000Y-168400000D01*
X134775000Y-169125000D02*
X134775000Y-167475000D01*
X134450000Y-168400000D02*
X134600000Y-168200000D01*
X133125000Y-169125000D02*
X134775000Y-169125000D01*
X134775000Y-167475000D02*
X133125000Y-167475000D01*
X134450000Y-168400000D02*
X134300000Y-168200000D01*
X134300000Y-168200000D02*
X134600000Y-168200000D01*
X133125000Y-167475000D02*
X133125000Y-169125000D01*
%TD*%
%LPC*%
D11*
%TO.C,J1*%
X283697038Y-158884520D03*
X283697038Y-164664520D03*
D12*
X287347038Y-166094520D03*
X287347038Y-157454520D03*
D13*
X283167038Y-157454520D03*
X283167038Y-166094520D03*
%TD*%
D14*
%TO.C,J1*%
X270680000Y-90630000D03*
D15*
X279320000Y-86450000D03*
X270680000Y-86450000D03*
D14*
X279320000Y-90630000D03*
D11*
X272110000Y-90100000D03*
X277890000Y-90100000D03*
%TD*%
M02*
