%TF.GenerationSoftware,KiCad,Pcbnew,(6.0.4)*%
%TF.CreationDate,2022-05-27T00:32:28-07:00*%
%TF.ProjectId,bot_L,626f745f-4c2e-46b6-9963-61645f706362,rev?*%
%TF.SameCoordinates,Original*%
%TF.FileFunction,Soldermask,Top*%
%TF.FilePolarity,Negative*%
%FSLAX46Y46*%
G04 Gerber Fmt 4.6, Leading zero omitted, Abs format (unit mm)*
G04 Created by KiCad (PCBNEW (6.0.4)) date 2022-05-27 00:32:28*
%MOMM*%
%LPD*%
G01*
G04 APERTURE LIST*
G04 Aperture macros list*
%AMRoundRect*
0 Rectangle with rounded corners*
0 $1 Rounding radius*
0 $2 $3 $4 $5 $6 $7 $8 $9 X,Y pos of 4 corners*
0 Add a 4 corners polygon primitive as box body*
4,1,4,$2,$3,$4,$5,$6,$7,$8,$9,$2,$3,0*
0 Add four circle primitives for the rounded corners*
1,1,$1+$1,$2,$3*
1,1,$1+$1,$4,$5*
1,1,$1+$1,$6,$7*
1,1,$1+$1,$8,$9*
0 Add four rect primitives between the rounded corners*
20,1,$1+$1,$2,$3,$4,$5,0*
20,1,$1+$1,$4,$5,$6,$7,0*
20,1,$1+$1,$6,$7,$8,$9,0*
20,1,$1+$1,$8,$9,$2,$3,0*%
G04 Aperture macros list end*
%ADD10C,0.650000*%
%ADD11R,1.450000X0.600000*%
%ADD12R,1.450000X0.300000*%
%ADD13O,1.600000X1.000000*%
%ADD14O,2.100000X1.000000*%
%ADD15O,1.000000X2.100000*%
%ADD16O,1.000000X1.600000*%
%ADD17R,0.600000X1.450000*%
%ADD18R,0.300000X1.450000*%
%ADD19RoundRect,0.140000X-0.140000X-0.170000X0.140000X-0.170000X0.140000X0.170000X-0.140000X0.170000X0*%
%ADD20R,0.550000X0.550000*%
%ADD21RoundRect,0.250000X0.250000X0.475000X-0.250000X0.475000X-0.250000X-0.475000X0.250000X-0.475000X0*%
%ADD22RoundRect,0.200000X0.200000X0.275000X-0.200000X0.275000X-0.200000X-0.275000X0.200000X-0.275000X0*%
%ADD23RoundRect,0.150000X-0.875000X-0.150000X0.875000X-0.150000X0.875000X0.150000X-0.875000X0.150000X0*%
%ADD24RoundRect,0.140000X-0.170000X0.140000X-0.170000X-0.140000X0.170000X-0.140000X0.170000X0.140000X0*%
%ADD25RoundRect,0.200000X0.275000X-0.200000X0.275000X0.200000X-0.275000X0.200000X-0.275000X-0.200000X0*%
%ADD26RoundRect,0.200000X-0.200000X-0.275000X0.200000X-0.275000X0.200000X0.275000X-0.200000X0.275000X0*%
%ADD27RoundRect,0.150000X0.512500X0.150000X-0.512500X0.150000X-0.512500X-0.150000X0.512500X-0.150000X0*%
%ADD28RoundRect,0.150000X-0.150000X0.512500X-0.150000X-0.512500X0.150000X-0.512500X0.150000X0.512500X0*%
%ADD29R,0.900000X1.000000*%
%ADD30R,0.400000X1.825000*%
%ADD31R,1.200000X1.200000*%
%ADD32R,1.500000X1.200000*%
%ADD33R,0.400000X2.012500*%
%ADD34RoundRect,0.150000X0.150000X-0.512500X0.150000X0.512500X-0.150000X0.512500X-0.150000X-0.512500X0*%
%ADD35RoundRect,0.140000X0.140000X0.170000X-0.140000X0.170000X-0.140000X-0.170000X0.140000X-0.170000X0*%
%ADD36RoundRect,0.140000X0.170000X-0.140000X0.170000X0.140000X-0.170000X0.140000X-0.170000X-0.140000X0*%
%ADD37R,1.981200X0.558800*%
%ADD38RoundRect,0.250000X0.475000X-0.250000X0.475000X0.250000X-0.475000X0.250000X-0.475000X-0.250000X0*%
%ADD39RoundRect,0.250000X-0.250000X-0.475000X0.250000X-0.475000X0.250000X0.475000X-0.250000X0.475000X0*%
%ADD40RoundRect,0.200000X-0.275000X0.200000X-0.275000X-0.200000X0.275000X-0.200000X0.275000X0.200000X0*%
%ADD41R,1.400000X1.200000*%
%ADD42RoundRect,0.150000X0.650000X0.150000X-0.650000X0.150000X-0.650000X-0.150000X0.650000X-0.150000X0*%
%ADD43RoundRect,0.135000X0.135000X0.185000X-0.135000X0.185000X-0.135000X-0.185000X0.135000X-0.185000X0*%
%ADD44RoundRect,0.250000X-0.475000X0.250000X-0.475000X-0.250000X0.475000X-0.250000X0.475000X0.250000X0*%
%ADD45R,0.900000X1.200000*%
%ADD46R,1.200000X0.900000*%
%ADD47RoundRect,0.050000X-0.050000X0.387500X-0.050000X-0.387500X0.050000X-0.387500X0.050000X0.387500X0*%
%ADD48RoundRect,0.050000X-0.387500X0.050000X-0.387500X-0.050000X0.387500X-0.050000X0.387500X0.050000X0*%
%ADD49RoundRect,0.144000X-1.456000X1.456000X-1.456000X-1.456000X1.456000X-1.456000X1.456000X1.456000X0*%
G04 APERTURE END LIST*
D10*
%TO.C,J1*%
X283697038Y-158884520D03*
X283697038Y-164664520D03*
D11*
X282252038Y-165024520D03*
X282252038Y-164224520D03*
D12*
X282252038Y-163024520D03*
X282252038Y-162024520D03*
X282252038Y-161524520D03*
X282252038Y-160524520D03*
D11*
X282252038Y-159324520D03*
X282252038Y-158524520D03*
X282252038Y-158524520D03*
X282252038Y-159324520D03*
D12*
X282252038Y-160024520D03*
X282252038Y-161024520D03*
X282252038Y-162524520D03*
X282252038Y-163524520D03*
D11*
X282252038Y-164224520D03*
X282252038Y-165024520D03*
D13*
X287347038Y-166094520D03*
X287347038Y-157454520D03*
D14*
X283167038Y-157454520D03*
X283167038Y-166094520D03*
%TD*%
D15*
%TO.C,J1*%
X270680000Y-90630000D03*
D16*
X279320000Y-86450000D03*
X270680000Y-86450000D03*
D15*
X279320000Y-90630000D03*
D17*
X278250000Y-91545000D03*
X277450000Y-91545000D03*
D18*
X276750000Y-91545000D03*
X275750000Y-91545000D03*
X274250000Y-91545000D03*
X273250000Y-91545000D03*
D17*
X272550000Y-91545000D03*
X271750000Y-91545000D03*
X271750000Y-91545000D03*
X272550000Y-91545000D03*
D18*
X273750000Y-91545000D03*
X274750000Y-91545000D03*
X275250000Y-91545000D03*
X276250000Y-91545000D03*
D17*
X277450000Y-91545000D03*
X278250000Y-91545000D03*
D10*
X272110000Y-90100000D03*
X277890000Y-90100000D03*
%TD*%
D19*
%TO.C,C7*%
X247417038Y-158624520D03*
X248377038Y-158624520D03*
%TD*%
D20*
%TO.C,D3*%
X212025000Y-97975000D03*
X212975000Y-97975000D03*
X212975000Y-97025000D03*
X212025000Y-97025000D03*
%TD*%
D21*
%TO.C,C6*%
X163700000Y-61500000D03*
X161800000Y-61500000D03*
%TD*%
D22*
%TO.C,R26*%
X82325000Y-173500000D03*
X80675000Y-173500000D03*
%TD*%
D23*
%TO.C,U2*%
X88920118Y-36555000D03*
X88920118Y-37825000D03*
X88920118Y-39095000D03*
X88920118Y-40365000D03*
X88920118Y-41635000D03*
X88920118Y-42905000D03*
X88920118Y-44175000D03*
X88920118Y-45445000D03*
X98220118Y-45445000D03*
X98220118Y-44175000D03*
X98220118Y-42905000D03*
X98220118Y-41635000D03*
X98220118Y-40365000D03*
X98220118Y-39095000D03*
X98220118Y-37825000D03*
X98220118Y-36555000D03*
%TD*%
D24*
%TO.C,C8*%
X245897038Y-163944520D03*
X245897038Y-164904520D03*
%TD*%
D25*
%TO.C,R14*%
X32320118Y-40825000D03*
X32320118Y-39175000D03*
%TD*%
D26*
%TO.C,R15*%
X37495118Y-35000000D03*
X39145118Y-35000000D03*
%TD*%
D27*
%TO.C,U3*%
X47387500Y-136450000D03*
X47387500Y-135500000D03*
X47387500Y-134550000D03*
X45112500Y-134550000D03*
X45112500Y-136450000D03*
%TD*%
D28*
%TO.C,U1*%
X36770118Y-41362500D03*
X35820118Y-41362500D03*
X34870118Y-41362500D03*
X34870118Y-43637500D03*
X36770118Y-43637500D03*
%TD*%
D22*
%TO.C,R2*%
X82325000Y-155750000D03*
X80675000Y-155750000D03*
%TD*%
D26*
%TO.C,R41*%
X264222038Y-176274520D03*
X265872038Y-176274520D03*
%TD*%
%TO.C,R8*%
X275972038Y-154774520D03*
X277622038Y-154774520D03*
%TD*%
D23*
%TO.C,U9*%
X250397038Y-173829520D03*
X250397038Y-175099520D03*
X250397038Y-176369520D03*
X250397038Y-177639520D03*
X250397038Y-178909520D03*
X250397038Y-180179520D03*
X250397038Y-181449520D03*
X250397038Y-182719520D03*
X259697038Y-182719520D03*
X259697038Y-181449520D03*
X259697038Y-180179520D03*
X259697038Y-178909520D03*
X259697038Y-177639520D03*
X259697038Y-176369520D03*
X259697038Y-175099520D03*
X259697038Y-173829520D03*
%TD*%
D29*
%TO.C,SW3*%
X129000000Y-188000000D03*
X124900000Y-188000000D03*
X129000000Y-189600000D03*
X124900000Y-189600000D03*
%TD*%
D19*
%TO.C,C17*%
X247417038Y-161424520D03*
X248377038Y-161424520D03*
%TD*%
D30*
%TO.C,P1*%
X234750000Y-49750000D03*
X236250000Y-49750000D03*
X236750000Y-49750000D03*
X237250000Y-49750000D03*
X237750000Y-49750000D03*
X239250000Y-49750000D03*
X239750000Y-49750000D03*
X240250000Y-49750000D03*
X238750000Y-49750000D03*
X238250000Y-49750000D03*
X235750000Y-49750000D03*
X235250000Y-49750000D03*
D31*
X235750000Y-45200000D03*
D32*
X242050000Y-45250000D03*
D31*
X238750000Y-46950000D03*
X239250000Y-45200000D03*
D33*
X240750000Y-49650000D03*
X234250000Y-49656250D03*
D31*
X236250000Y-46950000D03*
D32*
X232950000Y-47850000D03*
X232950000Y-45200000D03*
X242050000Y-47900000D03*
%TD*%
D22*
%TO.C,R28*%
X230522038Y-157824520D03*
X228872038Y-157824520D03*
%TD*%
D34*
%TO.C,U1*%
X261547038Y-163562020D03*
X262497038Y-163562020D03*
X263447038Y-163562020D03*
X263447038Y-161287020D03*
X261547038Y-161287020D03*
%TD*%
D35*
%TO.C,C1*%
X237177038Y-159624520D03*
X236217038Y-159624520D03*
%TD*%
D36*
%TO.C,C5*%
X241297038Y-153504520D03*
X241297038Y-152544520D03*
%TD*%
D34*
%TO.C,U1*%
X166300000Y-61387500D03*
X167250000Y-61387500D03*
X168200000Y-61387500D03*
X168200000Y-59112500D03*
X166300000Y-59112500D03*
%TD*%
D37*
%TO.C,U8*%
X211083238Y-156964520D03*
X211083238Y-158234520D03*
X211083238Y-159504520D03*
X211083238Y-160774520D03*
X211083238Y-162044520D03*
X211083238Y-163314520D03*
X211083238Y-164584520D03*
X216010838Y-164584520D03*
X216010838Y-163314520D03*
X216010838Y-162044520D03*
X216010838Y-160774520D03*
X216010838Y-159504520D03*
X216010838Y-158234520D03*
X216010838Y-156964520D03*
%TD*%
D22*
%TO.C,R20*%
X82325000Y-157500000D03*
X80675000Y-157500000D03*
%TD*%
D38*
%TO.C,C22*%
X260297038Y-171224520D03*
X260297038Y-169324520D03*
%TD*%
D26*
%TO.C,R22*%
X80425000Y-167500000D03*
X82075000Y-167500000D03*
%TD*%
D39*
%TO.C,C1*%
X80550000Y-146500000D03*
X82450000Y-146500000D03*
%TD*%
D22*
%TO.C,R19*%
X103820118Y-59250000D03*
X102170118Y-59250000D03*
%TD*%
D19*
%TO.C,C16*%
X247417038Y-160424520D03*
X248377038Y-160424520D03*
%TD*%
D39*
%TO.C,C16*%
X102045118Y-37800000D03*
X103945118Y-37800000D03*
%TD*%
D26*
%TO.C,R21*%
X102170118Y-55800000D03*
X103820118Y-55800000D03*
%TD*%
%TO.C,R1*%
X80425000Y-135500000D03*
X82075000Y-135500000D03*
%TD*%
D40*
%TO.C,R2*%
X170750000Y-61925000D03*
X170750000Y-63575000D03*
%TD*%
D26*
%TO.C,R23*%
X49425000Y-133000000D03*
X51075000Y-133000000D03*
%TD*%
D41*
%TO.C,Y1*%
X224797038Y-159674520D03*
X226997038Y-159674520D03*
X226997038Y-157974520D03*
X224797038Y-157974520D03*
%TD*%
D26*
%TO.C,R4*%
X275972038Y-159274520D03*
X277622038Y-159274520D03*
%TD*%
%TO.C,R20*%
X102170118Y-70800000D03*
X103820118Y-70800000D03*
%TD*%
D42*
%TO.C,U2*%
X257097038Y-146929520D03*
X257097038Y-145659520D03*
X257097038Y-144389520D03*
X257097038Y-143119520D03*
X249897038Y-143119520D03*
X249897038Y-144389520D03*
X249897038Y-145659520D03*
X249897038Y-146929520D03*
%TD*%
D23*
%TO.C,U3*%
X88920118Y-66555000D03*
X88920118Y-67825000D03*
X88920118Y-69095000D03*
X88920118Y-70365000D03*
X88920118Y-71635000D03*
X88920118Y-72905000D03*
X88920118Y-74175000D03*
X88920118Y-75445000D03*
X98220118Y-75445000D03*
X98220118Y-74175000D03*
X98220118Y-72905000D03*
X98220118Y-71635000D03*
X98220118Y-70365000D03*
X98220118Y-69095000D03*
X98220118Y-67825000D03*
X98220118Y-66555000D03*
%TD*%
D43*
%TO.C,R7*%
X250607038Y-160224520D03*
X249587038Y-160224520D03*
%TD*%
D25*
%TO.C,R3*%
X162750000Y-66325000D03*
X162750000Y-64675000D03*
%TD*%
D29*
%TO.C,SW4*%
X282347038Y-137974520D03*
X278247038Y-137974520D03*
X278247038Y-139574520D03*
X282347038Y-139574520D03*
%TD*%
D44*
%TO.C,C12*%
X267697038Y-162074520D03*
X267697038Y-163974520D03*
%TD*%
D25*
%TO.C,R1*%
X265497038Y-163849520D03*
X265497038Y-162199520D03*
%TD*%
D44*
%TO.C,C13*%
X34320118Y-46050000D03*
X34320118Y-47950000D03*
%TD*%
%TO.C,C14*%
X36820118Y-46050000D03*
X36820118Y-47950000D03*
%TD*%
D20*
%TO.C,D4*%
X133475000Y-182275000D03*
X134425000Y-182275000D03*
X134425000Y-181325000D03*
X133475000Y-181325000D03*
%TD*%
%TO.C,D3*%
X292025000Y-32975000D03*
X292975000Y-32975000D03*
X292975000Y-32025000D03*
X292025000Y-32025000D03*
%TD*%
D39*
%TO.C,C9*%
X80550000Y-131000000D03*
X82450000Y-131000000D03*
%TD*%
D36*
%TO.C,C4*%
X245897038Y-153504520D03*
X245897038Y-152544520D03*
%TD*%
D45*
%TO.C,D1*%
X49600000Y-136500000D03*
X52900000Y-136500000D03*
%TD*%
D39*
%TO.C,C8*%
X80550000Y-133500000D03*
X82450000Y-133500000D03*
%TD*%
D38*
%TO.C,C11*%
X261497038Y-159374520D03*
X261497038Y-157474520D03*
%TD*%
D35*
%TO.C,C6*%
X237177038Y-158624520D03*
X236217038Y-158624520D03*
%TD*%
D39*
%TO.C,C20*%
X102045118Y-68800000D03*
X103945118Y-68800000D03*
%TD*%
D24*
%TO.C,C3*%
X241297038Y-163944520D03*
X241297038Y-164904520D03*
%TD*%
D26*
%TO.C,R19*%
X274272038Y-147974520D03*
X275922038Y-147974520D03*
%TD*%
D29*
%TO.C,SW5*%
X278247038Y-146174520D03*
X282347038Y-146174520D03*
X278247038Y-147774520D03*
X282347038Y-147774520D03*
%TD*%
D39*
%TO.C,C4*%
X80550000Y-165500000D03*
X82450000Y-165500000D03*
%TD*%
%TO.C,C19*%
X102045118Y-51300000D03*
X103945118Y-51300000D03*
%TD*%
D38*
%TO.C,C5*%
X165750000Y-56700000D03*
X165750000Y-54800000D03*
%TD*%
D39*
%TO.C,C8*%
X180550000Y-40500000D03*
X182450000Y-40500000D03*
%TD*%
D19*
%TO.C,C9*%
X247417038Y-162424520D03*
X248377038Y-162424520D03*
%TD*%
%TO.C,C2*%
X247417038Y-157624520D03*
X248377038Y-157624520D03*
%TD*%
D22*
%TO.C,R19*%
X82325000Y-171750000D03*
X80675000Y-171750000D03*
%TD*%
D35*
%TO.C,C20*%
X226377038Y-156024520D03*
X225417038Y-156024520D03*
%TD*%
D46*
%TO.C,D13*%
X35320118Y-38650000D03*
X35320118Y-35350000D03*
%TD*%
D22*
%TO.C,R42*%
X265872038Y-181024520D03*
X264222038Y-181024520D03*
%TD*%
D23*
%TO.C,U2*%
X67850000Y-148055000D03*
X67850000Y-149325000D03*
X67850000Y-150595000D03*
X67850000Y-151865000D03*
X67850000Y-153135000D03*
X67850000Y-154405000D03*
X67850000Y-155675000D03*
X67850000Y-156945000D03*
X77150000Y-156945000D03*
X77150000Y-155675000D03*
X77150000Y-154405000D03*
X77150000Y-153135000D03*
X77150000Y-151865000D03*
X77150000Y-150595000D03*
X77150000Y-149325000D03*
X77150000Y-148055000D03*
%TD*%
D45*
%TO.C,D1*%
X267447038Y-160024520D03*
X270747038Y-160024520D03*
%TD*%
D20*
%TO.C,D3*%
X133475000Y-175275000D03*
X134425000Y-175275000D03*
X134425000Y-174325000D03*
X133475000Y-174325000D03*
%TD*%
D22*
%TO.C,R24*%
X103820118Y-43250000D03*
X102170118Y-43250000D03*
%TD*%
D21*
%TO.C,C5*%
X42700000Y-137000000D03*
X40800000Y-137000000D03*
%TD*%
D43*
%TO.C,R6*%
X250607038Y-159224520D03*
X249587038Y-159224520D03*
%TD*%
D22*
%TO.C,R24*%
X53075000Y-139000000D03*
X51425000Y-139000000D03*
%TD*%
D39*
%TO.C,C2*%
X80550000Y-149000000D03*
X82450000Y-149000000D03*
%TD*%
D23*
%TO.C,U4*%
X88920118Y-51555000D03*
X88920118Y-52825000D03*
X88920118Y-54095000D03*
X88920118Y-55365000D03*
X88920118Y-56635000D03*
X88920118Y-57905000D03*
X88920118Y-59175000D03*
X88920118Y-60445000D03*
X98220118Y-60445000D03*
X98220118Y-59175000D03*
X98220118Y-57905000D03*
X98220118Y-56635000D03*
X98220118Y-55365000D03*
X98220118Y-54095000D03*
X98220118Y-52825000D03*
X98220118Y-51555000D03*
%TD*%
D38*
%TO.C,C4*%
X168500000Y-56700000D03*
X168500000Y-54800000D03*
%TD*%
D35*
%TO.C,C18*%
X247777038Y-147024520D03*
X246817038Y-147024520D03*
%TD*%
D22*
%TO.C,R25*%
X82075000Y-139750000D03*
X80425000Y-139750000D03*
%TD*%
%TO.C,R6*%
X182325000Y-48000000D03*
X180675000Y-48000000D03*
%TD*%
%TO.C,R18*%
X103820118Y-57500000D03*
X102170118Y-57500000D03*
%TD*%
D26*
%TO.C,R17*%
X102170118Y-39800000D03*
X103820118Y-39800000D03*
%TD*%
D22*
%TO.C,R23*%
X103820118Y-41500000D03*
X102170118Y-41500000D03*
%TD*%
D38*
%TO.C,C21*%
X258047038Y-171224520D03*
X258047038Y-169324520D03*
%TD*%
D39*
%TO.C,C18*%
X102045118Y-53800000D03*
X103945118Y-53800000D03*
%TD*%
D26*
%TO.C,R10*%
X274272038Y-139774520D03*
X275922038Y-139774520D03*
%TD*%
%TO.C,R5*%
X180675000Y-43000000D03*
X182325000Y-43000000D03*
%TD*%
%TO.C,R18*%
X80425000Y-151000000D03*
X82075000Y-151000000D03*
%TD*%
D22*
%TO.C,R22*%
X103820118Y-72500000D03*
X102170118Y-72500000D03*
%TD*%
%TO.C,R3*%
X82075000Y-141500000D03*
X80425000Y-141500000D03*
%TD*%
D21*
%TO.C,C6*%
X42700000Y-134250000D03*
X40800000Y-134250000D03*
%TD*%
D44*
%TO.C,C7*%
X47750000Y-139300000D03*
X47750000Y-141200000D03*
%TD*%
D38*
%TO.C,C10*%
X263697038Y-159374520D03*
X263697038Y-157474520D03*
%TD*%
D46*
%TO.C,D4*%
X166200000Y-63850000D03*
X166200000Y-67150000D03*
%TD*%
D29*
%TO.C,SW2*%
X119000000Y-188000000D03*
X114900000Y-188000000D03*
X114900000Y-189600000D03*
X119000000Y-189600000D03*
%TD*%
D38*
%TO.C,C15*%
X39320118Y-38950000D03*
X39320118Y-37050000D03*
%TD*%
D22*
%TO.C,R25*%
X103820118Y-74250000D03*
X102170118Y-74250000D03*
%TD*%
D39*
%TO.C,C3*%
X80550000Y-163000000D03*
X82450000Y-163000000D03*
%TD*%
D21*
%TO.C,C7*%
X164450000Y-45500000D03*
X162550000Y-45500000D03*
%TD*%
D22*
%TO.C,R43*%
X265872038Y-182774520D03*
X264222038Y-182774520D03*
%TD*%
D40*
%TO.C,R2*%
X270697038Y-161999520D03*
X270697038Y-163649520D03*
%TD*%
D26*
%TO.C,R3*%
X275972038Y-164274520D03*
X277622038Y-164274520D03*
%TD*%
D22*
%TO.C,R9*%
X261122038Y-147024520D03*
X259472038Y-147024520D03*
%TD*%
D36*
%TO.C,C19*%
X222897038Y-159304520D03*
X222897038Y-158344520D03*
%TD*%
D29*
%TO.C,SW1*%
X177500000Y-145000000D03*
X173400000Y-145000000D03*
X173400000Y-146600000D03*
X177500000Y-146600000D03*
%TD*%
D20*
%TO.C,D3*%
X137025000Y-112975000D03*
X137975000Y-112975000D03*
X137975000Y-112025000D03*
X137025000Y-112025000D03*
%TD*%
D23*
%TO.C,U4*%
X67850000Y-164055000D03*
X67850000Y-165325000D03*
X67850000Y-166595000D03*
X67850000Y-167865000D03*
X67850000Y-169135000D03*
X67850000Y-170405000D03*
X67850000Y-171675000D03*
X67850000Y-172945000D03*
X77150000Y-172945000D03*
X77150000Y-171675000D03*
X77150000Y-170405000D03*
X77150000Y-169135000D03*
X77150000Y-167865000D03*
X77150000Y-166595000D03*
X77150000Y-165325000D03*
X77150000Y-164055000D03*
%TD*%
%TO.C,U1*%
X67850000Y-132055000D03*
X67850000Y-133325000D03*
X67850000Y-134595000D03*
X67850000Y-135865000D03*
X67850000Y-137135000D03*
X67850000Y-138405000D03*
X67850000Y-139675000D03*
X67850000Y-140945000D03*
X77150000Y-140945000D03*
X77150000Y-139675000D03*
X77150000Y-138405000D03*
X77150000Y-137135000D03*
X77150000Y-135865000D03*
X77150000Y-134595000D03*
X77150000Y-133325000D03*
X77150000Y-132055000D03*
%TD*%
D22*
%TO.C,R7*%
X182325000Y-50000000D03*
X180675000Y-50000000D03*
%TD*%
D39*
%TO.C,C17*%
X102045118Y-35300000D03*
X103945118Y-35300000D03*
%TD*%
D20*
%TO.C,D2*%
X133475000Y-168775000D03*
X134425000Y-168775000D03*
X134425000Y-167825000D03*
X133475000Y-167825000D03*
%TD*%
D23*
%TO.C,U2*%
X167850000Y-40555000D03*
X167850000Y-41825000D03*
X167850000Y-43095000D03*
X167850000Y-44365000D03*
X167850000Y-45635000D03*
X167850000Y-46905000D03*
X167850000Y-48175000D03*
X167850000Y-49445000D03*
X177150000Y-49445000D03*
X177150000Y-48175000D03*
X177150000Y-46905000D03*
X177150000Y-45635000D03*
X177150000Y-44365000D03*
X177150000Y-43095000D03*
X177150000Y-41825000D03*
X177150000Y-40555000D03*
%TD*%
D39*
%TO.C,C21*%
X102045118Y-66300000D03*
X103945118Y-66300000D03*
%TD*%
D47*
%TO.C,U3*%
X244897038Y-155337020D03*
X244497038Y-155337020D03*
X244097038Y-155337020D03*
X243697038Y-155337020D03*
X243297038Y-155337020D03*
X242897038Y-155337020D03*
X242497038Y-155337020D03*
X242097038Y-155337020D03*
X241697038Y-155337020D03*
X241297038Y-155337020D03*
X240897038Y-155337020D03*
X240497038Y-155337020D03*
X240097038Y-155337020D03*
X239697038Y-155337020D03*
D48*
X238859538Y-156174520D03*
X238859538Y-156574520D03*
X238859538Y-156974520D03*
X238859538Y-157374520D03*
X238859538Y-157774520D03*
X238859538Y-158174520D03*
X238859538Y-158574520D03*
X238859538Y-158974520D03*
X238859538Y-159374520D03*
X238859538Y-159774520D03*
X238859538Y-160174520D03*
X238859538Y-160574520D03*
X238859538Y-160974520D03*
X238859538Y-161374520D03*
D47*
X239697038Y-162212020D03*
X240097038Y-162212020D03*
X240497038Y-162212020D03*
X240897038Y-162212020D03*
X241297038Y-162212020D03*
X241697038Y-162212020D03*
X242097038Y-162212020D03*
X242497038Y-162212020D03*
X242897038Y-162212020D03*
X243297038Y-162212020D03*
X243697038Y-162212020D03*
X244097038Y-162212020D03*
X244497038Y-162212020D03*
X244897038Y-162212020D03*
D48*
X245734538Y-161374520D03*
X245734538Y-160974520D03*
X245734538Y-160574520D03*
X245734538Y-160174520D03*
X245734538Y-159774520D03*
X245734538Y-159374520D03*
X245734538Y-158974520D03*
X245734538Y-158574520D03*
X245734538Y-158174520D03*
X245734538Y-157774520D03*
X245734538Y-157374520D03*
X245734538Y-156974520D03*
X245734538Y-156574520D03*
X245734538Y-156174520D03*
D49*
X242297038Y-158774520D03*
%TD*%
M02*
