%TF.GenerationSoftware,KiCad,Pcbnew,(6.0.4)*%
%TF.CreationDate,2022-05-26T23:51:57-07:00*%
%TF.ProjectId,top_L,746f705f-4c2e-46b6-9963-61645f706362,rev?*%
%TF.SameCoordinates,Original*%
%TF.FileFunction,Legend,Bot*%
%TF.FilePolarity,Positive*%
%FSLAX46Y46*%
G04 Gerber Fmt 4.6, Leading zero omitted, Abs format (unit mm)*
G04 Created by KiCad (PCBNEW (6.0.4)) date 2022-05-26 23:51:57*
%MOMM*%
%LPD*%
G01*
G04 APERTURE LIST*
G04 Aperture macros list*
%AMRoundRect*
0 Rectangle with rounded corners*
0 $1 Rounding radius*
0 $2 $3 $4 $5 $6 $7 $8 $9 X,Y pos of 4 corners*
0 Add a 4 corners polygon primitive as box body*
4,1,4,$2,$3,$4,$5,$6,$7,$8,$9,$2,$3,0*
0 Add four circle primitives for the rounded corners*
1,1,$1+$1,$2,$3*
1,1,$1+$1,$4,$5*
1,1,$1+$1,$6,$7*
1,1,$1+$1,$8,$9*
0 Add four rect primitives between the rounded corners*
20,1,$1+$1,$2,$3,$4,$5,0*
20,1,$1+$1,$4,$5,$6,$7,0*
20,1,$1+$1,$6,$7,$8,$9,0*
20,1,$1+$1,$8,$9,$2,$3,0*%
G04 Aperture macros list end*
%ADD10C,0.150000*%
%ADD11C,0.250000*%
%ADD12C,0.062500*%
%ADD13C,0.120000*%
%ADD14C,0.100000*%
%ADD15C,0.010000*%
%ADD16R,1.524000X2.524000*%
%ADD17O,1.524000X2.524000*%
%ADD18C,2.200000*%
%ADD19RoundRect,0.200000X0.200000X0.275000X-0.200000X0.275000X-0.200000X-0.275000X0.200000X-0.275000X0*%
%ADD20RoundRect,0.140000X0.170000X-0.140000X0.170000X0.140000X-0.170000X0.140000X-0.170000X-0.140000X0*%
%ADD21RoundRect,0.200000X-0.275000X0.200000X-0.275000X-0.200000X0.275000X-0.200000X0.275000X0.200000X0*%
%ADD22RoundRect,0.200000X0.275000X-0.200000X0.275000X0.200000X-0.275000X0.200000X-0.275000X-0.200000X0*%
%ADD23RoundRect,0.140000X-0.140000X-0.170000X0.140000X-0.170000X0.140000X0.170000X-0.140000X0.170000X0*%
%ADD24RoundRect,0.150000X0.587500X0.150000X-0.587500X0.150000X-0.587500X-0.150000X0.587500X-0.150000X0*%
%ADD25RoundRect,0.200000X-0.200000X-0.275000X0.200000X-0.275000X0.200000X0.275000X-0.200000X0.275000X0*%
%ADD26RoundRect,0.250000X0.475000X-0.250000X0.475000X0.250000X-0.475000X0.250000X-0.475000X-0.250000X0*%
%ADD27RoundRect,0.140000X0.140000X0.170000X-0.140000X0.170000X-0.140000X-0.170000X0.140000X-0.170000X0*%
%ADD28RoundRect,0.150000X-0.650000X-0.150000X0.650000X-0.150000X0.650000X0.150000X-0.650000X0.150000X0*%
%ADD29RoundRect,0.150000X-0.587500X-0.150000X0.587500X-0.150000X0.587500X0.150000X-0.587500X0.150000X0*%
%ADD30RoundRect,0.250000X-0.475000X0.250000X-0.475000X-0.250000X0.475000X-0.250000X0.475000X0.250000X0*%
%ADD31RoundRect,0.250000X0.250000X0.475000X-0.250000X0.475000X-0.250000X-0.475000X0.250000X-0.475000X0*%
%ADD32RoundRect,0.150000X0.875000X0.150000X-0.875000X0.150000X-0.875000X-0.150000X0.875000X-0.150000X0*%
%ADD33C,0.650000*%
%ADD34R,1.450000X0.600000*%
%ADD35R,1.450000X0.300000*%
%ADD36O,2.100000X1.000000*%
%ADD37O,1.600000X1.000000*%
%ADD38RoundRect,0.050000X-0.050000X0.387500X-0.050000X-0.387500X0.050000X-0.387500X0.050000X0.387500X0*%
%ADD39RoundRect,0.050000X-0.387500X0.050000X-0.387500X-0.050000X0.387500X-0.050000X0.387500X0.050000X0*%
%ADD40RoundRect,0.144000X-1.456000X1.456000X-1.456000X-1.456000X1.456000X-1.456000X1.456000X1.456000X0*%
%ADD41RoundRect,0.135000X-0.135000X-0.185000X0.135000X-0.185000X0.135000X0.185000X-0.135000X0.185000X0*%
%ADD42R,0.900000X1.200000*%
%ADD43RoundRect,0.150000X0.150000X-0.512500X0.150000X0.512500X-0.150000X0.512500X-0.150000X-0.512500X0*%
%ADD44R,1.981200X0.558800*%
%ADD45R,1.400000X1.200000*%
%ADD46R,0.900000X1.000000*%
%ADD47RoundRect,0.140000X-0.170000X0.140000X-0.170000X-0.140000X0.170000X-0.140000X0.170000X0.140000X0*%
%ADD48R,1.825000X0.400000*%
%ADD49R,1.200000X1.500000*%
%ADD50R,2.012500X0.400000*%
%ADD51R,1.200000X1.200000*%
%ADD52R,0.600000X1.450000*%
%ADD53R,0.300000X1.450000*%
%ADD54O,1.000000X2.100000*%
%ADD55O,1.000000X1.600000*%
G04 APERTURE END LIST*
D10*
X277880952Y-23047619D02*
X277880952Y-22333333D01*
X277833333Y-22190476D01*
X277738095Y-22095238D01*
X277595238Y-22047619D01*
X277500000Y-22047619D01*
X278833333Y-22047619D02*
X278357142Y-22047619D01*
X278357142Y-23047619D01*
X279738095Y-22142857D02*
X279690476Y-22095238D01*
X279547619Y-22047619D01*
X279452380Y-22047619D01*
X279309523Y-22095238D01*
X279214285Y-22190476D01*
X279166666Y-22285714D01*
X279119047Y-22476190D01*
X279119047Y-22619047D01*
X279166666Y-22809523D01*
X279214285Y-22904761D01*
X279309523Y-23000000D01*
X279452380Y-23047619D01*
X279547619Y-23047619D01*
X279690476Y-23000000D01*
X279738095Y-22952380D01*
X280452380Y-23047619D02*
X280452380Y-22333333D01*
X280404761Y-22190476D01*
X280309523Y-22095238D01*
X280166666Y-22047619D01*
X280071428Y-22047619D01*
X281404761Y-22047619D02*
X280928571Y-22047619D01*
X280928571Y-23047619D01*
X282309523Y-22142857D02*
X282261904Y-22095238D01*
X282119047Y-22047619D01*
X282023809Y-22047619D01*
X281880952Y-22095238D01*
X281785714Y-22190476D01*
X281738095Y-22285714D01*
X281690476Y-22476190D01*
X281690476Y-22619047D01*
X281738095Y-22809523D01*
X281785714Y-22904761D01*
X281880952Y-23000000D01*
X282023809Y-23047619D01*
X282119047Y-23047619D01*
X282261904Y-23000000D01*
X282309523Y-22952380D01*
X283023809Y-23047619D02*
X283023809Y-22333333D01*
X282976190Y-22190476D01*
X282880952Y-22095238D01*
X282738095Y-22047619D01*
X282642857Y-22047619D01*
X283976190Y-22047619D02*
X283500000Y-22047619D01*
X283500000Y-23047619D01*
X284880952Y-22142857D02*
X284833333Y-22095238D01*
X284690476Y-22047619D01*
X284595238Y-22047619D01*
X284452380Y-22095238D01*
X284357142Y-22190476D01*
X284309523Y-22285714D01*
X284261904Y-22476190D01*
X284261904Y-22619047D01*
X284309523Y-22809523D01*
X284357142Y-22904761D01*
X284452380Y-23000000D01*
X284595238Y-23047619D01*
X284690476Y-23047619D01*
X284833333Y-23000000D01*
X284880952Y-22952380D01*
X285595238Y-23047619D02*
X285595238Y-22333333D01*
X285547619Y-22190476D01*
X285452380Y-22095238D01*
X285309523Y-22047619D01*
X285214285Y-22047619D01*
X286547619Y-22047619D02*
X286071428Y-22047619D01*
X286071428Y-23047619D01*
X287452380Y-22142857D02*
X287404761Y-22095238D01*
X287261904Y-22047619D01*
X287166666Y-22047619D01*
X287023809Y-22095238D01*
X286928571Y-22190476D01*
X286880952Y-22285714D01*
X286833333Y-22476190D01*
X286833333Y-22619047D01*
X286880952Y-22809523D01*
X286928571Y-22904761D01*
X287023809Y-23000000D01*
X287166666Y-23047619D01*
X287261904Y-23047619D01*
X287404761Y-23000000D01*
X287452380Y-22952380D01*
X83500000Y-63500000D02*
X83650000Y-63100000D01*
X195800000Y-214200000D02*
G75*
G03*
X195800000Y-214200000I-1500000J0D01*
G01*
X148100000Y-239400000D02*
G75*
G03*
X148100000Y-239400000I-1500000J0D01*
G01*
X250000000Y-224800000D02*
G75*
G03*
X250000000Y-224800000I-1500000J0D01*
G01*
X243600000Y-86600000D02*
G75*
G03*
X243600000Y-86600000I-1500000J0D01*
G01*
X83500000Y-63500000D02*
X83800000Y-63800000D01*
X86000000Y-41000000D02*
X85900000Y-41500000D01*
X252050000Y-243050000D02*
X235550000Y-243050000D01*
X118000000Y-166100000D02*
G75*
G03*
X118000000Y-166100000I-1500000J0D01*
G01*
X162200000Y-236900000D02*
G75*
G03*
X162200000Y-236900000I-1500000J0D01*
G01*
X267200000Y-188400000D02*
G75*
G03*
X267200000Y-188400000I-1500000J0D01*
G01*
X83500000Y-63500002D02*
G75*
G03*
X89500000Y-56000000I-1888340J7660672D01*
G01*
X258000000Y-86600000D02*
G75*
G03*
X258000000Y-86600000I-1500000J0D01*
G01*
X60800000Y-180900000D02*
X61000000Y-180700000D01*
X86000000Y-41000000D02*
X86450000Y-40800000D01*
X252050000Y-241450000D02*
X235550000Y-241450000D01*
X165000000Y-53000000D02*
G75*
G03*
X165000000Y-53000000I-1500000J0D01*
G01*
X289800000Y-152950000D02*
X289800000Y-169450000D01*
X60750000Y-182150000D02*
X61050000Y-181800000D01*
X288200000Y-152950000D02*
X288200000Y-169450000D01*
X60600000Y-178400000D02*
X61000000Y-178600000D01*
X133700000Y-239400000D02*
G75*
G03*
X133700000Y-239400000I-1500000J0D01*
G01*
X224100000Y-178700000D02*
G75*
G03*
X224100000Y-178700000I-1500000J0D01*
G01*
X103600000Y-166100000D02*
G75*
G03*
X103600000Y-166100000I-1500000J0D01*
G01*
X235550000Y-248200000D02*
X252050000Y-248200000D01*
X89499944Y-50049667D02*
G75*
G03*
X86000000Y-41000000I-10527944J1129967D01*
G01*
X294950000Y-169450000D02*
X288200000Y-169450000D01*
X281600000Y-188400000D02*
G75*
G03*
X281600000Y-188400000I-1500000J0D01*
G01*
X294950000Y-152950000D02*
X288200000Y-152950000D01*
X252050000Y-248200000D02*
X252050000Y-241450000D01*
X238500000Y-178700000D02*
G75*
G03*
X238500000Y-178700000I-1500000J0D01*
G01*
X195800000Y-228600000D02*
G75*
G03*
X195800000Y-228600000I-1500000J0D01*
G01*
X294950000Y-169450000D02*
X294950000Y-152950000D01*
X235600000Y-224800000D02*
G75*
G03*
X235600000Y-224800000I-1500000J0D01*
G01*
X187500000Y-178100000D02*
G75*
G03*
X187500000Y-178100000I-1500000J0D01*
G01*
X176600000Y-236900000D02*
G75*
G03*
X176600000Y-236900000I-1500000J0D01*
G01*
X235550000Y-248200000D02*
X235550000Y-241450000D01*
X150600000Y-53000000D02*
G75*
G03*
X150600000Y-53000000I-1500000J0D01*
G01*
D11*
X90797619Y-55238095D02*
X90797619Y-54619047D01*
X90416666Y-54952380D01*
X90416666Y-54809523D01*
X90369047Y-54714285D01*
X90321428Y-54666666D01*
X90226190Y-54619047D01*
X89988095Y-54619047D01*
X89892857Y-54666666D01*
X89845238Y-54714285D01*
X89797619Y-54809523D01*
X89797619Y-55095238D01*
X89845238Y-55190476D01*
X89892857Y-55238095D01*
X90797619Y-53999999D02*
X90797619Y-53904761D01*
X90750000Y-53809523D01*
X90702380Y-53761904D01*
X90607142Y-53714285D01*
X90416666Y-53666666D01*
X90178571Y-53666666D01*
X89988095Y-53714285D01*
X89892857Y-53761904D01*
X89845238Y-53809523D01*
X89797619Y-53904761D01*
X89797619Y-53999999D01*
X89845238Y-54095238D01*
X89892857Y-54142857D01*
X89988095Y-54190476D01*
X90178571Y-54238095D01*
X90416666Y-54238095D01*
X90607142Y-54190476D01*
X90702380Y-54142857D01*
X90750000Y-54095238D01*
X90797619Y-53999999D01*
X90797619Y-53047619D02*
X90797619Y-52952380D01*
X90750000Y-52857142D01*
X90702380Y-52809523D01*
X90607142Y-52761904D01*
X90416666Y-52714285D01*
X90178571Y-52714285D01*
X89988095Y-52761904D01*
X89892857Y-52809523D01*
X89845238Y-52857142D01*
X89797619Y-52952380D01*
X89797619Y-53047619D01*
X89845238Y-53142857D01*
X89892857Y-53190476D01*
X89988095Y-53238095D01*
X90178571Y-53285714D01*
X90416666Y-53285714D01*
X90607142Y-53238095D01*
X90702380Y-53190476D01*
X90750000Y-53142857D01*
X90797619Y-53047619D01*
X89797619Y-51571428D02*
X89797619Y-51333333D01*
X89988095Y-51333333D01*
X90035714Y-51428571D01*
X90130952Y-51523809D01*
X90273809Y-51571428D01*
X90511904Y-51571428D01*
X90654761Y-51523809D01*
X90750000Y-51428571D01*
X90797619Y-51285714D01*
X90797619Y-51095238D01*
X90750000Y-50952380D01*
X90654761Y-50857142D01*
X90511904Y-50809523D01*
X90273809Y-50809523D01*
X90130952Y-50857142D01*
X90035714Y-50952380D01*
X89988095Y-51047619D01*
X89797619Y-51047619D01*
X89797619Y-50809523D01*
D10*
X250085714Y-241737380D02*
X250085714Y-242546904D01*
X250038095Y-242642142D01*
X249990476Y-242689761D01*
X249895238Y-242737380D01*
X249704761Y-242737380D01*
X249609523Y-242689761D01*
X249561904Y-242642142D01*
X249514285Y-242546904D01*
X249514285Y-241737380D01*
X249085714Y-242689761D02*
X248942857Y-242737380D01*
X248704761Y-242737380D01*
X248609523Y-242689761D01*
X248561904Y-242642142D01*
X248514285Y-242546904D01*
X248514285Y-242451666D01*
X248561904Y-242356428D01*
X248609523Y-242308809D01*
X248704761Y-242261190D01*
X248895238Y-242213571D01*
X248990476Y-242165952D01*
X249038095Y-242118333D01*
X249085714Y-242023095D01*
X249085714Y-241927857D01*
X249038095Y-241832619D01*
X248990476Y-241785000D01*
X248895238Y-241737380D01*
X248657142Y-241737380D01*
X248514285Y-241785000D01*
X247752380Y-242213571D02*
X247609523Y-242261190D01*
X247561904Y-242308809D01*
X247514285Y-242404047D01*
X247514285Y-242546904D01*
X247561904Y-242642142D01*
X247609523Y-242689761D01*
X247704761Y-242737380D01*
X248085714Y-242737380D01*
X248085714Y-241737380D01*
X247752380Y-241737380D01*
X247657142Y-241785000D01*
X247609523Y-241832619D01*
X247561904Y-241927857D01*
X247561904Y-242023095D01*
X247609523Y-242118333D01*
X247657142Y-242165952D01*
X247752380Y-242213571D01*
X248085714Y-242213571D01*
X246323809Y-242070714D02*
X246323809Y-242737380D01*
X246323809Y-242165952D02*
X246276190Y-242118333D01*
X246180952Y-242070714D01*
X246038095Y-242070714D01*
X245942857Y-242118333D01*
X245895238Y-242213571D01*
X245895238Y-242737380D01*
X245276190Y-242737380D02*
X245371428Y-242689761D01*
X245419047Y-242642142D01*
X245466666Y-242546904D01*
X245466666Y-242261190D01*
X245419047Y-242165952D01*
X245371428Y-242118333D01*
X245276190Y-242070714D01*
X245133333Y-242070714D01*
X245038095Y-242118333D01*
X244990476Y-242165952D01*
X244942857Y-242261190D01*
X244942857Y-242546904D01*
X244990476Y-242642142D01*
X245038095Y-242689761D01*
X245133333Y-242737380D01*
X245276190Y-242737380D01*
X244657142Y-242070714D02*
X244276190Y-242070714D01*
X244514285Y-241737380D02*
X244514285Y-242594523D01*
X244466666Y-242689761D01*
X244371428Y-242737380D01*
X244276190Y-242737380D01*
X243323809Y-242070714D02*
X242942857Y-242070714D01*
X243180952Y-241737380D02*
X243180952Y-242594523D01*
X243133333Y-242689761D01*
X243038095Y-242737380D01*
X242942857Y-242737380D01*
X242466666Y-242737380D02*
X242561904Y-242689761D01*
X242609523Y-242642142D01*
X242657142Y-242546904D01*
X242657142Y-242261190D01*
X242609523Y-242165952D01*
X242561904Y-242118333D01*
X242466666Y-242070714D01*
X242323809Y-242070714D01*
X242228571Y-242118333D01*
X242180952Y-242165952D01*
X242133333Y-242261190D01*
X242133333Y-242546904D01*
X242180952Y-242642142D01*
X242228571Y-242689761D01*
X242323809Y-242737380D01*
X242466666Y-242737380D01*
X240990476Y-242689761D02*
X240895238Y-242737380D01*
X240704761Y-242737380D01*
X240609523Y-242689761D01*
X240561904Y-242594523D01*
X240561904Y-242546904D01*
X240609523Y-242451666D01*
X240704761Y-242404047D01*
X240847619Y-242404047D01*
X240942857Y-242356428D01*
X240990476Y-242261190D01*
X240990476Y-242213571D01*
X240942857Y-242118333D01*
X240847619Y-242070714D01*
X240704761Y-242070714D01*
X240609523Y-242118333D01*
X240133333Y-242070714D02*
X240133333Y-243070714D01*
X240133333Y-242118333D02*
X240038095Y-242070714D01*
X239847619Y-242070714D01*
X239752380Y-242118333D01*
X239704761Y-242165952D01*
X239657142Y-242261190D01*
X239657142Y-242546904D01*
X239704761Y-242642142D01*
X239752380Y-242689761D01*
X239847619Y-242737380D01*
X240038095Y-242737380D01*
X240133333Y-242689761D01*
X238847619Y-242689761D02*
X238942857Y-242737380D01*
X239133333Y-242737380D01*
X239228571Y-242689761D01*
X239276190Y-242594523D01*
X239276190Y-242213571D01*
X239228571Y-242118333D01*
X239133333Y-242070714D01*
X238942857Y-242070714D01*
X238847619Y-242118333D01*
X238800000Y-242213571D01*
X238800000Y-242308809D01*
X239276190Y-242404047D01*
X237942857Y-242689761D02*
X238038095Y-242737380D01*
X238228571Y-242737380D01*
X238323809Y-242689761D01*
X238371428Y-242642142D01*
X238419047Y-242546904D01*
X238419047Y-242261190D01*
X238371428Y-242165952D01*
X238323809Y-242118333D01*
X238228571Y-242070714D01*
X238038095Y-242070714D01*
X237942857Y-242118333D01*
X237514285Y-242642142D02*
X237466666Y-242689761D01*
X237514285Y-242737380D01*
X237561904Y-242689761D01*
X237514285Y-242642142D01*
X237514285Y-242737380D01*
X237514285Y-242118333D02*
X237466666Y-242165952D01*
X237514285Y-242213571D01*
X237561904Y-242165952D01*
X237514285Y-242118333D01*
X237514285Y-242213571D01*
X250133333Y-244347380D02*
X250133333Y-243347380D01*
X249895238Y-243347380D01*
X249752380Y-243395000D01*
X249657142Y-243490238D01*
X249609523Y-243585476D01*
X249561904Y-243775952D01*
X249561904Y-243918809D01*
X249609523Y-244109285D01*
X249657142Y-244204523D01*
X249752380Y-244299761D01*
X249895238Y-244347380D01*
X250133333Y-244347380D01*
X248990476Y-244347380D02*
X249085714Y-244299761D01*
X249133333Y-244252142D01*
X249180952Y-244156904D01*
X249180952Y-243871190D01*
X249133333Y-243775952D01*
X249085714Y-243728333D01*
X248990476Y-243680714D01*
X248847619Y-243680714D01*
X248752380Y-243728333D01*
X248704761Y-243775952D01*
X248657142Y-243871190D01*
X248657142Y-244156904D01*
X248704761Y-244252142D01*
X248752380Y-244299761D01*
X248847619Y-244347380D01*
X248990476Y-244347380D01*
X247466666Y-244347380D02*
X247466666Y-243347380D01*
X246895238Y-244347380D01*
X246895238Y-243347380D01*
X246228571Y-243347380D02*
X246038095Y-243347380D01*
X245942857Y-243395000D01*
X245847619Y-243490238D01*
X245800000Y-243680714D01*
X245800000Y-244014047D01*
X245847619Y-244204523D01*
X245942857Y-244299761D01*
X246038095Y-244347380D01*
X246228571Y-244347380D01*
X246323809Y-244299761D01*
X246419047Y-244204523D01*
X246466666Y-244014047D01*
X246466666Y-243680714D01*
X246419047Y-243490238D01*
X246323809Y-243395000D01*
X246228571Y-243347380D01*
X245514285Y-243347380D02*
X244942857Y-243347380D01*
X245228571Y-244347380D02*
X245228571Y-243347380D01*
X243847619Y-243680714D02*
X243847619Y-244680714D01*
X243847619Y-243728333D02*
X243752380Y-243680714D01*
X243561904Y-243680714D01*
X243466666Y-243728333D01*
X243419047Y-243775952D01*
X243371428Y-243871190D01*
X243371428Y-244156904D01*
X243419047Y-244252142D01*
X243466666Y-244299761D01*
X243561904Y-244347380D01*
X243752380Y-244347380D01*
X243847619Y-244299761D01*
X242800000Y-244347380D02*
X242895238Y-244299761D01*
X242942857Y-244204523D01*
X242942857Y-243347380D01*
X241990476Y-243680714D02*
X241990476Y-244347380D01*
X242419047Y-243680714D02*
X242419047Y-244204523D01*
X242371428Y-244299761D01*
X242276190Y-244347380D01*
X242133333Y-244347380D01*
X242038095Y-244299761D01*
X241990476Y-244252142D01*
X241085714Y-243680714D02*
X241085714Y-244490238D01*
X241133333Y-244585476D01*
X241180952Y-244633095D01*
X241276190Y-244680714D01*
X241419047Y-244680714D01*
X241514285Y-244633095D01*
X241085714Y-244299761D02*
X241180952Y-244347380D01*
X241371428Y-244347380D01*
X241466666Y-244299761D01*
X241514285Y-244252142D01*
X241561904Y-244156904D01*
X241561904Y-243871190D01*
X241514285Y-243775952D01*
X241466666Y-243728333D01*
X241371428Y-243680714D01*
X241180952Y-243680714D01*
X241085714Y-243728333D01*
X239847619Y-244347380D02*
X239847619Y-243680714D01*
X239847619Y-243347380D02*
X239895238Y-243395000D01*
X239847619Y-243442619D01*
X239800000Y-243395000D01*
X239847619Y-243347380D01*
X239847619Y-243442619D01*
X239371428Y-243680714D02*
X239371428Y-244347380D01*
X239371428Y-243775952D02*
X239323809Y-243728333D01*
X239228571Y-243680714D01*
X239085714Y-243680714D01*
X238990476Y-243728333D01*
X238942857Y-243823571D01*
X238942857Y-244347380D01*
X238609523Y-243680714D02*
X238228571Y-243680714D01*
X238466666Y-243347380D02*
X238466666Y-244204523D01*
X238419047Y-244299761D01*
X238323809Y-244347380D01*
X238228571Y-244347380D01*
X237752380Y-244347380D02*
X237847619Y-244299761D01*
X237895238Y-244252142D01*
X237942857Y-244156904D01*
X237942857Y-243871190D01*
X237895238Y-243775952D01*
X237847619Y-243728333D01*
X237752380Y-243680714D01*
X237609523Y-243680714D01*
X237514285Y-243728333D01*
X237466666Y-243775952D01*
X237419047Y-243871190D01*
X237419047Y-244156904D01*
X237466666Y-244252142D01*
X237514285Y-244299761D01*
X237609523Y-244347380D01*
X237752380Y-244347380D01*
X249109523Y-245957380D02*
X249109523Y-245433571D01*
X249157142Y-245338333D01*
X249252380Y-245290714D01*
X249442857Y-245290714D01*
X249538095Y-245338333D01*
X249109523Y-245909761D02*
X249204761Y-245957380D01*
X249442857Y-245957380D01*
X249538095Y-245909761D01*
X249585714Y-245814523D01*
X249585714Y-245719285D01*
X249538095Y-245624047D01*
X249442857Y-245576428D01*
X249204761Y-245576428D01*
X249109523Y-245528809D01*
X248633333Y-245290714D02*
X248633333Y-245957380D01*
X248633333Y-245385952D02*
X248585714Y-245338333D01*
X248490476Y-245290714D01*
X248347619Y-245290714D01*
X248252380Y-245338333D01*
X248204761Y-245433571D01*
X248204761Y-245957380D01*
X247823809Y-245290714D02*
X247585714Y-245957380D01*
X247347619Y-245290714D02*
X247585714Y-245957380D01*
X247680952Y-246195476D01*
X247728571Y-246243095D01*
X247823809Y-246290714D01*
X247109523Y-245290714D02*
X246728571Y-245290714D01*
X246966666Y-244957380D02*
X246966666Y-245814523D01*
X246919047Y-245909761D01*
X246823809Y-245957380D01*
X246728571Y-245957380D01*
X246395238Y-245957380D02*
X246395238Y-244957380D01*
X245966666Y-245957380D02*
X245966666Y-245433571D01*
X246014285Y-245338333D01*
X246109523Y-245290714D01*
X246252380Y-245290714D01*
X246347619Y-245338333D01*
X246395238Y-245385952D01*
X245490476Y-245957380D02*
X245490476Y-245290714D01*
X245490476Y-244957380D02*
X245538095Y-245005000D01*
X245490476Y-245052619D01*
X245442857Y-245005000D01*
X245490476Y-244957380D01*
X245490476Y-245052619D01*
X245014285Y-245290714D02*
X245014285Y-245957380D01*
X245014285Y-245385952D02*
X244966666Y-245338333D01*
X244871428Y-245290714D01*
X244728571Y-245290714D01*
X244633333Y-245338333D01*
X244585714Y-245433571D01*
X244585714Y-245957380D01*
X243680952Y-245290714D02*
X243680952Y-246100238D01*
X243728571Y-246195476D01*
X243776190Y-246243095D01*
X243871428Y-246290714D01*
X244014285Y-246290714D01*
X244109523Y-246243095D01*
X243680952Y-245909761D02*
X243776190Y-245957380D01*
X243966666Y-245957380D01*
X244061904Y-245909761D01*
X244109523Y-245862142D01*
X244157142Y-245766904D01*
X244157142Y-245481190D01*
X244109523Y-245385952D01*
X244061904Y-245338333D01*
X243966666Y-245290714D01*
X243776190Y-245290714D01*
X243680952Y-245338333D01*
X242061904Y-245909761D02*
X242157142Y-245957380D01*
X242347619Y-245957380D01*
X242442857Y-245909761D01*
X242490476Y-245814523D01*
X242490476Y-245433571D01*
X242442857Y-245338333D01*
X242347619Y-245290714D01*
X242157142Y-245290714D01*
X242061904Y-245338333D01*
X242014285Y-245433571D01*
X242014285Y-245528809D01*
X242490476Y-245624047D01*
X241680952Y-245957380D02*
X241157142Y-245290714D01*
X241680952Y-245290714D02*
X241157142Y-245957380D01*
X240347619Y-245909761D02*
X240442857Y-245957380D01*
X240633333Y-245957380D01*
X240728571Y-245909761D01*
X240776190Y-245862142D01*
X240823809Y-245766904D01*
X240823809Y-245481190D01*
X240776190Y-245385952D01*
X240728571Y-245338333D01*
X240633333Y-245290714D01*
X240442857Y-245290714D01*
X240347619Y-245338333D01*
X239538095Y-245909761D02*
X239633333Y-245957380D01*
X239823809Y-245957380D01*
X239919047Y-245909761D01*
X239966666Y-245814523D01*
X239966666Y-245433571D01*
X239919047Y-245338333D01*
X239823809Y-245290714D01*
X239633333Y-245290714D01*
X239538095Y-245338333D01*
X239490476Y-245433571D01*
X239490476Y-245528809D01*
X239966666Y-245624047D01*
X239061904Y-245290714D02*
X239061904Y-246290714D01*
X239061904Y-245338333D02*
X238966666Y-245290714D01*
X238776190Y-245290714D01*
X238680952Y-245338333D01*
X238633333Y-245385952D01*
X238585714Y-245481190D01*
X238585714Y-245766904D01*
X238633333Y-245862142D01*
X238680952Y-245909761D01*
X238776190Y-245957380D01*
X238966666Y-245957380D01*
X239061904Y-245909761D01*
X238300000Y-245290714D02*
X237919047Y-245290714D01*
X238157142Y-244957380D02*
X238157142Y-245814523D01*
X238109523Y-245909761D01*
X238014285Y-245957380D01*
X237919047Y-245957380D01*
X251157142Y-247519761D02*
X251252380Y-247567380D01*
X251442857Y-247567380D01*
X251538095Y-247519761D01*
X251585714Y-247472142D01*
X251633333Y-247376904D01*
X251633333Y-247091190D01*
X251585714Y-246995952D01*
X251538095Y-246948333D01*
X251442857Y-246900714D01*
X251252380Y-246900714D01*
X251157142Y-246948333D01*
X250585714Y-247567380D02*
X250680952Y-247519761D01*
X250728571Y-247472142D01*
X250776190Y-247376904D01*
X250776190Y-247091190D01*
X250728571Y-246995952D01*
X250680952Y-246948333D01*
X250585714Y-246900714D01*
X250442857Y-246900714D01*
X250347619Y-246948333D01*
X250300000Y-246995952D01*
X250252380Y-247091190D01*
X250252380Y-247376904D01*
X250300000Y-247472142D01*
X250347619Y-247519761D01*
X250442857Y-247567380D01*
X250585714Y-247567380D01*
X249823809Y-247567380D02*
X249823809Y-246900714D01*
X249823809Y-247091190D02*
X249776190Y-246995952D01*
X249728571Y-246948333D01*
X249633333Y-246900714D01*
X249538095Y-246900714D01*
X249204761Y-247567380D02*
X249204761Y-246900714D01*
X249204761Y-247091190D02*
X249157142Y-246995952D01*
X249109523Y-246948333D01*
X249014285Y-246900714D01*
X248919047Y-246900714D01*
X248204761Y-247519761D02*
X248300000Y-247567380D01*
X248490476Y-247567380D01*
X248585714Y-247519761D01*
X248633333Y-247424523D01*
X248633333Y-247043571D01*
X248585714Y-246948333D01*
X248490476Y-246900714D01*
X248300000Y-246900714D01*
X248204761Y-246948333D01*
X248157142Y-247043571D01*
X248157142Y-247138809D01*
X248633333Y-247234047D01*
X247776190Y-247519761D02*
X247680952Y-247567380D01*
X247490476Y-247567380D01*
X247395238Y-247519761D01*
X247347619Y-247424523D01*
X247347619Y-247376904D01*
X247395238Y-247281666D01*
X247490476Y-247234047D01*
X247633333Y-247234047D01*
X247728571Y-247186428D01*
X247776190Y-247091190D01*
X247776190Y-247043571D01*
X247728571Y-246948333D01*
X247633333Y-246900714D01*
X247490476Y-246900714D01*
X247395238Y-246948333D01*
X246919047Y-246900714D02*
X246919047Y-247900714D01*
X246919047Y-246948333D02*
X246823809Y-246900714D01*
X246633333Y-246900714D01*
X246538095Y-246948333D01*
X246490476Y-246995952D01*
X246442857Y-247091190D01*
X246442857Y-247376904D01*
X246490476Y-247472142D01*
X246538095Y-247519761D01*
X246633333Y-247567380D01*
X246823809Y-247567380D01*
X246919047Y-247519761D01*
X245871428Y-247567380D02*
X245966666Y-247519761D01*
X246014285Y-247472142D01*
X246061904Y-247376904D01*
X246061904Y-247091190D01*
X246014285Y-246995952D01*
X245966666Y-246948333D01*
X245871428Y-246900714D01*
X245728571Y-246900714D01*
X245633333Y-246948333D01*
X245585714Y-246995952D01*
X245538095Y-247091190D01*
X245538095Y-247376904D01*
X245585714Y-247472142D01*
X245633333Y-247519761D01*
X245728571Y-247567380D01*
X245871428Y-247567380D01*
X245109523Y-246900714D02*
X245109523Y-247567380D01*
X245109523Y-246995952D02*
X245061904Y-246948333D01*
X244966666Y-246900714D01*
X244823809Y-246900714D01*
X244728571Y-246948333D01*
X244680952Y-247043571D01*
X244680952Y-247567380D01*
X243776190Y-247567380D02*
X243776190Y-246567380D01*
X243776190Y-247519761D02*
X243871428Y-247567380D01*
X244061904Y-247567380D01*
X244157142Y-247519761D01*
X244204761Y-247472142D01*
X244252380Y-247376904D01*
X244252380Y-247091190D01*
X244204761Y-246995952D01*
X244157142Y-246948333D01*
X244061904Y-246900714D01*
X243871428Y-246900714D01*
X243776190Y-246948333D01*
X243300000Y-247567380D02*
X243300000Y-246900714D01*
X243300000Y-246567380D02*
X243347619Y-246615000D01*
X243300000Y-246662619D01*
X243252380Y-246615000D01*
X243300000Y-246567380D01*
X243300000Y-246662619D01*
X242823809Y-246900714D02*
X242823809Y-247567380D01*
X242823809Y-246995952D02*
X242776190Y-246948333D01*
X242680952Y-246900714D01*
X242538095Y-246900714D01*
X242442857Y-246948333D01*
X242395238Y-247043571D01*
X242395238Y-247567380D01*
X241490476Y-246900714D02*
X241490476Y-247710238D01*
X241538095Y-247805476D01*
X241585714Y-247853095D01*
X241680952Y-247900714D01*
X241823809Y-247900714D01*
X241919047Y-247853095D01*
X241490476Y-247519761D02*
X241585714Y-247567380D01*
X241776190Y-247567380D01*
X241871428Y-247519761D01*
X241919047Y-247472142D01*
X241966666Y-247376904D01*
X241966666Y-247091190D01*
X241919047Y-246995952D01*
X241871428Y-246948333D01*
X241776190Y-246900714D01*
X241585714Y-246900714D01*
X241490476Y-246948333D01*
X240252380Y-247567380D02*
X240252380Y-246567380D01*
X240252380Y-246948333D02*
X240157142Y-246900714D01*
X239966666Y-246900714D01*
X239871428Y-246948333D01*
X239823809Y-246995952D01*
X239776190Y-247091190D01*
X239776190Y-247376904D01*
X239823809Y-247472142D01*
X239871428Y-247519761D01*
X239966666Y-247567380D01*
X240157142Y-247567380D01*
X240252380Y-247519761D01*
X239204761Y-247567380D02*
X239300000Y-247519761D01*
X239347619Y-247472142D01*
X239395238Y-247376904D01*
X239395238Y-247091190D01*
X239347619Y-246995952D01*
X239300000Y-246948333D01*
X239204761Y-246900714D01*
X239061904Y-246900714D01*
X238966666Y-246948333D01*
X238919047Y-246995952D01*
X238871428Y-247091190D01*
X238871428Y-247376904D01*
X238919047Y-247472142D01*
X238966666Y-247519761D01*
X239061904Y-247567380D01*
X239204761Y-247567380D01*
X238014285Y-247567380D02*
X238014285Y-247043571D01*
X238061904Y-246948333D01*
X238157142Y-246900714D01*
X238347619Y-246900714D01*
X238442857Y-246948333D01*
X238014285Y-247519761D02*
X238109523Y-247567380D01*
X238347619Y-247567380D01*
X238442857Y-247519761D01*
X238490476Y-247424523D01*
X238490476Y-247329285D01*
X238442857Y-247234047D01*
X238347619Y-247186428D01*
X238109523Y-247186428D01*
X238014285Y-247138809D01*
X237538095Y-247567380D02*
X237538095Y-246900714D01*
X237538095Y-247091190D02*
X237490476Y-246995952D01*
X237442857Y-246948333D01*
X237347619Y-246900714D01*
X237252380Y-246900714D01*
X236490476Y-247567380D02*
X236490476Y-246567380D01*
X236490476Y-247519761D02*
X236585714Y-247567380D01*
X236776190Y-247567380D01*
X236871428Y-247519761D01*
X236919047Y-247472142D01*
X236966666Y-247376904D01*
X236966666Y-247091190D01*
X236919047Y-246995952D01*
X236871428Y-246948333D01*
X236776190Y-246900714D01*
X236585714Y-246900714D01*
X236490476Y-246948333D01*
X236014285Y-247472142D02*
X235966666Y-247519761D01*
X236014285Y-247567380D01*
X236061904Y-247519761D01*
X236014285Y-247472142D01*
X236014285Y-247567380D01*
X236014285Y-247186428D02*
X236061904Y-246615000D01*
X236014285Y-246567380D01*
X235966666Y-246615000D01*
X236014285Y-247186428D01*
X236014285Y-246567380D01*
X288487380Y-154914285D02*
X289296904Y-154914285D01*
X289392142Y-154961904D01*
X289439761Y-155009523D01*
X289487380Y-155104761D01*
X289487380Y-155295238D01*
X289439761Y-155390476D01*
X289392142Y-155438095D01*
X289296904Y-155485714D01*
X288487380Y-155485714D01*
X289439761Y-155914285D02*
X289487380Y-156057142D01*
X289487380Y-156295238D01*
X289439761Y-156390476D01*
X289392142Y-156438095D01*
X289296904Y-156485714D01*
X289201666Y-156485714D01*
X289106428Y-156438095D01*
X289058809Y-156390476D01*
X289011190Y-156295238D01*
X288963571Y-156104761D01*
X288915952Y-156009523D01*
X288868333Y-155961904D01*
X288773095Y-155914285D01*
X288677857Y-155914285D01*
X288582619Y-155961904D01*
X288535000Y-156009523D01*
X288487380Y-156104761D01*
X288487380Y-156342857D01*
X288535000Y-156485714D01*
X288963571Y-157247619D02*
X289011190Y-157390476D01*
X289058809Y-157438095D01*
X289154047Y-157485714D01*
X289296904Y-157485714D01*
X289392142Y-157438095D01*
X289439761Y-157390476D01*
X289487380Y-157295238D01*
X289487380Y-156914285D01*
X288487380Y-156914285D01*
X288487380Y-157247619D01*
X288535000Y-157342857D01*
X288582619Y-157390476D01*
X288677857Y-157438095D01*
X288773095Y-157438095D01*
X288868333Y-157390476D01*
X288915952Y-157342857D01*
X288963571Y-157247619D01*
X288963571Y-156914285D01*
X288820714Y-158676190D02*
X289487380Y-158676190D01*
X288915952Y-158676190D02*
X288868333Y-158723809D01*
X288820714Y-158819047D01*
X288820714Y-158961904D01*
X288868333Y-159057142D01*
X288963571Y-159104761D01*
X289487380Y-159104761D01*
X289487380Y-159723809D02*
X289439761Y-159628571D01*
X289392142Y-159580952D01*
X289296904Y-159533333D01*
X289011190Y-159533333D01*
X288915952Y-159580952D01*
X288868333Y-159628571D01*
X288820714Y-159723809D01*
X288820714Y-159866666D01*
X288868333Y-159961904D01*
X288915952Y-160009523D01*
X289011190Y-160057142D01*
X289296904Y-160057142D01*
X289392142Y-160009523D01*
X289439761Y-159961904D01*
X289487380Y-159866666D01*
X289487380Y-159723809D01*
X288820714Y-160342857D02*
X288820714Y-160723809D01*
X288487380Y-160485714D02*
X289344523Y-160485714D01*
X289439761Y-160533333D01*
X289487380Y-160628571D01*
X289487380Y-160723809D01*
X288820714Y-161676190D02*
X288820714Y-162057142D01*
X288487380Y-161819047D02*
X289344523Y-161819047D01*
X289439761Y-161866666D01*
X289487380Y-161961904D01*
X289487380Y-162057142D01*
X289487380Y-162533333D02*
X289439761Y-162438095D01*
X289392142Y-162390476D01*
X289296904Y-162342857D01*
X289011190Y-162342857D01*
X288915952Y-162390476D01*
X288868333Y-162438095D01*
X288820714Y-162533333D01*
X288820714Y-162676190D01*
X288868333Y-162771428D01*
X288915952Y-162819047D01*
X289011190Y-162866666D01*
X289296904Y-162866666D01*
X289392142Y-162819047D01*
X289439761Y-162771428D01*
X289487380Y-162676190D01*
X289487380Y-162533333D01*
X289439761Y-164009523D02*
X289487380Y-164104761D01*
X289487380Y-164295238D01*
X289439761Y-164390476D01*
X289344523Y-164438095D01*
X289296904Y-164438095D01*
X289201666Y-164390476D01*
X289154047Y-164295238D01*
X289154047Y-164152380D01*
X289106428Y-164057142D01*
X289011190Y-164009523D01*
X288963571Y-164009523D01*
X288868333Y-164057142D01*
X288820714Y-164152380D01*
X288820714Y-164295238D01*
X288868333Y-164390476D01*
X288820714Y-164866666D02*
X289820714Y-164866666D01*
X288868333Y-164866666D02*
X288820714Y-164961904D01*
X288820714Y-165152380D01*
X288868333Y-165247619D01*
X288915952Y-165295238D01*
X289011190Y-165342857D01*
X289296904Y-165342857D01*
X289392142Y-165295238D01*
X289439761Y-165247619D01*
X289487380Y-165152380D01*
X289487380Y-164961904D01*
X289439761Y-164866666D01*
X289439761Y-166152380D02*
X289487380Y-166057142D01*
X289487380Y-165866666D01*
X289439761Y-165771428D01*
X289344523Y-165723809D01*
X288963571Y-165723809D01*
X288868333Y-165771428D01*
X288820714Y-165866666D01*
X288820714Y-166057142D01*
X288868333Y-166152380D01*
X288963571Y-166200000D01*
X289058809Y-166200000D01*
X289154047Y-165723809D01*
X289439761Y-167057142D02*
X289487380Y-166961904D01*
X289487380Y-166771428D01*
X289439761Y-166676190D01*
X289392142Y-166628571D01*
X289296904Y-166580952D01*
X289011190Y-166580952D01*
X288915952Y-166628571D01*
X288868333Y-166676190D01*
X288820714Y-166771428D01*
X288820714Y-166961904D01*
X288868333Y-167057142D01*
X289392142Y-167485714D02*
X289439761Y-167533333D01*
X289487380Y-167485714D01*
X289439761Y-167438095D01*
X289392142Y-167485714D01*
X289487380Y-167485714D01*
X288868333Y-167485714D02*
X288915952Y-167533333D01*
X288963571Y-167485714D01*
X288915952Y-167438095D01*
X288868333Y-167485714D01*
X288963571Y-167485714D01*
X291097380Y-154866666D02*
X290097380Y-154866666D01*
X290097380Y-155104761D01*
X290145000Y-155247619D01*
X290240238Y-155342857D01*
X290335476Y-155390476D01*
X290525952Y-155438095D01*
X290668809Y-155438095D01*
X290859285Y-155390476D01*
X290954523Y-155342857D01*
X291049761Y-155247619D01*
X291097380Y-155104761D01*
X291097380Y-154866666D01*
X291097380Y-156009523D02*
X291049761Y-155914285D01*
X291002142Y-155866666D01*
X290906904Y-155819047D01*
X290621190Y-155819047D01*
X290525952Y-155866666D01*
X290478333Y-155914285D01*
X290430714Y-156009523D01*
X290430714Y-156152380D01*
X290478333Y-156247619D01*
X290525952Y-156295238D01*
X290621190Y-156342857D01*
X290906904Y-156342857D01*
X291002142Y-156295238D01*
X291049761Y-156247619D01*
X291097380Y-156152380D01*
X291097380Y-156009523D01*
X291097380Y-157533333D02*
X290097380Y-157533333D01*
X291097380Y-158104761D01*
X290097380Y-158104761D01*
X290097380Y-158771428D02*
X290097380Y-158961904D01*
X290145000Y-159057142D01*
X290240238Y-159152380D01*
X290430714Y-159200000D01*
X290764047Y-159200000D01*
X290954523Y-159152380D01*
X291049761Y-159057142D01*
X291097380Y-158961904D01*
X291097380Y-158771428D01*
X291049761Y-158676190D01*
X290954523Y-158580952D01*
X290764047Y-158533333D01*
X290430714Y-158533333D01*
X290240238Y-158580952D01*
X290145000Y-158676190D01*
X290097380Y-158771428D01*
X290097380Y-159485714D02*
X290097380Y-160057142D01*
X291097380Y-159771428D02*
X290097380Y-159771428D01*
X290430714Y-161152380D02*
X291430714Y-161152380D01*
X290478333Y-161152380D02*
X290430714Y-161247619D01*
X290430714Y-161438095D01*
X290478333Y-161533333D01*
X290525952Y-161580952D01*
X290621190Y-161628571D01*
X290906904Y-161628571D01*
X291002142Y-161580952D01*
X291049761Y-161533333D01*
X291097380Y-161438095D01*
X291097380Y-161247619D01*
X291049761Y-161152380D01*
X291097380Y-162200000D02*
X291049761Y-162104761D01*
X290954523Y-162057142D01*
X290097380Y-162057142D01*
X290430714Y-163009523D02*
X291097380Y-163009523D01*
X290430714Y-162580952D02*
X290954523Y-162580952D01*
X291049761Y-162628571D01*
X291097380Y-162723809D01*
X291097380Y-162866666D01*
X291049761Y-162961904D01*
X291002142Y-163009523D01*
X290430714Y-163914285D02*
X291240238Y-163914285D01*
X291335476Y-163866666D01*
X291383095Y-163819047D01*
X291430714Y-163723809D01*
X291430714Y-163580952D01*
X291383095Y-163485714D01*
X291049761Y-163914285D02*
X291097380Y-163819047D01*
X291097380Y-163628571D01*
X291049761Y-163533333D01*
X291002142Y-163485714D01*
X290906904Y-163438095D01*
X290621190Y-163438095D01*
X290525952Y-163485714D01*
X290478333Y-163533333D01*
X290430714Y-163628571D01*
X290430714Y-163819047D01*
X290478333Y-163914285D01*
X291097380Y-165152380D02*
X290430714Y-165152380D01*
X290097380Y-165152380D02*
X290145000Y-165104761D01*
X290192619Y-165152380D01*
X290145000Y-165200000D01*
X290097380Y-165152380D01*
X290192619Y-165152380D01*
X290430714Y-165628571D02*
X291097380Y-165628571D01*
X290525952Y-165628571D02*
X290478333Y-165676190D01*
X290430714Y-165771428D01*
X290430714Y-165914285D01*
X290478333Y-166009523D01*
X290573571Y-166057142D01*
X291097380Y-166057142D01*
X290430714Y-166390476D02*
X290430714Y-166771428D01*
X290097380Y-166533333D02*
X290954523Y-166533333D01*
X291049761Y-166580952D01*
X291097380Y-166676190D01*
X291097380Y-166771428D01*
X291097380Y-167247619D02*
X291049761Y-167152380D01*
X291002142Y-167104761D01*
X290906904Y-167057142D01*
X290621190Y-167057142D01*
X290525952Y-167104761D01*
X290478333Y-167152380D01*
X290430714Y-167247619D01*
X290430714Y-167390476D01*
X290478333Y-167485714D01*
X290525952Y-167533333D01*
X290621190Y-167580952D01*
X290906904Y-167580952D01*
X291002142Y-167533333D01*
X291049761Y-167485714D01*
X291097380Y-167390476D01*
X291097380Y-167247619D01*
X292707380Y-155890476D02*
X292183571Y-155890476D01*
X292088333Y-155842857D01*
X292040714Y-155747619D01*
X292040714Y-155557142D01*
X292088333Y-155461904D01*
X292659761Y-155890476D02*
X292707380Y-155795238D01*
X292707380Y-155557142D01*
X292659761Y-155461904D01*
X292564523Y-155414285D01*
X292469285Y-155414285D01*
X292374047Y-155461904D01*
X292326428Y-155557142D01*
X292326428Y-155795238D01*
X292278809Y-155890476D01*
X292040714Y-156366666D02*
X292707380Y-156366666D01*
X292135952Y-156366666D02*
X292088333Y-156414285D01*
X292040714Y-156509523D01*
X292040714Y-156652380D01*
X292088333Y-156747619D01*
X292183571Y-156795238D01*
X292707380Y-156795238D01*
X292040714Y-157176190D02*
X292707380Y-157414285D01*
X292040714Y-157652380D02*
X292707380Y-157414285D01*
X292945476Y-157319047D01*
X292993095Y-157271428D01*
X293040714Y-157176190D01*
X292040714Y-157890476D02*
X292040714Y-158271428D01*
X291707380Y-158033333D02*
X292564523Y-158033333D01*
X292659761Y-158080952D01*
X292707380Y-158176190D01*
X292707380Y-158271428D01*
X292707380Y-158604761D02*
X291707380Y-158604761D01*
X292707380Y-159033333D02*
X292183571Y-159033333D01*
X292088333Y-158985714D01*
X292040714Y-158890476D01*
X292040714Y-158747619D01*
X292088333Y-158652380D01*
X292135952Y-158604761D01*
X292707380Y-159509523D02*
X292040714Y-159509523D01*
X291707380Y-159509523D02*
X291755000Y-159461904D01*
X291802619Y-159509523D01*
X291755000Y-159557142D01*
X291707380Y-159509523D01*
X291802619Y-159509523D01*
X292040714Y-159985714D02*
X292707380Y-159985714D01*
X292135952Y-159985714D02*
X292088333Y-160033333D01*
X292040714Y-160128571D01*
X292040714Y-160271428D01*
X292088333Y-160366666D01*
X292183571Y-160414285D01*
X292707380Y-160414285D01*
X292040714Y-161319047D02*
X292850238Y-161319047D01*
X292945476Y-161271428D01*
X292993095Y-161223809D01*
X293040714Y-161128571D01*
X293040714Y-160985714D01*
X292993095Y-160890476D01*
X292659761Y-161319047D02*
X292707380Y-161223809D01*
X292707380Y-161033333D01*
X292659761Y-160938095D01*
X292612142Y-160890476D01*
X292516904Y-160842857D01*
X292231190Y-160842857D01*
X292135952Y-160890476D01*
X292088333Y-160938095D01*
X292040714Y-161033333D01*
X292040714Y-161223809D01*
X292088333Y-161319047D01*
X292659761Y-162938095D02*
X292707380Y-162842857D01*
X292707380Y-162652380D01*
X292659761Y-162557142D01*
X292564523Y-162509523D01*
X292183571Y-162509523D01*
X292088333Y-162557142D01*
X292040714Y-162652380D01*
X292040714Y-162842857D01*
X292088333Y-162938095D01*
X292183571Y-162985714D01*
X292278809Y-162985714D01*
X292374047Y-162509523D01*
X292707380Y-163319047D02*
X292040714Y-163842857D01*
X292040714Y-163319047D02*
X292707380Y-163842857D01*
X292659761Y-164652380D02*
X292707380Y-164557142D01*
X292707380Y-164366666D01*
X292659761Y-164271428D01*
X292612142Y-164223809D01*
X292516904Y-164176190D01*
X292231190Y-164176190D01*
X292135952Y-164223809D01*
X292088333Y-164271428D01*
X292040714Y-164366666D01*
X292040714Y-164557142D01*
X292088333Y-164652380D01*
X292659761Y-165461904D02*
X292707380Y-165366666D01*
X292707380Y-165176190D01*
X292659761Y-165080952D01*
X292564523Y-165033333D01*
X292183571Y-165033333D01*
X292088333Y-165080952D01*
X292040714Y-165176190D01*
X292040714Y-165366666D01*
X292088333Y-165461904D01*
X292183571Y-165509523D01*
X292278809Y-165509523D01*
X292374047Y-165033333D01*
X292040714Y-165938095D02*
X293040714Y-165938095D01*
X292088333Y-165938095D02*
X292040714Y-166033333D01*
X292040714Y-166223809D01*
X292088333Y-166319047D01*
X292135952Y-166366666D01*
X292231190Y-166414285D01*
X292516904Y-166414285D01*
X292612142Y-166366666D01*
X292659761Y-166319047D01*
X292707380Y-166223809D01*
X292707380Y-166033333D01*
X292659761Y-165938095D01*
X292040714Y-166699999D02*
X292040714Y-167080952D01*
X291707380Y-166842857D02*
X292564523Y-166842857D01*
X292659761Y-166890476D01*
X292707380Y-166985714D01*
X292707380Y-167080952D01*
X294269761Y-153842857D02*
X294317380Y-153747619D01*
X294317380Y-153557142D01*
X294269761Y-153461904D01*
X294222142Y-153414285D01*
X294126904Y-153366666D01*
X293841190Y-153366666D01*
X293745952Y-153414285D01*
X293698333Y-153461904D01*
X293650714Y-153557142D01*
X293650714Y-153747619D01*
X293698333Y-153842857D01*
X294317380Y-154414285D02*
X294269761Y-154319047D01*
X294222142Y-154271428D01*
X294126904Y-154223809D01*
X293841190Y-154223809D01*
X293745952Y-154271428D01*
X293698333Y-154319047D01*
X293650714Y-154414285D01*
X293650714Y-154557142D01*
X293698333Y-154652380D01*
X293745952Y-154700000D01*
X293841190Y-154747619D01*
X294126904Y-154747619D01*
X294222142Y-154700000D01*
X294269761Y-154652380D01*
X294317380Y-154557142D01*
X294317380Y-154414285D01*
X294317380Y-155176190D02*
X293650714Y-155176190D01*
X293841190Y-155176190D02*
X293745952Y-155223809D01*
X293698333Y-155271428D01*
X293650714Y-155366666D01*
X293650714Y-155461904D01*
X294317380Y-155795238D02*
X293650714Y-155795238D01*
X293841190Y-155795238D02*
X293745952Y-155842857D01*
X293698333Y-155890476D01*
X293650714Y-155985714D01*
X293650714Y-156080952D01*
X294269761Y-156795238D02*
X294317380Y-156700000D01*
X294317380Y-156509523D01*
X294269761Y-156414285D01*
X294174523Y-156366666D01*
X293793571Y-156366666D01*
X293698333Y-156414285D01*
X293650714Y-156509523D01*
X293650714Y-156700000D01*
X293698333Y-156795238D01*
X293793571Y-156842857D01*
X293888809Y-156842857D01*
X293984047Y-156366666D01*
X294269761Y-157223809D02*
X294317380Y-157319047D01*
X294317380Y-157509523D01*
X294269761Y-157604761D01*
X294174523Y-157652380D01*
X294126904Y-157652380D01*
X294031666Y-157604761D01*
X293984047Y-157509523D01*
X293984047Y-157366666D01*
X293936428Y-157271428D01*
X293841190Y-157223809D01*
X293793571Y-157223809D01*
X293698333Y-157271428D01*
X293650714Y-157366666D01*
X293650714Y-157509523D01*
X293698333Y-157604761D01*
X293650714Y-158080952D02*
X294650714Y-158080952D01*
X293698333Y-158080952D02*
X293650714Y-158176190D01*
X293650714Y-158366666D01*
X293698333Y-158461904D01*
X293745952Y-158509523D01*
X293841190Y-158557142D01*
X294126904Y-158557142D01*
X294222142Y-158509523D01*
X294269761Y-158461904D01*
X294317380Y-158366666D01*
X294317380Y-158176190D01*
X294269761Y-158080952D01*
X294317380Y-159128571D02*
X294269761Y-159033333D01*
X294222142Y-158985714D01*
X294126904Y-158938095D01*
X293841190Y-158938095D01*
X293745952Y-158985714D01*
X293698333Y-159033333D01*
X293650714Y-159128571D01*
X293650714Y-159271428D01*
X293698333Y-159366666D01*
X293745952Y-159414285D01*
X293841190Y-159461904D01*
X294126904Y-159461904D01*
X294222142Y-159414285D01*
X294269761Y-159366666D01*
X294317380Y-159271428D01*
X294317380Y-159128571D01*
X293650714Y-159890476D02*
X294317380Y-159890476D01*
X293745952Y-159890476D02*
X293698333Y-159938095D01*
X293650714Y-160033333D01*
X293650714Y-160176190D01*
X293698333Y-160271428D01*
X293793571Y-160319047D01*
X294317380Y-160319047D01*
X294317380Y-161223809D02*
X293317380Y-161223809D01*
X294269761Y-161223809D02*
X294317380Y-161128571D01*
X294317380Y-160938095D01*
X294269761Y-160842857D01*
X294222142Y-160795238D01*
X294126904Y-160747619D01*
X293841190Y-160747619D01*
X293745952Y-160795238D01*
X293698333Y-160842857D01*
X293650714Y-160938095D01*
X293650714Y-161128571D01*
X293698333Y-161223809D01*
X294317380Y-161700000D02*
X293650714Y-161700000D01*
X293317380Y-161700000D02*
X293365000Y-161652380D01*
X293412619Y-161700000D01*
X293365000Y-161747619D01*
X293317380Y-161700000D01*
X293412619Y-161700000D01*
X293650714Y-162176190D02*
X294317380Y-162176190D01*
X293745952Y-162176190D02*
X293698333Y-162223809D01*
X293650714Y-162319047D01*
X293650714Y-162461904D01*
X293698333Y-162557142D01*
X293793571Y-162604761D01*
X294317380Y-162604761D01*
X293650714Y-163509523D02*
X294460238Y-163509523D01*
X294555476Y-163461904D01*
X294603095Y-163414285D01*
X294650714Y-163319047D01*
X294650714Y-163176190D01*
X294603095Y-163080952D01*
X294269761Y-163509523D02*
X294317380Y-163414285D01*
X294317380Y-163223809D01*
X294269761Y-163128571D01*
X294222142Y-163080952D01*
X294126904Y-163033333D01*
X293841190Y-163033333D01*
X293745952Y-163080952D01*
X293698333Y-163128571D01*
X293650714Y-163223809D01*
X293650714Y-163414285D01*
X293698333Y-163509523D01*
X294317380Y-164747619D02*
X293317380Y-164747619D01*
X293698333Y-164747619D02*
X293650714Y-164842857D01*
X293650714Y-165033333D01*
X293698333Y-165128571D01*
X293745952Y-165176190D01*
X293841190Y-165223809D01*
X294126904Y-165223809D01*
X294222142Y-165176190D01*
X294269761Y-165128571D01*
X294317380Y-165033333D01*
X294317380Y-164842857D01*
X294269761Y-164747619D01*
X294317380Y-165795238D02*
X294269761Y-165700000D01*
X294222142Y-165652380D01*
X294126904Y-165604761D01*
X293841190Y-165604761D01*
X293745952Y-165652380D01*
X293698333Y-165700000D01*
X293650714Y-165795238D01*
X293650714Y-165938095D01*
X293698333Y-166033333D01*
X293745952Y-166080952D01*
X293841190Y-166128571D01*
X294126904Y-166128571D01*
X294222142Y-166080952D01*
X294269761Y-166033333D01*
X294317380Y-165938095D01*
X294317380Y-165795238D01*
X294317380Y-166985714D02*
X293793571Y-166985714D01*
X293698333Y-166938095D01*
X293650714Y-166842857D01*
X293650714Y-166652380D01*
X293698333Y-166557142D01*
X294269761Y-166985714D02*
X294317380Y-166890476D01*
X294317380Y-166652380D01*
X294269761Y-166557142D01*
X294174523Y-166509523D01*
X294079285Y-166509523D01*
X293984047Y-166557142D01*
X293936428Y-166652380D01*
X293936428Y-166890476D01*
X293888809Y-166985714D01*
X294317380Y-167461904D02*
X293650714Y-167461904D01*
X293841190Y-167461904D02*
X293745952Y-167509523D01*
X293698333Y-167557142D01*
X293650714Y-167652380D01*
X293650714Y-167747619D01*
X294317380Y-168509523D02*
X293317380Y-168509523D01*
X294269761Y-168509523D02*
X294317380Y-168414285D01*
X294317380Y-168223809D01*
X294269761Y-168128571D01*
X294222142Y-168080952D01*
X294126904Y-168033333D01*
X293841190Y-168033333D01*
X293745952Y-168080952D01*
X293698333Y-168128571D01*
X293650714Y-168223809D01*
X293650714Y-168414285D01*
X293698333Y-168509523D01*
X294222142Y-168985714D02*
X294269761Y-169033333D01*
X294317380Y-168985714D01*
X294269761Y-168938095D01*
X294222142Y-168985714D01*
X294317380Y-168985714D01*
X293936428Y-168985714D02*
X293365000Y-168938095D01*
X293317380Y-168985714D01*
X293365000Y-169033333D01*
X293936428Y-168985714D01*
X293317380Y-168985714D01*
D11*
X88297619Y-54619047D02*
X88297619Y-55190476D01*
X88297619Y-54904761D02*
X89297619Y-54904761D01*
X89154761Y-55000000D01*
X89059523Y-55095238D01*
X89011904Y-55190476D01*
X89297619Y-53714285D02*
X89297619Y-54190476D01*
X88821428Y-54238095D01*
X88869047Y-54190476D01*
X88916666Y-54095238D01*
X88916666Y-53857142D01*
X88869047Y-53761904D01*
X88821428Y-53714285D01*
X88726190Y-53666666D01*
X88488095Y-53666666D01*
X88392857Y-53714285D01*
X88345238Y-53761904D01*
X88297619Y-53857142D01*
X88297619Y-54095238D01*
X88345238Y-54190476D01*
X88392857Y-54238095D01*
X89297619Y-53047619D02*
X89297619Y-52952380D01*
X89250000Y-52857142D01*
X89202380Y-52809523D01*
X89107142Y-52761904D01*
X88916666Y-52714285D01*
X88678571Y-52714285D01*
X88488095Y-52761904D01*
X88392857Y-52809523D01*
X88345238Y-52857142D01*
X88297619Y-52952380D01*
X88297619Y-53047619D01*
X88345238Y-53142857D01*
X88392857Y-53190476D01*
X88488095Y-53238095D01*
X88678571Y-53285714D01*
X88916666Y-53285714D01*
X89107142Y-53238095D01*
X89202380Y-53190476D01*
X89250000Y-53142857D01*
X89297619Y-53047619D01*
X88297619Y-51571428D02*
X88297619Y-51333333D01*
X88488095Y-51333333D01*
X88535714Y-51428571D01*
X88630952Y-51523809D01*
X88773809Y-51571428D01*
X89011904Y-51571428D01*
X89154761Y-51523809D01*
X89250000Y-51428571D01*
X89297619Y-51285714D01*
X89297619Y-51095238D01*
X89250000Y-50952380D01*
X89154761Y-50857142D01*
X89011904Y-50809523D01*
X88773809Y-50809523D01*
X88630952Y-50857142D01*
X88535714Y-50952380D01*
X88488095Y-51047619D01*
X88297619Y-51047619D01*
X88297619Y-50809523D01*
D10*
X45392857Y-195272380D02*
X45726190Y-194796190D01*
X45964285Y-195272380D02*
X45964285Y-194272380D01*
X45583333Y-194272380D01*
X45488095Y-194320000D01*
X45440476Y-194367619D01*
X45392857Y-194462857D01*
X45392857Y-194605714D01*
X45440476Y-194700952D01*
X45488095Y-194748571D01*
X45583333Y-194796190D01*
X45964285Y-194796190D01*
X44535714Y-194605714D02*
X44535714Y-195272380D01*
X44773809Y-194224761D02*
X45011904Y-194939047D01*
X44392857Y-194939047D01*
X43488095Y-195272380D02*
X44059523Y-195272380D01*
X43773809Y-195272380D02*
X43773809Y-194272380D01*
X43869047Y-194415238D01*
X43964285Y-194510476D01*
X44059523Y-194558095D01*
X65507142Y-172833333D02*
X65554761Y-172785714D01*
X65602380Y-172642857D01*
X65602380Y-172547619D01*
X65554761Y-172404761D01*
X65459523Y-172309523D01*
X65364285Y-172261904D01*
X65173809Y-172214285D01*
X65030952Y-172214285D01*
X64840476Y-172261904D01*
X64745238Y-172309523D01*
X64650000Y-172404761D01*
X64602380Y-172547619D01*
X64602380Y-172642857D01*
X64650000Y-172785714D01*
X64697619Y-172833333D01*
X64935714Y-173690476D02*
X65602380Y-173690476D01*
X64554761Y-173452380D02*
X65269047Y-173214285D01*
X65269047Y-173833333D01*
X191522380Y-203607142D02*
X191046190Y-203273809D01*
X191522380Y-203035714D02*
X190522380Y-203035714D01*
X190522380Y-203416666D01*
X190570000Y-203511904D01*
X190617619Y-203559523D01*
X190712857Y-203607142D01*
X190855714Y-203607142D01*
X190950952Y-203559523D01*
X190998571Y-203511904D01*
X191046190Y-203416666D01*
X191046190Y-203035714D01*
X190855714Y-204464285D02*
X191522380Y-204464285D01*
X190474761Y-204226190D02*
X191189047Y-203988095D01*
X191189047Y-204607142D01*
X190522380Y-205464285D02*
X190522380Y-204988095D01*
X190998571Y-204940476D01*
X190950952Y-204988095D01*
X190903333Y-205083333D01*
X190903333Y-205321428D01*
X190950952Y-205416666D01*
X190998571Y-205464285D01*
X191093809Y-205511904D01*
X191331904Y-205511904D01*
X191427142Y-205464285D01*
X191474761Y-205416666D01*
X191522380Y-205321428D01*
X191522380Y-205083333D01*
X191474761Y-204988095D01*
X191427142Y-204940476D01*
X73266666Y-177857142D02*
X73314285Y-177904761D01*
X73457142Y-177952380D01*
X73552380Y-177952380D01*
X73695238Y-177904761D01*
X73790476Y-177809523D01*
X73838095Y-177714285D01*
X73885714Y-177523809D01*
X73885714Y-177380952D01*
X73838095Y-177190476D01*
X73790476Y-177095238D01*
X73695238Y-177000000D01*
X73552380Y-176952380D01*
X73457142Y-176952380D01*
X73314285Y-177000000D01*
X73266666Y-177047619D01*
X72409523Y-176952380D02*
X72600000Y-176952380D01*
X72695238Y-177000000D01*
X72742857Y-177047619D01*
X72838095Y-177190476D01*
X72885714Y-177380952D01*
X72885714Y-177761904D01*
X72838095Y-177857142D01*
X72790476Y-177904761D01*
X72695238Y-177952380D01*
X72504761Y-177952380D01*
X72409523Y-177904761D01*
X72361904Y-177857142D01*
X72314285Y-177761904D01*
X72314285Y-177523809D01*
X72361904Y-177428571D01*
X72409523Y-177380952D01*
X72504761Y-177333333D01*
X72695238Y-177333333D01*
X72790476Y-177380952D01*
X72838095Y-177428571D01*
X72885714Y-177523809D01*
X70017142Y-172833333D02*
X70064761Y-172785714D01*
X70112380Y-172642857D01*
X70112380Y-172547619D01*
X70064761Y-172404761D01*
X69969523Y-172309523D01*
X69874285Y-172261904D01*
X69683809Y-172214285D01*
X69540952Y-172214285D01*
X69350476Y-172261904D01*
X69255238Y-172309523D01*
X69160000Y-172404761D01*
X69112380Y-172547619D01*
X69112380Y-172642857D01*
X69160000Y-172785714D01*
X69207619Y-172833333D01*
X69112380Y-173738095D02*
X69112380Y-173261904D01*
X69588571Y-173214285D01*
X69540952Y-173261904D01*
X69493333Y-173357142D01*
X69493333Y-173595238D01*
X69540952Y-173690476D01*
X69588571Y-173738095D01*
X69683809Y-173785714D01*
X69921904Y-173785714D01*
X70017142Y-173738095D01*
X70064761Y-173690476D01*
X70112380Y-173595238D01*
X70112380Y-173357142D01*
X70064761Y-173261904D01*
X70017142Y-173214285D01*
X266022380Y-237357142D02*
X265546190Y-237023809D01*
X266022380Y-236785714D02*
X265022380Y-236785714D01*
X265022380Y-237166666D01*
X265070000Y-237261904D01*
X265117619Y-237309523D01*
X265212857Y-237357142D01*
X265355714Y-237357142D01*
X265450952Y-237309523D01*
X265498571Y-237261904D01*
X265546190Y-237166666D01*
X265546190Y-236785714D01*
X265355714Y-238214285D02*
X266022380Y-238214285D01*
X264974761Y-237976190D02*
X265689047Y-237738095D01*
X265689047Y-238357142D01*
X265022380Y-238928571D02*
X265022380Y-239023809D01*
X265070000Y-239119047D01*
X265117619Y-239166666D01*
X265212857Y-239214285D01*
X265403333Y-239261904D01*
X265641428Y-239261904D01*
X265831904Y-239214285D01*
X265927142Y-239166666D01*
X265974761Y-239119047D01*
X266022380Y-239023809D01*
X266022380Y-238928571D01*
X265974761Y-238833333D01*
X265927142Y-238785714D01*
X265831904Y-238738095D01*
X265641428Y-238690476D01*
X265403333Y-238690476D01*
X265212857Y-238738095D01*
X265117619Y-238785714D01*
X265070000Y-238833333D01*
X265022380Y-238928571D01*
X231642857Y-239882380D02*
X231976190Y-239406190D01*
X232214285Y-239882380D02*
X232214285Y-238882380D01*
X231833333Y-238882380D01*
X231738095Y-238930000D01*
X231690476Y-238977619D01*
X231642857Y-239072857D01*
X231642857Y-239215714D01*
X231690476Y-239310952D01*
X231738095Y-239358571D01*
X231833333Y-239406190D01*
X232214285Y-239406190D01*
X230785714Y-239215714D02*
X230785714Y-239882380D01*
X231023809Y-238834761D02*
X231261904Y-239549047D01*
X230642857Y-239549047D01*
X229833333Y-239215714D02*
X229833333Y-239882380D01*
X230071428Y-238834761D02*
X230309523Y-239549047D01*
X229690476Y-239549047D01*
X63142857Y-168517142D02*
X63190476Y-168564761D01*
X63333333Y-168612380D01*
X63428571Y-168612380D01*
X63571428Y-168564761D01*
X63666666Y-168469523D01*
X63714285Y-168374285D01*
X63761904Y-168183809D01*
X63761904Y-168040952D01*
X63714285Y-167850476D01*
X63666666Y-167755238D01*
X63571428Y-167660000D01*
X63428571Y-167612380D01*
X63333333Y-167612380D01*
X63190476Y-167660000D01*
X63142857Y-167707619D01*
X62190476Y-168612380D02*
X62761904Y-168612380D01*
X62476190Y-168612380D02*
X62476190Y-167612380D01*
X62571428Y-167755238D01*
X62666666Y-167850476D01*
X62761904Y-167898095D01*
X61619047Y-168040952D02*
X61714285Y-167993333D01*
X61761904Y-167945714D01*
X61809523Y-167850476D01*
X61809523Y-167802857D01*
X61761904Y-167707619D01*
X61714285Y-167660000D01*
X61619047Y-167612380D01*
X61428571Y-167612380D01*
X61333333Y-167660000D01*
X61285714Y-167707619D01*
X61238095Y-167802857D01*
X61238095Y-167850476D01*
X61285714Y-167945714D01*
X61333333Y-167993333D01*
X61428571Y-168040952D01*
X61619047Y-168040952D01*
X61714285Y-168088571D01*
X61761904Y-168136190D01*
X61809523Y-168231428D01*
X61809523Y-168421904D01*
X61761904Y-168517142D01*
X61714285Y-168564761D01*
X61619047Y-168612380D01*
X61428571Y-168612380D01*
X61333333Y-168564761D01*
X61285714Y-168517142D01*
X61238095Y-168421904D01*
X61238095Y-168231428D01*
X61285714Y-168136190D01*
X61333333Y-168088571D01*
X61428571Y-168040952D01*
X84542857Y-175107142D02*
X84590476Y-175154761D01*
X84733333Y-175202380D01*
X84828571Y-175202380D01*
X84971428Y-175154761D01*
X85066666Y-175059523D01*
X85114285Y-174964285D01*
X85161904Y-174773809D01*
X85161904Y-174630952D01*
X85114285Y-174440476D01*
X85066666Y-174345238D01*
X84971428Y-174250000D01*
X84828571Y-174202380D01*
X84733333Y-174202380D01*
X84590476Y-174250000D01*
X84542857Y-174297619D01*
X84161904Y-174297619D02*
X84114285Y-174250000D01*
X84019047Y-174202380D01*
X83780952Y-174202380D01*
X83685714Y-174250000D01*
X83638095Y-174297619D01*
X83590476Y-174392857D01*
X83590476Y-174488095D01*
X83638095Y-174630952D01*
X84209523Y-175202380D01*
X83590476Y-175202380D01*
X82971428Y-174202380D02*
X82876190Y-174202380D01*
X82780952Y-174250000D01*
X82733333Y-174297619D01*
X82685714Y-174392857D01*
X82638095Y-174583333D01*
X82638095Y-174821428D01*
X82685714Y-175011904D01*
X82733333Y-175107142D01*
X82780952Y-175154761D01*
X82876190Y-175202380D01*
X82971428Y-175202380D01*
X83066666Y-175154761D01*
X83114285Y-175107142D01*
X83161904Y-175011904D01*
X83209523Y-174821428D01*
X83209523Y-174583333D01*
X83161904Y-174392857D01*
X83114285Y-174297619D01*
X83066666Y-174250000D01*
X82971428Y-174202380D01*
X52537142Y-72857142D02*
X52584761Y-72809523D01*
X52632380Y-72666666D01*
X52632380Y-72571428D01*
X52584761Y-72428571D01*
X52489523Y-72333333D01*
X52394285Y-72285714D01*
X52203809Y-72238095D01*
X52060952Y-72238095D01*
X51870476Y-72285714D01*
X51775238Y-72333333D01*
X51680000Y-72428571D01*
X51632380Y-72571428D01*
X51632380Y-72666666D01*
X51680000Y-72809523D01*
X51727619Y-72857142D01*
X52632380Y-73809523D02*
X52632380Y-73238095D01*
X52632380Y-73523809D02*
X51632380Y-73523809D01*
X51775238Y-73428571D01*
X51870476Y-73333333D01*
X51918095Y-73238095D01*
X51632380Y-74714285D02*
X51632380Y-74238095D01*
X52108571Y-74190476D01*
X52060952Y-74238095D01*
X52013333Y-74333333D01*
X52013333Y-74571428D01*
X52060952Y-74666666D01*
X52108571Y-74714285D01*
X52203809Y-74761904D01*
X52441904Y-74761904D01*
X52537142Y-74714285D01*
X52584761Y-74666666D01*
X52632380Y-74571428D01*
X52632380Y-74333333D01*
X52584761Y-74238095D01*
X52537142Y-74190476D01*
X59916666Y-178357142D02*
X59964285Y-178404761D01*
X60107142Y-178452380D01*
X60202380Y-178452380D01*
X60345238Y-178404761D01*
X60440476Y-178309523D01*
X60488095Y-178214285D01*
X60535714Y-178023809D01*
X60535714Y-177880952D01*
X60488095Y-177690476D01*
X60440476Y-177595238D01*
X60345238Y-177500000D01*
X60202380Y-177452380D01*
X60107142Y-177452380D01*
X59964285Y-177500000D01*
X59916666Y-177547619D01*
X59583333Y-177452380D02*
X58916666Y-177452380D01*
X59345238Y-178452380D01*
X57061904Y-168012380D02*
X57061904Y-168821904D01*
X57014285Y-168917142D01*
X56966666Y-168964761D01*
X56871428Y-169012380D01*
X56680952Y-169012380D01*
X56585714Y-168964761D01*
X56538095Y-168917142D01*
X56490476Y-168821904D01*
X56490476Y-168012380D01*
X56061904Y-168107619D02*
X56014285Y-168060000D01*
X55919047Y-168012380D01*
X55680952Y-168012380D01*
X55585714Y-168060000D01*
X55538095Y-168107619D01*
X55490476Y-168202857D01*
X55490476Y-168298095D01*
X55538095Y-168440952D01*
X56109523Y-169012380D01*
X55490476Y-169012380D01*
X62066666Y-176857142D02*
X62114285Y-176904761D01*
X62257142Y-176952380D01*
X62352380Y-176952380D01*
X62495238Y-176904761D01*
X62590476Y-176809523D01*
X62638095Y-176714285D01*
X62685714Y-176523809D01*
X62685714Y-176380952D01*
X62638095Y-176190476D01*
X62590476Y-176095238D01*
X62495238Y-176000000D01*
X62352380Y-175952380D01*
X62257142Y-175952380D01*
X62114285Y-176000000D01*
X62066666Y-176047619D01*
X61685714Y-176047619D02*
X61638095Y-176000000D01*
X61542857Y-175952380D01*
X61304761Y-175952380D01*
X61209523Y-176000000D01*
X61161904Y-176047619D01*
X61114285Y-176142857D01*
X61114285Y-176238095D01*
X61161904Y-176380952D01*
X61733333Y-176952380D01*
X61114285Y-176952380D01*
X195022380Y-237357142D02*
X194546190Y-237023809D01*
X195022380Y-236785714D02*
X194022380Y-236785714D01*
X194022380Y-237166666D01*
X194070000Y-237261904D01*
X194117619Y-237309523D01*
X194212857Y-237357142D01*
X194355714Y-237357142D01*
X194450952Y-237309523D01*
X194498571Y-237261904D01*
X194546190Y-237166666D01*
X194546190Y-236785714D01*
X194022380Y-237690476D02*
X194022380Y-238309523D01*
X194403333Y-237976190D01*
X194403333Y-238119047D01*
X194450952Y-238214285D01*
X194498571Y-238261904D01*
X194593809Y-238309523D01*
X194831904Y-238309523D01*
X194927142Y-238261904D01*
X194974761Y-238214285D01*
X195022380Y-238119047D01*
X195022380Y-237833333D01*
X194974761Y-237738095D01*
X194927142Y-237690476D01*
X194022380Y-238642857D02*
X194022380Y-239309523D01*
X195022380Y-238880952D01*
X286862857Y-186882380D02*
X287196190Y-186406190D01*
X287434285Y-186882380D02*
X287434285Y-185882380D01*
X287053333Y-185882380D01*
X286958095Y-185930000D01*
X286910476Y-185977619D01*
X286862857Y-186072857D01*
X286862857Y-186215714D01*
X286910476Y-186310952D01*
X286958095Y-186358571D01*
X287053333Y-186406190D01*
X287434285Y-186406190D01*
X286529523Y-185882380D02*
X285910476Y-185882380D01*
X286243809Y-186263333D01*
X286100952Y-186263333D01*
X286005714Y-186310952D01*
X285958095Y-186358571D01*
X285910476Y-186453809D01*
X285910476Y-186691904D01*
X285958095Y-186787142D01*
X286005714Y-186834761D01*
X286100952Y-186882380D01*
X286386666Y-186882380D01*
X286481904Y-186834761D01*
X286529523Y-186787142D01*
X285053333Y-186215714D02*
X285053333Y-186882380D01*
X285291428Y-185834761D02*
X285529523Y-186549047D01*
X284910476Y-186549047D01*
X40857142Y-182357142D02*
X40904761Y-182309523D01*
X40952380Y-182166666D01*
X40952380Y-182071428D01*
X40904761Y-181928571D01*
X40809523Y-181833333D01*
X40714285Y-181785714D01*
X40523809Y-181738095D01*
X40380952Y-181738095D01*
X40190476Y-181785714D01*
X40095238Y-181833333D01*
X40000000Y-181928571D01*
X39952380Y-182071428D01*
X39952380Y-182166666D01*
X40000000Y-182309523D01*
X40047619Y-182357142D01*
X40952380Y-183309523D02*
X40952380Y-182738095D01*
X40952380Y-183023809D02*
X39952380Y-183023809D01*
X40095238Y-182928571D01*
X40190476Y-182833333D01*
X40238095Y-182738095D01*
X40047619Y-183690476D02*
X40000000Y-183738095D01*
X39952380Y-183833333D01*
X39952380Y-184071428D01*
X40000000Y-184166666D01*
X40047619Y-184214285D01*
X40142857Y-184261904D01*
X40238095Y-184261904D01*
X40380952Y-184214285D01*
X40952380Y-183642857D01*
X40952380Y-184261904D01*
X284642857Y-161677142D02*
X284690476Y-161724761D01*
X284833333Y-161772380D01*
X284928571Y-161772380D01*
X285071428Y-161724761D01*
X285166666Y-161629523D01*
X285214285Y-161534285D01*
X285261904Y-161343809D01*
X285261904Y-161200952D01*
X285214285Y-161010476D01*
X285166666Y-160915238D01*
X285071428Y-160820000D01*
X284928571Y-160772380D01*
X284833333Y-160772380D01*
X284690476Y-160820000D01*
X284642857Y-160867619D01*
X284261904Y-160867619D02*
X284214285Y-160820000D01*
X284119047Y-160772380D01*
X283880952Y-160772380D01*
X283785714Y-160820000D01*
X283738095Y-160867619D01*
X283690476Y-160962857D01*
X283690476Y-161058095D01*
X283738095Y-161200952D01*
X284309523Y-161772380D01*
X283690476Y-161772380D01*
X282833333Y-160772380D02*
X283023809Y-160772380D01*
X283119047Y-160820000D01*
X283166666Y-160867619D01*
X283261904Y-161010476D01*
X283309523Y-161200952D01*
X283309523Y-161581904D01*
X283261904Y-161677142D01*
X283214285Y-161724761D01*
X283119047Y-161772380D01*
X282928571Y-161772380D01*
X282833333Y-161724761D01*
X282785714Y-161677142D01*
X282738095Y-161581904D01*
X282738095Y-161343809D01*
X282785714Y-161248571D01*
X282833333Y-161200952D01*
X282928571Y-161153333D01*
X283119047Y-161153333D01*
X283214285Y-161200952D01*
X283261904Y-161248571D01*
X283309523Y-161343809D01*
X193642857Y-195677142D02*
X193690476Y-195724761D01*
X193833333Y-195772380D01*
X193928571Y-195772380D01*
X194071428Y-195724761D01*
X194166666Y-195629523D01*
X194214285Y-195534285D01*
X194261904Y-195343809D01*
X194261904Y-195200952D01*
X194214285Y-195010476D01*
X194166666Y-194915238D01*
X194071428Y-194820000D01*
X193928571Y-194772380D01*
X193833333Y-194772380D01*
X193690476Y-194820000D01*
X193642857Y-194867619D01*
X193261904Y-194867619D02*
X193214285Y-194820000D01*
X193119047Y-194772380D01*
X192880952Y-194772380D01*
X192785714Y-194820000D01*
X192738095Y-194867619D01*
X192690476Y-194962857D01*
X192690476Y-195058095D01*
X192738095Y-195200952D01*
X193309523Y-195772380D01*
X192690476Y-195772380D01*
X192357142Y-194772380D02*
X191738095Y-194772380D01*
X192071428Y-195153333D01*
X191928571Y-195153333D01*
X191833333Y-195200952D01*
X191785714Y-195248571D01*
X191738095Y-195343809D01*
X191738095Y-195581904D01*
X191785714Y-195677142D01*
X191833333Y-195724761D01*
X191928571Y-195772380D01*
X192214285Y-195772380D01*
X192309523Y-195724761D01*
X192357142Y-195677142D01*
X55511904Y-203702380D02*
X55511904Y-204511904D01*
X55464285Y-204607142D01*
X55416666Y-204654761D01*
X55321428Y-204702380D01*
X55130952Y-204702380D01*
X55035714Y-204654761D01*
X54988095Y-204607142D01*
X54940476Y-204511904D01*
X54940476Y-203702380D01*
X54416666Y-204702380D02*
X54226190Y-204702380D01*
X54130952Y-204654761D01*
X54083333Y-204607142D01*
X53988095Y-204464285D01*
X53940476Y-204273809D01*
X53940476Y-203892857D01*
X53988095Y-203797619D01*
X54035714Y-203750000D01*
X54130952Y-203702380D01*
X54321428Y-203702380D01*
X54416666Y-203750000D01*
X54464285Y-203797619D01*
X54511904Y-203892857D01*
X54511904Y-204130952D01*
X54464285Y-204226190D01*
X54416666Y-204273809D01*
X54321428Y-204321428D01*
X54130952Y-204321428D01*
X54035714Y-204273809D01*
X53988095Y-204226190D01*
X53940476Y-204130952D01*
X48357142Y-189607142D02*
X48404761Y-189559523D01*
X48452380Y-189416666D01*
X48452380Y-189321428D01*
X48404761Y-189178571D01*
X48309523Y-189083333D01*
X48214285Y-189035714D01*
X48023809Y-188988095D01*
X47880952Y-188988095D01*
X47690476Y-189035714D01*
X47595238Y-189083333D01*
X47500000Y-189178571D01*
X47452380Y-189321428D01*
X47452380Y-189416666D01*
X47500000Y-189559523D01*
X47547619Y-189607142D01*
X47547619Y-189988095D02*
X47500000Y-190035714D01*
X47452380Y-190130952D01*
X47452380Y-190369047D01*
X47500000Y-190464285D01*
X47547619Y-190511904D01*
X47642857Y-190559523D01*
X47738095Y-190559523D01*
X47880952Y-190511904D01*
X48452380Y-189940476D01*
X48452380Y-190559523D01*
X47547619Y-190940476D02*
X47500000Y-190988095D01*
X47452380Y-191083333D01*
X47452380Y-191321428D01*
X47500000Y-191416666D01*
X47547619Y-191464285D01*
X47642857Y-191511904D01*
X47738095Y-191511904D01*
X47880952Y-191464285D01*
X48452380Y-190892857D01*
X48452380Y-191511904D01*
X73266666Y-181117142D02*
X73314285Y-181164761D01*
X73457142Y-181212380D01*
X73552380Y-181212380D01*
X73695238Y-181164761D01*
X73790476Y-181069523D01*
X73838095Y-180974285D01*
X73885714Y-180783809D01*
X73885714Y-180640952D01*
X73838095Y-180450476D01*
X73790476Y-180355238D01*
X73695238Y-180260000D01*
X73552380Y-180212380D01*
X73457142Y-180212380D01*
X73314285Y-180260000D01*
X73266666Y-180307619D01*
X72314285Y-181212380D02*
X72885714Y-181212380D01*
X72600000Y-181212380D02*
X72600000Y-180212380D01*
X72695238Y-180355238D01*
X72790476Y-180450476D01*
X72885714Y-180498095D01*
X28597380Y-181416666D02*
X29311666Y-181416666D01*
X29454523Y-181369047D01*
X29549761Y-181273809D01*
X29597380Y-181130952D01*
X29597380Y-181035714D01*
X29597380Y-182416666D02*
X29597380Y-181845238D01*
X29597380Y-182130952D02*
X28597380Y-182130952D01*
X28740238Y-182035714D01*
X28835476Y-181940476D01*
X28883095Y-181845238D01*
X45392857Y-199952380D02*
X45726190Y-199476190D01*
X45964285Y-199952380D02*
X45964285Y-198952380D01*
X45583333Y-198952380D01*
X45488095Y-199000000D01*
X45440476Y-199047619D01*
X45392857Y-199142857D01*
X45392857Y-199285714D01*
X45440476Y-199380952D01*
X45488095Y-199428571D01*
X45583333Y-199476190D01*
X45964285Y-199476190D01*
X44535714Y-199285714D02*
X44535714Y-199952380D01*
X44773809Y-198904761D02*
X45011904Y-199619047D01*
X44392857Y-199619047D01*
X44059523Y-199047619D02*
X44011904Y-199000000D01*
X43916666Y-198952380D01*
X43678571Y-198952380D01*
X43583333Y-199000000D01*
X43535714Y-199047619D01*
X43488095Y-199142857D01*
X43488095Y-199238095D01*
X43535714Y-199380952D01*
X44107142Y-199952380D01*
X43488095Y-199952380D01*
X262642857Y-214882380D02*
X262976190Y-214406190D01*
X263214285Y-214882380D02*
X263214285Y-213882380D01*
X262833333Y-213882380D01*
X262738095Y-213930000D01*
X262690476Y-213977619D01*
X262642857Y-214072857D01*
X262642857Y-214215714D01*
X262690476Y-214310952D01*
X262738095Y-214358571D01*
X262833333Y-214406190D01*
X263214285Y-214406190D01*
X262309523Y-213882380D02*
X261690476Y-213882380D01*
X262023809Y-214263333D01*
X261880952Y-214263333D01*
X261785714Y-214310952D01*
X261738095Y-214358571D01*
X261690476Y-214453809D01*
X261690476Y-214691904D01*
X261738095Y-214787142D01*
X261785714Y-214834761D01*
X261880952Y-214882380D01*
X262166666Y-214882380D01*
X262261904Y-214834761D01*
X262309523Y-214787142D01*
X261214285Y-214882380D02*
X261023809Y-214882380D01*
X260928571Y-214834761D01*
X260880952Y-214787142D01*
X260785714Y-214644285D01*
X260738095Y-214453809D01*
X260738095Y-214072857D01*
X260785714Y-213977619D01*
X260833333Y-213930000D01*
X260928571Y-213882380D01*
X261119047Y-213882380D01*
X261214285Y-213930000D01*
X261261904Y-213977619D01*
X261309523Y-214072857D01*
X261309523Y-214310952D01*
X261261904Y-214406190D01*
X261214285Y-214453809D01*
X261119047Y-214501428D01*
X260928571Y-214501428D01*
X260833333Y-214453809D01*
X260785714Y-214406190D01*
X260738095Y-214310952D01*
X72761904Y-182552380D02*
X72761904Y-183361904D01*
X72714285Y-183457142D01*
X72666666Y-183504761D01*
X72571428Y-183552380D01*
X72380952Y-183552380D01*
X72285714Y-183504761D01*
X72238095Y-183457142D01*
X72190476Y-183361904D01*
X72190476Y-182552380D01*
X71809523Y-182552380D02*
X71190476Y-182552380D01*
X71523809Y-182933333D01*
X71380952Y-182933333D01*
X71285714Y-182980952D01*
X71238095Y-183028571D01*
X71190476Y-183123809D01*
X71190476Y-183361904D01*
X71238095Y-183457142D01*
X71285714Y-183504761D01*
X71380952Y-183552380D01*
X71666666Y-183552380D01*
X71761904Y-183504761D01*
X71809523Y-183457142D01*
X33166666Y-183272380D02*
X33500000Y-182796190D01*
X33738095Y-183272380D02*
X33738095Y-182272380D01*
X33357142Y-182272380D01*
X33261904Y-182320000D01*
X33214285Y-182367619D01*
X33166666Y-182462857D01*
X33166666Y-182605714D01*
X33214285Y-182700952D01*
X33261904Y-182748571D01*
X33357142Y-182796190D01*
X33738095Y-182796190D01*
X32833333Y-182272380D02*
X32214285Y-182272380D01*
X32547619Y-182653333D01*
X32404761Y-182653333D01*
X32309523Y-182700952D01*
X32261904Y-182748571D01*
X32214285Y-182843809D01*
X32214285Y-183081904D01*
X32261904Y-183177142D01*
X32309523Y-183224761D01*
X32404761Y-183272380D01*
X32690476Y-183272380D01*
X32785714Y-183224761D01*
X32833333Y-183177142D01*
X35342857Y-166972380D02*
X35676190Y-166496190D01*
X35914285Y-166972380D02*
X35914285Y-165972380D01*
X35533333Y-165972380D01*
X35438095Y-166020000D01*
X35390476Y-166067619D01*
X35342857Y-166162857D01*
X35342857Y-166305714D01*
X35390476Y-166400952D01*
X35438095Y-166448571D01*
X35533333Y-166496190D01*
X35914285Y-166496190D01*
X34390476Y-166972380D02*
X34961904Y-166972380D01*
X34676190Y-166972380D02*
X34676190Y-165972380D01*
X34771428Y-166115238D01*
X34866666Y-166210476D01*
X34961904Y-166258095D01*
X33914285Y-166972380D02*
X33723809Y-166972380D01*
X33628571Y-166924761D01*
X33580952Y-166877142D01*
X33485714Y-166734285D01*
X33438095Y-166543809D01*
X33438095Y-166162857D01*
X33485714Y-166067619D01*
X33533333Y-166020000D01*
X33628571Y-165972380D01*
X33819047Y-165972380D01*
X33914285Y-166020000D01*
X33961904Y-166067619D01*
X34009523Y-166162857D01*
X34009523Y-166400952D01*
X33961904Y-166496190D01*
X33914285Y-166543809D01*
X33819047Y-166591428D01*
X33628571Y-166591428D01*
X33533333Y-166543809D01*
X33485714Y-166496190D01*
X33438095Y-166400952D01*
X35342857Y-158772380D02*
X35676190Y-158296190D01*
X35914285Y-158772380D02*
X35914285Y-157772380D01*
X35533333Y-157772380D01*
X35438095Y-157820000D01*
X35390476Y-157867619D01*
X35342857Y-157962857D01*
X35342857Y-158105714D01*
X35390476Y-158200952D01*
X35438095Y-158248571D01*
X35533333Y-158296190D01*
X35914285Y-158296190D01*
X34390476Y-158772380D02*
X34961904Y-158772380D01*
X34676190Y-158772380D02*
X34676190Y-157772380D01*
X34771428Y-157915238D01*
X34866666Y-158010476D01*
X34961904Y-158058095D01*
X33771428Y-157772380D02*
X33676190Y-157772380D01*
X33580952Y-157820000D01*
X33533333Y-157867619D01*
X33485714Y-157962857D01*
X33438095Y-158153333D01*
X33438095Y-158391428D01*
X33485714Y-158581904D01*
X33533333Y-158677142D01*
X33580952Y-158724761D01*
X33676190Y-158772380D01*
X33771428Y-158772380D01*
X33866666Y-158724761D01*
X33914285Y-158677142D01*
X33961904Y-158581904D01*
X34009523Y-158391428D01*
X34009523Y-158153333D01*
X33961904Y-157962857D01*
X33914285Y-157867619D01*
X33866666Y-157820000D01*
X33771428Y-157772380D01*
X285642857Y-215677142D02*
X285690476Y-215724761D01*
X285833333Y-215772380D01*
X285928571Y-215772380D01*
X286071428Y-215724761D01*
X286166666Y-215629523D01*
X286214285Y-215534285D01*
X286261904Y-215343809D01*
X286261904Y-215200952D01*
X286214285Y-215010476D01*
X286166666Y-214915238D01*
X286071428Y-214820000D01*
X285928571Y-214772380D01*
X285833333Y-214772380D01*
X285690476Y-214820000D01*
X285642857Y-214867619D01*
X285261904Y-214867619D02*
X285214285Y-214820000D01*
X285119047Y-214772380D01*
X284880952Y-214772380D01*
X284785714Y-214820000D01*
X284738095Y-214867619D01*
X284690476Y-214962857D01*
X284690476Y-215058095D01*
X284738095Y-215200952D01*
X285309523Y-215772380D01*
X284690476Y-215772380D01*
X284357142Y-214772380D02*
X283690476Y-214772380D01*
X284119047Y-215772380D01*
X62066666Y-183857142D02*
X62114285Y-183904761D01*
X62257142Y-183952380D01*
X62352380Y-183952380D01*
X62495238Y-183904761D01*
X62590476Y-183809523D01*
X62638095Y-183714285D01*
X62685714Y-183523809D01*
X62685714Y-183380952D01*
X62638095Y-183190476D01*
X62590476Y-183095238D01*
X62495238Y-183000000D01*
X62352380Y-182952380D01*
X62257142Y-182952380D01*
X62114285Y-183000000D01*
X62066666Y-183047619D01*
X61590476Y-183952380D02*
X61400000Y-183952380D01*
X61304761Y-183904761D01*
X61257142Y-183857142D01*
X61161904Y-183714285D01*
X61114285Y-183523809D01*
X61114285Y-183142857D01*
X61161904Y-183047619D01*
X61209523Y-183000000D01*
X61304761Y-182952380D01*
X61495238Y-182952380D01*
X61590476Y-183000000D01*
X61638095Y-183047619D01*
X61685714Y-183142857D01*
X61685714Y-183380952D01*
X61638095Y-183476190D01*
X61590476Y-183523809D01*
X61495238Y-183571428D01*
X61304761Y-183571428D01*
X61209523Y-183523809D01*
X61161904Y-183476190D01*
X61114285Y-183380952D01*
X174642857Y-222882380D02*
X174976190Y-222406190D01*
X175214285Y-222882380D02*
X175214285Y-221882380D01*
X174833333Y-221882380D01*
X174738095Y-221930000D01*
X174690476Y-221977619D01*
X174642857Y-222072857D01*
X174642857Y-222215714D01*
X174690476Y-222310952D01*
X174738095Y-222358571D01*
X174833333Y-222406190D01*
X175214285Y-222406190D01*
X174309523Y-221882380D02*
X173690476Y-221882380D01*
X174023809Y-222263333D01*
X173880952Y-222263333D01*
X173785714Y-222310952D01*
X173738095Y-222358571D01*
X173690476Y-222453809D01*
X173690476Y-222691904D01*
X173738095Y-222787142D01*
X173785714Y-222834761D01*
X173880952Y-222882380D01*
X174166666Y-222882380D01*
X174261904Y-222834761D01*
X174309523Y-222787142D01*
X172833333Y-221882380D02*
X173023809Y-221882380D01*
X173119047Y-221930000D01*
X173166666Y-221977619D01*
X173261904Y-222120476D01*
X173309523Y-222310952D01*
X173309523Y-222691904D01*
X173261904Y-222787142D01*
X173214285Y-222834761D01*
X173119047Y-222882380D01*
X172928571Y-222882380D01*
X172833333Y-222834761D01*
X172785714Y-222787142D01*
X172738095Y-222691904D01*
X172738095Y-222453809D01*
X172785714Y-222358571D01*
X172833333Y-222310952D01*
X172928571Y-222263333D01*
X173119047Y-222263333D01*
X173214285Y-222310952D01*
X173261904Y-222358571D01*
X173309523Y-222453809D01*
X60142857Y-181857142D02*
X60190476Y-181904761D01*
X60333333Y-181952380D01*
X60428571Y-181952380D01*
X60571428Y-181904761D01*
X60666666Y-181809523D01*
X60714285Y-181714285D01*
X60761904Y-181523809D01*
X60761904Y-181380952D01*
X60714285Y-181190476D01*
X60666666Y-181095238D01*
X60571428Y-181000000D01*
X60428571Y-180952380D01*
X60333333Y-180952380D01*
X60190476Y-181000000D01*
X60142857Y-181047619D01*
X59190476Y-181952380D02*
X59761904Y-181952380D01*
X59476190Y-181952380D02*
X59476190Y-180952380D01*
X59571428Y-181095238D01*
X59666666Y-181190476D01*
X59761904Y-181238095D01*
X58333333Y-180952380D02*
X58523809Y-180952380D01*
X58619047Y-181000000D01*
X58666666Y-181047619D01*
X58761904Y-181190476D01*
X58809523Y-181380952D01*
X58809523Y-181761904D01*
X58761904Y-181857142D01*
X58714285Y-181904761D01*
X58619047Y-181952380D01*
X58428571Y-181952380D01*
X58333333Y-181904761D01*
X58285714Y-181857142D01*
X58238095Y-181761904D01*
X58238095Y-181523809D01*
X58285714Y-181428571D01*
X58333333Y-181380952D01*
X58428571Y-181333333D01*
X58619047Y-181333333D01*
X58714285Y-181380952D01*
X58761904Y-181428571D01*
X58809523Y-181523809D01*
X44702380Y-185333333D02*
X44226190Y-185000000D01*
X44702380Y-184761904D02*
X43702380Y-184761904D01*
X43702380Y-185142857D01*
X43750000Y-185238095D01*
X43797619Y-185285714D01*
X43892857Y-185333333D01*
X44035714Y-185333333D01*
X44130952Y-185285714D01*
X44178571Y-185238095D01*
X44226190Y-185142857D01*
X44226190Y-184761904D01*
X44702380Y-186285714D02*
X44702380Y-185714285D01*
X44702380Y-186000000D02*
X43702380Y-186000000D01*
X43845238Y-185904761D01*
X43940476Y-185809523D01*
X43988095Y-185714285D01*
X49666666Y-168882380D02*
X50000000Y-168406190D01*
X50238095Y-168882380D02*
X50238095Y-167882380D01*
X49857142Y-167882380D01*
X49761904Y-167930000D01*
X49714285Y-167977619D01*
X49666666Y-168072857D01*
X49666666Y-168215714D01*
X49714285Y-168310952D01*
X49761904Y-168358571D01*
X49857142Y-168406190D01*
X50238095Y-168406190D01*
X49190476Y-168882380D02*
X49000000Y-168882380D01*
X48904761Y-168834761D01*
X48857142Y-168787142D01*
X48761904Y-168644285D01*
X48714285Y-168453809D01*
X48714285Y-168072857D01*
X48761904Y-167977619D01*
X48809523Y-167930000D01*
X48904761Y-167882380D01*
X49095238Y-167882380D01*
X49190476Y-167930000D01*
X49238095Y-167977619D01*
X49285714Y-168072857D01*
X49285714Y-168310952D01*
X49238095Y-168406190D01*
X49190476Y-168453809D01*
X49095238Y-168501428D01*
X48904761Y-168501428D01*
X48809523Y-168453809D01*
X48761904Y-168406190D01*
X48714285Y-168310952D01*
X184642857Y-241677142D02*
X184690476Y-241724761D01*
X184833333Y-241772380D01*
X184928571Y-241772380D01*
X185071428Y-241724761D01*
X185166666Y-241629523D01*
X185214285Y-241534285D01*
X185261904Y-241343809D01*
X185261904Y-241200952D01*
X185214285Y-241010476D01*
X185166666Y-240915238D01*
X185071428Y-240820000D01*
X184928571Y-240772380D01*
X184833333Y-240772380D01*
X184690476Y-240820000D01*
X184642857Y-240867619D01*
X184261904Y-240867619D02*
X184214285Y-240820000D01*
X184119047Y-240772380D01*
X183880952Y-240772380D01*
X183785714Y-240820000D01*
X183738095Y-240867619D01*
X183690476Y-240962857D01*
X183690476Y-241058095D01*
X183738095Y-241200952D01*
X184309523Y-241772380D01*
X183690476Y-241772380D01*
X182785714Y-240772380D02*
X183261904Y-240772380D01*
X183309523Y-241248571D01*
X183261904Y-241200952D01*
X183166666Y-241153333D01*
X182928571Y-241153333D01*
X182833333Y-241200952D01*
X182785714Y-241248571D01*
X182738095Y-241343809D01*
X182738095Y-241581904D01*
X182785714Y-241677142D01*
X182833333Y-241724761D01*
X182928571Y-241772380D01*
X183166666Y-241772380D01*
X183261904Y-241724761D01*
X183309523Y-241677142D01*
X57916666Y-180702380D02*
X58250000Y-180226190D01*
X58488095Y-180702380D02*
X58488095Y-179702380D01*
X58107142Y-179702380D01*
X58011904Y-179750000D01*
X57964285Y-179797619D01*
X57916666Y-179892857D01*
X57916666Y-180035714D01*
X57964285Y-180130952D01*
X58011904Y-180178571D01*
X58107142Y-180226190D01*
X58488095Y-180226190D01*
X57583333Y-179702380D02*
X56916666Y-179702380D01*
X57345238Y-180702380D01*
X38122380Y-182633333D02*
X37646190Y-182300000D01*
X38122380Y-182061904D02*
X37122380Y-182061904D01*
X37122380Y-182442857D01*
X37170000Y-182538095D01*
X37217619Y-182585714D01*
X37312857Y-182633333D01*
X37455714Y-182633333D01*
X37550952Y-182585714D01*
X37598571Y-182538095D01*
X37646190Y-182442857D01*
X37646190Y-182061904D01*
X37217619Y-183014285D02*
X37170000Y-183061904D01*
X37122380Y-183157142D01*
X37122380Y-183395238D01*
X37170000Y-183490476D01*
X37217619Y-183538095D01*
X37312857Y-183585714D01*
X37408095Y-183585714D01*
X37550952Y-183538095D01*
X38122380Y-182966666D01*
X38122380Y-183585714D01*
X41438095Y-178452380D02*
X41438095Y-177452380D01*
X41200000Y-177452380D01*
X41057142Y-177500000D01*
X40961904Y-177595238D01*
X40914285Y-177690476D01*
X40866666Y-177880952D01*
X40866666Y-178023809D01*
X40914285Y-178214285D01*
X40961904Y-178309523D01*
X41057142Y-178404761D01*
X41200000Y-178452380D01*
X41438095Y-178452380D01*
X39914285Y-178452380D02*
X40485714Y-178452380D01*
X40200000Y-178452380D02*
X40200000Y-177452380D01*
X40295238Y-177595238D01*
X40390476Y-177690476D01*
X40485714Y-177738095D01*
X80742857Y-179682380D02*
X81076190Y-179206190D01*
X81314285Y-179682380D02*
X81314285Y-178682380D01*
X80933333Y-178682380D01*
X80838095Y-178730000D01*
X80790476Y-178777619D01*
X80742857Y-178872857D01*
X80742857Y-179015714D01*
X80790476Y-179110952D01*
X80838095Y-179158571D01*
X80933333Y-179206190D01*
X81314285Y-179206190D01*
X80361904Y-178777619D02*
X80314285Y-178730000D01*
X80219047Y-178682380D01*
X79980952Y-178682380D01*
X79885714Y-178730000D01*
X79838095Y-178777619D01*
X79790476Y-178872857D01*
X79790476Y-178968095D01*
X79838095Y-179110952D01*
X80409523Y-179682380D01*
X79790476Y-179682380D01*
X79219047Y-179110952D02*
X79314285Y-179063333D01*
X79361904Y-179015714D01*
X79409523Y-178920476D01*
X79409523Y-178872857D01*
X79361904Y-178777619D01*
X79314285Y-178730000D01*
X79219047Y-178682380D01*
X79028571Y-178682380D01*
X78933333Y-178730000D01*
X78885714Y-178777619D01*
X78838095Y-178872857D01*
X78838095Y-178920476D01*
X78885714Y-179015714D01*
X78933333Y-179063333D01*
X79028571Y-179110952D01*
X79219047Y-179110952D01*
X79314285Y-179158571D01*
X79361904Y-179206190D01*
X79409523Y-179301428D01*
X79409523Y-179491904D01*
X79361904Y-179587142D01*
X79314285Y-179634761D01*
X79219047Y-179682380D01*
X79028571Y-179682380D01*
X78933333Y-179634761D01*
X78885714Y-179587142D01*
X78838095Y-179491904D01*
X78838095Y-179301428D01*
X78885714Y-179206190D01*
X78933333Y-179158571D01*
X79028571Y-179110952D01*
X52537142Y-86357142D02*
X52584761Y-86309523D01*
X52632380Y-86166666D01*
X52632380Y-86071428D01*
X52584761Y-85928571D01*
X52489523Y-85833333D01*
X52394285Y-85785714D01*
X52203809Y-85738095D01*
X52060952Y-85738095D01*
X51870476Y-85785714D01*
X51775238Y-85833333D01*
X51680000Y-85928571D01*
X51632380Y-86071428D01*
X51632380Y-86166666D01*
X51680000Y-86309523D01*
X51727619Y-86357142D01*
X52632380Y-87309523D02*
X52632380Y-86738095D01*
X52632380Y-87023809D02*
X51632380Y-87023809D01*
X51775238Y-86928571D01*
X51870476Y-86833333D01*
X51918095Y-86738095D01*
X51632380Y-87642857D02*
X51632380Y-88261904D01*
X52013333Y-87928571D01*
X52013333Y-88071428D01*
X52060952Y-88166666D01*
X52108571Y-88214285D01*
X52203809Y-88261904D01*
X52441904Y-88261904D01*
X52537142Y-88214285D01*
X52584761Y-88166666D01*
X52632380Y-88071428D01*
X52632380Y-87785714D01*
X52584761Y-87690476D01*
X52537142Y-87642857D01*
X45392857Y-204632380D02*
X45726190Y-204156190D01*
X45964285Y-204632380D02*
X45964285Y-203632380D01*
X45583333Y-203632380D01*
X45488095Y-203680000D01*
X45440476Y-203727619D01*
X45392857Y-203822857D01*
X45392857Y-203965714D01*
X45440476Y-204060952D01*
X45488095Y-204108571D01*
X45583333Y-204156190D01*
X45964285Y-204156190D01*
X44535714Y-203965714D02*
X44535714Y-204632380D01*
X44773809Y-203584761D02*
X45011904Y-204299047D01*
X44392857Y-204299047D01*
X44107142Y-203632380D02*
X43488095Y-203632380D01*
X43821428Y-204013333D01*
X43678571Y-204013333D01*
X43583333Y-204060952D01*
X43535714Y-204108571D01*
X43488095Y-204203809D01*
X43488095Y-204441904D01*
X43535714Y-204537142D01*
X43583333Y-204584761D01*
X43678571Y-204632380D01*
X43964285Y-204632380D01*
X44059523Y-204584761D01*
X44107142Y-204537142D01*
X50761904Y-181852380D02*
X50761904Y-182661904D01*
X50714285Y-182757142D01*
X50666666Y-182804761D01*
X50571428Y-182852380D01*
X50380952Y-182852380D01*
X50285714Y-182804761D01*
X50238095Y-182757142D01*
X50190476Y-182661904D01*
X50190476Y-181852380D01*
X49190476Y-182852380D02*
X49761904Y-182852380D01*
X49476190Y-182852380D02*
X49476190Y-181852380D01*
X49571428Y-181995238D01*
X49666666Y-182090476D01*
X49761904Y-182138095D01*
X53787142Y-189607142D02*
X53834761Y-189559523D01*
X53882380Y-189416666D01*
X53882380Y-189321428D01*
X53834761Y-189178571D01*
X53739523Y-189083333D01*
X53644285Y-189035714D01*
X53453809Y-188988095D01*
X53310952Y-188988095D01*
X53120476Y-189035714D01*
X53025238Y-189083333D01*
X52930000Y-189178571D01*
X52882380Y-189321428D01*
X52882380Y-189416666D01*
X52930000Y-189559523D01*
X52977619Y-189607142D01*
X52977619Y-189988095D02*
X52930000Y-190035714D01*
X52882380Y-190130952D01*
X52882380Y-190369047D01*
X52930000Y-190464285D01*
X52977619Y-190511904D01*
X53072857Y-190559523D01*
X53168095Y-190559523D01*
X53310952Y-190511904D01*
X53882380Y-189940476D01*
X53882380Y-190559523D01*
X53882380Y-191511904D02*
X53882380Y-190940476D01*
X53882380Y-191226190D02*
X52882380Y-191226190D01*
X53025238Y-191130952D01*
X53120476Y-191035714D01*
X53168095Y-190940476D01*
X97011904Y-174827380D02*
X97011904Y-175636904D01*
X96964285Y-175732142D01*
X96916666Y-175779761D01*
X96821428Y-175827380D01*
X96630952Y-175827380D01*
X96535714Y-175779761D01*
X96488095Y-175732142D01*
X96440476Y-175636904D01*
X96440476Y-174827380D01*
X95821428Y-175255952D02*
X95916666Y-175208333D01*
X95964285Y-175160714D01*
X96011904Y-175065476D01*
X96011904Y-175017857D01*
X95964285Y-174922619D01*
X95916666Y-174875000D01*
X95821428Y-174827380D01*
X95630952Y-174827380D01*
X95535714Y-174875000D01*
X95488095Y-174922619D01*
X95440476Y-175017857D01*
X95440476Y-175065476D01*
X95488095Y-175160714D01*
X95535714Y-175208333D01*
X95630952Y-175255952D01*
X95821428Y-175255952D01*
X95916666Y-175303571D01*
X95964285Y-175351190D01*
X96011904Y-175446428D01*
X96011904Y-175636904D01*
X95964285Y-175732142D01*
X95916666Y-175779761D01*
X95821428Y-175827380D01*
X95630952Y-175827380D01*
X95535714Y-175779761D01*
X95488095Y-175732142D01*
X95440476Y-175636904D01*
X95440476Y-175446428D01*
X95488095Y-175351190D01*
X95535714Y-175303571D01*
X95630952Y-175255952D01*
X182642857Y-226677142D02*
X182690476Y-226724761D01*
X182833333Y-226772380D01*
X182928571Y-226772380D01*
X183071428Y-226724761D01*
X183166666Y-226629523D01*
X183214285Y-226534285D01*
X183261904Y-226343809D01*
X183261904Y-226200952D01*
X183214285Y-226010476D01*
X183166666Y-225915238D01*
X183071428Y-225820000D01*
X182928571Y-225772380D01*
X182833333Y-225772380D01*
X182690476Y-225820000D01*
X182642857Y-225867619D01*
X182261904Y-225867619D02*
X182214285Y-225820000D01*
X182119047Y-225772380D01*
X181880952Y-225772380D01*
X181785714Y-225820000D01*
X181738095Y-225867619D01*
X181690476Y-225962857D01*
X181690476Y-226058095D01*
X181738095Y-226200952D01*
X182309523Y-226772380D01*
X181690476Y-226772380D01*
X180833333Y-226105714D02*
X180833333Y-226772380D01*
X181071428Y-225724761D02*
X181309523Y-226439047D01*
X180690476Y-226439047D01*
X84376190Y-181226190D02*
X84376190Y-181702380D01*
X84709523Y-180702380D02*
X84376190Y-181226190D01*
X84042857Y-180702380D01*
X83185714Y-181702380D02*
X83757142Y-181702380D01*
X83471428Y-181702380D02*
X83471428Y-180702380D01*
X83566666Y-180845238D01*
X83661904Y-180940476D01*
X83757142Y-180988095D01*
X30833333Y-156704761D02*
X30690476Y-156752380D01*
X30452380Y-156752380D01*
X30357142Y-156704761D01*
X30309523Y-156657142D01*
X30261904Y-156561904D01*
X30261904Y-156466666D01*
X30309523Y-156371428D01*
X30357142Y-156323809D01*
X30452380Y-156276190D01*
X30642857Y-156228571D01*
X30738095Y-156180952D01*
X30785714Y-156133333D01*
X30833333Y-156038095D01*
X30833333Y-155942857D01*
X30785714Y-155847619D01*
X30738095Y-155800000D01*
X30642857Y-155752380D01*
X30404761Y-155752380D01*
X30261904Y-155800000D01*
X29928571Y-155752380D02*
X29690476Y-156752380D01*
X29500000Y-156038095D01*
X29309523Y-156752380D01*
X29071428Y-155752380D01*
X28261904Y-156085714D02*
X28261904Y-156752380D01*
X28500000Y-155704761D02*
X28738095Y-156419047D01*
X28119047Y-156419047D01*
X30904761Y-161752380D02*
X30904761Y-160752380D01*
X30904761Y-161133333D02*
X30809523Y-161085714D01*
X30619047Y-161085714D01*
X30523809Y-161133333D01*
X30476190Y-161180952D01*
X30428571Y-161276190D01*
X30428571Y-161561904D01*
X30476190Y-161657142D01*
X30523809Y-161704761D01*
X30619047Y-161752380D01*
X30809523Y-161752380D01*
X30904761Y-161704761D01*
X29857142Y-161752380D02*
X29952380Y-161704761D01*
X30000000Y-161657142D01*
X30047619Y-161561904D01*
X30047619Y-161276190D01*
X30000000Y-161180952D01*
X29952380Y-161133333D01*
X29857142Y-161085714D01*
X29714285Y-161085714D01*
X29619047Y-161133333D01*
X29571428Y-161180952D01*
X29523809Y-161276190D01*
X29523809Y-161561904D01*
X29571428Y-161657142D01*
X29619047Y-161704761D01*
X29714285Y-161752380D01*
X29857142Y-161752380D01*
X28952380Y-161752380D02*
X29047619Y-161704761D01*
X29095238Y-161657142D01*
X29142857Y-161561904D01*
X29142857Y-161276190D01*
X29095238Y-161180952D01*
X29047619Y-161133333D01*
X28952380Y-161085714D01*
X28809523Y-161085714D01*
X28714285Y-161133333D01*
X28666666Y-161180952D01*
X28619047Y-161276190D01*
X28619047Y-161561904D01*
X28666666Y-161657142D01*
X28714285Y-161704761D01*
X28809523Y-161752380D01*
X28952380Y-161752380D01*
X28333333Y-161085714D02*
X27952380Y-161085714D01*
X28190476Y-160752380D02*
X28190476Y-161609523D01*
X28142857Y-161704761D01*
X28047619Y-161752380D01*
X27952380Y-161752380D01*
X30833333Y-164904761D02*
X30690476Y-164952380D01*
X30452380Y-164952380D01*
X30357142Y-164904761D01*
X30309523Y-164857142D01*
X30261904Y-164761904D01*
X30261904Y-164666666D01*
X30309523Y-164571428D01*
X30357142Y-164523809D01*
X30452380Y-164476190D01*
X30642857Y-164428571D01*
X30738095Y-164380952D01*
X30785714Y-164333333D01*
X30833333Y-164238095D01*
X30833333Y-164142857D01*
X30785714Y-164047619D01*
X30738095Y-164000000D01*
X30642857Y-163952380D01*
X30404761Y-163952380D01*
X30261904Y-164000000D01*
X29928571Y-163952380D02*
X29690476Y-164952380D01*
X29500000Y-164238095D01*
X29309523Y-164952380D01*
X29071428Y-163952380D01*
X28214285Y-163952380D02*
X28690476Y-163952380D01*
X28738095Y-164428571D01*
X28690476Y-164380952D01*
X28595238Y-164333333D01*
X28357142Y-164333333D01*
X28261904Y-164380952D01*
X28214285Y-164428571D01*
X28166666Y-164523809D01*
X28166666Y-164761904D01*
X28214285Y-164857142D01*
X28261904Y-164904761D01*
X28357142Y-164952380D01*
X28595238Y-164952380D01*
X28690476Y-164904761D01*
X28738095Y-164857142D01*
X30476190Y-169952380D02*
X30476190Y-169285714D01*
X30476190Y-169476190D02*
X30428571Y-169380952D01*
X30380952Y-169333333D01*
X30285714Y-169285714D01*
X30190476Y-169285714D01*
X29428571Y-169285714D02*
X29428571Y-169952380D01*
X29857142Y-169285714D02*
X29857142Y-169809523D01*
X29809523Y-169904761D01*
X29714285Y-169952380D01*
X29571428Y-169952380D01*
X29476190Y-169904761D01*
X29428571Y-169857142D01*
X28952380Y-169285714D02*
X28952380Y-169952380D01*
X28952380Y-169380952D02*
X28904761Y-169333333D01*
X28809523Y-169285714D01*
X28666666Y-169285714D01*
X28571428Y-169333333D01*
X28523809Y-169428571D01*
X28523809Y-169952380D01*
X67857142Y-184233333D02*
X67904761Y-184185714D01*
X67952380Y-184042857D01*
X67952380Y-183947619D01*
X67904761Y-183804761D01*
X67809523Y-183709523D01*
X67714285Y-183661904D01*
X67523809Y-183614285D01*
X67380952Y-183614285D01*
X67190476Y-183661904D01*
X67095238Y-183709523D01*
X67000000Y-183804761D01*
X66952380Y-183947619D01*
X66952380Y-184042857D01*
X67000000Y-184185714D01*
X67047619Y-184233333D01*
X66952380Y-184566666D02*
X66952380Y-185185714D01*
X67333333Y-184852380D01*
X67333333Y-184995238D01*
X67380952Y-185090476D01*
X67428571Y-185138095D01*
X67523809Y-185185714D01*
X67761904Y-185185714D01*
X67857142Y-185138095D01*
X67904761Y-185090476D01*
X67952380Y-184995238D01*
X67952380Y-184709523D01*
X67904761Y-184614285D01*
X67857142Y-184566666D01*
X44857142Y-177757142D02*
X44904761Y-177709523D01*
X44952380Y-177566666D01*
X44952380Y-177471428D01*
X44904761Y-177328571D01*
X44809523Y-177233333D01*
X44714285Y-177185714D01*
X44523809Y-177138095D01*
X44380952Y-177138095D01*
X44190476Y-177185714D01*
X44095238Y-177233333D01*
X44000000Y-177328571D01*
X43952380Y-177471428D01*
X43952380Y-177566666D01*
X44000000Y-177709523D01*
X44047619Y-177757142D01*
X44952380Y-178709523D02*
X44952380Y-178138095D01*
X44952380Y-178423809D02*
X43952380Y-178423809D01*
X44095238Y-178328571D01*
X44190476Y-178233333D01*
X44238095Y-178138095D01*
X43952380Y-179328571D02*
X43952380Y-179423809D01*
X44000000Y-179519047D01*
X44047619Y-179566666D01*
X44142857Y-179614285D01*
X44333333Y-179661904D01*
X44571428Y-179661904D01*
X44761904Y-179614285D01*
X44857142Y-179566666D01*
X44904761Y-179519047D01*
X44952380Y-179423809D01*
X44952380Y-179328571D01*
X44904761Y-179233333D01*
X44857142Y-179185714D01*
X44761904Y-179138095D01*
X44571428Y-179090476D01*
X44333333Y-179090476D01*
X44142857Y-179138095D01*
X44047619Y-179185714D01*
X44000000Y-179233333D01*
X43952380Y-179328571D01*
X180642857Y-182832380D02*
X180976190Y-182356190D01*
X181214285Y-182832380D02*
X181214285Y-181832380D01*
X180833333Y-181832380D01*
X180738095Y-181880000D01*
X180690476Y-181927619D01*
X180642857Y-182022857D01*
X180642857Y-182165714D01*
X180690476Y-182260952D01*
X180738095Y-182308571D01*
X180833333Y-182356190D01*
X181214285Y-182356190D01*
X180309523Y-181832380D02*
X179690476Y-181832380D01*
X180023809Y-182213333D01*
X179880952Y-182213333D01*
X179785714Y-182260952D01*
X179738095Y-182308571D01*
X179690476Y-182403809D01*
X179690476Y-182641904D01*
X179738095Y-182737142D01*
X179785714Y-182784761D01*
X179880952Y-182832380D01*
X180166666Y-182832380D01*
X180261904Y-182784761D01*
X180309523Y-182737142D01*
X178785714Y-181832380D02*
X179261904Y-181832380D01*
X179309523Y-182308571D01*
X179261904Y-182260952D01*
X179166666Y-182213333D01*
X178928571Y-182213333D01*
X178833333Y-182260952D01*
X178785714Y-182308571D01*
X178738095Y-182403809D01*
X178738095Y-182641904D01*
X178785714Y-182737142D01*
X178833333Y-182784761D01*
X178928571Y-182832380D01*
X179166666Y-182832380D01*
X179261904Y-182784761D01*
X179309523Y-182737142D01*
X55922380Y-76233333D02*
X55446190Y-75900000D01*
X55922380Y-75661904D02*
X54922380Y-75661904D01*
X54922380Y-76042857D01*
X54970000Y-76138095D01*
X55017619Y-76185714D01*
X55112857Y-76233333D01*
X55255714Y-76233333D01*
X55350952Y-76185714D01*
X55398571Y-76138095D01*
X55446190Y-76042857D01*
X55446190Y-75661904D01*
X54922380Y-77138095D02*
X54922380Y-76661904D01*
X55398571Y-76614285D01*
X55350952Y-76661904D01*
X55303333Y-76757142D01*
X55303333Y-76995238D01*
X55350952Y-77090476D01*
X55398571Y-77138095D01*
X55493809Y-77185714D01*
X55731904Y-77185714D01*
X55827142Y-77138095D01*
X55874761Y-77090476D01*
X55922380Y-76995238D01*
X55922380Y-76757142D01*
X55874761Y-76661904D01*
X55827142Y-76614285D01*
X33166666Y-173772380D02*
X33500000Y-173296190D01*
X33738095Y-173772380D02*
X33738095Y-172772380D01*
X33357142Y-172772380D01*
X33261904Y-172820000D01*
X33214285Y-172867619D01*
X33166666Y-172962857D01*
X33166666Y-173105714D01*
X33214285Y-173200952D01*
X33261904Y-173248571D01*
X33357142Y-173296190D01*
X33738095Y-173296190D01*
X32595238Y-173200952D02*
X32690476Y-173153333D01*
X32738095Y-173105714D01*
X32785714Y-173010476D01*
X32785714Y-172962857D01*
X32738095Y-172867619D01*
X32690476Y-172820000D01*
X32595238Y-172772380D01*
X32404761Y-172772380D01*
X32309523Y-172820000D01*
X32261904Y-172867619D01*
X32214285Y-172962857D01*
X32214285Y-173010476D01*
X32261904Y-173105714D01*
X32309523Y-173153333D01*
X32404761Y-173200952D01*
X32595238Y-173200952D01*
X32690476Y-173248571D01*
X32738095Y-173296190D01*
X32785714Y-173391428D01*
X32785714Y-173581904D01*
X32738095Y-173677142D01*
X32690476Y-173724761D01*
X32595238Y-173772380D01*
X32404761Y-173772380D01*
X32309523Y-173724761D01*
X32261904Y-173677142D01*
X32214285Y-173581904D01*
X32214285Y-173391428D01*
X32261904Y-173296190D01*
X32309523Y-173248571D01*
X32404761Y-173200952D01*
X286137380Y-178261904D02*
X285137380Y-178261904D01*
X285137380Y-178642857D01*
X285185000Y-178738095D01*
X285232619Y-178785714D01*
X285327857Y-178833333D01*
X285470714Y-178833333D01*
X285565952Y-178785714D01*
X285613571Y-178738095D01*
X285661190Y-178642857D01*
X285661190Y-178261904D01*
X286137380Y-179785714D02*
X286137380Y-179214285D01*
X286137380Y-179500000D02*
X285137380Y-179500000D01*
X285280238Y-179404761D01*
X285375476Y-179309523D01*
X285423095Y-179214285D01*
X275642857Y-232677142D02*
X275690476Y-232724761D01*
X275833333Y-232772380D01*
X275928571Y-232772380D01*
X276071428Y-232724761D01*
X276166666Y-232629523D01*
X276214285Y-232534285D01*
X276261904Y-232343809D01*
X276261904Y-232200952D01*
X276214285Y-232010476D01*
X276166666Y-231915238D01*
X276071428Y-231820000D01*
X275928571Y-231772380D01*
X275833333Y-231772380D01*
X275690476Y-231820000D01*
X275642857Y-231867619D01*
X275261904Y-231867619D02*
X275214285Y-231820000D01*
X275119047Y-231772380D01*
X274880952Y-231772380D01*
X274785714Y-231820000D01*
X274738095Y-231867619D01*
X274690476Y-231962857D01*
X274690476Y-232058095D01*
X274738095Y-232200952D01*
X275309523Y-232772380D01*
X274690476Y-232772380D01*
X274119047Y-232200952D02*
X274214285Y-232153333D01*
X274261904Y-232105714D01*
X274309523Y-232010476D01*
X274309523Y-231962857D01*
X274261904Y-231867619D01*
X274214285Y-231820000D01*
X274119047Y-231772380D01*
X273928571Y-231772380D01*
X273833333Y-231820000D01*
X273785714Y-231867619D01*
X273738095Y-231962857D01*
X273738095Y-232010476D01*
X273785714Y-232105714D01*
X273833333Y-232153333D01*
X273928571Y-232200952D01*
X274119047Y-232200952D01*
X274214285Y-232248571D01*
X274261904Y-232296190D01*
X274309523Y-232391428D01*
X274309523Y-232581904D01*
X274261904Y-232677142D01*
X274214285Y-232724761D01*
X274119047Y-232772380D01*
X273928571Y-232772380D01*
X273833333Y-232724761D01*
X273785714Y-232677142D01*
X273738095Y-232581904D01*
X273738095Y-232391428D01*
X273785714Y-232296190D01*
X273833333Y-232248571D01*
X273928571Y-232200952D01*
X57916666Y-179452380D02*
X58250000Y-178976190D01*
X58488095Y-179452380D02*
X58488095Y-178452380D01*
X58107142Y-178452380D01*
X58011904Y-178500000D01*
X57964285Y-178547619D01*
X57916666Y-178642857D01*
X57916666Y-178785714D01*
X57964285Y-178880952D01*
X58011904Y-178928571D01*
X58107142Y-178976190D01*
X58488095Y-178976190D01*
X57059523Y-178452380D02*
X57250000Y-178452380D01*
X57345238Y-178500000D01*
X57392857Y-178547619D01*
X57488095Y-178690476D01*
X57535714Y-178880952D01*
X57535714Y-179261904D01*
X57488095Y-179357142D01*
X57440476Y-179404761D01*
X57345238Y-179452380D01*
X57154761Y-179452380D01*
X57059523Y-179404761D01*
X57011904Y-179357142D01*
X56964285Y-179261904D01*
X56964285Y-179023809D01*
X57011904Y-178928571D01*
X57059523Y-178880952D01*
X57154761Y-178833333D01*
X57345238Y-178833333D01*
X57440476Y-178880952D01*
X57488095Y-178928571D01*
X57535714Y-179023809D01*
X50337142Y-177757142D02*
X50384761Y-177709523D01*
X50432380Y-177566666D01*
X50432380Y-177471428D01*
X50384761Y-177328571D01*
X50289523Y-177233333D01*
X50194285Y-177185714D01*
X50003809Y-177138095D01*
X49860952Y-177138095D01*
X49670476Y-177185714D01*
X49575238Y-177233333D01*
X49480000Y-177328571D01*
X49432380Y-177471428D01*
X49432380Y-177566666D01*
X49480000Y-177709523D01*
X49527619Y-177757142D01*
X50432380Y-178709523D02*
X50432380Y-178138095D01*
X50432380Y-178423809D02*
X49432380Y-178423809D01*
X49575238Y-178328571D01*
X49670476Y-178233333D01*
X49718095Y-178138095D01*
X50432380Y-179661904D02*
X50432380Y-179090476D01*
X50432380Y-179376190D02*
X49432380Y-179376190D01*
X49575238Y-179280952D01*
X49670476Y-179185714D01*
X49718095Y-179090476D01*
X65357142Y-184233333D02*
X65404761Y-184185714D01*
X65452380Y-184042857D01*
X65452380Y-183947619D01*
X65404761Y-183804761D01*
X65309523Y-183709523D01*
X65214285Y-183661904D01*
X65023809Y-183614285D01*
X64880952Y-183614285D01*
X64690476Y-183661904D01*
X64595238Y-183709523D01*
X64500000Y-183804761D01*
X64452380Y-183947619D01*
X64452380Y-184042857D01*
X64500000Y-184185714D01*
X64547619Y-184233333D01*
X64880952Y-184804761D02*
X64833333Y-184709523D01*
X64785714Y-184661904D01*
X64690476Y-184614285D01*
X64642857Y-184614285D01*
X64547619Y-184661904D01*
X64500000Y-184709523D01*
X64452380Y-184804761D01*
X64452380Y-184995238D01*
X64500000Y-185090476D01*
X64547619Y-185138095D01*
X64642857Y-185185714D01*
X64690476Y-185185714D01*
X64785714Y-185138095D01*
X64833333Y-185090476D01*
X64880952Y-184995238D01*
X64880952Y-184804761D01*
X64928571Y-184709523D01*
X64976190Y-184661904D01*
X65071428Y-184614285D01*
X65261904Y-184614285D01*
X65357142Y-184661904D01*
X65404761Y-184709523D01*
X65452380Y-184804761D01*
X65452380Y-184995238D01*
X65404761Y-185090476D01*
X65357142Y-185138095D01*
X65261904Y-185185714D01*
X65071428Y-185185714D01*
X64976190Y-185138095D01*
X64928571Y-185090476D01*
X64880952Y-184995238D01*
X88417142Y-178157142D02*
X88464761Y-178109523D01*
X88512380Y-177966666D01*
X88512380Y-177871428D01*
X88464761Y-177728571D01*
X88369523Y-177633333D01*
X88274285Y-177585714D01*
X88083809Y-177538095D01*
X87940952Y-177538095D01*
X87750476Y-177585714D01*
X87655238Y-177633333D01*
X87560000Y-177728571D01*
X87512380Y-177871428D01*
X87512380Y-177966666D01*
X87560000Y-178109523D01*
X87607619Y-178157142D01*
X88512380Y-179109523D02*
X88512380Y-178538095D01*
X88512380Y-178823809D02*
X87512380Y-178823809D01*
X87655238Y-178728571D01*
X87750476Y-178633333D01*
X87798095Y-178538095D01*
X88512380Y-179585714D02*
X88512380Y-179776190D01*
X88464761Y-179871428D01*
X88417142Y-179919047D01*
X88274285Y-180014285D01*
X88083809Y-180061904D01*
X87702857Y-180061904D01*
X87607619Y-180014285D01*
X87560000Y-179966666D01*
X87512380Y-179871428D01*
X87512380Y-179680952D01*
X87560000Y-179585714D01*
X87607619Y-179538095D01*
X87702857Y-179490476D01*
X87940952Y-179490476D01*
X88036190Y-179538095D01*
X88083809Y-179585714D01*
X88131428Y-179680952D01*
X88131428Y-179871428D01*
X88083809Y-179966666D01*
X88036190Y-180014285D01*
X87940952Y-180061904D01*
X52537142Y-79357142D02*
X52584761Y-79309523D01*
X52632380Y-79166666D01*
X52632380Y-79071428D01*
X52584761Y-78928571D01*
X52489523Y-78833333D01*
X52394285Y-78785714D01*
X52203809Y-78738095D01*
X52060952Y-78738095D01*
X51870476Y-78785714D01*
X51775238Y-78833333D01*
X51680000Y-78928571D01*
X51632380Y-79071428D01*
X51632380Y-79166666D01*
X51680000Y-79309523D01*
X51727619Y-79357142D01*
X52632380Y-80309523D02*
X52632380Y-79738095D01*
X52632380Y-80023809D02*
X51632380Y-80023809D01*
X51775238Y-79928571D01*
X51870476Y-79833333D01*
X51918095Y-79738095D01*
X51965714Y-81166666D02*
X52632380Y-81166666D01*
X51584761Y-80928571D02*
X52299047Y-80690476D01*
X52299047Y-81309523D01*
X226333333Y-239437380D02*
X226333333Y-240151666D01*
X226380952Y-240294523D01*
X226476190Y-240389761D01*
X226619047Y-240437380D01*
X226714285Y-240437380D01*
X225904761Y-239532619D02*
X225857142Y-239485000D01*
X225761904Y-239437380D01*
X225523809Y-239437380D01*
X225428571Y-239485000D01*
X225380952Y-239532619D01*
X225333333Y-239627857D01*
X225333333Y-239723095D01*
X225380952Y-239865952D01*
X225952380Y-240437380D01*
X225333333Y-240437380D01*
D12*
X229500000Y-249063095D02*
X229333333Y-249063095D01*
X229440476Y-249313095D01*
X229238095Y-249289285D02*
X229226190Y-249301190D01*
X229238095Y-249313095D01*
X229250000Y-249301190D01*
X229238095Y-249289285D01*
X229238095Y-249313095D01*
X229142857Y-249063095D02*
X228988095Y-249063095D01*
X229071428Y-249158333D01*
X229035714Y-249158333D01*
X229011904Y-249170238D01*
X229000000Y-249182142D01*
X228988095Y-249205952D01*
X228988095Y-249265476D01*
X229000000Y-249289285D01*
X229011904Y-249301190D01*
X229035714Y-249313095D01*
X229107142Y-249313095D01*
X229130952Y-249301190D01*
X229142857Y-249289285D01*
X228761904Y-249063095D02*
X228880952Y-249063095D01*
X228892857Y-249182142D01*
X228880952Y-249170238D01*
X228857142Y-249158333D01*
X228797619Y-249158333D01*
X228773809Y-249170238D01*
X228761904Y-249182142D01*
X228750000Y-249205952D01*
X228750000Y-249265476D01*
X228761904Y-249289285D01*
X228773809Y-249301190D01*
X228797619Y-249313095D01*
X228857142Y-249313095D01*
X228880952Y-249301190D01*
X228892857Y-249289285D01*
X228642857Y-249313095D02*
X228642857Y-249146428D01*
X228642857Y-249170238D02*
X228630952Y-249158333D01*
X228607142Y-249146428D01*
X228571428Y-249146428D01*
X228547619Y-249158333D01*
X228535714Y-249182142D01*
X228535714Y-249313095D01*
X228535714Y-249182142D02*
X228523809Y-249158333D01*
X228500000Y-249146428D01*
X228464285Y-249146428D01*
X228440476Y-249158333D01*
X228428571Y-249182142D01*
X228428571Y-249313095D01*
X228309523Y-249313095D02*
X228309523Y-249146428D01*
X228309523Y-249170238D02*
X228297619Y-249158333D01*
X228273809Y-249146428D01*
X228238095Y-249146428D01*
X228214285Y-249158333D01*
X228202380Y-249182142D01*
X228202380Y-249313095D01*
X228202380Y-249182142D02*
X228190476Y-249158333D01*
X228166666Y-249146428D01*
X228130952Y-249146428D01*
X228107142Y-249158333D01*
X228095238Y-249182142D01*
X228095238Y-249313095D01*
X227821428Y-249146428D02*
X227726190Y-249146428D01*
X227785714Y-249313095D02*
X227785714Y-249098809D01*
X227773809Y-249075000D01*
X227750000Y-249063095D01*
X227726190Y-249063095D01*
X227642857Y-249313095D02*
X227642857Y-249146428D01*
X227642857Y-249194047D02*
X227630952Y-249170238D01*
X227619047Y-249158333D01*
X227595238Y-249146428D01*
X227571428Y-249146428D01*
X227452380Y-249313095D02*
X227476190Y-249301190D01*
X227488095Y-249289285D01*
X227500000Y-249265476D01*
X227500000Y-249194047D01*
X227488095Y-249170238D01*
X227476190Y-249158333D01*
X227452380Y-249146428D01*
X227416666Y-249146428D01*
X227392857Y-249158333D01*
X227380952Y-249170238D01*
X227369047Y-249194047D01*
X227369047Y-249265476D01*
X227380952Y-249289285D01*
X227392857Y-249301190D01*
X227416666Y-249313095D01*
X227452380Y-249313095D01*
X227261904Y-249313095D02*
X227261904Y-249146428D01*
X227261904Y-249170238D02*
X227250000Y-249158333D01*
X227226190Y-249146428D01*
X227190476Y-249146428D01*
X227166666Y-249158333D01*
X227154761Y-249182142D01*
X227154761Y-249313095D01*
X227154761Y-249182142D02*
X227142857Y-249158333D01*
X227119047Y-249146428D01*
X227083333Y-249146428D01*
X227059523Y-249158333D01*
X227047619Y-249182142D01*
X227047619Y-249313095D01*
X226738095Y-249313095D02*
X226738095Y-249063095D01*
X226738095Y-249158333D02*
X226714285Y-249146428D01*
X226666666Y-249146428D01*
X226642857Y-249158333D01*
X226630952Y-249170238D01*
X226619047Y-249194047D01*
X226619047Y-249265476D01*
X226630952Y-249289285D01*
X226642857Y-249301190D01*
X226666666Y-249313095D01*
X226714285Y-249313095D01*
X226738095Y-249301190D01*
X226404761Y-249313095D02*
X226404761Y-249182142D01*
X226416666Y-249158333D01*
X226440476Y-249146428D01*
X226488095Y-249146428D01*
X226511904Y-249158333D01*
X226404761Y-249301190D02*
X226428571Y-249313095D01*
X226488095Y-249313095D01*
X226511904Y-249301190D01*
X226523809Y-249277380D01*
X226523809Y-249253571D01*
X226511904Y-249229761D01*
X226488095Y-249217857D01*
X226428571Y-249217857D01*
X226404761Y-249205952D01*
X226178571Y-249301190D02*
X226202380Y-249313095D01*
X226250000Y-249313095D01*
X226273809Y-249301190D01*
X226285714Y-249289285D01*
X226297619Y-249265476D01*
X226297619Y-249194047D01*
X226285714Y-249170238D01*
X226273809Y-249158333D01*
X226250000Y-249146428D01*
X226202380Y-249146428D01*
X226178571Y-249158333D01*
X226071428Y-249313095D02*
X226071428Y-249063095D01*
X226047619Y-249217857D02*
X225976190Y-249313095D01*
X225976190Y-249146428D02*
X226071428Y-249241666D01*
X225642857Y-249313095D02*
X225666666Y-249301190D01*
X225678571Y-249289285D01*
X225690476Y-249265476D01*
X225690476Y-249194047D01*
X225678571Y-249170238D01*
X225666666Y-249158333D01*
X225642857Y-249146428D01*
X225607142Y-249146428D01*
X225583333Y-249158333D01*
X225571428Y-249170238D01*
X225559523Y-249194047D01*
X225559523Y-249265476D01*
X225571428Y-249289285D01*
X225583333Y-249301190D01*
X225607142Y-249313095D01*
X225642857Y-249313095D01*
X225488095Y-249146428D02*
X225392857Y-249146428D01*
X225452380Y-249313095D02*
X225452380Y-249098809D01*
X225440476Y-249075000D01*
X225416666Y-249063095D01*
X225392857Y-249063095D01*
X225119047Y-249313095D02*
X225119047Y-249146428D01*
X225119047Y-249170238D02*
X225107142Y-249158333D01*
X225083333Y-249146428D01*
X225047619Y-249146428D01*
X225023809Y-249158333D01*
X225011904Y-249182142D01*
X225011904Y-249313095D01*
X225011904Y-249182142D02*
X225000000Y-249158333D01*
X224976190Y-249146428D01*
X224940476Y-249146428D01*
X224916666Y-249158333D01*
X224904761Y-249182142D01*
X224904761Y-249313095D01*
X224750000Y-249313095D02*
X224773809Y-249301190D01*
X224785714Y-249289285D01*
X224797619Y-249265476D01*
X224797619Y-249194047D01*
X224785714Y-249170238D01*
X224773809Y-249158333D01*
X224750000Y-249146428D01*
X224714285Y-249146428D01*
X224690476Y-249158333D01*
X224678571Y-249170238D01*
X224666666Y-249194047D01*
X224666666Y-249265476D01*
X224678571Y-249289285D01*
X224690476Y-249301190D01*
X224714285Y-249313095D01*
X224750000Y-249313095D01*
X224452380Y-249146428D02*
X224452380Y-249313095D01*
X224559523Y-249146428D02*
X224559523Y-249277380D01*
X224547619Y-249301190D01*
X224523809Y-249313095D01*
X224488095Y-249313095D01*
X224464285Y-249301190D01*
X224452380Y-249289285D01*
X224333333Y-249146428D02*
X224333333Y-249313095D01*
X224333333Y-249170238D02*
X224321428Y-249158333D01*
X224297619Y-249146428D01*
X224261904Y-249146428D01*
X224238095Y-249158333D01*
X224226190Y-249182142D01*
X224226190Y-249313095D01*
X224142857Y-249146428D02*
X224047619Y-249146428D01*
X224107142Y-249063095D02*
X224107142Y-249277380D01*
X224095238Y-249301190D01*
X224071428Y-249313095D01*
X224047619Y-249313095D01*
X223964285Y-249313095D02*
X223964285Y-249146428D01*
X223964285Y-249063095D02*
X223976190Y-249075000D01*
X223964285Y-249086904D01*
X223952380Y-249075000D01*
X223964285Y-249063095D01*
X223964285Y-249086904D01*
X223845238Y-249146428D02*
X223845238Y-249313095D01*
X223845238Y-249170238D02*
X223833333Y-249158333D01*
X223809523Y-249146428D01*
X223773809Y-249146428D01*
X223750000Y-249158333D01*
X223738095Y-249182142D01*
X223738095Y-249313095D01*
X223511904Y-249146428D02*
X223511904Y-249348809D01*
X223523809Y-249372619D01*
X223535714Y-249384523D01*
X223559523Y-249396428D01*
X223595238Y-249396428D01*
X223619047Y-249384523D01*
X223511904Y-249301190D02*
X223535714Y-249313095D01*
X223583333Y-249313095D01*
X223607142Y-249301190D01*
X223619047Y-249289285D01*
X223630952Y-249265476D01*
X223630952Y-249194047D01*
X223619047Y-249170238D01*
X223607142Y-249158333D01*
X223583333Y-249146428D01*
X223535714Y-249146428D01*
X223511904Y-249158333D01*
X223202380Y-249313095D02*
X223202380Y-249063095D01*
X223095238Y-249313095D02*
X223095238Y-249182142D01*
X223107142Y-249158333D01*
X223130952Y-249146428D01*
X223166666Y-249146428D01*
X223190476Y-249158333D01*
X223202380Y-249170238D01*
X222940476Y-249313095D02*
X222964285Y-249301190D01*
X222976190Y-249289285D01*
X222988095Y-249265476D01*
X222988095Y-249194047D01*
X222976190Y-249170238D01*
X222964285Y-249158333D01*
X222940476Y-249146428D01*
X222904761Y-249146428D01*
X222880952Y-249158333D01*
X222869047Y-249170238D01*
X222857142Y-249194047D01*
X222857142Y-249265476D01*
X222869047Y-249289285D01*
X222880952Y-249301190D01*
X222904761Y-249313095D01*
X222940476Y-249313095D01*
X222714285Y-249313095D02*
X222738095Y-249301190D01*
X222750000Y-249277380D01*
X222750000Y-249063095D01*
X222523809Y-249301190D02*
X222547619Y-249313095D01*
X222595238Y-249313095D01*
X222619047Y-249301190D01*
X222630952Y-249277380D01*
X222630952Y-249182142D01*
X222619047Y-249158333D01*
X222595238Y-249146428D01*
X222547619Y-249146428D01*
X222523809Y-249158333D01*
X222511904Y-249182142D01*
X222511904Y-249205952D01*
X222630952Y-249229761D01*
D10*
X33166666Y-178272380D02*
X33500000Y-177796190D01*
X33738095Y-178272380D02*
X33738095Y-177272380D01*
X33357142Y-177272380D01*
X33261904Y-177320000D01*
X33214285Y-177367619D01*
X33166666Y-177462857D01*
X33166666Y-177605714D01*
X33214285Y-177700952D01*
X33261904Y-177748571D01*
X33357142Y-177796190D01*
X33738095Y-177796190D01*
X32309523Y-177605714D02*
X32309523Y-178272380D01*
X32547619Y-177224761D02*
X32785714Y-177939047D01*
X32166666Y-177939047D01*
X272642857Y-149882380D02*
X272976190Y-149406190D01*
X273214285Y-149882380D02*
X273214285Y-148882380D01*
X272833333Y-148882380D01*
X272738095Y-148930000D01*
X272690476Y-148977619D01*
X272642857Y-149072857D01*
X272642857Y-149215714D01*
X272690476Y-149310952D01*
X272738095Y-149358571D01*
X272833333Y-149406190D01*
X273214285Y-149406190D01*
X272309523Y-148882380D02*
X271690476Y-148882380D01*
X272023809Y-149263333D01*
X271880952Y-149263333D01*
X271785714Y-149310952D01*
X271738095Y-149358571D01*
X271690476Y-149453809D01*
X271690476Y-149691904D01*
X271738095Y-149787142D01*
X271785714Y-149834761D01*
X271880952Y-149882380D01*
X272166666Y-149882380D01*
X272261904Y-149834761D01*
X272309523Y-149787142D01*
X271119047Y-149310952D02*
X271214285Y-149263333D01*
X271261904Y-149215714D01*
X271309523Y-149120476D01*
X271309523Y-149072857D01*
X271261904Y-148977619D01*
X271214285Y-148930000D01*
X271119047Y-148882380D01*
X270928571Y-148882380D01*
X270833333Y-148930000D01*
X270785714Y-148977619D01*
X270738095Y-149072857D01*
X270738095Y-149120476D01*
X270785714Y-149215714D01*
X270833333Y-149263333D01*
X270928571Y-149310952D01*
X271119047Y-149310952D01*
X271214285Y-149358571D01*
X271261904Y-149406190D01*
X271309523Y-149501428D01*
X271309523Y-149691904D01*
X271261904Y-149787142D01*
X271214285Y-149834761D01*
X271119047Y-149882380D01*
X270928571Y-149882380D01*
X270833333Y-149834761D01*
X270785714Y-149787142D01*
X270738095Y-149691904D01*
X270738095Y-149501428D01*
X270785714Y-149406190D01*
X270833333Y-149358571D01*
X270928571Y-149310952D01*
X60142857Y-183107142D02*
X60190476Y-183154761D01*
X60333333Y-183202380D01*
X60428571Y-183202380D01*
X60571428Y-183154761D01*
X60666666Y-183059523D01*
X60714285Y-182964285D01*
X60761904Y-182773809D01*
X60761904Y-182630952D01*
X60714285Y-182440476D01*
X60666666Y-182345238D01*
X60571428Y-182250000D01*
X60428571Y-182202380D01*
X60333333Y-182202380D01*
X60190476Y-182250000D01*
X60142857Y-182297619D01*
X59190476Y-183202380D02*
X59761904Y-183202380D01*
X59476190Y-183202380D02*
X59476190Y-182202380D01*
X59571428Y-182345238D01*
X59666666Y-182440476D01*
X59761904Y-182488095D01*
X58857142Y-182202380D02*
X58190476Y-182202380D01*
X58619047Y-183202380D01*
D13*
X274175000Y-237825000D02*
X275825000Y-237825000D01*
X275500000Y-236900000D02*
X275500000Y-237100000D01*
X275350000Y-236900000D02*
X275650000Y-236900000D01*
X275500000Y-237100000D02*
X275350000Y-236900000D01*
X274175000Y-236175000D02*
X274175000Y-237825000D01*
X275500000Y-237100000D02*
X275650000Y-236900000D01*
X275825000Y-237825000D02*
X275825000Y-236175000D01*
X275825000Y-236175000D02*
X274175000Y-236175000D01*
X54825000Y-79175000D02*
X53175000Y-79175000D01*
X54825000Y-80825000D02*
X54825000Y-79175000D01*
X54350000Y-79900000D02*
X54650000Y-79900000D01*
X53175000Y-79175000D02*
X53175000Y-80825000D01*
X54500000Y-80100000D02*
X54350000Y-79900000D01*
X53175000Y-80825000D02*
X54825000Y-80825000D01*
X54500000Y-80100000D02*
X54650000Y-79900000D01*
X54500000Y-79900000D02*
X54500000Y-80100000D01*
X54500000Y-73400000D02*
X54500000Y-73600000D01*
X54825000Y-74325000D02*
X54825000Y-72675000D01*
X54500000Y-73600000D02*
X54650000Y-73400000D01*
X53175000Y-74325000D02*
X54825000Y-74325000D01*
X54825000Y-72675000D02*
X53175000Y-72675000D01*
X54500000Y-73600000D02*
X54350000Y-73400000D01*
X54350000Y-73400000D02*
X54650000Y-73400000D01*
X53175000Y-72675000D02*
X53175000Y-74325000D01*
X182825000Y-232825000D02*
X182825000Y-231175000D01*
X182825000Y-231175000D02*
X181175000Y-231175000D01*
X182500000Y-231900000D02*
X182500000Y-232100000D01*
X182350000Y-231900000D02*
X182650000Y-231900000D01*
X182500000Y-232100000D02*
X182350000Y-231900000D01*
X181175000Y-231175000D02*
X181175000Y-232825000D01*
X181175000Y-232825000D02*
X182825000Y-232825000D01*
X182500000Y-232100000D02*
X182650000Y-231900000D01*
X285500000Y-220600000D02*
X285650000Y-220400000D01*
X285825000Y-219675000D02*
X284175000Y-219675000D01*
X284175000Y-219675000D02*
X284175000Y-221325000D01*
X285350000Y-220400000D02*
X285650000Y-220400000D01*
X285500000Y-220400000D02*
X285500000Y-220600000D01*
X285825000Y-221325000D02*
X285825000Y-219675000D01*
X285500000Y-220600000D02*
X285350000Y-220400000D01*
X284175000Y-221325000D02*
X285825000Y-221325000D01*
D10*
X259300000Y-244000000D02*
G75*
G03*
X259300000Y-244000000I-1500000J0D01*
G01*
X279500000Y-150900000D02*
G75*
G03*
X279500000Y-150900000I-1500000J0D01*
G01*
X273700000Y-244000000D02*
G75*
G03*
X273700000Y-244000000I-1500000J0D01*
G01*
X203600000Y-244000000D02*
G75*
G03*
X203600000Y-244000000I-1500000J0D01*
G01*
X189200000Y-244000000D02*
G75*
G03*
X189200000Y-244000000I-1500000J0D01*
G01*
X279500000Y-136500000D02*
G75*
G03*
X279500000Y-136500000I-1500000J0D01*
G01*
D13*
X183175000Y-247825000D02*
X184825000Y-247825000D01*
X183175000Y-246175000D02*
X183175000Y-247825000D01*
X184825000Y-246175000D02*
X183175000Y-246175000D01*
X184500000Y-247100000D02*
X184350000Y-246900000D01*
X184500000Y-247100000D02*
X184650000Y-246900000D01*
X184500000Y-246900000D02*
X184500000Y-247100000D01*
X184825000Y-247825000D02*
X184825000Y-246175000D01*
X184350000Y-246900000D02*
X184650000Y-246900000D01*
D10*
X187500000Y-192500000D02*
G75*
G03*
X187500000Y-192500000I-1500000J0D01*
G01*
D13*
X54500000Y-87100000D02*
X54350000Y-86900000D01*
X53175000Y-86175000D02*
X53175000Y-87825000D01*
X54500000Y-87100000D02*
X54650000Y-86900000D01*
X53175000Y-87825000D02*
X54825000Y-87825000D01*
X54500000Y-86900000D02*
X54500000Y-87100000D01*
X54350000Y-86900000D02*
X54650000Y-86900000D01*
X54825000Y-87825000D02*
X54825000Y-86175000D01*
X54825000Y-86175000D02*
X53175000Y-86175000D01*
D10*
X181500000Y-223900000D02*
G75*
G03*
X181500000Y-223900000I-1500000J0D01*
G01*
X270000000Y-201500000D02*
G75*
G03*
X270000000Y-201500000I-1500000J0D01*
G01*
X181500000Y-209500000D02*
G75*
G03*
X181500000Y-209500000I-1500000J0D01*
G01*
D13*
X193825000Y-200175000D02*
X192175000Y-200175000D01*
X193500000Y-201100000D02*
X193350000Y-200900000D01*
X193500000Y-200900000D02*
X193500000Y-201100000D01*
X193350000Y-200900000D02*
X193650000Y-200900000D01*
X192175000Y-200175000D02*
X192175000Y-201825000D01*
X192175000Y-201825000D02*
X193825000Y-201825000D01*
X193825000Y-201825000D02*
X193825000Y-200175000D01*
X193500000Y-201100000D02*
X193650000Y-200900000D01*
D10*
X270000000Y-215900000D02*
G75*
G03*
X270000000Y-215900000I-1500000J0D01*
G01*
X187500000Y-178100000D02*
G75*
G03*
X187500000Y-178100000I-1500000J0D01*
G01*
D13*
X284325000Y-166175000D02*
X282675000Y-166175000D01*
X284000000Y-167100000D02*
X284150000Y-166900000D01*
X282675000Y-167825000D02*
X284325000Y-167825000D01*
X284325000Y-167825000D02*
X284325000Y-166175000D01*
X284000000Y-167100000D02*
X283850000Y-166900000D01*
X284000000Y-166900000D02*
X284000000Y-167100000D01*
X283850000Y-166900000D02*
X284150000Y-166900000D01*
X282675000Y-166175000D02*
X282675000Y-167825000D01*
X44987258Y-196772500D02*
X44512742Y-196772500D01*
X44987258Y-195727500D02*
X44512742Y-195727500D01*
X64260000Y-173107836D02*
X64260000Y-172892164D01*
X63540000Y-173107836D02*
X63540000Y-172892164D01*
X193022500Y-204012742D02*
X193022500Y-204487258D01*
X191977500Y-204012742D02*
X191977500Y-204487258D01*
X59477500Y-40737258D02*
X59477500Y-40262742D01*
X60522500Y-40737258D02*
X60522500Y-40262742D01*
X75977500Y-63262742D02*
X75977500Y-63737258D01*
X77022500Y-63262742D02*
X77022500Y-63737258D01*
X72992164Y-178960000D02*
X73207836Y-178960000D01*
X72992164Y-178240000D02*
X73207836Y-178240000D01*
X82022500Y-40737258D02*
X82022500Y-40262742D01*
X80977500Y-40737258D02*
X80977500Y-40262742D01*
X69250000Y-35440000D02*
X68600000Y-35440000D01*
X69250000Y-38560000D02*
X68600000Y-38560000D01*
X69250000Y-35440000D02*
X70925000Y-35440000D01*
X69250000Y-38560000D02*
X69900000Y-38560000D01*
X68860000Y-173107836D02*
X68860000Y-172892164D01*
X68140000Y-173107836D02*
X68140000Y-172892164D01*
X57250000Y-38560000D02*
X56600000Y-38560000D01*
X57250000Y-35440000D02*
X56600000Y-35440000D01*
X57250000Y-38560000D02*
X57900000Y-38560000D01*
X57250000Y-35440000D02*
X58925000Y-35440000D01*
X267522500Y-237762742D02*
X267522500Y-238237258D01*
X266477500Y-237762742D02*
X266477500Y-238237258D01*
X230762742Y-238522500D02*
X231237258Y-238522500D01*
X230762742Y-237477500D02*
X231237258Y-237477500D01*
X62392164Y-167360000D02*
X62607836Y-167360000D01*
X62392164Y-166640000D02*
X62607836Y-166640000D01*
X83792164Y-176360000D02*
X84007836Y-176360000D01*
X83792164Y-175640000D02*
X84007836Y-175640000D01*
X62922500Y-63262742D02*
X62922500Y-63737258D01*
X61877500Y-63262742D02*
X61877500Y-63737258D01*
X49765000Y-73761252D02*
X49765000Y-73238748D01*
X51235000Y-73761252D02*
X51235000Y-73238748D01*
X62007836Y-178960000D02*
X61792164Y-178960000D01*
X62007836Y-178240000D02*
X61792164Y-178240000D01*
G36*
X294762296Y-184320162D02*
G01*
X294788826Y-184325123D01*
X294843273Y-184344234D01*
X294894214Y-184372934D01*
X294935391Y-184408045D01*
X294950776Y-184425319D01*
X294972686Y-184453938D01*
X294987969Y-184482204D01*
X295000571Y-184516699D01*
X295001467Y-184520848D01*
X295002718Y-184532043D01*
X295003853Y-184549725D01*
X295004875Y-184574509D01*
X295005788Y-184607011D01*
X295006595Y-184647847D01*
X295007300Y-184697634D01*
X295007907Y-184756988D01*
X295008419Y-184826524D01*
X295008839Y-184906860D01*
X295009173Y-184998611D01*
X295009422Y-185102394D01*
X295009591Y-185218824D01*
X295009684Y-185348519D01*
X295009704Y-185492093D01*
X295009654Y-185650164D01*
X295009538Y-185823347D01*
X295009360Y-186012258D01*
X295007818Y-187475128D01*
X294990008Y-187513680D01*
X294969038Y-187549498D01*
X294936361Y-187589743D01*
X294898840Y-187624852D01*
X294861405Y-187649616D01*
X294854975Y-187652728D01*
X294796721Y-187673039D01*
X294737116Y-187681093D01*
X294681248Y-187676141D01*
X294676514Y-187675066D01*
X294662186Y-187671482D01*
X294647820Y-187667059D01*
X294632007Y-187661059D01*
X294613341Y-187652740D01*
X294590414Y-187641361D01*
X294561818Y-187626181D01*
X294526147Y-187606460D01*
X294481993Y-187581457D01*
X294427947Y-187550431D01*
X294362604Y-187512642D01*
X294284556Y-187467348D01*
X294227270Y-187434085D01*
X294164828Y-187397847D01*
X294105681Y-187363540D01*
X294051998Y-187332421D01*
X294005945Y-187305746D01*
X293969690Y-187284771D01*
X293945399Y-187270752D01*
X293944035Y-187269968D01*
X293810477Y-187193043D01*
X293671382Y-187112815D01*
X293523894Y-187027635D01*
X293365154Y-186935853D01*
X293300549Y-186898486D01*
X293179158Y-186828305D01*
X293060375Y-186759671D01*
X292945249Y-186693188D01*
X292834829Y-186629461D01*
X292730164Y-186569093D01*
X292632302Y-186512690D01*
X292542291Y-186460854D01*
X292461180Y-186414191D01*
X292390017Y-186373304D01*
X292329852Y-186338799D01*
X292281733Y-186311278D01*
X292246708Y-186291347D01*
X292239169Y-186287050D01*
X292175139Y-186247684D01*
X292125032Y-186210367D01*
X292087149Y-186173150D01*
X292059794Y-186134087D01*
X292041268Y-186091231D01*
X292029875Y-186042634D01*
X292027375Y-186022073D01*
X292028591Y-185988669D01*
X292251629Y-185988669D01*
X292252628Y-186014855D01*
X292268002Y-186038107D01*
X292271799Y-186040989D01*
X292289369Y-186052473D01*
X292318374Y-186070374D01*
X292356933Y-186093567D01*
X292403166Y-186120925D01*
X292455193Y-186151324D01*
X292511132Y-186183637D01*
X292569391Y-186217134D01*
X292647327Y-186262018D01*
X292730592Y-186310037D01*
X292814422Y-186358440D01*
X292894048Y-186404476D01*
X292964704Y-186445394D01*
X292999971Y-186465823D01*
X293052633Y-186496295D01*
X293116709Y-186533344D01*
X293190728Y-186576120D01*
X293273218Y-186623775D01*
X293362709Y-186675459D01*
X293457729Y-186730321D01*
X293556806Y-186787512D01*
X293658471Y-186846183D01*
X293761250Y-186905484D01*
X293863674Y-186964564D01*
X293877076Y-186972294D01*
X293975277Y-187028933D01*
X294070877Y-187084073D01*
X294162719Y-187137047D01*
X294249648Y-187187190D01*
X294330508Y-187233833D01*
X294404143Y-187276311D01*
X294469398Y-187313957D01*
X294525117Y-187346104D01*
X294570144Y-187372085D01*
X294603324Y-187391234D01*
X294623500Y-187402883D01*
X294660001Y-187423378D01*
X294696706Y-187441627D01*
X294724178Y-187451266D01*
X294744728Y-187452759D01*
X294760669Y-187446570D01*
X294774310Y-187433164D01*
X294791248Y-187411631D01*
X294791248Y-184588369D01*
X294774310Y-184566835D01*
X294763678Y-184555690D01*
X294748537Y-184548006D01*
X294729289Y-184547844D01*
X294703614Y-184555669D01*
X294669194Y-184571947D01*
X294623713Y-184597146D01*
X294596130Y-184613035D01*
X294550842Y-184639142D01*
X294499242Y-184668904D01*
X294445774Y-184699757D01*
X294394884Y-184729139D01*
X294351205Y-184754345D01*
X294304701Y-184781142D01*
X294262221Y-184805583D01*
X294227139Y-184825726D01*
X294202831Y-184839629D01*
X294197226Y-184842823D01*
X294145797Y-184872232D01*
X294085611Y-184906827D01*
X294015333Y-184947379D01*
X293933627Y-184994659D01*
X293839157Y-185049436D01*
X293837509Y-185050393D01*
X293780022Y-185083698D01*
X293713842Y-185121957D01*
X293644289Y-185162099D01*
X293576684Y-185201053D01*
X293516345Y-185235750D01*
X293495833Y-185247536D01*
X293443655Y-185277572D01*
X293393214Y-185306680D01*
X293347622Y-185333062D01*
X293309990Y-185354917D01*
X293283430Y-185370447D01*
X293273584Y-185376230D01*
X293238515Y-185396714D01*
X293195468Y-185421740D01*
X293148991Y-185448665D01*
X293103635Y-185474849D01*
X293092260Y-185481405D01*
X293051635Y-185504831D01*
X293000755Y-185534190D01*
X292942496Y-185567820D01*
X292879736Y-185604061D01*
X292815351Y-185641251D01*
X292752220Y-185677729D01*
X292730125Y-185690493D01*
X292666233Y-185727353D01*
X292602110Y-185764280D01*
X292540630Y-185799624D01*
X292484669Y-185831730D01*
X292437102Y-185858949D01*
X292400804Y-185879628D01*
X292377671Y-185892886D01*
X292339073Y-185915595D01*
X292305974Y-185935795D01*
X292281306Y-185951681D01*
X292268002Y-185961446D01*
X292265005Y-185964395D01*
X292251629Y-185988669D01*
X292028591Y-185988669D01*
X292029729Y-185957404D01*
X292046821Y-185895436D01*
X292077576Y-185839136D01*
X292120918Y-185791473D01*
X292126260Y-185787176D01*
X292137773Y-185778903D01*
X292154248Y-185767966D01*
X292176454Y-185753912D01*
X292205161Y-185736287D01*
X292241139Y-185714637D01*
X292285155Y-185688508D01*
X292337980Y-185657448D01*
X292400382Y-185621003D01*
X292473131Y-185578719D01*
X292556996Y-185530142D01*
X292652746Y-185474819D01*
X292761151Y-185412297D01*
X292882979Y-185342122D01*
X292938798Y-185309980D01*
X293059601Y-185240385D01*
X293173973Y-185174448D01*
X293279979Y-185113287D01*
X293375679Y-185058019D01*
X293459137Y-185009762D01*
X293489796Y-184992021D01*
X293560120Y-184951338D01*
X293622578Y-184915224D01*
X293680842Y-184881558D01*
X293738584Y-184848221D01*
X293799476Y-184813092D01*
X293867190Y-184774050D01*
X293945399Y-184728975D01*
X293976287Y-184711168D01*
X294037474Y-184675868D01*
X294099880Y-184639831D01*
X294159659Y-184605280D01*
X294212965Y-184574438D01*
X294255952Y-184549527D01*
X294336179Y-184503022D01*
X294411606Y-184459511D01*
X294475421Y-184423113D01*
X294528931Y-184393236D01*
X294573441Y-184369289D01*
X294610258Y-184350679D01*
X294640688Y-184336816D01*
X294666037Y-184327106D01*
X294687612Y-184320959D01*
X294706719Y-184317783D01*
X294724665Y-184316986D01*
X294729289Y-184317239D01*
X294742755Y-184317976D01*
X294762296Y-184320162D01*
G37*
G36*
X294415309Y-185839467D02*
G01*
X294456460Y-185858073D01*
X294491705Y-185888464D01*
X294518224Y-185930534D01*
X294523488Y-185945493D01*
X294529085Y-185986719D01*
X294525488Y-186030761D01*
X294512973Y-186070315D01*
X294501825Y-186089313D01*
X294469930Y-186123274D01*
X294429714Y-186147902D01*
X294385308Y-186161031D01*
X294340846Y-186160496D01*
X294315887Y-186153888D01*
X294272477Y-186131366D01*
X294238519Y-186098624D01*
X294215326Y-186058358D01*
X294204210Y-186013264D01*
X294206484Y-185966039D01*
X294223462Y-185919381D01*
X294247987Y-185885025D01*
X294284589Y-185855425D01*
X294326555Y-185838036D01*
X294371067Y-185832753D01*
X294415309Y-185839467D01*
G37*
G36*
X293163452Y-185843608D02*
G01*
X293262353Y-185853036D01*
X293374893Y-185863807D01*
X293481197Y-185874028D01*
X293580149Y-185883589D01*
X293670634Y-185892383D01*
X293751536Y-185900299D01*
X293821742Y-185907228D01*
X293880135Y-185913061D01*
X293925600Y-185917689D01*
X293957023Y-185921003D01*
X293973288Y-185922893D01*
X294000337Y-185929824D01*
X294032538Y-185951036D01*
X294049191Y-185972231D01*
X294055107Y-185997093D01*
X294047919Y-186027644D01*
X294040807Y-186041907D01*
X294028309Y-186055086D01*
X294009062Y-186065217D01*
X293980668Y-186073166D01*
X293940730Y-186079803D01*
X293886850Y-186085997D01*
X293869278Y-186087781D01*
X293732519Y-186101614D01*
X293610932Y-186113785D01*
X293503549Y-186124355D01*
X293409405Y-186133381D01*
X293327534Y-186140925D01*
X293256969Y-186147045D01*
X293196746Y-186151802D01*
X293145897Y-186155254D01*
X293103456Y-186157460D01*
X293068459Y-186158482D01*
X293039938Y-186158377D01*
X293016928Y-186157206D01*
X292998462Y-186155028D01*
X292983575Y-186151902D01*
X292971301Y-186147889D01*
X292960674Y-186143047D01*
X292949332Y-186136485D01*
X292915884Y-186106375D01*
X292893087Y-186068049D01*
X292881125Y-186024769D01*
X292880180Y-185979800D01*
X292890434Y-185936406D01*
X292912069Y-185897849D01*
X292945269Y-185867395D01*
X292969211Y-185854642D01*
X293003347Y-185844176D01*
X293045354Y-185839038D01*
X293097851Y-185838944D01*
X293163452Y-185843608D01*
G37*
X56300000Y-162275000D02*
X59025000Y-162275000D01*
X53575000Y-162275000D02*
X53575000Y-162535000D01*
X53575000Y-167725000D02*
X53575000Y-167465000D01*
X56300000Y-162275000D02*
X53575000Y-162275000D01*
X59025000Y-167725000D02*
X59025000Y-167465000D01*
X53575000Y-167465000D02*
X51900000Y-167465000D01*
X56300000Y-167725000D02*
X59025000Y-167725000D01*
X56300000Y-167725000D02*
X53575000Y-167725000D01*
X59025000Y-162275000D02*
X59025000Y-162535000D01*
X82750000Y-68560000D02*
X83400000Y-68560000D01*
X82750000Y-68560000D02*
X81075000Y-68560000D01*
X82750000Y-65440000D02*
X82100000Y-65440000D01*
X82750000Y-65440000D02*
X83400000Y-65440000D01*
X62007836Y-177960000D02*
X61792164Y-177960000D01*
X62007836Y-177240000D02*
X61792164Y-177240000D01*
X196522500Y-237762742D02*
X196522500Y-238237258D01*
X195477500Y-237762742D02*
X195477500Y-238237258D01*
X285982742Y-185522500D02*
X286457258Y-185522500D01*
X285982742Y-184477500D02*
X286457258Y-184477500D01*
X41365000Y-182738748D02*
X41365000Y-183261252D01*
X42835000Y-182738748D02*
X42835000Y-183261252D01*
X284261252Y-163735000D02*
X283738748Y-163735000D01*
X284261252Y-162265000D02*
X283738748Y-162265000D01*
X193261252Y-197735000D02*
X192738748Y-197735000D01*
X193261252Y-196265000D02*
X192738748Y-196265000D01*
X50890000Y-192990000D02*
X50890000Y-193245000D01*
X54750000Y-192990000D02*
X50890000Y-192990000D01*
X58610000Y-192990000D02*
X58610000Y-193245000D01*
X54750000Y-203510000D02*
X50890000Y-203510000D01*
X54750000Y-203510000D02*
X58610000Y-203510000D01*
X54750000Y-192990000D02*
X58610000Y-192990000D01*
X58610000Y-193245000D02*
X60425000Y-193245000D01*
X58610000Y-203510000D02*
X58610000Y-203255000D01*
X50890000Y-203510000D02*
X50890000Y-203255000D01*
X49022500Y-40737258D02*
X49022500Y-40262742D01*
X47977500Y-40737258D02*
X47977500Y-40262742D01*
X50235000Y-190511252D02*
X50235000Y-189988748D01*
X48765000Y-190511252D02*
X48765000Y-189988748D01*
X74272500Y-63262742D02*
X74272500Y-63737258D01*
X73227500Y-63262742D02*
X73227500Y-63737258D01*
X72992164Y-179240000D02*
X73207836Y-179240000D01*
X72992164Y-179960000D02*
X73207836Y-179960000D01*
X21500000Y-177050000D02*
X19600000Y-177050000D01*
X25400000Y-186450000D02*
X23400000Y-186450000D01*
X19600000Y-186450000D02*
X19600000Y-177050000D01*
X21500000Y-186450000D02*
X19600000Y-186450000D01*
X25400000Y-177050000D02*
X23400000Y-177050000D01*
X44512742Y-200477500D02*
X44987258Y-200477500D01*
X44512742Y-201522500D02*
X44987258Y-201522500D01*
X60272500Y-63262742D02*
X60272500Y-63737258D01*
X59227500Y-63262742D02*
X59227500Y-63737258D01*
X261762742Y-213522500D02*
X262237258Y-213522500D01*
X261762742Y-212477500D02*
X262237258Y-212477500D01*
X63890000Y-181710000D02*
X63890000Y-182360000D01*
X71110000Y-182360000D02*
X70460000Y-182360000D01*
X71110000Y-175140000D02*
X70460000Y-175140000D01*
X63890000Y-175790000D02*
X63890000Y-175140000D01*
X63890000Y-182360000D02*
X64540000Y-182360000D01*
X71110000Y-175790000D02*
X71110000Y-175140000D01*
X71110000Y-181710000D02*
X71110000Y-182360000D01*
X54022500Y-63262742D02*
X54022500Y-63737258D01*
X52977500Y-63262742D02*
X52977500Y-63737258D01*
X33237258Y-184772500D02*
X32762742Y-184772500D01*
X33237258Y-183727500D02*
X32762742Y-183727500D01*
X34937258Y-167427500D02*
X34462742Y-167427500D01*
X34937258Y-168472500D02*
X34462742Y-168472500D01*
X34937258Y-160272500D02*
X34462742Y-160272500D01*
X34937258Y-159227500D02*
X34462742Y-159227500D01*
G36*
X234679838Y-248012296D02*
G01*
X234674877Y-248038826D01*
X234655766Y-248093273D01*
X234627066Y-248144214D01*
X234591955Y-248185391D01*
X234574681Y-248200776D01*
X234546062Y-248222686D01*
X234517796Y-248237969D01*
X234483301Y-248250571D01*
X234479152Y-248251467D01*
X234467957Y-248252718D01*
X234450275Y-248253853D01*
X234425491Y-248254875D01*
X234392989Y-248255788D01*
X234352153Y-248256595D01*
X234302366Y-248257300D01*
X234243012Y-248257907D01*
X234173476Y-248258419D01*
X234093140Y-248258839D01*
X234001389Y-248259173D01*
X233897606Y-248259422D01*
X233781176Y-248259591D01*
X233651481Y-248259684D01*
X233507907Y-248259704D01*
X233349836Y-248259654D01*
X233176653Y-248259538D01*
X232987742Y-248259360D01*
X231524872Y-248257818D01*
X231486320Y-248240008D01*
X231450502Y-248219038D01*
X231410257Y-248186361D01*
X231375148Y-248148840D01*
X231350384Y-248111405D01*
X231347272Y-248104975D01*
X231326961Y-248046721D01*
X231319936Y-247994728D01*
X231547241Y-247994728D01*
X231553430Y-248010669D01*
X231566836Y-248024310D01*
X231588369Y-248041248D01*
X234411631Y-248041248D01*
X234433165Y-248024310D01*
X234444310Y-248013678D01*
X234451994Y-247998537D01*
X234452156Y-247979289D01*
X234444331Y-247953614D01*
X234428053Y-247919194D01*
X234402854Y-247873713D01*
X234386965Y-247846130D01*
X234360858Y-247800842D01*
X234331096Y-247749242D01*
X234300243Y-247695774D01*
X234270861Y-247644884D01*
X234245655Y-247601205D01*
X234218858Y-247554701D01*
X234194417Y-247512221D01*
X234174274Y-247477139D01*
X234160371Y-247452831D01*
X234157177Y-247447226D01*
X234127768Y-247395797D01*
X234093173Y-247335611D01*
X234052621Y-247265333D01*
X234005341Y-247183627D01*
X233950564Y-247089157D01*
X233949607Y-247087509D01*
X233916302Y-247030022D01*
X233878043Y-246963842D01*
X233837901Y-246894289D01*
X233798947Y-246826684D01*
X233764250Y-246766345D01*
X233752464Y-246745833D01*
X233722428Y-246693655D01*
X233693320Y-246643214D01*
X233666938Y-246597622D01*
X233645083Y-246559990D01*
X233629553Y-246533430D01*
X233623770Y-246523584D01*
X233603286Y-246488515D01*
X233578260Y-246445468D01*
X233551335Y-246398991D01*
X233525151Y-246353635D01*
X233518595Y-246342260D01*
X233495169Y-246301635D01*
X233465810Y-246250755D01*
X233432180Y-246192496D01*
X233395939Y-246129736D01*
X233358749Y-246065351D01*
X233322271Y-246002220D01*
X233309507Y-245980125D01*
X233272647Y-245916233D01*
X233235720Y-245852110D01*
X233200376Y-245790630D01*
X233168270Y-245734669D01*
X233141051Y-245687102D01*
X233120372Y-245650804D01*
X233107114Y-245627671D01*
X233084405Y-245589073D01*
X233064205Y-245555974D01*
X233048319Y-245531306D01*
X233038554Y-245518002D01*
X233035605Y-245515005D01*
X233011331Y-245501629D01*
X232985145Y-245502628D01*
X232961893Y-245518002D01*
X232959011Y-245521799D01*
X232947527Y-245539369D01*
X232929626Y-245568374D01*
X232906433Y-245606933D01*
X232879075Y-245653166D01*
X232848676Y-245705193D01*
X232816363Y-245761132D01*
X232782866Y-245819391D01*
X232737982Y-245897327D01*
X232689963Y-245980592D01*
X232641560Y-246064422D01*
X232595524Y-246144048D01*
X232554606Y-246214704D01*
X232534177Y-246249971D01*
X232503705Y-246302633D01*
X232466656Y-246366709D01*
X232423880Y-246440728D01*
X232376225Y-246523218D01*
X232324541Y-246612709D01*
X232269679Y-246707729D01*
X232212488Y-246806806D01*
X232153817Y-246908471D01*
X232094516Y-247011250D01*
X232035436Y-247113674D01*
X232027706Y-247127076D01*
X231971067Y-247225277D01*
X231915927Y-247320877D01*
X231862953Y-247412719D01*
X231812810Y-247499648D01*
X231766167Y-247580508D01*
X231723689Y-247654143D01*
X231686043Y-247719398D01*
X231653896Y-247775117D01*
X231627915Y-247820144D01*
X231608766Y-247853324D01*
X231597117Y-247873500D01*
X231576622Y-247910001D01*
X231558373Y-247946706D01*
X231548734Y-247974178D01*
X231547241Y-247994728D01*
X231319936Y-247994728D01*
X231318907Y-247987116D01*
X231323859Y-247931248D01*
X231324934Y-247926514D01*
X231328518Y-247912186D01*
X231332941Y-247897820D01*
X231338941Y-247882007D01*
X231347260Y-247863341D01*
X231358639Y-247840414D01*
X231373819Y-247811818D01*
X231393540Y-247776147D01*
X231418543Y-247731993D01*
X231449569Y-247677947D01*
X231487358Y-247612604D01*
X231532652Y-247534556D01*
X231565915Y-247477270D01*
X231602153Y-247414828D01*
X231636460Y-247355681D01*
X231667579Y-247301998D01*
X231694254Y-247255945D01*
X231715229Y-247219690D01*
X231729248Y-247195399D01*
X231730032Y-247194035D01*
X231806957Y-247060477D01*
X231887185Y-246921382D01*
X231972365Y-246773894D01*
X232064147Y-246615154D01*
X232101514Y-246550549D01*
X232171695Y-246429158D01*
X232240329Y-246310375D01*
X232306812Y-246195249D01*
X232370539Y-246084829D01*
X232430907Y-245980164D01*
X232487310Y-245882302D01*
X232539146Y-245792291D01*
X232585809Y-245711180D01*
X232626696Y-245640017D01*
X232661201Y-245579852D01*
X232688722Y-245531733D01*
X232708653Y-245496708D01*
X232712950Y-245489169D01*
X232752316Y-245425139D01*
X232789633Y-245375032D01*
X232826850Y-245337149D01*
X232865913Y-245309794D01*
X232908769Y-245291268D01*
X232957366Y-245279875D01*
X232977927Y-245277375D01*
X233042596Y-245279729D01*
X233104564Y-245296821D01*
X233160864Y-245327576D01*
X233208527Y-245370918D01*
X233212824Y-245376260D01*
X233221097Y-245387773D01*
X233232034Y-245404248D01*
X233246088Y-245426454D01*
X233263713Y-245455161D01*
X233285363Y-245491139D01*
X233311492Y-245535155D01*
X233342552Y-245587980D01*
X233378997Y-245650382D01*
X233421281Y-245723131D01*
X233469858Y-245806996D01*
X233525181Y-245902746D01*
X233587703Y-246011151D01*
X233657878Y-246132979D01*
X233690020Y-246188798D01*
X233759615Y-246309601D01*
X233825552Y-246423973D01*
X233886713Y-246529979D01*
X233941981Y-246625679D01*
X233990238Y-246709137D01*
X234007979Y-246739796D01*
X234048662Y-246810120D01*
X234084776Y-246872578D01*
X234118442Y-246930842D01*
X234151779Y-246988584D01*
X234186908Y-247049476D01*
X234225950Y-247117190D01*
X234271025Y-247195399D01*
X234288832Y-247226287D01*
X234324132Y-247287474D01*
X234360169Y-247349880D01*
X234394720Y-247409659D01*
X234425562Y-247462965D01*
X234450473Y-247505952D01*
X234496978Y-247586179D01*
X234540489Y-247661606D01*
X234576887Y-247725421D01*
X234606764Y-247778931D01*
X234630711Y-247823441D01*
X234649321Y-247860258D01*
X234663184Y-247890688D01*
X234672894Y-247916037D01*
X234679041Y-247937612D01*
X234682217Y-247956719D01*
X234683014Y-247974665D01*
X234682761Y-247979289D01*
X234682024Y-247992755D01*
X234679838Y-248012296D01*
G37*
G36*
X233063594Y-246140434D02*
G01*
X233102151Y-246162069D01*
X233132605Y-246195269D01*
X233145358Y-246219211D01*
X233155824Y-246253347D01*
X233160962Y-246295354D01*
X233161056Y-246347851D01*
X233156392Y-246413452D01*
X233146964Y-246512353D01*
X233136193Y-246624893D01*
X233125972Y-246731197D01*
X233116411Y-246830149D01*
X233107617Y-246920634D01*
X233099701Y-247001536D01*
X233092772Y-247071742D01*
X233086939Y-247130135D01*
X233082311Y-247175600D01*
X233078997Y-247207023D01*
X233077107Y-247223288D01*
X233070176Y-247250337D01*
X233048964Y-247282538D01*
X233027769Y-247299191D01*
X233002907Y-247305107D01*
X232972356Y-247297919D01*
X232958093Y-247290807D01*
X232944914Y-247278309D01*
X232934783Y-247259062D01*
X232926834Y-247230668D01*
X232920197Y-247190730D01*
X232914003Y-247136850D01*
X232912219Y-247119278D01*
X232898386Y-246982519D01*
X232886215Y-246860932D01*
X232875645Y-246753549D01*
X232866619Y-246659405D01*
X232859075Y-246577534D01*
X232852955Y-246506969D01*
X232848198Y-246446746D01*
X232844746Y-246395897D01*
X232842540Y-246353456D01*
X232841518Y-246318459D01*
X232841623Y-246289938D01*
X232842794Y-246266928D01*
X232844972Y-246248462D01*
X232848098Y-246233575D01*
X232852111Y-246221301D01*
X232856953Y-246210674D01*
X232863515Y-246199332D01*
X232893625Y-246165884D01*
X232931951Y-246143087D01*
X232975231Y-246131125D01*
X233020200Y-246130180D01*
X233063594Y-246140434D01*
G37*
G36*
X233033961Y-247456484D02*
G01*
X233080619Y-247473462D01*
X233114975Y-247497987D01*
X233144575Y-247534589D01*
X233161964Y-247576555D01*
X233167247Y-247621067D01*
X233160533Y-247665309D01*
X233141927Y-247706460D01*
X233111536Y-247741705D01*
X233069466Y-247768224D01*
X233054507Y-247773488D01*
X233013281Y-247779085D01*
X232969239Y-247775488D01*
X232929685Y-247762973D01*
X232910687Y-247751825D01*
X232876726Y-247719930D01*
X232852098Y-247679714D01*
X232838969Y-247635308D01*
X232839504Y-247590846D01*
X232846112Y-247565887D01*
X232868634Y-247522477D01*
X232901376Y-247488519D01*
X232941642Y-247465326D01*
X232986736Y-247454210D01*
X233033961Y-247456484D01*
G37*
X285261252Y-216265000D02*
X284738748Y-216265000D01*
X285261252Y-217735000D02*
X284738748Y-217735000D01*
X75977500Y-40737258D02*
X75977500Y-40262742D01*
X77022500Y-40737258D02*
X77022500Y-40262742D01*
X70772500Y-40737258D02*
X70772500Y-40262742D01*
X69727500Y-40737258D02*
X69727500Y-40262742D01*
X62007836Y-182760000D02*
X61792164Y-182760000D01*
X62007836Y-182040000D02*
X61792164Y-182040000D01*
X173762742Y-221522500D02*
X174237258Y-221522500D01*
X173762742Y-220477500D02*
X174237258Y-220477500D01*
X64900000Y-65440000D02*
X65550000Y-65440000D01*
X64900000Y-68560000D02*
X65550000Y-68560000D01*
X64900000Y-65440000D02*
X64250000Y-65440000D01*
X64900000Y-68560000D02*
X63225000Y-68560000D01*
X62007836Y-180040000D02*
X61792164Y-180040000D01*
X62007836Y-180760000D02*
X61792164Y-180760000D01*
X68900000Y-65440000D02*
X69550000Y-65440000D01*
X68900000Y-68560000D02*
X67225000Y-68560000D01*
X68900000Y-68560000D02*
X69550000Y-68560000D01*
X68900000Y-65440000D02*
X68250000Y-65440000D01*
X44822500Y-183237258D02*
X44822500Y-182762742D01*
X43777500Y-183237258D02*
X43777500Y-182762742D01*
X49262742Y-167522500D02*
X49737258Y-167522500D01*
X49262742Y-166477500D02*
X49737258Y-166477500D01*
X82022500Y-63262742D02*
X82022500Y-63737258D01*
X80977500Y-63262742D02*
X80977500Y-63737258D01*
X184261252Y-243735000D02*
X183738748Y-243735000D01*
X184261252Y-242265000D02*
X183738748Y-242265000D01*
X59546359Y-179820000D02*
X59853641Y-179820000D01*
X59546359Y-180580000D02*
X59853641Y-180580000D01*
X66977500Y-40737258D02*
X66977500Y-40262742D01*
X68022500Y-40737258D02*
X68022500Y-40262742D01*
X39622500Y-182562742D02*
X39622500Y-183037258D01*
X38577500Y-182562742D02*
X38577500Y-183037258D01*
X42950000Y-179000000D02*
X42950000Y-181000000D01*
X42950000Y-179000000D02*
X39050000Y-179000000D01*
X42950000Y-181000000D02*
X39050000Y-181000000D01*
X79862742Y-178322500D02*
X80337258Y-178322500D01*
X79862742Y-177277500D02*
X80337258Y-177277500D01*
X51235000Y-87261252D02*
X51235000Y-86738748D01*
X49765000Y-87261252D02*
X49765000Y-86738748D01*
X44512742Y-203272500D02*
X44987258Y-203272500D01*
X44512742Y-202227500D02*
X44987258Y-202227500D01*
X45740000Y-182400000D02*
X45740000Y-181600000D01*
X48860000Y-182400000D02*
X48860000Y-184200000D01*
X48860000Y-182400000D02*
X48860000Y-181600000D01*
X45740000Y-182400000D02*
X45740000Y-183200000D01*
X73250000Y-65440000D02*
X73900000Y-65440000D01*
X73250000Y-68560000D02*
X73900000Y-68560000D01*
X73250000Y-65440000D02*
X72600000Y-65440000D01*
X73250000Y-68560000D02*
X71575000Y-68560000D01*
X51015000Y-190511252D02*
X51015000Y-189988748D01*
X52485000Y-190511252D02*
X52485000Y-189988748D01*
X97542503Y-185118800D02*
X94957497Y-185118800D01*
X94957497Y-176381200D02*
X97542503Y-176381200D01*
X95945200Y-176381200D02*
G75*
G03*
X96554800Y-176381200I304800J0D01*
G01*
G36*
X92541600Y-182210500D02*
G01*
X92287600Y-182210500D01*
X92287600Y-181829500D01*
X92541600Y-181829500D01*
X92541600Y-182210500D01*
G37*
D14*
X92541600Y-182210500D02*
X92287600Y-182210500D01*
X92287600Y-181829500D01*
X92541600Y-181829500D01*
X92541600Y-182210500D01*
D13*
X77250000Y-38560000D02*
X77900000Y-38560000D01*
X77250000Y-35440000D02*
X78925000Y-35440000D01*
X77250000Y-38560000D02*
X76600000Y-38560000D01*
X77250000Y-35440000D02*
X76600000Y-35440000D01*
X182261252Y-228735000D02*
X181738748Y-228735000D01*
X182261252Y-227265000D02*
X181738748Y-227265000D01*
X55727500Y-40737258D02*
X55727500Y-40262742D01*
X56772500Y-40737258D02*
X56772500Y-40262742D01*
X85900000Y-177150000D02*
X85900000Y-180450000D01*
X85900000Y-180450000D02*
X81900000Y-180450000D01*
X46522500Y-40737258D02*
X46522500Y-40262742D01*
X45477500Y-40737258D02*
X45477500Y-40262742D01*
X27300000Y-158800000D02*
X27300000Y-158700000D01*
X27300000Y-157200000D02*
X31700000Y-157200000D01*
X31700000Y-158800000D02*
X31700000Y-158700000D01*
X31700000Y-160300000D02*
X27300000Y-160300000D01*
X27300000Y-167000000D02*
X27300000Y-166900000D01*
X31700000Y-167000000D02*
X31700000Y-166900000D01*
X31700000Y-168500000D02*
X27300000Y-168500000D01*
X27300000Y-165400000D02*
X31700000Y-165400000D01*
X68860000Y-184292164D02*
X68860000Y-184507836D01*
X68140000Y-184292164D02*
X68140000Y-184507836D01*
G36*
X219033961Y-247456484D02*
G01*
X219080619Y-247473462D01*
X219114975Y-247497987D01*
X219144575Y-247534589D01*
X219161964Y-247576555D01*
X219167247Y-247621067D01*
X219160533Y-247665309D01*
X219141927Y-247706460D01*
X219111536Y-247741705D01*
X219069466Y-247768224D01*
X219054507Y-247773488D01*
X219013281Y-247779085D01*
X218969239Y-247775488D01*
X218929685Y-247762973D01*
X218910687Y-247751825D01*
X218876726Y-247719930D01*
X218852098Y-247679714D01*
X218838969Y-247635308D01*
X218839504Y-247590846D01*
X218846112Y-247565887D01*
X218868634Y-247522477D01*
X218901376Y-247488519D01*
X218941642Y-247465326D01*
X218986736Y-247454210D01*
X219033961Y-247456484D01*
G37*
G36*
X219063594Y-246140434D02*
G01*
X219102151Y-246162069D01*
X219132605Y-246195269D01*
X219145358Y-246219211D01*
X219155824Y-246253347D01*
X219160962Y-246295354D01*
X219161056Y-246347851D01*
X219156392Y-246413452D01*
X219146964Y-246512353D01*
X219136193Y-246624893D01*
X219125972Y-246731197D01*
X219116411Y-246830149D01*
X219107617Y-246920634D01*
X219099701Y-247001536D01*
X219092772Y-247071742D01*
X219086939Y-247130135D01*
X219082311Y-247175600D01*
X219078997Y-247207023D01*
X219077107Y-247223288D01*
X219070176Y-247250337D01*
X219048964Y-247282538D01*
X219027769Y-247299191D01*
X219002907Y-247305107D01*
X218972356Y-247297919D01*
X218958093Y-247290807D01*
X218944914Y-247278309D01*
X218934783Y-247259062D01*
X218926834Y-247230668D01*
X218920197Y-247190730D01*
X218914003Y-247136850D01*
X218912219Y-247119278D01*
X218898386Y-246982519D01*
X218886215Y-246860932D01*
X218875645Y-246753549D01*
X218866619Y-246659405D01*
X218859075Y-246577534D01*
X218852955Y-246506969D01*
X218848198Y-246446746D01*
X218844746Y-246395897D01*
X218842540Y-246353456D01*
X218841518Y-246318459D01*
X218841623Y-246289938D01*
X218842794Y-246266928D01*
X218844972Y-246248462D01*
X218848098Y-246233575D01*
X218852111Y-246221301D01*
X218856953Y-246210674D01*
X218863515Y-246199332D01*
X218893625Y-246165884D01*
X218931951Y-246143087D01*
X218975231Y-246131125D01*
X219020200Y-246130180D01*
X219063594Y-246140434D01*
G37*
G36*
X220679838Y-248012296D02*
G01*
X220674877Y-248038826D01*
X220655766Y-248093273D01*
X220627066Y-248144214D01*
X220591955Y-248185391D01*
X220574681Y-248200776D01*
X220546062Y-248222686D01*
X220517796Y-248237969D01*
X220483301Y-248250571D01*
X220479152Y-248251467D01*
X220467957Y-248252718D01*
X220450275Y-248253853D01*
X220425491Y-248254875D01*
X220392989Y-248255788D01*
X220352153Y-248256595D01*
X220302366Y-248257300D01*
X220243012Y-248257907D01*
X220173476Y-248258419D01*
X220093140Y-248258839D01*
X220001389Y-248259173D01*
X219897606Y-248259422D01*
X219781176Y-248259591D01*
X219651481Y-248259684D01*
X219507907Y-248259704D01*
X219349836Y-248259654D01*
X219176653Y-248259538D01*
X218987742Y-248259360D01*
X217524872Y-248257818D01*
X217486320Y-248240008D01*
X217450502Y-248219038D01*
X217410257Y-248186361D01*
X217375148Y-248148840D01*
X217350384Y-248111405D01*
X217347272Y-248104975D01*
X217326961Y-248046721D01*
X217319936Y-247994728D01*
X217547241Y-247994728D01*
X217553430Y-248010669D01*
X217566836Y-248024310D01*
X217588369Y-248041248D01*
X220411631Y-248041248D01*
X220433165Y-248024310D01*
X220444310Y-248013678D01*
X220451994Y-247998537D01*
X220452156Y-247979289D01*
X220444331Y-247953614D01*
X220428053Y-247919194D01*
X220402854Y-247873713D01*
X220386965Y-247846130D01*
X220360858Y-247800842D01*
X220331096Y-247749242D01*
X220300243Y-247695774D01*
X220270861Y-247644884D01*
X220245655Y-247601205D01*
X220218858Y-247554701D01*
X220194417Y-247512221D01*
X220174274Y-247477139D01*
X220160371Y-247452831D01*
X220157177Y-247447226D01*
X220127768Y-247395797D01*
X220093173Y-247335611D01*
X220052621Y-247265333D01*
X220005341Y-247183627D01*
X219950564Y-247089157D01*
X219949607Y-247087509D01*
X219916302Y-247030022D01*
X219878043Y-246963842D01*
X219837901Y-246894289D01*
X219798947Y-246826684D01*
X219764250Y-246766345D01*
X219752464Y-246745833D01*
X219722428Y-246693655D01*
X219693320Y-246643214D01*
X219666938Y-246597622D01*
X219645083Y-246559990D01*
X219629553Y-246533430D01*
X219623770Y-246523584D01*
X219603286Y-246488515D01*
X219578260Y-246445468D01*
X219551335Y-246398991D01*
X219525151Y-246353635D01*
X219518595Y-246342260D01*
X219495169Y-246301635D01*
X219465810Y-246250755D01*
X219432180Y-246192496D01*
X219395939Y-246129736D01*
X219358749Y-246065351D01*
X219322271Y-246002220D01*
X219309507Y-245980125D01*
X219272647Y-245916233D01*
X219235720Y-245852110D01*
X219200376Y-245790630D01*
X219168270Y-245734669D01*
X219141051Y-245687102D01*
X219120372Y-245650804D01*
X219107114Y-245627671D01*
X219084405Y-245589073D01*
X219064205Y-245555974D01*
X219048319Y-245531306D01*
X219038554Y-245518002D01*
X219035605Y-245515005D01*
X219011331Y-245501629D01*
X218985145Y-245502628D01*
X218961893Y-245518002D01*
X218959011Y-245521799D01*
X218947527Y-245539369D01*
X218929626Y-245568374D01*
X218906433Y-245606933D01*
X218879075Y-245653166D01*
X218848676Y-245705193D01*
X218816363Y-245761132D01*
X218782866Y-245819391D01*
X218737982Y-245897327D01*
X218689963Y-245980592D01*
X218641560Y-246064422D01*
X218595524Y-246144048D01*
X218554606Y-246214704D01*
X218534177Y-246249971D01*
X218503705Y-246302633D01*
X218466656Y-246366709D01*
X218423880Y-246440728D01*
X218376225Y-246523218D01*
X218324541Y-246612709D01*
X218269679Y-246707729D01*
X218212488Y-246806806D01*
X218153817Y-246908471D01*
X218094516Y-247011250D01*
X218035436Y-247113674D01*
X218027706Y-247127076D01*
X217971067Y-247225277D01*
X217915927Y-247320877D01*
X217862953Y-247412719D01*
X217812810Y-247499648D01*
X217766167Y-247580508D01*
X217723689Y-247654143D01*
X217686043Y-247719398D01*
X217653896Y-247775117D01*
X217627915Y-247820144D01*
X217608766Y-247853324D01*
X217597117Y-247873500D01*
X217576622Y-247910001D01*
X217558373Y-247946706D01*
X217548734Y-247974178D01*
X217547241Y-247994728D01*
X217319936Y-247994728D01*
X217318907Y-247987116D01*
X217323859Y-247931248D01*
X217324934Y-247926514D01*
X217328518Y-247912186D01*
X217332941Y-247897820D01*
X217338941Y-247882007D01*
X217347260Y-247863341D01*
X217358639Y-247840414D01*
X217373819Y-247811818D01*
X217393540Y-247776147D01*
X217418543Y-247731993D01*
X217449569Y-247677947D01*
X217487358Y-247612604D01*
X217532652Y-247534556D01*
X217565915Y-247477270D01*
X217602153Y-247414828D01*
X217636460Y-247355681D01*
X217667579Y-247301998D01*
X217694254Y-247255945D01*
X217715229Y-247219690D01*
X217729248Y-247195399D01*
X217730032Y-247194035D01*
X217806957Y-247060477D01*
X217887185Y-246921382D01*
X217972365Y-246773894D01*
X218064147Y-246615154D01*
X218101514Y-246550549D01*
X218171695Y-246429158D01*
X218240329Y-246310375D01*
X218306812Y-246195249D01*
X218370539Y-246084829D01*
X218430907Y-245980164D01*
X218487310Y-245882302D01*
X218539146Y-245792291D01*
X218585809Y-245711180D01*
X218626696Y-245640017D01*
X218661201Y-245579852D01*
X218688722Y-245531733D01*
X218708653Y-245496708D01*
X218712950Y-245489169D01*
X218752316Y-245425139D01*
X218789633Y-245375032D01*
X218826850Y-245337149D01*
X218865913Y-245309794D01*
X218908769Y-245291268D01*
X218957366Y-245279875D01*
X218977927Y-245277375D01*
X219042596Y-245279729D01*
X219104564Y-245296821D01*
X219160864Y-245327576D01*
X219208527Y-245370918D01*
X219212824Y-245376260D01*
X219221097Y-245387773D01*
X219232034Y-245404248D01*
X219246088Y-245426454D01*
X219263713Y-245455161D01*
X219285363Y-245491139D01*
X219311492Y-245535155D01*
X219342552Y-245587980D01*
X219378997Y-245650382D01*
X219421281Y-245723131D01*
X219469858Y-245806996D01*
X219525181Y-245902746D01*
X219587703Y-246011151D01*
X219657878Y-246132979D01*
X219690020Y-246188798D01*
X219759615Y-246309601D01*
X219825552Y-246423973D01*
X219886713Y-246529979D01*
X219941981Y-246625679D01*
X219990238Y-246709137D01*
X220007979Y-246739796D01*
X220048662Y-246810120D01*
X220084776Y-246872578D01*
X220118442Y-246930842D01*
X220151779Y-246988584D01*
X220186908Y-247049476D01*
X220225950Y-247117190D01*
X220271025Y-247195399D01*
X220288832Y-247226287D01*
X220324132Y-247287474D01*
X220360169Y-247349880D01*
X220394720Y-247409659D01*
X220425562Y-247462965D01*
X220450473Y-247505952D01*
X220496978Y-247586179D01*
X220540489Y-247661606D01*
X220576887Y-247725421D01*
X220606764Y-247778931D01*
X220630711Y-247823441D01*
X220649321Y-247860258D01*
X220663184Y-247890688D01*
X220672894Y-247916037D01*
X220679041Y-247937612D01*
X220682217Y-247956719D01*
X220683014Y-247974665D01*
X220682761Y-247979289D01*
X220682024Y-247992755D01*
X220679838Y-248012296D01*
G37*
X83727500Y-40737258D02*
X83727500Y-40262742D01*
X84772500Y-40737258D02*
X84772500Y-40262742D01*
X68022500Y-63262742D02*
X68022500Y-63737258D01*
X66977500Y-63262742D02*
X66977500Y-63737258D01*
X61250000Y-35440000D02*
X62925000Y-35440000D01*
X61250000Y-38560000D02*
X60600000Y-38560000D01*
X61250000Y-38560000D02*
X61900000Y-38560000D01*
X61250000Y-35440000D02*
X60600000Y-35440000D01*
X53227500Y-40737258D02*
X53227500Y-40262742D01*
X54272500Y-40737258D02*
X54272500Y-40262742D01*
X65250000Y-35440000D02*
X66925000Y-35440000D01*
X65250000Y-35440000D02*
X64600000Y-35440000D01*
X65250000Y-38560000D02*
X64600000Y-38560000D01*
X65250000Y-38560000D02*
X65900000Y-38560000D01*
G36*
X294762296Y-170320162D02*
G01*
X294788826Y-170325123D01*
X294843273Y-170344234D01*
X294894214Y-170372934D01*
X294935391Y-170408045D01*
X294950776Y-170425319D01*
X294972686Y-170453938D01*
X294987969Y-170482204D01*
X295000571Y-170516699D01*
X295001467Y-170520848D01*
X295002718Y-170532043D01*
X295003853Y-170549725D01*
X295004875Y-170574509D01*
X295005788Y-170607011D01*
X295006595Y-170647847D01*
X295007300Y-170697634D01*
X295007907Y-170756988D01*
X295008419Y-170826524D01*
X295008839Y-170906860D01*
X295009173Y-170998611D01*
X295009422Y-171102394D01*
X295009591Y-171218824D01*
X295009684Y-171348519D01*
X295009704Y-171492093D01*
X295009654Y-171650164D01*
X295009538Y-171823347D01*
X295009360Y-172012258D01*
X295007818Y-173475128D01*
X294990008Y-173513680D01*
X294969038Y-173549498D01*
X294936361Y-173589743D01*
X294898840Y-173624852D01*
X294861405Y-173649616D01*
X294854975Y-173652728D01*
X294796721Y-173673039D01*
X294737116Y-173681093D01*
X294681248Y-173676141D01*
X294676514Y-173675066D01*
X294662186Y-173671482D01*
X294647820Y-173667059D01*
X294632007Y-173661059D01*
X294613341Y-173652740D01*
X294590414Y-173641361D01*
X294561818Y-173626181D01*
X294526147Y-173606460D01*
X294481993Y-173581457D01*
X294427947Y-173550431D01*
X294362604Y-173512642D01*
X294284556Y-173467348D01*
X294227270Y-173434085D01*
X294164828Y-173397847D01*
X294105681Y-173363540D01*
X294051998Y-173332421D01*
X294005945Y-173305746D01*
X293969690Y-173284771D01*
X293945399Y-173270752D01*
X293944035Y-173269968D01*
X293810477Y-173193043D01*
X293671382Y-173112815D01*
X293523894Y-173027635D01*
X293365154Y-172935853D01*
X293300549Y-172898486D01*
X293179158Y-172828305D01*
X293060375Y-172759671D01*
X292945249Y-172693188D01*
X292834829Y-172629461D01*
X292730164Y-172569093D01*
X292632302Y-172512690D01*
X292542291Y-172460854D01*
X292461180Y-172414191D01*
X292390017Y-172373304D01*
X292329852Y-172338799D01*
X292281733Y-172311278D01*
X292246708Y-172291347D01*
X292239169Y-172287050D01*
X292175139Y-172247684D01*
X292125032Y-172210367D01*
X292087149Y-172173150D01*
X292059794Y-172134087D01*
X292041268Y-172091231D01*
X292029875Y-172042634D01*
X292027375Y-172022073D01*
X292028591Y-171988669D01*
X292251629Y-171988669D01*
X292252628Y-172014855D01*
X292268002Y-172038107D01*
X292271799Y-172040989D01*
X292289369Y-172052473D01*
X292318374Y-172070374D01*
X292356933Y-172093567D01*
X292403166Y-172120925D01*
X292455193Y-172151324D01*
X292511132Y-172183637D01*
X292569391Y-172217134D01*
X292647327Y-172262018D01*
X292730592Y-172310037D01*
X292814422Y-172358440D01*
X292894048Y-172404476D01*
X292964704Y-172445394D01*
X292999971Y-172465823D01*
X293052633Y-172496295D01*
X293116709Y-172533344D01*
X293190728Y-172576120D01*
X293273218Y-172623775D01*
X293362709Y-172675459D01*
X293457729Y-172730321D01*
X293556806Y-172787512D01*
X293658471Y-172846183D01*
X293761250Y-172905484D01*
X293863674Y-172964564D01*
X293877076Y-172972294D01*
X293975277Y-173028933D01*
X294070877Y-173084073D01*
X294162719Y-173137047D01*
X294249648Y-173187190D01*
X294330508Y-173233833D01*
X294404143Y-173276311D01*
X294469398Y-173313957D01*
X294525117Y-173346104D01*
X294570144Y-173372085D01*
X294603324Y-173391234D01*
X294623500Y-173402883D01*
X294660001Y-173423378D01*
X294696706Y-173441627D01*
X294724178Y-173451266D01*
X294744728Y-173452759D01*
X294760669Y-173446570D01*
X294774310Y-173433164D01*
X294791248Y-173411631D01*
X294791248Y-170588369D01*
X294774310Y-170566835D01*
X294763678Y-170555690D01*
X294748537Y-170548006D01*
X294729289Y-170547844D01*
X294703614Y-170555669D01*
X294669194Y-170571947D01*
X294623713Y-170597146D01*
X294596130Y-170613035D01*
X294550842Y-170639142D01*
X294499242Y-170668904D01*
X294445774Y-170699757D01*
X294394884Y-170729139D01*
X294351205Y-170754345D01*
X294304701Y-170781142D01*
X294262221Y-170805583D01*
X294227139Y-170825726D01*
X294202831Y-170839629D01*
X294197226Y-170842823D01*
X294145797Y-170872232D01*
X294085611Y-170906827D01*
X294015333Y-170947379D01*
X293933627Y-170994659D01*
X293839157Y-171049436D01*
X293837509Y-171050393D01*
X293780022Y-171083698D01*
X293713842Y-171121957D01*
X293644289Y-171162099D01*
X293576684Y-171201053D01*
X293516345Y-171235750D01*
X293495833Y-171247536D01*
X293443655Y-171277572D01*
X293393214Y-171306680D01*
X293347622Y-171333062D01*
X293309990Y-171354917D01*
X293283430Y-171370447D01*
X293273584Y-171376230D01*
X293238515Y-171396714D01*
X293195468Y-171421740D01*
X293148991Y-171448665D01*
X293103635Y-171474849D01*
X293092260Y-171481405D01*
X293051635Y-171504831D01*
X293000755Y-171534190D01*
X292942496Y-171567820D01*
X292879736Y-171604061D01*
X292815351Y-171641251D01*
X292752220Y-171677729D01*
X292730125Y-171690493D01*
X292666233Y-171727353D01*
X292602110Y-171764280D01*
X292540630Y-171799624D01*
X292484669Y-171831730D01*
X292437102Y-171858949D01*
X292400804Y-171879628D01*
X292377671Y-171892886D01*
X292339073Y-171915595D01*
X292305974Y-171935795D01*
X292281306Y-171951681D01*
X292268002Y-171961446D01*
X292265005Y-171964395D01*
X292251629Y-171988669D01*
X292028591Y-171988669D01*
X292029729Y-171957404D01*
X292046821Y-171895436D01*
X292077576Y-171839136D01*
X292120918Y-171791473D01*
X292126260Y-171787176D01*
X292137773Y-171778903D01*
X292154248Y-171767966D01*
X292176454Y-171753912D01*
X292205161Y-171736287D01*
X292241139Y-171714637D01*
X292285155Y-171688508D01*
X292337980Y-171657448D01*
X292400382Y-171621003D01*
X292473131Y-171578719D01*
X292556996Y-171530142D01*
X292652746Y-171474819D01*
X292761151Y-171412297D01*
X292882979Y-171342122D01*
X292938798Y-171309980D01*
X293059601Y-171240385D01*
X293173973Y-171174448D01*
X293279979Y-171113287D01*
X293375679Y-171058019D01*
X293459137Y-171009762D01*
X293489796Y-170992021D01*
X293560120Y-170951338D01*
X293622578Y-170915224D01*
X293680842Y-170881558D01*
X293738584Y-170848221D01*
X293799476Y-170813092D01*
X293867190Y-170774050D01*
X293945399Y-170728975D01*
X293976287Y-170711168D01*
X294037474Y-170675868D01*
X294099880Y-170639831D01*
X294159659Y-170605280D01*
X294212965Y-170574438D01*
X294255952Y-170549527D01*
X294336179Y-170503022D01*
X294411606Y-170459511D01*
X294475421Y-170423113D01*
X294528931Y-170393236D01*
X294573441Y-170369289D01*
X294610258Y-170350679D01*
X294640688Y-170336816D01*
X294666037Y-170327106D01*
X294687612Y-170320959D01*
X294706719Y-170317783D01*
X294724665Y-170316986D01*
X294729289Y-170317239D01*
X294742755Y-170317976D01*
X294762296Y-170320162D01*
G37*
G36*
X294415309Y-171839467D02*
G01*
X294456460Y-171858073D01*
X294491705Y-171888464D01*
X294518224Y-171930534D01*
X294523488Y-171945493D01*
X294529085Y-171986719D01*
X294525488Y-172030761D01*
X294512973Y-172070315D01*
X294501825Y-172089313D01*
X294469930Y-172123274D01*
X294429714Y-172147902D01*
X294385308Y-172161031D01*
X294340846Y-172160496D01*
X294315887Y-172153888D01*
X294272477Y-172131366D01*
X294238519Y-172098624D01*
X294215326Y-172058358D01*
X294204210Y-172013264D01*
X294206484Y-171966039D01*
X294223462Y-171919381D01*
X294247987Y-171885025D01*
X294284589Y-171855425D01*
X294326555Y-171838036D01*
X294371067Y-171832753D01*
X294415309Y-171839467D01*
G37*
G36*
X293163452Y-171843608D02*
G01*
X293262353Y-171853036D01*
X293374893Y-171863807D01*
X293481197Y-171874028D01*
X293580149Y-171883589D01*
X293670634Y-171892383D01*
X293751536Y-171900299D01*
X293821742Y-171907228D01*
X293880135Y-171913061D01*
X293925600Y-171917689D01*
X293957023Y-171921003D01*
X293973288Y-171922893D01*
X294000337Y-171929824D01*
X294032538Y-171951036D01*
X294049191Y-171972231D01*
X294055107Y-171997093D01*
X294047919Y-172027644D01*
X294040807Y-172041907D01*
X294028309Y-172055086D01*
X294009062Y-172065217D01*
X293980668Y-172073166D01*
X293940730Y-172079803D01*
X293886850Y-172085997D01*
X293869278Y-172087781D01*
X293732519Y-172101614D01*
X293610932Y-172113785D01*
X293503549Y-172124355D01*
X293409405Y-172133381D01*
X293327534Y-172140925D01*
X293256969Y-172147045D01*
X293196746Y-172151802D01*
X293145897Y-172155254D01*
X293103456Y-172157460D01*
X293068459Y-172158482D01*
X293039938Y-172158377D01*
X293016928Y-172157206D01*
X292998462Y-172155028D01*
X292983575Y-172151902D01*
X292971301Y-172147889D01*
X292960674Y-172143047D01*
X292949332Y-172136485D01*
X292915884Y-172106375D01*
X292893087Y-172068049D01*
X292881125Y-172024769D01*
X292880180Y-171979800D01*
X292890434Y-171936406D01*
X292912069Y-171897849D01*
X292945269Y-171867395D01*
X292969211Y-171854642D01*
X293003347Y-171844176D01*
X293045354Y-171839038D01*
X293097851Y-171838944D01*
X293163452Y-171843608D01*
G37*
X46835000Y-178661252D02*
X46835000Y-178138748D01*
X45365000Y-178661252D02*
X45365000Y-178138748D01*
X179762742Y-180427500D02*
X180237258Y-180427500D01*
X179762742Y-181472500D02*
X180237258Y-181472500D01*
X85250000Y-35440000D02*
X84600000Y-35440000D01*
X85250000Y-35440000D02*
X86925000Y-35440000D01*
X85250000Y-38560000D02*
X84600000Y-38560000D01*
X85250000Y-38560000D02*
X85900000Y-38560000D01*
X57422500Y-76162742D02*
X57422500Y-76637258D01*
X56377500Y-76162742D02*
X56377500Y-76637258D01*
X81250000Y-35440000D02*
X80600000Y-35440000D01*
X81250000Y-38560000D02*
X80600000Y-38560000D01*
X81250000Y-38560000D02*
X81900000Y-38560000D01*
X81250000Y-35440000D02*
X82925000Y-35440000D01*
X33237258Y-175272500D02*
X32762742Y-175272500D01*
X33237258Y-174227500D02*
X32762742Y-174227500D01*
X293310000Y-184300000D02*
X293310000Y-173700000D01*
X289410000Y-174875000D02*
X300650000Y-174875000D01*
X288460000Y-174900000D02*
X288460000Y-174875000D01*
X300650000Y-183125000D02*
X300650000Y-174875000D01*
X288460000Y-179000000D02*
X288460000Y-174900000D01*
D15*
X294450000Y-174880000D02*
X294450000Y-183120000D01*
X296010000Y-174880000D02*
X296010000Y-183120000D01*
D13*
X288460000Y-179000000D02*
X288460000Y-183125000D01*
X288485000Y-183125000D02*
X289460000Y-183125000D01*
X289460000Y-183125000D02*
X300650000Y-183125000D01*
X288460000Y-174875000D02*
X289410000Y-174875000D01*
X275261252Y-234735000D02*
X274738748Y-234735000D01*
X275261252Y-233265000D02*
X274738748Y-233265000D01*
X59546359Y-179580000D02*
X59853641Y-179580000D01*
X59546359Y-178820000D02*
X59853641Y-178820000D01*
X38977500Y-63262742D02*
X38977500Y-63737258D01*
X40022500Y-63262742D02*
X40022500Y-63737258D01*
X49035000Y-178661252D02*
X49035000Y-178138748D01*
X47565000Y-178661252D02*
X47565000Y-178138748D01*
X64260000Y-184292164D02*
X64260000Y-184507836D01*
X63540000Y-184292164D02*
X63540000Y-184507836D01*
X73477500Y-40737258D02*
X73477500Y-40262742D01*
X74522500Y-40737258D02*
X74522500Y-40262742D01*
X86540000Y-178907836D02*
X86540000Y-178692164D01*
X87260000Y-178907836D02*
X87260000Y-178692164D01*
X60900000Y-65440000D02*
X61550000Y-65440000D01*
X60900000Y-65440000D02*
X60250000Y-65440000D01*
X60900000Y-68560000D02*
X61550000Y-68560000D01*
X60900000Y-68560000D02*
X59225000Y-68560000D01*
X61977500Y-40737258D02*
X61977500Y-40262742D01*
X63022500Y-40737258D02*
X63022500Y-40262742D01*
X49765000Y-80261252D02*
X49765000Y-79738748D01*
X51235000Y-80261252D02*
X51235000Y-79738748D01*
X221300000Y-243730000D02*
X221300000Y-245730000D01*
X230700000Y-249530000D02*
X221300000Y-249530000D01*
X230700000Y-247630000D02*
X230700000Y-249530000D01*
X221300000Y-247630000D02*
X221300000Y-249530000D01*
X230700000Y-243730000D02*
X230700000Y-245730000D01*
D15*
X230470000Y-249000000D02*
X221530000Y-249000000D01*
D13*
X42772500Y-40737258D02*
X42772500Y-40262742D01*
X41727500Y-40737258D02*
X41727500Y-40262742D01*
X78000000Y-65440000D02*
X78650000Y-65440000D01*
X78000000Y-68560000D02*
X78650000Y-68560000D01*
X78000000Y-68560000D02*
X76325000Y-68560000D01*
X78000000Y-65440000D02*
X77350000Y-65440000D01*
X33237258Y-179772500D02*
X32762742Y-179772500D01*
X33237258Y-178727500D02*
X32762742Y-178727500D01*
X271762742Y-147477500D02*
X272237258Y-147477500D01*
X271762742Y-148522500D02*
X272237258Y-148522500D01*
X62007836Y-181040000D02*
X61792164Y-181040000D01*
X62007836Y-181760000D02*
X61792164Y-181760000D01*
X73250000Y-35440000D02*
X72600000Y-35440000D01*
X73250000Y-38560000D02*
X73900000Y-38560000D01*
X73250000Y-35440000D02*
X74925000Y-35440000D01*
X73250000Y-38560000D02*
X72600000Y-38560000D01*
%LPC*%
D16*
X73920000Y-59620000D03*
D17*
X76460000Y-59620000D03*
X79000000Y-59620000D03*
X81540000Y-59620000D03*
X84080000Y-59620000D03*
X84080000Y-44380000D03*
X81540000Y-44380000D03*
X79000000Y-44380000D03*
X76460000Y-44380000D03*
X73920000Y-44380000D03*
D18*
X181000000Y-22000000D03*
X24000000Y-246000000D03*
D16*
X31920000Y-59620000D03*
D17*
X34460000Y-59620000D03*
X37000000Y-59620000D03*
X39540000Y-59620000D03*
X42080000Y-59620000D03*
X42080000Y-44380000D03*
X39540000Y-44380000D03*
X37000000Y-44380000D03*
X34460000Y-44380000D03*
X31920000Y-44380000D03*
D18*
X24000000Y-134000000D03*
D16*
X59920000Y-59620000D03*
D17*
X62460000Y-59620000D03*
X65000000Y-59620000D03*
X67540000Y-59620000D03*
X70080000Y-59620000D03*
X70080000Y-44380000D03*
X67540000Y-44380000D03*
X65000000Y-44380000D03*
X62460000Y-44380000D03*
X59920000Y-44380000D03*
D18*
X25000000Y-23000000D03*
X293000000Y-22000000D03*
D16*
X45920000Y-59620000D03*
D17*
X48460000Y-59620000D03*
X51000000Y-59620000D03*
X53540000Y-59620000D03*
X56080000Y-59620000D03*
X56080000Y-44380000D03*
X53540000Y-44380000D03*
X51000000Y-44380000D03*
X48460000Y-44380000D03*
X45920000Y-44380000D03*
D19*
X45575000Y-196250000D03*
X43925000Y-196250000D03*
D20*
X63900000Y-173480000D03*
X63900000Y-172520000D03*
D21*
X192500000Y-203425000D03*
X192500000Y-205075000D03*
D22*
X60000000Y-41325000D03*
X60000000Y-39675000D03*
D21*
X76500000Y-62675000D03*
X76500000Y-64325000D03*
D23*
X72620000Y-178600000D03*
X73580000Y-178600000D03*
D22*
X81500000Y-41325000D03*
X81500000Y-39675000D03*
D24*
X70187500Y-36050000D03*
X70187500Y-37950000D03*
X68312500Y-37000000D03*
D20*
X68500000Y-173480000D03*
X68500000Y-172520000D03*
D24*
X58187500Y-36050000D03*
X58187500Y-37950000D03*
X56312500Y-37000000D03*
D21*
X267000000Y-237175000D03*
X267000000Y-238825000D03*
D25*
X230175000Y-238000000D03*
X231825000Y-238000000D03*
D23*
X62020000Y-167000000D03*
X62980000Y-167000000D03*
X83420000Y-176000000D03*
X84380000Y-176000000D03*
D21*
X62400000Y-62675000D03*
X62400000Y-64325000D03*
D26*
X50500000Y-74450000D03*
X50500000Y-72550000D03*
D27*
X62380000Y-178600000D03*
X61420000Y-178600000D03*
D28*
X52700000Y-166905000D03*
X52700000Y-165635000D03*
X52700000Y-164365000D03*
X52700000Y-163095000D03*
X59900000Y-163095000D03*
X59900000Y-164365000D03*
X59900000Y-165635000D03*
X59900000Y-166905000D03*
D29*
X81812500Y-67950000D03*
X81812500Y-66050000D03*
X83687500Y-67000000D03*
D27*
X62380000Y-177600000D03*
X61420000Y-177600000D03*
D21*
X196000000Y-237175000D03*
X196000000Y-238825000D03*
D25*
X285395000Y-185000000D03*
X287045000Y-185000000D03*
D30*
X42100000Y-182050000D03*
X42100000Y-183950000D03*
D31*
X284950000Y-163000000D03*
X283050000Y-163000000D03*
X193950000Y-197000000D03*
X192050000Y-197000000D03*
D32*
X59400000Y-193805000D03*
X59400000Y-195075000D03*
X59400000Y-196345000D03*
X59400000Y-197615000D03*
X59400000Y-198885000D03*
X59400000Y-200155000D03*
X59400000Y-201425000D03*
X59400000Y-202695000D03*
X50100000Y-202695000D03*
X50100000Y-201425000D03*
X50100000Y-200155000D03*
X50100000Y-198885000D03*
X50100000Y-197615000D03*
X50100000Y-196345000D03*
X50100000Y-195075000D03*
X50100000Y-193805000D03*
D22*
X48500000Y-41325000D03*
X48500000Y-39675000D03*
D26*
X49500000Y-191200000D03*
X49500000Y-189300000D03*
D21*
X73750000Y-62675000D03*
X73750000Y-64325000D03*
D23*
X72620000Y-179600000D03*
X73580000Y-179600000D03*
D33*
X26100000Y-184640000D03*
X26100000Y-178860000D03*
D34*
X27545000Y-185000000D03*
X27545000Y-184200000D03*
D35*
X27545000Y-183000000D03*
X27545000Y-182000000D03*
X27545000Y-181500000D03*
X27545000Y-180500000D03*
D34*
X27545000Y-179300000D03*
X27545000Y-178500000D03*
X27545000Y-178500000D03*
X27545000Y-179300000D03*
D35*
X27545000Y-180000000D03*
X27545000Y-181000000D03*
X27545000Y-182500000D03*
X27545000Y-183500000D03*
D34*
X27545000Y-184200000D03*
X27545000Y-185000000D03*
D36*
X26630000Y-177430000D03*
X26630000Y-186070000D03*
D37*
X22450000Y-177430000D03*
X22450000Y-186070000D03*
D25*
X43925000Y-201000000D03*
X45575000Y-201000000D03*
D21*
X59750000Y-62675000D03*
X59750000Y-64325000D03*
D25*
X261175000Y-213000000D03*
X262825000Y-213000000D03*
D38*
X64900000Y-175312500D03*
X65300000Y-175312500D03*
X65700000Y-175312500D03*
X66100000Y-175312500D03*
X66500000Y-175312500D03*
X66900000Y-175312500D03*
X67300000Y-175312500D03*
X67700000Y-175312500D03*
X68100000Y-175312500D03*
X68500000Y-175312500D03*
X68900000Y-175312500D03*
X69300000Y-175312500D03*
X69700000Y-175312500D03*
X70100000Y-175312500D03*
D39*
X70937500Y-176150000D03*
X70937500Y-176550000D03*
X70937500Y-176950000D03*
X70937500Y-177350000D03*
X70937500Y-177750000D03*
X70937500Y-178150000D03*
X70937500Y-178550000D03*
X70937500Y-178950000D03*
X70937500Y-179350000D03*
X70937500Y-179750000D03*
X70937500Y-180150000D03*
X70937500Y-180550000D03*
X70937500Y-180950000D03*
X70937500Y-181350000D03*
D38*
X70100000Y-182187500D03*
X69700000Y-182187500D03*
X69300000Y-182187500D03*
X68900000Y-182187500D03*
X68500000Y-182187500D03*
X68100000Y-182187500D03*
X67700000Y-182187500D03*
X67300000Y-182187500D03*
X66900000Y-182187500D03*
X66500000Y-182187500D03*
X66100000Y-182187500D03*
X65700000Y-182187500D03*
X65300000Y-182187500D03*
X64900000Y-182187500D03*
D39*
X64062500Y-181350000D03*
X64062500Y-180950000D03*
X64062500Y-180550000D03*
X64062500Y-180150000D03*
X64062500Y-179750000D03*
X64062500Y-179350000D03*
X64062500Y-178950000D03*
X64062500Y-178550000D03*
X64062500Y-178150000D03*
X64062500Y-177750000D03*
X64062500Y-177350000D03*
X64062500Y-176950000D03*
X64062500Y-176550000D03*
X64062500Y-176150000D03*
D40*
X67500000Y-178750000D03*
D21*
X53500000Y-62675000D03*
X53500000Y-64325000D03*
D19*
X33825000Y-184250000D03*
X32175000Y-184250000D03*
X35525000Y-167950000D03*
X33875000Y-167950000D03*
X35525000Y-159750000D03*
X33875000Y-159750000D03*
D31*
X285950000Y-217000000D03*
X284050000Y-217000000D03*
D22*
X76500000Y-41325000D03*
X76500000Y-39675000D03*
X70250000Y-41325000D03*
X70250000Y-39675000D03*
D27*
X62380000Y-182400000D03*
X61420000Y-182400000D03*
D25*
X173175000Y-221000000D03*
X174825000Y-221000000D03*
D29*
X63962500Y-67950000D03*
X63962500Y-66050000D03*
X65837500Y-67000000D03*
D27*
X62380000Y-180400000D03*
X61420000Y-180400000D03*
D29*
X67962500Y-67950000D03*
X67962500Y-66050000D03*
X69837500Y-67000000D03*
D22*
X44300000Y-183825000D03*
X44300000Y-182175000D03*
D25*
X48675000Y-167000000D03*
X50325000Y-167000000D03*
D21*
X81500000Y-62675000D03*
X81500000Y-64325000D03*
D31*
X184950000Y-243000000D03*
X183050000Y-243000000D03*
D41*
X59190000Y-180200000D03*
X60210000Y-180200000D03*
D22*
X67500000Y-41325000D03*
X67500000Y-39675000D03*
D21*
X39100000Y-181975000D03*
X39100000Y-183625000D03*
D42*
X42350000Y-180000000D03*
X39050000Y-180000000D03*
D25*
X79275000Y-177800000D03*
X80925000Y-177800000D03*
D26*
X50500000Y-87950000D03*
X50500000Y-86050000D03*
D25*
X43925000Y-202750000D03*
X45575000Y-202750000D03*
D43*
X48250000Y-183537500D03*
X47300000Y-183537500D03*
X46350000Y-183537500D03*
X46350000Y-181262500D03*
X48250000Y-181262500D03*
D29*
X72312500Y-67950000D03*
X72312500Y-66050000D03*
X74187500Y-67000000D03*
D26*
X51750000Y-191200000D03*
X51750000Y-189300000D03*
D44*
X98713800Y-176940000D03*
X98713800Y-178210000D03*
X98713800Y-179480000D03*
X98713800Y-180750000D03*
X98713800Y-182020000D03*
X98713800Y-183290000D03*
X98713800Y-184560000D03*
X93786200Y-184560000D03*
X93786200Y-183290000D03*
X93786200Y-182020000D03*
X93786200Y-180750000D03*
X93786200Y-179480000D03*
X93786200Y-178210000D03*
X93786200Y-176940000D03*
D24*
X78187500Y-36050000D03*
X78187500Y-37950000D03*
X76312500Y-37000000D03*
D31*
X182950000Y-228000000D03*
X181050000Y-228000000D03*
D22*
X56250000Y-41325000D03*
X56250000Y-39675000D03*
D45*
X85000000Y-179650000D03*
X82800000Y-179650000D03*
X82800000Y-177950000D03*
X85000000Y-177950000D03*
D22*
X46000000Y-41325000D03*
X46000000Y-39675000D03*
D46*
X27450000Y-157950000D03*
X31550000Y-157950000D03*
X31550000Y-159550000D03*
X27450000Y-159550000D03*
X31550000Y-166150000D03*
X27450000Y-166150000D03*
X31550000Y-167750000D03*
X27450000Y-167750000D03*
D47*
X68500000Y-183920000D03*
X68500000Y-184880000D03*
D22*
X84250000Y-41325000D03*
X84250000Y-39675000D03*
D21*
X67500000Y-62675000D03*
X67500000Y-64325000D03*
D24*
X62187500Y-36050000D03*
X62187500Y-37950000D03*
X60312500Y-37000000D03*
D22*
X53750000Y-41325000D03*
X53750000Y-39675000D03*
D24*
X66187500Y-36050000D03*
X66187500Y-37950000D03*
X64312500Y-37000000D03*
D26*
X46100000Y-179350000D03*
X46100000Y-177450000D03*
D25*
X179175000Y-180950000D03*
X180825000Y-180950000D03*
D24*
X86187500Y-36050000D03*
X86187500Y-37950000D03*
X84312500Y-37000000D03*
D21*
X56900000Y-75575000D03*
X56900000Y-77225000D03*
D24*
X82187500Y-36050000D03*
X82187500Y-37950000D03*
X80312500Y-37000000D03*
D19*
X33825000Y-174750000D03*
X32175000Y-174750000D03*
D48*
X287560000Y-181750000D03*
X287560000Y-180250000D03*
X287560000Y-179750000D03*
X287560000Y-179250000D03*
X287560000Y-178750000D03*
X287560000Y-177250000D03*
X287560000Y-176750000D03*
X287560000Y-176250000D03*
X287560000Y-177750000D03*
X287560000Y-178250000D03*
X287560000Y-180750000D03*
X287560000Y-181250000D03*
D49*
X292060000Y-174450000D03*
D50*
X287660000Y-175750000D03*
D49*
X289460000Y-183550000D03*
D51*
X292110000Y-177250000D03*
D49*
X292110000Y-183550000D03*
D51*
X290360000Y-180250000D03*
D50*
X287653750Y-182250000D03*
D49*
X289410000Y-174450000D03*
D51*
X290360000Y-177750000D03*
X292110000Y-180750000D03*
D31*
X275950000Y-234000000D03*
X274050000Y-234000000D03*
D41*
X59190000Y-179200000D03*
X60210000Y-179200000D03*
D21*
X39500000Y-62675000D03*
X39500000Y-64325000D03*
D26*
X48300000Y-179350000D03*
X48300000Y-177450000D03*
D47*
X63900000Y-183920000D03*
X63900000Y-184880000D03*
D22*
X74000000Y-41325000D03*
X74000000Y-39675000D03*
D20*
X86900000Y-179280000D03*
X86900000Y-178320000D03*
D29*
X59962500Y-67950000D03*
X59962500Y-66050000D03*
X61837500Y-67000000D03*
D22*
X62500000Y-41325000D03*
X62500000Y-39675000D03*
D26*
X50500000Y-80950000D03*
X50500000Y-79050000D03*
D33*
X223110000Y-243030000D03*
X228890000Y-243030000D03*
D52*
X229250000Y-241585000D03*
X228450000Y-241585000D03*
D53*
X227250000Y-241585000D03*
X226250000Y-241585000D03*
X225750000Y-241585000D03*
X224750000Y-241585000D03*
D52*
X223550000Y-241585000D03*
X222750000Y-241585000D03*
X222750000Y-241585000D03*
X223550000Y-241585000D03*
D53*
X224250000Y-241585000D03*
X225250000Y-241585000D03*
X226750000Y-241585000D03*
X227750000Y-241585000D03*
D52*
X228450000Y-241585000D03*
X229250000Y-241585000D03*
D54*
X230320000Y-242500000D03*
D55*
X221680000Y-246680000D03*
D54*
X221680000Y-242500000D03*
D55*
X230320000Y-246680000D03*
D22*
X42250000Y-41325000D03*
X42250000Y-39675000D03*
D29*
X77062500Y-67950000D03*
X77062500Y-66050000D03*
X78937500Y-67000000D03*
D19*
X33825000Y-179250000D03*
X32175000Y-179250000D03*
D25*
X271175000Y-148000000D03*
X272825000Y-148000000D03*
D27*
X62380000Y-181400000D03*
X61420000Y-181400000D03*
D24*
X74187500Y-36050000D03*
X74187500Y-37950000D03*
X72312500Y-37000000D03*
M02*
