M48
; DRILL file {KiCad (6.0.4)} date Thu May 26 23:52:00 2022
; FORMAT={-:-/ absolute / metric / decimal}
; #@! TF.CreationDate,2022-05-26T23:52:00-07:00
; #@! TF.GenerationSoftware,Kicad,Pcbnew,(6.0.4)
; #@! TF.FileFunction,Plated,1,2,PTH
FMAT,2
METRIC
; #@! TA.AperFunction,Plated,PTH,ViaDrill
T1C0.300
; #@! TA.AperFunction,Plated,PTH,ComponentDrill
T2C0.600
; #@! TA.AperFunction,Plated,PTH,ComponentDrill
T3C0.800
%
G90
G05
T1
X23.4Y-178.5
X24.0Y-82.25
X27.5Y-82.25
X29.0Y-178.3
X29.4Y-170.7
X29.45Y-166.15
X29.5Y-162.5
X29.55Y-157.95
X33.85Y-166.5
X35.0Y-182.6
X35.5Y-179.4
X35.6Y-177.1
X36.975Y-93.225
X40.575Y-183.625
X43.65Y-165.7
X44.05Y-165.0
X46.9Y-192.1
X47.0Y-93.2
X47.3Y-183.6
X47.45Y-167.0
X47.6Y-197.5
X49.6Y-187.9
X49.8Y-184.15
X49.8Y-185.85
X52.5Y-76.1
X53.5Y-72.2
X53.5Y-75.2
X53.5Y-78.8
X53.5Y-85.7
X53.6Y-66.0
X54.5Y-81.2
X54.5Y-88.3
X54.5Y-172.6
X54.6Y-74.7
X55.3Y-166.45
X55.7Y-177.1
X55.7Y-179.9
X56.4Y-186.5
X56.6Y-165.8
X57.3Y-182.7
X57.6Y-169.7
X58.05Y-180.85
X58.5Y-188.8
X58.75Y-132.0
X59.2Y-181.4
X59.223Y-185.382
X60.35Y-177.8
X60.75Y-184.7
X61.3Y-144.8
X61.85Y-145.75
X62.336Y-73.305
X62.38Y-177.6
X62.38Y-178.6
X62.38Y-180.4
X62.4Y-166.0
X62.45Y-74.1
X63.704Y-74.037
X63.9Y-171.6
X63.9Y-174.3
X64.0Y-166.3
X64.1Y-162.6
X64.1Y-163.6
X64.689Y-73.271
X64.725Y-146.625
X64.95Y-183.95
X65.25Y-144.8
X65.3Y-176.3
X65.754Y-145.8
X66.125Y-147.175
X66.35Y-176.45
X66.5Y-172.52
X66.525Y-147.75
X67.2Y-173.2
X67.25Y-132.0
X67.25Y-202.0
X67.25Y-206.5
X67.45Y-183.95
X68.0Y-176.7
X68.356Y-70.16
X68.425Y-148.975
X68.45Y-149.675
X68.5Y-150.425
X68.75Y-151.1
X69.425Y-69.45
X69.475Y-32.825
X69.8Y-180.1
X70.2Y-33.9
X70.45Y-146.625
X70.9Y-162.6
X70.975Y-147.15
X71.0Y-163.6
X71.15Y-70.125
X71.15Y-192.75
X71.175Y-69.45
X71.55Y-147.513
X71.8Y-174.45
X72.25Y-147.625
X72.62Y-178.6
X72.75Y-194.56
X72.825Y-148.062
X73.0Y-180.45
X73.125Y-148.725
X73.425Y-149.4
X73.7Y-176.8
X74.4Y-179.3
X74.71Y-31.86
X74.72Y-34.29
X74.9Y-176.9
X74.9Y-178.35
X74.994Y-191.144
X75.4Y-182.8
X75.6Y-176.9
X75.6Y-178.35
X75.73Y-173.91
X75.75Y-132.0
X75.8Y-181.8
X76.3Y-176.9
X76.3Y-178.35
X76.9Y-181.0
X76.9Y-206.1
X77.0Y-176.9
X77.0Y-178.35
X77.15Y-190.65
X77.2Y-202.5
X77.7Y-176.9
X77.7Y-178.35
X79.0Y-31.81
X79.01Y-34.15
X83.5Y-200.75
X83.5Y-205.75
X84.25Y-47.75
X88.0Y-189.1
X88.728Y-36.038
X89.005Y-192.35
X89.625Y-36.0
X89.9Y-188.6
X91.5Y-176.9
X91.8Y-185.9
X91.823Y-50.2
X92.05Y-35.3
X92.7Y-36.0
X93.8Y-188.5
X96.9Y-201.8
X97.25Y-47.75
X97.7Y-173.2
X97.8Y-175.6
X100.3Y-198.4
X178.0Y-221.02
X179.3Y-224.9
X179.3Y-228.0
X181.4Y-238.6
X181.4Y-242.1
X181.5Y-230.7
X182.5Y-172.25
X183.5Y-245.6
X184.0Y-174.25
X184.06Y-180.96
X184.16Y-232.48
X186.2Y-247.41
X192.3Y-199.3
X192.5Y-202.28
X194.72Y-201.45
X196.0Y-239.85
X196.75Y-229.0
X199.25Y-226.25
X202.25Y-237.0
X204.25Y-239.0
X212.75Y-175.75
X218.0Y-175.75
X222.744Y-240.086
X223.25Y-235.93
X224.47Y-235.89
X224.57Y-235.03
X226.2Y-239.38
X226.71Y-236.39
X227.41Y-239.28
X227.438Y-238.428
X228.83Y-231.25
X230.2Y-236.5
X231.04Y-232.17
X232.02Y-232.18
X232.14Y-229.59
X234.06Y-229.17
X234.97Y-229.19
X246.5Y-159.75
X246.5Y-163.25
X263.75Y-196.25
X266.45Y-213.02
X266.92Y-242.02
X267.0Y-199.25
X267.33Y-232.7
X267.42Y-229.43
X274.3Y-235.5
X276.01Y-147.95
X276.81Y-237.43
X279.3Y-178.33
X279.91Y-179.33
X280.64Y-179.88
X283.0Y-165.1
X284.05Y-179.32
X284.07Y-178.53
X284.22Y-177.51
X284.4Y-218.9
X284.86Y-167.74
X285.77Y-177.47
X286.69Y-221.01
X287.8Y-165.1
T3
X31.92Y-44.38
X31.92Y-59.62
X34.46Y-44.38
X34.46Y-59.62
X37.0Y-44.38
X37.0Y-59.62
X39.54Y-44.38
X39.54Y-59.62
X42.08Y-44.38
X42.08Y-59.62
X45.92Y-44.38
X45.92Y-59.62
X48.46Y-44.38
X48.46Y-59.62
X51.0Y-44.38
X51.0Y-59.62
X53.54Y-44.38
X53.54Y-59.62
X56.08Y-44.38
X56.08Y-59.62
X59.92Y-44.38
X59.92Y-59.62
X62.46Y-44.38
X62.46Y-59.62
X65.0Y-44.38
X65.0Y-59.62
X67.54Y-44.38
X67.54Y-59.62
X70.08Y-44.38
X70.08Y-59.62
X73.92Y-44.38
X73.92Y-59.62
X76.46Y-44.38
X76.46Y-59.62
X79.0Y-44.38
X79.0Y-59.62
X81.54Y-44.38
X81.54Y-59.62
X84.08Y-44.38
X84.08Y-59.62
T2
X22.15Y-177.43G85X22.75Y-177.43
G05
X22.15Y-186.07G85X22.75Y-186.07
G05
X26.08Y-177.43G85X27.18Y-177.43
G05
X26.08Y-186.07G85X27.18Y-186.07
G05
X221.68Y-243.05G85X221.68Y-241.95
G05
X221.68Y-246.98G85X221.68Y-246.38
G05
X230.32Y-243.05G85X230.32Y-241.95
G05
X230.32Y-246.98G85X230.32Y-246.38
G05
T0
M30
