%TF.GenerationSoftware,KiCad,Pcbnew,(6.0.4)*%
%TF.CreationDate,2022-05-26T23:51:57-07:00*%
%TF.ProjectId,top_L,746f705f-4c2e-46b6-9963-61645f706362,rev?*%
%TF.SameCoordinates,Original*%
%TF.FileFunction,Soldermask,Top*%
%TF.FilePolarity,Negative*%
%FSLAX46Y46*%
G04 Gerber Fmt 4.6, Leading zero omitted, Abs format (unit mm)*
G04 Created by KiCad (PCBNEW (6.0.4)) date 2022-05-26 23:51:57*
%MOMM*%
%LPD*%
G01*
G04 APERTURE LIST*
%ADD10R,0.550000X0.550000*%
%ADD11R,1.524000X2.524000*%
%ADD12O,1.524000X2.524000*%
%ADD13C,2.000000*%
%ADD14C,2.200000*%
%ADD15R,0.900000X1.000000*%
%ADD16C,0.650000*%
%ADD17O,2.100000X1.000000*%
%ADD18O,1.600000X1.000000*%
%ADD19O,1.000000X2.100000*%
%ADD20O,1.000000X1.600000*%
G04 APERTURE END LIST*
D10*
X274525000Y-237475000D03*
X275475000Y-237475000D03*
X275475000Y-236525000D03*
X274525000Y-236525000D03*
X53525000Y-80475000D03*
X54475000Y-80475000D03*
X54475000Y-79525000D03*
X53525000Y-79525000D03*
X53525000Y-73975000D03*
X54475000Y-73975000D03*
X54475000Y-73025000D03*
X53525000Y-73025000D03*
X181525000Y-232475000D03*
X182475000Y-232475000D03*
X182475000Y-231525000D03*
X181525000Y-231525000D03*
X284525000Y-220975000D03*
X285475000Y-220975000D03*
X285475000Y-220025000D03*
X284525000Y-220025000D03*
D11*
X73920000Y-59620000D03*
D12*
X76460000Y-59620000D03*
X79000000Y-59620000D03*
X81540000Y-59620000D03*
X84080000Y-59620000D03*
X84080000Y-44380000D03*
X81540000Y-44380000D03*
X79000000Y-44380000D03*
X76460000Y-44380000D03*
X73920000Y-44380000D03*
D13*
X260700000Y-244000000D03*
D14*
X181000000Y-22000000D03*
D13*
X278000000Y-148000000D03*
X269300000Y-244000000D03*
X199200000Y-244000000D03*
D15*
X97550000Y-50200000D03*
X93450000Y-50200000D03*
X93450000Y-51800000D03*
X97550000Y-51800000D03*
D13*
X190600000Y-244000000D03*
X278000000Y-139400000D03*
D14*
X24000000Y-246000000D03*
D10*
X183525000Y-247475000D03*
X184475000Y-247475000D03*
X184475000Y-246525000D03*
X183525000Y-246525000D03*
D13*
X186000000Y-189600000D03*
D15*
X39050000Y-93200000D03*
X34950000Y-93200000D03*
X34950000Y-94800000D03*
X39050000Y-94800000D03*
D11*
X31920000Y-59620000D03*
D12*
X34460000Y-59620000D03*
X37000000Y-59620000D03*
X39540000Y-59620000D03*
X42080000Y-59620000D03*
X42080000Y-44380000D03*
X39540000Y-44380000D03*
X37000000Y-44380000D03*
X34460000Y-44380000D03*
X31920000Y-44380000D03*
D14*
X24000000Y-134000000D03*
D10*
X53525000Y-87475000D03*
X54475000Y-87475000D03*
X54475000Y-86525000D03*
X53525000Y-86525000D03*
D13*
X180000000Y-221000000D03*
D11*
X59920000Y-59620000D03*
D12*
X62460000Y-59620000D03*
X65000000Y-59620000D03*
X67540000Y-59620000D03*
X70080000Y-59620000D03*
X70080000Y-44380000D03*
X67540000Y-44380000D03*
X65000000Y-44380000D03*
X62460000Y-44380000D03*
X59920000Y-44380000D03*
D15*
X49050000Y-93200000D03*
X44950000Y-93200000D03*
X49050000Y-94800000D03*
X44950000Y-94800000D03*
D14*
X25000000Y-23000000D03*
D13*
X268500000Y-204400000D03*
X180000000Y-212400000D03*
D14*
X293000000Y-22000000D03*
D10*
X192525000Y-201475000D03*
X193475000Y-201475000D03*
X193475000Y-200525000D03*
X192525000Y-200525000D03*
D13*
X268500000Y-213000000D03*
X186000000Y-181000000D03*
D10*
X283025000Y-167475000D03*
X283975000Y-167475000D03*
X283975000Y-166525000D03*
X283025000Y-166525000D03*
D11*
X45920000Y-59620000D03*
D12*
X48460000Y-59620000D03*
X51000000Y-59620000D03*
X53540000Y-59620000D03*
X56080000Y-59620000D03*
X56080000Y-44380000D03*
X53540000Y-44380000D03*
X51000000Y-44380000D03*
X48460000Y-44380000D03*
X45920000Y-44380000D03*
D16*
X26100000Y-184640000D03*
X26100000Y-178860000D03*
D17*
X26630000Y-177430000D03*
X26630000Y-186070000D03*
D18*
X22450000Y-177430000D03*
X22450000Y-186070000D03*
D16*
X223110000Y-243030000D03*
X228890000Y-243030000D03*
D19*
X230320000Y-242500000D03*
D20*
X221680000Y-246680000D03*
D19*
X221680000Y-242500000D03*
D20*
X230320000Y-246680000D03*
M02*
