%TF.GenerationSoftware,KiCad,Pcbnew,(6.0.4)*%
%TF.CreationDate,2022-05-26T23:52:49-07:00*%
%TF.ProjectId,top_R,746f705f-522e-46b6-9963-61645f706362,rev?*%
%TF.SameCoordinates,Original*%
%TF.FileFunction,Copper,L1,Top*%
%TF.FilePolarity,Positive*%
%FSLAX46Y46*%
G04 Gerber Fmt 4.6, Leading zero omitted, Abs format (unit mm)*
G04 Created by KiCad (PCBNEW (6.0.4)) date 2022-05-26 23:52:49*
%MOMM*%
%LPD*%
G01*
G04 APERTURE LIST*
%TA.AperFunction,SMDPad,CuDef*%
%ADD10R,0.550000X0.550000*%
%TD*%
%TA.AperFunction,SMDPad,CuDef*%
%ADD11C,2.000000*%
%TD*%
%TA.AperFunction,ComponentPad*%
%ADD12O,1.600000X1.000000*%
%TD*%
%TA.AperFunction,ComponentPad*%
%ADD13O,2.100000X1.000000*%
%TD*%
%TA.AperFunction,ViaPad*%
%ADD14C,0.500000*%
%TD*%
%TA.AperFunction,Conductor*%
%ADD15C,0.200000*%
%TD*%
%TA.AperFunction,Conductor*%
%ADD16C,0.250000*%
%TD*%
G04 APERTURE END LIST*
D10*
X158125000Y-216075000D03*
X159075000Y-216075000D03*
X159075000Y-215125000D03*
X158125000Y-215125000D03*
D11*
X128600000Y-172200000D03*
D10*
X54325000Y-170775000D03*
X55275000Y-170775000D03*
X55275000Y-169825000D03*
X54325000Y-169825000D03*
X137725000Y-164875000D03*
X138675000Y-164875000D03*
X138675000Y-163925000D03*
X137725000Y-163925000D03*
D11*
X155400000Y-74800000D03*
X183400000Y-213800000D03*
X155400000Y-66200000D03*
X183400000Y-222400000D03*
X128600000Y-180800000D03*
X40000000Y-156400000D03*
X40000000Y-165000000D03*
D12*
X22320000Y-175680000D03*
D13*
X26500000Y-175680000D03*
D12*
X22320000Y-184320000D03*
D13*
X26500000Y-184320000D03*
D14*
X160500000Y-213600000D03*
X84525000Y-238165000D03*
X57600000Y-163975000D03*
X24275000Y-181400000D03*
X140950000Y-160000000D03*
X110000000Y-224500000D03*
X136850000Y-163275000D03*
X152250000Y-199250000D03*
X129500000Y-120750000D03*
X33000000Y-176750000D03*
X33000000Y-179500000D03*
X131000000Y-163250000D03*
X126250000Y-124000000D03*
X147500000Y-199250000D03*
X157800000Y-214175000D03*
X53475000Y-169325000D03*
X107750000Y-222250000D03*
X48725000Y-107925000D03*
X64250000Y-126000000D03*
X63550000Y-112500000D03*
X51000000Y-174000000D03*
X59525000Y-169825000D03*
X123900000Y-164525000D03*
X160375000Y-215100000D03*
X29250000Y-182825000D03*
X29820612Y-174273440D03*
X30325000Y-178950000D03*
X25875000Y-178850000D03*
X25875000Y-180250000D03*
X30325000Y-174750000D03*
X41875000Y-165000000D03*
X132650000Y-180850000D03*
X151900000Y-74850000D03*
X186175000Y-222475000D03*
D15*
X54325000Y-169825000D02*
X53975000Y-169825000D01*
X137500000Y-163925000D02*
X136850000Y-163275000D01*
X53975000Y-169825000D02*
X53475000Y-169325000D01*
X110000000Y-224500000D02*
X107750000Y-222250000D01*
X136850000Y-163275000D02*
X131025000Y-163275000D01*
X152250000Y-199250000D02*
X147500000Y-199250000D01*
X129500000Y-120750000D02*
X126250000Y-124000000D01*
X137725000Y-163925000D02*
X137500000Y-163925000D01*
X158125000Y-215125000D02*
X158125000Y-214500000D01*
X131025000Y-163275000D02*
X131000000Y-163250000D01*
X33000000Y-176750000D02*
X33000000Y-179500000D01*
X158125000Y-214500000D02*
X157800000Y-214175000D01*
X51000000Y-174000000D02*
X54225000Y-170775000D01*
X54225000Y-170775000D02*
X54325000Y-170775000D01*
D16*
X124250000Y-164875000D02*
X137725000Y-164875000D01*
X123900000Y-164525000D02*
X124250000Y-164875000D01*
X55275000Y-169825000D02*
X59525000Y-169825000D01*
X138675000Y-163925000D02*
X139200000Y-163925000D01*
X156450000Y-216075000D02*
X158125000Y-216075000D01*
X139200000Y-163925000D02*
X154625000Y-179350000D01*
X154625000Y-179350000D02*
X154625000Y-214250000D01*
X154625000Y-214250000D02*
X156450000Y-216075000D01*
D15*
X159075000Y-215125000D02*
X160350000Y-215125000D01*
X160350000Y-215125000D02*
X160375000Y-215100000D01*
X29525000Y-182550000D02*
X29525000Y-174625000D01*
X29820612Y-174273440D02*
X29820612Y-174329388D01*
X29250000Y-182825000D02*
X29525000Y-182550000D01*
X29820612Y-174329388D02*
X29525000Y-174625000D01*
X30325000Y-178950000D02*
X30325000Y-174750000D01*
X25875000Y-180250000D02*
X25875000Y-178850000D01*
D16*
X40000000Y-165000000D02*
X41875000Y-165000000D01*
X151950000Y-74800000D02*
X155400000Y-74800000D01*
X151900000Y-74850000D02*
X151950000Y-74800000D01*
X128600000Y-180800000D02*
X132600000Y-180800000D01*
X132600000Y-180800000D02*
X132650000Y-180850000D01*
X186175000Y-222475000D02*
X186100000Y-222400000D01*
X186100000Y-222400000D02*
X183400000Y-222400000D01*
%TA.AperFunction,Conductor*%
G36*
X171942121Y-143020002D02*
G01*
X171988614Y-143073658D01*
X172000000Y-143126000D01*
X172000000Y-249365500D01*
X171979998Y-249433621D01*
X171926342Y-249480114D01*
X171874000Y-249491500D01*
X20634500Y-249491500D01*
X20566379Y-249471498D01*
X20519886Y-249417842D01*
X20508500Y-249365500D01*
X20508500Y-222239343D01*
X106986775Y-222239343D01*
X107003381Y-222408699D01*
X107057094Y-222570167D01*
X107145246Y-222715723D01*
X107263455Y-222838132D01*
X107405846Y-222931310D01*
X107412450Y-222933766D01*
X107412452Y-222933767D01*
X107558731Y-222988168D01*
X107558733Y-222988169D01*
X107565341Y-222990626D01*
X107572326Y-222991558D01*
X107572330Y-222991559D01*
X107592710Y-222994278D01*
X107597770Y-222994953D01*
X107662648Y-223023788D01*
X107670202Y-223030751D01*
X109216612Y-224577161D01*
X109250638Y-224639473D01*
X109252177Y-224649259D01*
X109252694Y-224651690D01*
X109253381Y-224658699D01*
X109307094Y-224820167D01*
X109310741Y-224826189D01*
X109310742Y-224826191D01*
X109324497Y-224848902D01*
X109395246Y-224965723D01*
X109513455Y-225088132D01*
X109655846Y-225181310D01*
X109662450Y-225183766D01*
X109662452Y-225183767D01*
X109698844Y-225197301D01*
X109815341Y-225240626D01*
X109984015Y-225263132D01*
X109991026Y-225262494D01*
X109991030Y-225262494D01*
X110146462Y-225248348D01*
X110153483Y-225247709D01*
X110160185Y-225245531D01*
X110160187Y-225245531D01*
X110308623Y-225197301D01*
X110308626Y-225197300D01*
X110315322Y-225195124D01*
X110461490Y-225107990D01*
X110466584Y-225103139D01*
X110466588Y-225103136D01*
X110533833Y-225039099D01*
X110584721Y-224990639D01*
X110678891Y-224848902D01*
X110739319Y-224689825D01*
X110763001Y-224521313D01*
X110763299Y-224500000D01*
X110744331Y-224330892D01*
X110688368Y-224170189D01*
X110598192Y-224025879D01*
X110478286Y-223905132D01*
X110334608Y-223813951D01*
X110306416Y-223803912D01*
X110180935Y-223759230D01*
X110180930Y-223759229D01*
X110174300Y-223756868D01*
X110167312Y-223756035D01*
X110167309Y-223756034D01*
X110153040Y-223754333D01*
X110087767Y-223726406D01*
X110078863Y-223718314D01*
X108532215Y-222171666D01*
X108498189Y-222109354D01*
X108496095Y-222096618D01*
X108495116Y-222087890D01*
X108494331Y-222080892D01*
X108438368Y-221920189D01*
X108432383Y-221910610D01*
X108410420Y-221875464D01*
X108348192Y-221775879D01*
X108228286Y-221655132D01*
X108212039Y-221644821D01*
X108173406Y-221620304D01*
X108084608Y-221563951D01*
X107924300Y-221506868D01*
X107755329Y-221486720D01*
X107748326Y-221487456D01*
X107748325Y-221487456D01*
X107593101Y-221503770D01*
X107593097Y-221503771D01*
X107586093Y-221504507D01*
X107579422Y-221506778D01*
X107431673Y-221557075D01*
X107431670Y-221557076D01*
X107425003Y-221559346D01*
X107419005Y-221563036D01*
X107419003Y-221563037D01*
X107286065Y-221644821D01*
X107286063Y-221644823D01*
X107280066Y-221648512D01*
X107158486Y-221767573D01*
X107066304Y-221910610D01*
X107008103Y-222070516D01*
X106986775Y-222239343D01*
X20508500Y-222239343D01*
X20508500Y-199239343D01*
X146736775Y-199239343D01*
X146753381Y-199408699D01*
X146807094Y-199570167D01*
X146810741Y-199576189D01*
X146810742Y-199576191D01*
X146824497Y-199598902D01*
X146895246Y-199715723D01*
X147013455Y-199838132D01*
X147155846Y-199931310D01*
X147162450Y-199933766D01*
X147162452Y-199933767D01*
X147198844Y-199947301D01*
X147315341Y-199990626D01*
X147484015Y-200013132D01*
X147491026Y-200012494D01*
X147491030Y-200012494D01*
X147646462Y-199998348D01*
X147653483Y-199997709D01*
X147660185Y-199995531D01*
X147660187Y-199995531D01*
X147808623Y-199947301D01*
X147808626Y-199947300D01*
X147815322Y-199945124D01*
X147930823Y-199876271D01*
X147995341Y-199858500D01*
X151757019Y-199858500D01*
X151826012Y-199879068D01*
X151905846Y-199931310D01*
X151912450Y-199933766D01*
X151912452Y-199933767D01*
X151948844Y-199947301D01*
X152065341Y-199990626D01*
X152234015Y-200013132D01*
X152241026Y-200012494D01*
X152241030Y-200012494D01*
X152396462Y-199998348D01*
X152403483Y-199997709D01*
X152410185Y-199995531D01*
X152410187Y-199995531D01*
X152558623Y-199947301D01*
X152558626Y-199947300D01*
X152565322Y-199945124D01*
X152711490Y-199857990D01*
X152716584Y-199853139D01*
X152716588Y-199853136D01*
X152783833Y-199789099D01*
X152834721Y-199740639D01*
X152928891Y-199598902D01*
X152989319Y-199439825D01*
X153013001Y-199271313D01*
X153013299Y-199250000D01*
X152994331Y-199080892D01*
X152938368Y-198920189D01*
X152932383Y-198910610D01*
X152910420Y-198875464D01*
X152848192Y-198775879D01*
X152728286Y-198655132D01*
X152712039Y-198644821D01*
X152673406Y-198620304D01*
X152584608Y-198563951D01*
X152424300Y-198506868D01*
X152255329Y-198486720D01*
X152248326Y-198487456D01*
X152248325Y-198487456D01*
X152093101Y-198503770D01*
X152093097Y-198503771D01*
X152086093Y-198504507D01*
X152079422Y-198506778D01*
X151931673Y-198557075D01*
X151931670Y-198557076D01*
X151925003Y-198559346D01*
X151919005Y-198563036D01*
X151919003Y-198563037D01*
X151821831Y-198622818D01*
X151755809Y-198641500D01*
X147993411Y-198641500D01*
X147925897Y-198621885D01*
X147840562Y-198567729D01*
X147840558Y-198567727D01*
X147834608Y-198563951D01*
X147674300Y-198506868D01*
X147505329Y-198486720D01*
X147498326Y-198487456D01*
X147498325Y-198487456D01*
X147343101Y-198503770D01*
X147343097Y-198503771D01*
X147336093Y-198504507D01*
X147329422Y-198506778D01*
X147181673Y-198557075D01*
X147181670Y-198557076D01*
X147175003Y-198559346D01*
X147169005Y-198563036D01*
X147169003Y-198563037D01*
X147036065Y-198644821D01*
X147036063Y-198644823D01*
X147030066Y-198648512D01*
X146908486Y-198767573D01*
X146816304Y-198910610D01*
X146758103Y-199070516D01*
X146736775Y-199239343D01*
X20508500Y-199239343D01*
X20508500Y-184312925D01*
X21006645Y-184312925D01*
X21024570Y-184509888D01*
X21080410Y-184699619D01*
X21083263Y-184705077D01*
X21083265Y-184705081D01*
X21130720Y-184795853D01*
X21172040Y-184874890D01*
X21295968Y-185029025D01*
X21300692Y-185032989D01*
X21307933Y-185039065D01*
X21447474Y-185156154D01*
X21452872Y-185159121D01*
X21452877Y-185159125D01*
X21596180Y-185237905D01*
X21620787Y-185251433D01*
X21626654Y-185253294D01*
X21626656Y-185253295D01*
X21803436Y-185309373D01*
X21809306Y-185311235D01*
X21963227Y-185328500D01*
X22669769Y-185328500D01*
X22672825Y-185328200D01*
X22672832Y-185328200D01*
X22731340Y-185322463D01*
X22816833Y-185314080D01*
X22822734Y-185312298D01*
X22822736Y-185312298D01*
X22896053Y-185290162D01*
X23006169Y-185256916D01*
X23180796Y-185164066D01*
X23267062Y-185093709D01*
X23329287Y-185042960D01*
X23329290Y-185042957D01*
X23334062Y-185039065D01*
X23346344Y-185024219D01*
X23456201Y-184891425D01*
X23456203Y-184891421D01*
X23460130Y-184886675D01*
X23554198Y-184712701D01*
X23612682Y-184523768D01*
X23633355Y-184327075D01*
X23632067Y-184312925D01*
X24936645Y-184312925D01*
X24954570Y-184509888D01*
X25010410Y-184699619D01*
X25013263Y-184705077D01*
X25013265Y-184705081D01*
X25060720Y-184795853D01*
X25102040Y-184874890D01*
X25225968Y-185029025D01*
X25230692Y-185032989D01*
X25237933Y-185039065D01*
X25377474Y-185156154D01*
X25382872Y-185159121D01*
X25382877Y-185159125D01*
X25526180Y-185237905D01*
X25550787Y-185251433D01*
X25556654Y-185253294D01*
X25556656Y-185253295D01*
X25733436Y-185309373D01*
X25739306Y-185311235D01*
X25893227Y-185328500D01*
X27099769Y-185328500D01*
X27102825Y-185328200D01*
X27102832Y-185328200D01*
X27161340Y-185322463D01*
X27246833Y-185314080D01*
X27252734Y-185312298D01*
X27252736Y-185312298D01*
X27326053Y-185290162D01*
X27436169Y-185256916D01*
X27610796Y-185164066D01*
X27697062Y-185093709D01*
X27759287Y-185042960D01*
X27759290Y-185042957D01*
X27764062Y-185039065D01*
X27776344Y-185024219D01*
X27886201Y-184891425D01*
X27886203Y-184891421D01*
X27890130Y-184886675D01*
X27984198Y-184712701D01*
X28042682Y-184523768D01*
X28063355Y-184327075D01*
X28045430Y-184130112D01*
X27989590Y-183940381D01*
X27979919Y-183921881D01*
X27900813Y-183770568D01*
X27897960Y-183765110D01*
X27774032Y-183610975D01*
X27767727Y-183605684D01*
X27746809Y-183588132D01*
X27622526Y-183483846D01*
X27617128Y-183480879D01*
X27617123Y-183480875D01*
X27454608Y-183391533D01*
X27454609Y-183391533D01*
X27449213Y-183388567D01*
X27443346Y-183386706D01*
X27443344Y-183386705D01*
X27266564Y-183330627D01*
X27266563Y-183330627D01*
X27260694Y-183328765D01*
X27106773Y-183311500D01*
X26885223Y-183311500D01*
X26817102Y-183291498D01*
X26770609Y-183237842D01*
X26760505Y-183167568D01*
X26768234Y-183138708D01*
X26774995Y-183121803D01*
X26777530Y-183115466D01*
X26778644Y-183108738D01*
X26778645Y-183108734D01*
X26805993Y-182943539D01*
X26805993Y-182943536D01*
X26807108Y-182936802D01*
X26806683Y-182928682D01*
X26800690Y-182814343D01*
X28486775Y-182814343D01*
X28503381Y-182983699D01*
X28505605Y-182990384D01*
X28505605Y-182990385D01*
X28515927Y-183021414D01*
X28557094Y-183145167D01*
X28560741Y-183151189D01*
X28560742Y-183151191D01*
X28574497Y-183173902D01*
X28645246Y-183290723D01*
X28763455Y-183413132D01*
X28769351Y-183416990D01*
X28877580Y-183487813D01*
X28905846Y-183506310D01*
X28912450Y-183508766D01*
X28912452Y-183508767D01*
X28943964Y-183520486D01*
X29065341Y-183565626D01*
X29234015Y-183588132D01*
X29241026Y-183587494D01*
X29241030Y-183587494D01*
X29396462Y-183573348D01*
X29403483Y-183572709D01*
X29410185Y-183570531D01*
X29410187Y-183570531D01*
X29558623Y-183522301D01*
X29558626Y-183522300D01*
X29565322Y-183520124D01*
X29711490Y-183432990D01*
X29716584Y-183428139D01*
X29716588Y-183428136D01*
X29820937Y-183328765D01*
X29834721Y-183315639D01*
X29928891Y-183173902D01*
X29989319Y-183014825D01*
X29996808Y-182961532D01*
X30021619Y-182902365D01*
X30056524Y-182856876D01*
X30117838Y-182708851D01*
X30126176Y-182645516D01*
X30133500Y-182589885D01*
X30133500Y-182589880D01*
X30138750Y-182550000D01*
X30134578Y-182518307D01*
X30133500Y-182501862D01*
X30133500Y-179833642D01*
X30153502Y-179765521D01*
X30207158Y-179719028D01*
X30276163Y-179708749D01*
X30291850Y-179710842D01*
X30309015Y-179713132D01*
X30316026Y-179712494D01*
X30316030Y-179712494D01*
X30471462Y-179698348D01*
X30478483Y-179697709D01*
X30485185Y-179695531D01*
X30485187Y-179695531D01*
X30633623Y-179647301D01*
X30633626Y-179647300D01*
X30640322Y-179645124D01*
X30786490Y-179557990D01*
X30791584Y-179553139D01*
X30791588Y-179553136D01*
X30858577Y-179489343D01*
X32236775Y-179489343D01*
X32253381Y-179658699D01*
X32307094Y-179820167D01*
X32310741Y-179826189D01*
X32310742Y-179826191D01*
X32367670Y-179920189D01*
X32395246Y-179965723D01*
X32513455Y-180088132D01*
X32519351Y-180091990D01*
X32629319Y-180163951D01*
X32655846Y-180181310D01*
X32662450Y-180183766D01*
X32662452Y-180183767D01*
X32698844Y-180197301D01*
X32815341Y-180240626D01*
X32984015Y-180263132D01*
X32991026Y-180262494D01*
X32991030Y-180262494D01*
X33146462Y-180248348D01*
X33153483Y-180247709D01*
X33160185Y-180245531D01*
X33160187Y-180245531D01*
X33308623Y-180197301D01*
X33308626Y-180197300D01*
X33315322Y-180195124D01*
X33461490Y-180107990D01*
X33466584Y-180103139D01*
X33466588Y-180103136D01*
X33533833Y-180039099D01*
X33584721Y-179990639D01*
X33678891Y-179848902D01*
X33739319Y-179689825D01*
X33763001Y-179521313D01*
X33763299Y-179500000D01*
X33744331Y-179330892D01*
X33735736Y-179306209D01*
X33706110Y-179221137D01*
X33688368Y-179170189D01*
X33627645Y-179073013D01*
X33608500Y-179006245D01*
X33608500Y-177242890D01*
X33629552Y-177173163D01*
X33674990Y-177104773D01*
X33678891Y-177098902D01*
X33739319Y-176939825D01*
X33763001Y-176771313D01*
X33763299Y-176750000D01*
X33744331Y-176580892D01*
X33739357Y-176566607D01*
X33690686Y-176426846D01*
X33688368Y-176420189D01*
X33682383Y-176410610D01*
X33660420Y-176375464D01*
X33598192Y-176275879D01*
X33569192Y-176246675D01*
X33483248Y-176160129D01*
X33478286Y-176155132D01*
X33462039Y-176144821D01*
X33356933Y-176078119D01*
X33334608Y-176063951D01*
X33174300Y-176006868D01*
X33005329Y-175986720D01*
X32998326Y-175987456D01*
X32998325Y-175987456D01*
X32843101Y-176003770D01*
X32843097Y-176003771D01*
X32836093Y-176004507D01*
X32829422Y-176006778D01*
X32681673Y-176057075D01*
X32681670Y-176057076D01*
X32675003Y-176059346D01*
X32669005Y-176063036D01*
X32669003Y-176063037D01*
X32536065Y-176144821D01*
X32536063Y-176144823D01*
X32530066Y-176148512D01*
X32525033Y-176153441D01*
X32424976Y-176251425D01*
X32408486Y-176267573D01*
X32404675Y-176273487D01*
X32404673Y-176273489D01*
X32327660Y-176392989D01*
X32316304Y-176410610D01*
X32258103Y-176570516D01*
X32236775Y-176739343D01*
X32253381Y-176908699D01*
X32307094Y-177070167D01*
X32310741Y-177076189D01*
X32310742Y-177076191D01*
X32373276Y-177179447D01*
X32391500Y-177244718D01*
X32391500Y-179006846D01*
X32371411Y-179075101D01*
X32352777Y-179104016D01*
X32334198Y-179132845D01*
X32316304Y-179160610D01*
X32258103Y-179320516D01*
X32236775Y-179489343D01*
X30858577Y-179489343D01*
X30865921Y-179482349D01*
X30909721Y-179440639D01*
X31003891Y-179298902D01*
X31064319Y-179139825D01*
X31088001Y-178971313D01*
X31088299Y-178950000D01*
X31069331Y-178780892D01*
X31013368Y-178620189D01*
X30952645Y-178523013D01*
X30933500Y-178456245D01*
X30933500Y-175242890D01*
X30954552Y-175173163D01*
X30989670Y-175120306D01*
X31003891Y-175098902D01*
X31064319Y-174939825D01*
X31088001Y-174771313D01*
X31088299Y-174750000D01*
X31069331Y-174580892D01*
X31013368Y-174420189D01*
X30923192Y-174275879D01*
X30803286Y-174155132D01*
X30659608Y-174063951D01*
X30639316Y-174056725D01*
X30592360Y-174040005D01*
X30534896Y-173998311D01*
X30530040Y-173989343D01*
X50236775Y-173989343D01*
X50253381Y-174158699D01*
X50307094Y-174320167D01*
X50310741Y-174326189D01*
X50310742Y-174326191D01*
X50388561Y-174454684D01*
X50395246Y-174465723D01*
X50513455Y-174588132D01*
X50519351Y-174591990D01*
X50643355Y-174673136D01*
X50655846Y-174681310D01*
X50662450Y-174683766D01*
X50662452Y-174683767D01*
X50698844Y-174697301D01*
X50815341Y-174740626D01*
X50984015Y-174763132D01*
X50991026Y-174762494D01*
X50991030Y-174762494D01*
X51146462Y-174748348D01*
X51153483Y-174747709D01*
X51160185Y-174745531D01*
X51160187Y-174745531D01*
X51308623Y-174697301D01*
X51308626Y-174697300D01*
X51315322Y-174695124D01*
X51461490Y-174607990D01*
X51466584Y-174603139D01*
X51466588Y-174603136D01*
X51533833Y-174539099D01*
X51584721Y-174490639D01*
X51600992Y-174466150D01*
X51674990Y-174354773D01*
X51678891Y-174348902D01*
X51739319Y-174189825D01*
X51744668Y-174151762D01*
X51773955Y-174087088D01*
X51780347Y-174080202D01*
X54265144Y-171595405D01*
X54327456Y-171561379D01*
X54354239Y-171558500D01*
X54648134Y-171558500D01*
X54710316Y-171551745D01*
X54756482Y-171534438D01*
X54827289Y-171529255D01*
X54844942Y-171534438D01*
X54882394Y-171548478D01*
X54897649Y-171552105D01*
X54948514Y-171557631D01*
X54955328Y-171558000D01*
X55002885Y-171558000D01*
X55018124Y-171553525D01*
X55019329Y-171552135D01*
X55021000Y-171544452D01*
X55021000Y-171539884D01*
X55529000Y-171539884D01*
X55533475Y-171555123D01*
X55534865Y-171556328D01*
X55542548Y-171557999D01*
X55594669Y-171557999D01*
X55601490Y-171557629D01*
X55652352Y-171552105D01*
X55667604Y-171548479D01*
X55788054Y-171503324D01*
X55803649Y-171494786D01*
X55905724Y-171418285D01*
X55918285Y-171405724D01*
X55994786Y-171303649D01*
X56003324Y-171288054D01*
X56048478Y-171167606D01*
X56052105Y-171152351D01*
X56057631Y-171101486D01*
X56058000Y-171094672D01*
X56058000Y-171047115D01*
X56053525Y-171031876D01*
X56052135Y-171030671D01*
X56044452Y-171029000D01*
X55547115Y-171029000D01*
X55531876Y-171033475D01*
X55530671Y-171034865D01*
X55529000Y-171042548D01*
X55529000Y-171539884D01*
X55021000Y-171539884D01*
X55021000Y-171378196D01*
X55041002Y-171310075D01*
X55044974Y-171304357D01*
X55045228Y-171303892D01*
X55050615Y-171296705D01*
X55101745Y-171160316D01*
X55108500Y-171098134D01*
X55108500Y-170734500D01*
X55128502Y-170666379D01*
X55182158Y-170619886D01*
X55234500Y-170608500D01*
X55598134Y-170608500D01*
X55660316Y-170601745D01*
X55796705Y-170550615D01*
X55803892Y-170545229D01*
X55811760Y-170540921D01*
X55812597Y-170542449D01*
X55869141Y-170521326D01*
X55878196Y-170521000D01*
X56039884Y-170521000D01*
X56055123Y-170516525D01*
X56067721Y-170501987D01*
X56127447Y-170463604D01*
X56162945Y-170458500D01*
X59070223Y-170458500D01*
X59139216Y-170479068D01*
X59174240Y-170501987D01*
X59180846Y-170506310D01*
X59187450Y-170508766D01*
X59187452Y-170508767D01*
X59223844Y-170522301D01*
X59340341Y-170565626D01*
X59509015Y-170588132D01*
X59516026Y-170587494D01*
X59516030Y-170587494D01*
X59671462Y-170573348D01*
X59678483Y-170572709D01*
X59685185Y-170570531D01*
X59685187Y-170570531D01*
X59833623Y-170522301D01*
X59833626Y-170522300D01*
X59840322Y-170520124D01*
X59986490Y-170432990D01*
X59991584Y-170428139D01*
X59991588Y-170428136D01*
X60058833Y-170364099D01*
X60109721Y-170315639D01*
X60131092Y-170283474D01*
X60199990Y-170179773D01*
X60203891Y-170173902D01*
X60264319Y-170014825D01*
X60288001Y-169846313D01*
X60288299Y-169825000D01*
X60269331Y-169655892D01*
X60213368Y-169495189D01*
X60201809Y-169476690D01*
X60185420Y-169450464D01*
X60123192Y-169350879D01*
X60086911Y-169314343D01*
X60008248Y-169235129D01*
X60003286Y-169230132D01*
X59859608Y-169138951D01*
X59699300Y-169081868D01*
X59530329Y-169061720D01*
X59523326Y-169062456D01*
X59523325Y-169062456D01*
X59368101Y-169078770D01*
X59368097Y-169078771D01*
X59361093Y-169079507D01*
X59200003Y-169134346D01*
X59137468Y-169172818D01*
X59071448Y-169191500D01*
X55961589Y-169191500D01*
X55893468Y-169171498D01*
X55886024Y-169166326D01*
X55854540Y-169142730D01*
X55796705Y-169099385D01*
X55660316Y-169048255D01*
X55598134Y-169041500D01*
X54951866Y-169041500D01*
X54948469Y-169041869D01*
X54897534Y-169047402D01*
X54897532Y-169047402D01*
X54889684Y-169048255D01*
X54882291Y-169051027D01*
X54882289Y-169051027D01*
X54844229Y-169065295D01*
X54773422Y-169070478D01*
X54755771Y-169065295D01*
X54717711Y-169051027D01*
X54717709Y-169051027D01*
X54710316Y-169048255D01*
X54702468Y-169047402D01*
X54702466Y-169047402D01*
X54651531Y-169041869D01*
X54648134Y-169041500D01*
X54262149Y-169041500D01*
X54194028Y-169021498D01*
X54155295Y-168982270D01*
X54076925Y-168856853D01*
X54073192Y-168850879D01*
X53953286Y-168730132D01*
X53937039Y-168719821D01*
X53898406Y-168695304D01*
X53809608Y-168638951D01*
X53649300Y-168581868D01*
X53480329Y-168561720D01*
X53473326Y-168562456D01*
X53473325Y-168562456D01*
X53318101Y-168578770D01*
X53318097Y-168578771D01*
X53311093Y-168579507D01*
X53304422Y-168581778D01*
X53156673Y-168632075D01*
X53156670Y-168632076D01*
X53150003Y-168634346D01*
X53144005Y-168638036D01*
X53144003Y-168638037D01*
X53011065Y-168719821D01*
X53011063Y-168719823D01*
X53005066Y-168723512D01*
X52883486Y-168842573D01*
X52791304Y-168985610D01*
X52763602Y-169061720D01*
X52737169Y-169134346D01*
X52733103Y-169145516D01*
X52711775Y-169314343D01*
X52728381Y-169483699D01*
X52782094Y-169645167D01*
X52870246Y-169790723D01*
X52988455Y-169913132D01*
X53130846Y-170006310D01*
X53137450Y-170008766D01*
X53137452Y-170008767D01*
X53283731Y-170063168D01*
X53283733Y-170063169D01*
X53290341Y-170065626D01*
X53297326Y-170066558D01*
X53297330Y-170066559D01*
X53317710Y-170069278D01*
X53322770Y-170069953D01*
X53387648Y-170098788D01*
X53395202Y-170105751D01*
X53510685Y-170221234D01*
X53521554Y-170233627D01*
X53536233Y-170252758D01*
X53561832Y-170318979D01*
X53554252Y-170373686D01*
X53548255Y-170389684D01*
X53547402Y-170397532D01*
X53547402Y-170397534D01*
X53543159Y-170436594D01*
X53541500Y-170451866D01*
X53541500Y-170545761D01*
X53521498Y-170613882D01*
X53504595Y-170634856D01*
X50922233Y-173217218D01*
X50859921Y-173251244D01*
X50846313Y-173253432D01*
X50843107Y-173253769D01*
X50843100Y-173253771D01*
X50836093Y-173254507D01*
X50829422Y-173256778D01*
X50681673Y-173307075D01*
X50681670Y-173307076D01*
X50675003Y-173309346D01*
X50669005Y-173313036D01*
X50669003Y-173313037D01*
X50536065Y-173394821D01*
X50536063Y-173394823D01*
X50530066Y-173398512D01*
X50408486Y-173517573D01*
X50404675Y-173523487D01*
X50404673Y-173523489D01*
X50365015Y-173585026D01*
X50316304Y-173660610D01*
X50307948Y-173683569D01*
X50267638Y-173794320D01*
X50258103Y-173820516D01*
X50236775Y-173989343D01*
X30530040Y-173989343D01*
X30515637Y-173962747D01*
X30508980Y-173943629D01*
X30502995Y-173934050D01*
X30436417Y-173827506D01*
X30418804Y-173799319D01*
X30298898Y-173678572D01*
X30282651Y-173668261D01*
X30236708Y-173639105D01*
X30155220Y-173587391D01*
X29994912Y-173530308D01*
X29825941Y-173510160D01*
X29818938Y-173510896D01*
X29818937Y-173510896D01*
X29663713Y-173527210D01*
X29663709Y-173527211D01*
X29656705Y-173527947D01*
X29650034Y-173530218D01*
X29502285Y-173580515D01*
X29502282Y-173580516D01*
X29495615Y-173582786D01*
X29489617Y-173586476D01*
X29489615Y-173586477D01*
X29356677Y-173668261D01*
X29356675Y-173668263D01*
X29350678Y-173671952D01*
X29229098Y-173791013D01*
X29225287Y-173796927D01*
X29225285Y-173796929D01*
X29140733Y-173928127D01*
X29136916Y-173934050D01*
X29078715Y-174093956D01*
X29077832Y-174100944D01*
X29077832Y-174100945D01*
X29065890Y-174195478D01*
X29040846Y-174256391D01*
X28993476Y-174318124D01*
X28990317Y-174325750D01*
X28990316Y-174325752D01*
X28983456Y-174342314D01*
X28932162Y-174466149D01*
X28932162Y-174466150D01*
X28916500Y-174585115D01*
X28916500Y-174585120D01*
X28911250Y-174625000D01*
X28912328Y-174633188D01*
X28915422Y-174656690D01*
X28916500Y-174673136D01*
X28916500Y-182069158D01*
X28896498Y-182137279D01*
X28856522Y-182176476D01*
X28786065Y-182219821D01*
X28786063Y-182219823D01*
X28780066Y-182223512D01*
X28658486Y-182342573D01*
X28566304Y-182485610D01*
X28508103Y-182645516D01*
X28486775Y-182814343D01*
X26800690Y-182814343D01*
X26797987Y-182762766D01*
X26797630Y-182755953D01*
X26786758Y-182716480D01*
X26751352Y-182587941D01*
X26749539Y-182581359D01*
X26665078Y-182421164D01*
X26660673Y-182415951D01*
X26660670Y-182415947D01*
X26552594Y-182288057D01*
X26552590Y-182288053D01*
X26548187Y-182282843D01*
X26542762Y-182278695D01*
X26409743Y-182176994D01*
X26409739Y-182176991D01*
X26404322Y-182172850D01*
X26299186Y-182123825D01*
X26246369Y-182099195D01*
X26246366Y-182099194D01*
X26240192Y-182096315D01*
X26233544Y-182094829D01*
X26233541Y-182094828D01*
X26068494Y-182057936D01*
X26068495Y-182057936D01*
X26063457Y-182056810D01*
X26057912Y-182056500D01*
X25924756Y-182056500D01*
X25789963Y-182071143D01*
X25706609Y-182099195D01*
X25624796Y-182126728D01*
X25624794Y-182126729D01*
X25618325Y-182128906D01*
X25463095Y-182222177D01*
X25458138Y-182226865D01*
X25458135Y-182226867D01*
X25336473Y-182341918D01*
X25331515Y-182346607D01*
X25327683Y-182352245D01*
X25327680Y-182352249D01*
X25276740Y-182427205D01*
X25229723Y-182496388D01*
X25162470Y-182664534D01*
X25161356Y-182671262D01*
X25161355Y-182671266D01*
X25137669Y-182814343D01*
X25132892Y-182843198D01*
X25133249Y-182850015D01*
X25133249Y-182850019D01*
X25138151Y-182943539D01*
X25142370Y-183024047D01*
X25144181Y-183030620D01*
X25144181Y-183030623D01*
X25167551Y-183115466D01*
X25190461Y-183198641D01*
X25274922Y-183358836D01*
X25279330Y-183364052D01*
X25297372Y-183385402D01*
X25326063Y-183450343D01*
X25315090Y-183520486D01*
X25280768Y-183564372D01*
X25240718Y-183597036D01*
X25240715Y-183597039D01*
X25235938Y-183600935D01*
X25232011Y-183605682D01*
X25232009Y-183605684D01*
X25113799Y-183748575D01*
X25113797Y-183748579D01*
X25109870Y-183753325D01*
X25015802Y-183927299D01*
X24957318Y-184116232D01*
X24936645Y-184312925D01*
X23632067Y-184312925D01*
X23615430Y-184130112D01*
X23559590Y-183940381D01*
X23549919Y-183921881D01*
X23470813Y-183770568D01*
X23467960Y-183765110D01*
X23344032Y-183610975D01*
X23337727Y-183605684D01*
X23316809Y-183588132D01*
X23192526Y-183483846D01*
X23187128Y-183480879D01*
X23187123Y-183480875D01*
X23024608Y-183391533D01*
X23024609Y-183391533D01*
X23019213Y-183388567D01*
X23013346Y-183386706D01*
X23013344Y-183386705D01*
X22836564Y-183330627D01*
X22836563Y-183330627D01*
X22830694Y-183328765D01*
X22676773Y-183311500D01*
X21970231Y-183311500D01*
X21967175Y-183311800D01*
X21967168Y-183311800D01*
X21908660Y-183317537D01*
X21823167Y-183325920D01*
X21817266Y-183327702D01*
X21817264Y-183327702D01*
X21743947Y-183349838D01*
X21633831Y-183383084D01*
X21459204Y-183475934D01*
X21405022Y-183520124D01*
X21310713Y-183597040D01*
X21310710Y-183597043D01*
X21305938Y-183600935D01*
X21302011Y-183605682D01*
X21302009Y-183605684D01*
X21183799Y-183748575D01*
X21183797Y-183748579D01*
X21179870Y-183753325D01*
X21085802Y-183927299D01*
X21027318Y-184116232D01*
X21006645Y-184312925D01*
X20508500Y-184312925D01*
X20508500Y-175672925D01*
X21006645Y-175672925D01*
X21024570Y-175869888D01*
X21080410Y-176059619D01*
X21083263Y-176065077D01*
X21083265Y-176065081D01*
X21124953Y-176144821D01*
X21172040Y-176234890D01*
X21295968Y-176389025D01*
X21300692Y-176392989D01*
X21307933Y-176399065D01*
X21447474Y-176516154D01*
X21452872Y-176519121D01*
X21452877Y-176519125D01*
X21577964Y-176587891D01*
X21620787Y-176611433D01*
X21626654Y-176613294D01*
X21626656Y-176613295D01*
X21803436Y-176669373D01*
X21809306Y-176671235D01*
X21963227Y-176688500D01*
X22669769Y-176688500D01*
X22672825Y-176688200D01*
X22672832Y-176688200D01*
X22731340Y-176682463D01*
X22816833Y-176674080D01*
X22822734Y-176672298D01*
X22822736Y-176672298D01*
X22896053Y-176650162D01*
X23006169Y-176616916D01*
X23180796Y-176524066D01*
X23287873Y-176436736D01*
X23329287Y-176402960D01*
X23329290Y-176402957D01*
X23334062Y-176399065D01*
X23346344Y-176384219D01*
X23456201Y-176251425D01*
X23456203Y-176251421D01*
X23460130Y-176246675D01*
X23554198Y-176072701D01*
X23612682Y-175883768D01*
X23633355Y-175687075D01*
X23632067Y-175672925D01*
X24936645Y-175672925D01*
X24954570Y-175869888D01*
X25010410Y-176059619D01*
X25013263Y-176065077D01*
X25013265Y-176065081D01*
X25054953Y-176144821D01*
X25102040Y-176234890D01*
X25225968Y-176389025D01*
X25282828Y-176436736D01*
X25322154Y-176495846D01*
X25323280Y-176566833D01*
X25306048Y-176604080D01*
X25299290Y-176614024D01*
X25229723Y-176716388D01*
X25162470Y-176884534D01*
X25161356Y-176891262D01*
X25161355Y-176891266D01*
X25134007Y-177056461D01*
X25132892Y-177063198D01*
X25133249Y-177070015D01*
X25133249Y-177070019D01*
X25138151Y-177163539D01*
X25142370Y-177244047D01*
X25144181Y-177250620D01*
X25144181Y-177250623D01*
X25167551Y-177335466D01*
X25190461Y-177418641D01*
X25274922Y-177578836D01*
X25279327Y-177584049D01*
X25279330Y-177584053D01*
X25387406Y-177711943D01*
X25387410Y-177711947D01*
X25391813Y-177717157D01*
X25397237Y-177721304D01*
X25397238Y-177721305D01*
X25530257Y-177823006D01*
X25530261Y-177823009D01*
X25535678Y-177827150D01*
X25541858Y-177830032D01*
X25541860Y-177830033D01*
X25669433Y-177889521D01*
X25722718Y-177936438D01*
X25742179Y-178004716D01*
X25721637Y-178072676D01*
X25667614Y-178118741D01*
X25656793Y-178122992D01*
X25617092Y-178136507D01*
X25556673Y-178157075D01*
X25556670Y-178157076D01*
X25550003Y-178159346D01*
X25544005Y-178163036D01*
X25544003Y-178163037D01*
X25411065Y-178244821D01*
X25411063Y-178244823D01*
X25405066Y-178248512D01*
X25283486Y-178367573D01*
X25191304Y-178510610D01*
X25133103Y-178670516D01*
X25111775Y-178839343D01*
X25128381Y-179008699D01*
X25182094Y-179170167D01*
X25185741Y-179176189D01*
X25185742Y-179176191D01*
X25248276Y-179279447D01*
X25266500Y-179344718D01*
X25266500Y-179756846D01*
X25246411Y-179825101D01*
X25191304Y-179910610D01*
X25133103Y-180070516D01*
X25111775Y-180239343D01*
X25128381Y-180408699D01*
X25182094Y-180570167D01*
X25185741Y-180576189D01*
X25185742Y-180576191D01*
X25249152Y-180680892D01*
X25270246Y-180715723D01*
X25388455Y-180838132D01*
X25530846Y-180931310D01*
X25537450Y-180933766D01*
X25537452Y-180933767D01*
X25573844Y-180947301D01*
X25690341Y-180990626D01*
X25859015Y-181013132D01*
X25866026Y-181012494D01*
X25866030Y-181012494D01*
X26021462Y-180998348D01*
X26028483Y-180997709D01*
X26035185Y-180995531D01*
X26035187Y-180995531D01*
X26183623Y-180947301D01*
X26183626Y-180947300D01*
X26190322Y-180945124D01*
X26336490Y-180857990D01*
X26341584Y-180853139D01*
X26341588Y-180853136D01*
X26408833Y-180789099D01*
X26459721Y-180740639D01*
X26553891Y-180598902D01*
X26614319Y-180439825D01*
X26638001Y-180271313D01*
X26638157Y-180260129D01*
X26638244Y-180253961D01*
X26638244Y-180253955D01*
X26638299Y-180250000D01*
X26619331Y-180080892D01*
X26563368Y-179920189D01*
X26502645Y-179823013D01*
X26483500Y-179756245D01*
X26483500Y-179342890D01*
X26504552Y-179273163D01*
X26519868Y-179250110D01*
X26553891Y-179198902D01*
X26614319Y-179039825D01*
X26638001Y-178871313D01*
X26638299Y-178850000D01*
X26619331Y-178680892D01*
X26563368Y-178520189D01*
X26557383Y-178510610D01*
X26523411Y-178456245D01*
X26473192Y-178375879D01*
X26353286Y-178255132D01*
X26337039Y-178244821D01*
X26298406Y-178220304D01*
X26209608Y-178163951D01*
X26184018Y-178154839D01*
X26126555Y-178113144D01*
X26100755Y-178047001D01*
X26114810Y-177977410D01*
X26164259Y-177926465D01*
X26186094Y-177916723D01*
X26266921Y-177889521D01*
X26315205Y-177873272D01*
X26315210Y-177873270D01*
X26321675Y-177871094D01*
X26476905Y-177777823D01*
X26481862Y-177773135D01*
X26481865Y-177773133D01*
X26603527Y-177658082D01*
X26603529Y-177658080D01*
X26608485Y-177653393D01*
X26612317Y-177647755D01*
X26612320Y-177647751D01*
X26706442Y-177509255D01*
X26710277Y-177503612D01*
X26777530Y-177335466D01*
X26778644Y-177328738D01*
X26778645Y-177328734D01*
X26805993Y-177163539D01*
X26805993Y-177163536D01*
X26807108Y-177156802D01*
X26804382Y-177104773D01*
X26797987Y-176982766D01*
X26797630Y-176975953D01*
X26774304Y-176891266D01*
X26762375Y-176847960D01*
X26763569Y-176776973D01*
X26802952Y-176717901D01*
X26868019Y-176689499D01*
X26883851Y-176688500D01*
X27099769Y-176688500D01*
X27102825Y-176688200D01*
X27102832Y-176688200D01*
X27161340Y-176682463D01*
X27246833Y-176674080D01*
X27252734Y-176672298D01*
X27252736Y-176672298D01*
X27326053Y-176650162D01*
X27436169Y-176616916D01*
X27610796Y-176524066D01*
X27717873Y-176436736D01*
X27759287Y-176402960D01*
X27759290Y-176402957D01*
X27764062Y-176399065D01*
X27776344Y-176384219D01*
X27886201Y-176251425D01*
X27886203Y-176251421D01*
X27890130Y-176246675D01*
X27984198Y-176072701D01*
X28042682Y-175883768D01*
X28063355Y-175687075D01*
X28045430Y-175490112D01*
X27989590Y-175300381D01*
X27979919Y-175281881D01*
X27939280Y-175204147D01*
X27897960Y-175125110D01*
X27774032Y-174970975D01*
X27767727Y-174965684D01*
X27736909Y-174939825D01*
X27622526Y-174843846D01*
X27617128Y-174840879D01*
X27617123Y-174840875D01*
X27454608Y-174751533D01*
X27454609Y-174751533D01*
X27449213Y-174748567D01*
X27443346Y-174746706D01*
X27443344Y-174746705D01*
X27266564Y-174690627D01*
X27266563Y-174690627D01*
X27260694Y-174688765D01*
X27106773Y-174671500D01*
X25900231Y-174671500D01*
X25897175Y-174671800D01*
X25897168Y-174671800D01*
X25839529Y-174677452D01*
X25753167Y-174685920D01*
X25747266Y-174687702D01*
X25747264Y-174687702D01*
X25715471Y-174697301D01*
X25563831Y-174743084D01*
X25389204Y-174835934D01*
X25302938Y-174906291D01*
X25240713Y-174957040D01*
X25240710Y-174957043D01*
X25235938Y-174960935D01*
X25232011Y-174965682D01*
X25232009Y-174965684D01*
X25113799Y-175108575D01*
X25113797Y-175108579D01*
X25109870Y-175113325D01*
X25015802Y-175287299D01*
X24957318Y-175476232D01*
X24936645Y-175672925D01*
X23632067Y-175672925D01*
X23615430Y-175490112D01*
X23559590Y-175300381D01*
X23549919Y-175281881D01*
X23509280Y-175204147D01*
X23467960Y-175125110D01*
X23344032Y-174970975D01*
X23337727Y-174965684D01*
X23306909Y-174939825D01*
X23192526Y-174843846D01*
X23187128Y-174840879D01*
X23187123Y-174840875D01*
X23024608Y-174751533D01*
X23024609Y-174751533D01*
X23019213Y-174748567D01*
X23013346Y-174746706D01*
X23013344Y-174746705D01*
X22836564Y-174690627D01*
X22836563Y-174690627D01*
X22830694Y-174688765D01*
X22676773Y-174671500D01*
X21970231Y-174671500D01*
X21967175Y-174671800D01*
X21967168Y-174671800D01*
X21909529Y-174677452D01*
X21823167Y-174685920D01*
X21817266Y-174687702D01*
X21817264Y-174687702D01*
X21785471Y-174697301D01*
X21633831Y-174743084D01*
X21459204Y-174835934D01*
X21372938Y-174906291D01*
X21310713Y-174957040D01*
X21310710Y-174957043D01*
X21305938Y-174960935D01*
X21302011Y-174965682D01*
X21302009Y-174965684D01*
X21183799Y-175108575D01*
X21183797Y-175108579D01*
X21179870Y-175113325D01*
X21085802Y-175287299D01*
X21027318Y-175476232D01*
X21006645Y-175672925D01*
X20508500Y-175672925D01*
X20508500Y-173126000D01*
X20528502Y-173057879D01*
X20582158Y-173011386D01*
X20634500Y-173000000D01*
X50500000Y-173000000D01*
X50500000Y-153126000D01*
X50520002Y-153057879D01*
X50573658Y-153011386D01*
X50626000Y-153000000D01*
X94374000Y-153000000D01*
X94442121Y-153020002D01*
X94488614Y-153073658D01*
X94500000Y-153126000D01*
X94500000Y-193000000D01*
X133000000Y-193000000D01*
X133000000Y-181596030D01*
X133020002Y-181527909D01*
X133061482Y-181487801D01*
X133105444Y-181461594D01*
X133111490Y-181457990D01*
X133116584Y-181453139D01*
X133116588Y-181453136D01*
X133183833Y-181389099D01*
X133234721Y-181340639D01*
X133328891Y-181198902D01*
X133389319Y-181039825D01*
X133413001Y-180871313D01*
X133413299Y-180850000D01*
X133394331Y-180680892D01*
X133338368Y-180520189D01*
X133248192Y-180375879D01*
X133128286Y-180255132D01*
X133058485Y-180210835D01*
X133011687Y-180157445D01*
X133000000Y-180104450D01*
X133000000Y-165634500D01*
X133020002Y-165566379D01*
X133073658Y-165519886D01*
X133126000Y-165508500D01*
X137038411Y-165508500D01*
X137106532Y-165528502D01*
X137113975Y-165533674D01*
X137203295Y-165600615D01*
X137339684Y-165651745D01*
X137401866Y-165658500D01*
X138048134Y-165658500D01*
X138110316Y-165651745D01*
X138156482Y-165634438D01*
X138227289Y-165629255D01*
X138244942Y-165634438D01*
X138282394Y-165648478D01*
X138297649Y-165652105D01*
X138348514Y-165657631D01*
X138355328Y-165658000D01*
X138402885Y-165658000D01*
X138418124Y-165653525D01*
X138419329Y-165652135D01*
X138421000Y-165644452D01*
X138421000Y-165478196D01*
X138441002Y-165410075D01*
X138444974Y-165404357D01*
X138445228Y-165403892D01*
X138450615Y-165396705D01*
X138501745Y-165260316D01*
X138508500Y-165198134D01*
X138508500Y-164834500D01*
X138528502Y-164766379D01*
X138582158Y-164719886D01*
X138634500Y-164708500D01*
X138803000Y-164708500D01*
X138871121Y-164728502D01*
X138917614Y-164782158D01*
X138929000Y-164834500D01*
X138929000Y-165639884D01*
X138933475Y-165655123D01*
X138934865Y-165656328D01*
X138942548Y-165657999D01*
X138994669Y-165657999D01*
X139001490Y-165657629D01*
X139052352Y-165652105D01*
X139067604Y-165648479D01*
X139188054Y-165603324D01*
X139203649Y-165594786D01*
X139305724Y-165518285D01*
X139318285Y-165505724D01*
X139394786Y-165403649D01*
X139403324Y-165388054D01*
X139433831Y-165306677D01*
X139476473Y-165249913D01*
X139543034Y-165225213D01*
X139612383Y-165240420D01*
X139640908Y-165261812D01*
X153954595Y-179575499D01*
X153988621Y-179637811D01*
X153991500Y-179664594D01*
X153991500Y-214171233D01*
X153990973Y-214182416D01*
X153989298Y-214189909D01*
X153989547Y-214197835D01*
X153989547Y-214197836D01*
X153991438Y-214257986D01*
X153991500Y-214261945D01*
X153991500Y-214289856D01*
X153991997Y-214293790D01*
X153991997Y-214293791D01*
X153992005Y-214293856D01*
X153992938Y-214305693D01*
X153994327Y-214349889D01*
X153997042Y-214359233D01*
X153999978Y-214369339D01*
X154003987Y-214388700D01*
X154006526Y-214408797D01*
X154009445Y-214416168D01*
X154009445Y-214416170D01*
X154022804Y-214449912D01*
X154026649Y-214461142D01*
X154036534Y-214495167D01*
X154038982Y-214503593D01*
X154043015Y-214510412D01*
X154043017Y-214510417D01*
X154049293Y-214521028D01*
X154057988Y-214538776D01*
X154065448Y-214557617D01*
X154070110Y-214564033D01*
X154070110Y-214564034D01*
X154091436Y-214593387D01*
X154097952Y-214603307D01*
X154114835Y-214631854D01*
X154120458Y-214641362D01*
X154134779Y-214655683D01*
X154147619Y-214670716D01*
X154159528Y-214687107D01*
X154165634Y-214692158D01*
X154193605Y-214715298D01*
X154202384Y-214723288D01*
X155946348Y-216467253D01*
X155953888Y-216475539D01*
X155958000Y-216482018D01*
X155963777Y-216487443D01*
X156007651Y-216528643D01*
X156010493Y-216531398D01*
X156030230Y-216551135D01*
X156033427Y-216553615D01*
X156042447Y-216561318D01*
X156074679Y-216591586D01*
X156081625Y-216595405D01*
X156081628Y-216595407D01*
X156092434Y-216601348D01*
X156108953Y-216612199D01*
X156124959Y-216624614D01*
X156132228Y-216627759D01*
X156132232Y-216627762D01*
X156165537Y-216642174D01*
X156176187Y-216647391D01*
X156214940Y-216668695D01*
X156222615Y-216670666D01*
X156222616Y-216670666D01*
X156234562Y-216673733D01*
X156253267Y-216680137D01*
X156271855Y-216688181D01*
X156279678Y-216689420D01*
X156279688Y-216689423D01*
X156315524Y-216695099D01*
X156327144Y-216697505D01*
X156362289Y-216706528D01*
X156369970Y-216708500D01*
X156390224Y-216708500D01*
X156409934Y-216710051D01*
X156429943Y-216713220D01*
X156437835Y-216712474D01*
X156473961Y-216709059D01*
X156485819Y-216708500D01*
X157438411Y-216708500D01*
X157506532Y-216728502D01*
X157513975Y-216733674D01*
X157603295Y-216800615D01*
X157739684Y-216851745D01*
X157801866Y-216858500D01*
X158448134Y-216858500D01*
X158510316Y-216851745D01*
X158556482Y-216834438D01*
X158627289Y-216829255D01*
X158644942Y-216834438D01*
X158682394Y-216848478D01*
X158697649Y-216852105D01*
X158748514Y-216857631D01*
X158755328Y-216858000D01*
X158802885Y-216858000D01*
X158818124Y-216853525D01*
X158819329Y-216852135D01*
X158821000Y-216844452D01*
X158821000Y-216839884D01*
X159329000Y-216839884D01*
X159333475Y-216855123D01*
X159334865Y-216856328D01*
X159342548Y-216857999D01*
X159394669Y-216857999D01*
X159401490Y-216857629D01*
X159452352Y-216852105D01*
X159467604Y-216848479D01*
X159588054Y-216803324D01*
X159603649Y-216794786D01*
X159705724Y-216718285D01*
X159718285Y-216705724D01*
X159794786Y-216603649D01*
X159803324Y-216588054D01*
X159848478Y-216467606D01*
X159852105Y-216452351D01*
X159857631Y-216401486D01*
X159858000Y-216394672D01*
X159858000Y-216347115D01*
X159853525Y-216331876D01*
X159852135Y-216330671D01*
X159844452Y-216329000D01*
X159347115Y-216329000D01*
X159331876Y-216333475D01*
X159330671Y-216334865D01*
X159329000Y-216342548D01*
X159329000Y-216839884D01*
X158821000Y-216839884D01*
X158821000Y-216678196D01*
X158841002Y-216610075D01*
X158844974Y-216604357D01*
X158845228Y-216603892D01*
X158850615Y-216596705D01*
X158901745Y-216460316D01*
X158908500Y-216398134D01*
X158908500Y-216034500D01*
X158928502Y-215966379D01*
X158982158Y-215919886D01*
X159034500Y-215908500D01*
X159398134Y-215908500D01*
X159460316Y-215901745D01*
X159596705Y-215850615D01*
X159603892Y-215845229D01*
X159611760Y-215840921D01*
X159612597Y-215842449D01*
X159669141Y-215821326D01*
X159678196Y-215821000D01*
X159839884Y-215821000D01*
X159855124Y-215816525D01*
X159866086Y-215803874D01*
X159925812Y-215765491D01*
X159996809Y-215765491D01*
X160018131Y-215775329D01*
X160018663Y-215774276D01*
X160024950Y-215777452D01*
X160030846Y-215781310D01*
X160037450Y-215783766D01*
X160037452Y-215783767D01*
X160073844Y-215797301D01*
X160190341Y-215840626D01*
X160359015Y-215863132D01*
X160366026Y-215862494D01*
X160366030Y-215862494D01*
X160521462Y-215848348D01*
X160528483Y-215847709D01*
X160535185Y-215845531D01*
X160535187Y-215845531D01*
X160683623Y-215797301D01*
X160683626Y-215797300D01*
X160690322Y-215795124D01*
X160836490Y-215707990D01*
X160841584Y-215703139D01*
X160841588Y-215703136D01*
X160908833Y-215639099D01*
X160959721Y-215590639D01*
X161053891Y-215448902D01*
X161114319Y-215289825D01*
X161138001Y-215121313D01*
X161138299Y-215100000D01*
X161119331Y-214930892D01*
X161063368Y-214770189D01*
X161058959Y-214763132D01*
X161011452Y-214687107D01*
X160973192Y-214625879D01*
X160853286Y-214505132D01*
X160824304Y-214486739D01*
X160766273Y-214449912D01*
X160709608Y-214413951D01*
X160549300Y-214356868D01*
X160380329Y-214336720D01*
X160373326Y-214337456D01*
X160373325Y-214337456D01*
X160218101Y-214353770D01*
X160218097Y-214353771D01*
X160211093Y-214354507D01*
X160204422Y-214356778D01*
X160056673Y-214407075D01*
X160056670Y-214407076D01*
X160050003Y-214409346D01*
X160044005Y-214413036D01*
X160044003Y-214413037D01*
X159906194Y-214497818D01*
X159840172Y-214516500D01*
X159793413Y-214516500D01*
X159725292Y-214496498D01*
X159713380Y-214486898D01*
X159713261Y-214486739D01*
X159596705Y-214399385D01*
X159460316Y-214348255D01*
X159398134Y-214341500D01*
X158802174Y-214341500D01*
X158734053Y-214321498D01*
X158685765Y-214263719D01*
X158659684Y-214200754D01*
X158656524Y-214193125D01*
X158634439Y-214164343D01*
X158583477Y-214097928D01*
X158583474Y-214097925D01*
X158571064Y-214081752D01*
X158545813Y-214019097D01*
X158545117Y-214012896D01*
X158545116Y-214012892D01*
X158544331Y-214005892D01*
X158488368Y-213845189D01*
X158482383Y-213835610D01*
X158460420Y-213800464D01*
X158398192Y-213700879D01*
X158278286Y-213580132D01*
X158262039Y-213569821D01*
X158223406Y-213545304D01*
X158134608Y-213488951D01*
X157974300Y-213431868D01*
X157805329Y-213411720D01*
X157798326Y-213412456D01*
X157798325Y-213412456D01*
X157643101Y-213428770D01*
X157643097Y-213428771D01*
X157636093Y-213429507D01*
X157629422Y-213431778D01*
X157481673Y-213482075D01*
X157481670Y-213482076D01*
X157475003Y-213484346D01*
X157469005Y-213488036D01*
X157469003Y-213488037D01*
X157336065Y-213569821D01*
X157336063Y-213569823D01*
X157330066Y-213573512D01*
X157208486Y-213692573D01*
X157116304Y-213835610D01*
X157058103Y-213995516D01*
X157036775Y-214164343D01*
X157053381Y-214333699D01*
X157055605Y-214340384D01*
X157055605Y-214340385D01*
X157061875Y-214359233D01*
X157107094Y-214495167D01*
X157110741Y-214501189D01*
X157110742Y-214501191D01*
X157189875Y-214631854D01*
X157195246Y-214640723D01*
X157270912Y-214719077D01*
X157306137Y-214755554D01*
X157339069Y-214818451D01*
X157341500Y-214843081D01*
X157341500Y-215315500D01*
X157321498Y-215383621D01*
X157267842Y-215430114D01*
X157215500Y-215441500D01*
X156764594Y-215441500D01*
X156696473Y-215421498D01*
X156675499Y-215404595D01*
X155295405Y-214024500D01*
X155261379Y-213962188D01*
X155258500Y-213935405D01*
X155258500Y-179428767D01*
X155259027Y-179417584D01*
X155260702Y-179410091D01*
X155258562Y-179342014D01*
X155258500Y-179338055D01*
X155258500Y-179310144D01*
X155257995Y-179306144D01*
X155257062Y-179294301D01*
X155256828Y-179286835D01*
X155255673Y-179250110D01*
X155250022Y-179230658D01*
X155246014Y-179211306D01*
X155244467Y-179199063D01*
X155243474Y-179191203D01*
X155237790Y-179176846D01*
X155227200Y-179150097D01*
X155223355Y-179138870D01*
X155221604Y-179132845D01*
X155211018Y-179096407D01*
X155206984Y-179089585D01*
X155206981Y-179089579D01*
X155200706Y-179078968D01*
X155192010Y-179061218D01*
X155187472Y-179049756D01*
X155187469Y-179049751D01*
X155184552Y-179042383D01*
X155164937Y-179015385D01*
X155158573Y-179006625D01*
X155152057Y-178996707D01*
X155139351Y-178975223D01*
X155129542Y-178958637D01*
X155115218Y-178944313D01*
X155102376Y-178929278D01*
X155090472Y-178912893D01*
X155056406Y-178884711D01*
X155047627Y-178876722D01*
X139703652Y-163532747D01*
X139696112Y-163524461D01*
X139692000Y-163517982D01*
X139642348Y-163471356D01*
X139639507Y-163468602D01*
X139619770Y-163448865D01*
X139616573Y-163446385D01*
X139607551Y-163438680D01*
X139581100Y-163413841D01*
X139575321Y-163408414D01*
X139568375Y-163404595D01*
X139568372Y-163404593D01*
X139557566Y-163398652D01*
X139541047Y-163387801D01*
X139540583Y-163387441D01*
X139525041Y-163375386D01*
X139517772Y-163372241D01*
X139517768Y-163372238D01*
X139484463Y-163357826D01*
X139473813Y-163352609D01*
X139435060Y-163331305D01*
X139415437Y-163326267D01*
X139396734Y-163319863D01*
X139385420Y-163314967D01*
X139385419Y-163314967D01*
X139378145Y-163311819D01*
X139370321Y-163310580D01*
X139370315Y-163310578D01*
X139369151Y-163310394D01*
X139368312Y-163309996D01*
X139362701Y-163308366D01*
X139362964Y-163307461D01*
X139314830Y-163284645D01*
X139313261Y-163286739D01*
X139196705Y-163199385D01*
X139060316Y-163148255D01*
X138998134Y-163141500D01*
X138351866Y-163141500D01*
X138348469Y-163141869D01*
X138297534Y-163147402D01*
X138297532Y-163147402D01*
X138289684Y-163148255D01*
X138282291Y-163151027D01*
X138282289Y-163151027D01*
X138244229Y-163165295D01*
X138173422Y-163170478D01*
X138155771Y-163165295D01*
X138117711Y-163151027D01*
X138117709Y-163151027D01*
X138110316Y-163148255D01*
X138102468Y-163147402D01*
X138102466Y-163147402D01*
X138051531Y-163141869D01*
X138048134Y-163141500D01*
X137696274Y-163141500D01*
X137628153Y-163121498D01*
X137581660Y-163067842D01*
X137577283Y-163056937D01*
X137540686Y-162951846D01*
X137538368Y-162945189D01*
X137448192Y-162800879D01*
X137328286Y-162680132D01*
X137306806Y-162666500D01*
X137273406Y-162645304D01*
X137184608Y-162588951D01*
X137024300Y-162531868D01*
X136855329Y-162511720D01*
X136848326Y-162512456D01*
X136848325Y-162512456D01*
X136693101Y-162528770D01*
X136693097Y-162528771D01*
X136686093Y-162529507D01*
X136679422Y-162531778D01*
X136531673Y-162582075D01*
X136531670Y-162582076D01*
X136525003Y-162584346D01*
X136519005Y-162588036D01*
X136519003Y-162588037D01*
X136421831Y-162647818D01*
X136355809Y-162666500D01*
X133126000Y-162666500D01*
X133057879Y-162646498D01*
X133011386Y-162592842D01*
X133000000Y-162540500D01*
X133000000Y-143126000D01*
X133020002Y-143057879D01*
X133073658Y-143011386D01*
X133126000Y-143000000D01*
X171874000Y-143000000D01*
X171942121Y-143020002D01*
G37*
%TD.AperFunction*%
%TA.AperFunction,Conductor*%
G36*
X289970018Y-20510000D02*
G01*
X289984851Y-20512310D01*
X289984855Y-20512310D01*
X289993724Y-20513691D01*
X290014183Y-20511016D01*
X290036007Y-20510072D01*
X290385965Y-20525352D01*
X290396913Y-20526310D01*
X290774498Y-20576019D01*
X290785307Y-20577926D01*
X291157114Y-20660353D01*
X291167731Y-20663198D01*
X291530939Y-20777718D01*
X291541254Y-20781471D01*
X291893123Y-20927220D01*
X291903067Y-20931858D01*
X292240867Y-21107705D01*
X292250387Y-21113201D01*
X292571574Y-21317820D01*
X292580578Y-21324124D01*
X292882716Y-21555962D01*
X292891137Y-21563028D01*
X293171914Y-21820314D01*
X293179686Y-21828086D01*
X293436972Y-22108863D01*
X293444038Y-22117284D01*
X293675876Y-22419422D01*
X293682180Y-22428426D01*
X293886799Y-22749613D01*
X293892294Y-22759132D01*
X294017683Y-23000000D01*
X294068138Y-23096924D01*
X294072780Y-23106877D01*
X294141206Y-23272072D01*
X294218526Y-23458739D01*
X294222282Y-23469061D01*
X294305346Y-23732502D01*
X294336802Y-23832268D01*
X294339647Y-23842885D01*
X294405715Y-24140898D01*
X294422073Y-24214685D01*
X294423982Y-24225510D01*
X294473690Y-24603086D01*
X294474648Y-24614036D01*
X294489603Y-24956552D01*
X294488223Y-24981429D01*
X294486309Y-24993724D01*
X294487473Y-25002626D01*
X294487473Y-25002628D01*
X294490436Y-25025283D01*
X294491500Y-25041621D01*
X294491500Y-249365500D01*
X294471498Y-249433621D01*
X294417842Y-249480114D01*
X294365500Y-249491500D01*
X172626000Y-249491500D01*
X172557879Y-249471498D01*
X172511386Y-249417842D01*
X172500000Y-249365500D01*
X172500000Y-247000000D01*
X290386526Y-247000000D01*
X290406391Y-247252403D01*
X290465495Y-247498591D01*
X290562384Y-247732502D01*
X290694672Y-247948376D01*
X290859102Y-248140898D01*
X291051624Y-248305328D01*
X291267498Y-248437616D01*
X291272068Y-248439509D01*
X291272072Y-248439511D01*
X291496836Y-248532611D01*
X291501409Y-248534505D01*
X291586032Y-248554821D01*
X291742784Y-248592454D01*
X291742790Y-248592455D01*
X291747597Y-248593609D01*
X291847416Y-248601465D01*
X291934345Y-248608307D01*
X291934352Y-248608307D01*
X291936801Y-248608500D01*
X292063199Y-248608500D01*
X292065648Y-248608307D01*
X292065655Y-248608307D01*
X292152584Y-248601465D01*
X292252403Y-248593609D01*
X292257210Y-248592455D01*
X292257216Y-248592454D01*
X292413968Y-248554821D01*
X292498591Y-248534505D01*
X292503164Y-248532611D01*
X292727928Y-248439511D01*
X292727932Y-248439509D01*
X292732502Y-248437616D01*
X292948376Y-248305328D01*
X293140898Y-248140898D01*
X293305328Y-247948376D01*
X293437616Y-247732502D01*
X293534505Y-247498591D01*
X293593609Y-247252403D01*
X293613474Y-247000000D01*
X293593609Y-246747597D01*
X293534505Y-246501409D01*
X293437616Y-246267498D01*
X293305328Y-246051624D01*
X293140898Y-245859102D01*
X292948376Y-245694672D01*
X292732502Y-245562384D01*
X292727932Y-245560491D01*
X292727928Y-245560489D01*
X292503164Y-245467389D01*
X292503162Y-245467388D01*
X292498591Y-245465495D01*
X292413968Y-245445179D01*
X292257216Y-245407546D01*
X292257210Y-245407545D01*
X292252403Y-245406391D01*
X292152584Y-245398535D01*
X292065655Y-245391693D01*
X292065648Y-245391693D01*
X292063199Y-245391500D01*
X291936801Y-245391500D01*
X291934352Y-245391693D01*
X291934345Y-245391693D01*
X291847416Y-245398535D01*
X291747597Y-245406391D01*
X291742790Y-245407545D01*
X291742784Y-245407546D01*
X291586032Y-245445179D01*
X291501409Y-245465495D01*
X291496838Y-245467388D01*
X291496836Y-245467389D01*
X291272072Y-245560489D01*
X291272068Y-245560491D01*
X291267498Y-245562384D01*
X291051624Y-245694672D01*
X290859102Y-245859102D01*
X290694672Y-246051624D01*
X290562384Y-246267498D01*
X290465495Y-246501409D01*
X290406391Y-246747597D01*
X290386526Y-247000000D01*
X172500000Y-247000000D01*
X172500000Y-222400000D01*
X181886835Y-222400000D01*
X181905465Y-222636711D01*
X181906619Y-222641518D01*
X181906620Y-222641524D01*
X181913796Y-222671414D01*
X181960895Y-222867594D01*
X181962788Y-222872165D01*
X181962789Y-222872167D01*
X182048104Y-223078136D01*
X182051760Y-223086963D01*
X182054346Y-223091183D01*
X182173241Y-223285202D01*
X182173245Y-223285208D01*
X182175824Y-223289416D01*
X182330031Y-223469969D01*
X182510584Y-223624176D01*
X182514792Y-223626755D01*
X182514798Y-223626759D01*
X182708817Y-223745654D01*
X182713037Y-223748240D01*
X182717607Y-223750133D01*
X182717611Y-223750135D01*
X182871678Y-223813951D01*
X182932406Y-223839105D01*
X183012609Y-223858360D01*
X183158476Y-223893380D01*
X183158482Y-223893381D01*
X183163289Y-223894535D01*
X183400000Y-223913165D01*
X183636711Y-223894535D01*
X183641518Y-223893381D01*
X183641524Y-223893380D01*
X183787391Y-223858360D01*
X183867594Y-223839105D01*
X183928322Y-223813951D01*
X184082389Y-223750135D01*
X184082393Y-223750133D01*
X184086963Y-223748240D01*
X184091183Y-223745654D01*
X184285202Y-223626759D01*
X184285208Y-223626755D01*
X184289416Y-223624176D01*
X184469969Y-223469969D01*
X184624176Y-223289416D01*
X184626755Y-223285208D01*
X184626759Y-223285202D01*
X184744133Y-223093665D01*
X184796781Y-223046034D01*
X184851566Y-223033500D01*
X185608506Y-223033500D01*
X185676627Y-223053502D01*
X185685222Y-223059785D01*
X185688455Y-223063132D01*
X185694354Y-223066992D01*
X185694355Y-223066993D01*
X185724873Y-223086963D01*
X185830846Y-223156310D01*
X185837450Y-223158766D01*
X185837452Y-223158767D01*
X185873844Y-223172301D01*
X185990341Y-223215626D01*
X186159015Y-223238132D01*
X186166026Y-223237494D01*
X186166030Y-223237494D01*
X186321462Y-223223348D01*
X186328483Y-223222709D01*
X186335185Y-223220531D01*
X186335187Y-223220531D01*
X186483623Y-223172301D01*
X186483626Y-223172300D01*
X186490322Y-223170124D01*
X186636490Y-223082990D01*
X186641584Y-223078139D01*
X186641588Y-223078136D01*
X186708833Y-223014099D01*
X186759721Y-222965639D01*
X186853891Y-222823902D01*
X186914319Y-222664825D01*
X186938001Y-222496313D01*
X186938299Y-222475000D01*
X186919331Y-222305892D01*
X186863368Y-222145189D01*
X186773192Y-222000879D01*
X186653286Y-221880132D01*
X186509608Y-221788951D01*
X186349300Y-221731868D01*
X186180329Y-221711720D01*
X186173326Y-221712456D01*
X186173325Y-221712456D01*
X186018101Y-221728770D01*
X186018097Y-221728771D01*
X186011093Y-221729507D01*
X186004422Y-221731778D01*
X185922172Y-221759778D01*
X185881567Y-221766500D01*
X184851566Y-221766500D01*
X184783445Y-221746498D01*
X184744133Y-221706335D01*
X184626759Y-221514798D01*
X184626755Y-221514792D01*
X184624176Y-221510584D01*
X184469969Y-221330031D01*
X184289416Y-221175824D01*
X184285208Y-221173245D01*
X184285202Y-221173241D01*
X184091183Y-221054346D01*
X184086963Y-221051760D01*
X184082393Y-221049867D01*
X184082389Y-221049865D01*
X183872167Y-220962789D01*
X183872165Y-220962788D01*
X183867594Y-220960895D01*
X183787391Y-220941640D01*
X183641524Y-220906620D01*
X183641518Y-220906619D01*
X183636711Y-220905465D01*
X183400000Y-220886835D01*
X183163289Y-220905465D01*
X183158482Y-220906619D01*
X183158476Y-220906620D01*
X183012609Y-220941640D01*
X182932406Y-220960895D01*
X182927835Y-220962788D01*
X182927833Y-220962789D01*
X182717611Y-221049865D01*
X182717607Y-221049867D01*
X182713037Y-221051760D01*
X182708817Y-221054346D01*
X182514798Y-221173241D01*
X182514792Y-221173245D01*
X182510584Y-221175824D01*
X182330031Y-221330031D01*
X182175824Y-221510584D01*
X182173245Y-221514792D01*
X182173241Y-221514798D01*
X182145942Y-221559346D01*
X182051760Y-221713037D01*
X182049867Y-221717607D01*
X182049865Y-221717611D01*
X181969923Y-221910610D01*
X181960895Y-221932406D01*
X181959740Y-221937218D01*
X181910945Y-222140464D01*
X181905465Y-222163289D01*
X181886835Y-222400000D01*
X172500000Y-222400000D01*
X172500000Y-215032670D01*
X182532160Y-215032670D01*
X182537887Y-215040320D01*
X182709042Y-215145205D01*
X182717837Y-215149687D01*
X182927988Y-215236734D01*
X182937373Y-215239783D01*
X183158554Y-215292885D01*
X183168301Y-215294428D01*
X183395070Y-215312275D01*
X183404930Y-215312275D01*
X183631699Y-215294428D01*
X183641446Y-215292885D01*
X183862627Y-215239783D01*
X183872012Y-215236734D01*
X184082163Y-215149687D01*
X184090958Y-215145205D01*
X184258445Y-215042568D01*
X184267907Y-215032110D01*
X184264124Y-215023334D01*
X183412812Y-214172022D01*
X183398868Y-214164408D01*
X183397035Y-214164539D01*
X183390420Y-214168790D01*
X182538920Y-215020290D01*
X182532160Y-215032670D01*
X172500000Y-215032670D01*
X172500000Y-213804930D01*
X181887725Y-213804930D01*
X181905572Y-214031699D01*
X181907115Y-214041446D01*
X181960217Y-214262627D01*
X181963266Y-214272012D01*
X182050313Y-214482163D01*
X182054795Y-214490958D01*
X182157432Y-214658445D01*
X182167890Y-214667907D01*
X182176666Y-214664124D01*
X183027978Y-213812812D01*
X183034356Y-213801132D01*
X183764408Y-213801132D01*
X183764539Y-213802965D01*
X183768790Y-213809580D01*
X184620290Y-214661080D01*
X184632670Y-214667840D01*
X184640320Y-214662113D01*
X184745205Y-214490958D01*
X184749687Y-214482163D01*
X184836734Y-214272012D01*
X184839783Y-214262627D01*
X184892885Y-214041446D01*
X184894428Y-214031699D01*
X184912275Y-213804930D01*
X184912275Y-213795070D01*
X184894428Y-213568301D01*
X184892885Y-213558554D01*
X184839783Y-213337373D01*
X184836734Y-213327988D01*
X184749687Y-213117837D01*
X184745205Y-213109042D01*
X184642568Y-212941555D01*
X184632110Y-212932093D01*
X184623334Y-212935876D01*
X183772022Y-213787188D01*
X183764408Y-213801132D01*
X183034356Y-213801132D01*
X183035592Y-213798868D01*
X183035461Y-213797035D01*
X183031210Y-213790420D01*
X182179710Y-212938920D01*
X182167330Y-212932160D01*
X182159680Y-212937887D01*
X182054795Y-213109042D01*
X182050313Y-213117837D01*
X181963266Y-213327988D01*
X181960217Y-213337373D01*
X181907115Y-213558554D01*
X181905572Y-213568301D01*
X181887725Y-213795070D01*
X181887725Y-213804930D01*
X172500000Y-213804930D01*
X172500000Y-212567890D01*
X182532093Y-212567890D01*
X182535876Y-212576666D01*
X183387188Y-213427978D01*
X183401132Y-213435592D01*
X183402965Y-213435461D01*
X183409580Y-213431210D01*
X184261080Y-212579710D01*
X184267840Y-212567330D01*
X184262113Y-212559680D01*
X184090958Y-212454795D01*
X184082163Y-212450313D01*
X183872012Y-212363266D01*
X183862627Y-212360217D01*
X183641446Y-212307115D01*
X183631699Y-212305572D01*
X183404930Y-212287725D01*
X183395070Y-212287725D01*
X183168301Y-212305572D01*
X183158554Y-212307115D01*
X182937373Y-212360217D01*
X182927988Y-212363266D01*
X182717837Y-212450313D01*
X182709042Y-212454795D01*
X182541555Y-212557432D01*
X182532093Y-212567890D01*
X172500000Y-212567890D01*
X172500000Y-142500000D01*
X132500000Y-142500000D01*
X132500000Y-162540500D01*
X132479998Y-162608621D01*
X132426342Y-162655114D01*
X132374000Y-162666500D01*
X131532805Y-162666500D01*
X131465291Y-162646885D01*
X131442153Y-162632201D01*
X131334608Y-162563951D01*
X131174300Y-162506868D01*
X131005329Y-162486720D01*
X130998326Y-162487456D01*
X130998325Y-162487456D01*
X130843101Y-162503770D01*
X130843097Y-162503771D01*
X130836093Y-162504507D01*
X130829422Y-162506778D01*
X130681673Y-162557075D01*
X130681670Y-162557076D01*
X130675003Y-162559346D01*
X130669005Y-162563036D01*
X130669003Y-162563037D01*
X130536065Y-162644821D01*
X130536063Y-162644823D01*
X130530066Y-162648512D01*
X130408486Y-162767573D01*
X130404675Y-162773487D01*
X130404673Y-162773489D01*
X130320121Y-162904687D01*
X130316304Y-162910610D01*
X130258103Y-163070516D01*
X130236775Y-163239343D01*
X130253381Y-163408699D01*
X130255605Y-163415384D01*
X130255605Y-163415385D01*
X130266742Y-163448865D01*
X130307094Y-163570167D01*
X130310741Y-163576189D01*
X130310742Y-163576191D01*
X130358075Y-163654346D01*
X130395246Y-163715723D01*
X130513455Y-163838132D01*
X130582785Y-163883500D01*
X130609942Y-163901271D01*
X130655846Y-163931310D01*
X130662450Y-163933766D01*
X130662452Y-163933767D01*
X130725349Y-163957158D01*
X130815341Y-163990626D01*
X130822327Y-163991558D01*
X130829084Y-163993243D01*
X130890342Y-164029131D01*
X130922473Y-164092441D01*
X130915275Y-164163072D01*
X130871034Y-164218599D01*
X130798601Y-164241500D01*
X124687149Y-164241500D01*
X124619028Y-164221498D01*
X124580295Y-164182270D01*
X124538134Y-164114798D01*
X124498192Y-164050879D01*
X124476596Y-164029131D01*
X124395335Y-163947301D01*
X124378286Y-163930132D01*
X124362039Y-163919821D01*
X124304806Y-163883500D01*
X124234608Y-163838951D01*
X124074300Y-163781868D01*
X123905329Y-163761720D01*
X123898326Y-163762456D01*
X123898325Y-163762456D01*
X123743101Y-163778770D01*
X123743097Y-163778771D01*
X123736093Y-163779507D01*
X123729422Y-163781778D01*
X123581673Y-163832075D01*
X123581670Y-163832076D01*
X123575003Y-163834346D01*
X123569005Y-163838036D01*
X123569003Y-163838037D01*
X123436065Y-163919821D01*
X123436063Y-163919823D01*
X123430066Y-163923512D01*
X123308486Y-164042573D01*
X123304675Y-164048487D01*
X123304673Y-164048489D01*
X123230829Y-164163072D01*
X123216304Y-164185610D01*
X123197434Y-164237456D01*
X123163139Y-164331681D01*
X123158103Y-164345516D01*
X123136775Y-164514343D01*
X123153381Y-164683699D01*
X123207094Y-164845167D01*
X123295246Y-164990723D01*
X123413455Y-165113132D01*
X123419351Y-165116990D01*
X123543352Y-165198134D01*
X123555846Y-165206310D01*
X123562450Y-165208766D01*
X123562452Y-165208767D01*
X123624324Y-165231777D01*
X123715341Y-165265626D01*
X123718240Y-165266013D01*
X123772407Y-165295547D01*
X123807652Y-165328644D01*
X123810494Y-165331399D01*
X123830230Y-165351135D01*
X123833427Y-165353615D01*
X123842447Y-165361318D01*
X123874679Y-165391586D01*
X123881625Y-165395405D01*
X123881628Y-165395407D01*
X123892434Y-165401348D01*
X123908953Y-165412199D01*
X123924959Y-165424614D01*
X123932228Y-165427759D01*
X123932232Y-165427762D01*
X123965537Y-165442174D01*
X123976187Y-165447391D01*
X124014940Y-165468695D01*
X124022615Y-165470666D01*
X124022616Y-165470666D01*
X124034562Y-165473733D01*
X124053267Y-165480137D01*
X124071855Y-165488181D01*
X124079678Y-165489420D01*
X124079688Y-165489423D01*
X124115524Y-165495099D01*
X124127144Y-165497505D01*
X124162289Y-165506528D01*
X124169970Y-165508500D01*
X124190224Y-165508500D01*
X124209934Y-165510051D01*
X124229943Y-165513220D01*
X124237835Y-165512474D01*
X124273961Y-165509059D01*
X124285819Y-165508500D01*
X132374000Y-165508500D01*
X132442121Y-165528502D01*
X132488614Y-165582158D01*
X132500000Y-165634500D01*
X132500000Y-180009565D01*
X132479998Y-180077686D01*
X132426342Y-180124179D01*
X132414605Y-180128843D01*
X132325003Y-180159346D01*
X132324330Y-180157368D01*
X132283480Y-180166500D01*
X130051566Y-180166500D01*
X129983445Y-180146498D01*
X129944133Y-180106335D01*
X129826759Y-179914798D01*
X129826755Y-179914792D01*
X129824176Y-179910584D01*
X129669969Y-179730031D01*
X129489416Y-179575824D01*
X129485208Y-179573245D01*
X129485202Y-179573241D01*
X129291183Y-179454346D01*
X129286963Y-179451760D01*
X129282393Y-179449867D01*
X129282389Y-179449865D01*
X129072167Y-179362789D01*
X129072165Y-179362788D01*
X129067594Y-179360895D01*
X128980735Y-179340042D01*
X128841524Y-179306620D01*
X128841518Y-179306619D01*
X128836711Y-179305465D01*
X128600000Y-179286835D01*
X128363289Y-179305465D01*
X128358482Y-179306619D01*
X128358476Y-179306620D01*
X128219265Y-179340042D01*
X128132406Y-179360895D01*
X128127835Y-179362788D01*
X128127833Y-179362789D01*
X127917611Y-179449865D01*
X127917607Y-179449867D01*
X127913037Y-179451760D01*
X127908817Y-179454346D01*
X127714798Y-179573241D01*
X127714792Y-179573245D01*
X127710584Y-179575824D01*
X127530031Y-179730031D01*
X127375824Y-179910584D01*
X127373245Y-179914792D01*
X127373241Y-179914798D01*
X127267887Y-180086720D01*
X127251760Y-180113037D01*
X127249867Y-180117607D01*
X127249865Y-180117611D01*
X127189589Y-180263132D01*
X127160895Y-180332406D01*
X127105465Y-180563289D01*
X127086835Y-180800000D01*
X127105465Y-181036711D01*
X127106619Y-181041518D01*
X127106620Y-181041524D01*
X127113502Y-181070189D01*
X127160895Y-181267594D01*
X127162788Y-181272165D01*
X127162789Y-181272167D01*
X127238135Y-181454068D01*
X127251760Y-181486963D01*
X127254346Y-181491183D01*
X127373241Y-181685202D01*
X127373245Y-181685208D01*
X127375824Y-181689416D01*
X127530031Y-181869969D01*
X127710584Y-182024176D01*
X127714792Y-182026755D01*
X127714798Y-182026759D01*
X127881487Y-182128906D01*
X127913037Y-182148240D01*
X127917607Y-182150133D01*
X127917611Y-182150135D01*
X128127833Y-182237211D01*
X128132406Y-182239105D01*
X128212609Y-182258360D01*
X128358476Y-182293380D01*
X128358482Y-182293381D01*
X128363289Y-182294535D01*
X128600000Y-182313165D01*
X128836711Y-182294535D01*
X128841518Y-182293381D01*
X128841524Y-182293380D01*
X128987391Y-182258360D01*
X129067594Y-182239105D01*
X129072167Y-182237211D01*
X129282389Y-182150135D01*
X129282393Y-182150133D01*
X129286963Y-182148240D01*
X129318513Y-182128906D01*
X129485202Y-182026759D01*
X129485208Y-182026755D01*
X129489416Y-182024176D01*
X129669969Y-181869969D01*
X129824176Y-181689416D01*
X129826755Y-181685208D01*
X129826759Y-181685202D01*
X129944133Y-181493665D01*
X129996781Y-181446034D01*
X130051566Y-181433500D01*
X132118815Y-181433500D01*
X132187808Y-181454068D01*
X132305846Y-181531310D01*
X132417923Y-181572991D01*
X132474796Y-181615482D01*
X132499670Y-181681979D01*
X132500000Y-181691087D01*
X132500000Y-192374000D01*
X132479998Y-192442121D01*
X132426342Y-192488614D01*
X132374000Y-192500000D01*
X95126000Y-192500000D01*
X95057879Y-192479998D01*
X95011386Y-192426342D01*
X95000000Y-192374000D01*
X95000000Y-173432670D01*
X127732160Y-173432670D01*
X127737887Y-173440320D01*
X127909042Y-173545205D01*
X127917837Y-173549687D01*
X128127988Y-173636734D01*
X128137373Y-173639783D01*
X128358554Y-173692885D01*
X128368301Y-173694428D01*
X128595070Y-173712275D01*
X128604930Y-173712275D01*
X128831699Y-173694428D01*
X128841446Y-173692885D01*
X129062627Y-173639783D01*
X129072012Y-173636734D01*
X129282163Y-173549687D01*
X129290958Y-173545205D01*
X129458445Y-173442568D01*
X129467907Y-173432110D01*
X129464124Y-173423334D01*
X128612812Y-172572022D01*
X128598868Y-172564408D01*
X128597035Y-172564539D01*
X128590420Y-172568790D01*
X127738920Y-173420290D01*
X127732160Y-173432670D01*
X95000000Y-173432670D01*
X95000000Y-172204930D01*
X127087725Y-172204930D01*
X127105572Y-172431699D01*
X127107115Y-172441446D01*
X127160217Y-172662627D01*
X127163266Y-172672012D01*
X127250313Y-172882163D01*
X127254795Y-172890958D01*
X127357432Y-173058445D01*
X127367890Y-173067907D01*
X127376666Y-173064124D01*
X128227978Y-172212812D01*
X128234356Y-172201132D01*
X128964408Y-172201132D01*
X128964539Y-172202965D01*
X128968790Y-172209580D01*
X129820290Y-173061080D01*
X129832670Y-173067840D01*
X129840320Y-173062113D01*
X129945205Y-172890958D01*
X129949687Y-172882163D01*
X130036734Y-172672012D01*
X130039783Y-172662627D01*
X130092885Y-172441446D01*
X130094428Y-172431699D01*
X130112275Y-172204930D01*
X130112275Y-172195070D01*
X130094428Y-171968301D01*
X130092885Y-171958554D01*
X130039783Y-171737373D01*
X130036734Y-171727988D01*
X129949687Y-171517837D01*
X129945205Y-171509042D01*
X129842568Y-171341555D01*
X129832110Y-171332093D01*
X129823334Y-171335876D01*
X128972022Y-172187188D01*
X128964408Y-172201132D01*
X128234356Y-172201132D01*
X128235592Y-172198868D01*
X128235461Y-172197035D01*
X128231210Y-172190420D01*
X127379710Y-171338920D01*
X127367330Y-171332160D01*
X127359680Y-171337887D01*
X127254795Y-171509042D01*
X127250313Y-171517837D01*
X127163266Y-171727988D01*
X127160217Y-171737373D01*
X127107115Y-171958554D01*
X127105572Y-171968301D01*
X127087725Y-172195070D01*
X127087725Y-172204930D01*
X95000000Y-172204930D01*
X95000000Y-170967890D01*
X127732093Y-170967890D01*
X127735876Y-170976666D01*
X128587188Y-171827978D01*
X128601132Y-171835592D01*
X128602965Y-171835461D01*
X128609580Y-171831210D01*
X129461080Y-170979710D01*
X129467840Y-170967330D01*
X129462113Y-170959680D01*
X129290958Y-170854795D01*
X129282163Y-170850313D01*
X129072012Y-170763266D01*
X129062627Y-170760217D01*
X128841446Y-170707115D01*
X128831699Y-170705572D01*
X128604930Y-170687725D01*
X128595070Y-170687725D01*
X128368301Y-170705572D01*
X128358554Y-170707115D01*
X128137373Y-170760217D01*
X128127988Y-170763266D01*
X127917837Y-170850313D01*
X127909042Y-170854795D01*
X127741555Y-170957432D01*
X127732093Y-170967890D01*
X95000000Y-170967890D01*
X95000000Y-152500000D01*
X50000000Y-152500000D01*
X50000000Y-172374000D01*
X49979998Y-172442121D01*
X49926342Y-172488614D01*
X49874000Y-172500000D01*
X20634500Y-172500000D01*
X20566379Y-172479998D01*
X20519886Y-172426342D01*
X20508500Y-172374000D01*
X20508500Y-165000000D01*
X38486835Y-165000000D01*
X38505465Y-165236711D01*
X38506619Y-165241518D01*
X38506620Y-165241524D01*
X38532936Y-165351135D01*
X38560895Y-165467594D01*
X38562788Y-165472165D01*
X38562789Y-165472167D01*
X38647822Y-165677455D01*
X38651760Y-165686963D01*
X38654346Y-165691183D01*
X38773241Y-165885202D01*
X38773245Y-165885208D01*
X38775824Y-165889416D01*
X38930031Y-166069969D01*
X39110584Y-166224176D01*
X39114792Y-166226755D01*
X39114798Y-166226759D01*
X39308817Y-166345654D01*
X39313037Y-166348240D01*
X39317607Y-166350133D01*
X39317611Y-166350135D01*
X39527833Y-166437211D01*
X39532406Y-166439105D01*
X39612609Y-166458360D01*
X39758476Y-166493380D01*
X39758482Y-166493381D01*
X39763289Y-166494535D01*
X40000000Y-166513165D01*
X40236711Y-166494535D01*
X40241518Y-166493381D01*
X40241524Y-166493380D01*
X40387391Y-166458360D01*
X40467594Y-166439105D01*
X40472167Y-166437211D01*
X40682389Y-166350135D01*
X40682393Y-166350133D01*
X40686963Y-166348240D01*
X40691183Y-166345654D01*
X40885202Y-166226759D01*
X40885208Y-166226755D01*
X40889416Y-166224176D01*
X41069969Y-166069969D01*
X41224176Y-165889416D01*
X41226758Y-165885202D01*
X41226765Y-165885193D01*
X41335163Y-165708305D01*
X41387810Y-165660674D01*
X41457852Y-165649067D01*
X41511585Y-165668706D01*
X41530846Y-165681310D01*
X41537450Y-165683766D01*
X41537452Y-165683767D01*
X41573844Y-165697301D01*
X41690341Y-165740626D01*
X41859015Y-165763132D01*
X41866026Y-165762494D01*
X41866030Y-165762494D01*
X42021462Y-165748348D01*
X42028483Y-165747709D01*
X42035185Y-165745531D01*
X42035187Y-165745531D01*
X42183623Y-165697301D01*
X42183626Y-165697300D01*
X42190322Y-165695124D01*
X42336490Y-165607990D01*
X42341584Y-165603139D01*
X42341588Y-165603136D01*
X42435965Y-165513261D01*
X42459721Y-165490639D01*
X42470954Y-165473733D01*
X42506814Y-165419758D01*
X42553891Y-165348902D01*
X42614319Y-165189825D01*
X42638001Y-165021313D01*
X42638299Y-165000000D01*
X42619331Y-164830892D01*
X42563368Y-164670189D01*
X42554696Y-164656310D01*
X42508879Y-164582990D01*
X42473192Y-164525879D01*
X42461737Y-164514343D01*
X42358248Y-164410129D01*
X42353286Y-164405132D01*
X42209608Y-164313951D01*
X42049300Y-164256868D01*
X41880329Y-164236720D01*
X41873326Y-164237456D01*
X41873325Y-164237456D01*
X41718101Y-164253770D01*
X41718097Y-164253771D01*
X41711093Y-164254507D01*
X41550003Y-164309346D01*
X41509341Y-164334362D01*
X41440842Y-164353020D01*
X41373127Y-164331681D01*
X41335887Y-164292879D01*
X41313308Y-164256034D01*
X41224176Y-164110584D01*
X41069969Y-163930031D01*
X40889416Y-163775824D01*
X40885208Y-163773245D01*
X40885202Y-163773241D01*
X40691183Y-163654346D01*
X40686963Y-163651760D01*
X40682393Y-163649867D01*
X40682389Y-163649865D01*
X40472167Y-163562789D01*
X40472165Y-163562788D01*
X40467594Y-163560895D01*
X40324337Y-163526502D01*
X40241524Y-163506620D01*
X40241518Y-163506619D01*
X40236711Y-163505465D01*
X40000000Y-163486835D01*
X39763289Y-163505465D01*
X39758482Y-163506619D01*
X39758476Y-163506620D01*
X39675663Y-163526502D01*
X39532406Y-163560895D01*
X39527835Y-163562788D01*
X39527833Y-163562789D01*
X39317611Y-163649865D01*
X39317607Y-163649867D01*
X39313037Y-163651760D01*
X39308817Y-163654346D01*
X39114798Y-163773241D01*
X39114792Y-163773245D01*
X39110584Y-163775824D01*
X38930031Y-163930031D01*
X38775824Y-164110584D01*
X38773245Y-164114792D01*
X38773241Y-164114798D01*
X38654346Y-164308817D01*
X38651760Y-164313037D01*
X38649867Y-164317607D01*
X38649865Y-164317611D01*
X38562789Y-164527833D01*
X38560895Y-164532406D01*
X38548751Y-164582990D01*
X38511505Y-164738132D01*
X38505465Y-164763289D01*
X38486835Y-165000000D01*
X20508500Y-165000000D01*
X20508500Y-157632670D01*
X39132160Y-157632670D01*
X39137887Y-157640320D01*
X39309042Y-157745205D01*
X39317837Y-157749687D01*
X39527988Y-157836734D01*
X39537373Y-157839783D01*
X39758554Y-157892885D01*
X39768301Y-157894428D01*
X39995070Y-157912275D01*
X40004930Y-157912275D01*
X40231699Y-157894428D01*
X40241446Y-157892885D01*
X40462627Y-157839783D01*
X40472012Y-157836734D01*
X40682163Y-157749687D01*
X40690958Y-157745205D01*
X40858445Y-157642568D01*
X40867907Y-157632110D01*
X40864124Y-157623334D01*
X40012812Y-156772022D01*
X39998868Y-156764408D01*
X39997035Y-156764539D01*
X39990420Y-156768790D01*
X39138920Y-157620290D01*
X39132160Y-157632670D01*
X20508500Y-157632670D01*
X20508500Y-156404930D01*
X38487725Y-156404930D01*
X38505572Y-156631699D01*
X38507115Y-156641446D01*
X38560217Y-156862627D01*
X38563266Y-156872012D01*
X38650313Y-157082163D01*
X38654795Y-157090958D01*
X38757432Y-157258445D01*
X38767890Y-157267907D01*
X38776666Y-157264124D01*
X39627978Y-156412812D01*
X39634356Y-156401132D01*
X40364408Y-156401132D01*
X40364539Y-156402965D01*
X40368790Y-156409580D01*
X41220290Y-157261080D01*
X41232670Y-157267840D01*
X41240320Y-157262113D01*
X41345205Y-157090958D01*
X41349687Y-157082163D01*
X41436734Y-156872012D01*
X41439783Y-156862627D01*
X41492885Y-156641446D01*
X41494428Y-156631699D01*
X41512275Y-156404930D01*
X41512275Y-156395070D01*
X41494428Y-156168301D01*
X41492885Y-156158554D01*
X41439783Y-155937373D01*
X41436734Y-155927988D01*
X41349687Y-155717837D01*
X41345205Y-155709042D01*
X41242568Y-155541555D01*
X41232110Y-155532093D01*
X41223334Y-155535876D01*
X40372022Y-156387188D01*
X40364408Y-156401132D01*
X39634356Y-156401132D01*
X39635592Y-156398868D01*
X39635461Y-156397035D01*
X39631210Y-156390420D01*
X38779710Y-155538920D01*
X38767330Y-155532160D01*
X38759680Y-155537887D01*
X38654795Y-155709042D01*
X38650313Y-155717837D01*
X38563266Y-155927988D01*
X38560217Y-155937373D01*
X38507115Y-156158554D01*
X38505572Y-156168301D01*
X38487725Y-156395070D01*
X38487725Y-156404930D01*
X20508500Y-156404930D01*
X20508500Y-155167890D01*
X39132093Y-155167890D01*
X39135876Y-155176666D01*
X39987188Y-156027978D01*
X40001132Y-156035592D01*
X40002965Y-156035461D01*
X40009580Y-156031210D01*
X40861080Y-155179710D01*
X40867840Y-155167330D01*
X40862113Y-155159680D01*
X40690958Y-155054795D01*
X40682163Y-155050313D01*
X40472012Y-154963266D01*
X40462627Y-154960217D01*
X40241446Y-154907115D01*
X40231699Y-154905572D01*
X40004930Y-154887725D01*
X39995070Y-154887725D01*
X39768301Y-154905572D01*
X39758554Y-154907115D01*
X39537373Y-154960217D01*
X39527988Y-154963266D01*
X39317837Y-155050313D01*
X39309042Y-155054795D01*
X39141555Y-155157432D01*
X39132093Y-155167890D01*
X20508500Y-155167890D01*
X20508500Y-135000000D01*
X290386526Y-135000000D01*
X290406391Y-135252403D01*
X290465495Y-135498591D01*
X290562384Y-135732502D01*
X290694672Y-135948376D01*
X290859102Y-136140898D01*
X291051624Y-136305328D01*
X291267498Y-136437616D01*
X291272068Y-136439509D01*
X291272072Y-136439511D01*
X291496836Y-136532611D01*
X291501409Y-136534505D01*
X291586032Y-136554821D01*
X291742784Y-136592454D01*
X291742790Y-136592455D01*
X291747597Y-136593609D01*
X291847416Y-136601465D01*
X291934345Y-136608307D01*
X291934352Y-136608307D01*
X291936801Y-136608500D01*
X292063199Y-136608500D01*
X292065648Y-136608307D01*
X292065655Y-136608307D01*
X292152584Y-136601465D01*
X292252403Y-136593609D01*
X292257210Y-136592455D01*
X292257216Y-136592454D01*
X292413968Y-136554821D01*
X292498591Y-136534505D01*
X292503164Y-136532611D01*
X292727928Y-136439511D01*
X292727932Y-136439509D01*
X292732502Y-136437616D01*
X292948376Y-136305328D01*
X293140898Y-136140898D01*
X293305328Y-135948376D01*
X293437616Y-135732502D01*
X293534505Y-135498591D01*
X293593609Y-135252403D01*
X293613474Y-135000000D01*
X293593609Y-134747597D01*
X293534505Y-134501409D01*
X293437616Y-134267498D01*
X293305328Y-134051624D01*
X293140898Y-133859102D01*
X292948376Y-133694672D01*
X292732502Y-133562384D01*
X292727932Y-133560491D01*
X292727928Y-133560489D01*
X292503164Y-133467389D01*
X292503162Y-133467388D01*
X292498591Y-133465495D01*
X292413968Y-133445179D01*
X292257216Y-133407546D01*
X292257210Y-133407545D01*
X292252403Y-133406391D01*
X292152584Y-133398535D01*
X292065655Y-133391693D01*
X292065648Y-133391693D01*
X292063199Y-133391500D01*
X291936801Y-133391500D01*
X291934352Y-133391693D01*
X291934345Y-133391693D01*
X291847416Y-133398535D01*
X291747597Y-133406391D01*
X291742790Y-133407545D01*
X291742784Y-133407546D01*
X291586032Y-133445179D01*
X291501409Y-133465495D01*
X291496838Y-133467388D01*
X291496836Y-133467389D01*
X291272072Y-133560489D01*
X291272068Y-133560491D01*
X291267498Y-133562384D01*
X291051624Y-133694672D01*
X290859102Y-133859102D01*
X290694672Y-134051624D01*
X290562384Y-134267498D01*
X290465495Y-134501409D01*
X290406391Y-134747597D01*
X290386526Y-135000000D01*
X20508500Y-135000000D01*
X20508500Y-123989343D01*
X125486775Y-123989343D01*
X125503381Y-124158699D01*
X125557094Y-124320167D01*
X125560741Y-124326189D01*
X125560742Y-124326191D01*
X125574497Y-124348902D01*
X125645246Y-124465723D01*
X125763455Y-124588132D01*
X125905846Y-124681310D01*
X125912450Y-124683766D01*
X125912452Y-124683767D01*
X125948844Y-124697301D01*
X126065341Y-124740626D01*
X126234015Y-124763132D01*
X126241026Y-124762494D01*
X126241030Y-124762494D01*
X126396462Y-124748348D01*
X126403483Y-124747709D01*
X126410185Y-124745531D01*
X126410187Y-124745531D01*
X126558623Y-124697301D01*
X126558626Y-124697300D01*
X126565322Y-124695124D01*
X126711490Y-124607990D01*
X126716584Y-124603139D01*
X126716588Y-124603136D01*
X126783833Y-124539099D01*
X126834721Y-124490639D01*
X126928891Y-124348902D01*
X126989319Y-124189825D01*
X126994668Y-124151762D01*
X127023955Y-124087088D01*
X127030347Y-124080202D01*
X129576621Y-121533928D01*
X129640382Y-121499596D01*
X129646463Y-121498348D01*
X129653483Y-121497709D01*
X129678747Y-121489500D01*
X129808623Y-121447301D01*
X129808626Y-121447300D01*
X129815322Y-121445124D01*
X129961490Y-121357990D01*
X129966584Y-121353139D01*
X129966588Y-121353136D01*
X130033833Y-121289099D01*
X130084721Y-121240639D01*
X130178891Y-121098902D01*
X130239319Y-120939825D01*
X130263001Y-120771313D01*
X130263299Y-120750000D01*
X130244331Y-120580892D01*
X130188368Y-120420189D01*
X130182383Y-120410610D01*
X130160420Y-120375464D01*
X130098192Y-120275879D01*
X129978286Y-120155132D01*
X129962039Y-120144821D01*
X129923406Y-120120304D01*
X129834608Y-120063951D01*
X129674300Y-120006868D01*
X129505329Y-119986720D01*
X129498326Y-119987456D01*
X129498325Y-119987456D01*
X129343101Y-120003770D01*
X129343097Y-120003771D01*
X129336093Y-120004507D01*
X129329422Y-120006778D01*
X129181673Y-120057075D01*
X129181670Y-120057076D01*
X129175003Y-120059346D01*
X129169005Y-120063036D01*
X129169003Y-120063037D01*
X129036065Y-120144821D01*
X129036063Y-120144823D01*
X129030066Y-120148512D01*
X128908486Y-120267573D01*
X128816304Y-120410610D01*
X128758103Y-120570516D01*
X128754713Y-120597348D01*
X128726333Y-120662421D01*
X128718803Y-120670648D01*
X126172233Y-123217218D01*
X126109921Y-123251244D01*
X126096313Y-123253432D01*
X126093107Y-123253769D01*
X126093100Y-123253771D01*
X126086093Y-123254507D01*
X126079422Y-123256778D01*
X125931673Y-123307075D01*
X125931670Y-123307076D01*
X125925003Y-123309346D01*
X125919005Y-123313036D01*
X125919003Y-123313037D01*
X125786065Y-123394821D01*
X125786063Y-123394823D01*
X125780066Y-123398512D01*
X125658486Y-123517573D01*
X125566304Y-123660610D01*
X125508103Y-123820516D01*
X125486775Y-123989343D01*
X20508500Y-123989343D01*
X20508500Y-74839343D01*
X151136775Y-74839343D01*
X151153381Y-75008699D01*
X151207094Y-75170167D01*
X151210741Y-75176189D01*
X151210742Y-75176191D01*
X151268868Y-75272167D01*
X151295246Y-75315723D01*
X151413455Y-75438132D01*
X151555846Y-75531310D01*
X151562450Y-75533766D01*
X151562452Y-75533767D01*
X151598844Y-75547301D01*
X151715341Y-75590626D01*
X151884015Y-75613132D01*
X151891026Y-75612494D01*
X151891030Y-75612494D01*
X152046462Y-75598348D01*
X152053483Y-75597709D01*
X152060185Y-75595531D01*
X152060187Y-75595531D01*
X152208623Y-75547301D01*
X152208626Y-75547300D01*
X152215322Y-75545124D01*
X152301645Y-75493665D01*
X152355443Y-75461595D01*
X152355445Y-75461594D01*
X152361490Y-75457990D01*
X152361528Y-75458054D01*
X152425034Y-75433884D01*
X152434860Y-75433500D01*
X153948434Y-75433500D01*
X154016555Y-75453502D01*
X154055867Y-75493665D01*
X154173241Y-75685202D01*
X154173245Y-75685208D01*
X154175824Y-75689416D01*
X154330031Y-75869969D01*
X154510584Y-76024176D01*
X154514792Y-76026755D01*
X154514798Y-76026759D01*
X154708817Y-76145654D01*
X154713037Y-76148240D01*
X154717607Y-76150133D01*
X154717611Y-76150135D01*
X154927833Y-76237211D01*
X154932406Y-76239105D01*
X155012609Y-76258360D01*
X155158476Y-76293380D01*
X155158482Y-76293381D01*
X155163289Y-76294535D01*
X155400000Y-76313165D01*
X155636711Y-76294535D01*
X155641518Y-76293381D01*
X155641524Y-76293380D01*
X155787391Y-76258360D01*
X155867594Y-76239105D01*
X155872167Y-76237211D01*
X156082389Y-76150135D01*
X156082393Y-76150133D01*
X156086963Y-76148240D01*
X156091183Y-76145654D01*
X156285202Y-76026759D01*
X156285208Y-76026755D01*
X156289416Y-76024176D01*
X156469969Y-75869969D01*
X156624176Y-75689416D01*
X156626755Y-75685208D01*
X156626759Y-75685202D01*
X156745654Y-75491183D01*
X156748240Y-75486963D01*
X156760152Y-75458206D01*
X156837211Y-75272167D01*
X156837212Y-75272165D01*
X156839105Y-75267594D01*
X156894535Y-75036711D01*
X156913165Y-74800000D01*
X156894535Y-74563289D01*
X156839105Y-74332406D01*
X156804355Y-74248512D01*
X156750135Y-74117611D01*
X156750133Y-74117607D01*
X156748240Y-74113037D01*
X156732113Y-74086720D01*
X156626759Y-73914798D01*
X156626755Y-73914792D01*
X156624176Y-73910584D01*
X156469969Y-73730031D01*
X156289416Y-73575824D01*
X156285208Y-73573245D01*
X156285202Y-73573241D01*
X156091183Y-73454346D01*
X156086963Y-73451760D01*
X156082393Y-73449867D01*
X156082389Y-73449865D01*
X155872167Y-73362789D01*
X155872165Y-73362788D01*
X155867594Y-73360895D01*
X155787391Y-73341640D01*
X155641524Y-73306620D01*
X155641518Y-73306619D01*
X155636711Y-73305465D01*
X155400000Y-73286835D01*
X155163289Y-73305465D01*
X155158482Y-73306619D01*
X155158476Y-73306620D01*
X155012609Y-73341640D01*
X154932406Y-73360895D01*
X154927835Y-73362788D01*
X154927833Y-73362789D01*
X154717611Y-73449865D01*
X154717607Y-73449867D01*
X154713037Y-73451760D01*
X154708817Y-73454346D01*
X154514798Y-73573241D01*
X154514792Y-73573245D01*
X154510584Y-73575824D01*
X154330031Y-73730031D01*
X154175824Y-73910584D01*
X154173245Y-73914792D01*
X154173241Y-73914798D01*
X154055867Y-74106335D01*
X154003219Y-74153966D01*
X153948434Y-74166500D01*
X152263530Y-74166500D01*
X152221263Y-74159199D01*
X152191167Y-74148482D01*
X152074300Y-74106868D01*
X151905329Y-74086720D01*
X151898326Y-74087456D01*
X151898325Y-74087456D01*
X151743101Y-74103770D01*
X151743097Y-74103771D01*
X151736093Y-74104507D01*
X151729422Y-74106778D01*
X151581673Y-74157075D01*
X151581670Y-74157076D01*
X151575003Y-74159346D01*
X151569005Y-74163036D01*
X151569003Y-74163037D01*
X151436065Y-74244821D01*
X151436063Y-74244823D01*
X151430066Y-74248512D01*
X151308486Y-74367573D01*
X151216304Y-74510610D01*
X151158103Y-74670516D01*
X151136775Y-74839343D01*
X20508500Y-74839343D01*
X20508500Y-67432670D01*
X154532160Y-67432670D01*
X154537887Y-67440320D01*
X154709042Y-67545205D01*
X154717837Y-67549687D01*
X154927988Y-67636734D01*
X154937373Y-67639783D01*
X155158554Y-67692885D01*
X155168301Y-67694428D01*
X155395070Y-67712275D01*
X155404930Y-67712275D01*
X155631699Y-67694428D01*
X155641446Y-67692885D01*
X155862627Y-67639783D01*
X155872012Y-67636734D01*
X156082163Y-67549687D01*
X156090958Y-67545205D01*
X156258445Y-67442568D01*
X156267907Y-67432110D01*
X156264124Y-67423334D01*
X155412812Y-66572022D01*
X155398868Y-66564408D01*
X155397035Y-66564539D01*
X155390420Y-66568790D01*
X154538920Y-67420290D01*
X154532160Y-67432670D01*
X20508500Y-67432670D01*
X20508500Y-66204930D01*
X153887725Y-66204930D01*
X153905572Y-66431699D01*
X153907115Y-66441446D01*
X153960217Y-66662627D01*
X153963266Y-66672012D01*
X154050313Y-66882163D01*
X154054795Y-66890958D01*
X154157432Y-67058445D01*
X154167890Y-67067907D01*
X154176666Y-67064124D01*
X155027978Y-66212812D01*
X155034356Y-66201132D01*
X155764408Y-66201132D01*
X155764539Y-66202965D01*
X155768790Y-66209580D01*
X156620290Y-67061080D01*
X156632670Y-67067840D01*
X156640320Y-67062113D01*
X156745205Y-66890958D01*
X156749687Y-66882163D01*
X156836734Y-66672012D01*
X156839783Y-66662627D01*
X156892885Y-66441446D01*
X156894428Y-66431699D01*
X156912275Y-66204930D01*
X156912275Y-66195070D01*
X156894428Y-65968301D01*
X156892885Y-65958554D01*
X156839783Y-65737373D01*
X156836734Y-65727988D01*
X156749687Y-65517837D01*
X156745205Y-65509042D01*
X156642568Y-65341555D01*
X156632110Y-65332093D01*
X156623334Y-65335876D01*
X155772022Y-66187188D01*
X155764408Y-66201132D01*
X155034356Y-66201132D01*
X155035592Y-66198868D01*
X155035461Y-66197035D01*
X155031210Y-66190420D01*
X154179710Y-65338920D01*
X154167330Y-65332160D01*
X154159680Y-65337887D01*
X154054795Y-65509042D01*
X154050313Y-65517837D01*
X153963266Y-65727988D01*
X153960217Y-65737373D01*
X153907115Y-65958554D01*
X153905572Y-65968301D01*
X153887725Y-66195070D01*
X153887725Y-66204930D01*
X20508500Y-66204930D01*
X20508500Y-64967890D01*
X154532093Y-64967890D01*
X154535876Y-64976666D01*
X155387188Y-65827978D01*
X155401132Y-65835592D01*
X155402965Y-65835461D01*
X155409580Y-65831210D01*
X156261080Y-64979710D01*
X156267840Y-64967330D01*
X156262113Y-64959680D01*
X156090958Y-64854795D01*
X156082163Y-64850313D01*
X155872012Y-64763266D01*
X155862627Y-64760217D01*
X155641446Y-64707115D01*
X155631699Y-64705572D01*
X155404930Y-64687725D01*
X155395070Y-64687725D01*
X155168301Y-64705572D01*
X155158554Y-64707115D01*
X154937373Y-64760217D01*
X154927988Y-64763266D01*
X154717837Y-64850313D01*
X154709042Y-64854795D01*
X154541555Y-64957432D01*
X154532093Y-64967890D01*
X20508500Y-64967890D01*
X20508500Y-23000000D01*
X21386526Y-23000000D01*
X21406391Y-23252403D01*
X21407545Y-23257210D01*
X21407546Y-23257216D01*
X21410015Y-23267498D01*
X21465495Y-23498591D01*
X21562384Y-23732502D01*
X21694672Y-23948376D01*
X21859102Y-24140898D01*
X22051624Y-24305328D01*
X22267498Y-24437616D01*
X22272068Y-24439509D01*
X22272072Y-24439511D01*
X22496836Y-24532611D01*
X22501409Y-24534505D01*
X22586032Y-24554821D01*
X22742784Y-24592454D01*
X22742790Y-24592455D01*
X22747597Y-24593609D01*
X22847416Y-24601465D01*
X22934345Y-24608307D01*
X22934352Y-24608307D01*
X22936801Y-24608500D01*
X23063199Y-24608500D01*
X23065648Y-24608307D01*
X23065655Y-24608307D01*
X23152584Y-24601465D01*
X23252403Y-24593609D01*
X23257210Y-24592455D01*
X23257216Y-24592454D01*
X23413968Y-24554821D01*
X23498591Y-24534505D01*
X23503164Y-24532611D01*
X23727928Y-24439511D01*
X23727932Y-24439509D01*
X23732502Y-24437616D01*
X23948376Y-24305328D01*
X24140898Y-24140898D01*
X24305328Y-23948376D01*
X24437616Y-23732502D01*
X24534505Y-23498591D01*
X24589985Y-23267498D01*
X24592454Y-23257216D01*
X24592455Y-23257210D01*
X24593609Y-23252403D01*
X24613474Y-23000000D01*
X133386526Y-23000000D01*
X133406391Y-23252403D01*
X133407545Y-23257210D01*
X133407546Y-23257216D01*
X133410015Y-23267498D01*
X133465495Y-23498591D01*
X133562384Y-23732502D01*
X133694672Y-23948376D01*
X133859102Y-24140898D01*
X134051624Y-24305328D01*
X134267498Y-24437616D01*
X134272068Y-24439509D01*
X134272072Y-24439511D01*
X134496836Y-24532611D01*
X134501409Y-24534505D01*
X134586032Y-24554821D01*
X134742784Y-24592454D01*
X134742790Y-24592455D01*
X134747597Y-24593609D01*
X134847416Y-24601465D01*
X134934345Y-24608307D01*
X134934352Y-24608307D01*
X134936801Y-24608500D01*
X135063199Y-24608500D01*
X135065648Y-24608307D01*
X135065655Y-24608307D01*
X135152584Y-24601465D01*
X135252403Y-24593609D01*
X135257210Y-24592455D01*
X135257216Y-24592454D01*
X135413968Y-24554821D01*
X135498591Y-24534505D01*
X135503164Y-24532611D01*
X135727928Y-24439511D01*
X135727932Y-24439509D01*
X135732502Y-24437616D01*
X135948376Y-24305328D01*
X136140898Y-24140898D01*
X136261237Y-24000000D01*
X289386526Y-24000000D01*
X289406391Y-24252403D01*
X289465495Y-24498591D01*
X289467388Y-24503162D01*
X289467389Y-24503164D01*
X289511021Y-24608500D01*
X289562384Y-24732502D01*
X289694672Y-24948376D01*
X289859102Y-25140898D01*
X290051624Y-25305328D01*
X290267498Y-25437616D01*
X290272068Y-25439509D01*
X290272072Y-25439511D01*
X290496836Y-25532611D01*
X290501409Y-25534505D01*
X290586032Y-25554821D01*
X290742784Y-25592454D01*
X290742790Y-25592455D01*
X290747597Y-25593609D01*
X290847416Y-25601465D01*
X290934345Y-25608307D01*
X290934352Y-25608307D01*
X290936801Y-25608500D01*
X291063199Y-25608500D01*
X291065648Y-25608307D01*
X291065655Y-25608307D01*
X291152584Y-25601465D01*
X291252403Y-25593609D01*
X291257210Y-25592455D01*
X291257216Y-25592454D01*
X291413968Y-25554821D01*
X291498591Y-25534505D01*
X291503164Y-25532611D01*
X291727928Y-25439511D01*
X291727932Y-25439509D01*
X291732502Y-25437616D01*
X291948376Y-25305328D01*
X292140898Y-25140898D01*
X292305328Y-24948376D01*
X292437616Y-24732502D01*
X292488980Y-24608500D01*
X292532611Y-24503164D01*
X292532612Y-24503162D01*
X292534505Y-24498591D01*
X292593609Y-24252403D01*
X292613474Y-24000000D01*
X292593609Y-23747597D01*
X292590999Y-23736722D01*
X292535660Y-23506221D01*
X292534505Y-23501409D01*
X292437616Y-23267498D01*
X292305328Y-23051624D01*
X292140898Y-22859102D01*
X291948376Y-22694672D01*
X291732502Y-22562384D01*
X291727932Y-22560491D01*
X291727928Y-22560489D01*
X291503164Y-22467389D01*
X291503162Y-22467388D01*
X291498591Y-22465495D01*
X291413968Y-22445179D01*
X291257216Y-22407546D01*
X291257210Y-22407545D01*
X291252403Y-22406391D01*
X291152584Y-22398535D01*
X291065655Y-22391693D01*
X291065648Y-22391693D01*
X291063199Y-22391500D01*
X290936801Y-22391500D01*
X290934352Y-22391693D01*
X290934345Y-22391693D01*
X290847416Y-22398535D01*
X290747597Y-22406391D01*
X290742790Y-22407545D01*
X290742784Y-22407546D01*
X290586032Y-22445179D01*
X290501409Y-22465495D01*
X290496838Y-22467388D01*
X290496836Y-22467389D01*
X290272072Y-22560489D01*
X290272068Y-22560491D01*
X290267498Y-22562384D01*
X290051624Y-22694672D01*
X289859102Y-22859102D01*
X289694672Y-23051624D01*
X289562384Y-23267498D01*
X289465495Y-23501409D01*
X289464340Y-23506221D01*
X289409002Y-23736722D01*
X289406391Y-23747597D01*
X289386526Y-24000000D01*
X136261237Y-24000000D01*
X136305328Y-23948376D01*
X136437616Y-23732502D01*
X136534505Y-23498591D01*
X136589985Y-23267498D01*
X136592454Y-23257216D01*
X136592455Y-23257210D01*
X136593609Y-23252403D01*
X136613474Y-23000000D01*
X136593609Y-22747597D01*
X136534505Y-22501409D01*
X136532611Y-22496836D01*
X136439511Y-22272072D01*
X136439509Y-22272068D01*
X136437616Y-22267498D01*
X136305328Y-22051624D01*
X136140898Y-21859102D01*
X135948376Y-21694672D01*
X135732502Y-21562384D01*
X135727932Y-21560491D01*
X135727928Y-21560489D01*
X135503164Y-21467389D01*
X135503162Y-21467388D01*
X135498591Y-21465495D01*
X135413968Y-21445179D01*
X135257216Y-21407546D01*
X135257210Y-21407545D01*
X135252403Y-21406391D01*
X135152584Y-21398535D01*
X135065655Y-21391693D01*
X135065648Y-21391693D01*
X135063199Y-21391500D01*
X134936801Y-21391500D01*
X134934352Y-21391693D01*
X134934345Y-21391693D01*
X134847416Y-21398535D01*
X134747597Y-21406391D01*
X134742790Y-21407545D01*
X134742784Y-21407546D01*
X134586032Y-21445179D01*
X134501409Y-21465495D01*
X134496838Y-21467388D01*
X134496836Y-21467389D01*
X134272072Y-21560489D01*
X134272068Y-21560491D01*
X134267498Y-21562384D01*
X134051624Y-21694672D01*
X133859102Y-21859102D01*
X133694672Y-22051624D01*
X133562384Y-22267498D01*
X133560491Y-22272068D01*
X133560489Y-22272072D01*
X133467389Y-22496836D01*
X133465495Y-22501409D01*
X133406391Y-22747597D01*
X133386526Y-23000000D01*
X24613474Y-23000000D01*
X24593609Y-22747597D01*
X24534505Y-22501409D01*
X24532611Y-22496836D01*
X24439511Y-22272072D01*
X24439509Y-22272068D01*
X24437616Y-22267498D01*
X24305328Y-22051624D01*
X24140898Y-21859102D01*
X23948376Y-21694672D01*
X23732502Y-21562384D01*
X23727932Y-21560491D01*
X23727928Y-21560489D01*
X23503164Y-21467389D01*
X23503162Y-21467388D01*
X23498591Y-21465495D01*
X23413968Y-21445179D01*
X23257216Y-21407546D01*
X23257210Y-21407545D01*
X23252403Y-21406391D01*
X23152584Y-21398535D01*
X23065655Y-21391693D01*
X23065648Y-21391693D01*
X23063199Y-21391500D01*
X22936801Y-21391500D01*
X22934352Y-21391693D01*
X22934345Y-21391693D01*
X22847416Y-21398535D01*
X22747597Y-21406391D01*
X22742790Y-21407545D01*
X22742784Y-21407546D01*
X22586032Y-21445179D01*
X22501409Y-21465495D01*
X22496838Y-21467388D01*
X22496836Y-21467389D01*
X22272072Y-21560489D01*
X22272068Y-21560491D01*
X22267498Y-21562384D01*
X22051624Y-21694672D01*
X21859102Y-21859102D01*
X21694672Y-22051624D01*
X21562384Y-22267498D01*
X21560491Y-22272068D01*
X21560489Y-22272072D01*
X21467389Y-22496836D01*
X21465495Y-22501409D01*
X21406391Y-22747597D01*
X21386526Y-23000000D01*
X20508500Y-23000000D01*
X20508500Y-20634500D01*
X20528502Y-20566379D01*
X20582158Y-20519886D01*
X20634500Y-20508500D01*
X289950633Y-20508500D01*
X289970018Y-20510000D01*
G37*
%TD.AperFunction*%
M02*
