M48
; DRILL file {KiCad (6.0.4)} date Thu May 26 23:52:52 2022
; FORMAT={-:-/ absolute / metric / decimal}
; #@! TF.CreationDate,2022-05-26T23:52:52-07:00
; #@! TF.GenerationSoftware,Kicad,Pcbnew,(6.0.4)
; #@! TF.FileFunction,Plated,1,2,PTH
FMAT,2
METRIC
; #@! TA.AperFunction,Plated,PTH,ViaDrill
T1C0.300
; #@! TA.AperFunction,Plated,PTH,ComponentDrill
T2C0.600
%
G90
G05
T1
X24.275Y-181.4
X25.875Y-178.85
X25.875Y-180.25
X29.25Y-182.825
X29.821Y-174.273
X30.325Y-174.75
X30.325Y-178.95
X33.0Y-176.75
X33.0Y-179.5
X41.875Y-165.0
X48.725Y-107.925
X51.0Y-174.0
X53.475Y-169.325
X57.6Y-163.975
X59.525Y-169.825
X63.55Y-112.5
X64.25Y-126.0
X84.525Y-238.165
X107.75Y-222.25
X110.0Y-224.5
X123.9Y-164.525
X126.25Y-124.0
X129.5Y-120.75
X131.0Y-163.25
X132.65Y-180.85
X136.85Y-163.275
X140.95Y-160.0
X147.5Y-199.25
X151.9Y-74.85
X152.25Y-199.25
X157.8Y-214.175
X160.375Y-215.1
X160.5Y-213.6
X186.175Y-222.475
T2
X22.02Y-175.68G85X22.62Y-175.68
G05
X22.02Y-184.32G85X22.62Y-184.32
G05
X25.95Y-175.68G85X27.05Y-175.68
G05
X25.95Y-184.32G85X27.05Y-184.32
G05
T0
M30
