%TF.GenerationSoftware,KiCad,Pcbnew,(6.0.4)*%
%TF.CreationDate,2022-05-26T23:52:49-07:00*%
%TF.ProjectId,top_R,746f705f-522e-46b6-9963-61645f706362,rev?*%
%TF.SameCoordinates,Original*%
%TF.FileFunction,Legend,Bot*%
%TF.FilePolarity,Positive*%
%FSLAX46Y46*%
G04 Gerber Fmt 4.6, Leading zero omitted, Abs format (unit mm)*
G04 Created by KiCad (PCBNEW (6.0.4)) date 2022-05-26 23:52:49*
%MOMM*%
%LPD*%
G01*
G04 APERTURE LIST*
G04 Aperture macros list*
%AMRoundRect*
0 Rectangle with rounded corners*
0 $1 Rounding radius*
0 $2 $3 $4 $5 $6 $7 $8 $9 X,Y pos of 4 corners*
0 Add a 4 corners polygon primitive as box body*
4,1,4,$2,$3,$4,$5,$6,$7,$8,$9,$2,$3,0*
0 Add four circle primitives for the rounded corners*
1,1,$1+$1,$2,$3*
1,1,$1+$1,$4,$5*
1,1,$1+$1,$6,$7*
1,1,$1+$1,$8,$9*
0 Add four rect primitives between the rounded corners*
20,1,$1+$1,$2,$3,$4,$5,0*
20,1,$1+$1,$4,$5,$6,$7,0*
20,1,$1+$1,$6,$7,$8,$9,0*
20,1,$1+$1,$8,$9,$2,$3,0*%
G04 Aperture macros list end*
%ADD10C,0.150000*%
%ADD11C,0.062500*%
%ADD12C,0.120000*%
%ADD13C,0.010000*%
%ADD14C,2.200000*%
%ADD15RoundRect,0.200000X-0.200000X-0.275000X0.200000X-0.275000X0.200000X0.275000X-0.200000X0.275000X0*%
%ADD16RoundRect,0.250000X0.250000X0.475000X-0.250000X0.475000X-0.250000X-0.475000X0.250000X-0.475000X0*%
%ADD17RoundRect,0.200000X0.275000X-0.200000X0.275000X0.200000X-0.275000X0.200000X-0.275000X-0.200000X0*%
%ADD18RoundRect,0.200000X0.200000X0.275000X-0.200000X0.275000X-0.200000X-0.275000X0.200000X-0.275000X0*%
%ADD19RoundRect,0.250000X-0.250000X-0.475000X0.250000X-0.475000X0.250000X0.475000X-0.250000X0.475000X0*%
%ADD20R,0.400000X1.825000*%
%ADD21R,1.200000X1.200000*%
%ADD22R,1.500000X1.200000*%
%ADD23R,0.400000X2.012500*%
%ADD24RoundRect,0.200000X-0.275000X0.200000X-0.275000X-0.200000X0.275000X-0.200000X0.275000X0.200000X0*%
%ADD25RoundRect,0.150000X0.875000X0.150000X-0.875000X0.150000X-0.875000X-0.150000X0.875000X-0.150000X0*%
%ADD26RoundRect,0.150000X0.150000X-0.512500X0.150000X0.512500X-0.150000X0.512500X-0.150000X-0.512500X0*%
%ADD27C,0.650000*%
%ADD28R,1.450000X0.600000*%
%ADD29R,1.450000X0.300000*%
%ADD30O,1.600000X1.000000*%
%ADD31O,2.100000X1.000000*%
%ADD32RoundRect,0.250000X0.475000X-0.250000X0.475000X0.250000X-0.475000X0.250000X-0.475000X-0.250000X0*%
%ADD33R,1.200000X0.900000*%
G04 APERTURE END LIST*
D10*
X27880952Y-23047619D02*
X27880952Y-22333333D01*
X27833333Y-22190476D01*
X27738095Y-22095238D01*
X27595238Y-22047619D01*
X27500000Y-22047619D01*
X28833333Y-22047619D02*
X28357142Y-22047619D01*
X28357142Y-23047619D01*
X29738095Y-22142857D02*
X29690476Y-22095238D01*
X29547619Y-22047619D01*
X29452380Y-22047619D01*
X29309523Y-22095238D01*
X29214285Y-22190476D01*
X29166666Y-22285714D01*
X29119047Y-22476190D01*
X29119047Y-22619047D01*
X29166666Y-22809523D01*
X29214285Y-22904761D01*
X29309523Y-23000000D01*
X29452380Y-23047619D01*
X29547619Y-23047619D01*
X29690476Y-23000000D01*
X29738095Y-22952380D01*
X30452380Y-23047619D02*
X30452380Y-22333333D01*
X30404761Y-22190476D01*
X30309523Y-22095238D01*
X30166666Y-22047619D01*
X30071428Y-22047619D01*
X31404761Y-22047619D02*
X30928571Y-22047619D01*
X30928571Y-23047619D01*
X32309523Y-22142857D02*
X32261904Y-22095238D01*
X32119047Y-22047619D01*
X32023809Y-22047619D01*
X31880952Y-22095238D01*
X31785714Y-22190476D01*
X31738095Y-22285714D01*
X31690476Y-22476190D01*
X31690476Y-22619047D01*
X31738095Y-22809523D01*
X31785714Y-22904761D01*
X31880952Y-23000000D01*
X32023809Y-23047619D01*
X32119047Y-23047619D01*
X32261904Y-23000000D01*
X32309523Y-22952380D01*
X33023809Y-23047619D02*
X33023809Y-22333333D01*
X32976190Y-22190476D01*
X32880952Y-22095238D01*
X32738095Y-22047619D01*
X32642857Y-22047619D01*
X33976190Y-22047619D02*
X33500000Y-22047619D01*
X33500000Y-23047619D01*
X34880952Y-22142857D02*
X34833333Y-22095238D01*
X34690476Y-22047619D01*
X34595238Y-22047619D01*
X34452380Y-22095238D01*
X34357142Y-22190476D01*
X34309523Y-22285714D01*
X34261904Y-22476190D01*
X34261904Y-22619047D01*
X34309523Y-22809523D01*
X34357142Y-22904761D01*
X34452380Y-23000000D01*
X34595238Y-23047619D01*
X34690476Y-23047619D01*
X34833333Y-23000000D01*
X34880952Y-22952380D01*
X35595238Y-23047619D02*
X35595238Y-22333333D01*
X35547619Y-22190476D01*
X35452380Y-22095238D01*
X35309523Y-22047619D01*
X35214285Y-22047619D01*
X36547619Y-22047619D02*
X36071428Y-22047619D01*
X36071428Y-23047619D01*
X37452380Y-22142857D02*
X37404761Y-22095238D01*
X37261904Y-22047619D01*
X37166666Y-22047619D01*
X37023809Y-22095238D01*
X36928571Y-22190476D01*
X36880952Y-22285714D01*
X36833333Y-22476190D01*
X36833333Y-22619047D01*
X36880952Y-22809523D01*
X36928571Y-22904761D01*
X37023809Y-23000000D01*
X37166666Y-23047619D01*
X37261904Y-23047619D01*
X37404761Y-23000000D01*
X37452380Y-22952380D01*
X69000000Y-170600000D02*
G75*
G03*
X69000000Y-170600000I-1500000J0D01*
G01*
X116050000Y-243800000D02*
X99550000Y-243800000D01*
X101400000Y-208200000D02*
G75*
G03*
X101400000Y-208200000I-1500000J0D01*
G01*
X101400000Y-222600000D02*
G75*
G03*
X101400000Y-222600000I-1500000J0D01*
G01*
X21050000Y-206050000D02*
X27800000Y-206050000D01*
X26200000Y-206050000D02*
X26200000Y-189550000D01*
X41708831Y-231691169D02*
G75*
G03*
X41708831Y-231691169I-1500000J0D01*
G01*
X21050000Y-189550000D02*
X21050000Y-206050000D01*
X156500000Y-33700000D02*
G75*
G03*
X156500000Y-33700000I-1500000J0D01*
G01*
X51891169Y-221508831D02*
G75*
G03*
X51891169Y-221508831I-1500000J0D01*
G01*
X63900000Y-243500000D02*
G75*
G03*
X63900000Y-243500000I-1500000J0D01*
G01*
X102600000Y-140000000D02*
G75*
G03*
X102600000Y-140000000I-1500000J0D01*
G01*
X27800000Y-206050000D02*
X27800000Y-189550000D01*
X116050000Y-242200000D02*
X99550000Y-242200000D01*
X69000000Y-185000000D02*
G75*
G03*
X69000000Y-185000000I-1500000J0D01*
G01*
X142100000Y-33700000D02*
G75*
G03*
X142100000Y-33700000I-1500000J0D01*
G01*
X49500000Y-243500000D02*
G75*
G03*
X49500000Y-243500000I-1500000J0D01*
G01*
X102600000Y-125600000D02*
G75*
G03*
X102600000Y-125600000I-1500000J0D01*
G01*
X21050000Y-189550000D02*
X27800000Y-189550000D01*
X99550000Y-248950000D02*
X116050000Y-248950000D01*
X116050000Y-248950000D02*
X116050000Y-242200000D01*
X99550000Y-248950000D02*
X99550000Y-242200000D01*
X27512619Y-204085714D02*
X26703095Y-204085714D01*
X26607857Y-204038095D01*
X26560238Y-203990476D01*
X26512619Y-203895238D01*
X26512619Y-203704761D01*
X26560238Y-203609523D01*
X26607857Y-203561904D01*
X26703095Y-203514285D01*
X27512619Y-203514285D01*
X26560238Y-203085714D02*
X26512619Y-202942857D01*
X26512619Y-202704761D01*
X26560238Y-202609523D01*
X26607857Y-202561904D01*
X26703095Y-202514285D01*
X26798333Y-202514285D01*
X26893571Y-202561904D01*
X26941190Y-202609523D01*
X26988809Y-202704761D01*
X27036428Y-202895238D01*
X27084047Y-202990476D01*
X27131666Y-203038095D01*
X27226904Y-203085714D01*
X27322142Y-203085714D01*
X27417380Y-203038095D01*
X27465000Y-202990476D01*
X27512619Y-202895238D01*
X27512619Y-202657142D01*
X27465000Y-202514285D01*
X27036428Y-201752380D02*
X26988809Y-201609523D01*
X26941190Y-201561904D01*
X26845952Y-201514285D01*
X26703095Y-201514285D01*
X26607857Y-201561904D01*
X26560238Y-201609523D01*
X26512619Y-201704761D01*
X26512619Y-202085714D01*
X27512619Y-202085714D01*
X27512619Y-201752380D01*
X27465000Y-201657142D01*
X27417380Y-201609523D01*
X27322142Y-201561904D01*
X27226904Y-201561904D01*
X27131666Y-201609523D01*
X27084047Y-201657142D01*
X27036428Y-201752380D01*
X27036428Y-202085714D01*
X27179285Y-200323809D02*
X26512619Y-200323809D01*
X27084047Y-200323809D02*
X27131666Y-200276190D01*
X27179285Y-200180952D01*
X27179285Y-200038095D01*
X27131666Y-199942857D01*
X27036428Y-199895238D01*
X26512619Y-199895238D01*
X26512619Y-199276190D02*
X26560238Y-199371428D01*
X26607857Y-199419047D01*
X26703095Y-199466666D01*
X26988809Y-199466666D01*
X27084047Y-199419047D01*
X27131666Y-199371428D01*
X27179285Y-199276190D01*
X27179285Y-199133333D01*
X27131666Y-199038095D01*
X27084047Y-198990476D01*
X26988809Y-198942857D01*
X26703095Y-198942857D01*
X26607857Y-198990476D01*
X26560238Y-199038095D01*
X26512619Y-199133333D01*
X26512619Y-199276190D01*
X27179285Y-198657142D02*
X27179285Y-198276190D01*
X27512619Y-198514285D02*
X26655476Y-198514285D01*
X26560238Y-198466666D01*
X26512619Y-198371428D01*
X26512619Y-198276190D01*
X27179285Y-197323809D02*
X27179285Y-196942857D01*
X27512619Y-197180952D02*
X26655476Y-197180952D01*
X26560238Y-197133333D01*
X26512619Y-197038095D01*
X26512619Y-196942857D01*
X26512619Y-196466666D02*
X26560238Y-196561904D01*
X26607857Y-196609523D01*
X26703095Y-196657142D01*
X26988809Y-196657142D01*
X27084047Y-196609523D01*
X27131666Y-196561904D01*
X27179285Y-196466666D01*
X27179285Y-196323809D01*
X27131666Y-196228571D01*
X27084047Y-196180952D01*
X26988809Y-196133333D01*
X26703095Y-196133333D01*
X26607857Y-196180952D01*
X26560238Y-196228571D01*
X26512619Y-196323809D01*
X26512619Y-196466666D01*
X26560238Y-194990476D02*
X26512619Y-194895238D01*
X26512619Y-194704761D01*
X26560238Y-194609523D01*
X26655476Y-194561904D01*
X26703095Y-194561904D01*
X26798333Y-194609523D01*
X26845952Y-194704761D01*
X26845952Y-194847619D01*
X26893571Y-194942857D01*
X26988809Y-194990476D01*
X27036428Y-194990476D01*
X27131666Y-194942857D01*
X27179285Y-194847619D01*
X27179285Y-194704761D01*
X27131666Y-194609523D01*
X27179285Y-194133333D02*
X26179285Y-194133333D01*
X27131666Y-194133333D02*
X27179285Y-194038095D01*
X27179285Y-193847619D01*
X27131666Y-193752380D01*
X27084047Y-193704761D01*
X26988809Y-193657142D01*
X26703095Y-193657142D01*
X26607857Y-193704761D01*
X26560238Y-193752380D01*
X26512619Y-193847619D01*
X26512619Y-194038095D01*
X26560238Y-194133333D01*
X26560238Y-192847619D02*
X26512619Y-192942857D01*
X26512619Y-193133333D01*
X26560238Y-193228571D01*
X26655476Y-193276190D01*
X27036428Y-193276190D01*
X27131666Y-193228571D01*
X27179285Y-193133333D01*
X27179285Y-192942857D01*
X27131666Y-192847619D01*
X27036428Y-192800000D01*
X26941190Y-192800000D01*
X26845952Y-193276190D01*
X26560238Y-191942857D02*
X26512619Y-192038095D01*
X26512619Y-192228571D01*
X26560238Y-192323809D01*
X26607857Y-192371428D01*
X26703095Y-192419047D01*
X26988809Y-192419047D01*
X27084047Y-192371428D01*
X27131666Y-192323809D01*
X27179285Y-192228571D01*
X27179285Y-192038095D01*
X27131666Y-191942857D01*
X26607857Y-191514285D02*
X26560238Y-191466666D01*
X26512619Y-191514285D01*
X26560238Y-191561904D01*
X26607857Y-191514285D01*
X26512619Y-191514285D01*
X27131666Y-191514285D02*
X27084047Y-191466666D01*
X27036428Y-191514285D01*
X27084047Y-191561904D01*
X27131666Y-191514285D01*
X27036428Y-191514285D01*
X24902619Y-204133333D02*
X25902619Y-204133333D01*
X25902619Y-203895238D01*
X25855000Y-203752380D01*
X25759761Y-203657142D01*
X25664523Y-203609523D01*
X25474047Y-203561904D01*
X25331190Y-203561904D01*
X25140714Y-203609523D01*
X25045476Y-203657142D01*
X24950238Y-203752380D01*
X24902619Y-203895238D01*
X24902619Y-204133333D01*
X24902619Y-202990476D02*
X24950238Y-203085714D01*
X24997857Y-203133333D01*
X25093095Y-203180952D01*
X25378809Y-203180952D01*
X25474047Y-203133333D01*
X25521666Y-203085714D01*
X25569285Y-202990476D01*
X25569285Y-202847619D01*
X25521666Y-202752380D01*
X25474047Y-202704761D01*
X25378809Y-202657142D01*
X25093095Y-202657142D01*
X24997857Y-202704761D01*
X24950238Y-202752380D01*
X24902619Y-202847619D01*
X24902619Y-202990476D01*
X24902619Y-201466666D02*
X25902619Y-201466666D01*
X24902619Y-200895238D01*
X25902619Y-200895238D01*
X25902619Y-200228571D02*
X25902619Y-200038095D01*
X25855000Y-199942857D01*
X25759761Y-199847619D01*
X25569285Y-199800000D01*
X25235952Y-199800000D01*
X25045476Y-199847619D01*
X24950238Y-199942857D01*
X24902619Y-200038095D01*
X24902619Y-200228571D01*
X24950238Y-200323809D01*
X25045476Y-200419047D01*
X25235952Y-200466666D01*
X25569285Y-200466666D01*
X25759761Y-200419047D01*
X25855000Y-200323809D01*
X25902619Y-200228571D01*
X25902619Y-199514285D02*
X25902619Y-198942857D01*
X24902619Y-199228571D02*
X25902619Y-199228571D01*
X25569285Y-197847619D02*
X24569285Y-197847619D01*
X25521666Y-197847619D02*
X25569285Y-197752380D01*
X25569285Y-197561904D01*
X25521666Y-197466666D01*
X25474047Y-197419047D01*
X25378809Y-197371428D01*
X25093095Y-197371428D01*
X24997857Y-197419047D01*
X24950238Y-197466666D01*
X24902619Y-197561904D01*
X24902619Y-197752380D01*
X24950238Y-197847619D01*
X24902619Y-196800000D02*
X24950238Y-196895238D01*
X25045476Y-196942857D01*
X25902619Y-196942857D01*
X25569285Y-195990476D02*
X24902619Y-195990476D01*
X25569285Y-196419047D02*
X25045476Y-196419047D01*
X24950238Y-196371428D01*
X24902619Y-196276190D01*
X24902619Y-196133333D01*
X24950238Y-196038095D01*
X24997857Y-195990476D01*
X25569285Y-195085714D02*
X24759761Y-195085714D01*
X24664523Y-195133333D01*
X24616904Y-195180952D01*
X24569285Y-195276190D01*
X24569285Y-195419047D01*
X24616904Y-195514285D01*
X24950238Y-195085714D02*
X24902619Y-195180952D01*
X24902619Y-195371428D01*
X24950238Y-195466666D01*
X24997857Y-195514285D01*
X25093095Y-195561904D01*
X25378809Y-195561904D01*
X25474047Y-195514285D01*
X25521666Y-195466666D01*
X25569285Y-195371428D01*
X25569285Y-195180952D01*
X25521666Y-195085714D01*
X24902619Y-193847619D02*
X25569285Y-193847619D01*
X25902619Y-193847619D02*
X25855000Y-193895238D01*
X25807380Y-193847619D01*
X25855000Y-193800000D01*
X25902619Y-193847619D01*
X25807380Y-193847619D01*
X25569285Y-193371428D02*
X24902619Y-193371428D01*
X25474047Y-193371428D02*
X25521666Y-193323809D01*
X25569285Y-193228571D01*
X25569285Y-193085714D01*
X25521666Y-192990476D01*
X25426428Y-192942857D01*
X24902619Y-192942857D01*
X25569285Y-192609523D02*
X25569285Y-192228571D01*
X25902619Y-192466666D02*
X25045476Y-192466666D01*
X24950238Y-192419047D01*
X24902619Y-192323809D01*
X24902619Y-192228571D01*
X24902619Y-191752380D02*
X24950238Y-191847619D01*
X24997857Y-191895238D01*
X25093095Y-191942857D01*
X25378809Y-191942857D01*
X25474047Y-191895238D01*
X25521666Y-191847619D01*
X25569285Y-191752380D01*
X25569285Y-191609523D01*
X25521666Y-191514285D01*
X25474047Y-191466666D01*
X25378809Y-191419047D01*
X25093095Y-191419047D01*
X24997857Y-191466666D01*
X24950238Y-191514285D01*
X24902619Y-191609523D01*
X24902619Y-191752380D01*
X23292619Y-203109523D02*
X23816428Y-203109523D01*
X23911666Y-203157142D01*
X23959285Y-203252380D01*
X23959285Y-203442857D01*
X23911666Y-203538095D01*
X23340238Y-203109523D02*
X23292619Y-203204761D01*
X23292619Y-203442857D01*
X23340238Y-203538095D01*
X23435476Y-203585714D01*
X23530714Y-203585714D01*
X23625952Y-203538095D01*
X23673571Y-203442857D01*
X23673571Y-203204761D01*
X23721190Y-203109523D01*
X23959285Y-202633333D02*
X23292619Y-202633333D01*
X23864047Y-202633333D02*
X23911666Y-202585714D01*
X23959285Y-202490476D01*
X23959285Y-202347619D01*
X23911666Y-202252380D01*
X23816428Y-202204761D01*
X23292619Y-202204761D01*
X23959285Y-201823809D02*
X23292619Y-201585714D01*
X23959285Y-201347619D02*
X23292619Y-201585714D01*
X23054523Y-201680952D01*
X23006904Y-201728571D01*
X22959285Y-201823809D01*
X23959285Y-201109523D02*
X23959285Y-200728571D01*
X24292619Y-200966666D02*
X23435476Y-200966666D01*
X23340238Y-200919047D01*
X23292619Y-200823809D01*
X23292619Y-200728571D01*
X23292619Y-200395238D02*
X24292619Y-200395238D01*
X23292619Y-199966666D02*
X23816428Y-199966666D01*
X23911666Y-200014285D01*
X23959285Y-200109523D01*
X23959285Y-200252380D01*
X23911666Y-200347619D01*
X23864047Y-200395238D01*
X23292619Y-199490476D02*
X23959285Y-199490476D01*
X24292619Y-199490476D02*
X24245000Y-199538095D01*
X24197380Y-199490476D01*
X24245000Y-199442857D01*
X24292619Y-199490476D01*
X24197380Y-199490476D01*
X23959285Y-199014285D02*
X23292619Y-199014285D01*
X23864047Y-199014285D02*
X23911666Y-198966666D01*
X23959285Y-198871428D01*
X23959285Y-198728571D01*
X23911666Y-198633333D01*
X23816428Y-198585714D01*
X23292619Y-198585714D01*
X23959285Y-197680952D02*
X23149761Y-197680952D01*
X23054523Y-197728571D01*
X23006904Y-197776190D01*
X22959285Y-197871428D01*
X22959285Y-198014285D01*
X23006904Y-198109523D01*
X23340238Y-197680952D02*
X23292619Y-197776190D01*
X23292619Y-197966666D01*
X23340238Y-198061904D01*
X23387857Y-198109523D01*
X23483095Y-198157142D01*
X23768809Y-198157142D01*
X23864047Y-198109523D01*
X23911666Y-198061904D01*
X23959285Y-197966666D01*
X23959285Y-197776190D01*
X23911666Y-197680952D01*
X23340238Y-196061904D02*
X23292619Y-196157142D01*
X23292619Y-196347619D01*
X23340238Y-196442857D01*
X23435476Y-196490476D01*
X23816428Y-196490476D01*
X23911666Y-196442857D01*
X23959285Y-196347619D01*
X23959285Y-196157142D01*
X23911666Y-196061904D01*
X23816428Y-196014285D01*
X23721190Y-196014285D01*
X23625952Y-196490476D01*
X23292619Y-195680952D02*
X23959285Y-195157142D01*
X23959285Y-195680952D02*
X23292619Y-195157142D01*
X23340238Y-194347619D02*
X23292619Y-194442857D01*
X23292619Y-194633333D01*
X23340238Y-194728571D01*
X23387857Y-194776190D01*
X23483095Y-194823809D01*
X23768809Y-194823809D01*
X23864047Y-194776190D01*
X23911666Y-194728571D01*
X23959285Y-194633333D01*
X23959285Y-194442857D01*
X23911666Y-194347619D01*
X23340238Y-193538095D02*
X23292619Y-193633333D01*
X23292619Y-193823809D01*
X23340238Y-193919047D01*
X23435476Y-193966666D01*
X23816428Y-193966666D01*
X23911666Y-193919047D01*
X23959285Y-193823809D01*
X23959285Y-193633333D01*
X23911666Y-193538095D01*
X23816428Y-193490476D01*
X23721190Y-193490476D01*
X23625952Y-193966666D01*
X23959285Y-193061904D02*
X22959285Y-193061904D01*
X23911666Y-193061904D02*
X23959285Y-192966666D01*
X23959285Y-192776190D01*
X23911666Y-192680952D01*
X23864047Y-192633333D01*
X23768809Y-192585714D01*
X23483095Y-192585714D01*
X23387857Y-192633333D01*
X23340238Y-192680952D01*
X23292619Y-192776190D01*
X23292619Y-192966666D01*
X23340238Y-193061904D01*
X23959285Y-192300000D02*
X23959285Y-191919047D01*
X24292619Y-192157142D02*
X23435476Y-192157142D01*
X23340238Y-192109523D01*
X23292619Y-192014285D01*
X23292619Y-191919047D01*
X21730238Y-205157142D02*
X21682619Y-205252380D01*
X21682619Y-205442857D01*
X21730238Y-205538095D01*
X21777857Y-205585714D01*
X21873095Y-205633333D01*
X22158809Y-205633333D01*
X22254047Y-205585714D01*
X22301666Y-205538095D01*
X22349285Y-205442857D01*
X22349285Y-205252380D01*
X22301666Y-205157142D01*
X21682619Y-204585714D02*
X21730238Y-204680952D01*
X21777857Y-204728571D01*
X21873095Y-204776190D01*
X22158809Y-204776190D01*
X22254047Y-204728571D01*
X22301666Y-204680952D01*
X22349285Y-204585714D01*
X22349285Y-204442857D01*
X22301666Y-204347619D01*
X22254047Y-204300000D01*
X22158809Y-204252380D01*
X21873095Y-204252380D01*
X21777857Y-204300000D01*
X21730238Y-204347619D01*
X21682619Y-204442857D01*
X21682619Y-204585714D01*
X21682619Y-203823809D02*
X22349285Y-203823809D01*
X22158809Y-203823809D02*
X22254047Y-203776190D01*
X22301666Y-203728571D01*
X22349285Y-203633333D01*
X22349285Y-203538095D01*
X21682619Y-203204761D02*
X22349285Y-203204761D01*
X22158809Y-203204761D02*
X22254047Y-203157142D01*
X22301666Y-203109523D01*
X22349285Y-203014285D01*
X22349285Y-202919047D01*
X21730238Y-202204761D02*
X21682619Y-202300000D01*
X21682619Y-202490476D01*
X21730238Y-202585714D01*
X21825476Y-202633333D01*
X22206428Y-202633333D01*
X22301666Y-202585714D01*
X22349285Y-202490476D01*
X22349285Y-202300000D01*
X22301666Y-202204761D01*
X22206428Y-202157142D01*
X22111190Y-202157142D01*
X22015952Y-202633333D01*
X21730238Y-201776190D02*
X21682619Y-201680952D01*
X21682619Y-201490476D01*
X21730238Y-201395238D01*
X21825476Y-201347619D01*
X21873095Y-201347619D01*
X21968333Y-201395238D01*
X22015952Y-201490476D01*
X22015952Y-201633333D01*
X22063571Y-201728571D01*
X22158809Y-201776190D01*
X22206428Y-201776190D01*
X22301666Y-201728571D01*
X22349285Y-201633333D01*
X22349285Y-201490476D01*
X22301666Y-201395238D01*
X22349285Y-200919047D02*
X21349285Y-200919047D01*
X22301666Y-200919047D02*
X22349285Y-200823809D01*
X22349285Y-200633333D01*
X22301666Y-200538095D01*
X22254047Y-200490476D01*
X22158809Y-200442857D01*
X21873095Y-200442857D01*
X21777857Y-200490476D01*
X21730238Y-200538095D01*
X21682619Y-200633333D01*
X21682619Y-200823809D01*
X21730238Y-200919047D01*
X21682619Y-199871428D02*
X21730238Y-199966666D01*
X21777857Y-200014285D01*
X21873095Y-200061904D01*
X22158809Y-200061904D01*
X22254047Y-200014285D01*
X22301666Y-199966666D01*
X22349285Y-199871428D01*
X22349285Y-199728571D01*
X22301666Y-199633333D01*
X22254047Y-199585714D01*
X22158809Y-199538095D01*
X21873095Y-199538095D01*
X21777857Y-199585714D01*
X21730238Y-199633333D01*
X21682619Y-199728571D01*
X21682619Y-199871428D01*
X22349285Y-199109523D02*
X21682619Y-199109523D01*
X22254047Y-199109523D02*
X22301666Y-199061904D01*
X22349285Y-198966666D01*
X22349285Y-198823809D01*
X22301666Y-198728571D01*
X22206428Y-198680952D01*
X21682619Y-198680952D01*
X21682619Y-197776190D02*
X22682619Y-197776190D01*
X21730238Y-197776190D02*
X21682619Y-197871428D01*
X21682619Y-198061904D01*
X21730238Y-198157142D01*
X21777857Y-198204761D01*
X21873095Y-198252380D01*
X22158809Y-198252380D01*
X22254047Y-198204761D01*
X22301666Y-198157142D01*
X22349285Y-198061904D01*
X22349285Y-197871428D01*
X22301666Y-197776190D01*
X21682619Y-197300000D02*
X22349285Y-197300000D01*
X22682619Y-197300000D02*
X22635000Y-197347619D01*
X22587380Y-197300000D01*
X22635000Y-197252380D01*
X22682619Y-197300000D01*
X22587380Y-197300000D01*
X22349285Y-196823809D02*
X21682619Y-196823809D01*
X22254047Y-196823809D02*
X22301666Y-196776190D01*
X22349285Y-196680952D01*
X22349285Y-196538095D01*
X22301666Y-196442857D01*
X22206428Y-196395238D01*
X21682619Y-196395238D01*
X22349285Y-195490476D02*
X21539761Y-195490476D01*
X21444523Y-195538095D01*
X21396904Y-195585714D01*
X21349285Y-195680952D01*
X21349285Y-195823809D01*
X21396904Y-195919047D01*
X21730238Y-195490476D02*
X21682619Y-195585714D01*
X21682619Y-195776190D01*
X21730238Y-195871428D01*
X21777857Y-195919047D01*
X21873095Y-195966666D01*
X22158809Y-195966666D01*
X22254047Y-195919047D01*
X22301666Y-195871428D01*
X22349285Y-195776190D01*
X22349285Y-195585714D01*
X22301666Y-195490476D01*
X21682619Y-194252380D02*
X22682619Y-194252380D01*
X22301666Y-194252380D02*
X22349285Y-194157142D01*
X22349285Y-193966666D01*
X22301666Y-193871428D01*
X22254047Y-193823809D01*
X22158809Y-193776190D01*
X21873095Y-193776190D01*
X21777857Y-193823809D01*
X21730238Y-193871428D01*
X21682619Y-193966666D01*
X21682619Y-194157142D01*
X21730238Y-194252380D01*
X21682619Y-193204761D02*
X21730238Y-193300000D01*
X21777857Y-193347619D01*
X21873095Y-193395238D01*
X22158809Y-193395238D01*
X22254047Y-193347619D01*
X22301666Y-193300000D01*
X22349285Y-193204761D01*
X22349285Y-193061904D01*
X22301666Y-192966666D01*
X22254047Y-192919047D01*
X22158809Y-192871428D01*
X21873095Y-192871428D01*
X21777857Y-192919047D01*
X21730238Y-192966666D01*
X21682619Y-193061904D01*
X21682619Y-193204761D01*
X21682619Y-192014285D02*
X22206428Y-192014285D01*
X22301666Y-192061904D01*
X22349285Y-192157142D01*
X22349285Y-192347619D01*
X22301666Y-192442857D01*
X21730238Y-192014285D02*
X21682619Y-192109523D01*
X21682619Y-192347619D01*
X21730238Y-192442857D01*
X21825476Y-192490476D01*
X21920714Y-192490476D01*
X22015952Y-192442857D01*
X22063571Y-192347619D01*
X22063571Y-192109523D01*
X22111190Y-192014285D01*
X21682619Y-191538095D02*
X22349285Y-191538095D01*
X22158809Y-191538095D02*
X22254047Y-191490476D01*
X22301666Y-191442857D01*
X22349285Y-191347619D01*
X22349285Y-191252380D01*
X21682619Y-190490476D02*
X22682619Y-190490476D01*
X21730238Y-190490476D02*
X21682619Y-190585714D01*
X21682619Y-190776190D01*
X21730238Y-190871428D01*
X21777857Y-190919047D01*
X21873095Y-190966666D01*
X22158809Y-190966666D01*
X22254047Y-190919047D01*
X22301666Y-190871428D01*
X22349285Y-190776190D01*
X22349285Y-190585714D01*
X22301666Y-190490476D01*
X21777857Y-190014285D02*
X21730238Y-189966666D01*
X21682619Y-190014285D01*
X21730238Y-190061904D01*
X21777857Y-190014285D01*
X21682619Y-190014285D01*
X22063571Y-190014285D02*
X22635000Y-190061904D01*
X22682619Y-190014285D01*
X22635000Y-189966666D01*
X22063571Y-190014285D01*
X22682619Y-190014285D01*
X114085714Y-242487380D02*
X114085714Y-243296904D01*
X114038095Y-243392142D01*
X113990476Y-243439761D01*
X113895238Y-243487380D01*
X113704761Y-243487380D01*
X113609523Y-243439761D01*
X113561904Y-243392142D01*
X113514285Y-243296904D01*
X113514285Y-242487380D01*
X113085714Y-243439761D02*
X112942857Y-243487380D01*
X112704761Y-243487380D01*
X112609523Y-243439761D01*
X112561904Y-243392142D01*
X112514285Y-243296904D01*
X112514285Y-243201666D01*
X112561904Y-243106428D01*
X112609523Y-243058809D01*
X112704761Y-243011190D01*
X112895238Y-242963571D01*
X112990476Y-242915952D01*
X113038095Y-242868333D01*
X113085714Y-242773095D01*
X113085714Y-242677857D01*
X113038095Y-242582619D01*
X112990476Y-242535000D01*
X112895238Y-242487380D01*
X112657142Y-242487380D01*
X112514285Y-242535000D01*
X111752380Y-242963571D02*
X111609523Y-243011190D01*
X111561904Y-243058809D01*
X111514285Y-243154047D01*
X111514285Y-243296904D01*
X111561904Y-243392142D01*
X111609523Y-243439761D01*
X111704761Y-243487380D01*
X112085714Y-243487380D01*
X112085714Y-242487380D01*
X111752380Y-242487380D01*
X111657142Y-242535000D01*
X111609523Y-242582619D01*
X111561904Y-242677857D01*
X111561904Y-242773095D01*
X111609523Y-242868333D01*
X111657142Y-242915952D01*
X111752380Y-242963571D01*
X112085714Y-242963571D01*
X110323809Y-242820714D02*
X110323809Y-243487380D01*
X110323809Y-242915952D02*
X110276190Y-242868333D01*
X110180952Y-242820714D01*
X110038095Y-242820714D01*
X109942857Y-242868333D01*
X109895238Y-242963571D01*
X109895238Y-243487380D01*
X109276190Y-243487380D02*
X109371428Y-243439761D01*
X109419047Y-243392142D01*
X109466666Y-243296904D01*
X109466666Y-243011190D01*
X109419047Y-242915952D01*
X109371428Y-242868333D01*
X109276190Y-242820714D01*
X109133333Y-242820714D01*
X109038095Y-242868333D01*
X108990476Y-242915952D01*
X108942857Y-243011190D01*
X108942857Y-243296904D01*
X108990476Y-243392142D01*
X109038095Y-243439761D01*
X109133333Y-243487380D01*
X109276190Y-243487380D01*
X108657142Y-242820714D02*
X108276190Y-242820714D01*
X108514285Y-242487380D02*
X108514285Y-243344523D01*
X108466666Y-243439761D01*
X108371428Y-243487380D01*
X108276190Y-243487380D01*
X107323809Y-242820714D02*
X106942857Y-242820714D01*
X107180952Y-242487380D02*
X107180952Y-243344523D01*
X107133333Y-243439761D01*
X107038095Y-243487380D01*
X106942857Y-243487380D01*
X106466666Y-243487380D02*
X106561904Y-243439761D01*
X106609523Y-243392142D01*
X106657142Y-243296904D01*
X106657142Y-243011190D01*
X106609523Y-242915952D01*
X106561904Y-242868333D01*
X106466666Y-242820714D01*
X106323809Y-242820714D01*
X106228571Y-242868333D01*
X106180952Y-242915952D01*
X106133333Y-243011190D01*
X106133333Y-243296904D01*
X106180952Y-243392142D01*
X106228571Y-243439761D01*
X106323809Y-243487380D01*
X106466666Y-243487380D01*
X104990476Y-243439761D02*
X104895238Y-243487380D01*
X104704761Y-243487380D01*
X104609523Y-243439761D01*
X104561904Y-243344523D01*
X104561904Y-243296904D01*
X104609523Y-243201666D01*
X104704761Y-243154047D01*
X104847619Y-243154047D01*
X104942857Y-243106428D01*
X104990476Y-243011190D01*
X104990476Y-242963571D01*
X104942857Y-242868333D01*
X104847619Y-242820714D01*
X104704761Y-242820714D01*
X104609523Y-242868333D01*
X104133333Y-242820714D02*
X104133333Y-243820714D01*
X104133333Y-242868333D02*
X104038095Y-242820714D01*
X103847619Y-242820714D01*
X103752380Y-242868333D01*
X103704761Y-242915952D01*
X103657142Y-243011190D01*
X103657142Y-243296904D01*
X103704761Y-243392142D01*
X103752380Y-243439761D01*
X103847619Y-243487380D01*
X104038095Y-243487380D01*
X104133333Y-243439761D01*
X102847619Y-243439761D02*
X102942857Y-243487380D01*
X103133333Y-243487380D01*
X103228571Y-243439761D01*
X103276190Y-243344523D01*
X103276190Y-242963571D01*
X103228571Y-242868333D01*
X103133333Y-242820714D01*
X102942857Y-242820714D01*
X102847619Y-242868333D01*
X102800000Y-242963571D01*
X102800000Y-243058809D01*
X103276190Y-243154047D01*
X101942857Y-243439761D02*
X102038095Y-243487380D01*
X102228571Y-243487380D01*
X102323809Y-243439761D01*
X102371428Y-243392142D01*
X102419047Y-243296904D01*
X102419047Y-243011190D01*
X102371428Y-242915952D01*
X102323809Y-242868333D01*
X102228571Y-242820714D01*
X102038095Y-242820714D01*
X101942857Y-242868333D01*
X101514285Y-243392142D02*
X101466666Y-243439761D01*
X101514285Y-243487380D01*
X101561904Y-243439761D01*
X101514285Y-243392142D01*
X101514285Y-243487380D01*
X101514285Y-242868333D02*
X101466666Y-242915952D01*
X101514285Y-242963571D01*
X101561904Y-242915952D01*
X101514285Y-242868333D01*
X101514285Y-242963571D01*
X114133333Y-245097380D02*
X114133333Y-244097380D01*
X113895238Y-244097380D01*
X113752380Y-244145000D01*
X113657142Y-244240238D01*
X113609523Y-244335476D01*
X113561904Y-244525952D01*
X113561904Y-244668809D01*
X113609523Y-244859285D01*
X113657142Y-244954523D01*
X113752380Y-245049761D01*
X113895238Y-245097380D01*
X114133333Y-245097380D01*
X112990476Y-245097380D02*
X113085714Y-245049761D01*
X113133333Y-245002142D01*
X113180952Y-244906904D01*
X113180952Y-244621190D01*
X113133333Y-244525952D01*
X113085714Y-244478333D01*
X112990476Y-244430714D01*
X112847619Y-244430714D01*
X112752380Y-244478333D01*
X112704761Y-244525952D01*
X112657142Y-244621190D01*
X112657142Y-244906904D01*
X112704761Y-245002142D01*
X112752380Y-245049761D01*
X112847619Y-245097380D01*
X112990476Y-245097380D01*
X111466666Y-245097380D02*
X111466666Y-244097380D01*
X110895238Y-245097380D01*
X110895238Y-244097380D01*
X110228571Y-244097380D02*
X110038095Y-244097380D01*
X109942857Y-244145000D01*
X109847619Y-244240238D01*
X109800000Y-244430714D01*
X109800000Y-244764047D01*
X109847619Y-244954523D01*
X109942857Y-245049761D01*
X110038095Y-245097380D01*
X110228571Y-245097380D01*
X110323809Y-245049761D01*
X110419047Y-244954523D01*
X110466666Y-244764047D01*
X110466666Y-244430714D01*
X110419047Y-244240238D01*
X110323809Y-244145000D01*
X110228571Y-244097380D01*
X109514285Y-244097380D02*
X108942857Y-244097380D01*
X109228571Y-245097380D02*
X109228571Y-244097380D01*
X107847619Y-244430714D02*
X107847619Y-245430714D01*
X107847619Y-244478333D02*
X107752380Y-244430714D01*
X107561904Y-244430714D01*
X107466666Y-244478333D01*
X107419047Y-244525952D01*
X107371428Y-244621190D01*
X107371428Y-244906904D01*
X107419047Y-245002142D01*
X107466666Y-245049761D01*
X107561904Y-245097380D01*
X107752380Y-245097380D01*
X107847619Y-245049761D01*
X106800000Y-245097380D02*
X106895238Y-245049761D01*
X106942857Y-244954523D01*
X106942857Y-244097380D01*
X105990476Y-244430714D02*
X105990476Y-245097380D01*
X106419047Y-244430714D02*
X106419047Y-244954523D01*
X106371428Y-245049761D01*
X106276190Y-245097380D01*
X106133333Y-245097380D01*
X106038095Y-245049761D01*
X105990476Y-245002142D01*
X105085714Y-244430714D02*
X105085714Y-245240238D01*
X105133333Y-245335476D01*
X105180952Y-245383095D01*
X105276190Y-245430714D01*
X105419047Y-245430714D01*
X105514285Y-245383095D01*
X105085714Y-245049761D02*
X105180952Y-245097380D01*
X105371428Y-245097380D01*
X105466666Y-245049761D01*
X105514285Y-245002142D01*
X105561904Y-244906904D01*
X105561904Y-244621190D01*
X105514285Y-244525952D01*
X105466666Y-244478333D01*
X105371428Y-244430714D01*
X105180952Y-244430714D01*
X105085714Y-244478333D01*
X103847619Y-245097380D02*
X103847619Y-244430714D01*
X103847619Y-244097380D02*
X103895238Y-244145000D01*
X103847619Y-244192619D01*
X103800000Y-244145000D01*
X103847619Y-244097380D01*
X103847619Y-244192619D01*
X103371428Y-244430714D02*
X103371428Y-245097380D01*
X103371428Y-244525952D02*
X103323809Y-244478333D01*
X103228571Y-244430714D01*
X103085714Y-244430714D01*
X102990476Y-244478333D01*
X102942857Y-244573571D01*
X102942857Y-245097380D01*
X102609523Y-244430714D02*
X102228571Y-244430714D01*
X102466666Y-244097380D02*
X102466666Y-244954523D01*
X102419047Y-245049761D01*
X102323809Y-245097380D01*
X102228571Y-245097380D01*
X101752380Y-245097380D02*
X101847619Y-245049761D01*
X101895238Y-245002142D01*
X101942857Y-244906904D01*
X101942857Y-244621190D01*
X101895238Y-244525952D01*
X101847619Y-244478333D01*
X101752380Y-244430714D01*
X101609523Y-244430714D01*
X101514285Y-244478333D01*
X101466666Y-244525952D01*
X101419047Y-244621190D01*
X101419047Y-244906904D01*
X101466666Y-245002142D01*
X101514285Y-245049761D01*
X101609523Y-245097380D01*
X101752380Y-245097380D01*
X113109523Y-246707380D02*
X113109523Y-246183571D01*
X113157142Y-246088333D01*
X113252380Y-246040714D01*
X113442857Y-246040714D01*
X113538095Y-246088333D01*
X113109523Y-246659761D02*
X113204761Y-246707380D01*
X113442857Y-246707380D01*
X113538095Y-246659761D01*
X113585714Y-246564523D01*
X113585714Y-246469285D01*
X113538095Y-246374047D01*
X113442857Y-246326428D01*
X113204761Y-246326428D01*
X113109523Y-246278809D01*
X112633333Y-246040714D02*
X112633333Y-246707380D01*
X112633333Y-246135952D02*
X112585714Y-246088333D01*
X112490476Y-246040714D01*
X112347619Y-246040714D01*
X112252380Y-246088333D01*
X112204761Y-246183571D01*
X112204761Y-246707380D01*
X111823809Y-246040714D02*
X111585714Y-246707380D01*
X111347619Y-246040714D02*
X111585714Y-246707380D01*
X111680952Y-246945476D01*
X111728571Y-246993095D01*
X111823809Y-247040714D01*
X111109523Y-246040714D02*
X110728571Y-246040714D01*
X110966666Y-245707380D02*
X110966666Y-246564523D01*
X110919047Y-246659761D01*
X110823809Y-246707380D01*
X110728571Y-246707380D01*
X110395238Y-246707380D02*
X110395238Y-245707380D01*
X109966666Y-246707380D02*
X109966666Y-246183571D01*
X110014285Y-246088333D01*
X110109523Y-246040714D01*
X110252380Y-246040714D01*
X110347619Y-246088333D01*
X110395238Y-246135952D01*
X109490476Y-246707380D02*
X109490476Y-246040714D01*
X109490476Y-245707380D02*
X109538095Y-245755000D01*
X109490476Y-245802619D01*
X109442857Y-245755000D01*
X109490476Y-245707380D01*
X109490476Y-245802619D01*
X109014285Y-246040714D02*
X109014285Y-246707380D01*
X109014285Y-246135952D02*
X108966666Y-246088333D01*
X108871428Y-246040714D01*
X108728571Y-246040714D01*
X108633333Y-246088333D01*
X108585714Y-246183571D01*
X108585714Y-246707380D01*
X107680952Y-246040714D02*
X107680952Y-246850238D01*
X107728571Y-246945476D01*
X107776190Y-246993095D01*
X107871428Y-247040714D01*
X108014285Y-247040714D01*
X108109523Y-246993095D01*
X107680952Y-246659761D02*
X107776190Y-246707380D01*
X107966666Y-246707380D01*
X108061904Y-246659761D01*
X108109523Y-246612142D01*
X108157142Y-246516904D01*
X108157142Y-246231190D01*
X108109523Y-246135952D01*
X108061904Y-246088333D01*
X107966666Y-246040714D01*
X107776190Y-246040714D01*
X107680952Y-246088333D01*
X106061904Y-246659761D02*
X106157142Y-246707380D01*
X106347619Y-246707380D01*
X106442857Y-246659761D01*
X106490476Y-246564523D01*
X106490476Y-246183571D01*
X106442857Y-246088333D01*
X106347619Y-246040714D01*
X106157142Y-246040714D01*
X106061904Y-246088333D01*
X106014285Y-246183571D01*
X106014285Y-246278809D01*
X106490476Y-246374047D01*
X105680952Y-246707380D02*
X105157142Y-246040714D01*
X105680952Y-246040714D02*
X105157142Y-246707380D01*
X104347619Y-246659761D02*
X104442857Y-246707380D01*
X104633333Y-246707380D01*
X104728571Y-246659761D01*
X104776190Y-246612142D01*
X104823809Y-246516904D01*
X104823809Y-246231190D01*
X104776190Y-246135952D01*
X104728571Y-246088333D01*
X104633333Y-246040714D01*
X104442857Y-246040714D01*
X104347619Y-246088333D01*
X103538095Y-246659761D02*
X103633333Y-246707380D01*
X103823809Y-246707380D01*
X103919047Y-246659761D01*
X103966666Y-246564523D01*
X103966666Y-246183571D01*
X103919047Y-246088333D01*
X103823809Y-246040714D01*
X103633333Y-246040714D01*
X103538095Y-246088333D01*
X103490476Y-246183571D01*
X103490476Y-246278809D01*
X103966666Y-246374047D01*
X103061904Y-246040714D02*
X103061904Y-247040714D01*
X103061904Y-246088333D02*
X102966666Y-246040714D01*
X102776190Y-246040714D01*
X102680952Y-246088333D01*
X102633333Y-246135952D01*
X102585714Y-246231190D01*
X102585714Y-246516904D01*
X102633333Y-246612142D01*
X102680952Y-246659761D01*
X102776190Y-246707380D01*
X102966666Y-246707380D01*
X103061904Y-246659761D01*
X102300000Y-246040714D02*
X101919047Y-246040714D01*
X102157142Y-245707380D02*
X102157142Y-246564523D01*
X102109523Y-246659761D01*
X102014285Y-246707380D01*
X101919047Y-246707380D01*
X115157142Y-248269761D02*
X115252380Y-248317380D01*
X115442857Y-248317380D01*
X115538095Y-248269761D01*
X115585714Y-248222142D01*
X115633333Y-248126904D01*
X115633333Y-247841190D01*
X115585714Y-247745952D01*
X115538095Y-247698333D01*
X115442857Y-247650714D01*
X115252380Y-247650714D01*
X115157142Y-247698333D01*
X114585714Y-248317380D02*
X114680952Y-248269761D01*
X114728571Y-248222142D01*
X114776190Y-248126904D01*
X114776190Y-247841190D01*
X114728571Y-247745952D01*
X114680952Y-247698333D01*
X114585714Y-247650714D01*
X114442857Y-247650714D01*
X114347619Y-247698333D01*
X114300000Y-247745952D01*
X114252380Y-247841190D01*
X114252380Y-248126904D01*
X114300000Y-248222142D01*
X114347619Y-248269761D01*
X114442857Y-248317380D01*
X114585714Y-248317380D01*
X113823809Y-248317380D02*
X113823809Y-247650714D01*
X113823809Y-247841190D02*
X113776190Y-247745952D01*
X113728571Y-247698333D01*
X113633333Y-247650714D01*
X113538095Y-247650714D01*
X113204761Y-248317380D02*
X113204761Y-247650714D01*
X113204761Y-247841190D02*
X113157142Y-247745952D01*
X113109523Y-247698333D01*
X113014285Y-247650714D01*
X112919047Y-247650714D01*
X112204761Y-248269761D02*
X112300000Y-248317380D01*
X112490476Y-248317380D01*
X112585714Y-248269761D01*
X112633333Y-248174523D01*
X112633333Y-247793571D01*
X112585714Y-247698333D01*
X112490476Y-247650714D01*
X112300000Y-247650714D01*
X112204761Y-247698333D01*
X112157142Y-247793571D01*
X112157142Y-247888809D01*
X112633333Y-247984047D01*
X111776190Y-248269761D02*
X111680952Y-248317380D01*
X111490476Y-248317380D01*
X111395238Y-248269761D01*
X111347619Y-248174523D01*
X111347619Y-248126904D01*
X111395238Y-248031666D01*
X111490476Y-247984047D01*
X111633333Y-247984047D01*
X111728571Y-247936428D01*
X111776190Y-247841190D01*
X111776190Y-247793571D01*
X111728571Y-247698333D01*
X111633333Y-247650714D01*
X111490476Y-247650714D01*
X111395238Y-247698333D01*
X110919047Y-247650714D02*
X110919047Y-248650714D01*
X110919047Y-247698333D02*
X110823809Y-247650714D01*
X110633333Y-247650714D01*
X110538095Y-247698333D01*
X110490476Y-247745952D01*
X110442857Y-247841190D01*
X110442857Y-248126904D01*
X110490476Y-248222142D01*
X110538095Y-248269761D01*
X110633333Y-248317380D01*
X110823809Y-248317380D01*
X110919047Y-248269761D01*
X109871428Y-248317380D02*
X109966666Y-248269761D01*
X110014285Y-248222142D01*
X110061904Y-248126904D01*
X110061904Y-247841190D01*
X110014285Y-247745952D01*
X109966666Y-247698333D01*
X109871428Y-247650714D01*
X109728571Y-247650714D01*
X109633333Y-247698333D01*
X109585714Y-247745952D01*
X109538095Y-247841190D01*
X109538095Y-248126904D01*
X109585714Y-248222142D01*
X109633333Y-248269761D01*
X109728571Y-248317380D01*
X109871428Y-248317380D01*
X109109523Y-247650714D02*
X109109523Y-248317380D01*
X109109523Y-247745952D02*
X109061904Y-247698333D01*
X108966666Y-247650714D01*
X108823809Y-247650714D01*
X108728571Y-247698333D01*
X108680952Y-247793571D01*
X108680952Y-248317380D01*
X107776190Y-248317380D02*
X107776190Y-247317380D01*
X107776190Y-248269761D02*
X107871428Y-248317380D01*
X108061904Y-248317380D01*
X108157142Y-248269761D01*
X108204761Y-248222142D01*
X108252380Y-248126904D01*
X108252380Y-247841190D01*
X108204761Y-247745952D01*
X108157142Y-247698333D01*
X108061904Y-247650714D01*
X107871428Y-247650714D01*
X107776190Y-247698333D01*
X107300000Y-248317380D02*
X107300000Y-247650714D01*
X107300000Y-247317380D02*
X107347619Y-247365000D01*
X107300000Y-247412619D01*
X107252380Y-247365000D01*
X107300000Y-247317380D01*
X107300000Y-247412619D01*
X106823809Y-247650714D02*
X106823809Y-248317380D01*
X106823809Y-247745952D02*
X106776190Y-247698333D01*
X106680952Y-247650714D01*
X106538095Y-247650714D01*
X106442857Y-247698333D01*
X106395238Y-247793571D01*
X106395238Y-248317380D01*
X105490476Y-247650714D02*
X105490476Y-248460238D01*
X105538095Y-248555476D01*
X105585714Y-248603095D01*
X105680952Y-248650714D01*
X105823809Y-248650714D01*
X105919047Y-248603095D01*
X105490476Y-248269761D02*
X105585714Y-248317380D01*
X105776190Y-248317380D01*
X105871428Y-248269761D01*
X105919047Y-248222142D01*
X105966666Y-248126904D01*
X105966666Y-247841190D01*
X105919047Y-247745952D01*
X105871428Y-247698333D01*
X105776190Y-247650714D01*
X105585714Y-247650714D01*
X105490476Y-247698333D01*
X104252380Y-248317380D02*
X104252380Y-247317380D01*
X104252380Y-247698333D02*
X104157142Y-247650714D01*
X103966666Y-247650714D01*
X103871428Y-247698333D01*
X103823809Y-247745952D01*
X103776190Y-247841190D01*
X103776190Y-248126904D01*
X103823809Y-248222142D01*
X103871428Y-248269761D01*
X103966666Y-248317380D01*
X104157142Y-248317380D01*
X104252380Y-248269761D01*
X103204761Y-248317380D02*
X103300000Y-248269761D01*
X103347619Y-248222142D01*
X103395238Y-248126904D01*
X103395238Y-247841190D01*
X103347619Y-247745952D01*
X103300000Y-247698333D01*
X103204761Y-247650714D01*
X103061904Y-247650714D01*
X102966666Y-247698333D01*
X102919047Y-247745952D01*
X102871428Y-247841190D01*
X102871428Y-248126904D01*
X102919047Y-248222142D01*
X102966666Y-248269761D01*
X103061904Y-248317380D01*
X103204761Y-248317380D01*
X102014285Y-248317380D02*
X102014285Y-247793571D01*
X102061904Y-247698333D01*
X102157142Y-247650714D01*
X102347619Y-247650714D01*
X102442857Y-247698333D01*
X102014285Y-248269761D02*
X102109523Y-248317380D01*
X102347619Y-248317380D01*
X102442857Y-248269761D01*
X102490476Y-248174523D01*
X102490476Y-248079285D01*
X102442857Y-247984047D01*
X102347619Y-247936428D01*
X102109523Y-247936428D01*
X102014285Y-247888809D01*
X101538095Y-248317380D02*
X101538095Y-247650714D01*
X101538095Y-247841190D02*
X101490476Y-247745952D01*
X101442857Y-247698333D01*
X101347619Y-247650714D01*
X101252380Y-247650714D01*
X100490476Y-248317380D02*
X100490476Y-247317380D01*
X100490476Y-248269761D02*
X100585714Y-248317380D01*
X100776190Y-248317380D01*
X100871428Y-248269761D01*
X100919047Y-248222142D01*
X100966666Y-248126904D01*
X100966666Y-247841190D01*
X100919047Y-247745952D01*
X100871428Y-247698333D01*
X100776190Y-247650714D01*
X100585714Y-247650714D01*
X100490476Y-247698333D01*
X100014285Y-248222142D02*
X99966666Y-248269761D01*
X100014285Y-248317380D01*
X100061904Y-248269761D01*
X100014285Y-248222142D01*
X100014285Y-248317380D01*
X100014285Y-247936428D02*
X100061904Y-247365000D01*
X100014285Y-247317380D01*
X99966666Y-247365000D01*
X100014285Y-247936428D01*
X100014285Y-247317380D01*
X46666666Y-115952380D02*
X47000000Y-115476190D01*
X47238095Y-115952380D02*
X47238095Y-114952380D01*
X46857142Y-114952380D01*
X46761904Y-115000000D01*
X46714285Y-115047619D01*
X46666666Y-115142857D01*
X46666666Y-115285714D01*
X46714285Y-115380952D01*
X46761904Y-115428571D01*
X46857142Y-115476190D01*
X47238095Y-115476190D01*
X45809523Y-114952380D02*
X46000000Y-114952380D01*
X46095238Y-115000000D01*
X46142857Y-115047619D01*
X46238095Y-115190476D01*
X46285714Y-115380952D01*
X46285714Y-115761904D01*
X46238095Y-115857142D01*
X46190476Y-115904761D01*
X46095238Y-115952380D01*
X45904761Y-115952380D01*
X45809523Y-115904761D01*
X45761904Y-115857142D01*
X45714285Y-115761904D01*
X45714285Y-115523809D01*
X45761904Y-115428571D01*
X45809523Y-115380952D01*
X45904761Y-115333333D01*
X46095238Y-115333333D01*
X46190476Y-115380952D01*
X46238095Y-115428571D01*
X46285714Y-115523809D01*
X55166666Y-162677142D02*
X55214285Y-162724761D01*
X55357142Y-162772380D01*
X55452380Y-162772380D01*
X55595238Y-162724761D01*
X55690476Y-162629523D01*
X55738095Y-162534285D01*
X55785714Y-162343809D01*
X55785714Y-162200952D01*
X55738095Y-162010476D01*
X55690476Y-161915238D01*
X55595238Y-161820000D01*
X55452380Y-161772380D01*
X55357142Y-161772380D01*
X55214285Y-161820000D01*
X55166666Y-161867619D01*
X54214285Y-162772380D02*
X54785714Y-162772380D01*
X54500000Y-162772380D02*
X54500000Y-161772380D01*
X54595238Y-161915238D01*
X54690476Y-162010476D01*
X54785714Y-162058095D01*
X67132380Y-134333333D02*
X66656190Y-134000000D01*
X67132380Y-133761904D02*
X66132380Y-133761904D01*
X66132380Y-134142857D01*
X66180000Y-134238095D01*
X66227619Y-134285714D01*
X66322857Y-134333333D01*
X66465714Y-134333333D01*
X66560952Y-134285714D01*
X66608571Y-134238095D01*
X66656190Y-134142857D01*
X66656190Y-133761904D01*
X66132380Y-134666666D02*
X66132380Y-135285714D01*
X66513333Y-134952380D01*
X66513333Y-135095238D01*
X66560952Y-135190476D01*
X66608571Y-135238095D01*
X66703809Y-135285714D01*
X66941904Y-135285714D01*
X67037142Y-135238095D01*
X67084761Y-135190476D01*
X67132380Y-135095238D01*
X67132380Y-134809523D01*
X67084761Y-134714285D01*
X67037142Y-134666666D01*
X44166666Y-164022380D02*
X44500000Y-163546190D01*
X44738095Y-164022380D02*
X44738095Y-163022380D01*
X44357142Y-163022380D01*
X44261904Y-163070000D01*
X44214285Y-163117619D01*
X44166666Y-163212857D01*
X44166666Y-163355714D01*
X44214285Y-163450952D01*
X44261904Y-163498571D01*
X44357142Y-163546190D01*
X44738095Y-163546190D01*
X43595238Y-163450952D02*
X43690476Y-163403333D01*
X43738095Y-163355714D01*
X43785714Y-163260476D01*
X43785714Y-163212857D01*
X43738095Y-163117619D01*
X43690476Y-163070000D01*
X43595238Y-163022380D01*
X43404761Y-163022380D01*
X43309523Y-163070000D01*
X43261904Y-163117619D01*
X43214285Y-163212857D01*
X43214285Y-163260476D01*
X43261904Y-163355714D01*
X43309523Y-163403333D01*
X43404761Y-163450952D01*
X43595238Y-163450952D01*
X43690476Y-163498571D01*
X43738095Y-163546190D01*
X43785714Y-163641428D01*
X43785714Y-163831904D01*
X43738095Y-163927142D01*
X43690476Y-163974761D01*
X43595238Y-164022380D01*
X43404761Y-164022380D01*
X43309523Y-163974761D01*
X43261904Y-163927142D01*
X43214285Y-163831904D01*
X43214285Y-163641428D01*
X43261904Y-163546190D01*
X43309523Y-163498571D01*
X43404761Y-163450952D01*
X64666666Y-116537142D02*
X64714285Y-116584761D01*
X64857142Y-116632380D01*
X64952380Y-116632380D01*
X65095238Y-116584761D01*
X65190476Y-116489523D01*
X65238095Y-116394285D01*
X65285714Y-116203809D01*
X65285714Y-116060952D01*
X65238095Y-115870476D01*
X65190476Y-115775238D01*
X65095238Y-115680000D01*
X64952380Y-115632380D01*
X64857142Y-115632380D01*
X64714285Y-115680000D01*
X64666666Y-115727619D01*
X64333333Y-115632380D02*
X63666666Y-115632380D01*
X64095238Y-116632380D01*
X90738095Y-239892380D02*
X90738095Y-238892380D01*
X90357142Y-238892380D01*
X90261904Y-238940000D01*
X90214285Y-238987619D01*
X90166666Y-239082857D01*
X90166666Y-239225714D01*
X90214285Y-239320952D01*
X90261904Y-239368571D01*
X90357142Y-239416190D01*
X90738095Y-239416190D01*
X89214285Y-239892380D02*
X89785714Y-239892380D01*
X89500000Y-239892380D02*
X89500000Y-238892380D01*
X89595238Y-239035238D01*
X89690476Y-239130476D01*
X89785714Y-239178095D01*
X93404761Y-248752380D02*
X93404761Y-247752380D01*
X93023809Y-247752380D01*
X92928571Y-247800000D01*
X92880952Y-247847619D01*
X92833333Y-247942857D01*
X92833333Y-248085714D01*
X92880952Y-248180952D01*
X92928571Y-248228571D01*
X93023809Y-248276190D01*
X93404761Y-248276190D01*
X91833333Y-248657142D02*
X91880952Y-248704761D01*
X92023809Y-248752380D01*
X92119047Y-248752380D01*
X92261904Y-248704761D01*
X92357142Y-248609523D01*
X92404761Y-248514285D01*
X92452380Y-248323809D01*
X92452380Y-248180952D01*
X92404761Y-247990476D01*
X92357142Y-247895238D01*
X92261904Y-247800000D01*
X92119047Y-247752380D01*
X92023809Y-247752380D01*
X91880952Y-247800000D01*
X91833333Y-247847619D01*
X91071428Y-248228571D02*
X90928571Y-248276190D01*
X90880952Y-248323809D01*
X90833333Y-248419047D01*
X90833333Y-248561904D01*
X90880952Y-248657142D01*
X90928571Y-248704761D01*
X91023809Y-248752380D01*
X91404761Y-248752380D01*
X91404761Y-247752380D01*
X91071428Y-247752380D01*
X90976190Y-247800000D01*
X90928571Y-247847619D01*
X90880952Y-247942857D01*
X90880952Y-248038095D01*
X90928571Y-248133333D01*
X90976190Y-248180952D01*
X91071428Y-248228571D01*
X91404761Y-248228571D01*
X89261904Y-248704761D02*
X89357142Y-248752380D01*
X89547619Y-248752380D01*
X89642857Y-248704761D01*
X89690476Y-248609523D01*
X89690476Y-248228571D01*
X89642857Y-248133333D01*
X89547619Y-248085714D01*
X89357142Y-248085714D01*
X89261904Y-248133333D01*
X89214285Y-248228571D01*
X89214285Y-248323809D01*
X89690476Y-248419047D01*
X88357142Y-248752380D02*
X88357142Y-247752380D01*
X88357142Y-248704761D02*
X88452380Y-248752380D01*
X88642857Y-248752380D01*
X88738095Y-248704761D01*
X88785714Y-248657142D01*
X88833333Y-248561904D01*
X88833333Y-248276190D01*
X88785714Y-248180952D01*
X88738095Y-248133333D01*
X88642857Y-248085714D01*
X88452380Y-248085714D01*
X88357142Y-248133333D01*
X87452380Y-248085714D02*
X87452380Y-248895238D01*
X87500000Y-248990476D01*
X87547619Y-249038095D01*
X87642857Y-249085714D01*
X87785714Y-249085714D01*
X87880952Y-249038095D01*
X87452380Y-248704761D02*
X87547619Y-248752380D01*
X87738095Y-248752380D01*
X87833333Y-248704761D01*
X87880952Y-248657142D01*
X87928571Y-248561904D01*
X87928571Y-248276190D01*
X87880952Y-248180952D01*
X87833333Y-248133333D01*
X87738095Y-248085714D01*
X87547619Y-248085714D01*
X87452380Y-248133333D01*
X86595238Y-248704761D02*
X86690476Y-248752380D01*
X86880952Y-248752380D01*
X86976190Y-248704761D01*
X87023809Y-248609523D01*
X87023809Y-248228571D01*
X86976190Y-248133333D01*
X86880952Y-248085714D01*
X86690476Y-248085714D01*
X86595238Y-248133333D01*
X86547619Y-248228571D01*
X86547619Y-248323809D01*
X87023809Y-248419047D01*
X46666666Y-113952380D02*
X47000000Y-113476190D01*
X47238095Y-113952380D02*
X47238095Y-112952380D01*
X46857142Y-112952380D01*
X46761904Y-113000000D01*
X46714285Y-113047619D01*
X46666666Y-113142857D01*
X46666666Y-113285714D01*
X46714285Y-113380952D01*
X46761904Y-113428571D01*
X46857142Y-113476190D01*
X47238095Y-113476190D01*
X45761904Y-112952380D02*
X46238095Y-112952380D01*
X46285714Y-113428571D01*
X46238095Y-113380952D01*
X46142857Y-113333333D01*
X45904761Y-113333333D01*
X45809523Y-113380952D01*
X45761904Y-113428571D01*
X45714285Y-113523809D01*
X45714285Y-113761904D01*
X45761904Y-113857142D01*
X45809523Y-113904761D01*
X45904761Y-113952380D01*
X46142857Y-113952380D01*
X46238095Y-113904761D01*
X46285714Y-113857142D01*
X81022380Y-241773333D02*
X80546190Y-241440000D01*
X81022380Y-241201904D02*
X80022380Y-241201904D01*
X80022380Y-241582857D01*
X80070000Y-241678095D01*
X80117619Y-241725714D01*
X80212857Y-241773333D01*
X80355714Y-241773333D01*
X80450952Y-241725714D01*
X80498571Y-241678095D01*
X80546190Y-241582857D01*
X80546190Y-241201904D01*
X80355714Y-242630476D02*
X81022380Y-242630476D01*
X79974761Y-242392380D02*
X80689047Y-242154285D01*
X80689047Y-242773333D01*
X56261904Y-107352380D02*
X56261904Y-108161904D01*
X56214285Y-108257142D01*
X56166666Y-108304761D01*
X56071428Y-108352380D01*
X55880952Y-108352380D01*
X55785714Y-108304761D01*
X55738095Y-108257142D01*
X55690476Y-108161904D01*
X55690476Y-107352380D01*
X55261904Y-107447619D02*
X55214285Y-107400000D01*
X55119047Y-107352380D01*
X54880952Y-107352380D01*
X54785714Y-107400000D01*
X54738095Y-107447619D01*
X54690476Y-107542857D01*
X54690476Y-107638095D01*
X54738095Y-107780952D01*
X55309523Y-108352380D01*
X54690476Y-108352380D01*
X62602380Y-127738095D02*
X63411904Y-127738095D01*
X63507142Y-127785714D01*
X63554761Y-127833333D01*
X63602380Y-127928571D01*
X63602380Y-128119047D01*
X63554761Y-128214285D01*
X63507142Y-128261904D01*
X63411904Y-128309523D01*
X62602380Y-128309523D01*
X63602380Y-129309523D02*
X63602380Y-128738095D01*
X63602380Y-129023809D02*
X62602380Y-129023809D01*
X62745238Y-128928571D01*
X62840476Y-128833333D01*
X62888095Y-128738095D01*
X190642857Y-221522380D02*
X190976190Y-221046190D01*
X191214285Y-221522380D02*
X191214285Y-220522380D01*
X190833333Y-220522380D01*
X190738095Y-220570000D01*
X190690476Y-220617619D01*
X190642857Y-220712857D01*
X190642857Y-220855714D01*
X190690476Y-220950952D01*
X190738095Y-220998571D01*
X190833333Y-221046190D01*
X191214285Y-221046190D01*
X189690476Y-221522380D02*
X190261904Y-221522380D01*
X189976190Y-221522380D02*
X189976190Y-220522380D01*
X190071428Y-220665238D01*
X190166666Y-220760476D01*
X190261904Y-220808095D01*
X189071428Y-220522380D02*
X188976190Y-220522380D01*
X188880952Y-220570000D01*
X188833333Y-220617619D01*
X188785714Y-220712857D01*
X188738095Y-220903333D01*
X188738095Y-221141428D01*
X188785714Y-221331904D01*
X188833333Y-221427142D01*
X188880952Y-221474761D01*
X188976190Y-221522380D01*
X189071428Y-221522380D01*
X189166666Y-221474761D01*
X189214285Y-221427142D01*
X189261904Y-221331904D01*
X189309523Y-221141428D01*
X189309523Y-220903333D01*
X189261904Y-220712857D01*
X189214285Y-220617619D01*
X189166666Y-220570000D01*
X189071428Y-220522380D01*
X135666666Y-180022380D02*
X136000000Y-179546190D01*
X136238095Y-180022380D02*
X136238095Y-179022380D01*
X135857142Y-179022380D01*
X135761904Y-179070000D01*
X135714285Y-179117619D01*
X135666666Y-179212857D01*
X135666666Y-179355714D01*
X135714285Y-179450952D01*
X135761904Y-179498571D01*
X135857142Y-179546190D01*
X136238095Y-179546190D01*
X135190476Y-180022380D02*
X135000000Y-180022380D01*
X134904761Y-179974761D01*
X134857142Y-179927142D01*
X134761904Y-179784285D01*
X134714285Y-179593809D01*
X134714285Y-179212857D01*
X134761904Y-179117619D01*
X134809523Y-179070000D01*
X134904761Y-179022380D01*
X135095238Y-179022380D01*
X135190476Y-179070000D01*
X135238095Y-179117619D01*
X135285714Y-179212857D01*
X135285714Y-179450952D01*
X135238095Y-179546190D01*
X135190476Y-179593809D01*
X135095238Y-179641428D01*
X134904761Y-179641428D01*
X134809523Y-179593809D01*
X134761904Y-179546190D01*
X134714285Y-179450952D01*
X46666666Y-108177142D02*
X46714285Y-108224761D01*
X46857142Y-108272380D01*
X46952380Y-108272380D01*
X47095238Y-108224761D01*
X47190476Y-108129523D01*
X47238095Y-108034285D01*
X47285714Y-107843809D01*
X47285714Y-107700952D01*
X47238095Y-107510476D01*
X47190476Y-107415238D01*
X47095238Y-107320000D01*
X46952380Y-107272380D01*
X46857142Y-107272380D01*
X46714285Y-107320000D01*
X46666666Y-107367619D01*
X46095238Y-107700952D02*
X46190476Y-107653333D01*
X46238095Y-107605714D01*
X46285714Y-107510476D01*
X46285714Y-107462857D01*
X46238095Y-107367619D01*
X46190476Y-107320000D01*
X46095238Y-107272380D01*
X45904761Y-107272380D01*
X45809523Y-107320000D01*
X45761904Y-107367619D01*
X45714285Y-107462857D01*
X45714285Y-107510476D01*
X45761904Y-107605714D01*
X45809523Y-107653333D01*
X45904761Y-107700952D01*
X46095238Y-107700952D01*
X46190476Y-107748571D01*
X46238095Y-107796190D01*
X46285714Y-107891428D01*
X46285714Y-108081904D01*
X46238095Y-108177142D01*
X46190476Y-108224761D01*
X46095238Y-108272380D01*
X45904761Y-108272380D01*
X45809523Y-108224761D01*
X45761904Y-108177142D01*
X45714285Y-108081904D01*
X45714285Y-107891428D01*
X45761904Y-107796190D01*
X45809523Y-107748571D01*
X45904761Y-107700952D01*
X65416666Y-132537142D02*
X65464285Y-132584761D01*
X65607142Y-132632380D01*
X65702380Y-132632380D01*
X65845238Y-132584761D01*
X65940476Y-132489523D01*
X65988095Y-132394285D01*
X66035714Y-132203809D01*
X66035714Y-132060952D01*
X65988095Y-131870476D01*
X65940476Y-131775238D01*
X65845238Y-131680000D01*
X65702380Y-131632380D01*
X65607142Y-131632380D01*
X65464285Y-131680000D01*
X65416666Y-131727619D01*
X64559523Y-131632380D02*
X64750000Y-131632380D01*
X64845238Y-131680000D01*
X64892857Y-131727619D01*
X64988095Y-131870476D01*
X65035714Y-132060952D01*
X65035714Y-132441904D01*
X64988095Y-132537142D01*
X64940476Y-132584761D01*
X64845238Y-132632380D01*
X64654761Y-132632380D01*
X64559523Y-132584761D01*
X64511904Y-132537142D01*
X64464285Y-132441904D01*
X64464285Y-132203809D01*
X64511904Y-132108571D01*
X64559523Y-132060952D01*
X64654761Y-132013333D01*
X64845238Y-132013333D01*
X64940476Y-132060952D01*
X64988095Y-132108571D01*
X65035714Y-132203809D01*
X46666666Y-120882380D02*
X47000000Y-120406190D01*
X47238095Y-120882380D02*
X47238095Y-119882380D01*
X46857142Y-119882380D01*
X46761904Y-119930000D01*
X46714285Y-119977619D01*
X46666666Y-120072857D01*
X46666666Y-120215714D01*
X46714285Y-120310952D01*
X46761904Y-120358571D01*
X46857142Y-120406190D01*
X47238095Y-120406190D01*
X46333333Y-119882380D02*
X45666666Y-119882380D01*
X46095238Y-120882380D01*
X28467380Y-179666666D02*
X29181666Y-179666666D01*
X29324523Y-179619047D01*
X29419761Y-179523809D01*
X29467380Y-179380952D01*
X29467380Y-179285714D01*
X29467380Y-180666666D02*
X29467380Y-180095238D01*
X29467380Y-180380952D02*
X28467380Y-180380952D01*
X28610238Y-180285714D01*
X28705476Y-180190476D01*
X28753095Y-180095238D01*
D11*
X19936904Y-183500000D02*
X19936904Y-183333333D01*
X19686904Y-183440476D01*
X19710714Y-183238095D02*
X19698809Y-183226190D01*
X19686904Y-183238095D01*
X19698809Y-183250000D01*
X19710714Y-183238095D01*
X19686904Y-183238095D01*
X19936904Y-183142857D02*
X19936904Y-182988095D01*
X19841666Y-183071428D01*
X19841666Y-183035714D01*
X19829761Y-183011904D01*
X19817857Y-183000000D01*
X19794047Y-182988095D01*
X19734523Y-182988095D01*
X19710714Y-183000000D01*
X19698809Y-183011904D01*
X19686904Y-183035714D01*
X19686904Y-183107142D01*
X19698809Y-183130952D01*
X19710714Y-183142857D01*
X19936904Y-182761904D02*
X19936904Y-182880952D01*
X19817857Y-182892857D01*
X19829761Y-182880952D01*
X19841666Y-182857142D01*
X19841666Y-182797619D01*
X19829761Y-182773809D01*
X19817857Y-182761904D01*
X19794047Y-182750000D01*
X19734523Y-182750000D01*
X19710714Y-182761904D01*
X19698809Y-182773809D01*
X19686904Y-182797619D01*
X19686904Y-182857142D01*
X19698809Y-182880952D01*
X19710714Y-182892857D01*
X19686904Y-182642857D02*
X19853571Y-182642857D01*
X19829761Y-182642857D02*
X19841666Y-182630952D01*
X19853571Y-182607142D01*
X19853571Y-182571428D01*
X19841666Y-182547619D01*
X19817857Y-182535714D01*
X19686904Y-182535714D01*
X19817857Y-182535714D02*
X19841666Y-182523809D01*
X19853571Y-182500000D01*
X19853571Y-182464285D01*
X19841666Y-182440476D01*
X19817857Y-182428571D01*
X19686904Y-182428571D01*
X19686904Y-182309523D02*
X19853571Y-182309523D01*
X19829761Y-182309523D02*
X19841666Y-182297619D01*
X19853571Y-182273809D01*
X19853571Y-182238095D01*
X19841666Y-182214285D01*
X19817857Y-182202380D01*
X19686904Y-182202380D01*
X19817857Y-182202380D02*
X19841666Y-182190476D01*
X19853571Y-182166666D01*
X19853571Y-182130952D01*
X19841666Y-182107142D01*
X19817857Y-182095238D01*
X19686904Y-182095238D01*
X19853571Y-181821428D02*
X19853571Y-181726190D01*
X19686904Y-181785714D02*
X19901190Y-181785714D01*
X19925000Y-181773809D01*
X19936904Y-181750000D01*
X19936904Y-181726190D01*
X19686904Y-181642857D02*
X19853571Y-181642857D01*
X19805952Y-181642857D02*
X19829761Y-181630952D01*
X19841666Y-181619047D01*
X19853571Y-181595238D01*
X19853571Y-181571428D01*
X19686904Y-181452380D02*
X19698809Y-181476190D01*
X19710714Y-181488095D01*
X19734523Y-181500000D01*
X19805952Y-181500000D01*
X19829761Y-181488095D01*
X19841666Y-181476190D01*
X19853571Y-181452380D01*
X19853571Y-181416666D01*
X19841666Y-181392857D01*
X19829761Y-181380952D01*
X19805952Y-181369047D01*
X19734523Y-181369047D01*
X19710714Y-181380952D01*
X19698809Y-181392857D01*
X19686904Y-181416666D01*
X19686904Y-181452380D01*
X19686904Y-181261904D02*
X19853571Y-181261904D01*
X19829761Y-181261904D02*
X19841666Y-181250000D01*
X19853571Y-181226190D01*
X19853571Y-181190476D01*
X19841666Y-181166666D01*
X19817857Y-181154761D01*
X19686904Y-181154761D01*
X19817857Y-181154761D02*
X19841666Y-181142857D01*
X19853571Y-181119047D01*
X19853571Y-181083333D01*
X19841666Y-181059523D01*
X19817857Y-181047619D01*
X19686904Y-181047619D01*
X19686904Y-180738095D02*
X19936904Y-180738095D01*
X19841666Y-180738095D02*
X19853571Y-180714285D01*
X19853571Y-180666666D01*
X19841666Y-180642857D01*
X19829761Y-180630952D01*
X19805952Y-180619047D01*
X19734523Y-180619047D01*
X19710714Y-180630952D01*
X19698809Y-180642857D01*
X19686904Y-180666666D01*
X19686904Y-180714285D01*
X19698809Y-180738095D01*
X19686904Y-180404761D02*
X19817857Y-180404761D01*
X19841666Y-180416666D01*
X19853571Y-180440476D01*
X19853571Y-180488095D01*
X19841666Y-180511904D01*
X19698809Y-180404761D02*
X19686904Y-180428571D01*
X19686904Y-180488095D01*
X19698809Y-180511904D01*
X19722619Y-180523809D01*
X19746428Y-180523809D01*
X19770238Y-180511904D01*
X19782142Y-180488095D01*
X19782142Y-180428571D01*
X19794047Y-180404761D01*
X19698809Y-180178571D02*
X19686904Y-180202380D01*
X19686904Y-180250000D01*
X19698809Y-180273809D01*
X19710714Y-180285714D01*
X19734523Y-180297619D01*
X19805952Y-180297619D01*
X19829761Y-180285714D01*
X19841666Y-180273809D01*
X19853571Y-180250000D01*
X19853571Y-180202380D01*
X19841666Y-180178571D01*
X19686904Y-180071428D02*
X19936904Y-180071428D01*
X19782142Y-180047619D02*
X19686904Y-179976190D01*
X19853571Y-179976190D02*
X19758333Y-180071428D01*
X19686904Y-179642857D02*
X19698809Y-179666666D01*
X19710714Y-179678571D01*
X19734523Y-179690476D01*
X19805952Y-179690476D01*
X19829761Y-179678571D01*
X19841666Y-179666666D01*
X19853571Y-179642857D01*
X19853571Y-179607142D01*
X19841666Y-179583333D01*
X19829761Y-179571428D01*
X19805952Y-179559523D01*
X19734523Y-179559523D01*
X19710714Y-179571428D01*
X19698809Y-179583333D01*
X19686904Y-179607142D01*
X19686904Y-179642857D01*
X19853571Y-179488095D02*
X19853571Y-179392857D01*
X19686904Y-179452380D02*
X19901190Y-179452380D01*
X19925000Y-179440476D01*
X19936904Y-179416666D01*
X19936904Y-179392857D01*
X19686904Y-179119047D02*
X19853571Y-179119047D01*
X19829761Y-179119047D02*
X19841666Y-179107142D01*
X19853571Y-179083333D01*
X19853571Y-179047619D01*
X19841666Y-179023809D01*
X19817857Y-179011904D01*
X19686904Y-179011904D01*
X19817857Y-179011904D02*
X19841666Y-179000000D01*
X19853571Y-178976190D01*
X19853571Y-178940476D01*
X19841666Y-178916666D01*
X19817857Y-178904761D01*
X19686904Y-178904761D01*
X19686904Y-178750000D02*
X19698809Y-178773809D01*
X19710714Y-178785714D01*
X19734523Y-178797619D01*
X19805952Y-178797619D01*
X19829761Y-178785714D01*
X19841666Y-178773809D01*
X19853571Y-178750000D01*
X19853571Y-178714285D01*
X19841666Y-178690476D01*
X19829761Y-178678571D01*
X19805952Y-178666666D01*
X19734523Y-178666666D01*
X19710714Y-178678571D01*
X19698809Y-178690476D01*
X19686904Y-178714285D01*
X19686904Y-178750000D01*
X19853571Y-178452380D02*
X19686904Y-178452380D01*
X19853571Y-178559523D02*
X19722619Y-178559523D01*
X19698809Y-178547619D01*
X19686904Y-178523809D01*
X19686904Y-178488095D01*
X19698809Y-178464285D01*
X19710714Y-178452380D01*
X19853571Y-178333333D02*
X19686904Y-178333333D01*
X19829761Y-178333333D02*
X19841666Y-178321428D01*
X19853571Y-178297619D01*
X19853571Y-178261904D01*
X19841666Y-178238095D01*
X19817857Y-178226190D01*
X19686904Y-178226190D01*
X19853571Y-178142857D02*
X19853571Y-178047619D01*
X19936904Y-178107142D02*
X19722619Y-178107142D01*
X19698809Y-178095238D01*
X19686904Y-178071428D01*
X19686904Y-178047619D01*
X19686904Y-177964285D02*
X19853571Y-177964285D01*
X19936904Y-177964285D02*
X19925000Y-177976190D01*
X19913095Y-177964285D01*
X19925000Y-177952380D01*
X19936904Y-177964285D01*
X19913095Y-177964285D01*
X19853571Y-177845238D02*
X19686904Y-177845238D01*
X19829761Y-177845238D02*
X19841666Y-177833333D01*
X19853571Y-177809523D01*
X19853571Y-177773809D01*
X19841666Y-177750000D01*
X19817857Y-177738095D01*
X19686904Y-177738095D01*
X19853571Y-177511904D02*
X19651190Y-177511904D01*
X19627380Y-177523809D01*
X19615476Y-177535714D01*
X19603571Y-177559523D01*
X19603571Y-177595238D01*
X19615476Y-177619047D01*
X19698809Y-177511904D02*
X19686904Y-177535714D01*
X19686904Y-177583333D01*
X19698809Y-177607142D01*
X19710714Y-177619047D01*
X19734523Y-177630952D01*
X19805952Y-177630952D01*
X19829761Y-177619047D01*
X19841666Y-177607142D01*
X19853571Y-177583333D01*
X19853571Y-177535714D01*
X19841666Y-177511904D01*
X19686904Y-177202380D02*
X19936904Y-177202380D01*
X19686904Y-177095238D02*
X19817857Y-177095238D01*
X19841666Y-177107142D01*
X19853571Y-177130952D01*
X19853571Y-177166666D01*
X19841666Y-177190476D01*
X19829761Y-177202380D01*
X19686904Y-176940476D02*
X19698809Y-176964285D01*
X19710714Y-176976190D01*
X19734523Y-176988095D01*
X19805952Y-176988095D01*
X19829761Y-176976190D01*
X19841666Y-176964285D01*
X19853571Y-176940476D01*
X19853571Y-176904761D01*
X19841666Y-176880952D01*
X19829761Y-176869047D01*
X19805952Y-176857142D01*
X19734523Y-176857142D01*
X19710714Y-176869047D01*
X19698809Y-176880952D01*
X19686904Y-176904761D01*
X19686904Y-176940476D01*
X19686904Y-176714285D02*
X19698809Y-176738095D01*
X19722619Y-176750000D01*
X19936904Y-176750000D01*
X19698809Y-176523809D02*
X19686904Y-176547619D01*
X19686904Y-176595238D01*
X19698809Y-176619047D01*
X19722619Y-176630952D01*
X19817857Y-176630952D01*
X19841666Y-176619047D01*
X19853571Y-176595238D01*
X19853571Y-176547619D01*
X19841666Y-176523809D01*
X19817857Y-176511904D01*
X19794047Y-176511904D01*
X19770238Y-176630952D01*
D10*
X27166666Y-171022380D02*
X27500000Y-170546190D01*
X27738095Y-171022380D02*
X27738095Y-170022380D01*
X27357142Y-170022380D01*
X27261904Y-170070000D01*
X27214285Y-170117619D01*
X27166666Y-170212857D01*
X27166666Y-170355714D01*
X27214285Y-170450952D01*
X27261904Y-170498571D01*
X27357142Y-170546190D01*
X27738095Y-170546190D01*
X26214285Y-171022380D02*
X26785714Y-171022380D01*
X26500000Y-171022380D02*
X26500000Y-170022380D01*
X26595238Y-170165238D01*
X26690476Y-170260476D01*
X26785714Y-170308095D01*
X158666666Y-209177142D02*
X158714285Y-209224761D01*
X158857142Y-209272380D01*
X158952380Y-209272380D01*
X159095238Y-209224761D01*
X159190476Y-209129523D01*
X159238095Y-209034285D01*
X159285714Y-208843809D01*
X159285714Y-208700952D01*
X159238095Y-208510476D01*
X159190476Y-208415238D01*
X159095238Y-208320000D01*
X158952380Y-208272380D01*
X158857142Y-208272380D01*
X158714285Y-208320000D01*
X158666666Y-208367619D01*
X158333333Y-208272380D02*
X157714285Y-208272380D01*
X158047619Y-208653333D01*
X157904761Y-208653333D01*
X157809523Y-208700952D01*
X157761904Y-208748571D01*
X157714285Y-208843809D01*
X157714285Y-209081904D01*
X157761904Y-209177142D01*
X157809523Y-209224761D01*
X157904761Y-209272380D01*
X158190476Y-209272380D01*
X158285714Y-209224761D01*
X158333333Y-209177142D01*
X58357142Y-124583333D02*
X58404761Y-124535714D01*
X58452380Y-124392857D01*
X58452380Y-124297619D01*
X58404761Y-124154761D01*
X58309523Y-124059523D01*
X58214285Y-124011904D01*
X58023809Y-123964285D01*
X57880952Y-123964285D01*
X57690476Y-124011904D01*
X57595238Y-124059523D01*
X57500000Y-124154761D01*
X57452380Y-124297619D01*
X57452380Y-124392857D01*
X57500000Y-124535714D01*
X57547619Y-124583333D01*
X57785714Y-125440476D02*
X58452380Y-125440476D01*
X57404761Y-125202380D02*
X58119047Y-124964285D01*
X58119047Y-125583333D01*
X56272380Y-131583333D02*
X55796190Y-131250000D01*
X56272380Y-131011904D02*
X55272380Y-131011904D01*
X55272380Y-131392857D01*
X55320000Y-131488095D01*
X55367619Y-131535714D01*
X55462857Y-131583333D01*
X55605714Y-131583333D01*
X55700952Y-131535714D01*
X55748571Y-131488095D01*
X55796190Y-131392857D01*
X55796190Y-131011904D01*
X55367619Y-131964285D02*
X55320000Y-132011904D01*
X55272380Y-132107142D01*
X55272380Y-132345238D01*
X55320000Y-132440476D01*
X55367619Y-132488095D01*
X55462857Y-132535714D01*
X55558095Y-132535714D01*
X55700952Y-132488095D01*
X56272380Y-131916666D01*
X56272380Y-132535714D01*
X138666666Y-158677142D02*
X138714285Y-158724761D01*
X138857142Y-158772380D01*
X138952380Y-158772380D01*
X139095238Y-158724761D01*
X139190476Y-158629523D01*
X139238095Y-158534285D01*
X139285714Y-158343809D01*
X139285714Y-158200952D01*
X139238095Y-158010476D01*
X139190476Y-157915238D01*
X139095238Y-157820000D01*
X138952380Y-157772380D01*
X138857142Y-157772380D01*
X138714285Y-157820000D01*
X138666666Y-157867619D01*
X138285714Y-157867619D02*
X138238095Y-157820000D01*
X138142857Y-157772380D01*
X137904761Y-157772380D01*
X137809523Y-157820000D01*
X137761904Y-157867619D01*
X137714285Y-157962857D01*
X137714285Y-158058095D01*
X137761904Y-158200952D01*
X138333333Y-158772380D01*
X137714285Y-158772380D01*
X60252380Y-133761904D02*
X59252380Y-133761904D01*
X59252380Y-134000000D01*
X59300000Y-134142857D01*
X59395238Y-134238095D01*
X59490476Y-134285714D01*
X59680952Y-134333333D01*
X59823809Y-134333333D01*
X60014285Y-134285714D01*
X60109523Y-134238095D01*
X60204761Y-134142857D01*
X60252380Y-134000000D01*
X60252380Y-133761904D01*
X59585714Y-135190476D02*
X60252380Y-135190476D01*
X59204761Y-134952380D02*
X59919047Y-134714285D01*
X59919047Y-135333333D01*
X64287142Y-124583333D02*
X64334761Y-124535714D01*
X64382380Y-124392857D01*
X64382380Y-124297619D01*
X64334761Y-124154761D01*
X64239523Y-124059523D01*
X64144285Y-124011904D01*
X63953809Y-123964285D01*
X63810952Y-123964285D01*
X63620476Y-124011904D01*
X63525238Y-124059523D01*
X63430000Y-124154761D01*
X63382380Y-124297619D01*
X63382380Y-124392857D01*
X63430000Y-124535714D01*
X63477619Y-124583333D01*
X63382380Y-125488095D02*
X63382380Y-125011904D01*
X63858571Y-124964285D01*
X63810952Y-125011904D01*
X63763333Y-125107142D01*
X63763333Y-125345238D01*
X63810952Y-125440476D01*
X63858571Y-125488095D01*
X63953809Y-125535714D01*
X64191904Y-125535714D01*
X64287142Y-125488095D01*
X64334761Y-125440476D01*
X64382380Y-125345238D01*
X64382380Y-125107142D01*
X64334761Y-125011904D01*
X64287142Y-124964285D01*
D12*
X159425000Y-216425000D02*
X159425000Y-214775000D01*
X159425000Y-214775000D02*
X157775000Y-214775000D01*
X158950000Y-215500000D02*
X159250000Y-215500000D01*
X157775000Y-214775000D02*
X157775000Y-216425000D01*
X159100000Y-215500000D02*
X159100000Y-215700000D01*
X159100000Y-215700000D02*
X159250000Y-215500000D01*
X159100000Y-215700000D02*
X158950000Y-215500000D01*
X157775000Y-216425000D02*
X159425000Y-216425000D01*
D10*
X130100000Y-169300000D02*
G75*
G03*
X130100000Y-169300000I-1500000J0D01*
G01*
D12*
X55150000Y-170200000D02*
X55450000Y-170200000D01*
X53975000Y-169475000D02*
X53975000Y-171125000D01*
X55300000Y-170400000D02*
X55450000Y-170200000D01*
X55625000Y-169475000D02*
X53975000Y-169475000D01*
X53975000Y-171125000D02*
X55625000Y-171125000D01*
X55625000Y-171125000D02*
X55625000Y-169475000D01*
X55300000Y-170200000D02*
X55300000Y-170400000D01*
X55300000Y-170400000D02*
X55150000Y-170200000D01*
X138700000Y-164300000D02*
X138700000Y-164500000D01*
X138550000Y-164300000D02*
X138850000Y-164300000D01*
X139025000Y-165225000D02*
X139025000Y-163575000D01*
X138700000Y-164500000D02*
X138850000Y-164300000D01*
X138700000Y-164500000D02*
X138550000Y-164300000D01*
X137375000Y-163575000D02*
X137375000Y-165225000D01*
X137375000Y-165225000D02*
X139025000Y-165225000D01*
X139025000Y-163575000D02*
X137375000Y-163575000D01*
D10*
X156900000Y-77700000D02*
G75*
G03*
X156900000Y-77700000I-1500000J0D01*
G01*
X184900000Y-210900000D02*
G75*
G03*
X184900000Y-210900000I-1500000J0D01*
G01*
X156900000Y-63300000D02*
G75*
G03*
X156900000Y-63300000I-1500000J0D01*
G01*
X184900000Y-225300000D02*
G75*
G03*
X184900000Y-225300000I-1500000J0D01*
G01*
X130100000Y-183700000D02*
G75*
G03*
X130100000Y-183700000I-1500000J0D01*
G01*
X41500000Y-153500000D02*
G75*
G03*
X41500000Y-153500000I-1500000J0D01*
G01*
X41500000Y-167900000D02*
G75*
G03*
X41500000Y-167900000I-1500000J0D01*
G01*
D12*
X46262742Y-117522500D02*
X46737258Y-117522500D01*
X46262742Y-116477500D02*
X46737258Y-116477500D01*
G36*
X97063594Y-246890434D02*
G01*
X97102151Y-246912069D01*
X97132605Y-246945269D01*
X97145358Y-246969211D01*
X97155824Y-247003347D01*
X97160962Y-247045354D01*
X97161056Y-247097851D01*
X97156392Y-247163452D01*
X97146964Y-247262353D01*
X97136193Y-247374893D01*
X97125972Y-247481197D01*
X97116411Y-247580149D01*
X97107617Y-247670634D01*
X97099701Y-247751536D01*
X97092772Y-247821742D01*
X97086939Y-247880135D01*
X97082311Y-247925600D01*
X97078997Y-247957023D01*
X97077107Y-247973288D01*
X97070176Y-248000337D01*
X97048964Y-248032538D01*
X97027769Y-248049191D01*
X97002907Y-248055107D01*
X96972356Y-248047919D01*
X96958093Y-248040807D01*
X96944914Y-248028309D01*
X96934783Y-248009062D01*
X96926834Y-247980668D01*
X96920197Y-247940730D01*
X96914003Y-247886850D01*
X96912219Y-247869278D01*
X96898386Y-247732519D01*
X96886215Y-247610932D01*
X96875645Y-247503549D01*
X96866619Y-247409405D01*
X96859075Y-247327534D01*
X96852955Y-247256969D01*
X96848198Y-247196746D01*
X96844746Y-247145897D01*
X96842540Y-247103456D01*
X96841518Y-247068459D01*
X96841623Y-247039938D01*
X96842794Y-247016928D01*
X96844972Y-246998462D01*
X96848098Y-246983575D01*
X96852111Y-246971301D01*
X96856953Y-246960674D01*
X96863515Y-246949332D01*
X96893625Y-246915884D01*
X96931951Y-246893087D01*
X96975231Y-246881125D01*
X97020200Y-246880180D01*
X97063594Y-246890434D01*
G37*
G36*
X98679838Y-248762296D02*
G01*
X98674877Y-248788826D01*
X98655766Y-248843273D01*
X98627066Y-248894214D01*
X98591955Y-248935391D01*
X98574681Y-248950776D01*
X98546062Y-248972686D01*
X98517796Y-248987969D01*
X98483301Y-249000571D01*
X98479152Y-249001467D01*
X98467957Y-249002718D01*
X98450275Y-249003853D01*
X98425491Y-249004875D01*
X98392989Y-249005788D01*
X98352153Y-249006595D01*
X98302366Y-249007300D01*
X98243012Y-249007907D01*
X98173476Y-249008419D01*
X98093140Y-249008839D01*
X98001389Y-249009173D01*
X97897606Y-249009422D01*
X97781176Y-249009591D01*
X97651481Y-249009684D01*
X97507907Y-249009704D01*
X97349836Y-249009654D01*
X97176653Y-249009538D01*
X96987742Y-249009360D01*
X95524872Y-249007818D01*
X95486320Y-248990008D01*
X95450502Y-248969038D01*
X95410257Y-248936361D01*
X95375148Y-248898840D01*
X95350384Y-248861405D01*
X95347272Y-248854975D01*
X95326961Y-248796721D01*
X95319936Y-248744728D01*
X95547241Y-248744728D01*
X95553430Y-248760669D01*
X95566836Y-248774310D01*
X95588369Y-248791248D01*
X98411631Y-248791248D01*
X98433165Y-248774310D01*
X98444310Y-248763678D01*
X98451994Y-248748537D01*
X98452156Y-248729289D01*
X98444331Y-248703614D01*
X98428053Y-248669194D01*
X98402854Y-248623713D01*
X98386965Y-248596130D01*
X98360858Y-248550842D01*
X98331096Y-248499242D01*
X98300243Y-248445774D01*
X98270861Y-248394884D01*
X98245655Y-248351205D01*
X98218858Y-248304701D01*
X98194417Y-248262221D01*
X98174274Y-248227139D01*
X98160371Y-248202831D01*
X98157177Y-248197226D01*
X98127768Y-248145797D01*
X98093173Y-248085611D01*
X98052621Y-248015333D01*
X98005341Y-247933627D01*
X97950564Y-247839157D01*
X97949607Y-247837509D01*
X97916302Y-247780022D01*
X97878043Y-247713842D01*
X97837901Y-247644289D01*
X97798947Y-247576684D01*
X97764250Y-247516345D01*
X97752464Y-247495833D01*
X97722428Y-247443655D01*
X97693320Y-247393214D01*
X97666938Y-247347622D01*
X97645083Y-247309990D01*
X97629553Y-247283430D01*
X97623770Y-247273584D01*
X97603286Y-247238515D01*
X97578260Y-247195468D01*
X97551335Y-247148991D01*
X97525151Y-247103635D01*
X97518595Y-247092260D01*
X97495169Y-247051635D01*
X97465810Y-247000755D01*
X97432180Y-246942496D01*
X97395939Y-246879736D01*
X97358749Y-246815351D01*
X97322271Y-246752220D01*
X97309507Y-246730125D01*
X97272647Y-246666233D01*
X97235720Y-246602110D01*
X97200376Y-246540630D01*
X97168270Y-246484669D01*
X97141051Y-246437102D01*
X97120372Y-246400804D01*
X97107114Y-246377671D01*
X97084405Y-246339073D01*
X97064205Y-246305974D01*
X97048319Y-246281306D01*
X97038554Y-246268002D01*
X97035605Y-246265005D01*
X97011331Y-246251629D01*
X96985145Y-246252628D01*
X96961893Y-246268002D01*
X96959011Y-246271799D01*
X96947527Y-246289369D01*
X96929626Y-246318374D01*
X96906433Y-246356933D01*
X96879075Y-246403166D01*
X96848676Y-246455193D01*
X96816363Y-246511132D01*
X96782866Y-246569391D01*
X96737982Y-246647327D01*
X96689963Y-246730592D01*
X96641560Y-246814422D01*
X96595524Y-246894048D01*
X96554606Y-246964704D01*
X96534177Y-246999971D01*
X96503705Y-247052633D01*
X96466656Y-247116709D01*
X96423880Y-247190728D01*
X96376225Y-247273218D01*
X96324541Y-247362709D01*
X96269679Y-247457729D01*
X96212488Y-247556806D01*
X96153817Y-247658471D01*
X96094516Y-247761250D01*
X96035436Y-247863674D01*
X96027706Y-247877076D01*
X95971067Y-247975277D01*
X95915927Y-248070877D01*
X95862953Y-248162719D01*
X95812810Y-248249648D01*
X95766167Y-248330508D01*
X95723689Y-248404143D01*
X95686043Y-248469398D01*
X95653896Y-248525117D01*
X95627915Y-248570144D01*
X95608766Y-248603324D01*
X95597117Y-248623500D01*
X95576622Y-248660001D01*
X95558373Y-248696706D01*
X95548734Y-248724178D01*
X95547241Y-248744728D01*
X95319936Y-248744728D01*
X95318907Y-248737116D01*
X95323859Y-248681248D01*
X95324934Y-248676514D01*
X95328518Y-248662186D01*
X95332941Y-248647820D01*
X95338941Y-248632007D01*
X95347260Y-248613341D01*
X95358639Y-248590414D01*
X95373819Y-248561818D01*
X95393540Y-248526147D01*
X95418543Y-248481993D01*
X95449569Y-248427947D01*
X95487358Y-248362604D01*
X95532652Y-248284556D01*
X95565915Y-248227270D01*
X95602153Y-248164828D01*
X95636460Y-248105681D01*
X95667579Y-248051998D01*
X95694254Y-248005945D01*
X95715229Y-247969690D01*
X95729248Y-247945399D01*
X95730032Y-247944035D01*
X95806957Y-247810477D01*
X95887185Y-247671382D01*
X95972365Y-247523894D01*
X96064147Y-247365154D01*
X96101514Y-247300549D01*
X96171695Y-247179158D01*
X96240329Y-247060375D01*
X96306812Y-246945249D01*
X96370539Y-246834829D01*
X96430907Y-246730164D01*
X96487310Y-246632302D01*
X96539146Y-246542291D01*
X96585809Y-246461180D01*
X96626696Y-246390017D01*
X96661201Y-246329852D01*
X96688722Y-246281733D01*
X96708653Y-246246708D01*
X96712950Y-246239169D01*
X96752316Y-246175139D01*
X96789633Y-246125032D01*
X96826850Y-246087149D01*
X96865913Y-246059794D01*
X96908769Y-246041268D01*
X96957366Y-246029875D01*
X96977927Y-246027375D01*
X97042596Y-246029729D01*
X97104564Y-246046821D01*
X97160864Y-246077576D01*
X97208527Y-246120918D01*
X97212824Y-246126260D01*
X97221097Y-246137773D01*
X97232034Y-246154248D01*
X97246088Y-246176454D01*
X97263713Y-246205161D01*
X97285363Y-246241139D01*
X97311492Y-246285155D01*
X97342552Y-246337980D01*
X97378997Y-246400382D01*
X97421281Y-246473131D01*
X97469858Y-246556996D01*
X97525181Y-246652746D01*
X97587703Y-246761151D01*
X97657878Y-246882979D01*
X97690020Y-246938798D01*
X97759615Y-247059601D01*
X97825552Y-247173973D01*
X97886713Y-247279979D01*
X97941981Y-247375679D01*
X97990238Y-247459137D01*
X98007979Y-247489796D01*
X98048662Y-247560120D01*
X98084776Y-247622578D01*
X98118442Y-247680842D01*
X98151779Y-247738584D01*
X98186908Y-247799476D01*
X98225950Y-247867190D01*
X98271025Y-247945399D01*
X98288832Y-247976287D01*
X98324132Y-248037474D01*
X98360169Y-248099880D01*
X98394720Y-248159659D01*
X98425562Y-248212965D01*
X98450473Y-248255952D01*
X98496978Y-248336179D01*
X98540489Y-248411606D01*
X98576887Y-248475421D01*
X98606764Y-248528931D01*
X98630711Y-248573441D01*
X98649321Y-248610258D01*
X98663184Y-248640688D01*
X98672894Y-248666037D01*
X98679041Y-248687612D01*
X98682217Y-248706719D01*
X98683014Y-248724665D01*
X98682761Y-248729289D01*
X98682024Y-248742755D01*
X98679838Y-248762296D01*
G37*
G36*
X97033961Y-248206484D02*
G01*
X97080619Y-248223462D01*
X97114975Y-248247987D01*
X97144575Y-248284589D01*
X97161964Y-248326555D01*
X97167247Y-248371067D01*
X97160533Y-248415309D01*
X97141927Y-248456460D01*
X97111536Y-248491705D01*
X97069466Y-248518224D01*
X97054507Y-248523488D01*
X97013281Y-248529085D01*
X96969239Y-248525488D01*
X96929685Y-248512973D01*
X96910687Y-248501825D01*
X96876726Y-248469930D01*
X96852098Y-248429714D01*
X96838969Y-248385308D01*
X96839504Y-248340846D01*
X96846112Y-248315887D01*
X96868634Y-248272477D01*
X96901376Y-248238519D01*
X96941642Y-248215326D01*
X96986736Y-248204210D01*
X97033961Y-248206484D01*
G37*
X55261252Y-164735000D02*
X54738748Y-164735000D01*
X55261252Y-163265000D02*
X54738748Y-163265000D01*
X65772500Y-134737258D02*
X65772500Y-134262742D01*
X64727500Y-134737258D02*
X64727500Y-134262742D01*
G36*
X21659154Y-186839504D02*
G01*
X21684113Y-186846112D01*
X21727523Y-186868634D01*
X21761481Y-186901376D01*
X21784674Y-186941642D01*
X21795790Y-186986736D01*
X21793516Y-187033961D01*
X21776538Y-187080619D01*
X21752013Y-187114975D01*
X21715411Y-187144575D01*
X21673445Y-187161964D01*
X21628933Y-187167247D01*
X21584691Y-187160533D01*
X21543540Y-187141927D01*
X21508295Y-187111536D01*
X21481776Y-187069466D01*
X21476512Y-187054507D01*
X21470915Y-187013281D01*
X21474512Y-186969239D01*
X21487027Y-186929685D01*
X21498175Y-186910687D01*
X21530070Y-186876726D01*
X21570286Y-186852098D01*
X21614692Y-186838969D01*
X21659154Y-186839504D01*
G37*
G36*
X21237704Y-188679838D02*
G01*
X21211174Y-188674877D01*
X21156727Y-188655766D01*
X21105786Y-188627066D01*
X21064609Y-188591955D01*
X21049224Y-188574681D01*
X21027314Y-188546062D01*
X21012031Y-188517796D01*
X20999429Y-188483301D01*
X20998533Y-188479152D01*
X20997282Y-188467957D01*
X20996147Y-188450275D01*
X20995125Y-188425491D01*
X20994736Y-188411631D01*
X21208752Y-188411631D01*
X21225690Y-188433165D01*
X21236322Y-188444310D01*
X21251463Y-188451994D01*
X21270711Y-188452156D01*
X21296386Y-188444331D01*
X21330806Y-188428053D01*
X21376287Y-188402854D01*
X21403870Y-188386965D01*
X21449158Y-188360858D01*
X21500758Y-188331096D01*
X21554226Y-188300243D01*
X21605116Y-188270861D01*
X21648795Y-188245655D01*
X21695299Y-188218858D01*
X21737779Y-188194417D01*
X21772861Y-188174274D01*
X21797169Y-188160371D01*
X21802774Y-188157177D01*
X21854203Y-188127768D01*
X21914389Y-188093173D01*
X21984667Y-188052621D01*
X22066373Y-188005341D01*
X22160843Y-187950564D01*
X22162491Y-187949607D01*
X22219978Y-187916302D01*
X22286158Y-187878043D01*
X22355711Y-187837901D01*
X22423316Y-187798947D01*
X22483655Y-187764250D01*
X22504167Y-187752464D01*
X22556345Y-187722428D01*
X22606786Y-187693320D01*
X22652378Y-187666938D01*
X22690010Y-187645083D01*
X22716570Y-187629553D01*
X22726416Y-187623770D01*
X22761485Y-187603286D01*
X22804532Y-187578260D01*
X22851009Y-187551335D01*
X22896365Y-187525151D01*
X22907740Y-187518595D01*
X22948365Y-187495169D01*
X22999245Y-187465810D01*
X23057504Y-187432180D01*
X23120264Y-187395939D01*
X23184649Y-187358749D01*
X23247780Y-187322271D01*
X23269875Y-187309507D01*
X23333767Y-187272647D01*
X23397890Y-187235720D01*
X23459370Y-187200376D01*
X23515331Y-187168270D01*
X23562898Y-187141051D01*
X23599196Y-187120372D01*
X23622329Y-187107114D01*
X23660927Y-187084405D01*
X23694026Y-187064205D01*
X23718694Y-187048319D01*
X23731998Y-187038554D01*
X23734995Y-187035605D01*
X23748371Y-187011331D01*
X23747372Y-186985145D01*
X23731998Y-186961893D01*
X23728201Y-186959011D01*
X23710631Y-186947527D01*
X23681626Y-186929626D01*
X23643067Y-186906433D01*
X23596834Y-186879075D01*
X23544807Y-186848676D01*
X23488868Y-186816363D01*
X23430609Y-186782866D01*
X23352673Y-186737982D01*
X23269408Y-186689963D01*
X23185578Y-186641560D01*
X23105952Y-186595524D01*
X23035296Y-186554606D01*
X23000029Y-186534177D01*
X22947367Y-186503705D01*
X22883291Y-186466656D01*
X22809272Y-186423880D01*
X22726782Y-186376225D01*
X22637291Y-186324541D01*
X22542271Y-186269679D01*
X22443194Y-186212488D01*
X22341529Y-186153817D01*
X22238750Y-186094516D01*
X22136326Y-186035436D01*
X22122924Y-186027706D01*
X22024723Y-185971067D01*
X21929123Y-185915927D01*
X21837281Y-185862953D01*
X21750352Y-185812810D01*
X21669492Y-185766167D01*
X21595857Y-185723689D01*
X21530602Y-185686043D01*
X21474883Y-185653896D01*
X21429856Y-185627915D01*
X21396676Y-185608766D01*
X21376500Y-185597117D01*
X21339999Y-185576622D01*
X21303294Y-185558373D01*
X21275822Y-185548734D01*
X21255272Y-185547241D01*
X21239331Y-185553430D01*
X21225690Y-185566836D01*
X21208752Y-185588369D01*
X21208752Y-188411631D01*
X20994736Y-188411631D01*
X20994212Y-188392989D01*
X20993405Y-188352153D01*
X20992700Y-188302366D01*
X20992093Y-188243012D01*
X20991581Y-188173476D01*
X20991161Y-188093140D01*
X20990827Y-188001389D01*
X20990578Y-187897606D01*
X20990409Y-187781176D01*
X20990316Y-187651481D01*
X20990296Y-187507907D01*
X20990346Y-187349836D01*
X20990462Y-187176653D01*
X20990640Y-186987742D01*
X20992182Y-185524872D01*
X21009992Y-185486320D01*
X21030962Y-185450502D01*
X21063639Y-185410257D01*
X21101160Y-185375148D01*
X21138595Y-185350384D01*
X21145025Y-185347272D01*
X21203279Y-185326961D01*
X21262884Y-185318907D01*
X21318752Y-185323859D01*
X21323486Y-185324934D01*
X21337814Y-185328518D01*
X21352180Y-185332941D01*
X21367993Y-185338941D01*
X21386659Y-185347260D01*
X21409586Y-185358639D01*
X21438182Y-185373819D01*
X21473853Y-185393540D01*
X21518007Y-185418543D01*
X21572053Y-185449569D01*
X21637396Y-185487358D01*
X21715444Y-185532652D01*
X21772730Y-185565915D01*
X21835172Y-185602153D01*
X21894319Y-185636460D01*
X21948002Y-185667579D01*
X21994055Y-185694254D01*
X22030310Y-185715229D01*
X22054601Y-185729248D01*
X22055965Y-185730032D01*
X22189523Y-185806957D01*
X22328618Y-185887185D01*
X22476106Y-185972365D01*
X22634846Y-186064147D01*
X22699451Y-186101514D01*
X22820842Y-186171695D01*
X22939625Y-186240329D01*
X23054751Y-186306812D01*
X23165171Y-186370539D01*
X23269836Y-186430907D01*
X23367698Y-186487310D01*
X23457709Y-186539146D01*
X23538820Y-186585809D01*
X23609983Y-186626696D01*
X23670148Y-186661201D01*
X23718267Y-186688722D01*
X23753292Y-186708653D01*
X23760831Y-186712950D01*
X23824861Y-186752316D01*
X23874968Y-186789633D01*
X23912851Y-186826850D01*
X23940206Y-186865913D01*
X23958732Y-186908769D01*
X23970125Y-186957366D01*
X23972625Y-186977927D01*
X23970271Y-187042596D01*
X23953179Y-187104564D01*
X23922424Y-187160864D01*
X23879082Y-187208527D01*
X23873740Y-187212824D01*
X23862227Y-187221097D01*
X23845752Y-187232034D01*
X23823546Y-187246088D01*
X23794839Y-187263713D01*
X23758861Y-187285363D01*
X23714845Y-187311492D01*
X23662020Y-187342552D01*
X23599618Y-187378997D01*
X23526869Y-187421281D01*
X23443004Y-187469858D01*
X23347254Y-187525181D01*
X23238849Y-187587703D01*
X23117021Y-187657878D01*
X23061202Y-187690020D01*
X22940399Y-187759615D01*
X22826027Y-187825552D01*
X22720021Y-187886713D01*
X22624321Y-187941981D01*
X22540863Y-187990238D01*
X22510204Y-188007979D01*
X22439880Y-188048662D01*
X22377422Y-188084776D01*
X22319158Y-188118442D01*
X22261416Y-188151779D01*
X22200524Y-188186908D01*
X22132810Y-188225950D01*
X22054601Y-188271025D01*
X22023713Y-188288832D01*
X21962526Y-188324132D01*
X21900120Y-188360169D01*
X21840341Y-188394720D01*
X21787035Y-188425562D01*
X21744048Y-188450473D01*
X21663821Y-188496978D01*
X21588394Y-188540489D01*
X21524579Y-188576887D01*
X21471069Y-188606764D01*
X21426559Y-188630711D01*
X21389742Y-188649321D01*
X21359312Y-188663184D01*
X21333963Y-188672894D01*
X21312388Y-188679041D01*
X21293281Y-188682217D01*
X21275335Y-188683014D01*
X21270711Y-188682761D01*
X21257245Y-188682024D01*
X21237704Y-188679838D01*
G37*
G36*
X22960062Y-186841623D02*
G01*
X22983072Y-186842794D01*
X23001538Y-186844972D01*
X23016425Y-186848098D01*
X23028699Y-186852111D01*
X23039326Y-186856953D01*
X23050668Y-186863515D01*
X23084116Y-186893625D01*
X23106913Y-186931951D01*
X23118875Y-186975231D01*
X23119820Y-187020200D01*
X23109566Y-187063594D01*
X23087931Y-187102151D01*
X23054731Y-187132605D01*
X23030789Y-187145358D01*
X22996653Y-187155824D01*
X22954646Y-187160962D01*
X22902149Y-187161056D01*
X22836548Y-187156392D01*
X22737647Y-187146964D01*
X22625107Y-187136193D01*
X22518803Y-187125972D01*
X22419851Y-187116411D01*
X22329366Y-187107617D01*
X22248464Y-187099701D01*
X22178258Y-187092772D01*
X22119865Y-187086939D01*
X22074400Y-187082311D01*
X22042977Y-187078997D01*
X22026712Y-187077107D01*
X21999663Y-187070176D01*
X21967462Y-187048964D01*
X21950809Y-187027769D01*
X21944893Y-187002907D01*
X21952081Y-186972356D01*
X21959193Y-186958093D01*
X21971691Y-186944914D01*
X21990938Y-186934783D01*
X22019332Y-186926834D01*
X22059270Y-186920197D01*
X22113150Y-186914003D01*
X22130722Y-186912219D01*
X22267481Y-186898386D01*
X22389068Y-186886215D01*
X22496451Y-186875645D01*
X22590595Y-186866619D01*
X22672466Y-186859075D01*
X22743031Y-186852955D01*
X22803254Y-186848198D01*
X22854103Y-186844746D01*
X22896544Y-186842540D01*
X22931541Y-186841518D01*
X22960062Y-186841623D01*
G37*
X44237258Y-165522500D02*
X43762742Y-165522500D01*
X44237258Y-164477500D02*
X43762742Y-164477500D01*
X64238748Y-115235000D02*
X64761252Y-115235000D01*
X64238748Y-113765000D02*
X64761252Y-113765000D01*
G36*
X84679838Y-248762296D02*
G01*
X84674877Y-248788826D01*
X84655766Y-248843273D01*
X84627066Y-248894214D01*
X84591955Y-248935391D01*
X84574681Y-248950776D01*
X84546062Y-248972686D01*
X84517796Y-248987969D01*
X84483301Y-249000571D01*
X84479152Y-249001467D01*
X84467957Y-249002718D01*
X84450275Y-249003853D01*
X84425491Y-249004875D01*
X84392989Y-249005788D01*
X84352153Y-249006595D01*
X84302366Y-249007300D01*
X84243012Y-249007907D01*
X84173476Y-249008419D01*
X84093140Y-249008839D01*
X84001389Y-249009173D01*
X83897606Y-249009422D01*
X83781176Y-249009591D01*
X83651481Y-249009684D01*
X83507907Y-249009704D01*
X83349836Y-249009654D01*
X83176653Y-249009538D01*
X82987742Y-249009360D01*
X81524872Y-249007818D01*
X81486320Y-248990008D01*
X81450502Y-248969038D01*
X81410257Y-248936361D01*
X81375148Y-248898840D01*
X81350384Y-248861405D01*
X81347272Y-248854975D01*
X81326961Y-248796721D01*
X81319936Y-248744728D01*
X81547241Y-248744728D01*
X81553430Y-248760669D01*
X81566836Y-248774310D01*
X81588369Y-248791248D01*
X84411631Y-248791248D01*
X84433165Y-248774310D01*
X84444310Y-248763678D01*
X84451994Y-248748537D01*
X84452156Y-248729289D01*
X84444331Y-248703614D01*
X84428053Y-248669194D01*
X84402854Y-248623713D01*
X84386965Y-248596130D01*
X84360858Y-248550842D01*
X84331096Y-248499242D01*
X84300243Y-248445774D01*
X84270861Y-248394884D01*
X84245655Y-248351205D01*
X84218858Y-248304701D01*
X84194417Y-248262221D01*
X84174274Y-248227139D01*
X84160371Y-248202831D01*
X84157177Y-248197226D01*
X84127768Y-248145797D01*
X84093173Y-248085611D01*
X84052621Y-248015333D01*
X84005341Y-247933627D01*
X83950564Y-247839157D01*
X83949607Y-247837509D01*
X83916302Y-247780022D01*
X83878043Y-247713842D01*
X83837901Y-247644289D01*
X83798947Y-247576684D01*
X83764250Y-247516345D01*
X83752464Y-247495833D01*
X83722428Y-247443655D01*
X83693320Y-247393214D01*
X83666938Y-247347622D01*
X83645083Y-247309990D01*
X83629553Y-247283430D01*
X83623770Y-247273584D01*
X83603286Y-247238515D01*
X83578260Y-247195468D01*
X83551335Y-247148991D01*
X83525151Y-247103635D01*
X83518595Y-247092260D01*
X83495169Y-247051635D01*
X83465810Y-247000755D01*
X83432180Y-246942496D01*
X83395939Y-246879736D01*
X83358749Y-246815351D01*
X83322271Y-246752220D01*
X83309507Y-246730125D01*
X83272647Y-246666233D01*
X83235720Y-246602110D01*
X83200376Y-246540630D01*
X83168270Y-246484669D01*
X83141051Y-246437102D01*
X83120372Y-246400804D01*
X83107114Y-246377671D01*
X83084405Y-246339073D01*
X83064205Y-246305974D01*
X83048319Y-246281306D01*
X83038554Y-246268002D01*
X83035605Y-246265005D01*
X83011331Y-246251629D01*
X82985145Y-246252628D01*
X82961893Y-246268002D01*
X82959011Y-246271799D01*
X82947527Y-246289369D01*
X82929626Y-246318374D01*
X82906433Y-246356933D01*
X82879075Y-246403166D01*
X82848676Y-246455193D01*
X82816363Y-246511132D01*
X82782866Y-246569391D01*
X82737982Y-246647327D01*
X82689963Y-246730592D01*
X82641560Y-246814422D01*
X82595524Y-246894048D01*
X82554606Y-246964704D01*
X82534177Y-246999971D01*
X82503705Y-247052633D01*
X82466656Y-247116709D01*
X82423880Y-247190728D01*
X82376225Y-247273218D01*
X82324541Y-247362709D01*
X82269679Y-247457729D01*
X82212488Y-247556806D01*
X82153817Y-247658471D01*
X82094516Y-247761250D01*
X82035436Y-247863674D01*
X82027706Y-247877076D01*
X81971067Y-247975277D01*
X81915927Y-248070877D01*
X81862953Y-248162719D01*
X81812810Y-248249648D01*
X81766167Y-248330508D01*
X81723689Y-248404143D01*
X81686043Y-248469398D01*
X81653896Y-248525117D01*
X81627915Y-248570144D01*
X81608766Y-248603324D01*
X81597117Y-248623500D01*
X81576622Y-248660001D01*
X81558373Y-248696706D01*
X81548734Y-248724178D01*
X81547241Y-248744728D01*
X81319936Y-248744728D01*
X81318907Y-248737116D01*
X81323859Y-248681248D01*
X81324934Y-248676514D01*
X81328518Y-248662186D01*
X81332941Y-248647820D01*
X81338941Y-248632007D01*
X81347260Y-248613341D01*
X81358639Y-248590414D01*
X81373819Y-248561818D01*
X81393540Y-248526147D01*
X81418543Y-248481993D01*
X81449569Y-248427947D01*
X81487358Y-248362604D01*
X81532652Y-248284556D01*
X81565915Y-248227270D01*
X81602153Y-248164828D01*
X81636460Y-248105681D01*
X81667579Y-248051998D01*
X81694254Y-248005945D01*
X81715229Y-247969690D01*
X81729248Y-247945399D01*
X81730032Y-247944035D01*
X81806957Y-247810477D01*
X81887185Y-247671382D01*
X81972365Y-247523894D01*
X82064147Y-247365154D01*
X82101514Y-247300549D01*
X82171695Y-247179158D01*
X82240329Y-247060375D01*
X82306812Y-246945249D01*
X82370539Y-246834829D01*
X82430907Y-246730164D01*
X82487310Y-246632302D01*
X82539146Y-246542291D01*
X82585809Y-246461180D01*
X82626696Y-246390017D01*
X82661201Y-246329852D01*
X82688722Y-246281733D01*
X82708653Y-246246708D01*
X82712950Y-246239169D01*
X82752316Y-246175139D01*
X82789633Y-246125032D01*
X82826850Y-246087149D01*
X82865913Y-246059794D01*
X82908769Y-246041268D01*
X82957366Y-246029875D01*
X82977927Y-246027375D01*
X83042596Y-246029729D01*
X83104564Y-246046821D01*
X83160864Y-246077576D01*
X83208527Y-246120918D01*
X83212824Y-246126260D01*
X83221097Y-246137773D01*
X83232034Y-246154248D01*
X83246088Y-246176454D01*
X83263713Y-246205161D01*
X83285363Y-246241139D01*
X83311492Y-246285155D01*
X83342552Y-246337980D01*
X83378997Y-246400382D01*
X83421281Y-246473131D01*
X83469858Y-246556996D01*
X83525181Y-246652746D01*
X83587703Y-246761151D01*
X83657878Y-246882979D01*
X83690020Y-246938798D01*
X83759615Y-247059601D01*
X83825552Y-247173973D01*
X83886713Y-247279979D01*
X83941981Y-247375679D01*
X83990238Y-247459137D01*
X84007979Y-247489796D01*
X84048662Y-247560120D01*
X84084776Y-247622578D01*
X84118442Y-247680842D01*
X84151779Y-247738584D01*
X84186908Y-247799476D01*
X84225950Y-247867190D01*
X84271025Y-247945399D01*
X84288832Y-247976287D01*
X84324132Y-248037474D01*
X84360169Y-248099880D01*
X84394720Y-248159659D01*
X84425562Y-248212965D01*
X84450473Y-248255952D01*
X84496978Y-248336179D01*
X84540489Y-248411606D01*
X84576887Y-248475421D01*
X84606764Y-248528931D01*
X84630711Y-248573441D01*
X84649321Y-248610258D01*
X84663184Y-248640688D01*
X84672894Y-248666037D01*
X84679041Y-248687612D01*
X84682217Y-248706719D01*
X84683014Y-248724665D01*
X84682761Y-248729289D01*
X84682024Y-248742755D01*
X84679838Y-248762296D01*
G37*
G36*
X83033961Y-248206484D02*
G01*
X83080619Y-248223462D01*
X83114975Y-248247987D01*
X83144575Y-248284589D01*
X83161964Y-248326555D01*
X83167247Y-248371067D01*
X83160533Y-248415309D01*
X83141927Y-248456460D01*
X83111536Y-248491705D01*
X83069466Y-248518224D01*
X83054507Y-248523488D01*
X83013281Y-248529085D01*
X82969239Y-248525488D01*
X82929685Y-248512973D01*
X82910687Y-248501825D01*
X82876726Y-248469930D01*
X82852098Y-248429714D01*
X82838969Y-248385308D01*
X82839504Y-248340846D01*
X82846112Y-248315887D01*
X82868634Y-248272477D01*
X82901376Y-248238519D01*
X82941642Y-248215326D01*
X82986736Y-248204210D01*
X83033961Y-248206484D01*
G37*
G36*
X83063594Y-246890434D02*
G01*
X83102151Y-246912069D01*
X83132605Y-246945269D01*
X83145358Y-246969211D01*
X83155824Y-247003347D01*
X83160962Y-247045354D01*
X83161056Y-247097851D01*
X83156392Y-247163452D01*
X83146964Y-247262353D01*
X83136193Y-247374893D01*
X83125972Y-247481197D01*
X83116411Y-247580149D01*
X83107617Y-247670634D01*
X83099701Y-247751536D01*
X83092772Y-247821742D01*
X83086939Y-247880135D01*
X83082311Y-247925600D01*
X83078997Y-247957023D01*
X83077107Y-247973288D01*
X83070176Y-248000337D01*
X83048964Y-248032538D01*
X83027769Y-248049191D01*
X83002907Y-248055107D01*
X82972356Y-248047919D01*
X82958093Y-248040807D01*
X82944914Y-248028309D01*
X82934783Y-248009062D01*
X82926834Y-247980668D01*
X82920197Y-247940730D01*
X82914003Y-247886850D01*
X82912219Y-247869278D01*
X82898386Y-247732519D01*
X82886215Y-247610932D01*
X82875645Y-247503549D01*
X82866619Y-247409405D01*
X82859075Y-247327534D01*
X82852955Y-247256969D01*
X82848198Y-247196746D01*
X82844746Y-247145897D01*
X82842540Y-247103456D01*
X82841518Y-247068459D01*
X82841623Y-247039938D01*
X82842794Y-247016928D01*
X82844972Y-246998462D01*
X82848098Y-246983575D01*
X82852111Y-246971301D01*
X82856953Y-246960674D01*
X82863515Y-246949332D01*
X82893625Y-246915884D01*
X82931951Y-246893087D01*
X82975231Y-246881125D01*
X83020200Y-246880180D01*
X83063594Y-246890434D01*
G37*
D13*
X94120000Y-248440000D02*
X85880000Y-248440000D01*
D12*
X85875000Y-242475000D02*
X85875000Y-243450000D01*
X85875000Y-243450000D02*
X85875000Y-254640000D01*
X90000000Y-242450000D02*
X94100000Y-242450000D01*
X94125000Y-242450000D02*
X94125000Y-243400000D01*
D13*
X94120000Y-250000000D02*
X85880000Y-250000000D01*
D12*
X90000000Y-242450000D02*
X85875000Y-242450000D01*
X85875000Y-254640000D02*
X94125000Y-254640000D01*
X84700000Y-247300000D02*
X95300000Y-247300000D01*
X94125000Y-243400000D02*
X94125000Y-254640000D01*
X94100000Y-242450000D02*
X94125000Y-242450000D01*
X46737258Y-112522500D02*
X46262742Y-112522500D01*
X46737258Y-111477500D02*
X46262742Y-111477500D01*
G36*
X22960062Y-172841623D02*
G01*
X22983072Y-172842794D01*
X23001538Y-172844972D01*
X23016425Y-172848098D01*
X23028699Y-172852111D01*
X23039326Y-172856953D01*
X23050668Y-172863515D01*
X23084116Y-172893625D01*
X23106913Y-172931951D01*
X23118875Y-172975231D01*
X23119820Y-173020200D01*
X23109566Y-173063594D01*
X23087931Y-173102151D01*
X23054731Y-173132605D01*
X23030789Y-173145358D01*
X22996653Y-173155824D01*
X22954646Y-173160962D01*
X22902149Y-173161056D01*
X22836548Y-173156392D01*
X22737647Y-173146964D01*
X22625107Y-173136193D01*
X22518803Y-173125972D01*
X22419851Y-173116411D01*
X22329366Y-173107617D01*
X22248464Y-173099701D01*
X22178258Y-173092772D01*
X22119865Y-173086939D01*
X22074400Y-173082311D01*
X22042977Y-173078997D01*
X22026712Y-173077107D01*
X21999663Y-173070176D01*
X21967462Y-173048964D01*
X21950809Y-173027769D01*
X21944893Y-173002907D01*
X21952081Y-172972356D01*
X21959193Y-172958093D01*
X21971691Y-172944914D01*
X21990938Y-172934783D01*
X22019332Y-172926834D01*
X22059270Y-172920197D01*
X22113150Y-172914003D01*
X22130722Y-172912219D01*
X22267481Y-172898386D01*
X22389068Y-172886215D01*
X22496451Y-172875645D01*
X22590595Y-172866619D01*
X22672466Y-172859075D01*
X22743031Y-172852955D01*
X22803254Y-172848198D01*
X22854103Y-172844746D01*
X22896544Y-172842540D01*
X22931541Y-172841518D01*
X22960062Y-172841623D01*
G37*
G36*
X21237704Y-174679838D02*
G01*
X21211174Y-174674877D01*
X21156727Y-174655766D01*
X21105786Y-174627066D01*
X21064609Y-174591955D01*
X21049224Y-174574681D01*
X21027314Y-174546062D01*
X21012031Y-174517796D01*
X20999429Y-174483301D01*
X20998533Y-174479152D01*
X20997282Y-174467957D01*
X20996147Y-174450275D01*
X20995125Y-174425491D01*
X20994736Y-174411631D01*
X21208752Y-174411631D01*
X21225690Y-174433165D01*
X21236322Y-174444310D01*
X21251463Y-174451994D01*
X21270711Y-174452156D01*
X21296386Y-174444331D01*
X21330806Y-174428053D01*
X21376287Y-174402854D01*
X21403870Y-174386965D01*
X21449158Y-174360858D01*
X21500758Y-174331096D01*
X21554226Y-174300243D01*
X21605116Y-174270861D01*
X21648795Y-174245655D01*
X21695299Y-174218858D01*
X21737779Y-174194417D01*
X21772861Y-174174274D01*
X21797169Y-174160371D01*
X21802774Y-174157177D01*
X21854203Y-174127768D01*
X21914389Y-174093173D01*
X21984667Y-174052621D01*
X22066373Y-174005341D01*
X22160843Y-173950564D01*
X22162491Y-173949607D01*
X22219978Y-173916302D01*
X22286158Y-173878043D01*
X22355711Y-173837901D01*
X22423316Y-173798947D01*
X22483655Y-173764250D01*
X22504167Y-173752464D01*
X22556345Y-173722428D01*
X22606786Y-173693320D01*
X22652378Y-173666938D01*
X22690010Y-173645083D01*
X22716570Y-173629553D01*
X22726416Y-173623770D01*
X22761485Y-173603286D01*
X22804532Y-173578260D01*
X22851009Y-173551335D01*
X22896365Y-173525151D01*
X22907740Y-173518595D01*
X22948365Y-173495169D01*
X22999245Y-173465810D01*
X23057504Y-173432180D01*
X23120264Y-173395939D01*
X23184649Y-173358749D01*
X23247780Y-173322271D01*
X23269875Y-173309507D01*
X23333767Y-173272647D01*
X23397890Y-173235720D01*
X23459370Y-173200376D01*
X23515331Y-173168270D01*
X23562898Y-173141051D01*
X23599196Y-173120372D01*
X23622329Y-173107114D01*
X23660927Y-173084405D01*
X23694026Y-173064205D01*
X23718694Y-173048319D01*
X23731998Y-173038554D01*
X23734995Y-173035605D01*
X23748371Y-173011331D01*
X23747372Y-172985145D01*
X23731998Y-172961893D01*
X23728201Y-172959011D01*
X23710631Y-172947527D01*
X23681626Y-172929626D01*
X23643067Y-172906433D01*
X23596834Y-172879075D01*
X23544807Y-172848676D01*
X23488868Y-172816363D01*
X23430609Y-172782866D01*
X23352673Y-172737982D01*
X23269408Y-172689963D01*
X23185578Y-172641560D01*
X23105952Y-172595524D01*
X23035296Y-172554606D01*
X23000029Y-172534177D01*
X22947367Y-172503705D01*
X22883291Y-172466656D01*
X22809272Y-172423880D01*
X22726782Y-172376225D01*
X22637291Y-172324541D01*
X22542271Y-172269679D01*
X22443194Y-172212488D01*
X22341529Y-172153817D01*
X22238750Y-172094516D01*
X22136326Y-172035436D01*
X22122924Y-172027706D01*
X22024723Y-171971067D01*
X21929123Y-171915927D01*
X21837281Y-171862953D01*
X21750352Y-171812810D01*
X21669492Y-171766167D01*
X21595857Y-171723689D01*
X21530602Y-171686043D01*
X21474883Y-171653896D01*
X21429856Y-171627915D01*
X21396676Y-171608766D01*
X21376500Y-171597117D01*
X21339999Y-171576622D01*
X21303294Y-171558373D01*
X21275822Y-171548734D01*
X21255272Y-171547241D01*
X21239331Y-171553430D01*
X21225690Y-171566836D01*
X21208752Y-171588369D01*
X21208752Y-174411631D01*
X20994736Y-174411631D01*
X20994212Y-174392989D01*
X20993405Y-174352153D01*
X20992700Y-174302366D01*
X20992093Y-174243012D01*
X20991581Y-174173476D01*
X20991161Y-174093140D01*
X20990827Y-174001389D01*
X20990578Y-173897606D01*
X20990409Y-173781176D01*
X20990316Y-173651481D01*
X20990296Y-173507907D01*
X20990346Y-173349836D01*
X20990462Y-173176653D01*
X20990640Y-172987742D01*
X20992182Y-171524872D01*
X21009992Y-171486320D01*
X21030962Y-171450502D01*
X21063639Y-171410257D01*
X21101160Y-171375148D01*
X21138595Y-171350384D01*
X21145025Y-171347272D01*
X21203279Y-171326961D01*
X21262884Y-171318907D01*
X21318752Y-171323859D01*
X21323486Y-171324934D01*
X21337814Y-171328518D01*
X21352180Y-171332941D01*
X21367993Y-171338941D01*
X21386659Y-171347260D01*
X21409586Y-171358639D01*
X21438182Y-171373819D01*
X21473853Y-171393540D01*
X21518007Y-171418543D01*
X21572053Y-171449569D01*
X21637396Y-171487358D01*
X21715444Y-171532652D01*
X21772730Y-171565915D01*
X21835172Y-171602153D01*
X21894319Y-171636460D01*
X21948002Y-171667579D01*
X21994055Y-171694254D01*
X22030310Y-171715229D01*
X22054601Y-171729248D01*
X22055965Y-171730032D01*
X22189523Y-171806957D01*
X22328618Y-171887185D01*
X22476106Y-171972365D01*
X22634846Y-172064147D01*
X22699451Y-172101514D01*
X22820842Y-172171695D01*
X22939625Y-172240329D01*
X23054751Y-172306812D01*
X23165171Y-172370539D01*
X23269836Y-172430907D01*
X23367698Y-172487310D01*
X23457709Y-172539146D01*
X23538820Y-172585809D01*
X23609983Y-172626696D01*
X23670148Y-172661201D01*
X23718267Y-172688722D01*
X23753292Y-172708653D01*
X23760831Y-172712950D01*
X23824861Y-172752316D01*
X23874968Y-172789633D01*
X23912851Y-172826850D01*
X23940206Y-172865913D01*
X23958732Y-172908769D01*
X23970125Y-172957366D01*
X23972625Y-172977927D01*
X23970271Y-173042596D01*
X23953179Y-173104564D01*
X23922424Y-173160864D01*
X23879082Y-173208527D01*
X23873740Y-173212824D01*
X23862227Y-173221097D01*
X23845752Y-173232034D01*
X23823546Y-173246088D01*
X23794839Y-173263713D01*
X23758861Y-173285363D01*
X23714845Y-173311492D01*
X23662020Y-173342552D01*
X23599618Y-173378997D01*
X23526869Y-173421281D01*
X23443004Y-173469858D01*
X23347254Y-173525181D01*
X23238849Y-173587703D01*
X23117021Y-173657878D01*
X23061202Y-173690020D01*
X22940399Y-173759615D01*
X22826027Y-173825552D01*
X22720021Y-173886713D01*
X22624321Y-173941981D01*
X22540863Y-173990238D01*
X22510204Y-174007979D01*
X22439880Y-174048662D01*
X22377422Y-174084776D01*
X22319158Y-174118442D01*
X22261416Y-174151779D01*
X22200524Y-174186908D01*
X22132810Y-174225950D01*
X22054601Y-174271025D01*
X22023713Y-174288832D01*
X21962526Y-174324132D01*
X21900120Y-174360169D01*
X21840341Y-174394720D01*
X21787035Y-174425562D01*
X21744048Y-174450473D01*
X21663821Y-174496978D01*
X21588394Y-174540489D01*
X21524579Y-174576887D01*
X21471069Y-174606764D01*
X21426559Y-174630711D01*
X21389742Y-174649321D01*
X21359312Y-174663184D01*
X21333963Y-174672894D01*
X21312388Y-174679041D01*
X21293281Y-174682217D01*
X21275335Y-174683014D01*
X21270711Y-174682761D01*
X21257245Y-174682024D01*
X21237704Y-174679838D01*
G37*
G36*
X21659154Y-172839504D02*
G01*
X21684113Y-172846112D01*
X21727523Y-172868634D01*
X21761481Y-172901376D01*
X21784674Y-172941642D01*
X21795790Y-172986736D01*
X21793516Y-173033961D01*
X21776538Y-173080619D01*
X21752013Y-173114975D01*
X21715411Y-173144575D01*
X21673445Y-173161964D01*
X21628933Y-173167247D01*
X21584691Y-173160533D01*
X21543540Y-173141927D01*
X21508295Y-173111536D01*
X21481776Y-173069466D01*
X21476512Y-173054507D01*
X21470915Y-173013281D01*
X21474512Y-172969239D01*
X21487027Y-172929685D01*
X21498175Y-172910687D01*
X21530070Y-172876726D01*
X21570286Y-172852098D01*
X21614692Y-172838969D01*
X21659154Y-172839504D01*
G37*
X82522500Y-241702742D02*
X82522500Y-242177258D01*
X81477500Y-241702742D02*
X81477500Y-242177258D01*
X59360000Y-119260000D02*
X59360000Y-119005000D01*
X59360000Y-108740000D02*
X59360000Y-108995000D01*
X55500000Y-108740000D02*
X51640000Y-108740000D01*
X59360000Y-108995000D02*
X61175000Y-108995000D01*
X55500000Y-119260000D02*
X59360000Y-119260000D01*
X55500000Y-108740000D02*
X59360000Y-108740000D01*
X55500000Y-119260000D02*
X51640000Y-119260000D01*
X51640000Y-119260000D02*
X51640000Y-119005000D01*
X51640000Y-108740000D02*
X51640000Y-108995000D01*
X59190000Y-129250000D02*
X59190000Y-128450000D01*
X59190000Y-129250000D02*
X59190000Y-130050000D01*
X62310000Y-129250000D02*
X62310000Y-128450000D01*
X62310000Y-129250000D02*
X62310000Y-131050000D01*
X190237258Y-223022500D02*
X189762742Y-223022500D01*
X190237258Y-221977500D02*
X189762742Y-221977500D01*
X135737258Y-181522500D02*
X135262742Y-181522500D01*
X135737258Y-180477500D02*
X135262742Y-180477500D01*
X46761252Y-108765000D02*
X46238748Y-108765000D01*
X46761252Y-110235000D02*
X46238748Y-110235000D01*
X64988748Y-131235000D02*
X65511252Y-131235000D01*
X64988748Y-129765000D02*
X65511252Y-129765000D01*
X46262742Y-118477500D02*
X46737258Y-118477500D01*
X46262742Y-119522500D02*
X46737258Y-119522500D01*
X19470000Y-184700000D02*
X19470000Y-175300000D01*
X21370000Y-175300000D02*
X19470000Y-175300000D01*
X25270000Y-184700000D02*
X23270000Y-184700000D01*
D13*
X20000000Y-184470000D02*
X20000000Y-175530000D01*
D12*
X21370000Y-184700000D02*
X19470000Y-184700000D01*
X25270000Y-175300000D02*
X23270000Y-175300000D01*
X27237258Y-171477500D02*
X26762742Y-171477500D01*
X27237258Y-172522500D02*
X26762742Y-172522500D01*
X158761252Y-211235000D02*
X158238748Y-211235000D01*
X158761252Y-209765000D02*
X158238748Y-209765000D01*
X60235000Y-125011252D02*
X60235000Y-124488748D01*
X58765000Y-125011252D02*
X58765000Y-124488748D01*
X57772500Y-131512742D02*
X57772500Y-131987258D01*
X56727500Y-131512742D02*
X56727500Y-131987258D01*
X138761252Y-159265000D02*
X138238748Y-159265000D01*
X138761252Y-160735000D02*
X138238748Y-160735000D01*
X60800000Y-132250000D02*
X62800000Y-132250000D01*
X60800000Y-132250000D02*
X60800000Y-136150000D01*
X62800000Y-132250000D02*
X62800000Y-136150000D01*
X62985000Y-125011252D02*
X62985000Y-124488748D01*
X61515000Y-125011252D02*
X61515000Y-124488748D01*
%LPC*%
D14*
X292000000Y-135000000D03*
X135000000Y-23000000D03*
X292000000Y-247000000D03*
X291000000Y-24000000D03*
X23000000Y-23000000D03*
D15*
X45675000Y-117000000D03*
X47325000Y-117000000D03*
D16*
X55950000Y-164000000D03*
X54050000Y-164000000D03*
D17*
X65250000Y-135325000D03*
X65250000Y-133675000D03*
D18*
X44825000Y-165000000D03*
X43175000Y-165000000D03*
D19*
X63550000Y-114500000D03*
X65450000Y-114500000D03*
D20*
X87250000Y-241550000D03*
X88750000Y-241550000D03*
X89250000Y-241550000D03*
X89750000Y-241550000D03*
X90250000Y-241550000D03*
X91750000Y-241550000D03*
X92250000Y-241550000D03*
X92750000Y-241550000D03*
X91250000Y-241550000D03*
X90750000Y-241550000D03*
X88250000Y-241550000D03*
X87750000Y-241550000D03*
D21*
X91750000Y-246100000D03*
X91250000Y-244350000D03*
X88250000Y-246100000D03*
D22*
X94550000Y-243400000D03*
D23*
X86750000Y-241643750D03*
X93250000Y-241650000D03*
D21*
X88750000Y-244350000D03*
D22*
X85450000Y-246100000D03*
X85450000Y-243450000D03*
X94550000Y-246050000D03*
D18*
X47325000Y-112000000D03*
X45675000Y-112000000D03*
D24*
X82000000Y-241115000D03*
X82000000Y-242765000D03*
D25*
X60150000Y-109555000D03*
X60150000Y-110825000D03*
X60150000Y-112095000D03*
X60150000Y-113365000D03*
X60150000Y-114635000D03*
X60150000Y-115905000D03*
X60150000Y-117175000D03*
X60150000Y-118445000D03*
X50850000Y-118445000D03*
X50850000Y-117175000D03*
X50850000Y-115905000D03*
X50850000Y-114635000D03*
X50850000Y-113365000D03*
X50850000Y-112095000D03*
X50850000Y-110825000D03*
X50850000Y-109555000D03*
D26*
X61700000Y-130387500D03*
X60750000Y-130387500D03*
X59800000Y-130387500D03*
X59800000Y-128112500D03*
X61700000Y-128112500D03*
D18*
X190825000Y-222500000D03*
X189175000Y-222500000D03*
X136325000Y-181000000D03*
X134675000Y-181000000D03*
D16*
X47450000Y-109500000D03*
X45550000Y-109500000D03*
D19*
X64300000Y-130500000D03*
X66200000Y-130500000D03*
D15*
X45675000Y-119000000D03*
X47325000Y-119000000D03*
D27*
X25970000Y-177110000D03*
X25970000Y-182890000D03*
D28*
X27415000Y-183250000D03*
X27415000Y-182450000D03*
D29*
X27415000Y-181250000D03*
X27415000Y-180250000D03*
X27415000Y-179750000D03*
X27415000Y-178750000D03*
D28*
X27415000Y-177550000D03*
X27415000Y-176750000D03*
X27415000Y-176750000D03*
X27415000Y-177550000D03*
D29*
X27415000Y-178250000D03*
X27415000Y-179250000D03*
X27415000Y-180750000D03*
X27415000Y-181750000D03*
D28*
X27415000Y-182450000D03*
X27415000Y-183250000D03*
D30*
X22320000Y-175680000D03*
D31*
X26500000Y-175680000D03*
D30*
X22320000Y-184320000D03*
D31*
X26500000Y-184320000D03*
D18*
X27825000Y-172000000D03*
X26175000Y-172000000D03*
D16*
X159450000Y-210500000D03*
X157550000Y-210500000D03*
D32*
X59500000Y-125700000D03*
X59500000Y-123800000D03*
D24*
X57250000Y-130925000D03*
X57250000Y-132575000D03*
D16*
X139450000Y-160000000D03*
X137550000Y-160000000D03*
D33*
X61800000Y-132850000D03*
X61800000Y-136150000D03*
D32*
X62250000Y-125700000D03*
X62250000Y-123800000D03*
M02*
