%TF.GenerationSoftware,KiCad,Pcbnew,(6.0.4)*%
%TF.CreationDate,2022-05-26T23:52:49-07:00*%
%TF.ProjectId,top_R,746f705f-522e-46b6-9963-61645f706362,rev?*%
%TF.SameCoordinates,Original*%
%TF.FileFunction,Copper,L2,Bot*%
%TF.FilePolarity,Positive*%
%FSLAX46Y46*%
G04 Gerber Fmt 4.6, Leading zero omitted, Abs format (unit mm)*
G04 Created by KiCad (PCBNEW (6.0.4)) date 2022-05-26 23:52:49*
%MOMM*%
%LPD*%
G01*
G04 APERTURE LIST*
G04 Aperture macros list*
%AMRoundRect*
0 Rectangle with rounded corners*
0 $1 Rounding radius*
0 $2 $3 $4 $5 $6 $7 $8 $9 X,Y pos of 4 corners*
0 Add a 4 corners polygon primitive as box body*
4,1,4,$2,$3,$4,$5,$6,$7,$8,$9,$2,$3,0*
0 Add four circle primitives for the rounded corners*
1,1,$1+$1,$2,$3*
1,1,$1+$1,$4,$5*
1,1,$1+$1,$6,$7*
1,1,$1+$1,$8,$9*
0 Add four rect primitives between the rounded corners*
20,1,$1+$1,$2,$3,$4,$5,0*
20,1,$1+$1,$4,$5,$6,$7,0*
20,1,$1+$1,$6,$7,$8,$9,0*
20,1,$1+$1,$8,$9,$2,$3,0*%
G04 Aperture macros list end*
%TA.AperFunction,SMDPad,CuDef*%
%ADD10RoundRect,0.200000X-0.200000X-0.275000X0.200000X-0.275000X0.200000X0.275000X-0.200000X0.275000X0*%
%TD*%
%TA.AperFunction,SMDPad,CuDef*%
%ADD11RoundRect,0.250000X0.250000X0.475000X-0.250000X0.475000X-0.250000X-0.475000X0.250000X-0.475000X0*%
%TD*%
%TA.AperFunction,SMDPad,CuDef*%
%ADD12RoundRect,0.200000X0.275000X-0.200000X0.275000X0.200000X-0.275000X0.200000X-0.275000X-0.200000X0*%
%TD*%
%TA.AperFunction,SMDPad,CuDef*%
%ADD13RoundRect,0.200000X0.200000X0.275000X-0.200000X0.275000X-0.200000X-0.275000X0.200000X-0.275000X0*%
%TD*%
%TA.AperFunction,SMDPad,CuDef*%
%ADD14RoundRect,0.250000X-0.250000X-0.475000X0.250000X-0.475000X0.250000X0.475000X-0.250000X0.475000X0*%
%TD*%
%TA.AperFunction,SMDPad,CuDef*%
%ADD15R,0.400000X1.825000*%
%TD*%
%TA.AperFunction,SMDPad,CuDef*%
%ADD16R,1.200000X1.200000*%
%TD*%
%TA.AperFunction,SMDPad,CuDef*%
%ADD17R,1.500000X1.200000*%
%TD*%
%TA.AperFunction,SMDPad,CuDef*%
%ADD18R,0.400000X2.012500*%
%TD*%
%TA.AperFunction,SMDPad,CuDef*%
%ADD19RoundRect,0.200000X-0.275000X0.200000X-0.275000X-0.200000X0.275000X-0.200000X0.275000X0.200000X0*%
%TD*%
%TA.AperFunction,SMDPad,CuDef*%
%ADD20RoundRect,0.150000X0.875000X0.150000X-0.875000X0.150000X-0.875000X-0.150000X0.875000X-0.150000X0*%
%TD*%
%TA.AperFunction,SMDPad,CuDef*%
%ADD21RoundRect,0.150000X0.150000X-0.512500X0.150000X0.512500X-0.150000X0.512500X-0.150000X-0.512500X0*%
%TD*%
%TA.AperFunction,SMDPad,CuDef*%
%ADD22R,1.450000X0.600000*%
%TD*%
%TA.AperFunction,SMDPad,CuDef*%
%ADD23R,1.450000X0.300000*%
%TD*%
%TA.AperFunction,ComponentPad*%
%ADD24O,1.600000X1.000000*%
%TD*%
%TA.AperFunction,ComponentPad*%
%ADD25O,2.100000X1.000000*%
%TD*%
%TA.AperFunction,SMDPad,CuDef*%
%ADD26RoundRect,0.250000X0.475000X-0.250000X0.475000X0.250000X-0.475000X0.250000X-0.475000X-0.250000X0*%
%TD*%
%TA.AperFunction,SMDPad,CuDef*%
%ADD27R,1.200000X0.900000*%
%TD*%
%TA.AperFunction,ViaPad*%
%ADD28C,0.500000*%
%TD*%
%TA.AperFunction,Conductor*%
%ADD29C,0.200000*%
%TD*%
%TA.AperFunction,Conductor*%
%ADD30C,0.250000*%
%TD*%
G04 APERTURE END LIST*
D10*
X45675000Y-117000000D03*
X47325000Y-117000000D03*
D11*
X55950000Y-164000000D03*
X54050000Y-164000000D03*
D12*
X65250000Y-135325000D03*
X65250000Y-133675000D03*
D13*
X44825000Y-165000000D03*
X43175000Y-165000000D03*
D14*
X63550000Y-114500000D03*
X65450000Y-114500000D03*
D15*
X87250000Y-241550000D03*
X88750000Y-241550000D03*
X89250000Y-241550000D03*
X89750000Y-241550000D03*
X90250000Y-241550000D03*
X91750000Y-241550000D03*
X92250000Y-241550000D03*
X92750000Y-241550000D03*
X91250000Y-241550000D03*
X90750000Y-241550000D03*
X88250000Y-241550000D03*
X87750000Y-241550000D03*
D16*
X91750000Y-246100000D03*
X91250000Y-244350000D03*
X88250000Y-246100000D03*
D17*
X94550000Y-243400000D03*
D18*
X86750000Y-241643750D03*
X93250000Y-241650000D03*
D16*
X88750000Y-244350000D03*
D17*
X85450000Y-246100000D03*
X85450000Y-243450000D03*
X94550000Y-246050000D03*
D13*
X47325000Y-112000000D03*
X45675000Y-112000000D03*
D19*
X82000000Y-241115000D03*
X82000000Y-242765000D03*
D20*
X60150000Y-109555000D03*
X60150000Y-110825000D03*
X60150000Y-112095000D03*
X60150000Y-113365000D03*
X60150000Y-114635000D03*
X60150000Y-115905000D03*
X60150000Y-117175000D03*
X60150000Y-118445000D03*
X50850000Y-118445000D03*
X50850000Y-117175000D03*
X50850000Y-115905000D03*
X50850000Y-114635000D03*
X50850000Y-113365000D03*
X50850000Y-112095000D03*
X50850000Y-110825000D03*
X50850000Y-109555000D03*
D21*
X61700000Y-130387500D03*
X60750000Y-130387500D03*
X59800000Y-130387500D03*
X59800000Y-128112500D03*
X61700000Y-128112500D03*
D13*
X190825000Y-222500000D03*
X189175000Y-222500000D03*
X136325000Y-181000000D03*
X134675000Y-181000000D03*
D11*
X47450000Y-109500000D03*
X45550000Y-109500000D03*
D14*
X64300000Y-130500000D03*
X66200000Y-130500000D03*
D10*
X45675000Y-119000000D03*
X47325000Y-119000000D03*
D22*
X27415000Y-183250000D03*
X27415000Y-182450000D03*
D23*
X27415000Y-181250000D03*
X27415000Y-180250000D03*
X27415000Y-179750000D03*
X27415000Y-178750000D03*
D22*
X27415000Y-177550000D03*
X27415000Y-176750000D03*
X27415000Y-176750000D03*
X27415000Y-177550000D03*
D23*
X27415000Y-178250000D03*
X27415000Y-179250000D03*
X27415000Y-180750000D03*
X27415000Y-181750000D03*
D22*
X27415000Y-182450000D03*
X27415000Y-183250000D03*
D24*
X22320000Y-175680000D03*
D25*
X26500000Y-175680000D03*
D24*
X22320000Y-184320000D03*
D25*
X26500000Y-184320000D03*
D13*
X27825000Y-172000000D03*
X26175000Y-172000000D03*
D11*
X159450000Y-210500000D03*
X157550000Y-210500000D03*
D26*
X59500000Y-125700000D03*
X59500000Y-123800000D03*
D19*
X57250000Y-130925000D03*
X57250000Y-132575000D03*
D11*
X139450000Y-160000000D03*
X137550000Y-160000000D03*
D27*
X61800000Y-132850000D03*
X61800000Y-136150000D03*
D26*
X62250000Y-125700000D03*
X62250000Y-123800000D03*
D28*
X160500000Y-213600000D03*
X84525000Y-238165000D03*
X57600000Y-163975000D03*
X24275000Y-181400000D03*
X140950000Y-160000000D03*
X110000000Y-224500000D03*
X136850000Y-163275000D03*
X152250000Y-199250000D03*
X129500000Y-120750000D03*
X33000000Y-176750000D03*
X33000000Y-179500000D03*
X131000000Y-163250000D03*
X126250000Y-124000000D03*
X147500000Y-199250000D03*
X157800000Y-214175000D03*
X53475000Y-169325000D03*
X107750000Y-222250000D03*
X48725000Y-107925000D03*
X64250000Y-126000000D03*
X63550000Y-112500000D03*
X51000000Y-174000000D03*
X59525000Y-169825000D03*
X123900000Y-164525000D03*
X160375000Y-215100000D03*
X29250000Y-182825000D03*
X29820612Y-174273440D03*
X30325000Y-178950000D03*
X25875000Y-178850000D03*
X25875000Y-180250000D03*
X30325000Y-174750000D03*
X41875000Y-165000000D03*
X132650000Y-180850000D03*
X151900000Y-74850000D03*
X186175000Y-222475000D03*
D29*
X25006616Y-180668384D02*
X25006616Y-180815638D01*
X26483918Y-177550000D02*
X25758918Y-178275000D01*
X88250000Y-240340000D02*
X87075000Y-239165000D01*
X57575000Y-164000000D02*
X57600000Y-163975000D01*
X86075000Y-238165000D02*
X84525000Y-238165000D01*
X57600000Y-163975000D02*
X61800000Y-159775000D01*
X139450000Y-160000000D02*
X140950000Y-160000000D01*
X87075000Y-239165000D02*
X86075000Y-238165000D01*
X26640978Y-182450000D02*
X27415000Y-182450000D01*
X61800000Y-159775000D02*
X61800000Y-136150000D01*
X160500000Y-211550000D02*
X160500000Y-213600000D01*
X25006616Y-180593385D02*
X25006616Y-180668384D01*
X64425000Y-136150000D02*
X65250000Y-135325000D01*
X24948480Y-178901520D02*
X24948480Y-180535249D01*
X24948480Y-180535249D02*
X25006616Y-180593385D01*
X159450000Y-210500000D02*
X160500000Y-211550000D01*
X27415000Y-177550000D02*
X26483918Y-177550000D01*
X88250000Y-241550000D02*
X88750000Y-241550000D01*
X25758918Y-178275000D02*
X25575000Y-178275000D01*
X55950000Y-164000000D02*
X57575000Y-164000000D01*
X25575000Y-178275000D02*
X24948480Y-178901520D01*
X25006616Y-180668384D02*
X24275000Y-181400000D01*
X61800000Y-136150000D02*
X64425000Y-136150000D01*
X88250000Y-241550000D02*
X88250000Y-240340000D01*
X25006616Y-180815638D02*
X26640978Y-182450000D01*
X87000000Y-239940000D02*
X87750000Y-240690000D01*
X87250000Y-240190000D02*
X87250000Y-241550000D01*
X87750000Y-240690000D02*
X87750000Y-241550000D01*
X83175000Y-239940000D02*
X87000000Y-239940000D01*
X58475480Y-128086197D02*
X58475480Y-124824520D01*
X82000000Y-241115000D02*
X83175000Y-239940000D01*
X60750000Y-129688323D02*
X60136197Y-129074520D01*
X60750000Y-130387500D02*
X60750000Y-129688323D01*
X27675000Y-183250000D02*
X29350000Y-184925000D01*
X27849520Y-176315480D02*
X27415000Y-176750000D01*
X29425000Y-176750000D02*
X29975000Y-176200000D01*
X58475480Y-124824520D02*
X59500000Y-123800000D01*
X59463803Y-129074520D02*
X58475480Y-128086197D01*
X27415000Y-183250000D02*
X27675000Y-183250000D01*
X27825000Y-172000000D02*
X27849520Y-172024520D01*
X27415000Y-176750000D02*
X29425000Y-176750000D01*
X87000000Y-239940000D02*
X87250000Y-240190000D01*
X60136197Y-129074520D02*
X59463803Y-129074520D01*
X27849520Y-172024520D02*
X27849520Y-176315480D01*
D30*
X62250000Y-125700000D02*
X63950000Y-125700000D01*
X45675000Y-111275000D02*
X47450000Y-109500000D01*
X59723928Y-114635000D02*
X60150000Y-114635000D01*
X63415000Y-114635000D02*
X63550000Y-114500000D01*
X47450000Y-109200000D02*
X48725000Y-107925000D01*
X59500000Y-125700000D02*
X61700000Y-127900000D01*
X60150000Y-114635000D02*
X63415000Y-114635000D01*
X61700000Y-128112500D02*
X61700000Y-126250000D01*
X63550000Y-114500000D02*
X63550000Y-112500000D01*
X45675000Y-119000000D02*
X45675000Y-117000000D01*
X47450000Y-109500000D02*
X47450000Y-109200000D01*
X45675000Y-117000000D02*
X45675000Y-112000000D01*
X61700000Y-127900000D02*
X61700000Y-128112500D01*
X61700000Y-126250000D02*
X62250000Y-125700000D01*
X47450000Y-109500000D02*
X50795000Y-109500000D01*
X62250000Y-125700000D02*
X59500000Y-125700000D01*
X50795000Y-109500000D02*
X50850000Y-109555000D01*
X63950000Y-125700000D02*
X64250000Y-126000000D01*
X45675000Y-112000000D02*
X45675000Y-111275000D01*
D29*
X46750000Y-178250000D02*
X51000000Y-174000000D01*
X27415000Y-178250000D02*
X46750000Y-178250000D01*
D30*
X59525000Y-169825000D02*
X118600000Y-169825000D01*
X118600000Y-169825000D02*
X123900000Y-164525000D01*
D29*
X117025000Y-215100000D02*
X90750000Y-241375000D01*
X90750000Y-239815000D02*
X90750000Y-241550000D01*
X160375000Y-215100000D02*
X117025000Y-215100000D01*
X29998480Y-174095572D02*
X29820612Y-174273440D01*
X46374520Y-117950480D02*
X46374520Y-120101040D01*
X29998480Y-172925000D02*
X29998480Y-174095572D01*
X29998480Y-149389750D02*
X29998480Y-172525000D01*
X29363750Y-182111250D02*
X29363750Y-182711250D01*
X36281615Y-143106615D02*
X29998480Y-149389750D01*
X89250000Y-241550000D02*
X89250000Y-240437500D01*
X46374520Y-120101040D02*
X46998480Y-120725000D01*
X47325000Y-117000000D02*
X46374520Y-117950480D01*
X46998480Y-132389750D02*
X36281615Y-143106615D01*
X50675000Y-117000000D02*
X50850000Y-117175000D01*
X29363750Y-182711250D02*
X29250000Y-182825000D01*
X46998480Y-128825000D02*
X46998480Y-132389750D01*
X89250000Y-241997500D02*
X29363750Y-182111250D01*
X29998480Y-172525000D02*
X29998480Y-172925000D01*
X28502500Y-181250000D02*
X27415000Y-181250000D01*
X29363750Y-182111250D02*
X28502500Y-181250000D01*
X47325000Y-117000000D02*
X50675000Y-117000000D01*
X46998480Y-120725000D02*
X46998480Y-128825000D01*
X26275000Y-179250000D02*
X27415000Y-179250000D01*
X25875000Y-178850000D02*
X26275000Y-179250000D01*
X27415000Y-179250000D02*
X30025000Y-179250000D01*
X89750000Y-241660000D02*
X28340000Y-180250000D01*
X47325000Y-132525000D02*
X47325000Y-119000000D01*
X30325000Y-174750000D02*
X30325000Y-149525000D01*
X89750000Y-241550000D02*
X89750000Y-240100000D01*
X30325000Y-149525000D02*
X47325000Y-132525000D01*
X50295000Y-119000000D02*
X50850000Y-118445000D01*
X28340000Y-180250000D02*
X27415000Y-180250000D01*
X30025000Y-179250000D02*
X30325000Y-178950000D01*
X47325000Y-119000000D02*
X50295000Y-119000000D01*
X27415000Y-180250000D02*
X25875000Y-180250000D01*
X26375000Y-179750000D02*
X27415000Y-179750000D01*
X28340000Y-179750000D02*
X27415000Y-179750000D01*
X25275000Y-180100000D02*
X25650000Y-179725000D01*
X90250000Y-241660000D02*
X28340000Y-179750000D01*
X25650000Y-179725000D02*
X26350000Y-179725000D01*
X90250000Y-241550000D02*
X90250000Y-240100000D01*
X26100000Y-180750000D02*
X25975000Y-180875000D01*
X25975000Y-180875000D02*
X25750000Y-180875000D01*
X27415000Y-180750000D02*
X26100000Y-180750000D01*
X25275000Y-180400000D02*
X25275000Y-180100000D01*
X25750000Y-180875000D02*
X25275000Y-180400000D01*
X26350000Y-179725000D02*
X26375000Y-179750000D01*
D30*
X22320000Y-175680000D02*
X22320000Y-184320000D01*
X26500000Y-172325000D02*
X26500000Y-175680000D01*
X26175000Y-172000000D02*
X26500000Y-172325000D01*
X26500000Y-175680000D02*
X22320000Y-175680000D01*
X22320000Y-184320000D02*
X26500000Y-184320000D01*
X91250000Y-244350000D02*
X88750000Y-244350000D01*
X82000000Y-242765000D02*
X82685000Y-243450000D01*
X85450000Y-243450000D02*
X86725489Y-242174511D01*
X82685000Y-243450000D02*
X85450000Y-243450000D01*
X91750000Y-246100000D02*
X91750000Y-244850000D01*
X85450000Y-246100000D02*
X88250000Y-246100000D01*
X85450000Y-243450000D02*
X85450000Y-246100000D01*
X93274511Y-242124511D02*
X93274511Y-241650000D01*
X91750000Y-246100000D02*
X94500000Y-246100000D01*
X94500000Y-246100000D02*
X94550000Y-246050000D01*
X91750000Y-244850000D02*
X91250000Y-244350000D01*
X88250000Y-246100000D02*
X88250000Y-244850000D01*
X94550000Y-246050000D02*
X94550000Y-243400000D01*
X88250000Y-244850000D02*
X88750000Y-244350000D01*
X94550000Y-243400000D02*
X93274511Y-242124511D01*
X86725489Y-242174511D02*
X86725489Y-241643750D01*
X52199520Y-117079408D02*
X52199520Y-155975480D01*
X60150000Y-109555000D02*
X59723928Y-109555000D01*
X59723928Y-109555000D02*
X52199520Y-117079408D01*
X41875000Y-165000000D02*
X43175000Y-165000000D01*
X52199520Y-155975480D02*
X43175000Y-165000000D01*
X132650000Y-127550000D02*
X115925000Y-110825000D01*
X132650000Y-180850000D02*
X132650000Y-127550000D01*
X115925000Y-110825000D02*
X151900000Y-74850000D01*
X132650000Y-180850000D02*
X134525000Y-180850000D01*
X60150000Y-110825000D02*
X115925000Y-110825000D01*
X134525000Y-180850000D02*
X134675000Y-181000000D01*
X60319511Y-111925489D02*
X72112971Y-111925489D01*
X131975000Y-181375000D02*
X173075000Y-222475000D01*
X173075000Y-222475000D02*
X186175000Y-222475000D01*
X186200000Y-222500000D02*
X186175000Y-222475000D01*
X72112971Y-111925489D02*
X131975000Y-171787518D01*
X60150000Y-112095000D02*
X60319511Y-111925489D01*
X189175000Y-222500000D02*
X186200000Y-222500000D01*
X131975000Y-171787518D02*
X131975000Y-181375000D01*
X61700000Y-130387500D02*
X64187500Y-130387500D01*
X61700000Y-130387500D02*
X61800000Y-130487500D01*
X61800000Y-130487500D02*
X61800000Y-132850000D01*
X57250000Y-132575000D02*
X57525000Y-132850000D01*
X61950000Y-132850000D02*
X64300000Y-130500000D01*
X64187500Y-130387500D02*
X64300000Y-130500000D01*
X61800000Y-132850000D02*
X61950000Y-132850000D01*
X57525000Y-132850000D02*
X61800000Y-132850000D01*
X57250000Y-130925000D02*
X59262500Y-130925000D01*
X59262500Y-130925000D02*
X59800000Y-130387500D01*
X47325000Y-112000000D02*
X50755000Y-112000000D01*
X50755000Y-112000000D02*
X50850000Y-112095000D01*
%TA.AperFunction,Conductor*%
G36*
X289970018Y-20510000D02*
G01*
X289984851Y-20512310D01*
X289984855Y-20512310D01*
X289993724Y-20513691D01*
X290014183Y-20511016D01*
X290036007Y-20510072D01*
X290385965Y-20525352D01*
X290396913Y-20526310D01*
X290774498Y-20576019D01*
X290785307Y-20577926D01*
X291157114Y-20660353D01*
X291167731Y-20663198D01*
X291530939Y-20777718D01*
X291541254Y-20781471D01*
X291893123Y-20927220D01*
X291903067Y-20931858D01*
X292240867Y-21107705D01*
X292250387Y-21113201D01*
X292571574Y-21317820D01*
X292580578Y-21324124D01*
X292882716Y-21555962D01*
X292891137Y-21563028D01*
X293171914Y-21820314D01*
X293179686Y-21828086D01*
X293436972Y-22108863D01*
X293444038Y-22117284D01*
X293675876Y-22419422D01*
X293682180Y-22428426D01*
X293886799Y-22749613D01*
X293892294Y-22759132D01*
X294017683Y-23000000D01*
X294068138Y-23096924D01*
X294072780Y-23106877D01*
X294141206Y-23272072D01*
X294218526Y-23458739D01*
X294222282Y-23469061D01*
X294305346Y-23732502D01*
X294336802Y-23832268D01*
X294339647Y-23842885D01*
X294405715Y-24140898D01*
X294422073Y-24214685D01*
X294423982Y-24225510D01*
X294473690Y-24603086D01*
X294474648Y-24614036D01*
X294489603Y-24956552D01*
X294488223Y-24981429D01*
X294486309Y-24993724D01*
X294487473Y-25002626D01*
X294487473Y-25002628D01*
X294490436Y-25025283D01*
X294491500Y-25041621D01*
X294491500Y-249365500D01*
X294471498Y-249433621D01*
X294417842Y-249480114D01*
X294365500Y-249491500D01*
X20634500Y-249491500D01*
X20566379Y-249471498D01*
X20519886Y-249417842D01*
X20508500Y-249365500D01*
X20508500Y-240846586D01*
X81018087Y-240846586D01*
X81021475Y-240858124D01*
X81022865Y-240859329D01*
X81030548Y-240861000D01*
X81727885Y-240861000D01*
X81743124Y-240856525D01*
X81744329Y-240855135D01*
X81746000Y-240847452D01*
X81746000Y-240842885D01*
X82254000Y-240842885D01*
X82258475Y-240858124D01*
X82259865Y-240859329D01*
X82267548Y-240861000D01*
X82964884Y-240861000D01*
X82980123Y-240856525D01*
X82981328Y-240855135D01*
X82982291Y-240850706D01*
X82976868Y-240791685D01*
X82974257Y-240778649D01*
X82927285Y-240628757D01*
X82921079Y-240615012D01*
X82840176Y-240481426D01*
X82830869Y-240469557D01*
X82720443Y-240359131D01*
X82708574Y-240349824D01*
X82574988Y-240268921D01*
X82561243Y-240262715D01*
X82411356Y-240215744D01*
X82398306Y-240213131D01*
X82334479Y-240207266D01*
X82328691Y-240207000D01*
X82272115Y-240207000D01*
X82256876Y-240211475D01*
X82255671Y-240212865D01*
X82254000Y-240220548D01*
X82254000Y-240842885D01*
X81746000Y-240842885D01*
X81746000Y-240225116D01*
X81741525Y-240209877D01*
X81740135Y-240208672D01*
X81732452Y-240207001D01*
X81671295Y-240207001D01*
X81665546Y-240207264D01*
X81601685Y-240213132D01*
X81588649Y-240215743D01*
X81438757Y-240262715D01*
X81425012Y-240268921D01*
X81291426Y-240349824D01*
X81279557Y-240359131D01*
X81169131Y-240469557D01*
X81159824Y-240481426D01*
X81078921Y-240615012D01*
X81072715Y-240628757D01*
X81025744Y-240778644D01*
X81023131Y-240791694D01*
X81018087Y-240846586D01*
X20508500Y-240846586D01*
X20508500Y-184312925D01*
X21006645Y-184312925D01*
X21024570Y-184509888D01*
X21080410Y-184699619D01*
X21083263Y-184705077D01*
X21083265Y-184705081D01*
X21130720Y-184795853D01*
X21172040Y-184874890D01*
X21295968Y-185029025D01*
X21300692Y-185032989D01*
X21307933Y-185039065D01*
X21447474Y-185156154D01*
X21452872Y-185159121D01*
X21452877Y-185159125D01*
X21596180Y-185237905D01*
X21620787Y-185251433D01*
X21626654Y-185253294D01*
X21626656Y-185253295D01*
X21803436Y-185309373D01*
X21809306Y-185311235D01*
X21963227Y-185328500D01*
X22669769Y-185328500D01*
X22672825Y-185328200D01*
X22672832Y-185328200D01*
X22731340Y-185322463D01*
X22816833Y-185314080D01*
X22822734Y-185312298D01*
X22822736Y-185312298D01*
X22896053Y-185290162D01*
X23006169Y-185256916D01*
X23180796Y-185164066D01*
X23267062Y-185093709D01*
X23329287Y-185042960D01*
X23329290Y-185042957D01*
X23334062Y-185039065D01*
X23346344Y-185024219D01*
X23367055Y-184999184D01*
X23425889Y-184959446D01*
X23464139Y-184953500D01*
X25104876Y-184953500D01*
X25172997Y-184973502D01*
X25203069Y-185000544D01*
X25225968Y-185029025D01*
X25230692Y-185032989D01*
X25237933Y-185039065D01*
X25377474Y-185156154D01*
X25382872Y-185159121D01*
X25382877Y-185159125D01*
X25526180Y-185237905D01*
X25550787Y-185251433D01*
X25556654Y-185253294D01*
X25556656Y-185253295D01*
X25733436Y-185309373D01*
X25739306Y-185311235D01*
X25893227Y-185328500D01*
X27099769Y-185328500D01*
X27102825Y-185328200D01*
X27102832Y-185328200D01*
X27161340Y-185322463D01*
X27246833Y-185314080D01*
X27252734Y-185312298D01*
X27252736Y-185312298D01*
X27326053Y-185290162D01*
X27436169Y-185256916D01*
X27610796Y-185164066D01*
X27697062Y-185093709D01*
X27759287Y-185042960D01*
X27759290Y-185042957D01*
X27764062Y-185039065D01*
X27795926Y-185000548D01*
X27886201Y-184891425D01*
X27886203Y-184891421D01*
X27890130Y-184886675D01*
X27984198Y-184712701D01*
X28042682Y-184523768D01*
X28063355Y-184327075D01*
X28051373Y-184195418D01*
X28065118Y-184125766D01*
X28114339Y-184074601D01*
X28176854Y-184057999D01*
X28184669Y-184057999D01*
X28191490Y-184057629D01*
X28242352Y-184052105D01*
X28257604Y-184048479D01*
X28378054Y-184003324D01*
X28393649Y-183994786D01*
X28495724Y-183918285D01*
X28508285Y-183905724D01*
X28584786Y-183803649D01*
X28593324Y-183788054D01*
X28638478Y-183667606D01*
X28642105Y-183652351D01*
X28647631Y-183601486D01*
X28648000Y-183594672D01*
X28648000Y-183570612D01*
X28668002Y-183502491D01*
X28721658Y-183455998D01*
X28791932Y-183445894D01*
X28842993Y-183465180D01*
X28877580Y-183487813D01*
X28905846Y-183506310D01*
X28912450Y-183508766D01*
X28912452Y-183508767D01*
X28943964Y-183520486D01*
X29065341Y-183565626D01*
X29234015Y-183588132D01*
X29241026Y-183587494D01*
X29241030Y-183587494D01*
X29396462Y-183573348D01*
X29403483Y-183572709D01*
X29410185Y-183570531D01*
X29410187Y-183570531D01*
X29558623Y-183522301D01*
X29558626Y-183522300D01*
X29565322Y-183520124D01*
X29571373Y-183516517D01*
X29571375Y-183516516D01*
X29698317Y-183440844D01*
X29767072Y-183423144D01*
X29834481Y-183445426D01*
X29851929Y-183459978D01*
X83916896Y-237524944D01*
X83950922Y-237587256D01*
X83945857Y-237658071D01*
X83932280Y-237681796D01*
X83933486Y-237682573D01*
X83841304Y-237825610D01*
X83783103Y-237985516D01*
X83761775Y-238154343D01*
X83778381Y-238323699D01*
X83832094Y-238485167D01*
X83920246Y-238630723D01*
X84038455Y-238753132D01*
X84180846Y-238846310D01*
X84187450Y-238848766D01*
X84187452Y-238848767D01*
X84223844Y-238862301D01*
X84340341Y-238905626D01*
X84509015Y-238928132D01*
X84516026Y-238927494D01*
X84516030Y-238927494D01*
X84671462Y-238913348D01*
X84678483Y-238912709D01*
X84685185Y-238910531D01*
X84685187Y-238910531D01*
X84833623Y-238862301D01*
X84833626Y-238862300D01*
X84840322Y-238860124D01*
X84955823Y-238791271D01*
X85020341Y-238773500D01*
X85113262Y-238773500D01*
X85181383Y-238793502D01*
X85202357Y-238810405D01*
X86365325Y-239973373D01*
X86399351Y-240035685D01*
X86394286Y-240106500D01*
X86351739Y-240163336D01*
X86320459Y-240180450D01*
X86303295Y-240186885D01*
X86186739Y-240274239D01*
X86099385Y-240390795D01*
X86048255Y-240527184D01*
X86041500Y-240589366D01*
X86041500Y-241910406D01*
X86021498Y-241978527D01*
X86004595Y-241999501D01*
X85699501Y-242304595D01*
X85637189Y-242338621D01*
X85610406Y-242341500D01*
X84651866Y-242341500D01*
X84589684Y-242348255D01*
X84453295Y-242399385D01*
X84336739Y-242486739D01*
X84249385Y-242603295D01*
X84246233Y-242611703D01*
X84200112Y-242734730D01*
X84157470Y-242791494D01*
X84090909Y-242816194D01*
X84082130Y-242816500D01*
X83109500Y-242816500D01*
X83041379Y-242796498D01*
X82994886Y-242742842D01*
X82983500Y-242690501D01*
X82983499Y-242511250D01*
X82983499Y-242508366D01*
X82983234Y-242505474D01*
X82977364Y-242441592D01*
X82976753Y-242434938D01*
X82951630Y-242354771D01*
X82927744Y-242278550D01*
X82927743Y-242278548D01*
X82925472Y-242271301D01*
X82836639Y-242124619D01*
X82740761Y-242028741D01*
X82706735Y-241966429D01*
X82711800Y-241895614D01*
X82740761Y-241850551D01*
X82830869Y-241760443D01*
X82840176Y-241748574D01*
X82921079Y-241614988D01*
X82927285Y-241601243D01*
X82974256Y-241451356D01*
X82976869Y-241438306D01*
X82981913Y-241383414D01*
X82978525Y-241371876D01*
X82977135Y-241370671D01*
X82969452Y-241369000D01*
X81035116Y-241369000D01*
X81019877Y-241373475D01*
X81018672Y-241374865D01*
X81017709Y-241379294D01*
X81023132Y-241438315D01*
X81025743Y-241451351D01*
X81072715Y-241601243D01*
X81078921Y-241614988D01*
X81159824Y-241748574D01*
X81169131Y-241760443D01*
X81259239Y-241850551D01*
X81293265Y-241912863D01*
X81288200Y-241983678D01*
X81259239Y-242028741D01*
X81163361Y-242124619D01*
X81074528Y-242271301D01*
X81023247Y-242434938D01*
X81016500Y-242508365D01*
X81016501Y-243021634D01*
X81023247Y-243095062D01*
X81025246Y-243101440D01*
X81025246Y-243101441D01*
X81070988Y-243247402D01*
X81074528Y-243258699D01*
X81163361Y-243405381D01*
X81284619Y-243526639D01*
X81431301Y-243615472D01*
X81438548Y-243617743D01*
X81438550Y-243617744D01*
X81484951Y-243632285D01*
X81594938Y-243666753D01*
X81668365Y-243673500D01*
X81686474Y-243673500D01*
X81960406Y-243673499D01*
X82028525Y-243693501D01*
X82049500Y-243710404D01*
X82181343Y-243842247D01*
X82188887Y-243850537D01*
X82193000Y-243857018D01*
X82198777Y-243862443D01*
X82242667Y-243903658D01*
X82245509Y-243906413D01*
X82265230Y-243926134D01*
X82268425Y-243928612D01*
X82277447Y-243936318D01*
X82309679Y-243966586D01*
X82316628Y-243970406D01*
X82327432Y-243976346D01*
X82343956Y-243987199D01*
X82359959Y-243999613D01*
X82400543Y-244017176D01*
X82411173Y-244022383D01*
X82449940Y-244043695D01*
X82457617Y-244045666D01*
X82457622Y-244045668D01*
X82469558Y-244048732D01*
X82488266Y-244055137D01*
X82506855Y-244063181D01*
X82514683Y-244064421D01*
X82514690Y-244064423D01*
X82550524Y-244070099D01*
X82562144Y-244072505D01*
X82597289Y-244081528D01*
X82604970Y-244083500D01*
X82625224Y-244083500D01*
X82644934Y-244085051D01*
X82664943Y-244088220D01*
X82672835Y-244087474D01*
X82708961Y-244084059D01*
X82720819Y-244083500D01*
X84082130Y-244083500D01*
X84150251Y-244103502D01*
X84196744Y-244157158D01*
X84200112Y-244165270D01*
X84249385Y-244296705D01*
X84336739Y-244413261D01*
X84453295Y-244500615D01*
X84589684Y-244551745D01*
X84651866Y-244558500D01*
X84690500Y-244558500D01*
X84758621Y-244578502D01*
X84805114Y-244632158D01*
X84816500Y-244684500D01*
X84816500Y-244865500D01*
X84796498Y-244933621D01*
X84742842Y-244980114D01*
X84690500Y-244991500D01*
X84651866Y-244991500D01*
X84589684Y-244998255D01*
X84453295Y-245049385D01*
X84336739Y-245136739D01*
X84249385Y-245253295D01*
X84198255Y-245389684D01*
X84191500Y-245451866D01*
X84191500Y-246748134D01*
X84198255Y-246810316D01*
X84249385Y-246946705D01*
X84336739Y-247063261D01*
X84453295Y-247150615D01*
X84589684Y-247201745D01*
X84651866Y-247208500D01*
X86248134Y-247208500D01*
X86310316Y-247201745D01*
X86446705Y-247150615D01*
X86563261Y-247063261D01*
X86650615Y-246946705D01*
X86699888Y-246815270D01*
X86742530Y-246758506D01*
X86809091Y-246733806D01*
X86817870Y-246733500D01*
X87032130Y-246733500D01*
X87100251Y-246753502D01*
X87146744Y-246807158D01*
X87150112Y-246815270D01*
X87199385Y-246946705D01*
X87286739Y-247063261D01*
X87403295Y-247150615D01*
X87539684Y-247201745D01*
X87601866Y-247208500D01*
X88898134Y-247208500D01*
X88960316Y-247201745D01*
X89096705Y-247150615D01*
X89213261Y-247063261D01*
X89300615Y-246946705D01*
X89351745Y-246810316D01*
X89358500Y-246748134D01*
X89358500Y-245574493D01*
X89378502Y-245506372D01*
X89432158Y-245459879D01*
X89453763Y-245452457D01*
X89460316Y-245451745D01*
X89467711Y-245448973D01*
X89467714Y-245448972D01*
X89588297Y-245403767D01*
X89596705Y-245400615D01*
X89713261Y-245313261D01*
X89800615Y-245196705D01*
X89839148Y-245093919D01*
X89849888Y-245065270D01*
X89892530Y-245008506D01*
X89959091Y-244983806D01*
X89967870Y-244983500D01*
X90032130Y-244983500D01*
X90100251Y-245003502D01*
X90146744Y-245057158D01*
X90150112Y-245065270D01*
X90160852Y-245093919D01*
X90199385Y-245196705D01*
X90286739Y-245313261D01*
X90403295Y-245400615D01*
X90411703Y-245403767D01*
X90532286Y-245448972D01*
X90532289Y-245448973D01*
X90539684Y-245451745D01*
X90545453Y-245452372D01*
X90606291Y-245487126D01*
X90639113Y-245550081D01*
X90641500Y-245574493D01*
X90641500Y-246748134D01*
X90648255Y-246810316D01*
X90699385Y-246946705D01*
X90786739Y-247063261D01*
X90903295Y-247150615D01*
X91039684Y-247201745D01*
X91101866Y-247208500D01*
X92398134Y-247208500D01*
X92460316Y-247201745D01*
X92596705Y-247150615D01*
X92713261Y-247063261D01*
X92800615Y-246946705D01*
X92849888Y-246815270D01*
X92892530Y-246758506D01*
X92959091Y-246733806D01*
X92967870Y-246733500D01*
X93200874Y-246733500D01*
X93268995Y-246753502D01*
X93315488Y-246807158D01*
X93318856Y-246815270D01*
X93349385Y-246896705D01*
X93436739Y-247013261D01*
X93553295Y-247100615D01*
X93689684Y-247151745D01*
X93751866Y-247158500D01*
X95348134Y-247158500D01*
X95410316Y-247151745D01*
X95546705Y-247100615D01*
X95663261Y-247013261D01*
X95673200Y-247000000D01*
X290386526Y-247000000D01*
X290406391Y-247252403D01*
X290465495Y-247498591D01*
X290562384Y-247732502D01*
X290694672Y-247948376D01*
X290859102Y-248140898D01*
X291051624Y-248305328D01*
X291267498Y-248437616D01*
X291272068Y-248439509D01*
X291272072Y-248439511D01*
X291496836Y-248532611D01*
X291501409Y-248534505D01*
X291586032Y-248554821D01*
X291742784Y-248592454D01*
X291742790Y-248592455D01*
X291747597Y-248593609D01*
X291847416Y-248601465D01*
X291934345Y-248608307D01*
X291934352Y-248608307D01*
X291936801Y-248608500D01*
X292063199Y-248608500D01*
X292065648Y-248608307D01*
X292065655Y-248608307D01*
X292152584Y-248601465D01*
X292252403Y-248593609D01*
X292257210Y-248592455D01*
X292257216Y-248592454D01*
X292413968Y-248554821D01*
X292498591Y-248534505D01*
X292503164Y-248532611D01*
X292727928Y-248439511D01*
X292727932Y-248439509D01*
X292732502Y-248437616D01*
X292948376Y-248305328D01*
X293140898Y-248140898D01*
X293305328Y-247948376D01*
X293437616Y-247732502D01*
X293534505Y-247498591D01*
X293593609Y-247252403D01*
X293613474Y-247000000D01*
X293593609Y-246747597D01*
X293590299Y-246733806D01*
X293535660Y-246506221D01*
X293534505Y-246501409D01*
X293437616Y-246267498D01*
X293305328Y-246051624D01*
X293140898Y-245859102D01*
X292948376Y-245694672D01*
X292732502Y-245562384D01*
X292727932Y-245560491D01*
X292727928Y-245560489D01*
X292503164Y-245467389D01*
X292503162Y-245467388D01*
X292498591Y-245465495D01*
X292398619Y-245441494D01*
X292257216Y-245407546D01*
X292257210Y-245407545D01*
X292252403Y-245406391D01*
X292139943Y-245397540D01*
X292065655Y-245391693D01*
X292065648Y-245391693D01*
X292063199Y-245391500D01*
X291936801Y-245391500D01*
X291934352Y-245391693D01*
X291934345Y-245391693D01*
X291860057Y-245397540D01*
X291747597Y-245406391D01*
X291742790Y-245407545D01*
X291742784Y-245407546D01*
X291601381Y-245441494D01*
X291501409Y-245465495D01*
X291496838Y-245467388D01*
X291496836Y-245467389D01*
X291272072Y-245560489D01*
X291272068Y-245560491D01*
X291267498Y-245562384D01*
X291051624Y-245694672D01*
X290859102Y-245859102D01*
X290694672Y-246051624D01*
X290562384Y-246267498D01*
X290465495Y-246501409D01*
X290464340Y-246506221D01*
X290409702Y-246733806D01*
X290406391Y-246747597D01*
X290386526Y-247000000D01*
X95673200Y-247000000D01*
X95750615Y-246896705D01*
X95801745Y-246760316D01*
X95808500Y-246698134D01*
X95808500Y-245401866D01*
X95801745Y-245339684D01*
X95750615Y-245203295D01*
X95663261Y-245086739D01*
X95546705Y-244999385D01*
X95410316Y-244948255D01*
X95348134Y-244941500D01*
X95309500Y-244941500D01*
X95241379Y-244921498D01*
X95194886Y-244867842D01*
X95183500Y-244815500D01*
X95183500Y-244634500D01*
X95203502Y-244566379D01*
X95257158Y-244519886D01*
X95309500Y-244508500D01*
X95348134Y-244508500D01*
X95410316Y-244501745D01*
X95546705Y-244450615D01*
X95663261Y-244363261D01*
X95750615Y-244246705D01*
X95801745Y-244110316D01*
X95808500Y-244048134D01*
X95808500Y-242751866D01*
X95801745Y-242689684D01*
X95750615Y-242553295D01*
X95663261Y-242436739D01*
X95546705Y-242349385D01*
X95410316Y-242298255D01*
X95348134Y-242291500D01*
X94389595Y-242291500D01*
X94321474Y-242271498D01*
X94300500Y-242254595D01*
X93995405Y-241949500D01*
X93961379Y-241887188D01*
X93958500Y-241860405D01*
X93958500Y-240595616D01*
X93951745Y-240533434D01*
X93900615Y-240397045D01*
X93813261Y-240280489D01*
X93696705Y-240193135D01*
X93560316Y-240142005D01*
X93498134Y-240135250D01*
X93154489Y-240135250D01*
X93086368Y-240115248D01*
X93039875Y-240061592D01*
X93029771Y-239991318D01*
X93059265Y-239926738D01*
X93065394Y-239920155D01*
X117240144Y-215745405D01*
X117302456Y-215711379D01*
X117329239Y-215708500D01*
X159882019Y-215708500D01*
X159951012Y-215729068D01*
X159975978Y-215745405D01*
X160030846Y-215781310D01*
X160037450Y-215783766D01*
X160037452Y-215783767D01*
X160073844Y-215797301D01*
X160190341Y-215840626D01*
X160359015Y-215863132D01*
X160366026Y-215862494D01*
X160366030Y-215862494D01*
X160521462Y-215848348D01*
X160528483Y-215847709D01*
X160535185Y-215845531D01*
X160535187Y-215845531D01*
X160683623Y-215797301D01*
X160683626Y-215797300D01*
X160690322Y-215795124D01*
X160836490Y-215707990D01*
X160841584Y-215703139D01*
X160841588Y-215703136D01*
X160908833Y-215639099D01*
X160959721Y-215590639D01*
X161053891Y-215448902D01*
X161114319Y-215289825D01*
X161138001Y-215121313D01*
X161138299Y-215100000D01*
X161119331Y-214930892D01*
X161063368Y-214770189D01*
X160973192Y-214625879D01*
X160853286Y-214505132D01*
X160837189Y-214494916D01*
X160790391Y-214441530D01*
X160779885Y-214371316D01*
X160809007Y-214306567D01*
X160840185Y-214280303D01*
X160955444Y-214211594D01*
X160961490Y-214207990D01*
X160966584Y-214203139D01*
X160966588Y-214203136D01*
X161033833Y-214139099D01*
X161084721Y-214090639D01*
X161178891Y-213948902D01*
X161239319Y-213789825D01*
X161263001Y-213621313D01*
X161263299Y-213600000D01*
X161244331Y-213430892D01*
X161188368Y-213270189D01*
X161127645Y-213173013D01*
X161108500Y-213106245D01*
X161108500Y-211708594D01*
X161128502Y-211640473D01*
X161182158Y-211593980D01*
X161252432Y-211583876D01*
X161317012Y-211613370D01*
X161323595Y-211619499D01*
X172571343Y-222867247D01*
X172578887Y-222875537D01*
X172583000Y-222882018D01*
X172588777Y-222887443D01*
X172632667Y-222928658D01*
X172635509Y-222931413D01*
X172655230Y-222951134D01*
X172658425Y-222953612D01*
X172667447Y-222961318D01*
X172699679Y-222991586D01*
X172706628Y-222995406D01*
X172717432Y-223001346D01*
X172733956Y-223012199D01*
X172749959Y-223024613D01*
X172790543Y-223042176D01*
X172801173Y-223047383D01*
X172839940Y-223068695D01*
X172847617Y-223070666D01*
X172847622Y-223070668D01*
X172859558Y-223073732D01*
X172878266Y-223080137D01*
X172896855Y-223088181D01*
X172904680Y-223089420D01*
X172904682Y-223089421D01*
X172940519Y-223095097D01*
X172952140Y-223097504D01*
X172987289Y-223106528D01*
X172994970Y-223108500D01*
X173015231Y-223108500D01*
X173034940Y-223110051D01*
X173054943Y-223113219D01*
X173062835Y-223112473D01*
X173068062Y-223111979D01*
X173098954Y-223109059D01*
X173110811Y-223108500D01*
X185720223Y-223108500D01*
X185789216Y-223129068D01*
X185823146Y-223151271D01*
X185830846Y-223156310D01*
X185837450Y-223158766D01*
X185837452Y-223158767D01*
X185873844Y-223172301D01*
X185990341Y-223215626D01*
X186159015Y-223238132D01*
X186166026Y-223237494D01*
X186166030Y-223237494D01*
X186321462Y-223223348D01*
X186328483Y-223222709D01*
X186335185Y-223220531D01*
X186335187Y-223220531D01*
X186483623Y-223172301D01*
X186483626Y-223172300D01*
X186490322Y-223170124D01*
X186521948Y-223151271D01*
X186586466Y-223133500D01*
X188292775Y-223133500D01*
X188360896Y-223153502D01*
X188400551Y-223194229D01*
X188413361Y-223215381D01*
X188534619Y-223336639D01*
X188681301Y-223425472D01*
X188688548Y-223427743D01*
X188688550Y-223427744D01*
X188754836Y-223448517D01*
X188844938Y-223476753D01*
X188918365Y-223483500D01*
X188921263Y-223483500D01*
X189175665Y-223483499D01*
X189431634Y-223483499D01*
X189434492Y-223483236D01*
X189434501Y-223483236D01*
X189470004Y-223479974D01*
X189505062Y-223476753D01*
X189513030Y-223474256D01*
X189661450Y-223427744D01*
X189661452Y-223427743D01*
X189668699Y-223425472D01*
X189815381Y-223336639D01*
X189911259Y-223240761D01*
X189973571Y-223206735D01*
X190044386Y-223211800D01*
X190089449Y-223240761D01*
X190179557Y-223330869D01*
X190191426Y-223340176D01*
X190325012Y-223421079D01*
X190338757Y-223427285D01*
X190488644Y-223474256D01*
X190501694Y-223476869D01*
X190556586Y-223481913D01*
X190568124Y-223478525D01*
X190569329Y-223477135D01*
X190571000Y-223469452D01*
X190571000Y-223464884D01*
X191079000Y-223464884D01*
X191083475Y-223480123D01*
X191084865Y-223481328D01*
X191089294Y-223482291D01*
X191148315Y-223476868D01*
X191161351Y-223474257D01*
X191311243Y-223427285D01*
X191324988Y-223421079D01*
X191458574Y-223340176D01*
X191470443Y-223330869D01*
X191580869Y-223220443D01*
X191590176Y-223208574D01*
X191671079Y-223074988D01*
X191677285Y-223061243D01*
X191724256Y-222911356D01*
X191726869Y-222898306D01*
X191732734Y-222834479D01*
X191733000Y-222828691D01*
X191733000Y-222772115D01*
X191728525Y-222756876D01*
X191727135Y-222755671D01*
X191719452Y-222754000D01*
X191097115Y-222754000D01*
X191081876Y-222758475D01*
X191080671Y-222759865D01*
X191079000Y-222767548D01*
X191079000Y-223464884D01*
X190571000Y-223464884D01*
X190571000Y-222227885D01*
X191079000Y-222227885D01*
X191083475Y-222243124D01*
X191084865Y-222244329D01*
X191092548Y-222246000D01*
X191714884Y-222246000D01*
X191730123Y-222241525D01*
X191731328Y-222240135D01*
X191732999Y-222232452D01*
X191732999Y-222171295D01*
X191732736Y-222165546D01*
X191726868Y-222101685D01*
X191724257Y-222088649D01*
X191677285Y-221938757D01*
X191671079Y-221925012D01*
X191590176Y-221791426D01*
X191580869Y-221779557D01*
X191470443Y-221669131D01*
X191458574Y-221659824D01*
X191324988Y-221578921D01*
X191311243Y-221572715D01*
X191161356Y-221525744D01*
X191148306Y-221523131D01*
X191093414Y-221518087D01*
X191081876Y-221521475D01*
X191080671Y-221522865D01*
X191079000Y-221530548D01*
X191079000Y-222227885D01*
X190571000Y-222227885D01*
X190571000Y-221535116D01*
X190566525Y-221519877D01*
X190565135Y-221518672D01*
X190560706Y-221517709D01*
X190501685Y-221523132D01*
X190488649Y-221525743D01*
X190338757Y-221572715D01*
X190325012Y-221578921D01*
X190191426Y-221659824D01*
X190179557Y-221669131D01*
X190089449Y-221759239D01*
X190027137Y-221793265D01*
X189956322Y-221788200D01*
X189911259Y-221759239D01*
X189815381Y-221663361D01*
X189668699Y-221574528D01*
X189661452Y-221572257D01*
X189661450Y-221572256D01*
X189595164Y-221551483D01*
X189505062Y-221523247D01*
X189431635Y-221516500D01*
X189428737Y-221516500D01*
X189174335Y-221516501D01*
X188918366Y-221516501D01*
X188915508Y-221516764D01*
X188915499Y-221516764D01*
X188881619Y-221519877D01*
X188844938Y-221523247D01*
X188838560Y-221525246D01*
X188838559Y-221525246D01*
X188688550Y-221572256D01*
X188688548Y-221572257D01*
X188681301Y-221574528D01*
X188534619Y-221663361D01*
X188413361Y-221784619D01*
X188408125Y-221793265D01*
X188400551Y-221805771D01*
X188348154Y-221853678D01*
X188292775Y-221866500D01*
X186668411Y-221866500D01*
X186600897Y-221846885D01*
X186515562Y-221792729D01*
X186515558Y-221792727D01*
X186509608Y-221788951D01*
X186349300Y-221731868D01*
X186180329Y-221711720D01*
X186173326Y-221712456D01*
X186173325Y-221712456D01*
X186018101Y-221728770D01*
X186018097Y-221728771D01*
X186011093Y-221729507D01*
X185850003Y-221784346D01*
X185787468Y-221822818D01*
X185721448Y-221841500D01*
X173389595Y-221841500D01*
X173321474Y-221821498D01*
X173300500Y-221804595D01*
X133194500Y-181698595D01*
X133160474Y-181636283D01*
X133165539Y-181565468D01*
X133208086Y-181508632D01*
X133274606Y-181483821D01*
X133283595Y-181483500D01*
X133705704Y-181483500D01*
X133773825Y-181503502D01*
X133820542Y-181557652D01*
X133822255Y-181561446D01*
X133824528Y-181568699D01*
X133913361Y-181715381D01*
X134034619Y-181836639D01*
X134181301Y-181925472D01*
X134188548Y-181927743D01*
X134188550Y-181927744D01*
X134254836Y-181948517D01*
X134344938Y-181976753D01*
X134418365Y-181983500D01*
X134421263Y-181983500D01*
X134675665Y-181983499D01*
X134931634Y-181983499D01*
X134934492Y-181983236D01*
X134934501Y-181983236D01*
X134970004Y-181979974D01*
X135005062Y-181976753D01*
X135013030Y-181974256D01*
X135161450Y-181927744D01*
X135161452Y-181927743D01*
X135168699Y-181925472D01*
X135315381Y-181836639D01*
X135411259Y-181740761D01*
X135473571Y-181706735D01*
X135544386Y-181711800D01*
X135589449Y-181740761D01*
X135679557Y-181830869D01*
X135691426Y-181840176D01*
X135825012Y-181921079D01*
X135838757Y-181927285D01*
X135988644Y-181974256D01*
X136001694Y-181976869D01*
X136056586Y-181981913D01*
X136068124Y-181978525D01*
X136069329Y-181977135D01*
X136071000Y-181969452D01*
X136071000Y-181964884D01*
X136579000Y-181964884D01*
X136583475Y-181980123D01*
X136584865Y-181981328D01*
X136589294Y-181982291D01*
X136648315Y-181976868D01*
X136661351Y-181974257D01*
X136811243Y-181927285D01*
X136824988Y-181921079D01*
X136958574Y-181840176D01*
X136970443Y-181830869D01*
X137080869Y-181720443D01*
X137090176Y-181708574D01*
X137171079Y-181574988D01*
X137177285Y-181561243D01*
X137224256Y-181411356D01*
X137226869Y-181398306D01*
X137232734Y-181334479D01*
X137233000Y-181328691D01*
X137233000Y-181272115D01*
X137228525Y-181256876D01*
X137227135Y-181255671D01*
X137219452Y-181254000D01*
X136597115Y-181254000D01*
X136581876Y-181258475D01*
X136580671Y-181259865D01*
X136579000Y-181267548D01*
X136579000Y-181964884D01*
X136071000Y-181964884D01*
X136071000Y-180727885D01*
X136579000Y-180727885D01*
X136583475Y-180743124D01*
X136584865Y-180744329D01*
X136592548Y-180746000D01*
X137214884Y-180746000D01*
X137230123Y-180741525D01*
X137231328Y-180740135D01*
X137232999Y-180732452D01*
X137232999Y-180671295D01*
X137232736Y-180665546D01*
X137226868Y-180601685D01*
X137224257Y-180588649D01*
X137177285Y-180438757D01*
X137171079Y-180425012D01*
X137090176Y-180291426D01*
X137080869Y-180279557D01*
X136970443Y-180169131D01*
X136958574Y-180159824D01*
X136824988Y-180078921D01*
X136811243Y-180072715D01*
X136661356Y-180025744D01*
X136648306Y-180023131D01*
X136593414Y-180018087D01*
X136581876Y-180021475D01*
X136580671Y-180022865D01*
X136579000Y-180030548D01*
X136579000Y-180727885D01*
X136071000Y-180727885D01*
X136071000Y-180035116D01*
X136066525Y-180019877D01*
X136065135Y-180018672D01*
X136060706Y-180017709D01*
X136001685Y-180023132D01*
X135988649Y-180025743D01*
X135838757Y-180072715D01*
X135825012Y-180078921D01*
X135691426Y-180159824D01*
X135679557Y-180169131D01*
X135589449Y-180259239D01*
X135527137Y-180293265D01*
X135456322Y-180288200D01*
X135411259Y-180259239D01*
X135315381Y-180163361D01*
X135168699Y-180074528D01*
X135161452Y-180072257D01*
X135161450Y-180072256D01*
X135095164Y-180051483D01*
X135005062Y-180023247D01*
X134931635Y-180016500D01*
X134928737Y-180016500D01*
X134674335Y-180016501D01*
X134418366Y-180016501D01*
X134415508Y-180016764D01*
X134415499Y-180016764D01*
X134381619Y-180019877D01*
X134344938Y-180023247D01*
X134338560Y-180025246D01*
X134338559Y-180025246D01*
X134188550Y-180072256D01*
X134188548Y-180072257D01*
X134181301Y-180074528D01*
X134034619Y-180163361D01*
X134018385Y-180179595D01*
X133956073Y-180213621D01*
X133929290Y-180216500D01*
X133409500Y-180216500D01*
X133341379Y-180196498D01*
X133294886Y-180142842D01*
X133283500Y-180090500D01*
X133283500Y-160522095D01*
X136542001Y-160522095D01*
X136542338Y-160528614D01*
X136552257Y-160624206D01*
X136555149Y-160637600D01*
X136606588Y-160791784D01*
X136612761Y-160804962D01*
X136698063Y-160942807D01*
X136707099Y-160954208D01*
X136821829Y-161068739D01*
X136833240Y-161077751D01*
X136971243Y-161162816D01*
X136984424Y-161168963D01*
X137138710Y-161220138D01*
X137152086Y-161223005D01*
X137246438Y-161232672D01*
X137252854Y-161233000D01*
X137277885Y-161233000D01*
X137293124Y-161228525D01*
X137294329Y-161227135D01*
X137296000Y-161219452D01*
X137296000Y-161214884D01*
X137804000Y-161214884D01*
X137808475Y-161230123D01*
X137809865Y-161231328D01*
X137817548Y-161232999D01*
X137847095Y-161232999D01*
X137853614Y-161232662D01*
X137949206Y-161222743D01*
X137962600Y-161219851D01*
X138116784Y-161168412D01*
X138129962Y-161162239D01*
X138267807Y-161076937D01*
X138279208Y-161067901D01*
X138393738Y-160953172D01*
X138400794Y-160944238D01*
X138458712Y-160903177D01*
X138529635Y-160899947D01*
X138591046Y-160935574D01*
X138597846Y-160943407D01*
X138601522Y-160949348D01*
X138726697Y-161074305D01*
X138732927Y-161078145D01*
X138732928Y-161078146D01*
X138870288Y-161162816D01*
X138877262Y-161167115D01*
X138957005Y-161193564D01*
X139038611Y-161220632D01*
X139038613Y-161220632D01*
X139045139Y-161222797D01*
X139051975Y-161223497D01*
X139051978Y-161223498D01*
X139095031Y-161227909D01*
X139149600Y-161233500D01*
X139750400Y-161233500D01*
X139753646Y-161233163D01*
X139753650Y-161233163D01*
X139849308Y-161223238D01*
X139849312Y-161223237D01*
X139856166Y-161222526D01*
X139862702Y-161220345D01*
X139862704Y-161220345D01*
X139994806Y-161176272D01*
X140023946Y-161166550D01*
X140174348Y-161073478D01*
X140299305Y-160948303D01*
X140392115Y-160797738D01*
X140410407Y-160742589D01*
X140450838Y-160684230D01*
X140516402Y-160656993D01*
X140586284Y-160669527D01*
X140598981Y-160676818D01*
X140605846Y-160681310D01*
X140612450Y-160683766D01*
X140612452Y-160683767D01*
X140648844Y-160697301D01*
X140765341Y-160740626D01*
X140934015Y-160763132D01*
X140941026Y-160762494D01*
X140941030Y-160762494D01*
X141096462Y-160748348D01*
X141103483Y-160747709D01*
X141110185Y-160745531D01*
X141110187Y-160745531D01*
X141258623Y-160697301D01*
X141258626Y-160697300D01*
X141265322Y-160695124D01*
X141411490Y-160607990D01*
X141416584Y-160603139D01*
X141416588Y-160603136D01*
X141501689Y-160522095D01*
X141534721Y-160490639D01*
X141628891Y-160348902D01*
X141689319Y-160189825D01*
X141713001Y-160021313D01*
X141713299Y-160000000D01*
X141694331Y-159830892D01*
X141638368Y-159670189D01*
X141548192Y-159525879D01*
X141500503Y-159477855D01*
X141433248Y-159410129D01*
X141428286Y-159405132D01*
X141406806Y-159391500D01*
X141363015Y-159363710D01*
X141284608Y-159313951D01*
X141124300Y-159256868D01*
X140955329Y-159236720D01*
X140948326Y-159237456D01*
X140948325Y-159237456D01*
X140793101Y-159253770D01*
X140793097Y-159253771D01*
X140786093Y-159254507D01*
X140779422Y-159256778D01*
X140631673Y-159307075D01*
X140631670Y-159307076D01*
X140625003Y-159309346D01*
X140619005Y-159313036D01*
X140619003Y-159313037D01*
X140596562Y-159326843D01*
X140528061Y-159345501D01*
X140460347Y-159324162D01*
X140414919Y-159269602D01*
X140411016Y-159259401D01*
X140409138Y-159253770D01*
X140391550Y-159201054D01*
X140298478Y-159050652D01*
X140173303Y-158925695D01*
X140167072Y-158921854D01*
X140028968Y-158836725D01*
X140028966Y-158836724D01*
X140022738Y-158832885D01*
X139942995Y-158806436D01*
X139861389Y-158779368D01*
X139861387Y-158779368D01*
X139854861Y-158777203D01*
X139848025Y-158776503D01*
X139848022Y-158776502D01*
X139804969Y-158772091D01*
X139750400Y-158766500D01*
X139149600Y-158766500D01*
X139146354Y-158766837D01*
X139146350Y-158766837D01*
X139050692Y-158776762D01*
X139050688Y-158776763D01*
X139043834Y-158777474D01*
X139037298Y-158779655D01*
X139037296Y-158779655D01*
X139020928Y-158785116D01*
X138876054Y-158833450D01*
X138725652Y-158926522D01*
X138600695Y-159051697D01*
X138597898Y-159056235D01*
X138540647Y-159096824D01*
X138469724Y-159100054D01*
X138408313Y-159064428D01*
X138400938Y-159055932D01*
X138392902Y-159045793D01*
X138278171Y-158931261D01*
X138266760Y-158922249D01*
X138128757Y-158837184D01*
X138115576Y-158831037D01*
X137961290Y-158779862D01*
X137947914Y-158776995D01*
X137853562Y-158767328D01*
X137847145Y-158767000D01*
X137822115Y-158767000D01*
X137806876Y-158771475D01*
X137805671Y-158772865D01*
X137804000Y-158780548D01*
X137804000Y-161214884D01*
X137296000Y-161214884D01*
X137296000Y-160272115D01*
X137291525Y-160256876D01*
X137290135Y-160255671D01*
X137282452Y-160254000D01*
X136560116Y-160254000D01*
X136544877Y-160258475D01*
X136543672Y-160259865D01*
X136542001Y-160267548D01*
X136542001Y-160522095D01*
X133283500Y-160522095D01*
X133283500Y-159727885D01*
X136542000Y-159727885D01*
X136546475Y-159743124D01*
X136547865Y-159744329D01*
X136555548Y-159746000D01*
X137277885Y-159746000D01*
X137293124Y-159741525D01*
X137294329Y-159740135D01*
X137296000Y-159732452D01*
X137296000Y-158785116D01*
X137291525Y-158769877D01*
X137290135Y-158768672D01*
X137282452Y-158767001D01*
X137252905Y-158767001D01*
X137246386Y-158767338D01*
X137150794Y-158777257D01*
X137137400Y-158780149D01*
X136983216Y-158831588D01*
X136970038Y-158837761D01*
X136832193Y-158923063D01*
X136820792Y-158932099D01*
X136706261Y-159046829D01*
X136697249Y-159058240D01*
X136612184Y-159196243D01*
X136606037Y-159209424D01*
X136554862Y-159363710D01*
X136551995Y-159377086D01*
X136542328Y-159471438D01*
X136542000Y-159477855D01*
X136542000Y-159727885D01*
X133283500Y-159727885D01*
X133283500Y-135000000D01*
X290386526Y-135000000D01*
X290406391Y-135252403D01*
X290465495Y-135498591D01*
X290467388Y-135503162D01*
X290467389Y-135503164D01*
X290532952Y-135661446D01*
X290562384Y-135732502D01*
X290694672Y-135948376D01*
X290859102Y-136140898D01*
X291051624Y-136305328D01*
X291267498Y-136437616D01*
X291272068Y-136439509D01*
X291272072Y-136439511D01*
X291496836Y-136532611D01*
X291501409Y-136534505D01*
X291550248Y-136546230D01*
X291742784Y-136592454D01*
X291742790Y-136592455D01*
X291747597Y-136593609D01*
X291847416Y-136601465D01*
X291934345Y-136608307D01*
X291934352Y-136608307D01*
X291936801Y-136608500D01*
X292063199Y-136608500D01*
X292065648Y-136608307D01*
X292065655Y-136608307D01*
X292152584Y-136601465D01*
X292252403Y-136593609D01*
X292257210Y-136592455D01*
X292257216Y-136592454D01*
X292449752Y-136546230D01*
X292498591Y-136534505D01*
X292503164Y-136532611D01*
X292727928Y-136439511D01*
X292727932Y-136439509D01*
X292732502Y-136437616D01*
X292948376Y-136305328D01*
X293140898Y-136140898D01*
X293305328Y-135948376D01*
X293437616Y-135732502D01*
X293467049Y-135661446D01*
X293532611Y-135503164D01*
X293532612Y-135503162D01*
X293534505Y-135498591D01*
X293593609Y-135252403D01*
X293613474Y-135000000D01*
X293593609Y-134747597D01*
X293580051Y-134691120D01*
X293535660Y-134506221D01*
X293534505Y-134501409D01*
X293515536Y-134455614D01*
X293439511Y-134272072D01*
X293439509Y-134272068D01*
X293437616Y-134267498D01*
X293305328Y-134051624D01*
X293140898Y-133859102D01*
X292948376Y-133694672D01*
X292732502Y-133562384D01*
X292727932Y-133560491D01*
X292727928Y-133560489D01*
X292503164Y-133467389D01*
X292503162Y-133467388D01*
X292498591Y-133465495D01*
X292413968Y-133445179D01*
X292257216Y-133407546D01*
X292257210Y-133407545D01*
X292252403Y-133406391D01*
X292152584Y-133398535D01*
X292065655Y-133391693D01*
X292065648Y-133391693D01*
X292063199Y-133391500D01*
X291936801Y-133391500D01*
X291934352Y-133391693D01*
X291934345Y-133391693D01*
X291847416Y-133398535D01*
X291747597Y-133406391D01*
X291742790Y-133407545D01*
X291742784Y-133407546D01*
X291586032Y-133445179D01*
X291501409Y-133465495D01*
X291496838Y-133467388D01*
X291496836Y-133467389D01*
X291272072Y-133560489D01*
X291272068Y-133560491D01*
X291267498Y-133562384D01*
X291051624Y-133694672D01*
X290859102Y-133859102D01*
X290694672Y-134051624D01*
X290562384Y-134267498D01*
X290560491Y-134272068D01*
X290560489Y-134272072D01*
X290484464Y-134455614D01*
X290465495Y-134501409D01*
X290464340Y-134506221D01*
X290419950Y-134691120D01*
X290406391Y-134747597D01*
X290386526Y-135000000D01*
X133283500Y-135000000D01*
X133283500Y-127628767D01*
X133284027Y-127617584D01*
X133285702Y-127610091D01*
X133283562Y-127542000D01*
X133283500Y-127538043D01*
X133283500Y-127510144D01*
X133282996Y-127506153D01*
X133282063Y-127494311D01*
X133281928Y-127489992D01*
X133280674Y-127450111D01*
X133278462Y-127442497D01*
X133278461Y-127442492D01*
X133275023Y-127430659D01*
X133271012Y-127411295D01*
X133269467Y-127399064D01*
X133268474Y-127391203D01*
X133265557Y-127383836D01*
X133265556Y-127383831D01*
X133252198Y-127350092D01*
X133248354Y-127338865D01*
X133238230Y-127304022D01*
X133236018Y-127296407D01*
X133225707Y-127278972D01*
X133217012Y-127261224D01*
X133209552Y-127242383D01*
X133183564Y-127206613D01*
X133177048Y-127196693D01*
X133158580Y-127165465D01*
X133158578Y-127165462D01*
X133154542Y-127158638D01*
X133140221Y-127144317D01*
X133127380Y-127129283D01*
X133120131Y-127119306D01*
X133115472Y-127112893D01*
X133081395Y-127084702D01*
X133072616Y-127076712D01*
X116909999Y-110914095D01*
X116875973Y-110851783D01*
X116881038Y-110780968D01*
X116909999Y-110735905D01*
X152024261Y-75621644D01*
X152074420Y-75590906D01*
X152208623Y-75547301D01*
X152208626Y-75547300D01*
X152215322Y-75545124D01*
X152361490Y-75457990D01*
X152366584Y-75453139D01*
X152366588Y-75453136D01*
X152433833Y-75389099D01*
X152484721Y-75340639D01*
X152578891Y-75198902D01*
X152639319Y-75039825D01*
X152663001Y-74871313D01*
X152663299Y-74850000D01*
X152644331Y-74680892D01*
X152588368Y-74520189D01*
X152582383Y-74510610D01*
X152560420Y-74475464D01*
X152498192Y-74375879D01*
X152378286Y-74255132D01*
X152362039Y-74244821D01*
X152323406Y-74220304D01*
X152234608Y-74163951D01*
X152074300Y-74106868D01*
X151905329Y-74086720D01*
X151898326Y-74087456D01*
X151898325Y-74087456D01*
X151743101Y-74103770D01*
X151743097Y-74103771D01*
X151736093Y-74104507D01*
X151729422Y-74106778D01*
X151581673Y-74157075D01*
X151581670Y-74157076D01*
X151575003Y-74159346D01*
X151569005Y-74163036D01*
X151569003Y-74163037D01*
X151436065Y-74244821D01*
X151436063Y-74244823D01*
X151430066Y-74248512D01*
X151308486Y-74367573D01*
X151216304Y-74510610D01*
X151158103Y-74670516D01*
X151158043Y-74670993D01*
X151125994Y-74728102D01*
X115699500Y-110154595D01*
X115637188Y-110188621D01*
X115610405Y-110191500D01*
X61723224Y-110191500D01*
X61655103Y-110171498D01*
X61608610Y-110117842D01*
X61598506Y-110047568D01*
X61614769Y-110001364D01*
X61634145Y-109968601D01*
X61680562Y-109808831D01*
X61683500Y-109771502D01*
X61683500Y-109338498D01*
X61680562Y-109301169D01*
X61634145Y-109141399D01*
X61617107Y-109112589D01*
X61553491Y-109005020D01*
X61553489Y-109005017D01*
X61549453Y-108998193D01*
X61431807Y-108880547D01*
X61424983Y-108876511D01*
X61424980Y-108876509D01*
X61295427Y-108799892D01*
X61295428Y-108799892D01*
X61288601Y-108795855D01*
X61280990Y-108793644D01*
X61280988Y-108793643D01*
X61228769Y-108778472D01*
X61128831Y-108749438D01*
X61122426Y-108748934D01*
X61122421Y-108748933D01*
X61093958Y-108746693D01*
X61093950Y-108746693D01*
X61091502Y-108746500D01*
X59208498Y-108746500D01*
X59206050Y-108746693D01*
X59206042Y-108746693D01*
X59177579Y-108748933D01*
X59177574Y-108748934D01*
X59171169Y-108749438D01*
X59071231Y-108778472D01*
X59019012Y-108793643D01*
X59019010Y-108793644D01*
X59011399Y-108795855D01*
X59004572Y-108799892D01*
X59004573Y-108799892D01*
X58875020Y-108876509D01*
X58875017Y-108876511D01*
X58868193Y-108880547D01*
X58750547Y-108998193D01*
X58746511Y-109005017D01*
X58746509Y-109005020D01*
X58682893Y-109112589D01*
X58665855Y-109141399D01*
X58619438Y-109301169D01*
X58616500Y-109338498D01*
X58616500Y-109714334D01*
X58596498Y-109782455D01*
X58579595Y-109803429D01*
X52598595Y-115784428D01*
X52536283Y-115818454D01*
X52465468Y-115813389D01*
X52408632Y-115770842D01*
X52383821Y-115704322D01*
X52383500Y-115695333D01*
X52383500Y-115688498D01*
X52383307Y-115686042D01*
X52381067Y-115657579D01*
X52381066Y-115657574D01*
X52380562Y-115651169D01*
X52351528Y-115551231D01*
X52336357Y-115499012D01*
X52336356Y-115499010D01*
X52334145Y-115491399D01*
X52249453Y-115348193D01*
X52246513Y-115345253D01*
X52221180Y-115280734D01*
X52235079Y-115211111D01*
X52247126Y-115192364D01*
X52253090Y-115184676D01*
X52329648Y-115055221D01*
X52335893Y-115040790D01*
X52374939Y-114906395D01*
X52374899Y-114892294D01*
X52367630Y-114889000D01*
X49338122Y-114889000D01*
X49324591Y-114892973D01*
X49323456Y-114900871D01*
X49364107Y-115040790D01*
X49370352Y-115055221D01*
X49446911Y-115184677D01*
X49452871Y-115192360D01*
X49478820Y-115258444D01*
X49464922Y-115328067D01*
X49454579Y-115344161D01*
X49450547Y-115348193D01*
X49365855Y-115491399D01*
X49363644Y-115499010D01*
X49363643Y-115499012D01*
X49348472Y-115551231D01*
X49319438Y-115651169D01*
X49318934Y-115657574D01*
X49318933Y-115657579D01*
X49316693Y-115686042D01*
X49316500Y-115688498D01*
X49316500Y-116121502D01*
X49319438Y-116158831D01*
X49321232Y-116165007D01*
X49321233Y-116165011D01*
X49340215Y-116230348D01*
X49340012Y-116301344D01*
X49301458Y-116360960D01*
X49236793Y-116390268D01*
X49219218Y-116391500D01*
X48222365Y-116391500D01*
X48154244Y-116371498D01*
X48114590Y-116330772D01*
X48086639Y-116284619D01*
X47965381Y-116163361D01*
X47818699Y-116074528D01*
X47811452Y-116072257D01*
X47811450Y-116072256D01*
X47745164Y-116051483D01*
X47655062Y-116023247D01*
X47581635Y-116016500D01*
X47578737Y-116016500D01*
X47324335Y-116016501D01*
X47068366Y-116016501D01*
X47065508Y-116016764D01*
X47065499Y-116016764D01*
X47029996Y-116020026D01*
X46994938Y-116023247D01*
X46988560Y-116025246D01*
X46988559Y-116025246D01*
X46838550Y-116072256D01*
X46838548Y-116072257D01*
X46831301Y-116074528D01*
X46684619Y-116163361D01*
X46589095Y-116258885D01*
X46526783Y-116292911D01*
X46455968Y-116287846D01*
X46410905Y-116258885D01*
X46345405Y-116193385D01*
X46311379Y-116131073D01*
X46308500Y-116104290D01*
X46308500Y-113630871D01*
X49323456Y-113630871D01*
X49364107Y-113770790D01*
X49370352Y-113785221D01*
X49446912Y-113914678D01*
X49453189Y-113922770D01*
X49479139Y-113988854D01*
X49465241Y-114058477D01*
X49453189Y-114077230D01*
X49446912Y-114085322D01*
X49370352Y-114214779D01*
X49364107Y-114229210D01*
X49325061Y-114363605D01*
X49325101Y-114377706D01*
X49332370Y-114381000D01*
X50577885Y-114381000D01*
X50593124Y-114376525D01*
X50594329Y-114375135D01*
X50596000Y-114367452D01*
X50596000Y-114362885D01*
X51104000Y-114362885D01*
X51108475Y-114378124D01*
X51109865Y-114379329D01*
X51117548Y-114381000D01*
X52361878Y-114381000D01*
X52375409Y-114377027D01*
X52376544Y-114369129D01*
X52335893Y-114229210D01*
X52329648Y-114214779D01*
X52253088Y-114085322D01*
X52246811Y-114077230D01*
X52220861Y-114011146D01*
X52234759Y-113941523D01*
X52246811Y-113922770D01*
X52253088Y-113914678D01*
X52329648Y-113785221D01*
X52335893Y-113770790D01*
X52374939Y-113636395D01*
X52374899Y-113622294D01*
X52367630Y-113619000D01*
X51122115Y-113619000D01*
X51106876Y-113623475D01*
X51105671Y-113624865D01*
X51104000Y-113632548D01*
X51104000Y-114362885D01*
X50596000Y-114362885D01*
X50596000Y-113637115D01*
X50591525Y-113621876D01*
X50590135Y-113620671D01*
X50582452Y-113619000D01*
X49338122Y-113619000D01*
X49324591Y-113622973D01*
X49323456Y-113630871D01*
X46308500Y-113630871D01*
X46308500Y-112895710D01*
X46328502Y-112827589D01*
X46345405Y-112806615D01*
X46410905Y-112741115D01*
X46473217Y-112707089D01*
X46544032Y-112712154D01*
X46589095Y-112741115D01*
X46684619Y-112836639D01*
X46831301Y-112925472D01*
X46838548Y-112927743D01*
X46838550Y-112927744D01*
X46892252Y-112944573D01*
X46994938Y-112976753D01*
X47068365Y-112983500D01*
X47071263Y-112983500D01*
X47325665Y-112983499D01*
X47581634Y-112983499D01*
X47584492Y-112983236D01*
X47584501Y-112983236D01*
X47620004Y-112979974D01*
X47655062Y-112976753D01*
X47661447Y-112974752D01*
X47811450Y-112927744D01*
X47811452Y-112927743D01*
X47818699Y-112925472D01*
X47965381Y-112836639D01*
X48086639Y-112715381D01*
X48099449Y-112694229D01*
X48151846Y-112646322D01*
X48207225Y-112633500D01*
X49333539Y-112633500D01*
X49401660Y-112653502D01*
X49448153Y-112707158D01*
X49458257Y-112777432D01*
X49441993Y-112823639D01*
X49370352Y-112944779D01*
X49364107Y-112959210D01*
X49325061Y-113093605D01*
X49325101Y-113107706D01*
X49332370Y-113111000D01*
X52361878Y-113111000D01*
X52375409Y-113107027D01*
X52376544Y-113099129D01*
X52335893Y-112959210D01*
X52329648Y-112944779D01*
X52253089Y-112815323D01*
X52247129Y-112807640D01*
X52221180Y-112741556D01*
X52235078Y-112671933D01*
X52245421Y-112655839D01*
X52249453Y-112651807D01*
X52334145Y-112508601D01*
X52380562Y-112348831D01*
X52381916Y-112331634D01*
X52383307Y-112313958D01*
X52383307Y-112313950D01*
X52383500Y-112311502D01*
X52383500Y-111878498D01*
X52383307Y-111876042D01*
X52381067Y-111847579D01*
X52381066Y-111847574D01*
X52380562Y-111841169D01*
X52334145Y-111681399D01*
X52249453Y-111538193D01*
X52246771Y-111535511D01*
X52221498Y-111471139D01*
X52235400Y-111401516D01*
X52245572Y-111385688D01*
X52249453Y-111381807D01*
X52334145Y-111238601D01*
X52380562Y-111078831D01*
X52381080Y-111072256D01*
X52383307Y-111043958D01*
X52383307Y-111043950D01*
X52383500Y-111041502D01*
X52383500Y-110608498D01*
X52383307Y-110606042D01*
X52381067Y-110577579D01*
X52381066Y-110577574D01*
X52380562Y-110571169D01*
X52346371Y-110453483D01*
X52336357Y-110419012D01*
X52336356Y-110419010D01*
X52334145Y-110411399D01*
X52249453Y-110268193D01*
X52246771Y-110265511D01*
X52221498Y-110201139D01*
X52235400Y-110131516D01*
X52245572Y-110115688D01*
X52249453Y-110111807D01*
X52334145Y-109968601D01*
X52380562Y-109808831D01*
X52383500Y-109771502D01*
X52383500Y-109338498D01*
X52380562Y-109301169D01*
X52334145Y-109141399D01*
X52317107Y-109112589D01*
X52253491Y-109005020D01*
X52253489Y-109005017D01*
X52249453Y-108998193D01*
X52131807Y-108880547D01*
X52124983Y-108876511D01*
X52124980Y-108876509D01*
X51995427Y-108799892D01*
X51995428Y-108799892D01*
X51988601Y-108795855D01*
X51980990Y-108793644D01*
X51980988Y-108793643D01*
X51928769Y-108778472D01*
X51828831Y-108749438D01*
X51822426Y-108748934D01*
X51822421Y-108748933D01*
X51793958Y-108746693D01*
X51793950Y-108746693D01*
X51791502Y-108746500D01*
X49908498Y-108746500D01*
X49906050Y-108746693D01*
X49906042Y-108746693D01*
X49877579Y-108748933D01*
X49877574Y-108748934D01*
X49871169Y-108749438D01*
X49771231Y-108778472D01*
X49719012Y-108793643D01*
X49719010Y-108793644D01*
X49711399Y-108795855D01*
X49621612Y-108848955D01*
X49557476Y-108866500D01*
X49077587Y-108866500D01*
X49009466Y-108846498D01*
X48962973Y-108792842D01*
X48952869Y-108722568D01*
X48982363Y-108657988D01*
X49028270Y-108627549D01*
X49027209Y-108625210D01*
X49033622Y-108622301D01*
X49040322Y-108620124D01*
X49186490Y-108532990D01*
X49191584Y-108528139D01*
X49191588Y-108528136D01*
X49293316Y-108431261D01*
X49309721Y-108415639D01*
X49403891Y-108273902D01*
X49464319Y-108114825D01*
X49488001Y-107946313D01*
X49488299Y-107925000D01*
X49469331Y-107755892D01*
X49463414Y-107738899D01*
X49415686Y-107601846D01*
X49413368Y-107595189D01*
X49407383Y-107585610D01*
X49385420Y-107550464D01*
X49323192Y-107450879D01*
X49203286Y-107330132D01*
X49187039Y-107319821D01*
X49148406Y-107295304D01*
X49059608Y-107238951D01*
X48899300Y-107181868D01*
X48730329Y-107161720D01*
X48723326Y-107162456D01*
X48723325Y-107162456D01*
X48568101Y-107178770D01*
X48568097Y-107178771D01*
X48561093Y-107179507D01*
X48554422Y-107181778D01*
X48406673Y-107232075D01*
X48406670Y-107232076D01*
X48400003Y-107234346D01*
X48394005Y-107238036D01*
X48394003Y-107238037D01*
X48261065Y-107319821D01*
X48261063Y-107319823D01*
X48255066Y-107323512D01*
X48133486Y-107442573D01*
X48041304Y-107585610D01*
X47983103Y-107745516D01*
X47983043Y-107745993D01*
X47950994Y-107803101D01*
X47524500Y-108229595D01*
X47462188Y-108263621D01*
X47435405Y-108266500D01*
X47149600Y-108266500D01*
X47146354Y-108266837D01*
X47146350Y-108266837D01*
X47050692Y-108276762D01*
X47050688Y-108276763D01*
X47043834Y-108277474D01*
X47037298Y-108279655D01*
X47037296Y-108279655D01*
X47020928Y-108285116D01*
X46876054Y-108333450D01*
X46725652Y-108426522D01*
X46600695Y-108551697D01*
X46597898Y-108556235D01*
X46540647Y-108596824D01*
X46469724Y-108600054D01*
X46408313Y-108564428D01*
X46400938Y-108555932D01*
X46392902Y-108545793D01*
X46278171Y-108431261D01*
X46266760Y-108422249D01*
X46128757Y-108337184D01*
X46115576Y-108331037D01*
X45961290Y-108279862D01*
X45947914Y-108276995D01*
X45853562Y-108267328D01*
X45847145Y-108267000D01*
X45822115Y-108267000D01*
X45806876Y-108271475D01*
X45805671Y-108272865D01*
X45804000Y-108280548D01*
X45804000Y-109628000D01*
X45783998Y-109696121D01*
X45730342Y-109742614D01*
X45678000Y-109754000D01*
X44560116Y-109754000D01*
X44544877Y-109758475D01*
X44543672Y-109759865D01*
X44542001Y-109767548D01*
X44542001Y-110022095D01*
X44542338Y-110028614D01*
X44552257Y-110124206D01*
X44555149Y-110137600D01*
X44606588Y-110291784D01*
X44612761Y-110304962D01*
X44698063Y-110442807D01*
X44707099Y-110454208D01*
X44821829Y-110568739D01*
X44833240Y-110577751D01*
X44971243Y-110662816D01*
X44984424Y-110668963D01*
X45097138Y-110706349D01*
X45155497Y-110746780D01*
X45182734Y-110812344D01*
X45170200Y-110882226D01*
X45161777Y-110896098D01*
X45158414Y-110899679D01*
X45154596Y-110906624D01*
X45148652Y-110917434D01*
X45137801Y-110933953D01*
X45125386Y-110949959D01*
X45122241Y-110957228D01*
X45122238Y-110957232D01*
X45107826Y-110990537D01*
X45102609Y-111001187D01*
X45081305Y-111039940D01*
X45079334Y-111047615D01*
X45079334Y-111047616D01*
X45076267Y-111059562D01*
X45069863Y-111078266D01*
X45066946Y-111085008D01*
X45061819Y-111096855D01*
X45060579Y-111104681D01*
X45058366Y-111112299D01*
X45056705Y-111111816D01*
X45030414Y-111167276D01*
X45025472Y-111172508D01*
X44913361Y-111284619D01*
X44824528Y-111431301D01*
X44773247Y-111594938D01*
X44766500Y-111668365D01*
X44766501Y-112331634D01*
X44773247Y-112405062D01*
X44775246Y-112411440D01*
X44775246Y-112411441D01*
X44803309Y-112500988D01*
X44824528Y-112568699D01*
X44913361Y-112715381D01*
X45004595Y-112806615D01*
X45038621Y-112868927D01*
X45041500Y-112895710D01*
X45041500Y-116104290D01*
X45021498Y-116172411D01*
X45004595Y-116193385D01*
X44913361Y-116284619D01*
X44824528Y-116431301D01*
X44773247Y-116594938D01*
X44766500Y-116668365D01*
X44766501Y-117331634D01*
X44773247Y-117405062D01*
X44824528Y-117568699D01*
X44913361Y-117715381D01*
X45004595Y-117806615D01*
X45038621Y-117868927D01*
X45041500Y-117895710D01*
X45041500Y-118104290D01*
X45021498Y-118172411D01*
X45004595Y-118193385D01*
X44913361Y-118284619D01*
X44824528Y-118431301D01*
X44773247Y-118594938D01*
X44766500Y-118668365D01*
X44766501Y-119331634D01*
X44773247Y-119405062D01*
X44775246Y-119411440D01*
X44775246Y-119411441D01*
X44782312Y-119433987D01*
X44824528Y-119568699D01*
X44913361Y-119715381D01*
X45034619Y-119836639D01*
X45181301Y-119925472D01*
X45188548Y-119927743D01*
X45188550Y-119927744D01*
X45254836Y-119948517D01*
X45344938Y-119976753D01*
X45418365Y-119983500D01*
X45425936Y-119983500D01*
X45635848Y-119983499D01*
X45703968Y-120003501D01*
X45750461Y-120057156D01*
X45760029Y-120101138D01*
X45760770Y-120101040D01*
X45766020Y-120140920D01*
X45766020Y-120140925D01*
X45779129Y-120240497D01*
X45781682Y-120259891D01*
X45842996Y-120407916D01*
X45848023Y-120414467D01*
X45848024Y-120414469D01*
X45916040Y-120503109D01*
X45916046Y-120503115D01*
X45940533Y-120535027D01*
X45947088Y-120540057D01*
X45965899Y-120554492D01*
X45978290Y-120565359D01*
X46353075Y-120940144D01*
X46387101Y-121002456D01*
X46389980Y-121029239D01*
X46389980Y-132085511D01*
X46369978Y-132153632D01*
X46353075Y-132174606D01*
X29602246Y-148925435D01*
X29589855Y-148936302D01*
X29564493Y-148955763D01*
X29540006Y-148987675D01*
X29540003Y-148987678D01*
X29466956Y-149082874D01*
X29405642Y-149230899D01*
X29405642Y-149230900D01*
X29389980Y-149349865D01*
X29389980Y-149349870D01*
X29384730Y-149389750D01*
X29385808Y-149397938D01*
X29388902Y-149421440D01*
X29389980Y-149437886D01*
X29389980Y-173580788D01*
X29369978Y-173648909D01*
X29349792Y-173671047D01*
X29350678Y-173671952D01*
X29229098Y-173791013D01*
X29225287Y-173796927D01*
X29225285Y-173796929D01*
X29165212Y-173890144D01*
X29136916Y-173934050D01*
X29078715Y-174093956D01*
X29057387Y-174262783D01*
X29073993Y-174432139D01*
X29127706Y-174593607D01*
X29131353Y-174599629D01*
X29131354Y-174599631D01*
X29186464Y-174690627D01*
X29215858Y-174739163D01*
X29334067Y-174861572D01*
X29339963Y-174865430D01*
X29442984Y-174932845D01*
X29476458Y-174954750D01*
X29553670Y-174983465D01*
X29610546Y-175025958D01*
X29626860Y-175057115D01*
X29626916Y-175057089D01*
X29627437Y-175058217D01*
X29629306Y-175061786D01*
X29632094Y-175070167D01*
X29635741Y-175076189D01*
X29635742Y-175076191D01*
X29665369Y-175125110D01*
X29720246Y-175215723D01*
X29838455Y-175338132D01*
X29980846Y-175431310D01*
X29987450Y-175433766D01*
X29987452Y-175433767D01*
X30023844Y-175447301D01*
X30140341Y-175490626D01*
X30309015Y-175513132D01*
X30316026Y-175512494D01*
X30316030Y-175512494D01*
X30471462Y-175498348D01*
X30478483Y-175497709D01*
X30485185Y-175495531D01*
X30485187Y-175495531D01*
X30633623Y-175447301D01*
X30633626Y-175447300D01*
X30640322Y-175445124D01*
X30786490Y-175357990D01*
X30791584Y-175353139D01*
X30791588Y-175353136D01*
X30860723Y-175287299D01*
X30909721Y-175240639D01*
X31003891Y-175098902D01*
X31064319Y-174939825D01*
X31088001Y-174771313D01*
X31088299Y-174750000D01*
X31069331Y-174580892D01*
X31062263Y-174560594D01*
X31044183Y-174508678D01*
X31013368Y-174420189D01*
X30952645Y-174323013D01*
X30933500Y-174256245D01*
X30933500Y-149829239D01*
X30953502Y-149761118D01*
X30970405Y-149740144D01*
X47721234Y-132989315D01*
X47733625Y-132978448D01*
X47752437Y-132964013D01*
X47758987Y-132958987D01*
X47783474Y-132927075D01*
X47783478Y-132927071D01*
X47856524Y-132831876D01*
X47917838Y-132683851D01*
X47938751Y-132525000D01*
X47934578Y-132493301D01*
X47933500Y-132476856D01*
X47933500Y-119920710D01*
X47953502Y-119852589D01*
X47970405Y-119831615D01*
X48086639Y-119715381D01*
X48114590Y-119669228D01*
X48166985Y-119621323D01*
X48222365Y-119608500D01*
X50246864Y-119608500D01*
X50263307Y-119609578D01*
X50295000Y-119613750D01*
X50303189Y-119612672D01*
X50334874Y-119608501D01*
X50334884Y-119608500D01*
X50334885Y-119608500D01*
X50434457Y-119595391D01*
X50445664Y-119593916D01*
X50445666Y-119593915D01*
X50453851Y-119592838D01*
X50601876Y-119531524D01*
X50697072Y-119458477D01*
X50697075Y-119458474D01*
X50728987Y-119433987D01*
X50734017Y-119427432D01*
X50748452Y-119408621D01*
X50759319Y-119396230D01*
X50865144Y-119290405D01*
X50927456Y-119256379D01*
X50954239Y-119253500D01*
X51440020Y-119253500D01*
X51508141Y-119273502D01*
X51554634Y-119327158D01*
X51566020Y-119379500D01*
X51566020Y-155660886D01*
X51546018Y-155729007D01*
X51529115Y-155749981D01*
X43299500Y-163979595D01*
X43237188Y-164013621D01*
X43210405Y-164016500D01*
X42936386Y-164016501D01*
X42918366Y-164016501D01*
X42915508Y-164016764D01*
X42915499Y-164016764D01*
X42879996Y-164020026D01*
X42844938Y-164023247D01*
X42838560Y-164025246D01*
X42838559Y-164025246D01*
X42688550Y-164072256D01*
X42688548Y-164072257D01*
X42681301Y-164074528D01*
X42534619Y-164163361D01*
X42413361Y-164284619D01*
X42409424Y-164291120D01*
X42404738Y-164297096D01*
X42403227Y-164295911D01*
X42358210Y-164337065D01*
X42288230Y-164349035D01*
X42235324Y-164330271D01*
X42215560Y-164317728D01*
X42215558Y-164317727D01*
X42209608Y-164313951D01*
X42049300Y-164256868D01*
X41880329Y-164236720D01*
X41873326Y-164237456D01*
X41873325Y-164237456D01*
X41718101Y-164253770D01*
X41718097Y-164253771D01*
X41711093Y-164254507D01*
X41704422Y-164256778D01*
X41556673Y-164307075D01*
X41556670Y-164307076D01*
X41550003Y-164309346D01*
X41544005Y-164313036D01*
X41544003Y-164313037D01*
X41411065Y-164394821D01*
X41411063Y-164394823D01*
X41405066Y-164398512D01*
X41283486Y-164517573D01*
X41279675Y-164523487D01*
X41279673Y-164523489D01*
X41195121Y-164654687D01*
X41191304Y-164660610D01*
X41188894Y-164667232D01*
X41141394Y-164797738D01*
X41133103Y-164820516D01*
X41111775Y-164989343D01*
X41128381Y-165158699D01*
X41130605Y-165165384D01*
X41130605Y-165165385D01*
X41151609Y-165228525D01*
X41182094Y-165320167D01*
X41185741Y-165326189D01*
X41185742Y-165326191D01*
X41229417Y-165398306D01*
X41270246Y-165465723D01*
X41388455Y-165588132D01*
X41394351Y-165591990D01*
X41515791Y-165671458D01*
X41530846Y-165681310D01*
X41537450Y-165683766D01*
X41537452Y-165683767D01*
X41573844Y-165697301D01*
X41690341Y-165740626D01*
X41859015Y-165763132D01*
X41866026Y-165762494D01*
X41866030Y-165762494D01*
X42021462Y-165748348D01*
X42028483Y-165747709D01*
X42035185Y-165745531D01*
X42035187Y-165745531D01*
X42183623Y-165697301D01*
X42183626Y-165697300D01*
X42190322Y-165695124D01*
X42237709Y-165666876D01*
X42306463Y-165649176D01*
X42373873Y-165671458D01*
X42404012Y-165703473D01*
X42404738Y-165702904D01*
X42409424Y-165708880D01*
X42413361Y-165715381D01*
X42534619Y-165836639D01*
X42681301Y-165925472D01*
X42688548Y-165927743D01*
X42688550Y-165927744D01*
X42754836Y-165948517D01*
X42844938Y-165976753D01*
X42918365Y-165983500D01*
X42921263Y-165983500D01*
X43175665Y-165983499D01*
X43431634Y-165983499D01*
X43434492Y-165983236D01*
X43434501Y-165983236D01*
X43470004Y-165979974D01*
X43505062Y-165976753D01*
X43513030Y-165974256D01*
X43661450Y-165927744D01*
X43661452Y-165927743D01*
X43668699Y-165925472D01*
X43815381Y-165836639D01*
X43911259Y-165740761D01*
X43973571Y-165706735D01*
X44044386Y-165711800D01*
X44089449Y-165740761D01*
X44179557Y-165830869D01*
X44191426Y-165840176D01*
X44325012Y-165921079D01*
X44338757Y-165927285D01*
X44488644Y-165974256D01*
X44501694Y-165976869D01*
X44556586Y-165981913D01*
X44568124Y-165978525D01*
X44569329Y-165977135D01*
X44571000Y-165969452D01*
X44571000Y-165964884D01*
X45079000Y-165964884D01*
X45083475Y-165980123D01*
X45084865Y-165981328D01*
X45089294Y-165982291D01*
X45148315Y-165976868D01*
X45161351Y-165974257D01*
X45311243Y-165927285D01*
X45324988Y-165921079D01*
X45458574Y-165840176D01*
X45470443Y-165830869D01*
X45580869Y-165720443D01*
X45590176Y-165708574D01*
X45671079Y-165574988D01*
X45677285Y-165561243D01*
X45724256Y-165411356D01*
X45726869Y-165398306D01*
X45732734Y-165334479D01*
X45733000Y-165328691D01*
X45733000Y-165272115D01*
X45728525Y-165256876D01*
X45727135Y-165255671D01*
X45719452Y-165254000D01*
X45097115Y-165254000D01*
X45081876Y-165258475D01*
X45080671Y-165259865D01*
X45079000Y-165267548D01*
X45079000Y-165964884D01*
X44571000Y-165964884D01*
X44571000Y-164872000D01*
X44591002Y-164803879D01*
X44644658Y-164757386D01*
X44697000Y-164746000D01*
X45714884Y-164746000D01*
X45730123Y-164741525D01*
X45731328Y-164740135D01*
X45732999Y-164732452D01*
X45732999Y-164671295D01*
X45732736Y-164665546D01*
X45726868Y-164601685D01*
X45724257Y-164588649D01*
X45703401Y-164522095D01*
X53042001Y-164522095D01*
X53042338Y-164528614D01*
X53052257Y-164624206D01*
X53055149Y-164637600D01*
X53106588Y-164791784D01*
X53112761Y-164804962D01*
X53198063Y-164942807D01*
X53207099Y-164954208D01*
X53321829Y-165068739D01*
X53333240Y-165077751D01*
X53471243Y-165162816D01*
X53484424Y-165168963D01*
X53638710Y-165220138D01*
X53652086Y-165223005D01*
X53746438Y-165232672D01*
X53752854Y-165233000D01*
X53777885Y-165233000D01*
X53793124Y-165228525D01*
X53794329Y-165227135D01*
X53796000Y-165219452D01*
X53796000Y-165214884D01*
X54304000Y-165214884D01*
X54308475Y-165230123D01*
X54309865Y-165231328D01*
X54317548Y-165232999D01*
X54347095Y-165232999D01*
X54353614Y-165232662D01*
X54449206Y-165222743D01*
X54462600Y-165219851D01*
X54616784Y-165168412D01*
X54629962Y-165162239D01*
X54767807Y-165076937D01*
X54779208Y-165067901D01*
X54893738Y-164953172D01*
X54900794Y-164944238D01*
X54958712Y-164903177D01*
X55029635Y-164899947D01*
X55091046Y-164935574D01*
X55097846Y-164943407D01*
X55101522Y-164949348D01*
X55226697Y-165074305D01*
X55232927Y-165078145D01*
X55232928Y-165078146D01*
X55370288Y-165162816D01*
X55377262Y-165167115D01*
X55457005Y-165193564D01*
X55538611Y-165220632D01*
X55538613Y-165220632D01*
X55545139Y-165222797D01*
X55551975Y-165223497D01*
X55551978Y-165223498D01*
X55595031Y-165227909D01*
X55649600Y-165233500D01*
X56250400Y-165233500D01*
X56253646Y-165233163D01*
X56253650Y-165233163D01*
X56349308Y-165223238D01*
X56349312Y-165223237D01*
X56356166Y-165222526D01*
X56362702Y-165220345D01*
X56362704Y-165220345D01*
X56494806Y-165176272D01*
X56523946Y-165166550D01*
X56674348Y-165073478D01*
X56799305Y-164948303D01*
X56873766Y-164827506D01*
X56888275Y-164803968D01*
X56888276Y-164803966D01*
X56892115Y-164797738D01*
X56926247Y-164694833D01*
X56966678Y-164636473D01*
X57032242Y-164609236D01*
X57045840Y-164608500D01*
X57145223Y-164608500D01*
X57214216Y-164629068D01*
X57255846Y-164656310D01*
X57262450Y-164658766D01*
X57262452Y-164658767D01*
X57296139Y-164671295D01*
X57415341Y-164715626D01*
X57584015Y-164738132D01*
X57591026Y-164737494D01*
X57591030Y-164737494D01*
X57746462Y-164723348D01*
X57753483Y-164722709D01*
X57760185Y-164720531D01*
X57760187Y-164720531D01*
X57908623Y-164672301D01*
X57908626Y-164672300D01*
X57915322Y-164670124D01*
X58061490Y-164582990D01*
X58066584Y-164578139D01*
X58066588Y-164578136D01*
X58135357Y-164512648D01*
X58184721Y-164465639D01*
X58202582Y-164438757D01*
X58250589Y-164366500D01*
X58278891Y-164323902D01*
X58339319Y-164164825D01*
X58344668Y-164126762D01*
X58373955Y-164062088D01*
X58380347Y-164055202D01*
X62196229Y-160239319D01*
X62208620Y-160228452D01*
X62227437Y-160214013D01*
X62233987Y-160208987D01*
X62274589Y-160156074D01*
X62331524Y-160081876D01*
X62392838Y-159933851D01*
X62405042Y-159841150D01*
X62408500Y-159814885D01*
X62408500Y-159814880D01*
X62413750Y-159775000D01*
X62409578Y-159743307D01*
X62408500Y-159726864D01*
X62408500Y-137224493D01*
X62428502Y-137156372D01*
X62482158Y-137109879D01*
X62503763Y-137102457D01*
X62510316Y-137101745D01*
X62517711Y-137098973D01*
X62517714Y-137098972D01*
X62638297Y-137053767D01*
X62646705Y-137050615D01*
X62763261Y-136963261D01*
X62850615Y-136846705D01*
X62853767Y-136838296D01*
X62858077Y-136830425D01*
X62859741Y-136831336D01*
X62895663Y-136783510D01*
X62962224Y-136758807D01*
X62971009Y-136758500D01*
X64376864Y-136758500D01*
X64393307Y-136759578D01*
X64425000Y-136763750D01*
X64433189Y-136762672D01*
X64464874Y-136758501D01*
X64464884Y-136758500D01*
X64464885Y-136758500D01*
X64564457Y-136745391D01*
X64575664Y-136743916D01*
X64575666Y-136743915D01*
X64583851Y-136742838D01*
X64731876Y-136681524D01*
X64770964Y-136651531D01*
X64827072Y-136608477D01*
X64827075Y-136608474D01*
X64827293Y-136608307D01*
X64858987Y-136583987D01*
X64864017Y-136577432D01*
X64878452Y-136558621D01*
X64889319Y-136546230D01*
X65165144Y-136270405D01*
X65227456Y-136236379D01*
X65254239Y-136233500D01*
X65561763Y-136233499D01*
X65581634Y-136233499D01*
X65584492Y-136233236D01*
X65584501Y-136233236D01*
X65620004Y-136229974D01*
X65655062Y-136226753D01*
X65661441Y-136224754D01*
X65811450Y-136177744D01*
X65811452Y-136177743D01*
X65818699Y-136175472D01*
X65965381Y-136086639D01*
X66086639Y-135965381D01*
X66175472Y-135818699D01*
X66226753Y-135655062D01*
X66233500Y-135581635D01*
X66233499Y-135068366D01*
X66233234Y-135065474D01*
X66227364Y-135001592D01*
X66226753Y-134994938D01*
X66175472Y-134831301D01*
X66086639Y-134684619D01*
X65990761Y-134588741D01*
X65956735Y-134526429D01*
X65961800Y-134455614D01*
X65990761Y-134410551D01*
X66080869Y-134320443D01*
X66090176Y-134308574D01*
X66171079Y-134174988D01*
X66177285Y-134161243D01*
X66224256Y-134011356D01*
X66226869Y-133998306D01*
X66231913Y-133943414D01*
X66228525Y-133931876D01*
X66227135Y-133930671D01*
X66219452Y-133929000D01*
X64285116Y-133929000D01*
X64269877Y-133933475D01*
X64268672Y-133934865D01*
X64267709Y-133939294D01*
X64273132Y-133998315D01*
X64275743Y-134011351D01*
X64322715Y-134161243D01*
X64328921Y-134174988D01*
X64409824Y-134308574D01*
X64419131Y-134320443D01*
X64509239Y-134410551D01*
X64543265Y-134472863D01*
X64538200Y-134543678D01*
X64509239Y-134588741D01*
X64413361Y-134684619D01*
X64324528Y-134831301D01*
X64273247Y-134994938D01*
X64266500Y-135068365D01*
X64266501Y-135257216D01*
X64266501Y-135395760D01*
X64246499Y-135463880D01*
X64229596Y-135484855D01*
X64209856Y-135504595D01*
X64147544Y-135538621D01*
X64120761Y-135541500D01*
X62971009Y-135541500D01*
X62902888Y-135521498D01*
X62856395Y-135467842D01*
X62854097Y-135462306D01*
X62853767Y-135461703D01*
X62850615Y-135453295D01*
X62763261Y-135336739D01*
X62646705Y-135249385D01*
X62510316Y-135198255D01*
X62448134Y-135191500D01*
X61151866Y-135191500D01*
X61089684Y-135198255D01*
X60953295Y-135249385D01*
X60836739Y-135336739D01*
X60749385Y-135453295D01*
X60698255Y-135589684D01*
X60691500Y-135651866D01*
X60691500Y-136648134D01*
X60698255Y-136710316D01*
X60749385Y-136846705D01*
X60836739Y-136963261D01*
X60953295Y-137050615D01*
X60961703Y-137053767D01*
X61082286Y-137098972D01*
X61082289Y-137098973D01*
X61089684Y-137101745D01*
X61095453Y-137102372D01*
X61156291Y-137137126D01*
X61189113Y-137200081D01*
X61191500Y-137224493D01*
X61191500Y-159470762D01*
X61171498Y-159538883D01*
X61154595Y-159559857D01*
X57522233Y-163192218D01*
X57459921Y-163226244D01*
X57446313Y-163228432D01*
X57443107Y-163228769D01*
X57443100Y-163228771D01*
X57436093Y-163229507D01*
X57429422Y-163231778D01*
X57281673Y-163282075D01*
X57281670Y-163282076D01*
X57275003Y-163284346D01*
X57269005Y-163288036D01*
X57269003Y-163288037D01*
X57131194Y-163372818D01*
X57065172Y-163391500D01*
X57045879Y-163391500D01*
X56977758Y-163371498D01*
X56931265Y-163317842D01*
X56926356Y-163305377D01*
X56893870Y-163208007D01*
X56893869Y-163208005D01*
X56891550Y-163201054D01*
X56798478Y-163050652D01*
X56673303Y-162925695D01*
X56667072Y-162921854D01*
X56528968Y-162836725D01*
X56528966Y-162836724D01*
X56522738Y-162832885D01*
X56442995Y-162806436D01*
X56361389Y-162779368D01*
X56361387Y-162779368D01*
X56354861Y-162777203D01*
X56348025Y-162776503D01*
X56348022Y-162776502D01*
X56304969Y-162772091D01*
X56250400Y-162766500D01*
X55649600Y-162766500D01*
X55646354Y-162766837D01*
X55646350Y-162766837D01*
X55550692Y-162776762D01*
X55550688Y-162776763D01*
X55543834Y-162777474D01*
X55537298Y-162779655D01*
X55537296Y-162779655D01*
X55520928Y-162785116D01*
X55376054Y-162833450D01*
X55225652Y-162926522D01*
X55100695Y-163051697D01*
X55097898Y-163056235D01*
X55040647Y-163096824D01*
X54969724Y-163100054D01*
X54908313Y-163064428D01*
X54900938Y-163055932D01*
X54892902Y-163045793D01*
X54778171Y-162931261D01*
X54766760Y-162922249D01*
X54628757Y-162837184D01*
X54615576Y-162831037D01*
X54461290Y-162779862D01*
X54447914Y-162776995D01*
X54353562Y-162767328D01*
X54347145Y-162767000D01*
X54322115Y-162767000D01*
X54306876Y-162771475D01*
X54305671Y-162772865D01*
X54304000Y-162780548D01*
X54304000Y-165214884D01*
X53796000Y-165214884D01*
X53796000Y-164272115D01*
X53791525Y-164256876D01*
X53790135Y-164255671D01*
X53782452Y-164254000D01*
X53060116Y-164254000D01*
X53044877Y-164258475D01*
X53043672Y-164259865D01*
X53042001Y-164267548D01*
X53042001Y-164522095D01*
X45703401Y-164522095D01*
X45677285Y-164438757D01*
X45671079Y-164425012D01*
X45590176Y-164291426D01*
X45580869Y-164279557D01*
X45470443Y-164169131D01*
X45458574Y-164159824D01*
X45324988Y-164078921D01*
X45311243Y-164072715D01*
X45271415Y-164060234D01*
X45212393Y-164020777D01*
X45184073Y-163955673D01*
X45195446Y-163885593D01*
X45219999Y-163850905D01*
X45343019Y-163727885D01*
X53042000Y-163727885D01*
X53046475Y-163743124D01*
X53047865Y-163744329D01*
X53055548Y-163746000D01*
X53777885Y-163746000D01*
X53793124Y-163741525D01*
X53794329Y-163740135D01*
X53796000Y-163732452D01*
X53796000Y-162785116D01*
X53791525Y-162769877D01*
X53790135Y-162768672D01*
X53782452Y-162767001D01*
X53752905Y-162767001D01*
X53746386Y-162767338D01*
X53650794Y-162777257D01*
X53637400Y-162780149D01*
X53483216Y-162831588D01*
X53470038Y-162837761D01*
X53332193Y-162923063D01*
X53320792Y-162932099D01*
X53206261Y-163046829D01*
X53197249Y-163058240D01*
X53112184Y-163196243D01*
X53106037Y-163209424D01*
X53054862Y-163363710D01*
X53051995Y-163377086D01*
X53042328Y-163471438D01*
X53042000Y-163477855D01*
X53042000Y-163727885D01*
X45343019Y-163727885D01*
X52591767Y-156479137D01*
X52600057Y-156471593D01*
X52606538Y-156467480D01*
X52653179Y-156417812D01*
X52655933Y-156414971D01*
X52675655Y-156395249D01*
X52678132Y-156392056D01*
X52685837Y-156383035D01*
X52710679Y-156356580D01*
X52716106Y-156350801D01*
X52719927Y-156343851D01*
X52725866Y-156333048D01*
X52736722Y-156316521D01*
X52744277Y-156306782D01*
X52744278Y-156306780D01*
X52749134Y-156300520D01*
X52766694Y-156259940D01*
X52771911Y-156249292D01*
X52789395Y-156217489D01*
X52789396Y-156217487D01*
X52793215Y-156210540D01*
X52798253Y-156190917D01*
X52804657Y-156172214D01*
X52809553Y-156160900D01*
X52809553Y-156160899D01*
X52812701Y-156153625D01*
X52813940Y-156145802D01*
X52813943Y-156145792D01*
X52819619Y-156109956D01*
X52822025Y-156098336D01*
X52831048Y-156063191D01*
X52831048Y-156063190D01*
X52833020Y-156055510D01*
X52833020Y-156035256D01*
X52834571Y-156015545D01*
X52836500Y-156003366D01*
X52837740Y-155995537D01*
X52833579Y-155951518D01*
X52833020Y-155939661D01*
X52833020Y-132318365D01*
X56266500Y-132318365D01*
X56266501Y-132831634D01*
X56273247Y-132905062D01*
X56275246Y-132911440D01*
X56275246Y-132911441D01*
X56312262Y-133029557D01*
X56324528Y-133068699D01*
X56413361Y-133215381D01*
X56534619Y-133336639D01*
X56681301Y-133425472D01*
X56688548Y-133427743D01*
X56688550Y-133427744D01*
X56754836Y-133448517D01*
X56844938Y-133476753D01*
X56918365Y-133483500D01*
X56921263Y-133483500D01*
X57444422Y-133483499D01*
X57444968Y-133483499D01*
X57444970Y-133483500D01*
X57465224Y-133483500D01*
X57484934Y-133485051D01*
X57504943Y-133488220D01*
X57512835Y-133487474D01*
X57548961Y-133484059D01*
X57560819Y-133483500D01*
X60641567Y-133483500D01*
X60709688Y-133503502D01*
X60749000Y-133545678D01*
X60749385Y-133546705D01*
X60836739Y-133663261D01*
X60953295Y-133750615D01*
X61089684Y-133801745D01*
X61151866Y-133808500D01*
X62448134Y-133808500D01*
X62510316Y-133801745D01*
X62646705Y-133750615D01*
X62763261Y-133663261D01*
X62850615Y-133546705D01*
X62901745Y-133410316D01*
X62902150Y-133406586D01*
X64268087Y-133406586D01*
X64271475Y-133418124D01*
X64272865Y-133419329D01*
X64280548Y-133421000D01*
X64977885Y-133421000D01*
X64993124Y-133416525D01*
X64994329Y-133415135D01*
X64996000Y-133407452D01*
X64996000Y-133402885D01*
X65504000Y-133402885D01*
X65508475Y-133418124D01*
X65509865Y-133419329D01*
X65517548Y-133421000D01*
X66214884Y-133421000D01*
X66230123Y-133416525D01*
X66231328Y-133415135D01*
X66232291Y-133410706D01*
X66226868Y-133351685D01*
X66224257Y-133338649D01*
X66177285Y-133188757D01*
X66171079Y-133175012D01*
X66090176Y-133041426D01*
X66080869Y-133029557D01*
X65970443Y-132919131D01*
X65958574Y-132909824D01*
X65824988Y-132828921D01*
X65811243Y-132822715D01*
X65661356Y-132775744D01*
X65648306Y-132773131D01*
X65584479Y-132767266D01*
X65578691Y-132767000D01*
X65522115Y-132767000D01*
X65506876Y-132771475D01*
X65505671Y-132772865D01*
X65504000Y-132780548D01*
X65504000Y-133402885D01*
X64996000Y-133402885D01*
X64996000Y-132785116D01*
X64991525Y-132769877D01*
X64990135Y-132768672D01*
X64982452Y-132767001D01*
X64921295Y-132767001D01*
X64915546Y-132767264D01*
X64851685Y-132773132D01*
X64838649Y-132775743D01*
X64688757Y-132822715D01*
X64675012Y-132828921D01*
X64541426Y-132909824D01*
X64529557Y-132919131D01*
X64419131Y-133029557D01*
X64409824Y-133041426D01*
X64328921Y-133175012D01*
X64322715Y-133188757D01*
X64275744Y-133338644D01*
X64273131Y-133351694D01*
X64268087Y-133406586D01*
X62902150Y-133406586D01*
X62908500Y-133348134D01*
X62908500Y-132839594D01*
X62928502Y-132771473D01*
X62945405Y-132750499D01*
X63925499Y-131770405D01*
X63987811Y-131736379D01*
X64014594Y-131733500D01*
X64600400Y-131733500D01*
X64603646Y-131733163D01*
X64603650Y-131733163D01*
X64699308Y-131723238D01*
X64699312Y-131723237D01*
X64706166Y-131722526D01*
X64712702Y-131720345D01*
X64712704Y-131720345D01*
X64866998Y-131668868D01*
X64873946Y-131666550D01*
X65024348Y-131573478D01*
X65042988Y-131554806D01*
X65144131Y-131453486D01*
X65149305Y-131448303D01*
X65152102Y-131443765D01*
X65209353Y-131403176D01*
X65280276Y-131399946D01*
X65341687Y-131435572D01*
X65349062Y-131444068D01*
X65357098Y-131454207D01*
X65471829Y-131568739D01*
X65483240Y-131577751D01*
X65621243Y-131662816D01*
X65634424Y-131668963D01*
X65788710Y-131720138D01*
X65802086Y-131723005D01*
X65896438Y-131732672D01*
X65902854Y-131733000D01*
X65927885Y-131733000D01*
X65943124Y-131728525D01*
X65944329Y-131727135D01*
X65946000Y-131719452D01*
X65946000Y-131714884D01*
X66454000Y-131714884D01*
X66458475Y-131730123D01*
X66459865Y-131731328D01*
X66467548Y-131732999D01*
X66497095Y-131732999D01*
X66503614Y-131732662D01*
X66599206Y-131722743D01*
X66612600Y-131719851D01*
X66766784Y-131668412D01*
X66779962Y-131662239D01*
X66917807Y-131576937D01*
X66929208Y-131567901D01*
X67043739Y-131453171D01*
X67052751Y-131441760D01*
X67137816Y-131303757D01*
X67143963Y-131290576D01*
X67195138Y-131136290D01*
X67198005Y-131122914D01*
X67207672Y-131028562D01*
X67208000Y-131022146D01*
X67208000Y-130772115D01*
X67203525Y-130756876D01*
X67202135Y-130755671D01*
X67194452Y-130754000D01*
X66472115Y-130754000D01*
X66456876Y-130758475D01*
X66455671Y-130759865D01*
X66454000Y-130767548D01*
X66454000Y-131714884D01*
X65946000Y-131714884D01*
X65946000Y-130227885D01*
X66454000Y-130227885D01*
X66458475Y-130243124D01*
X66459865Y-130244329D01*
X66467548Y-130246000D01*
X67189884Y-130246000D01*
X67205123Y-130241525D01*
X67206328Y-130240135D01*
X67207999Y-130232452D01*
X67207999Y-129977905D01*
X67207662Y-129971386D01*
X67197743Y-129875794D01*
X67194851Y-129862400D01*
X67143412Y-129708216D01*
X67137239Y-129695038D01*
X67051937Y-129557193D01*
X67042901Y-129545792D01*
X66928171Y-129431261D01*
X66916760Y-129422249D01*
X66778757Y-129337184D01*
X66765576Y-129331037D01*
X66611290Y-129279862D01*
X66597914Y-129276995D01*
X66503562Y-129267328D01*
X66497145Y-129267000D01*
X66472115Y-129267000D01*
X66456876Y-129271475D01*
X66455671Y-129272865D01*
X66454000Y-129280548D01*
X66454000Y-130227885D01*
X65946000Y-130227885D01*
X65946000Y-129285116D01*
X65941525Y-129269877D01*
X65940135Y-129268672D01*
X65932452Y-129267001D01*
X65902905Y-129267001D01*
X65896386Y-129267338D01*
X65800794Y-129277257D01*
X65787400Y-129280149D01*
X65633216Y-129331588D01*
X65620038Y-129337761D01*
X65482193Y-129423063D01*
X65470792Y-129432099D01*
X65356262Y-129546828D01*
X65349206Y-129555762D01*
X65291288Y-129596823D01*
X65220365Y-129600053D01*
X65158954Y-129564426D01*
X65152154Y-129556593D01*
X65148478Y-129550652D01*
X65023303Y-129425695D01*
X64885269Y-129340609D01*
X64878968Y-129336725D01*
X64878966Y-129336724D01*
X64872738Y-129332885D01*
X64749485Y-129292004D01*
X64711389Y-129279368D01*
X64711387Y-129279368D01*
X64704861Y-129277203D01*
X64698025Y-129276503D01*
X64698022Y-129276502D01*
X64654969Y-129272091D01*
X64600400Y-129266500D01*
X63999600Y-129266500D01*
X63996354Y-129266837D01*
X63996350Y-129266837D01*
X63900692Y-129276762D01*
X63900688Y-129276763D01*
X63893834Y-129277474D01*
X63887298Y-129279655D01*
X63887296Y-129279655D01*
X63870928Y-129285116D01*
X63726054Y-129333450D01*
X63575652Y-129426522D01*
X63450695Y-129551697D01*
X63446855Y-129557927D01*
X63446854Y-129557928D01*
X63362906Y-129694116D01*
X63310133Y-129741610D01*
X63255646Y-129754000D01*
X62595178Y-129754000D01*
X62527057Y-129733998D01*
X62480564Y-129680342D01*
X62474181Y-129663153D01*
X62461357Y-129619012D01*
X62461356Y-129619010D01*
X62459145Y-129611399D01*
X62413547Y-129534297D01*
X62378491Y-129475020D01*
X62378489Y-129475017D01*
X62374453Y-129468193D01*
X62256807Y-129350547D01*
X62252998Y-129348294D01*
X62212345Y-129292004D01*
X62208494Y-129221112D01*
X62243582Y-129159391D01*
X62251276Y-129152724D01*
X62256807Y-129149453D01*
X62374453Y-129031807D01*
X62378489Y-129024983D01*
X62378491Y-129024980D01*
X62455108Y-128895427D01*
X62459145Y-128888601D01*
X62505562Y-128728831D01*
X62508500Y-128691502D01*
X62508500Y-127533498D01*
X62506662Y-127510144D01*
X62506067Y-127502579D01*
X62506066Y-127502574D01*
X62505562Y-127496169D01*
X62463123Y-127350092D01*
X62461357Y-127344012D01*
X62461356Y-127344010D01*
X62459145Y-127336399D01*
X62379548Y-127201808D01*
X62378491Y-127200020D01*
X62378489Y-127200017D01*
X62374453Y-127193193D01*
X62368844Y-127187584D01*
X62363989Y-127181325D01*
X62365496Y-127180156D01*
X62336379Y-127126833D01*
X62333500Y-127100050D01*
X62333500Y-126834500D01*
X62353502Y-126766379D01*
X62407158Y-126719886D01*
X62459500Y-126708500D01*
X62775400Y-126708500D01*
X62778646Y-126708163D01*
X62778650Y-126708163D01*
X62874308Y-126698238D01*
X62874312Y-126698237D01*
X62881166Y-126697526D01*
X62887702Y-126695345D01*
X62887704Y-126695345D01*
X63019806Y-126651272D01*
X63048946Y-126641550D01*
X63199348Y-126548478D01*
X63324305Y-126423303D01*
X63342749Y-126393382D01*
X63395522Y-126345890D01*
X63450008Y-126333500D01*
X63494172Y-126333500D01*
X63562293Y-126353502D01*
X63601947Y-126394228D01*
X63645246Y-126465723D01*
X63763455Y-126588132D01*
X63905846Y-126681310D01*
X63912450Y-126683766D01*
X63912452Y-126683767D01*
X63952063Y-126698498D01*
X64065341Y-126740626D01*
X64234015Y-126763132D01*
X64241026Y-126762494D01*
X64241030Y-126762494D01*
X64396462Y-126748348D01*
X64403483Y-126747709D01*
X64410185Y-126745531D01*
X64410187Y-126745531D01*
X64558623Y-126697301D01*
X64558626Y-126697300D01*
X64565322Y-126695124D01*
X64711490Y-126607990D01*
X64716584Y-126603139D01*
X64716588Y-126603136D01*
X64783833Y-126539099D01*
X64834721Y-126490639D01*
X64928891Y-126348902D01*
X64989319Y-126189825D01*
X65013001Y-126021313D01*
X65013299Y-126000000D01*
X64994331Y-125830892D01*
X64938368Y-125670189D01*
X64848192Y-125525879D01*
X64728286Y-125405132D01*
X64584608Y-125313951D01*
X64424300Y-125256868D01*
X64424813Y-125255427D01*
X64376299Y-125228421D01*
X64375539Y-125229283D01*
X64372574Y-125226669D01*
X64369770Y-125223865D01*
X64366573Y-125221385D01*
X64357551Y-125213680D01*
X64331100Y-125188841D01*
X64325321Y-125183414D01*
X64318375Y-125179595D01*
X64318372Y-125179593D01*
X64307566Y-125173652D01*
X64291047Y-125162801D01*
X64290583Y-125162441D01*
X64275041Y-125150386D01*
X64267772Y-125147241D01*
X64267768Y-125147238D01*
X64234463Y-125132826D01*
X64223813Y-125127609D01*
X64185060Y-125106305D01*
X64165437Y-125101267D01*
X64146734Y-125094863D01*
X64135420Y-125089967D01*
X64135419Y-125089967D01*
X64128145Y-125086819D01*
X64120322Y-125085580D01*
X64120312Y-125085577D01*
X64084476Y-125079901D01*
X64072856Y-125077495D01*
X64037711Y-125068472D01*
X64037710Y-125068472D01*
X64030030Y-125066500D01*
X64009776Y-125066500D01*
X63990065Y-125064949D01*
X63977886Y-125063020D01*
X63970057Y-125061780D01*
X63962165Y-125062526D01*
X63926039Y-125065941D01*
X63914181Y-125066500D01*
X63449899Y-125066500D01*
X63381778Y-125046498D01*
X63342755Y-125006803D01*
X63327332Y-124981880D01*
X63323478Y-124975652D01*
X63198303Y-124850695D01*
X63193765Y-124847898D01*
X63153176Y-124790647D01*
X63149946Y-124719724D01*
X63185572Y-124658313D01*
X63194068Y-124650938D01*
X63204207Y-124642902D01*
X63318739Y-124528171D01*
X63327751Y-124516760D01*
X63412816Y-124378757D01*
X63418963Y-124365576D01*
X63470138Y-124211290D01*
X63473005Y-124197914D01*
X63482672Y-124103562D01*
X63483000Y-124097146D01*
X63483000Y-124072115D01*
X63478525Y-124056876D01*
X63477135Y-124055671D01*
X63469452Y-124054000D01*
X61035116Y-124054000D01*
X61019877Y-124058475D01*
X61018672Y-124059865D01*
X61017001Y-124067548D01*
X61017001Y-124097095D01*
X61017338Y-124103614D01*
X61027257Y-124199206D01*
X61030149Y-124212600D01*
X61081588Y-124366784D01*
X61087761Y-124379962D01*
X61173063Y-124517807D01*
X61182099Y-124529208D01*
X61296828Y-124643738D01*
X61305762Y-124650794D01*
X61346823Y-124708712D01*
X61350053Y-124779635D01*
X61314426Y-124841046D01*
X61306593Y-124847846D01*
X61300652Y-124851522D01*
X61175695Y-124976697D01*
X61171855Y-124982927D01*
X61157251Y-125006618D01*
X61104478Y-125054110D01*
X61049992Y-125066500D01*
X60699899Y-125066500D01*
X60631778Y-125046498D01*
X60592755Y-125006803D01*
X60577332Y-124981880D01*
X60573478Y-124975652D01*
X60448303Y-124850695D01*
X60443765Y-124847898D01*
X60403176Y-124790647D01*
X60399946Y-124719724D01*
X60435572Y-124658313D01*
X60444068Y-124650938D01*
X60454207Y-124642902D01*
X60568739Y-124528171D01*
X60577751Y-124516760D01*
X60662816Y-124378757D01*
X60668963Y-124365576D01*
X60720138Y-124211290D01*
X60723005Y-124197914D01*
X60732672Y-124103562D01*
X60733000Y-124097146D01*
X60733000Y-124072115D01*
X60728525Y-124056876D01*
X60727135Y-124055671D01*
X60719452Y-124054000D01*
X58285116Y-124054000D01*
X58269877Y-124058475D01*
X58268672Y-124059865D01*
X58267001Y-124067548D01*
X58267001Y-124097095D01*
X58267338Y-124103614D01*
X58277257Y-124199206D01*
X58280149Y-124212600D01*
X58331588Y-124366784D01*
X58337761Y-124379962D01*
X58423063Y-124517807D01*
X58432099Y-124529208D01*
X58546828Y-124643738D01*
X58555762Y-124650794D01*
X58596823Y-124708712D01*
X58600053Y-124779635D01*
X58564426Y-124841046D01*
X58556593Y-124847846D01*
X58550652Y-124851522D01*
X58425695Y-124976697D01*
X58421855Y-124982927D01*
X58421854Y-124982928D01*
X58348909Y-125101267D01*
X58332885Y-125127262D01*
X58277203Y-125295139D01*
X58276503Y-125301975D01*
X58276502Y-125301978D01*
X58274888Y-125317730D01*
X58266500Y-125399600D01*
X58266500Y-126000400D01*
X58266837Y-126003646D01*
X58266837Y-126003650D01*
X58269076Y-126025223D01*
X58277474Y-126106166D01*
X58333450Y-126273946D01*
X58426522Y-126424348D01*
X58551697Y-126549305D01*
X58557927Y-126553145D01*
X58557928Y-126553146D01*
X58695090Y-126637694D01*
X58702262Y-126642115D01*
X58782005Y-126668564D01*
X58863611Y-126695632D01*
X58863613Y-126695632D01*
X58870139Y-126697797D01*
X58876975Y-126698497D01*
X58876978Y-126698498D01*
X58920031Y-126702909D01*
X58974600Y-126708500D01*
X59472950Y-126708500D01*
X59541071Y-126728502D01*
X59587564Y-126782158D01*
X59597668Y-126852432D01*
X59568174Y-126917012D01*
X59508103Y-126955497D01*
X59394012Y-126988643D01*
X59394010Y-126988644D01*
X59386399Y-126990855D01*
X59379572Y-126994892D01*
X59379573Y-126994892D01*
X59250020Y-127071509D01*
X59250017Y-127071511D01*
X59243193Y-127075547D01*
X59125547Y-127193193D01*
X59121511Y-127200017D01*
X59121509Y-127200020D01*
X59120452Y-127201808D01*
X59040855Y-127336399D01*
X59038644Y-127344010D01*
X59038643Y-127344012D01*
X59036877Y-127350092D01*
X58994438Y-127496169D01*
X58993934Y-127502574D01*
X58993933Y-127502579D01*
X58993338Y-127510144D01*
X58991500Y-127533498D01*
X58991500Y-128691502D01*
X58994438Y-128728831D01*
X59040855Y-128888601D01*
X59044892Y-128895427D01*
X59121509Y-129024980D01*
X59121511Y-129024983D01*
X59125547Y-129031807D01*
X59243193Y-129149453D01*
X59247002Y-129151706D01*
X59287655Y-129207996D01*
X59291506Y-129278888D01*
X59256418Y-129340609D01*
X59248724Y-129347276D01*
X59243193Y-129350547D01*
X59125547Y-129468193D01*
X59121511Y-129475017D01*
X59121509Y-129475020D01*
X59086453Y-129534297D01*
X59040855Y-129611399D01*
X58994438Y-129771169D01*
X58991500Y-129808498D01*
X58991500Y-130165500D01*
X58971498Y-130233621D01*
X58917842Y-130280114D01*
X58865500Y-130291500D01*
X58145710Y-130291500D01*
X58077589Y-130271498D01*
X58056615Y-130254595D01*
X57965381Y-130163361D01*
X57818699Y-130074528D01*
X57811452Y-130072257D01*
X57811450Y-130072256D01*
X57745164Y-130051483D01*
X57655062Y-130023247D01*
X57581635Y-130016500D01*
X57578737Y-130016500D01*
X57249140Y-130016501D01*
X56918366Y-130016501D01*
X56915508Y-130016764D01*
X56915499Y-130016764D01*
X56879996Y-130020026D01*
X56844938Y-130023247D01*
X56838560Y-130025246D01*
X56838559Y-130025246D01*
X56688550Y-130072256D01*
X56688548Y-130072257D01*
X56681301Y-130074528D01*
X56534619Y-130163361D01*
X56413361Y-130284619D01*
X56324528Y-130431301D01*
X56273247Y-130594938D01*
X56266500Y-130668365D01*
X56266501Y-131181634D01*
X56273247Y-131255062D01*
X56324528Y-131418699D01*
X56413361Y-131565381D01*
X56508885Y-131660905D01*
X56542911Y-131723217D01*
X56537846Y-131794032D01*
X56508885Y-131839095D01*
X56413361Y-131934619D01*
X56324528Y-132081301D01*
X56273247Y-132244938D01*
X56266500Y-132318365D01*
X52833020Y-132318365D01*
X52833020Y-123527885D01*
X58267000Y-123527885D01*
X58271475Y-123543124D01*
X58272865Y-123544329D01*
X58280548Y-123546000D01*
X59227885Y-123546000D01*
X59243124Y-123541525D01*
X59244329Y-123540135D01*
X59246000Y-123532452D01*
X59246000Y-123527885D01*
X59754000Y-123527885D01*
X59758475Y-123543124D01*
X59759865Y-123544329D01*
X59767548Y-123546000D01*
X60714884Y-123546000D01*
X60730123Y-123541525D01*
X60731328Y-123540135D01*
X60732999Y-123532452D01*
X60732999Y-123527885D01*
X61017000Y-123527885D01*
X61021475Y-123543124D01*
X61022865Y-123544329D01*
X61030548Y-123546000D01*
X61977885Y-123546000D01*
X61993124Y-123541525D01*
X61994329Y-123540135D01*
X61996000Y-123532452D01*
X61996000Y-123527885D01*
X62504000Y-123527885D01*
X62508475Y-123543124D01*
X62509865Y-123544329D01*
X62517548Y-123546000D01*
X63464884Y-123546000D01*
X63480123Y-123541525D01*
X63481328Y-123540135D01*
X63482999Y-123532452D01*
X63482999Y-123502905D01*
X63482662Y-123496386D01*
X63472743Y-123400794D01*
X63469851Y-123387400D01*
X63418412Y-123233216D01*
X63412239Y-123220038D01*
X63326937Y-123082193D01*
X63317901Y-123070792D01*
X63203171Y-122956261D01*
X63191760Y-122947249D01*
X63053757Y-122862184D01*
X63040576Y-122856037D01*
X62886290Y-122804862D01*
X62872914Y-122801995D01*
X62778562Y-122792328D01*
X62772145Y-122792000D01*
X62522115Y-122792000D01*
X62506876Y-122796475D01*
X62505671Y-122797865D01*
X62504000Y-122805548D01*
X62504000Y-123527885D01*
X61996000Y-123527885D01*
X61996000Y-122810116D01*
X61991525Y-122794877D01*
X61990135Y-122793672D01*
X61982452Y-122792001D01*
X61727905Y-122792001D01*
X61721386Y-122792338D01*
X61625794Y-122802257D01*
X61612400Y-122805149D01*
X61458216Y-122856588D01*
X61445038Y-122862761D01*
X61307193Y-122948063D01*
X61295792Y-122957099D01*
X61181261Y-123071829D01*
X61172249Y-123083240D01*
X61087184Y-123221243D01*
X61081037Y-123234424D01*
X61029862Y-123388710D01*
X61026995Y-123402086D01*
X61017328Y-123496438D01*
X61017000Y-123502855D01*
X61017000Y-123527885D01*
X60732999Y-123527885D01*
X60732999Y-123502905D01*
X60732662Y-123496386D01*
X60722743Y-123400794D01*
X60719851Y-123387400D01*
X60668412Y-123233216D01*
X60662239Y-123220038D01*
X60576937Y-123082193D01*
X60567901Y-123070792D01*
X60453171Y-122956261D01*
X60441760Y-122947249D01*
X60303757Y-122862184D01*
X60290576Y-122856037D01*
X60136290Y-122804862D01*
X60122914Y-122801995D01*
X60028562Y-122792328D01*
X60022145Y-122792000D01*
X59772115Y-122792000D01*
X59756876Y-122796475D01*
X59755671Y-122797865D01*
X59754000Y-122805548D01*
X59754000Y-123527885D01*
X59246000Y-123527885D01*
X59246000Y-122810116D01*
X59241525Y-122794877D01*
X59240135Y-122793672D01*
X59232452Y-122792001D01*
X58977905Y-122792001D01*
X58971386Y-122792338D01*
X58875794Y-122802257D01*
X58862400Y-122805149D01*
X58708216Y-122856588D01*
X58695038Y-122862761D01*
X58557193Y-122948063D01*
X58545792Y-122957099D01*
X58431261Y-123071829D01*
X58422249Y-123083240D01*
X58337184Y-123221243D01*
X58331037Y-123234424D01*
X58279862Y-123388710D01*
X58276995Y-123402086D01*
X58267328Y-123496438D01*
X58267000Y-123502855D01*
X58267000Y-123527885D01*
X52833020Y-123527885D01*
X52833020Y-118710871D01*
X58623456Y-118710871D01*
X58664107Y-118850790D01*
X58670352Y-118865221D01*
X58746911Y-118994678D01*
X58756551Y-119007104D01*
X58862896Y-119113449D01*
X58875322Y-119123089D01*
X59004779Y-119199648D01*
X59019210Y-119205893D01*
X59165065Y-119248269D01*
X59177667Y-119250570D01*
X59206084Y-119252807D01*
X59211014Y-119253000D01*
X59877885Y-119253000D01*
X59893124Y-119248525D01*
X59894329Y-119247135D01*
X59896000Y-119239452D01*
X59896000Y-119234884D01*
X60404000Y-119234884D01*
X60408475Y-119250123D01*
X60409865Y-119251328D01*
X60417548Y-119252999D01*
X61088984Y-119252999D01*
X61093920Y-119252805D01*
X61122336Y-119250570D01*
X61134931Y-119248270D01*
X61280790Y-119205893D01*
X61295221Y-119199648D01*
X61424678Y-119123089D01*
X61437104Y-119113449D01*
X61543449Y-119007104D01*
X61553089Y-118994678D01*
X61629648Y-118865221D01*
X61635893Y-118850790D01*
X61674939Y-118716395D01*
X61674899Y-118702294D01*
X61667630Y-118699000D01*
X60422115Y-118699000D01*
X60406876Y-118703475D01*
X60405671Y-118704865D01*
X60404000Y-118712548D01*
X60404000Y-119234884D01*
X59896000Y-119234884D01*
X59896000Y-118717115D01*
X59891525Y-118701876D01*
X59890135Y-118700671D01*
X59882452Y-118699000D01*
X58638122Y-118699000D01*
X58624591Y-118702973D01*
X58623456Y-118710871D01*
X52833020Y-118710871D01*
X52833020Y-117440871D01*
X58623456Y-117440871D01*
X58664107Y-117580790D01*
X58670352Y-117595221D01*
X58746912Y-117724678D01*
X58753189Y-117732770D01*
X58779139Y-117798854D01*
X58765241Y-117868477D01*
X58753189Y-117887230D01*
X58746912Y-117895322D01*
X58670352Y-118024779D01*
X58664107Y-118039210D01*
X58625061Y-118173605D01*
X58625101Y-118187706D01*
X58632370Y-118191000D01*
X59877885Y-118191000D01*
X59893124Y-118186525D01*
X59894329Y-118185135D01*
X59896000Y-118177452D01*
X59896000Y-118172885D01*
X60404000Y-118172885D01*
X60408475Y-118188124D01*
X60409865Y-118189329D01*
X60417548Y-118191000D01*
X61661878Y-118191000D01*
X61675409Y-118187027D01*
X61676544Y-118179129D01*
X61635893Y-118039210D01*
X61629648Y-118024779D01*
X61553088Y-117895322D01*
X61546811Y-117887230D01*
X61520861Y-117821146D01*
X61534759Y-117751523D01*
X61546811Y-117732770D01*
X61553088Y-117724678D01*
X61629648Y-117595221D01*
X61635893Y-117580790D01*
X61674939Y-117446395D01*
X61674899Y-117432294D01*
X61667630Y-117429000D01*
X60422115Y-117429000D01*
X60406876Y-117433475D01*
X60405671Y-117434865D01*
X60404000Y-117442548D01*
X60404000Y-118172885D01*
X59896000Y-118172885D01*
X59896000Y-117447115D01*
X59891525Y-117431876D01*
X59890135Y-117430671D01*
X59882452Y-117429000D01*
X58638122Y-117429000D01*
X58624591Y-117432973D01*
X58623456Y-117440871D01*
X52833020Y-117440871D01*
X52833020Y-117394002D01*
X52853022Y-117325881D01*
X52869925Y-117304907D01*
X54003961Y-116170871D01*
X58623456Y-116170871D01*
X58664107Y-116310790D01*
X58670352Y-116325221D01*
X58746912Y-116454678D01*
X58753189Y-116462770D01*
X58779139Y-116528854D01*
X58765241Y-116598477D01*
X58753189Y-116617230D01*
X58746912Y-116625322D01*
X58670352Y-116754779D01*
X58664107Y-116769210D01*
X58625061Y-116903605D01*
X58625101Y-116917706D01*
X58632370Y-116921000D01*
X59877885Y-116921000D01*
X59893124Y-116916525D01*
X59894329Y-116915135D01*
X59896000Y-116907452D01*
X59896000Y-116902885D01*
X60404000Y-116902885D01*
X60408475Y-116918124D01*
X60409865Y-116919329D01*
X60417548Y-116921000D01*
X61661878Y-116921000D01*
X61675409Y-116917027D01*
X61676544Y-116909129D01*
X61635893Y-116769210D01*
X61629648Y-116754779D01*
X61553088Y-116625322D01*
X61546811Y-116617230D01*
X61520861Y-116551146D01*
X61534759Y-116481523D01*
X61546811Y-116462770D01*
X61553088Y-116454678D01*
X61629648Y-116325221D01*
X61635893Y-116310790D01*
X61674939Y-116176395D01*
X61674899Y-116162294D01*
X61667630Y-116159000D01*
X60422115Y-116159000D01*
X60406876Y-116163475D01*
X60405671Y-116164865D01*
X60404000Y-116172548D01*
X60404000Y-116902885D01*
X59896000Y-116902885D01*
X59896000Y-116177115D01*
X59891525Y-116161876D01*
X59890135Y-116160671D01*
X59882452Y-116159000D01*
X58638122Y-116159000D01*
X58624591Y-116162973D01*
X58623456Y-116170871D01*
X54003961Y-116170871D01*
X58402346Y-111772486D01*
X58464658Y-111738460D01*
X58535473Y-111743525D01*
X58592309Y-111786072D01*
X58617120Y-111852592D01*
X58617053Y-111871461D01*
X58616694Y-111876026D01*
X58616693Y-111876040D01*
X58616500Y-111878498D01*
X58616500Y-112311502D01*
X58616693Y-112313950D01*
X58616693Y-112313958D01*
X58618085Y-112331634D01*
X58619438Y-112348831D01*
X58665855Y-112508601D01*
X58750547Y-112651807D01*
X58753229Y-112654489D01*
X58778502Y-112718861D01*
X58764600Y-112788484D01*
X58754428Y-112804312D01*
X58750547Y-112808193D01*
X58665855Y-112951399D01*
X58663644Y-112959010D01*
X58663643Y-112959012D01*
X58656529Y-112983499D01*
X58619438Y-113111169D01*
X58616500Y-113148498D01*
X58616500Y-113581502D01*
X58616693Y-113583950D01*
X58616693Y-113583958D01*
X58617706Y-113596823D01*
X58619438Y-113618831D01*
X58645695Y-113709209D01*
X58663586Y-113770790D01*
X58665855Y-113778601D01*
X58750547Y-113921807D01*
X58753229Y-113924489D01*
X58778502Y-113988861D01*
X58764600Y-114058484D01*
X58754428Y-114074312D01*
X58750547Y-114078193D01*
X58665855Y-114221399D01*
X58663644Y-114229010D01*
X58663643Y-114229012D01*
X58662644Y-114232452D01*
X58619438Y-114381169D01*
X58616500Y-114418498D01*
X58616500Y-114851502D01*
X58619438Y-114888831D01*
X58621233Y-114895008D01*
X58663586Y-115040790D01*
X58665855Y-115048601D01*
X58750547Y-115191807D01*
X58753487Y-115194747D01*
X58778820Y-115259266D01*
X58764921Y-115328889D01*
X58752874Y-115347636D01*
X58746910Y-115355324D01*
X58670352Y-115484779D01*
X58664107Y-115499210D01*
X58625061Y-115633605D01*
X58625101Y-115647706D01*
X58632370Y-115651000D01*
X61661878Y-115651000D01*
X61675409Y-115647027D01*
X61676544Y-115639129D01*
X61635893Y-115499210D01*
X61629648Y-115484779D01*
X61614189Y-115458639D01*
X61596730Y-115389823D01*
X61619247Y-115322491D01*
X61674591Y-115278022D01*
X61722643Y-115268500D01*
X62519407Y-115268500D01*
X62587528Y-115288502D01*
X62626551Y-115328197D01*
X62701522Y-115449348D01*
X62826697Y-115574305D01*
X62832927Y-115578145D01*
X62832928Y-115578146D01*
X62970288Y-115662816D01*
X62977262Y-115667115D01*
X63041730Y-115688498D01*
X63138611Y-115720632D01*
X63138613Y-115720632D01*
X63145139Y-115722797D01*
X63151975Y-115723497D01*
X63151978Y-115723498D01*
X63195031Y-115727909D01*
X63249600Y-115733500D01*
X63850400Y-115733500D01*
X63853646Y-115733163D01*
X63853650Y-115733163D01*
X63949308Y-115723238D01*
X63949312Y-115723237D01*
X63956166Y-115722526D01*
X63962702Y-115720345D01*
X63962704Y-115720345D01*
X64094806Y-115676272D01*
X64123946Y-115666550D01*
X64274348Y-115573478D01*
X64399305Y-115448303D01*
X64402102Y-115443765D01*
X64459353Y-115403176D01*
X64530276Y-115399946D01*
X64591687Y-115435572D01*
X64599062Y-115444068D01*
X64607098Y-115454207D01*
X64721829Y-115568739D01*
X64733240Y-115577751D01*
X64871243Y-115662816D01*
X64884424Y-115668963D01*
X65038710Y-115720138D01*
X65052086Y-115723005D01*
X65146438Y-115732672D01*
X65152854Y-115733000D01*
X65177885Y-115733000D01*
X65193124Y-115728525D01*
X65194329Y-115727135D01*
X65196000Y-115719452D01*
X65196000Y-115714884D01*
X65704000Y-115714884D01*
X65708475Y-115730123D01*
X65709865Y-115731328D01*
X65717548Y-115732999D01*
X65747095Y-115732999D01*
X65753614Y-115732662D01*
X65849206Y-115722743D01*
X65862600Y-115719851D01*
X66016784Y-115668412D01*
X66029962Y-115662239D01*
X66167807Y-115576937D01*
X66179208Y-115567901D01*
X66293739Y-115453171D01*
X66302751Y-115441760D01*
X66387816Y-115303757D01*
X66393963Y-115290576D01*
X66445138Y-115136290D01*
X66448005Y-115122914D01*
X66457672Y-115028562D01*
X66458000Y-115022146D01*
X66458000Y-114772115D01*
X66453525Y-114756876D01*
X66452135Y-114755671D01*
X66444452Y-114754000D01*
X65722115Y-114754000D01*
X65706876Y-114758475D01*
X65705671Y-114759865D01*
X65704000Y-114767548D01*
X65704000Y-115714884D01*
X65196000Y-115714884D01*
X65196000Y-114227885D01*
X65704000Y-114227885D01*
X65708475Y-114243124D01*
X65709865Y-114244329D01*
X65717548Y-114246000D01*
X66439884Y-114246000D01*
X66455123Y-114241525D01*
X66456328Y-114240135D01*
X66457999Y-114232452D01*
X66457999Y-113977905D01*
X66457662Y-113971386D01*
X66447743Y-113875794D01*
X66444851Y-113862400D01*
X66393412Y-113708216D01*
X66387239Y-113695038D01*
X66301937Y-113557193D01*
X66292901Y-113545792D01*
X66178171Y-113431261D01*
X66166760Y-113422249D01*
X66028757Y-113337184D01*
X66015576Y-113331037D01*
X65861290Y-113279862D01*
X65847914Y-113276995D01*
X65753562Y-113267328D01*
X65747145Y-113267000D01*
X65722115Y-113267000D01*
X65706876Y-113271475D01*
X65705671Y-113272865D01*
X65704000Y-113280548D01*
X65704000Y-114227885D01*
X65196000Y-114227885D01*
X65196000Y-113285116D01*
X65191525Y-113269877D01*
X65190135Y-113268672D01*
X65182452Y-113267001D01*
X65152905Y-113267001D01*
X65146386Y-113267338D01*
X65050794Y-113277257D01*
X65037400Y-113280149D01*
X64883216Y-113331588D01*
X64870038Y-113337761D01*
X64732193Y-113423063D01*
X64720792Y-113432099D01*
X64606262Y-113546828D01*
X64599206Y-113555762D01*
X64541288Y-113596823D01*
X64470365Y-113600053D01*
X64408954Y-113564426D01*
X64402154Y-113556593D01*
X64398478Y-113550652D01*
X64273303Y-113425695D01*
X64243382Y-113407251D01*
X64195890Y-113354478D01*
X64183500Y-113299992D01*
X64183500Y-112955262D01*
X64204551Y-112885536D01*
X64228891Y-112848902D01*
X64289319Y-112689825D01*
X64292463Y-112667453D01*
X64321751Y-112602779D01*
X64381355Y-112564206D01*
X64417237Y-112558989D01*
X71798377Y-112558989D01*
X71866498Y-112578991D01*
X71887472Y-112595894D01*
X123246653Y-163955075D01*
X123280679Y-164017387D01*
X123275614Y-164088202D01*
X123263471Y-164112421D01*
X123216304Y-164185610D01*
X123158103Y-164345516D01*
X123158043Y-164345993D01*
X123125994Y-164403102D01*
X118374500Y-169154595D01*
X118312188Y-169188621D01*
X118285405Y-169191500D01*
X59979018Y-169191500D01*
X59911506Y-169171887D01*
X59859608Y-169138951D01*
X59699300Y-169081868D01*
X59530329Y-169061720D01*
X59523326Y-169062456D01*
X59523325Y-169062456D01*
X59368101Y-169078770D01*
X59368097Y-169078771D01*
X59361093Y-169079507D01*
X59354422Y-169081778D01*
X59206673Y-169132075D01*
X59206670Y-169132076D01*
X59200003Y-169134346D01*
X59194005Y-169138036D01*
X59194003Y-169138037D01*
X59061065Y-169219821D01*
X59061063Y-169219823D01*
X59055066Y-169223512D01*
X58933486Y-169342573D01*
X58841304Y-169485610D01*
X58783103Y-169645516D01*
X58761775Y-169814343D01*
X58778381Y-169983699D01*
X58832094Y-170145167D01*
X58835741Y-170151189D01*
X58835742Y-170151191D01*
X58896690Y-170251827D01*
X58920246Y-170290723D01*
X59038455Y-170413132D01*
X59090602Y-170447256D01*
X59134942Y-170476271D01*
X59180846Y-170506310D01*
X59187450Y-170508766D01*
X59187452Y-170508767D01*
X59223844Y-170522301D01*
X59340341Y-170565626D01*
X59509015Y-170588132D01*
X59516026Y-170587494D01*
X59516030Y-170587494D01*
X59671462Y-170573348D01*
X59678483Y-170572709D01*
X59685185Y-170570531D01*
X59685187Y-170570531D01*
X59833623Y-170522301D01*
X59833626Y-170522300D01*
X59840322Y-170520124D01*
X59846373Y-170516517D01*
X59846375Y-170516516D01*
X59913887Y-170476271D01*
X59978404Y-170458500D01*
X118521233Y-170458500D01*
X118532416Y-170459027D01*
X118539909Y-170460702D01*
X118547835Y-170460453D01*
X118547836Y-170460453D01*
X118607986Y-170458562D01*
X118611945Y-170458500D01*
X118639856Y-170458500D01*
X118643791Y-170458003D01*
X118643856Y-170457995D01*
X118655693Y-170457062D01*
X118687951Y-170456048D01*
X118691970Y-170455922D01*
X118699889Y-170455673D01*
X118719343Y-170450021D01*
X118738700Y-170446013D01*
X118750930Y-170444468D01*
X118750931Y-170444468D01*
X118758797Y-170443474D01*
X118766168Y-170440555D01*
X118766170Y-170440555D01*
X118799912Y-170427196D01*
X118811142Y-170423351D01*
X118845983Y-170413229D01*
X118845984Y-170413229D01*
X118853593Y-170411018D01*
X118860412Y-170406985D01*
X118860417Y-170406983D01*
X118871028Y-170400707D01*
X118888776Y-170392012D01*
X118907617Y-170384552D01*
X118943387Y-170358564D01*
X118953307Y-170352048D01*
X118984535Y-170333580D01*
X118984538Y-170333578D01*
X118991362Y-170329542D01*
X119005683Y-170315221D01*
X119020717Y-170302380D01*
X119037107Y-170290472D01*
X119065298Y-170256395D01*
X119073288Y-170247616D01*
X124024261Y-165296644D01*
X124074420Y-165265906D01*
X124093013Y-165259865D01*
X124111063Y-165254000D01*
X124208623Y-165222301D01*
X124208626Y-165222300D01*
X124215322Y-165220124D01*
X124316756Y-165159657D01*
X124385511Y-165141957D01*
X124452921Y-165164239D01*
X124470369Y-165178791D01*
X131304595Y-172013017D01*
X131338621Y-172075329D01*
X131341500Y-172102112D01*
X131341500Y-181296233D01*
X131340973Y-181307416D01*
X131339298Y-181314909D01*
X131339547Y-181322835D01*
X131339547Y-181322836D01*
X131341438Y-181382986D01*
X131341500Y-181386945D01*
X131341500Y-181414856D01*
X131341997Y-181418790D01*
X131341997Y-181418791D01*
X131342005Y-181418856D01*
X131342938Y-181430693D01*
X131344327Y-181474889D01*
X131349978Y-181494339D01*
X131353987Y-181513700D01*
X131356526Y-181533797D01*
X131359445Y-181541168D01*
X131359445Y-181541170D01*
X131372804Y-181574912D01*
X131376649Y-181586142D01*
X131388982Y-181628593D01*
X131393015Y-181635412D01*
X131393017Y-181635417D01*
X131399293Y-181646028D01*
X131407988Y-181663776D01*
X131415448Y-181682617D01*
X131420110Y-181689033D01*
X131420110Y-181689034D01*
X131441436Y-181718387D01*
X131447952Y-181728307D01*
X131459039Y-181747053D01*
X131470458Y-181766362D01*
X131484779Y-181780683D01*
X131497619Y-181795716D01*
X131509528Y-181812107D01*
X131515634Y-181817158D01*
X131543605Y-181840298D01*
X131552384Y-181848288D01*
X158863302Y-209159206D01*
X158897328Y-209221518D01*
X158892263Y-209292333D01*
X158849716Y-209349169D01*
X158840510Y-209355445D01*
X158737301Y-209419314D01*
X158725652Y-209426522D01*
X158600695Y-209551697D01*
X158597898Y-209556235D01*
X158540647Y-209596824D01*
X158469724Y-209600054D01*
X158408313Y-209564428D01*
X158400938Y-209555932D01*
X158392902Y-209545793D01*
X158278171Y-209431261D01*
X158266760Y-209422249D01*
X158128757Y-209337184D01*
X158115576Y-209331037D01*
X157961290Y-209279862D01*
X157947914Y-209276995D01*
X157853562Y-209267328D01*
X157847145Y-209267000D01*
X157822115Y-209267000D01*
X157806876Y-209271475D01*
X157805671Y-209272865D01*
X157804000Y-209280548D01*
X157804000Y-211714884D01*
X157808475Y-211730123D01*
X157809865Y-211731328D01*
X157817548Y-211732999D01*
X157847095Y-211732999D01*
X157853614Y-211732662D01*
X157949206Y-211722743D01*
X157962600Y-211719851D01*
X158116784Y-211668412D01*
X158129962Y-211662239D01*
X158267807Y-211576937D01*
X158279208Y-211567901D01*
X158393738Y-211453172D01*
X158400794Y-211444238D01*
X158458712Y-211403177D01*
X158529635Y-211399947D01*
X158591046Y-211435574D01*
X158597846Y-211443407D01*
X158601522Y-211449348D01*
X158726697Y-211574305D01*
X158732927Y-211578145D01*
X158732928Y-211578146D01*
X158870288Y-211662816D01*
X158877262Y-211667115D01*
X158957005Y-211693564D01*
X159038611Y-211720632D01*
X159038613Y-211720632D01*
X159045139Y-211722797D01*
X159051975Y-211723497D01*
X159051978Y-211723498D01*
X159095031Y-211727909D01*
X159149600Y-211733500D01*
X159750400Y-211733500D01*
X159753652Y-211733163D01*
X159756890Y-211732995D01*
X159756948Y-211734108D01*
X159822295Y-211746135D01*
X159874087Y-211794696D01*
X159891500Y-211858609D01*
X159891500Y-213106846D01*
X159871411Y-213175101D01*
X159816304Y-213260610D01*
X159758103Y-213420516D01*
X159736775Y-213589343D01*
X159753381Y-213758699D01*
X159807094Y-213920167D01*
X159810741Y-213926189D01*
X159810742Y-213926191D01*
X159824497Y-213948902D01*
X159895246Y-214065723D01*
X160013455Y-214188132D01*
X160039272Y-214205026D01*
X160085320Y-214259063D01*
X160094844Y-214329417D01*
X160064820Y-214393753D01*
X160036303Y-214417774D01*
X159997689Y-214441530D01*
X159946831Y-214472818D01*
X159880809Y-214491500D01*
X117073136Y-214491500D01*
X117056690Y-214490422D01*
X117033188Y-214487328D01*
X117025000Y-214486250D01*
X117016812Y-214487328D01*
X116985129Y-214491499D01*
X116985120Y-214491500D01*
X116985115Y-214491500D01*
X116866150Y-214507162D01*
X116718125Y-214568476D01*
X116718123Y-214568477D01*
X116718124Y-214568477D01*
X116622928Y-214641523D01*
X116622925Y-214641526D01*
X116591013Y-214666013D01*
X116585983Y-214672568D01*
X116571548Y-214691379D01*
X116560681Y-214703770D01*
X91552374Y-239712077D01*
X91490062Y-239746103D01*
X91419247Y-239741038D01*
X91362411Y-239698491D01*
X91343208Y-239658957D01*
X91342838Y-239656150D01*
X91281524Y-239508125D01*
X91232755Y-239444569D01*
X91189016Y-239387566D01*
X91189013Y-239387563D01*
X91183987Y-239381013D01*
X91056876Y-239283476D01*
X91049250Y-239280317D01*
X91049248Y-239280316D01*
X90916480Y-239225322D01*
X90916477Y-239225321D01*
X90908850Y-239222162D01*
X90750000Y-239201249D01*
X90591150Y-239222162D01*
X90443125Y-239283476D01*
X90316013Y-239381013D01*
X90265377Y-239447003D01*
X90208040Y-239488869D01*
X90181863Y-239495219D01*
X90099334Y-239506084D01*
X90099330Y-239506085D01*
X90091150Y-239507162D01*
X90083526Y-239510320D01*
X90083522Y-239510321D01*
X90048217Y-239524945D01*
X89977627Y-239532534D01*
X89951783Y-239524945D01*
X89940626Y-239520324D01*
X89908850Y-239507162D01*
X89750000Y-239486249D01*
X89591150Y-239507162D01*
X89443125Y-239568476D01*
X89316013Y-239666013D01*
X89310989Y-239672560D01*
X89306142Y-239677407D01*
X89243829Y-239711431D01*
X89173014Y-239706365D01*
X89127954Y-239677405D01*
X60472644Y-211022095D01*
X156542001Y-211022095D01*
X156542338Y-211028614D01*
X156552257Y-211124206D01*
X156555149Y-211137600D01*
X156606588Y-211291784D01*
X156612761Y-211304962D01*
X156698063Y-211442807D01*
X156707099Y-211454208D01*
X156821829Y-211568739D01*
X156833240Y-211577751D01*
X156971243Y-211662816D01*
X156984424Y-211668963D01*
X157138710Y-211720138D01*
X157152086Y-211723005D01*
X157246438Y-211732672D01*
X157252854Y-211733000D01*
X157277885Y-211733000D01*
X157293124Y-211728525D01*
X157294329Y-211727135D01*
X157296000Y-211719452D01*
X157296000Y-210772115D01*
X157291525Y-210756876D01*
X157290135Y-210755671D01*
X157282452Y-210754000D01*
X156560116Y-210754000D01*
X156544877Y-210758475D01*
X156543672Y-210759865D01*
X156542001Y-210767548D01*
X156542001Y-211022095D01*
X60472644Y-211022095D01*
X59678434Y-210227885D01*
X156542000Y-210227885D01*
X156546475Y-210243124D01*
X156547865Y-210244329D01*
X156555548Y-210246000D01*
X157277885Y-210246000D01*
X157293124Y-210241525D01*
X157294329Y-210240135D01*
X157296000Y-210232452D01*
X157296000Y-209285116D01*
X157291525Y-209269877D01*
X157290135Y-209268672D01*
X157282452Y-209267001D01*
X157252905Y-209267001D01*
X157246386Y-209267338D01*
X157150794Y-209277257D01*
X157137400Y-209280149D01*
X156983216Y-209331588D01*
X156970038Y-209337761D01*
X156832193Y-209423063D01*
X156820792Y-209432099D01*
X156706261Y-209546829D01*
X156697249Y-209558240D01*
X156612184Y-209696243D01*
X156606037Y-209709424D01*
X156554862Y-209863710D01*
X156551995Y-209877086D01*
X156542328Y-209971438D01*
X156542000Y-209977855D01*
X156542000Y-210227885D01*
X59678434Y-210227885D01*
X29524144Y-180073595D01*
X29490118Y-180011283D01*
X29495183Y-179940468D01*
X29537730Y-179883632D01*
X29604250Y-179858821D01*
X29613239Y-179858500D01*
X29976864Y-179858500D01*
X29993307Y-179859578D01*
X30025000Y-179863750D01*
X30033189Y-179862672D01*
X30064874Y-179858501D01*
X30064884Y-179858500D01*
X30064885Y-179858500D01*
X30164457Y-179845391D01*
X30175664Y-179843916D01*
X30175666Y-179843915D01*
X30183851Y-179842838D01*
X30331876Y-179781524D01*
X30407127Y-179723781D01*
X30464865Y-179701209D01*
X30464568Y-179699764D01*
X30471469Y-179698347D01*
X30478483Y-179697709D01*
X30485180Y-179695533D01*
X30633623Y-179647301D01*
X30633626Y-179647300D01*
X30640322Y-179645124D01*
X30786490Y-179557990D01*
X30791584Y-179553139D01*
X30791588Y-179553136D01*
X30858833Y-179489099D01*
X30909721Y-179440639D01*
X31003891Y-179298902D01*
X31064319Y-179139825D01*
X31088001Y-178971313D01*
X31088771Y-178971421D01*
X31112658Y-178908438D01*
X31169727Y-178866204D01*
X31213110Y-178858500D01*
X46701864Y-178858500D01*
X46718307Y-178859578D01*
X46750000Y-178863750D01*
X46758189Y-178862672D01*
X46789874Y-178858501D01*
X46789884Y-178858500D01*
X46789885Y-178858500D01*
X46889457Y-178845391D01*
X46900664Y-178843916D01*
X46900666Y-178843915D01*
X46908851Y-178842838D01*
X47056876Y-178781524D01*
X47107513Y-178742669D01*
X47152072Y-178708477D01*
X47152075Y-178708474D01*
X47177434Y-178689015D01*
X47183987Y-178683987D01*
X47189017Y-178677432D01*
X47203452Y-178658621D01*
X47214319Y-178646230D01*
X51076621Y-174783928D01*
X51140382Y-174749596D01*
X51146463Y-174748348D01*
X51153483Y-174747709D01*
X51179785Y-174739163D01*
X51308623Y-174697301D01*
X51308626Y-174697300D01*
X51315322Y-174695124D01*
X51461490Y-174607990D01*
X51466584Y-174603139D01*
X51466588Y-174603136D01*
X51533833Y-174539099D01*
X51584721Y-174490639D01*
X51678891Y-174348902D01*
X51739319Y-174189825D01*
X51763001Y-174021313D01*
X51763299Y-174000000D01*
X51744331Y-173830892D01*
X51688368Y-173670189D01*
X51682383Y-173660610D01*
X51632503Y-173580788D01*
X51598192Y-173525879D01*
X51478286Y-173405132D01*
X51462039Y-173394821D01*
X51423406Y-173370304D01*
X51334608Y-173313951D01*
X51174300Y-173256868D01*
X51005329Y-173236720D01*
X50998326Y-173237456D01*
X50998325Y-173237456D01*
X50843101Y-173253770D01*
X50843097Y-173253771D01*
X50836093Y-173254507D01*
X50829422Y-173256778D01*
X50681673Y-173307075D01*
X50681670Y-173307076D01*
X50675003Y-173309346D01*
X50669005Y-173313036D01*
X50669003Y-173313037D01*
X50536065Y-173394821D01*
X50536063Y-173394823D01*
X50530066Y-173398512D01*
X50408486Y-173517573D01*
X50316304Y-173660610D01*
X50258103Y-173820516D01*
X50254713Y-173847348D01*
X50226333Y-173912421D01*
X50218803Y-173920648D01*
X46534856Y-177604595D01*
X46472544Y-177638621D01*
X46445761Y-177641500D01*
X28774500Y-177641500D01*
X28706379Y-177621498D01*
X28659886Y-177567842D01*
X28648500Y-177515500D01*
X28648500Y-177201866D01*
X28644091Y-177161280D01*
X28644091Y-177134067D01*
X28647631Y-177101483D01*
X28648000Y-177094672D01*
X28648000Y-177022115D01*
X28643525Y-177006876D01*
X28642135Y-177005671D01*
X28628590Y-177002725D01*
X28566278Y-176968701D01*
X28554556Y-176955182D01*
X28503261Y-176886739D01*
X28386705Y-176799385D01*
X28250316Y-176748255D01*
X28242464Y-176747402D01*
X28242460Y-176747401D01*
X28241185Y-176747263D01*
X28240259Y-176746878D01*
X28234778Y-176745575D01*
X28234989Y-176744688D01*
X28175623Y-176720021D01*
X28135196Y-176661659D01*
X28132740Y-176590704D01*
X28169035Y-176529686D01*
X28232557Y-176497977D01*
X28254792Y-176496000D01*
X28629884Y-176496000D01*
X28645123Y-176491525D01*
X28646328Y-176490135D01*
X28647999Y-176482452D01*
X28647999Y-176405331D01*
X28647629Y-176398510D01*
X28642105Y-176347648D01*
X28638479Y-176332396D01*
X28593324Y-176211946D01*
X28584786Y-176196351D01*
X28508285Y-176094276D01*
X28495724Y-176081715D01*
X28393649Y-176005214D01*
X28378054Y-175996676D01*
X28257606Y-175951522D01*
X28242351Y-175947895D01*
X28191486Y-175942369D01*
X28184672Y-175942000D01*
X28176499Y-175942000D01*
X28108378Y-175921998D01*
X28061885Y-175868342D01*
X28051189Y-175802830D01*
X28062711Y-175693204D01*
X28062711Y-175693202D01*
X28063355Y-175687075D01*
X28046180Y-175498348D01*
X28045989Y-175496251D01*
X28045988Y-175496248D01*
X28045430Y-175490112D01*
X28026989Y-175427452D01*
X28001836Y-175341990D01*
X27989590Y-175300381D01*
X27979919Y-175281881D01*
X27900813Y-175130568D01*
X27897960Y-175125110D01*
X27774032Y-174970975D01*
X27767727Y-174965684D01*
X27736909Y-174939825D01*
X27622526Y-174843846D01*
X27617128Y-174840879D01*
X27617123Y-174840875D01*
X27454608Y-174751533D01*
X27454609Y-174751533D01*
X27449213Y-174748567D01*
X27443346Y-174746706D01*
X27443344Y-174746705D01*
X27266564Y-174690627D01*
X27266563Y-174690627D01*
X27260694Y-174688765D01*
X27254577Y-174688079D01*
X27254573Y-174688078D01*
X27245458Y-174687056D01*
X27179990Y-174659587D01*
X27139767Y-174601084D01*
X27133500Y-174561841D01*
X27133500Y-173028710D01*
X27153502Y-172960589D01*
X27207158Y-172914096D01*
X27277432Y-172903992D01*
X27317855Y-172918458D01*
X27318084Y-172917951D01*
X27324372Y-172920790D01*
X27324766Y-172920931D01*
X27325005Y-172921076D01*
X27338757Y-172927285D01*
X27488644Y-172974256D01*
X27501694Y-172976869D01*
X27556586Y-172981913D01*
X27568124Y-172978525D01*
X27569329Y-172977135D01*
X27571000Y-172969452D01*
X27571000Y-172964884D01*
X28079000Y-172964884D01*
X28083475Y-172980123D01*
X28084865Y-172981328D01*
X28089294Y-172982291D01*
X28148315Y-172976868D01*
X28161351Y-172974257D01*
X28311243Y-172927285D01*
X28324988Y-172921079D01*
X28458574Y-172840176D01*
X28470443Y-172830869D01*
X28580869Y-172720443D01*
X28590176Y-172708574D01*
X28671079Y-172574988D01*
X28677285Y-172561243D01*
X28724256Y-172411356D01*
X28726869Y-172398306D01*
X28732734Y-172334479D01*
X28733000Y-172328691D01*
X28733000Y-172272115D01*
X28728525Y-172256876D01*
X28727135Y-172255671D01*
X28719452Y-172254000D01*
X28097115Y-172254000D01*
X28081876Y-172258475D01*
X28080671Y-172259865D01*
X28079000Y-172267548D01*
X28079000Y-172964884D01*
X27571000Y-172964884D01*
X27571000Y-171727885D01*
X28079000Y-171727885D01*
X28083475Y-171743124D01*
X28084865Y-171744329D01*
X28092548Y-171746000D01*
X28714884Y-171746000D01*
X28730123Y-171741525D01*
X28731328Y-171740135D01*
X28732999Y-171732452D01*
X28732999Y-171671295D01*
X28732736Y-171665546D01*
X28726868Y-171601685D01*
X28724257Y-171588649D01*
X28677285Y-171438757D01*
X28671079Y-171425012D01*
X28590176Y-171291426D01*
X28580869Y-171279557D01*
X28470443Y-171169131D01*
X28458574Y-171159824D01*
X28324988Y-171078921D01*
X28311243Y-171072715D01*
X28161356Y-171025744D01*
X28148306Y-171023131D01*
X28093414Y-171018087D01*
X28081876Y-171021475D01*
X28080671Y-171022865D01*
X28079000Y-171030548D01*
X28079000Y-171727885D01*
X27571000Y-171727885D01*
X27571000Y-171035116D01*
X27566525Y-171019877D01*
X27565135Y-171018672D01*
X27560706Y-171017709D01*
X27501685Y-171023132D01*
X27488649Y-171025743D01*
X27338757Y-171072715D01*
X27325012Y-171078921D01*
X27191426Y-171159824D01*
X27179557Y-171169131D01*
X27089449Y-171259239D01*
X27027137Y-171293265D01*
X26956322Y-171288200D01*
X26911259Y-171259239D01*
X26815381Y-171163361D01*
X26668699Y-171074528D01*
X26661452Y-171072257D01*
X26661450Y-171072256D01*
X26595164Y-171051483D01*
X26505062Y-171023247D01*
X26431635Y-171016500D01*
X26428737Y-171016500D01*
X26174335Y-171016501D01*
X25918366Y-171016501D01*
X25915508Y-171016764D01*
X25915499Y-171016764D01*
X25881619Y-171019877D01*
X25844938Y-171023247D01*
X25838560Y-171025246D01*
X25838559Y-171025246D01*
X25688550Y-171072256D01*
X25688548Y-171072257D01*
X25681301Y-171074528D01*
X25534619Y-171163361D01*
X25413361Y-171284619D01*
X25324528Y-171431301D01*
X25273247Y-171594938D01*
X25266500Y-171668365D01*
X25266501Y-172331634D01*
X25273247Y-172405062D01*
X25324528Y-172568699D01*
X25413361Y-172715381D01*
X25534619Y-172836639D01*
X25681301Y-172925472D01*
X25688548Y-172927743D01*
X25688550Y-172927744D01*
X25778179Y-172955832D01*
X25837201Y-172995290D01*
X25865521Y-173060393D01*
X25866500Y-173076066D01*
X25866500Y-174560594D01*
X25846498Y-174628715D01*
X25792842Y-174675208D01*
X25764979Y-174684193D01*
X25759291Y-174685320D01*
X25753167Y-174685920D01*
X25747272Y-174687700D01*
X25747271Y-174687700D01*
X25722682Y-174695124D01*
X25563831Y-174743084D01*
X25389204Y-174835934D01*
X25302938Y-174906291D01*
X25240713Y-174957040D01*
X25240710Y-174957043D01*
X25235938Y-174960935D01*
X25232010Y-174965683D01*
X25232009Y-174965684D01*
X25202945Y-175000816D01*
X25144111Y-175040554D01*
X25105861Y-175046500D01*
X23465124Y-175046500D01*
X23397003Y-175026498D01*
X23366931Y-174999456D01*
X23344032Y-174970975D01*
X23337727Y-174965684D01*
X23306909Y-174939825D01*
X23192526Y-174843846D01*
X23187128Y-174840879D01*
X23187123Y-174840875D01*
X23024608Y-174751533D01*
X23024609Y-174751533D01*
X23019213Y-174748567D01*
X23013346Y-174746706D01*
X23013344Y-174746705D01*
X22836564Y-174690627D01*
X22836563Y-174690627D01*
X22830694Y-174688765D01*
X22676773Y-174671500D01*
X21970231Y-174671500D01*
X21967175Y-174671800D01*
X21967168Y-174671800D01*
X21908660Y-174677537D01*
X21823167Y-174685920D01*
X21817266Y-174687702D01*
X21817264Y-174687702D01*
X21785471Y-174697301D01*
X21633831Y-174743084D01*
X21459204Y-174835934D01*
X21372938Y-174906291D01*
X21310713Y-174957040D01*
X21310710Y-174957043D01*
X21305938Y-174960935D01*
X21302011Y-174965682D01*
X21302009Y-174965684D01*
X21183799Y-175108575D01*
X21183797Y-175108579D01*
X21179870Y-175113325D01*
X21085802Y-175287299D01*
X21027318Y-175476232D01*
X21026674Y-175482357D01*
X21026674Y-175482358D01*
X21024994Y-175498348D01*
X21006645Y-175672925D01*
X21024570Y-175869888D01*
X21026308Y-175875794D01*
X21026309Y-175875798D01*
X21045793Y-175942000D01*
X21080410Y-176059619D01*
X21083263Y-176065077D01*
X21083265Y-176065081D01*
X21098528Y-176094276D01*
X21172040Y-176234890D01*
X21295968Y-176389025D01*
X21300692Y-176392989D01*
X21307272Y-176398510D01*
X21447474Y-176516154D01*
X21452872Y-176519121D01*
X21452877Y-176519125D01*
X21620787Y-176611433D01*
X21619423Y-176613914D01*
X21664806Y-176651340D01*
X21686500Y-176722025D01*
X21686500Y-183279371D01*
X21666498Y-183347492D01*
X21619654Y-183390622D01*
X21459204Y-183475934D01*
X21418947Y-183508767D01*
X21310713Y-183597040D01*
X21310710Y-183597043D01*
X21305938Y-183600935D01*
X21302011Y-183605682D01*
X21302009Y-183605684D01*
X21183799Y-183748575D01*
X21183797Y-183748579D01*
X21179870Y-183753325D01*
X21085802Y-183927299D01*
X21027318Y-184116232D01*
X21006645Y-184312925D01*
X20508500Y-184312925D01*
X20508500Y-109227885D01*
X44542000Y-109227885D01*
X44546475Y-109243124D01*
X44547865Y-109244329D01*
X44555548Y-109246000D01*
X45277885Y-109246000D01*
X45293124Y-109241525D01*
X45294329Y-109240135D01*
X45296000Y-109232452D01*
X45296000Y-108285116D01*
X45291525Y-108269877D01*
X45290135Y-108268672D01*
X45282452Y-108267001D01*
X45252905Y-108267001D01*
X45246386Y-108267338D01*
X45150794Y-108277257D01*
X45137400Y-108280149D01*
X44983216Y-108331588D01*
X44970038Y-108337761D01*
X44832193Y-108423063D01*
X44820792Y-108432099D01*
X44706261Y-108546829D01*
X44697249Y-108558240D01*
X44612184Y-108696243D01*
X44606037Y-108709424D01*
X44554862Y-108863710D01*
X44551995Y-108877086D01*
X44542328Y-108971438D01*
X44542000Y-108977855D01*
X44542000Y-109227885D01*
X20508500Y-109227885D01*
X20508500Y-23000000D01*
X21386526Y-23000000D01*
X21406391Y-23252403D01*
X21407545Y-23257210D01*
X21407546Y-23257216D01*
X21410015Y-23267498D01*
X21465495Y-23498591D01*
X21562384Y-23732502D01*
X21694672Y-23948376D01*
X21859102Y-24140898D01*
X22051624Y-24305328D01*
X22267498Y-24437616D01*
X22272068Y-24439509D01*
X22272072Y-24439511D01*
X22496836Y-24532611D01*
X22501409Y-24534505D01*
X22586032Y-24554821D01*
X22742784Y-24592454D01*
X22742790Y-24592455D01*
X22747597Y-24593609D01*
X22847416Y-24601465D01*
X22934345Y-24608307D01*
X22934352Y-24608307D01*
X22936801Y-24608500D01*
X23063199Y-24608500D01*
X23065648Y-24608307D01*
X23065655Y-24608307D01*
X23152584Y-24601465D01*
X23252403Y-24593609D01*
X23257210Y-24592455D01*
X23257216Y-24592454D01*
X23413968Y-24554821D01*
X23498591Y-24534505D01*
X23503164Y-24532611D01*
X23727928Y-24439511D01*
X23727932Y-24439509D01*
X23732502Y-24437616D01*
X23948376Y-24305328D01*
X24140898Y-24140898D01*
X24305328Y-23948376D01*
X24437616Y-23732502D01*
X24534505Y-23498591D01*
X24589985Y-23267498D01*
X24592454Y-23257216D01*
X24592455Y-23257210D01*
X24593609Y-23252403D01*
X24613474Y-23000000D01*
X133386526Y-23000000D01*
X133406391Y-23252403D01*
X133407545Y-23257210D01*
X133407546Y-23257216D01*
X133410015Y-23267498D01*
X133465495Y-23498591D01*
X133562384Y-23732502D01*
X133694672Y-23948376D01*
X133859102Y-24140898D01*
X134051624Y-24305328D01*
X134267498Y-24437616D01*
X134272068Y-24439509D01*
X134272072Y-24439511D01*
X134496836Y-24532611D01*
X134501409Y-24534505D01*
X134586032Y-24554821D01*
X134742784Y-24592454D01*
X134742790Y-24592455D01*
X134747597Y-24593609D01*
X134847416Y-24601465D01*
X134934345Y-24608307D01*
X134934352Y-24608307D01*
X134936801Y-24608500D01*
X135063199Y-24608500D01*
X135065648Y-24608307D01*
X135065655Y-24608307D01*
X135152584Y-24601465D01*
X135252403Y-24593609D01*
X135257210Y-24592455D01*
X135257216Y-24592454D01*
X135413968Y-24554821D01*
X135498591Y-24534505D01*
X135503164Y-24532611D01*
X135727928Y-24439511D01*
X135727932Y-24439509D01*
X135732502Y-24437616D01*
X135948376Y-24305328D01*
X136140898Y-24140898D01*
X136261237Y-24000000D01*
X289386526Y-24000000D01*
X289406391Y-24252403D01*
X289465495Y-24498591D01*
X289467388Y-24503162D01*
X289467389Y-24503164D01*
X289511021Y-24608500D01*
X289562384Y-24732502D01*
X289694672Y-24948376D01*
X289859102Y-25140898D01*
X290051624Y-25305328D01*
X290267498Y-25437616D01*
X290272068Y-25439509D01*
X290272072Y-25439511D01*
X290496836Y-25532611D01*
X290501409Y-25534505D01*
X290586032Y-25554821D01*
X290742784Y-25592454D01*
X290742790Y-25592455D01*
X290747597Y-25593609D01*
X290847416Y-25601465D01*
X290934345Y-25608307D01*
X290934352Y-25608307D01*
X290936801Y-25608500D01*
X291063199Y-25608500D01*
X291065648Y-25608307D01*
X291065655Y-25608307D01*
X291152584Y-25601465D01*
X291252403Y-25593609D01*
X291257210Y-25592455D01*
X291257216Y-25592454D01*
X291413968Y-25554821D01*
X291498591Y-25534505D01*
X291503164Y-25532611D01*
X291727928Y-25439511D01*
X291727932Y-25439509D01*
X291732502Y-25437616D01*
X291948376Y-25305328D01*
X292140898Y-25140898D01*
X292305328Y-24948376D01*
X292437616Y-24732502D01*
X292488980Y-24608500D01*
X292532611Y-24503164D01*
X292532612Y-24503162D01*
X292534505Y-24498591D01*
X292593609Y-24252403D01*
X292613474Y-24000000D01*
X292593609Y-23747597D01*
X292590999Y-23736722D01*
X292535660Y-23506221D01*
X292534505Y-23501409D01*
X292437616Y-23267498D01*
X292305328Y-23051624D01*
X292140898Y-22859102D01*
X291948376Y-22694672D01*
X291732502Y-22562384D01*
X291727932Y-22560491D01*
X291727928Y-22560489D01*
X291503164Y-22467389D01*
X291503162Y-22467388D01*
X291498591Y-22465495D01*
X291413968Y-22445179D01*
X291257216Y-22407546D01*
X291257210Y-22407545D01*
X291252403Y-22406391D01*
X291152584Y-22398535D01*
X291065655Y-22391693D01*
X291065648Y-22391693D01*
X291063199Y-22391500D01*
X290936801Y-22391500D01*
X290934352Y-22391693D01*
X290934345Y-22391693D01*
X290847416Y-22398535D01*
X290747597Y-22406391D01*
X290742790Y-22407545D01*
X290742784Y-22407546D01*
X290586032Y-22445179D01*
X290501409Y-22465495D01*
X290496838Y-22467388D01*
X290496836Y-22467389D01*
X290272072Y-22560489D01*
X290272068Y-22560491D01*
X290267498Y-22562384D01*
X290051624Y-22694672D01*
X289859102Y-22859102D01*
X289694672Y-23051624D01*
X289562384Y-23267498D01*
X289465495Y-23501409D01*
X289464340Y-23506221D01*
X289409002Y-23736722D01*
X289406391Y-23747597D01*
X289386526Y-24000000D01*
X136261237Y-24000000D01*
X136305328Y-23948376D01*
X136437616Y-23732502D01*
X136534505Y-23498591D01*
X136589985Y-23267498D01*
X136592454Y-23257216D01*
X136592455Y-23257210D01*
X136593609Y-23252403D01*
X136613474Y-23000000D01*
X136593609Y-22747597D01*
X136534505Y-22501409D01*
X136532611Y-22496836D01*
X136439511Y-22272072D01*
X136439509Y-22272068D01*
X136437616Y-22267498D01*
X136305328Y-22051624D01*
X136140898Y-21859102D01*
X135948376Y-21694672D01*
X135732502Y-21562384D01*
X135727932Y-21560491D01*
X135727928Y-21560489D01*
X135503164Y-21467389D01*
X135503162Y-21467388D01*
X135498591Y-21465495D01*
X135413968Y-21445179D01*
X135257216Y-21407546D01*
X135257210Y-21407545D01*
X135252403Y-21406391D01*
X135152584Y-21398535D01*
X135065655Y-21391693D01*
X135065648Y-21391693D01*
X135063199Y-21391500D01*
X134936801Y-21391500D01*
X134934352Y-21391693D01*
X134934345Y-21391693D01*
X134847416Y-21398535D01*
X134747597Y-21406391D01*
X134742790Y-21407545D01*
X134742784Y-21407546D01*
X134586032Y-21445179D01*
X134501409Y-21465495D01*
X134496838Y-21467388D01*
X134496836Y-21467389D01*
X134272072Y-21560489D01*
X134272068Y-21560491D01*
X134267498Y-21562384D01*
X134051624Y-21694672D01*
X133859102Y-21859102D01*
X133694672Y-22051624D01*
X133562384Y-22267498D01*
X133560491Y-22272068D01*
X133560489Y-22272072D01*
X133467389Y-22496836D01*
X133465495Y-22501409D01*
X133406391Y-22747597D01*
X133386526Y-23000000D01*
X24613474Y-23000000D01*
X24593609Y-22747597D01*
X24534505Y-22501409D01*
X24532611Y-22496836D01*
X24439511Y-22272072D01*
X24439509Y-22272068D01*
X24437616Y-22267498D01*
X24305328Y-22051624D01*
X24140898Y-21859102D01*
X23948376Y-21694672D01*
X23732502Y-21562384D01*
X23727932Y-21560491D01*
X23727928Y-21560489D01*
X23503164Y-21467389D01*
X23503162Y-21467388D01*
X23498591Y-21465495D01*
X23413968Y-21445179D01*
X23257216Y-21407546D01*
X23257210Y-21407545D01*
X23252403Y-21406391D01*
X23152584Y-21398535D01*
X23065655Y-21391693D01*
X23065648Y-21391693D01*
X23063199Y-21391500D01*
X22936801Y-21391500D01*
X22934352Y-21391693D01*
X22934345Y-21391693D01*
X22847416Y-21398535D01*
X22747597Y-21406391D01*
X22742790Y-21407545D01*
X22742784Y-21407546D01*
X22586032Y-21445179D01*
X22501409Y-21465495D01*
X22496838Y-21467388D01*
X22496836Y-21467389D01*
X22272072Y-21560489D01*
X22272068Y-21560491D01*
X22267498Y-21562384D01*
X22051624Y-21694672D01*
X21859102Y-21859102D01*
X21694672Y-22051624D01*
X21562384Y-22267498D01*
X21560491Y-22272068D01*
X21560489Y-22272072D01*
X21467389Y-22496836D01*
X21465495Y-22501409D01*
X21406391Y-22747597D01*
X21386526Y-23000000D01*
X20508500Y-23000000D01*
X20508500Y-20634500D01*
X20528502Y-20566379D01*
X20582158Y-20519886D01*
X20634500Y-20508500D01*
X289950633Y-20508500D01*
X289970018Y-20510000D01*
G37*
%TD.AperFunction*%
%TA.AperFunction,Conductor*%
G36*
X115678527Y-111478502D02*
G01*
X115699501Y-111495405D01*
X131979595Y-127775500D01*
X132013621Y-127837812D01*
X132016500Y-127864595D01*
X132016500Y-170628923D01*
X131996498Y-170697044D01*
X131942842Y-170743537D01*
X131872568Y-170753641D01*
X131807988Y-170724147D01*
X131801405Y-170718018D01*
X72756982Y-111673595D01*
X72722956Y-111611283D01*
X72728021Y-111540468D01*
X72770568Y-111483632D01*
X72837088Y-111458821D01*
X72846077Y-111458500D01*
X115610406Y-111458500D01*
X115678527Y-111478502D01*
G37*
%TD.AperFunction*%
%TA.AperFunction,Conductor*%
G36*
X60817012Y-127913371D02*
G01*
X60823595Y-127919500D01*
X60854595Y-127950500D01*
X60888621Y-128012812D01*
X60891500Y-128039595D01*
X60891500Y-128691502D01*
X60894438Y-128728831D01*
X60940855Y-128888601D01*
X61025547Y-129031807D01*
X61031156Y-129037416D01*
X61035399Y-129042886D01*
X61061346Y-129108971D01*
X61047445Y-129178594D01*
X61009554Y-129220116D01*
X61004000Y-129232370D01*
X61004000Y-129470158D01*
X60986453Y-129534297D01*
X60940855Y-129611399D01*
X60894438Y-129771169D01*
X60891500Y-129808498D01*
X60891500Y-130966502D01*
X60894438Y-131003831D01*
X60901623Y-131028562D01*
X60932921Y-131136290D01*
X60940855Y-131163601D01*
X60944892Y-131170427D01*
X60986453Y-131240703D01*
X61004000Y-131304842D01*
X61004000Y-131536878D01*
X61007973Y-131550409D01*
X61037782Y-131554695D01*
X61076348Y-131554806D01*
X61135962Y-131593362D01*
X61165269Y-131658028D01*
X61166500Y-131675599D01*
X61166500Y-131782130D01*
X61146498Y-131850251D01*
X61092842Y-131896744D01*
X61084730Y-131900112D01*
X60953295Y-131949385D01*
X60836739Y-132036739D01*
X60749385Y-132153295D01*
X60749139Y-132153951D01*
X60701825Y-132201157D01*
X60641567Y-132216500D01*
X58310397Y-132216500D01*
X58242276Y-132196498D01*
X58195783Y-132142842D01*
X58190163Y-132128180D01*
X58177743Y-132088548D01*
X58175472Y-132081301D01*
X58086639Y-131934619D01*
X57991115Y-131839095D01*
X57957089Y-131776783D01*
X57962154Y-131705968D01*
X57991115Y-131660905D01*
X58056615Y-131595405D01*
X58118927Y-131561379D01*
X58145710Y-131558500D01*
X59183733Y-131558500D01*
X59194916Y-131559027D01*
X59202409Y-131560702D01*
X59210335Y-131560453D01*
X59210336Y-131560453D01*
X59270486Y-131558562D01*
X59274445Y-131558500D01*
X59302356Y-131558500D01*
X59306291Y-131558003D01*
X59306356Y-131557995D01*
X59318193Y-131557062D01*
X59350451Y-131556048D01*
X59354470Y-131555922D01*
X59362389Y-131555673D01*
X59381843Y-131550021D01*
X59401200Y-131546013D01*
X59413433Y-131544468D01*
X59413437Y-131544467D01*
X59421297Y-131543474D01*
X59428667Y-131540556D01*
X59430237Y-131540153D01*
X59496723Y-131541197D01*
X59546169Y-131555562D01*
X59552579Y-131556067D01*
X59552582Y-131556067D01*
X59581042Y-131558307D01*
X59581050Y-131558307D01*
X59583498Y-131558500D01*
X60016502Y-131558500D01*
X60018950Y-131558307D01*
X60018958Y-131558307D01*
X60047421Y-131556067D01*
X60047426Y-131556066D01*
X60053831Y-131555562D01*
X60153769Y-131526528D01*
X60205988Y-131511357D01*
X60205990Y-131511356D01*
X60213601Y-131509145D01*
X60220423Y-131505111D01*
X60225596Y-131502872D01*
X60296058Y-131494176D01*
X60325674Y-131502872D01*
X60344210Y-131510893D01*
X60478605Y-131549939D01*
X60492706Y-131549899D01*
X60496000Y-131542630D01*
X60496000Y-131304842D01*
X60513547Y-131240703D01*
X60555108Y-131170427D01*
X60559145Y-131163601D01*
X60567080Y-131136290D01*
X60598377Y-131028562D01*
X60605562Y-131003831D01*
X60608500Y-130966502D01*
X60608500Y-129808498D01*
X60605562Y-129771169D01*
X60559145Y-129611399D01*
X60513547Y-129534297D01*
X60496000Y-129470158D01*
X60496000Y-129238122D01*
X60491526Y-129222884D01*
X60482118Y-129214732D01*
X60443734Y-129155006D01*
X60443734Y-129084010D01*
X60465071Y-129042280D01*
X60468845Y-129037415D01*
X60474453Y-129031807D01*
X60478489Y-129024983D01*
X60478491Y-129024980D01*
X60555108Y-128895427D01*
X60559145Y-128888601D01*
X60605562Y-128728831D01*
X60608500Y-128691502D01*
X60608500Y-128008595D01*
X60628502Y-127940474D01*
X60682158Y-127893981D01*
X60752432Y-127883877D01*
X60817012Y-127913371D01*
G37*
%TD.AperFunction*%
M02*
