M48
; DRILL file {KiCad (6.0.4)} date Thu May 26 23:50:21 2022
; FORMAT={-:-/ absolute / metric / decimal}
; #@! TF.CreationDate,2022-05-26T23:50:21-07:00
; #@! TF.GenerationSoftware,Kicad,Pcbnew,(6.0.4)
; #@! TF.FileFunction,Plated,1,2,PTH
FMAT,2
METRIC
; #@! TA.AperFunction,Plated,PTH,ViaDrill
T1C0.300
; #@! TA.AperFunction,Plated,PTH,ComponentDrill
T2C0.600
%
G90
G05
T1
X64.5Y-147.8
X66.543Y-148.793
X67.6Y-149.9
X82.55Y-146.3
X82.55Y-149.75
X85.6Y-134.6
X98.6Y-61.35
X98.7Y-48.9
X101.5Y-48.85
X101.8Y-61.35
X105.75Y-28.75
X105.75Y-44.85
X105.8Y-59.9
X108.5Y-176.5
X108.5Y-179.75
X109.0Y-161.75
X111.25Y-159.5
X114.5Y-90.0
X116.25Y-104.15
X117.4Y-148.7
X118.5Y-90.0
X118.8Y-28.4
X119.75Y-149.2
X120.6Y-150.9
X120.65Y-37.9
X120.7Y-52.85
X120.75Y-69.15
X121.35Y-63.25
X121.5Y-66.95
X121.65Y-49.35
X122.0Y-183.25
X122.2Y-28.5
X123.1Y-68.85
X123.15Y-66.2
X124.0Y-52.9
X126.5Y-63.0
X126.5Y-67.75
X126.6Y-127.4
X126.75Y-57.25
X127.35Y-104.2
X128.15Y-47.3
X128.3Y-52.3
X130.0Y-57.25
X138.6Y-26.2
X138.65Y-29.5
X147.45Y-48.5
X149.15Y-63.0
X150.75Y-102.25
X150.75Y-106.25
X150.95Y-67.0
X153.4Y-50.9
X163.05Y-78.2
X165.6Y-69.6
X167.5Y-59.0
X171.5Y-29.0
X173.1Y-64.4
X174.65Y-66.3
X175.0Y-91.5
X179.75Y-91.5
X187.5Y-78.0
X189.75Y-50.5
X195.0Y-50.75
X197.5Y-58.7
X199.2Y-60.5
X201.5Y-33.7
X203.3Y-35.4
X209.5Y-33.35
X209.5Y-35.9
X211.6Y-126.5
X216.0Y-142.55
X217.5Y-134.7
X219.15Y-142.55
X219.5Y-136.4
X221.2Y-45.3
X222.75Y-33.16
X224.098Y-32.232
X225.2Y-26.91
X225.524Y-32.078
X226.1Y-32.86
X226.3Y-35.45
X226.55Y-30.31
X227.4Y-37.35
X231.8Y-35.85
X233.0Y-21.7
X233.4Y-31.5
X234.15Y-23.6
X235.7Y-240.6
X238.85Y-218.2
X240.45Y-215.75
X243.75Y-53.5
X246.5Y-50.5
X246.5Y-224.7
X248.85Y-224.5
X249.6Y-226.9
X253.55Y-33.2
X253.6Y-36.05
X254.4Y-71.5
X263.25Y-218.75
X265.25Y-220.75
X269.1Y-35.35
X269.5Y-80.2
X271.45Y-79.95
X271.5Y-128.5
X272.5Y-160.0
X273.1Y-164.35
X273.5Y-149.8
X273.55Y-152.25
X276.0Y-112.3
X276.7Y-152.0
X276.9Y-40.2
X277.1Y-164.45
X278.7Y-114.5
X279.9Y-43.9
X285.6Y-34.0
X286.15Y-72.45
T2
X289.05Y-65.68G85X287.95Y-65.68
G05
X289.05Y-74.32G85X287.95Y-74.32
G05
X292.98Y-65.68G85X292.38Y-65.68
G05
X292.98Y-74.32G85X292.38Y-74.32
G05
T0
M30
