%TF.GenerationSoftware,KiCad,Pcbnew,(6.0.4)*%
%TF.CreationDate,2022-05-26T23:50:18-07:00*%
%TF.ProjectId,bot_L,626f745f-4c2e-46b6-9963-61645f706362,rev?*%
%TF.SameCoordinates,Original*%
%TF.FileFunction,Soldermask,Top*%
%TF.FilePolarity,Negative*%
%FSLAX46Y46*%
G04 Gerber Fmt 4.6, Leading zero omitted, Abs format (unit mm)*
G04 Created by KiCad (PCBNEW (6.0.4)) date 2022-05-26 23:50:18*
%MOMM*%
%LPD*%
G01*
G04 APERTURE LIST*
%ADD10R,0.550000X0.550000*%
%ADD11C,2.000000*%
%ADD12C,2.200000*%
%ADD13C,0.650000*%
%ADD14O,2.100000X1.000000*%
%ADD15O,1.600000X1.000000*%
G04 APERTURE END LIST*
D10*
%TO.C,D6*%
X147525000Y-50475000D03*
X148475000Y-50475000D03*
X148475000Y-49525000D03*
X147525000Y-49525000D03*
%TD*%
D11*
%TO.C,TP15*%
X211525000Y-125000000D03*
%TD*%
%TO.C,TP11*%
X270000000Y-120000000D03*
%TD*%
%TO.C,TP19*%
X186000000Y-78000000D03*
%TD*%
%TO.C,TP25*%
X113400000Y-185000000D03*
%TD*%
%TO.C,TP9*%
X238000000Y-25500000D03*
%TD*%
%TO.C,TP1*%
X186000000Y-69400000D03*
%TD*%
%TO.C,TP17*%
X84000000Y-134600000D03*
%TD*%
D12*
%TO.C,H1*%
X23000000Y-23000000D03*
%TD*%
D11*
%TO.C,TP6*%
X202925000Y-125000000D03*
%TD*%
%TO.C,TP14*%
X234000000Y-240600000D03*
%TD*%
%TO.C,TP21*%
X284000000Y-34075000D03*
%TD*%
%TO.C,TP5*%
X263000000Y-70000000D03*
%TD*%
%TO.C,TP3*%
X164000000Y-61000000D03*
%TD*%
%TO.C,TP18*%
X164000000Y-69600000D03*
%TD*%
%TO.C,TP8*%
X84000000Y-126000000D03*
%TD*%
%TO.C,TP16*%
X125000000Y-127600000D03*
%TD*%
D10*
%TO.C,D12*%
X234000000Y-22450000D03*
X234950000Y-22450000D03*
X234950000Y-21500000D03*
X234000000Y-21500000D03*
%TD*%
D11*
%TO.C,TP12*%
X234000000Y-232000000D03*
%TD*%
D10*
%TO.C,D7*%
X197525000Y-60475000D03*
X198475000Y-60475000D03*
X198475000Y-59525000D03*
X197525000Y-59525000D03*
%TD*%
%TO.C,D11*%
X276025000Y-113975000D03*
X276975000Y-113975000D03*
X276975000Y-113025000D03*
X276025000Y-113025000D03*
%TD*%
D12*
%TO.C,H5*%
X292000000Y-247000000D03*
%TD*%
D11*
%TO.C,TP10*%
X277081118Y-166081118D03*
%TD*%
D10*
%TO.C,D9*%
X277000000Y-41950000D03*
X277950000Y-41950000D03*
X277950000Y-41000000D03*
X277000000Y-41000000D03*
%TD*%
%TO.C,D4*%
X117525000Y-150475000D03*
X118475000Y-150475000D03*
X118475000Y-149525000D03*
X117525000Y-149525000D03*
%TD*%
D11*
%TO.C,TP26*%
X122000000Y-185000000D03*
%TD*%
D10*
%TO.C,D5*%
X64525000Y-149475000D03*
X65475000Y-149475000D03*
X65475000Y-148525000D03*
X64525000Y-148525000D03*
%TD*%
D12*
%TO.C,H3*%
X24000000Y-246000000D03*
%TD*%
D11*
%TO.C,TP13*%
X271000000Y-160000000D03*
%TD*%
%TO.C,TP20*%
X220081119Y-46081119D03*
%TD*%
D12*
%TO.C,H2*%
X23000000Y-135000000D03*
%TD*%
%TO.C,H4*%
X180000000Y-247000000D03*
%TD*%
D11*
%TO.C,TP7*%
X125000000Y-119000000D03*
%TD*%
D10*
%TO.C,D1*%
X273525000Y-151475000D03*
X274475000Y-151475000D03*
X274475000Y-150525000D03*
X273525000Y-150525000D03*
%TD*%
%TO.C,D2*%
X246525000Y-226475000D03*
X247475000Y-226475000D03*
X247475000Y-225525000D03*
X246525000Y-225525000D03*
%TD*%
D12*
%TO.C,*%
X23000000Y-23000000D03*
%TD*%
D11*
%TO.C,TP23*%
X270000000Y-128600000D03*
%TD*%
%TO.C,TP24*%
X231918881Y-31581119D03*
%TD*%
D10*
%TO.C,D8*%
X201525000Y-35475000D03*
X202475000Y-35475000D03*
X202475000Y-34525000D03*
X201525000Y-34525000D03*
%TD*%
D11*
%TO.C,TP22*%
X254400000Y-70000000D03*
%TD*%
D10*
%TO.C,D3*%
X217525000Y-136475000D03*
X218475000Y-136475000D03*
X218475000Y-135525000D03*
X217525000Y-135525000D03*
%TD*%
%TO.C,D10*%
X269500000Y-82000000D03*
X270450000Y-82000000D03*
X270450000Y-81050000D03*
X269500000Y-81050000D03*
%TD*%
D11*
%TO.C,TP4*%
X214000000Y-40000000D03*
%TD*%
%TO.C,TP2*%
X284000000Y-25475000D03*
%TD*%
D13*
%TO.C,J1*%
X289030000Y-67110000D03*
X289030000Y-72890000D03*
D14*
X288500000Y-65680000D03*
D15*
X292680000Y-74320000D03*
X292680000Y-65680000D03*
D14*
X288500000Y-74320000D03*
%TD*%
M02*
