%TF.GenerationSoftware,KiCad,Pcbnew,(6.0.4)*%
%TF.CreationDate,2022-05-26T23:50:18-07:00*%
%TF.ProjectId,bot_L,626f745f-4c2e-46b6-9963-61645f706362,rev?*%
%TF.SameCoordinates,Original*%
%TF.FileFunction,Paste,Bot*%
%TF.FilePolarity,Positive*%
%FSLAX46Y46*%
G04 Gerber Fmt 4.6, Leading zero omitted, Abs format (unit mm)*
G04 Created by KiCad (PCBNEW (6.0.4)) date 2022-05-26 23:50:18*
%MOMM*%
%LPD*%
G01*
G04 APERTURE LIST*
G04 Aperture macros list*
%AMRoundRect*
0 Rectangle with rounded corners*
0 $1 Rounding radius*
0 $2 $3 $4 $5 $6 $7 $8 $9 X,Y pos of 4 corners*
0 Add a 4 corners polygon primitive as box body*
4,1,4,$2,$3,$4,$5,$6,$7,$8,$9,$2,$3,0*
0 Add four circle primitives for the rounded corners*
1,1,$1+$1,$2,$3*
1,1,$1+$1,$4,$5*
1,1,$1+$1,$6,$7*
1,1,$1+$1,$8,$9*
0 Add four rect primitives between the rounded corners*
20,1,$1+$1,$2,$3,$4,$5,0*
20,1,$1+$1,$4,$5,$6,$7,0*
20,1,$1+$1,$6,$7,$8,$9,0*
20,1,$1+$1,$8,$9,$2,$3,0*%
G04 Aperture macros list end*
%ADD10RoundRect,0.150000X0.875000X0.150000X-0.875000X0.150000X-0.875000X-0.150000X0.875000X-0.150000X0*%
%ADD11RoundRect,0.200000X0.275000X-0.200000X0.275000X0.200000X-0.275000X0.200000X-0.275000X-0.200000X0*%
%ADD12RoundRect,0.200000X0.200000X0.275000X-0.200000X0.275000X-0.200000X-0.275000X0.200000X-0.275000X0*%
%ADD13RoundRect,0.150000X-0.150000X0.512500X-0.150000X-0.512500X0.150000X-0.512500X0.150000X0.512500X0*%
%ADD14RoundRect,0.250000X0.475000X-0.250000X0.475000X0.250000X-0.475000X0.250000X-0.475000X-0.250000X0*%
%ADD15R,0.400000X1.825000*%
%ADD16R,1.200000X1.200000*%
%ADD17R,1.500000X1.200000*%
%ADD18R,0.400000X2.012500*%
%ADD19RoundRect,0.200000X-0.200000X-0.275000X0.200000X-0.275000X0.200000X0.275000X-0.200000X0.275000X0*%
%ADD20RoundRect,0.250000X0.250000X0.475000X-0.250000X0.475000X-0.250000X-0.475000X0.250000X-0.475000X0*%
%ADD21RoundRect,0.250000X-0.475000X0.250000X-0.475000X-0.250000X0.475000X-0.250000X0.475000X0.250000X0*%
%ADD22R,1.200000X0.900000*%
%ADD23R,1.450000X0.600000*%
%ADD24R,1.450000X0.300000*%
G04 APERTURE END LIST*
D10*
%TO.C,U2*%
X118900000Y-31555000D03*
X118900000Y-32825000D03*
X118900000Y-34095000D03*
X118900000Y-35365000D03*
X118900000Y-36635000D03*
X118900000Y-37905000D03*
X118900000Y-39175000D03*
X118900000Y-40445000D03*
X109600000Y-40445000D03*
X109600000Y-39175000D03*
X109600000Y-37905000D03*
X109600000Y-36635000D03*
X109600000Y-35365000D03*
X109600000Y-34095000D03*
X109600000Y-32825000D03*
X109600000Y-31555000D03*
%TD*%
D11*
%TO.C,R14*%
X175500000Y-35825000D03*
X175500000Y-34175000D03*
%TD*%
D12*
%TO.C,R15*%
X170325000Y-30000000D03*
X168675000Y-30000000D03*
%TD*%
D13*
%TO.C,U1*%
X171050000Y-36362500D03*
X172000000Y-36362500D03*
X172950000Y-36362500D03*
X172950000Y-38637500D03*
X171050000Y-38637500D03*
%TD*%
D14*
%TO.C,C5*%
X122000000Y-150950000D03*
X122000000Y-149050000D03*
%TD*%
%TO.C,C12*%
X223000000Y-136950000D03*
X223000000Y-135050000D03*
%TD*%
%TO.C,C9*%
X69000000Y-149950000D03*
X69000000Y-148050000D03*
%TD*%
D15*
%TO.C,P1*%
X227750000Y-28450000D03*
X226250000Y-28450000D03*
X225750000Y-28450000D03*
X225250000Y-28450000D03*
X224750000Y-28450000D03*
X223250000Y-28450000D03*
X222750000Y-28450000D03*
X222250000Y-28450000D03*
X223750000Y-28450000D03*
X224250000Y-28450000D03*
X226750000Y-28450000D03*
X227250000Y-28450000D03*
D16*
X226750000Y-23900000D03*
D17*
X220450000Y-23950000D03*
D16*
X223750000Y-25650000D03*
X223250000Y-23900000D03*
D18*
X221750000Y-28350000D03*
X228250000Y-28356250D03*
D16*
X226250000Y-25650000D03*
D17*
X229550000Y-26550000D03*
X229550000Y-23900000D03*
X220450000Y-26600000D03*
%TD*%
D19*
%TO.C,R19*%
X104000000Y-54250000D03*
X105650000Y-54250000D03*
%TD*%
D20*
%TO.C,C16*%
X105775000Y-32800000D03*
X103875000Y-32800000D03*
%TD*%
D12*
%TO.C,R21*%
X105650000Y-50800000D03*
X104000000Y-50800000D03*
%TD*%
%TO.C,R20*%
X105650000Y-65800000D03*
X104000000Y-65800000D03*
%TD*%
D10*
%TO.C,U3*%
X118900000Y-61555000D03*
X118900000Y-62825000D03*
X118900000Y-64095000D03*
X118900000Y-65365000D03*
X118900000Y-66635000D03*
X118900000Y-67905000D03*
X118900000Y-69175000D03*
X118900000Y-70445000D03*
X109600000Y-70445000D03*
X109600000Y-69175000D03*
X109600000Y-67905000D03*
X109600000Y-66635000D03*
X109600000Y-65365000D03*
X109600000Y-64095000D03*
X109600000Y-62825000D03*
X109600000Y-61555000D03*
%TD*%
D21*
%TO.C,C13*%
X173500000Y-41050000D03*
X173500000Y-42950000D03*
%TD*%
%TO.C,C14*%
X171000000Y-41050000D03*
X171000000Y-42950000D03*
%TD*%
D14*
%TO.C,C7*%
X273000000Y-82950000D03*
X273000000Y-81050000D03*
%TD*%
%TO.C,C8*%
X251000000Y-226950000D03*
X251000000Y-225050000D03*
%TD*%
%TO.C,C2*%
X280000000Y-114450000D03*
X280000000Y-112550000D03*
%TD*%
D12*
%TO.C,R7*%
X168825000Y-70000000D03*
X167175000Y-70000000D03*
%TD*%
D20*
%TO.C,C20*%
X105775000Y-63800000D03*
X103875000Y-63800000D03*
%TD*%
D12*
%TO.C,R10*%
X288825000Y-34000000D03*
X287175000Y-34000000D03*
%TD*%
D20*
%TO.C,C19*%
X105775000Y-46300000D03*
X103875000Y-46300000D03*
%TD*%
D12*
%TO.C,R5*%
X130825000Y-127000000D03*
X129175000Y-127000000D03*
%TD*%
D11*
%TO.C,R11*%
X254000000Y-75234092D03*
X254000000Y-73584092D03*
%TD*%
D12*
%TO.C,R9*%
X224825000Y-45000000D03*
X223175000Y-45000000D03*
%TD*%
D22*
%TO.C,D13*%
X172500000Y-33650000D03*
X172500000Y-30350000D03*
%TD*%
D19*
%TO.C,R24*%
X104000000Y-38250000D03*
X105650000Y-38250000D03*
%TD*%
D11*
%TO.C,R4*%
X211000000Y-129825000D03*
X211000000Y-128175000D03*
%TD*%
D23*
%TO.C,J1*%
X287585000Y-66750000D03*
X287585000Y-67550000D03*
D24*
X287585000Y-68750000D03*
X287585000Y-69750000D03*
X287585000Y-70250000D03*
X287585000Y-71250000D03*
D23*
X287585000Y-72450000D03*
X287585000Y-73250000D03*
X287585000Y-73250000D03*
X287585000Y-72450000D03*
D24*
X287585000Y-71750000D03*
X287585000Y-70750000D03*
X287585000Y-69250000D03*
X287585000Y-68250000D03*
D23*
X287585000Y-67550000D03*
X287585000Y-66750000D03*
%TD*%
D14*
%TO.C,C10*%
X280000000Y-42900000D03*
X280000000Y-41000000D03*
%TD*%
D10*
%TO.C,U4*%
X118900000Y-46555000D03*
X118900000Y-47825000D03*
X118900000Y-49095000D03*
X118900000Y-50365000D03*
X118900000Y-51635000D03*
X118900000Y-52905000D03*
X118900000Y-54175000D03*
X118900000Y-55445000D03*
X109600000Y-55445000D03*
X109600000Y-54175000D03*
X109600000Y-52905000D03*
X109600000Y-51635000D03*
X109600000Y-50365000D03*
X109600000Y-49095000D03*
X109600000Y-47825000D03*
X109600000Y-46555000D03*
%TD*%
D12*
%TO.C,R8*%
X190825000Y-78400000D03*
X189175000Y-78400000D03*
%TD*%
D14*
%TO.C,C6*%
X205950000Y-35950000D03*
X205950000Y-34050000D03*
%TD*%
D19*
%TO.C,R18*%
X104000000Y-52500000D03*
X105650000Y-52500000D03*
%TD*%
%TO.C,R16*%
X289675000Y-77000000D03*
X291325000Y-77000000D03*
%TD*%
D12*
%TO.C,R3*%
X240825000Y-241000000D03*
X239175000Y-241000000D03*
%TD*%
%TO.C,R17*%
X105650000Y-34800000D03*
X104000000Y-34800000D03*
%TD*%
D19*
%TO.C,R23*%
X104000000Y-36500000D03*
X105650000Y-36500000D03*
%TD*%
D12*
%TO.C,R6*%
X89825000Y-135000000D03*
X88175000Y-135000000D03*
%TD*%
D20*
%TO.C,C18*%
X105775000Y-48800000D03*
X103875000Y-48800000D03*
%TD*%
D12*
%TO.C,R13*%
X236825000Y-32000000D03*
X235175000Y-32000000D03*
%TD*%
%TO.C,R2*%
X275825000Y-160000000D03*
X274175000Y-160000000D03*
%TD*%
D19*
%TO.C,R22*%
X104000000Y-67500000D03*
X105650000Y-67500000D03*
%TD*%
D14*
%TO.C,C4*%
X152000000Y-50950000D03*
X152000000Y-49050000D03*
%TD*%
%TO.C,C11*%
X237000000Y-22900000D03*
X237000000Y-21000000D03*
%TD*%
%TO.C,C3*%
X277950000Y-151950000D03*
X277950000Y-150050000D03*
%TD*%
%TO.C,C15*%
X168500000Y-33950000D03*
X168500000Y-32050000D03*
%TD*%
D19*
%TO.C,R25*%
X104000000Y-69250000D03*
X105650000Y-69250000D03*
%TD*%
D12*
%TO.C,R12*%
X275422730Y-128500000D03*
X273772730Y-128500000D03*
%TD*%
D14*
%TO.C,C1*%
X202000000Y-60950000D03*
X202000000Y-59050000D03*
%TD*%
D11*
%TO.C,R1*%
X217500000Y-26885000D03*
X217500000Y-25235000D03*
%TD*%
D20*
%TO.C,C17*%
X105775000Y-30300000D03*
X103875000Y-30300000D03*
%TD*%
%TO.C,C21*%
X105775000Y-61300000D03*
X103875000Y-61300000D03*
%TD*%
M02*
