%TF.GenerationSoftware,KiCad,Pcbnew,(6.0.4)*%
%TF.CreationDate,2022-05-26T23:50:18-07:00*%
%TF.ProjectId,bot_L,626f745f-4c2e-46b6-9963-61645f706362,rev?*%
%TF.SameCoordinates,Original*%
%TF.FileFunction,Legend,Bot*%
%TF.FilePolarity,Positive*%
%FSLAX46Y46*%
G04 Gerber Fmt 4.6, Leading zero omitted, Abs format (unit mm)*
G04 Created by KiCad (PCBNEW (6.0.4)) date 2022-05-26 23:50:18*
%MOMM*%
%LPD*%
G01*
G04 APERTURE LIST*
G04 Aperture macros list*
%AMRoundRect*
0 Rectangle with rounded corners*
0 $1 Rounding radius*
0 $2 $3 $4 $5 $6 $7 $8 $9 X,Y pos of 4 corners*
0 Add a 4 corners polygon primitive as box body*
4,1,4,$2,$3,$4,$5,$6,$7,$8,$9,$2,$3,0*
0 Add four circle primitives for the rounded corners*
1,1,$1+$1,$2,$3*
1,1,$1+$1,$4,$5*
1,1,$1+$1,$6,$7*
1,1,$1+$1,$8,$9*
0 Add four rect primitives between the rounded corners*
20,1,$1+$1,$2,$3,$4,$5,0*
20,1,$1+$1,$4,$5,$6,$7,0*
20,1,$1+$1,$6,$7,$8,$9,0*
20,1,$1+$1,$8,$9,$2,$3,0*%
G04 Aperture macros list end*
%ADD10C,0.150000*%
%ADD11C,0.062500*%
%ADD12C,0.120000*%
%ADD13C,0.010000*%
%ADD14C,2.200000*%
%ADD15RoundRect,0.150000X0.875000X0.150000X-0.875000X0.150000X-0.875000X-0.150000X0.875000X-0.150000X0*%
%ADD16RoundRect,0.200000X0.275000X-0.200000X0.275000X0.200000X-0.275000X0.200000X-0.275000X-0.200000X0*%
%ADD17RoundRect,0.200000X0.200000X0.275000X-0.200000X0.275000X-0.200000X-0.275000X0.200000X-0.275000X0*%
%ADD18RoundRect,0.150000X-0.150000X0.512500X-0.150000X-0.512500X0.150000X-0.512500X0.150000X0.512500X0*%
%ADD19RoundRect,0.250000X0.475000X-0.250000X0.475000X0.250000X-0.475000X0.250000X-0.475000X-0.250000X0*%
%ADD20R,0.400000X1.825000*%
%ADD21R,1.200000X1.200000*%
%ADD22R,1.500000X1.200000*%
%ADD23R,0.400000X2.012500*%
%ADD24RoundRect,0.200000X-0.200000X-0.275000X0.200000X-0.275000X0.200000X0.275000X-0.200000X0.275000X0*%
%ADD25RoundRect,0.250000X0.250000X0.475000X-0.250000X0.475000X-0.250000X-0.475000X0.250000X-0.475000X0*%
%ADD26RoundRect,0.250000X-0.475000X0.250000X-0.475000X-0.250000X0.475000X-0.250000X0.475000X0.250000X0*%
%ADD27R,1.200000X0.900000*%
%ADD28C,0.650000*%
%ADD29R,1.450000X0.600000*%
%ADD30R,1.450000X0.300000*%
%ADD31O,2.100000X1.000000*%
%ADD32O,1.600000X1.000000*%
G04 APERTURE END LIST*
D10*
X27880952Y-23047619D02*
X27880952Y-22333333D01*
X27833333Y-22190476D01*
X27738095Y-22095238D01*
X27595238Y-22047619D01*
X27500000Y-22047619D01*
X28833333Y-22047619D02*
X28357142Y-22047619D01*
X28357142Y-23047619D01*
X29738095Y-22142857D02*
X29690476Y-22095238D01*
X29547619Y-22047619D01*
X29452380Y-22047619D01*
X29309523Y-22095238D01*
X29214285Y-22190476D01*
X29166666Y-22285714D01*
X29119047Y-22476190D01*
X29119047Y-22619047D01*
X29166666Y-22809523D01*
X29214285Y-22904761D01*
X29309523Y-23000000D01*
X29452380Y-23047619D01*
X29547619Y-23047619D01*
X29690476Y-23000000D01*
X29738095Y-22952380D01*
X30452380Y-23047619D02*
X30452380Y-22333333D01*
X30404761Y-22190476D01*
X30309523Y-22095238D01*
X30166666Y-22047619D01*
X30071428Y-22047619D01*
X31404761Y-22047619D02*
X30928571Y-22047619D01*
X30928571Y-23047619D01*
X32309523Y-22142857D02*
X32261904Y-22095238D01*
X32119047Y-22047619D01*
X32023809Y-22047619D01*
X31880952Y-22095238D01*
X31785714Y-22190476D01*
X31738095Y-22285714D01*
X31690476Y-22476190D01*
X31690476Y-22619047D01*
X31738095Y-22809523D01*
X31785714Y-22904761D01*
X31880952Y-23000000D01*
X32023809Y-23047619D01*
X32119047Y-23047619D01*
X32261904Y-23000000D01*
X32309523Y-22952380D01*
X33023809Y-23047619D02*
X33023809Y-22333333D01*
X32976190Y-22190476D01*
X32880952Y-22095238D01*
X32738095Y-22047619D01*
X32642857Y-22047619D01*
X33976190Y-22047619D02*
X33500000Y-22047619D01*
X33500000Y-23047619D01*
X34880952Y-22142857D02*
X34833333Y-22095238D01*
X34690476Y-22047619D01*
X34595238Y-22047619D01*
X34452380Y-22095238D01*
X34357142Y-22190476D01*
X34309523Y-22285714D01*
X34261904Y-22476190D01*
X34261904Y-22619047D01*
X34309523Y-22809523D01*
X34357142Y-22904761D01*
X34452380Y-23000000D01*
X34595238Y-23047619D01*
X34690476Y-23047619D01*
X34833333Y-23000000D01*
X34880952Y-22952380D01*
X35595238Y-23047619D02*
X35595238Y-22333333D01*
X35547619Y-22190476D01*
X35452380Y-22095238D01*
X35309523Y-22047619D01*
X35214285Y-22047619D01*
X36547619Y-22047619D02*
X36071428Y-22047619D01*
X36071428Y-23047619D01*
X37452380Y-22142857D02*
X37404761Y-22095238D01*
X37261904Y-22047619D01*
X37166666Y-22047619D01*
X37023809Y-22095238D01*
X36928571Y-22190476D01*
X36880952Y-22285714D01*
X36833333Y-22476190D01*
X36833333Y-22619047D01*
X36880952Y-22809523D01*
X36928571Y-22904761D01*
X37023809Y-23000000D01*
X37166666Y-23047619D01*
X37261904Y-23047619D01*
X37404761Y-23000000D01*
X37452380Y-22952380D01*
X293750000Y-96500000D02*
X287000000Y-96500000D01*
X239317662Y-57682338D02*
G75*
G03*
X239317662Y-57682338I-1500000J0D01*
G01*
X293750000Y-96500000D02*
X293750000Y-80000000D01*
X288600000Y-80000000D02*
X288600000Y-96500000D01*
X293750000Y-80000000D02*
X287000000Y-80000000D01*
X215500000Y-156000000D02*
G75*
G03*
X215500000Y-156000000I-1500000J0D01*
G01*
X216000000Y-75100000D02*
G75*
G03*
X216000000Y-75100000I-1500000J0D01*
G01*
X268000000Y-145500000D02*
G75*
G03*
X268000000Y-145500000I-1500000J0D01*
G01*
X243500000Y-125000000D02*
G75*
G03*
X243500000Y-125000000I-1500000J0D01*
G01*
X172500000Y-115000000D02*
G75*
G03*
X172500000Y-115000000I-1500000J0D01*
G01*
X172500000Y-100600000D02*
G75*
G03*
X172500000Y-100600000I-1500000J0D01*
G01*
X88400000Y-64000000D02*
G75*
G03*
X88400000Y-64000000I-1500000J0D01*
G01*
X201100000Y-156000000D02*
G75*
G03*
X201100000Y-156000000I-1500000J0D01*
G01*
X249500000Y-47500000D02*
G75*
G03*
X249500000Y-47500000I-1500000J0D01*
G01*
X274000000Y-188500000D02*
G75*
G03*
X274000000Y-188500000I-1500000J0D01*
G01*
X145600000Y-38500000D02*
G75*
G03*
X145600000Y-38500000I-1500000J0D01*
G01*
X74000000Y-64000000D02*
G75*
G03*
X74000000Y-64000000I-1500000J0D01*
G01*
X243500000Y-110600000D02*
G75*
G03*
X243500000Y-110600000I-1500000J0D01*
G01*
X198950000Y-27800000D02*
X215450000Y-27800000D01*
X257817662Y-135317662D02*
G75*
G03*
X257817662Y-135317662I-1500000J0D01*
G01*
X216000000Y-89500000D02*
G75*
G03*
X216000000Y-89500000I-1500000J0D01*
G01*
X198950000Y-26200000D02*
X215450000Y-26200000D01*
X198950000Y-21050000D02*
X198950000Y-27800000D01*
X165500000Y-231500000D02*
G75*
G03*
X165500000Y-231500000I-1500000J0D01*
G01*
X175000000Y-199000000D02*
G75*
G03*
X175000000Y-199000000I-1500000J0D01*
G01*
X266600000Y-96500000D02*
G75*
G03*
X266600000Y-96500000I-1500000J0D01*
G01*
X160600000Y-199000000D02*
G75*
G03*
X160600000Y-199000000I-1500000J0D01*
G01*
X259600000Y-188500000D02*
G75*
G03*
X259600000Y-188500000I-1500000J0D01*
G01*
X281000000Y-96500000D02*
G75*
G03*
X281000000Y-96500000I-1500000J0D01*
G01*
X291500000Y-60000000D02*
G75*
G03*
X291500000Y-60000000I-1500000J0D01*
G01*
X287000000Y-80000000D02*
X287000000Y-96500000D01*
X160000000Y-38500000D02*
G75*
G03*
X160000000Y-38500000I-1500000J0D01*
G01*
X215450000Y-21050000D02*
X198950000Y-21050000D01*
X151100000Y-231500000D02*
G75*
G03*
X151100000Y-231500000I-1500000J0D01*
G01*
X215450000Y-21050000D02*
X215450000Y-27800000D01*
X287287380Y-81964285D02*
X288096904Y-81964285D01*
X288192142Y-82011904D01*
X288239761Y-82059523D01*
X288287380Y-82154761D01*
X288287380Y-82345238D01*
X288239761Y-82440476D01*
X288192142Y-82488095D01*
X288096904Y-82535714D01*
X287287380Y-82535714D01*
X288239761Y-82964285D02*
X288287380Y-83107142D01*
X288287380Y-83345238D01*
X288239761Y-83440476D01*
X288192142Y-83488095D01*
X288096904Y-83535714D01*
X288001666Y-83535714D01*
X287906428Y-83488095D01*
X287858809Y-83440476D01*
X287811190Y-83345238D01*
X287763571Y-83154761D01*
X287715952Y-83059523D01*
X287668333Y-83011904D01*
X287573095Y-82964285D01*
X287477857Y-82964285D01*
X287382619Y-83011904D01*
X287335000Y-83059523D01*
X287287380Y-83154761D01*
X287287380Y-83392857D01*
X287335000Y-83535714D01*
X287763571Y-84297619D02*
X287811190Y-84440476D01*
X287858809Y-84488095D01*
X287954047Y-84535714D01*
X288096904Y-84535714D01*
X288192142Y-84488095D01*
X288239761Y-84440476D01*
X288287380Y-84345238D01*
X288287380Y-83964285D01*
X287287380Y-83964285D01*
X287287380Y-84297619D01*
X287335000Y-84392857D01*
X287382619Y-84440476D01*
X287477857Y-84488095D01*
X287573095Y-84488095D01*
X287668333Y-84440476D01*
X287715952Y-84392857D01*
X287763571Y-84297619D01*
X287763571Y-83964285D01*
X287620714Y-85726190D02*
X288287380Y-85726190D01*
X287715952Y-85726190D02*
X287668333Y-85773809D01*
X287620714Y-85869047D01*
X287620714Y-86011904D01*
X287668333Y-86107142D01*
X287763571Y-86154761D01*
X288287380Y-86154761D01*
X288287380Y-86773809D02*
X288239761Y-86678571D01*
X288192142Y-86630952D01*
X288096904Y-86583333D01*
X287811190Y-86583333D01*
X287715952Y-86630952D01*
X287668333Y-86678571D01*
X287620714Y-86773809D01*
X287620714Y-86916666D01*
X287668333Y-87011904D01*
X287715952Y-87059523D01*
X287811190Y-87107142D01*
X288096904Y-87107142D01*
X288192142Y-87059523D01*
X288239761Y-87011904D01*
X288287380Y-86916666D01*
X288287380Y-86773809D01*
X287620714Y-87392857D02*
X287620714Y-87773809D01*
X287287380Y-87535714D02*
X288144523Y-87535714D01*
X288239761Y-87583333D01*
X288287380Y-87678571D01*
X288287380Y-87773809D01*
X287620714Y-88726190D02*
X287620714Y-89107142D01*
X287287380Y-88869047D02*
X288144523Y-88869047D01*
X288239761Y-88916666D01*
X288287380Y-89011904D01*
X288287380Y-89107142D01*
X288287380Y-89583333D02*
X288239761Y-89488095D01*
X288192142Y-89440476D01*
X288096904Y-89392857D01*
X287811190Y-89392857D01*
X287715952Y-89440476D01*
X287668333Y-89488095D01*
X287620714Y-89583333D01*
X287620714Y-89726190D01*
X287668333Y-89821428D01*
X287715952Y-89869047D01*
X287811190Y-89916666D01*
X288096904Y-89916666D01*
X288192142Y-89869047D01*
X288239761Y-89821428D01*
X288287380Y-89726190D01*
X288287380Y-89583333D01*
X288239761Y-91059523D02*
X288287380Y-91154761D01*
X288287380Y-91345238D01*
X288239761Y-91440476D01*
X288144523Y-91488095D01*
X288096904Y-91488095D01*
X288001666Y-91440476D01*
X287954047Y-91345238D01*
X287954047Y-91202380D01*
X287906428Y-91107142D01*
X287811190Y-91059523D01*
X287763571Y-91059523D01*
X287668333Y-91107142D01*
X287620714Y-91202380D01*
X287620714Y-91345238D01*
X287668333Y-91440476D01*
X287620714Y-91916666D02*
X288620714Y-91916666D01*
X287668333Y-91916666D02*
X287620714Y-92011904D01*
X287620714Y-92202380D01*
X287668333Y-92297619D01*
X287715952Y-92345238D01*
X287811190Y-92392857D01*
X288096904Y-92392857D01*
X288192142Y-92345238D01*
X288239761Y-92297619D01*
X288287380Y-92202380D01*
X288287380Y-92011904D01*
X288239761Y-91916666D01*
X288239761Y-93202380D02*
X288287380Y-93107142D01*
X288287380Y-92916666D01*
X288239761Y-92821428D01*
X288144523Y-92773809D01*
X287763571Y-92773809D01*
X287668333Y-92821428D01*
X287620714Y-92916666D01*
X287620714Y-93107142D01*
X287668333Y-93202380D01*
X287763571Y-93250000D01*
X287858809Y-93250000D01*
X287954047Y-92773809D01*
X288239761Y-94107142D02*
X288287380Y-94011904D01*
X288287380Y-93821428D01*
X288239761Y-93726190D01*
X288192142Y-93678571D01*
X288096904Y-93630952D01*
X287811190Y-93630952D01*
X287715952Y-93678571D01*
X287668333Y-93726190D01*
X287620714Y-93821428D01*
X287620714Y-94011904D01*
X287668333Y-94107142D01*
X288192142Y-94535714D02*
X288239761Y-94583333D01*
X288287380Y-94535714D01*
X288239761Y-94488095D01*
X288192142Y-94535714D01*
X288287380Y-94535714D01*
X287668333Y-94535714D02*
X287715952Y-94583333D01*
X287763571Y-94535714D01*
X287715952Y-94488095D01*
X287668333Y-94535714D01*
X287763571Y-94535714D01*
X289897380Y-81916666D02*
X288897380Y-81916666D01*
X288897380Y-82154761D01*
X288945000Y-82297619D01*
X289040238Y-82392857D01*
X289135476Y-82440476D01*
X289325952Y-82488095D01*
X289468809Y-82488095D01*
X289659285Y-82440476D01*
X289754523Y-82392857D01*
X289849761Y-82297619D01*
X289897380Y-82154761D01*
X289897380Y-81916666D01*
X289897380Y-83059523D02*
X289849761Y-82964285D01*
X289802142Y-82916666D01*
X289706904Y-82869047D01*
X289421190Y-82869047D01*
X289325952Y-82916666D01*
X289278333Y-82964285D01*
X289230714Y-83059523D01*
X289230714Y-83202380D01*
X289278333Y-83297619D01*
X289325952Y-83345238D01*
X289421190Y-83392857D01*
X289706904Y-83392857D01*
X289802142Y-83345238D01*
X289849761Y-83297619D01*
X289897380Y-83202380D01*
X289897380Y-83059523D01*
X289897380Y-84583333D02*
X288897380Y-84583333D01*
X289897380Y-85154761D01*
X288897380Y-85154761D01*
X288897380Y-85821428D02*
X288897380Y-86011904D01*
X288945000Y-86107142D01*
X289040238Y-86202380D01*
X289230714Y-86250000D01*
X289564047Y-86250000D01*
X289754523Y-86202380D01*
X289849761Y-86107142D01*
X289897380Y-86011904D01*
X289897380Y-85821428D01*
X289849761Y-85726190D01*
X289754523Y-85630952D01*
X289564047Y-85583333D01*
X289230714Y-85583333D01*
X289040238Y-85630952D01*
X288945000Y-85726190D01*
X288897380Y-85821428D01*
X288897380Y-86535714D02*
X288897380Y-87107142D01*
X289897380Y-86821428D02*
X288897380Y-86821428D01*
X289230714Y-88202380D02*
X290230714Y-88202380D01*
X289278333Y-88202380D02*
X289230714Y-88297619D01*
X289230714Y-88488095D01*
X289278333Y-88583333D01*
X289325952Y-88630952D01*
X289421190Y-88678571D01*
X289706904Y-88678571D01*
X289802142Y-88630952D01*
X289849761Y-88583333D01*
X289897380Y-88488095D01*
X289897380Y-88297619D01*
X289849761Y-88202380D01*
X289897380Y-89250000D02*
X289849761Y-89154761D01*
X289754523Y-89107142D01*
X288897380Y-89107142D01*
X289230714Y-90059523D02*
X289897380Y-90059523D01*
X289230714Y-89630952D02*
X289754523Y-89630952D01*
X289849761Y-89678571D01*
X289897380Y-89773809D01*
X289897380Y-89916666D01*
X289849761Y-90011904D01*
X289802142Y-90059523D01*
X289230714Y-90964285D02*
X290040238Y-90964285D01*
X290135476Y-90916666D01*
X290183095Y-90869047D01*
X290230714Y-90773809D01*
X290230714Y-90630952D01*
X290183095Y-90535714D01*
X289849761Y-90964285D02*
X289897380Y-90869047D01*
X289897380Y-90678571D01*
X289849761Y-90583333D01*
X289802142Y-90535714D01*
X289706904Y-90488095D01*
X289421190Y-90488095D01*
X289325952Y-90535714D01*
X289278333Y-90583333D01*
X289230714Y-90678571D01*
X289230714Y-90869047D01*
X289278333Y-90964285D01*
X289897380Y-92202380D02*
X289230714Y-92202380D01*
X288897380Y-92202380D02*
X288945000Y-92154761D01*
X288992619Y-92202380D01*
X288945000Y-92250000D01*
X288897380Y-92202380D01*
X288992619Y-92202380D01*
X289230714Y-92678571D02*
X289897380Y-92678571D01*
X289325952Y-92678571D02*
X289278333Y-92726190D01*
X289230714Y-92821428D01*
X289230714Y-92964285D01*
X289278333Y-93059523D01*
X289373571Y-93107142D01*
X289897380Y-93107142D01*
X289230714Y-93440476D02*
X289230714Y-93821428D01*
X288897380Y-93583333D02*
X289754523Y-93583333D01*
X289849761Y-93630952D01*
X289897380Y-93726190D01*
X289897380Y-93821428D01*
X289897380Y-94297619D02*
X289849761Y-94202380D01*
X289802142Y-94154761D01*
X289706904Y-94107142D01*
X289421190Y-94107142D01*
X289325952Y-94154761D01*
X289278333Y-94202380D01*
X289230714Y-94297619D01*
X289230714Y-94440476D01*
X289278333Y-94535714D01*
X289325952Y-94583333D01*
X289421190Y-94630952D01*
X289706904Y-94630952D01*
X289802142Y-94583333D01*
X289849761Y-94535714D01*
X289897380Y-94440476D01*
X289897380Y-94297619D01*
X291507380Y-82940476D02*
X290983571Y-82940476D01*
X290888333Y-82892857D01*
X290840714Y-82797619D01*
X290840714Y-82607142D01*
X290888333Y-82511904D01*
X291459761Y-82940476D02*
X291507380Y-82845238D01*
X291507380Y-82607142D01*
X291459761Y-82511904D01*
X291364523Y-82464285D01*
X291269285Y-82464285D01*
X291174047Y-82511904D01*
X291126428Y-82607142D01*
X291126428Y-82845238D01*
X291078809Y-82940476D01*
X290840714Y-83416666D02*
X291507380Y-83416666D01*
X290935952Y-83416666D02*
X290888333Y-83464285D01*
X290840714Y-83559523D01*
X290840714Y-83702380D01*
X290888333Y-83797619D01*
X290983571Y-83845238D01*
X291507380Y-83845238D01*
X290840714Y-84226190D02*
X291507380Y-84464285D01*
X290840714Y-84702380D02*
X291507380Y-84464285D01*
X291745476Y-84369047D01*
X291793095Y-84321428D01*
X291840714Y-84226190D01*
X290840714Y-84940476D02*
X290840714Y-85321428D01*
X290507380Y-85083333D02*
X291364523Y-85083333D01*
X291459761Y-85130952D01*
X291507380Y-85226190D01*
X291507380Y-85321428D01*
X291507380Y-85654761D02*
X290507380Y-85654761D01*
X291507380Y-86083333D02*
X290983571Y-86083333D01*
X290888333Y-86035714D01*
X290840714Y-85940476D01*
X290840714Y-85797619D01*
X290888333Y-85702380D01*
X290935952Y-85654761D01*
X291507380Y-86559523D02*
X290840714Y-86559523D01*
X290507380Y-86559523D02*
X290555000Y-86511904D01*
X290602619Y-86559523D01*
X290555000Y-86607142D01*
X290507380Y-86559523D01*
X290602619Y-86559523D01*
X290840714Y-87035714D02*
X291507380Y-87035714D01*
X290935952Y-87035714D02*
X290888333Y-87083333D01*
X290840714Y-87178571D01*
X290840714Y-87321428D01*
X290888333Y-87416666D01*
X290983571Y-87464285D01*
X291507380Y-87464285D01*
X290840714Y-88369047D02*
X291650238Y-88369047D01*
X291745476Y-88321428D01*
X291793095Y-88273809D01*
X291840714Y-88178571D01*
X291840714Y-88035714D01*
X291793095Y-87940476D01*
X291459761Y-88369047D02*
X291507380Y-88273809D01*
X291507380Y-88083333D01*
X291459761Y-87988095D01*
X291412142Y-87940476D01*
X291316904Y-87892857D01*
X291031190Y-87892857D01*
X290935952Y-87940476D01*
X290888333Y-87988095D01*
X290840714Y-88083333D01*
X290840714Y-88273809D01*
X290888333Y-88369047D01*
X291459761Y-89988095D02*
X291507380Y-89892857D01*
X291507380Y-89702380D01*
X291459761Y-89607142D01*
X291364523Y-89559523D01*
X290983571Y-89559523D01*
X290888333Y-89607142D01*
X290840714Y-89702380D01*
X290840714Y-89892857D01*
X290888333Y-89988095D01*
X290983571Y-90035714D01*
X291078809Y-90035714D01*
X291174047Y-89559523D01*
X291507380Y-90369047D02*
X290840714Y-90892857D01*
X290840714Y-90369047D02*
X291507380Y-90892857D01*
X291459761Y-91702380D02*
X291507380Y-91607142D01*
X291507380Y-91416666D01*
X291459761Y-91321428D01*
X291412142Y-91273809D01*
X291316904Y-91226190D01*
X291031190Y-91226190D01*
X290935952Y-91273809D01*
X290888333Y-91321428D01*
X290840714Y-91416666D01*
X290840714Y-91607142D01*
X290888333Y-91702380D01*
X291459761Y-92511904D02*
X291507380Y-92416666D01*
X291507380Y-92226190D01*
X291459761Y-92130952D01*
X291364523Y-92083333D01*
X290983571Y-92083333D01*
X290888333Y-92130952D01*
X290840714Y-92226190D01*
X290840714Y-92416666D01*
X290888333Y-92511904D01*
X290983571Y-92559523D01*
X291078809Y-92559523D01*
X291174047Y-92083333D01*
X290840714Y-92988095D02*
X291840714Y-92988095D01*
X290888333Y-92988095D02*
X290840714Y-93083333D01*
X290840714Y-93273809D01*
X290888333Y-93369047D01*
X290935952Y-93416666D01*
X291031190Y-93464285D01*
X291316904Y-93464285D01*
X291412142Y-93416666D01*
X291459761Y-93369047D01*
X291507380Y-93273809D01*
X291507380Y-93083333D01*
X291459761Y-92988095D01*
X290840714Y-93749999D02*
X290840714Y-94130952D01*
X290507380Y-93892857D02*
X291364523Y-93892857D01*
X291459761Y-93940476D01*
X291507380Y-94035714D01*
X291507380Y-94130952D01*
X293069761Y-80892857D02*
X293117380Y-80797619D01*
X293117380Y-80607142D01*
X293069761Y-80511904D01*
X293022142Y-80464285D01*
X292926904Y-80416666D01*
X292641190Y-80416666D01*
X292545952Y-80464285D01*
X292498333Y-80511904D01*
X292450714Y-80607142D01*
X292450714Y-80797619D01*
X292498333Y-80892857D01*
X293117380Y-81464285D02*
X293069761Y-81369047D01*
X293022142Y-81321428D01*
X292926904Y-81273809D01*
X292641190Y-81273809D01*
X292545952Y-81321428D01*
X292498333Y-81369047D01*
X292450714Y-81464285D01*
X292450714Y-81607142D01*
X292498333Y-81702380D01*
X292545952Y-81750000D01*
X292641190Y-81797619D01*
X292926904Y-81797619D01*
X293022142Y-81750000D01*
X293069761Y-81702380D01*
X293117380Y-81607142D01*
X293117380Y-81464285D01*
X293117380Y-82226190D02*
X292450714Y-82226190D01*
X292641190Y-82226190D02*
X292545952Y-82273809D01*
X292498333Y-82321428D01*
X292450714Y-82416666D01*
X292450714Y-82511904D01*
X293117380Y-82845238D02*
X292450714Y-82845238D01*
X292641190Y-82845238D02*
X292545952Y-82892857D01*
X292498333Y-82940476D01*
X292450714Y-83035714D01*
X292450714Y-83130952D01*
X293069761Y-83845238D02*
X293117380Y-83750000D01*
X293117380Y-83559523D01*
X293069761Y-83464285D01*
X292974523Y-83416666D01*
X292593571Y-83416666D01*
X292498333Y-83464285D01*
X292450714Y-83559523D01*
X292450714Y-83750000D01*
X292498333Y-83845238D01*
X292593571Y-83892857D01*
X292688809Y-83892857D01*
X292784047Y-83416666D01*
X293069761Y-84273809D02*
X293117380Y-84369047D01*
X293117380Y-84559523D01*
X293069761Y-84654761D01*
X292974523Y-84702380D01*
X292926904Y-84702380D01*
X292831666Y-84654761D01*
X292784047Y-84559523D01*
X292784047Y-84416666D01*
X292736428Y-84321428D01*
X292641190Y-84273809D01*
X292593571Y-84273809D01*
X292498333Y-84321428D01*
X292450714Y-84416666D01*
X292450714Y-84559523D01*
X292498333Y-84654761D01*
X292450714Y-85130952D02*
X293450714Y-85130952D01*
X292498333Y-85130952D02*
X292450714Y-85226190D01*
X292450714Y-85416666D01*
X292498333Y-85511904D01*
X292545952Y-85559523D01*
X292641190Y-85607142D01*
X292926904Y-85607142D01*
X293022142Y-85559523D01*
X293069761Y-85511904D01*
X293117380Y-85416666D01*
X293117380Y-85226190D01*
X293069761Y-85130952D01*
X293117380Y-86178571D02*
X293069761Y-86083333D01*
X293022142Y-86035714D01*
X292926904Y-85988095D01*
X292641190Y-85988095D01*
X292545952Y-86035714D01*
X292498333Y-86083333D01*
X292450714Y-86178571D01*
X292450714Y-86321428D01*
X292498333Y-86416666D01*
X292545952Y-86464285D01*
X292641190Y-86511904D01*
X292926904Y-86511904D01*
X293022142Y-86464285D01*
X293069761Y-86416666D01*
X293117380Y-86321428D01*
X293117380Y-86178571D01*
X292450714Y-86940476D02*
X293117380Y-86940476D01*
X292545952Y-86940476D02*
X292498333Y-86988095D01*
X292450714Y-87083333D01*
X292450714Y-87226190D01*
X292498333Y-87321428D01*
X292593571Y-87369047D01*
X293117380Y-87369047D01*
X293117380Y-88273809D02*
X292117380Y-88273809D01*
X293069761Y-88273809D02*
X293117380Y-88178571D01*
X293117380Y-87988095D01*
X293069761Y-87892857D01*
X293022142Y-87845238D01*
X292926904Y-87797619D01*
X292641190Y-87797619D01*
X292545952Y-87845238D01*
X292498333Y-87892857D01*
X292450714Y-87988095D01*
X292450714Y-88178571D01*
X292498333Y-88273809D01*
X293117380Y-88750000D02*
X292450714Y-88750000D01*
X292117380Y-88750000D02*
X292165000Y-88702380D01*
X292212619Y-88750000D01*
X292165000Y-88797619D01*
X292117380Y-88750000D01*
X292212619Y-88750000D01*
X292450714Y-89226190D02*
X293117380Y-89226190D01*
X292545952Y-89226190D02*
X292498333Y-89273809D01*
X292450714Y-89369047D01*
X292450714Y-89511904D01*
X292498333Y-89607142D01*
X292593571Y-89654761D01*
X293117380Y-89654761D01*
X292450714Y-90559523D02*
X293260238Y-90559523D01*
X293355476Y-90511904D01*
X293403095Y-90464285D01*
X293450714Y-90369047D01*
X293450714Y-90226190D01*
X293403095Y-90130952D01*
X293069761Y-90559523D02*
X293117380Y-90464285D01*
X293117380Y-90273809D01*
X293069761Y-90178571D01*
X293022142Y-90130952D01*
X292926904Y-90083333D01*
X292641190Y-90083333D01*
X292545952Y-90130952D01*
X292498333Y-90178571D01*
X292450714Y-90273809D01*
X292450714Y-90464285D01*
X292498333Y-90559523D01*
X293117380Y-91797619D02*
X292117380Y-91797619D01*
X292498333Y-91797619D02*
X292450714Y-91892857D01*
X292450714Y-92083333D01*
X292498333Y-92178571D01*
X292545952Y-92226190D01*
X292641190Y-92273809D01*
X292926904Y-92273809D01*
X293022142Y-92226190D01*
X293069761Y-92178571D01*
X293117380Y-92083333D01*
X293117380Y-91892857D01*
X293069761Y-91797619D01*
X293117380Y-92845238D02*
X293069761Y-92750000D01*
X293022142Y-92702380D01*
X292926904Y-92654761D01*
X292641190Y-92654761D01*
X292545952Y-92702380D01*
X292498333Y-92750000D01*
X292450714Y-92845238D01*
X292450714Y-92988095D01*
X292498333Y-93083333D01*
X292545952Y-93130952D01*
X292641190Y-93178571D01*
X292926904Y-93178571D01*
X293022142Y-93130952D01*
X293069761Y-93083333D01*
X293117380Y-92988095D01*
X293117380Y-92845238D01*
X293117380Y-94035714D02*
X292593571Y-94035714D01*
X292498333Y-93988095D01*
X292450714Y-93892857D01*
X292450714Y-93702380D01*
X292498333Y-93607142D01*
X293069761Y-94035714D02*
X293117380Y-93940476D01*
X293117380Y-93702380D01*
X293069761Y-93607142D01*
X292974523Y-93559523D01*
X292879285Y-93559523D01*
X292784047Y-93607142D01*
X292736428Y-93702380D01*
X292736428Y-93940476D01*
X292688809Y-94035714D01*
X293117380Y-94511904D02*
X292450714Y-94511904D01*
X292641190Y-94511904D02*
X292545952Y-94559523D01*
X292498333Y-94607142D01*
X292450714Y-94702380D01*
X292450714Y-94797619D01*
X293117380Y-95559523D02*
X292117380Y-95559523D01*
X293069761Y-95559523D02*
X293117380Y-95464285D01*
X293117380Y-95273809D01*
X293069761Y-95178571D01*
X293022142Y-95130952D01*
X292926904Y-95083333D01*
X292641190Y-95083333D01*
X292545952Y-95130952D01*
X292498333Y-95178571D01*
X292450714Y-95273809D01*
X292450714Y-95464285D01*
X292498333Y-95559523D01*
X293022142Y-96035714D02*
X293069761Y-96083333D01*
X293117380Y-96035714D01*
X293069761Y-95988095D01*
X293022142Y-96035714D01*
X293117380Y-96035714D01*
X292736428Y-96035714D02*
X292165000Y-95988095D01*
X292117380Y-96035714D01*
X292165000Y-96083333D01*
X292736428Y-96035714D01*
X292117380Y-96035714D01*
X200914285Y-27512619D02*
X200914285Y-26703095D01*
X200961904Y-26607857D01*
X201009523Y-26560238D01*
X201104761Y-26512619D01*
X201295238Y-26512619D01*
X201390476Y-26560238D01*
X201438095Y-26607857D01*
X201485714Y-26703095D01*
X201485714Y-27512619D01*
X201914285Y-26560238D02*
X202057142Y-26512619D01*
X202295238Y-26512619D01*
X202390476Y-26560238D01*
X202438095Y-26607857D01*
X202485714Y-26703095D01*
X202485714Y-26798333D01*
X202438095Y-26893571D01*
X202390476Y-26941190D01*
X202295238Y-26988809D01*
X202104761Y-27036428D01*
X202009523Y-27084047D01*
X201961904Y-27131666D01*
X201914285Y-27226904D01*
X201914285Y-27322142D01*
X201961904Y-27417380D01*
X202009523Y-27465000D01*
X202104761Y-27512619D01*
X202342857Y-27512619D01*
X202485714Y-27465000D01*
X203247619Y-27036428D02*
X203390476Y-26988809D01*
X203438095Y-26941190D01*
X203485714Y-26845952D01*
X203485714Y-26703095D01*
X203438095Y-26607857D01*
X203390476Y-26560238D01*
X203295238Y-26512619D01*
X202914285Y-26512619D01*
X202914285Y-27512619D01*
X203247619Y-27512619D01*
X203342857Y-27465000D01*
X203390476Y-27417380D01*
X203438095Y-27322142D01*
X203438095Y-27226904D01*
X203390476Y-27131666D01*
X203342857Y-27084047D01*
X203247619Y-27036428D01*
X202914285Y-27036428D01*
X204676190Y-27179285D02*
X204676190Y-26512619D01*
X204676190Y-27084047D02*
X204723809Y-27131666D01*
X204819047Y-27179285D01*
X204961904Y-27179285D01*
X205057142Y-27131666D01*
X205104761Y-27036428D01*
X205104761Y-26512619D01*
X205723809Y-26512619D02*
X205628571Y-26560238D01*
X205580952Y-26607857D01*
X205533333Y-26703095D01*
X205533333Y-26988809D01*
X205580952Y-27084047D01*
X205628571Y-27131666D01*
X205723809Y-27179285D01*
X205866666Y-27179285D01*
X205961904Y-27131666D01*
X206009523Y-27084047D01*
X206057142Y-26988809D01*
X206057142Y-26703095D01*
X206009523Y-26607857D01*
X205961904Y-26560238D01*
X205866666Y-26512619D01*
X205723809Y-26512619D01*
X206342857Y-27179285D02*
X206723809Y-27179285D01*
X206485714Y-27512619D02*
X206485714Y-26655476D01*
X206533333Y-26560238D01*
X206628571Y-26512619D01*
X206723809Y-26512619D01*
X207676190Y-27179285D02*
X208057142Y-27179285D01*
X207819047Y-27512619D02*
X207819047Y-26655476D01*
X207866666Y-26560238D01*
X207961904Y-26512619D01*
X208057142Y-26512619D01*
X208533333Y-26512619D02*
X208438095Y-26560238D01*
X208390476Y-26607857D01*
X208342857Y-26703095D01*
X208342857Y-26988809D01*
X208390476Y-27084047D01*
X208438095Y-27131666D01*
X208533333Y-27179285D01*
X208676190Y-27179285D01*
X208771428Y-27131666D01*
X208819047Y-27084047D01*
X208866666Y-26988809D01*
X208866666Y-26703095D01*
X208819047Y-26607857D01*
X208771428Y-26560238D01*
X208676190Y-26512619D01*
X208533333Y-26512619D01*
X210009523Y-26560238D02*
X210104761Y-26512619D01*
X210295238Y-26512619D01*
X210390476Y-26560238D01*
X210438095Y-26655476D01*
X210438095Y-26703095D01*
X210390476Y-26798333D01*
X210295238Y-26845952D01*
X210152380Y-26845952D01*
X210057142Y-26893571D01*
X210009523Y-26988809D01*
X210009523Y-27036428D01*
X210057142Y-27131666D01*
X210152380Y-27179285D01*
X210295238Y-27179285D01*
X210390476Y-27131666D01*
X210866666Y-27179285D02*
X210866666Y-26179285D01*
X210866666Y-27131666D02*
X210961904Y-27179285D01*
X211152380Y-27179285D01*
X211247619Y-27131666D01*
X211295238Y-27084047D01*
X211342857Y-26988809D01*
X211342857Y-26703095D01*
X211295238Y-26607857D01*
X211247619Y-26560238D01*
X211152380Y-26512619D01*
X210961904Y-26512619D01*
X210866666Y-26560238D01*
X212152380Y-26560238D02*
X212057142Y-26512619D01*
X211866666Y-26512619D01*
X211771428Y-26560238D01*
X211723809Y-26655476D01*
X211723809Y-27036428D01*
X211771428Y-27131666D01*
X211866666Y-27179285D01*
X212057142Y-27179285D01*
X212152380Y-27131666D01*
X212200000Y-27036428D01*
X212200000Y-26941190D01*
X211723809Y-26845952D01*
X213057142Y-26560238D02*
X212961904Y-26512619D01*
X212771428Y-26512619D01*
X212676190Y-26560238D01*
X212628571Y-26607857D01*
X212580952Y-26703095D01*
X212580952Y-26988809D01*
X212628571Y-27084047D01*
X212676190Y-27131666D01*
X212771428Y-27179285D01*
X212961904Y-27179285D01*
X213057142Y-27131666D01*
X213485714Y-26607857D02*
X213533333Y-26560238D01*
X213485714Y-26512619D01*
X213438095Y-26560238D01*
X213485714Y-26607857D01*
X213485714Y-26512619D01*
X213485714Y-27131666D02*
X213533333Y-27084047D01*
X213485714Y-27036428D01*
X213438095Y-27084047D01*
X213485714Y-27131666D01*
X213485714Y-27036428D01*
X200866666Y-24902619D02*
X200866666Y-25902619D01*
X201104761Y-25902619D01*
X201247619Y-25855000D01*
X201342857Y-25759761D01*
X201390476Y-25664523D01*
X201438095Y-25474047D01*
X201438095Y-25331190D01*
X201390476Y-25140714D01*
X201342857Y-25045476D01*
X201247619Y-24950238D01*
X201104761Y-24902619D01*
X200866666Y-24902619D01*
X202009523Y-24902619D02*
X201914285Y-24950238D01*
X201866666Y-24997857D01*
X201819047Y-25093095D01*
X201819047Y-25378809D01*
X201866666Y-25474047D01*
X201914285Y-25521666D01*
X202009523Y-25569285D01*
X202152380Y-25569285D01*
X202247619Y-25521666D01*
X202295238Y-25474047D01*
X202342857Y-25378809D01*
X202342857Y-25093095D01*
X202295238Y-24997857D01*
X202247619Y-24950238D01*
X202152380Y-24902619D01*
X202009523Y-24902619D01*
X203533333Y-24902619D02*
X203533333Y-25902619D01*
X204104761Y-24902619D01*
X204104761Y-25902619D01*
X204771428Y-25902619D02*
X204961904Y-25902619D01*
X205057142Y-25855000D01*
X205152380Y-25759761D01*
X205200000Y-25569285D01*
X205200000Y-25235952D01*
X205152380Y-25045476D01*
X205057142Y-24950238D01*
X204961904Y-24902619D01*
X204771428Y-24902619D01*
X204676190Y-24950238D01*
X204580952Y-25045476D01*
X204533333Y-25235952D01*
X204533333Y-25569285D01*
X204580952Y-25759761D01*
X204676190Y-25855000D01*
X204771428Y-25902619D01*
X205485714Y-25902619D02*
X206057142Y-25902619D01*
X205771428Y-24902619D02*
X205771428Y-25902619D01*
X207152380Y-25569285D02*
X207152380Y-24569285D01*
X207152380Y-25521666D02*
X207247619Y-25569285D01*
X207438095Y-25569285D01*
X207533333Y-25521666D01*
X207580952Y-25474047D01*
X207628571Y-25378809D01*
X207628571Y-25093095D01*
X207580952Y-24997857D01*
X207533333Y-24950238D01*
X207438095Y-24902619D01*
X207247619Y-24902619D01*
X207152380Y-24950238D01*
X208200000Y-24902619D02*
X208104761Y-24950238D01*
X208057142Y-25045476D01*
X208057142Y-25902619D01*
X209009523Y-25569285D02*
X209009523Y-24902619D01*
X208580952Y-25569285D02*
X208580952Y-25045476D01*
X208628571Y-24950238D01*
X208723809Y-24902619D01*
X208866666Y-24902619D01*
X208961904Y-24950238D01*
X209009523Y-24997857D01*
X209914285Y-25569285D02*
X209914285Y-24759761D01*
X209866666Y-24664523D01*
X209819047Y-24616904D01*
X209723809Y-24569285D01*
X209580952Y-24569285D01*
X209485714Y-24616904D01*
X209914285Y-24950238D02*
X209819047Y-24902619D01*
X209628571Y-24902619D01*
X209533333Y-24950238D01*
X209485714Y-24997857D01*
X209438095Y-25093095D01*
X209438095Y-25378809D01*
X209485714Y-25474047D01*
X209533333Y-25521666D01*
X209628571Y-25569285D01*
X209819047Y-25569285D01*
X209914285Y-25521666D01*
X211152380Y-24902619D02*
X211152380Y-25569285D01*
X211152380Y-25902619D02*
X211104761Y-25855000D01*
X211152380Y-25807380D01*
X211200000Y-25855000D01*
X211152380Y-25902619D01*
X211152380Y-25807380D01*
X211628571Y-25569285D02*
X211628571Y-24902619D01*
X211628571Y-25474047D02*
X211676190Y-25521666D01*
X211771428Y-25569285D01*
X211914285Y-25569285D01*
X212009523Y-25521666D01*
X212057142Y-25426428D01*
X212057142Y-24902619D01*
X212390476Y-25569285D02*
X212771428Y-25569285D01*
X212533333Y-25902619D02*
X212533333Y-25045476D01*
X212580952Y-24950238D01*
X212676190Y-24902619D01*
X212771428Y-24902619D01*
X213247619Y-24902619D02*
X213152380Y-24950238D01*
X213104761Y-24997857D01*
X213057142Y-25093095D01*
X213057142Y-25378809D01*
X213104761Y-25474047D01*
X213152380Y-25521666D01*
X213247619Y-25569285D01*
X213390476Y-25569285D01*
X213485714Y-25521666D01*
X213533333Y-25474047D01*
X213580952Y-25378809D01*
X213580952Y-25093095D01*
X213533333Y-24997857D01*
X213485714Y-24950238D01*
X213390476Y-24902619D01*
X213247619Y-24902619D01*
X201890476Y-23292619D02*
X201890476Y-23816428D01*
X201842857Y-23911666D01*
X201747619Y-23959285D01*
X201557142Y-23959285D01*
X201461904Y-23911666D01*
X201890476Y-23340238D02*
X201795238Y-23292619D01*
X201557142Y-23292619D01*
X201461904Y-23340238D01*
X201414285Y-23435476D01*
X201414285Y-23530714D01*
X201461904Y-23625952D01*
X201557142Y-23673571D01*
X201795238Y-23673571D01*
X201890476Y-23721190D01*
X202366666Y-23959285D02*
X202366666Y-23292619D01*
X202366666Y-23864047D02*
X202414285Y-23911666D01*
X202509523Y-23959285D01*
X202652380Y-23959285D01*
X202747619Y-23911666D01*
X202795238Y-23816428D01*
X202795238Y-23292619D01*
X203176190Y-23959285D02*
X203414285Y-23292619D01*
X203652380Y-23959285D02*
X203414285Y-23292619D01*
X203319047Y-23054523D01*
X203271428Y-23006904D01*
X203176190Y-22959285D01*
X203890476Y-23959285D02*
X204271428Y-23959285D01*
X204033333Y-24292619D02*
X204033333Y-23435476D01*
X204080952Y-23340238D01*
X204176190Y-23292619D01*
X204271428Y-23292619D01*
X204604761Y-23292619D02*
X204604761Y-24292619D01*
X205033333Y-23292619D02*
X205033333Y-23816428D01*
X204985714Y-23911666D01*
X204890476Y-23959285D01*
X204747619Y-23959285D01*
X204652380Y-23911666D01*
X204604761Y-23864047D01*
X205509523Y-23292619D02*
X205509523Y-23959285D01*
X205509523Y-24292619D02*
X205461904Y-24245000D01*
X205509523Y-24197380D01*
X205557142Y-24245000D01*
X205509523Y-24292619D01*
X205509523Y-24197380D01*
X205985714Y-23959285D02*
X205985714Y-23292619D01*
X205985714Y-23864047D02*
X206033333Y-23911666D01*
X206128571Y-23959285D01*
X206271428Y-23959285D01*
X206366666Y-23911666D01*
X206414285Y-23816428D01*
X206414285Y-23292619D01*
X207319047Y-23959285D02*
X207319047Y-23149761D01*
X207271428Y-23054523D01*
X207223809Y-23006904D01*
X207128571Y-22959285D01*
X206985714Y-22959285D01*
X206890476Y-23006904D01*
X207319047Y-23340238D02*
X207223809Y-23292619D01*
X207033333Y-23292619D01*
X206938095Y-23340238D01*
X206890476Y-23387857D01*
X206842857Y-23483095D01*
X206842857Y-23768809D01*
X206890476Y-23864047D01*
X206938095Y-23911666D01*
X207033333Y-23959285D01*
X207223809Y-23959285D01*
X207319047Y-23911666D01*
X208938095Y-23340238D02*
X208842857Y-23292619D01*
X208652380Y-23292619D01*
X208557142Y-23340238D01*
X208509523Y-23435476D01*
X208509523Y-23816428D01*
X208557142Y-23911666D01*
X208652380Y-23959285D01*
X208842857Y-23959285D01*
X208938095Y-23911666D01*
X208985714Y-23816428D01*
X208985714Y-23721190D01*
X208509523Y-23625952D01*
X209319047Y-23292619D02*
X209842857Y-23959285D01*
X209319047Y-23959285D02*
X209842857Y-23292619D01*
X210652380Y-23340238D02*
X210557142Y-23292619D01*
X210366666Y-23292619D01*
X210271428Y-23340238D01*
X210223809Y-23387857D01*
X210176190Y-23483095D01*
X210176190Y-23768809D01*
X210223809Y-23864047D01*
X210271428Y-23911666D01*
X210366666Y-23959285D01*
X210557142Y-23959285D01*
X210652380Y-23911666D01*
X211461904Y-23340238D02*
X211366666Y-23292619D01*
X211176190Y-23292619D01*
X211080952Y-23340238D01*
X211033333Y-23435476D01*
X211033333Y-23816428D01*
X211080952Y-23911666D01*
X211176190Y-23959285D01*
X211366666Y-23959285D01*
X211461904Y-23911666D01*
X211509523Y-23816428D01*
X211509523Y-23721190D01*
X211033333Y-23625952D01*
X211938095Y-23959285D02*
X211938095Y-22959285D01*
X211938095Y-23911666D02*
X212033333Y-23959285D01*
X212223809Y-23959285D01*
X212319047Y-23911666D01*
X212366666Y-23864047D01*
X212414285Y-23768809D01*
X212414285Y-23483095D01*
X212366666Y-23387857D01*
X212319047Y-23340238D01*
X212223809Y-23292619D01*
X212033333Y-23292619D01*
X211938095Y-23340238D01*
X212700000Y-23959285D02*
X213080952Y-23959285D01*
X212842857Y-24292619D02*
X212842857Y-23435476D01*
X212890476Y-23340238D01*
X212985714Y-23292619D01*
X213080952Y-23292619D01*
X199842857Y-21730238D02*
X199747619Y-21682619D01*
X199557142Y-21682619D01*
X199461904Y-21730238D01*
X199414285Y-21777857D01*
X199366666Y-21873095D01*
X199366666Y-22158809D01*
X199414285Y-22254047D01*
X199461904Y-22301666D01*
X199557142Y-22349285D01*
X199747619Y-22349285D01*
X199842857Y-22301666D01*
X200414285Y-21682619D02*
X200319047Y-21730238D01*
X200271428Y-21777857D01*
X200223809Y-21873095D01*
X200223809Y-22158809D01*
X200271428Y-22254047D01*
X200319047Y-22301666D01*
X200414285Y-22349285D01*
X200557142Y-22349285D01*
X200652380Y-22301666D01*
X200700000Y-22254047D01*
X200747619Y-22158809D01*
X200747619Y-21873095D01*
X200700000Y-21777857D01*
X200652380Y-21730238D01*
X200557142Y-21682619D01*
X200414285Y-21682619D01*
X201176190Y-21682619D02*
X201176190Y-22349285D01*
X201176190Y-22158809D02*
X201223809Y-22254047D01*
X201271428Y-22301666D01*
X201366666Y-22349285D01*
X201461904Y-22349285D01*
X201795238Y-21682619D02*
X201795238Y-22349285D01*
X201795238Y-22158809D02*
X201842857Y-22254047D01*
X201890476Y-22301666D01*
X201985714Y-22349285D01*
X202080952Y-22349285D01*
X202795238Y-21730238D02*
X202700000Y-21682619D01*
X202509523Y-21682619D01*
X202414285Y-21730238D01*
X202366666Y-21825476D01*
X202366666Y-22206428D01*
X202414285Y-22301666D01*
X202509523Y-22349285D01*
X202700000Y-22349285D01*
X202795238Y-22301666D01*
X202842857Y-22206428D01*
X202842857Y-22111190D01*
X202366666Y-22015952D01*
X203223809Y-21730238D02*
X203319047Y-21682619D01*
X203509523Y-21682619D01*
X203604761Y-21730238D01*
X203652380Y-21825476D01*
X203652380Y-21873095D01*
X203604761Y-21968333D01*
X203509523Y-22015952D01*
X203366666Y-22015952D01*
X203271428Y-22063571D01*
X203223809Y-22158809D01*
X203223809Y-22206428D01*
X203271428Y-22301666D01*
X203366666Y-22349285D01*
X203509523Y-22349285D01*
X203604761Y-22301666D01*
X204080952Y-22349285D02*
X204080952Y-21349285D01*
X204080952Y-22301666D02*
X204176190Y-22349285D01*
X204366666Y-22349285D01*
X204461904Y-22301666D01*
X204509523Y-22254047D01*
X204557142Y-22158809D01*
X204557142Y-21873095D01*
X204509523Y-21777857D01*
X204461904Y-21730238D01*
X204366666Y-21682619D01*
X204176190Y-21682619D01*
X204080952Y-21730238D01*
X205128571Y-21682619D02*
X205033333Y-21730238D01*
X204985714Y-21777857D01*
X204938095Y-21873095D01*
X204938095Y-22158809D01*
X204985714Y-22254047D01*
X205033333Y-22301666D01*
X205128571Y-22349285D01*
X205271428Y-22349285D01*
X205366666Y-22301666D01*
X205414285Y-22254047D01*
X205461904Y-22158809D01*
X205461904Y-21873095D01*
X205414285Y-21777857D01*
X205366666Y-21730238D01*
X205271428Y-21682619D01*
X205128571Y-21682619D01*
X205890476Y-22349285D02*
X205890476Y-21682619D01*
X205890476Y-22254047D02*
X205938095Y-22301666D01*
X206033333Y-22349285D01*
X206176190Y-22349285D01*
X206271428Y-22301666D01*
X206319047Y-22206428D01*
X206319047Y-21682619D01*
X207223809Y-21682619D02*
X207223809Y-22682619D01*
X207223809Y-21730238D02*
X207128571Y-21682619D01*
X206938095Y-21682619D01*
X206842857Y-21730238D01*
X206795238Y-21777857D01*
X206747619Y-21873095D01*
X206747619Y-22158809D01*
X206795238Y-22254047D01*
X206842857Y-22301666D01*
X206938095Y-22349285D01*
X207128571Y-22349285D01*
X207223809Y-22301666D01*
X207700000Y-21682619D02*
X207700000Y-22349285D01*
X207700000Y-22682619D02*
X207652380Y-22635000D01*
X207700000Y-22587380D01*
X207747619Y-22635000D01*
X207700000Y-22682619D01*
X207700000Y-22587380D01*
X208176190Y-22349285D02*
X208176190Y-21682619D01*
X208176190Y-22254047D02*
X208223809Y-22301666D01*
X208319047Y-22349285D01*
X208461904Y-22349285D01*
X208557142Y-22301666D01*
X208604761Y-22206428D01*
X208604761Y-21682619D01*
X209509523Y-22349285D02*
X209509523Y-21539761D01*
X209461904Y-21444523D01*
X209414285Y-21396904D01*
X209319047Y-21349285D01*
X209176190Y-21349285D01*
X209080952Y-21396904D01*
X209509523Y-21730238D02*
X209414285Y-21682619D01*
X209223809Y-21682619D01*
X209128571Y-21730238D01*
X209080952Y-21777857D01*
X209033333Y-21873095D01*
X209033333Y-22158809D01*
X209080952Y-22254047D01*
X209128571Y-22301666D01*
X209223809Y-22349285D01*
X209414285Y-22349285D01*
X209509523Y-22301666D01*
X210747619Y-21682619D02*
X210747619Y-22682619D01*
X210747619Y-22301666D02*
X210842857Y-22349285D01*
X211033333Y-22349285D01*
X211128571Y-22301666D01*
X211176190Y-22254047D01*
X211223809Y-22158809D01*
X211223809Y-21873095D01*
X211176190Y-21777857D01*
X211128571Y-21730238D01*
X211033333Y-21682619D01*
X210842857Y-21682619D01*
X210747619Y-21730238D01*
X211795238Y-21682619D02*
X211700000Y-21730238D01*
X211652380Y-21777857D01*
X211604761Y-21873095D01*
X211604761Y-22158809D01*
X211652380Y-22254047D01*
X211700000Y-22301666D01*
X211795238Y-22349285D01*
X211938095Y-22349285D01*
X212033333Y-22301666D01*
X212080952Y-22254047D01*
X212128571Y-22158809D01*
X212128571Y-21873095D01*
X212080952Y-21777857D01*
X212033333Y-21730238D01*
X211938095Y-21682619D01*
X211795238Y-21682619D01*
X212985714Y-21682619D02*
X212985714Y-22206428D01*
X212938095Y-22301666D01*
X212842857Y-22349285D01*
X212652380Y-22349285D01*
X212557142Y-22301666D01*
X212985714Y-21730238D02*
X212890476Y-21682619D01*
X212652380Y-21682619D01*
X212557142Y-21730238D01*
X212509523Y-21825476D01*
X212509523Y-21920714D01*
X212557142Y-22015952D01*
X212652380Y-22063571D01*
X212890476Y-22063571D01*
X212985714Y-22111190D01*
X213461904Y-21682619D02*
X213461904Y-22349285D01*
X213461904Y-22158809D02*
X213509523Y-22254047D01*
X213557142Y-22301666D01*
X213652380Y-22349285D01*
X213747619Y-22349285D01*
X214509523Y-21682619D02*
X214509523Y-22682619D01*
X214509523Y-21730238D02*
X214414285Y-21682619D01*
X214223809Y-21682619D01*
X214128571Y-21730238D01*
X214080952Y-21777857D01*
X214033333Y-21873095D01*
X214033333Y-22158809D01*
X214080952Y-22254047D01*
X214128571Y-22301666D01*
X214223809Y-22349285D01*
X214414285Y-22349285D01*
X214509523Y-22301666D01*
X214985714Y-21777857D02*
X215033333Y-21730238D01*
X214985714Y-21682619D01*
X214938095Y-21730238D01*
X214985714Y-21777857D01*
X214985714Y-21682619D01*
X214985714Y-22063571D02*
X214938095Y-22635000D01*
X214985714Y-22682619D01*
X215033333Y-22635000D01*
X214985714Y-22063571D01*
X214985714Y-22682619D01*
%TO.C,U2*%
X115011904Y-29352380D02*
X115011904Y-30161904D01*
X114964285Y-30257142D01*
X114916666Y-30304761D01*
X114821428Y-30352380D01*
X114630952Y-30352380D01*
X114535714Y-30304761D01*
X114488095Y-30257142D01*
X114440476Y-30161904D01*
X114440476Y-29352380D01*
X114011904Y-29447619D02*
X113964285Y-29400000D01*
X113869047Y-29352380D01*
X113630952Y-29352380D01*
X113535714Y-29400000D01*
X113488095Y-29447619D01*
X113440476Y-29542857D01*
X113440476Y-29638095D01*
X113488095Y-29780952D01*
X114059523Y-30352380D01*
X113440476Y-30352380D01*
%TO.C,R14*%
X177382380Y-34357142D02*
X176906190Y-34023809D01*
X177382380Y-33785714D02*
X176382380Y-33785714D01*
X176382380Y-34166666D01*
X176430000Y-34261904D01*
X176477619Y-34309523D01*
X176572857Y-34357142D01*
X176715714Y-34357142D01*
X176810952Y-34309523D01*
X176858571Y-34261904D01*
X176906190Y-34166666D01*
X176906190Y-33785714D01*
X177382380Y-35309523D02*
X177382380Y-34738095D01*
X177382380Y-35023809D02*
X176382380Y-35023809D01*
X176525238Y-34928571D01*
X176620476Y-34833333D01*
X176668095Y-34738095D01*
X176715714Y-36166666D02*
X177382380Y-36166666D01*
X176334761Y-35928571D02*
X177049047Y-35690476D01*
X177049047Y-36309523D01*
%TO.C,R15*%
X170142857Y-29022380D02*
X170476190Y-28546190D01*
X170714285Y-29022380D02*
X170714285Y-28022380D01*
X170333333Y-28022380D01*
X170238095Y-28070000D01*
X170190476Y-28117619D01*
X170142857Y-28212857D01*
X170142857Y-28355714D01*
X170190476Y-28450952D01*
X170238095Y-28498571D01*
X170333333Y-28546190D01*
X170714285Y-28546190D01*
X169190476Y-29022380D02*
X169761904Y-29022380D01*
X169476190Y-29022380D02*
X169476190Y-28022380D01*
X169571428Y-28165238D01*
X169666666Y-28260476D01*
X169761904Y-28308095D01*
X168285714Y-28022380D02*
X168761904Y-28022380D01*
X168809523Y-28498571D01*
X168761904Y-28450952D01*
X168666666Y-28403333D01*
X168428571Y-28403333D01*
X168333333Y-28450952D01*
X168285714Y-28498571D01*
X168238095Y-28593809D01*
X168238095Y-28831904D01*
X168285714Y-28927142D01*
X168333333Y-28974761D01*
X168428571Y-29022380D01*
X168666666Y-29022380D01*
X168761904Y-28974761D01*
X168809523Y-28927142D01*
%TO.C,U1*%
X169052380Y-36738095D02*
X169861904Y-36738095D01*
X169957142Y-36785714D01*
X170004761Y-36833333D01*
X170052380Y-36928571D01*
X170052380Y-37119047D01*
X170004761Y-37214285D01*
X169957142Y-37261904D01*
X169861904Y-37309523D01*
X169052380Y-37309523D01*
X170052380Y-38309523D02*
X170052380Y-37738095D01*
X170052380Y-38023809D02*
X169052380Y-38023809D01*
X169195238Y-37928571D01*
X169290476Y-37833333D01*
X169338095Y-37738095D01*
%TO.C,C5*%
X124037142Y-149833333D02*
X124084761Y-149785714D01*
X124132380Y-149642857D01*
X124132380Y-149547619D01*
X124084761Y-149404761D01*
X123989523Y-149309523D01*
X123894285Y-149261904D01*
X123703809Y-149214285D01*
X123560952Y-149214285D01*
X123370476Y-149261904D01*
X123275238Y-149309523D01*
X123180000Y-149404761D01*
X123132380Y-149547619D01*
X123132380Y-149642857D01*
X123180000Y-149785714D01*
X123227619Y-149833333D01*
X123132380Y-150738095D02*
X123132380Y-150261904D01*
X123608571Y-150214285D01*
X123560952Y-150261904D01*
X123513333Y-150357142D01*
X123513333Y-150595238D01*
X123560952Y-150690476D01*
X123608571Y-150738095D01*
X123703809Y-150785714D01*
X123941904Y-150785714D01*
X124037142Y-150738095D01*
X124084761Y-150690476D01*
X124132380Y-150595238D01*
X124132380Y-150357142D01*
X124084761Y-150261904D01*
X124037142Y-150214285D01*
%TO.C,C12*%
X225037142Y-135357142D02*
X225084761Y-135309523D01*
X225132380Y-135166666D01*
X225132380Y-135071428D01*
X225084761Y-134928571D01*
X224989523Y-134833333D01*
X224894285Y-134785714D01*
X224703809Y-134738095D01*
X224560952Y-134738095D01*
X224370476Y-134785714D01*
X224275238Y-134833333D01*
X224180000Y-134928571D01*
X224132380Y-135071428D01*
X224132380Y-135166666D01*
X224180000Y-135309523D01*
X224227619Y-135357142D01*
X225132380Y-136309523D02*
X225132380Y-135738095D01*
X225132380Y-136023809D02*
X224132380Y-136023809D01*
X224275238Y-135928571D01*
X224370476Y-135833333D01*
X224418095Y-135738095D01*
X224227619Y-136690476D02*
X224180000Y-136738095D01*
X224132380Y-136833333D01*
X224132380Y-137071428D01*
X224180000Y-137166666D01*
X224227619Y-137214285D01*
X224322857Y-137261904D01*
X224418095Y-137261904D01*
X224560952Y-137214285D01*
X225132380Y-136642857D01*
X225132380Y-137261904D01*
%TO.C,C9*%
X71037142Y-148833333D02*
X71084761Y-148785714D01*
X71132380Y-148642857D01*
X71132380Y-148547619D01*
X71084761Y-148404761D01*
X70989523Y-148309523D01*
X70894285Y-148261904D01*
X70703809Y-148214285D01*
X70560952Y-148214285D01*
X70370476Y-148261904D01*
X70275238Y-148309523D01*
X70180000Y-148404761D01*
X70132380Y-148547619D01*
X70132380Y-148642857D01*
X70180000Y-148785714D01*
X70227619Y-148833333D01*
X71132380Y-149309523D02*
X71132380Y-149500000D01*
X71084761Y-149595238D01*
X71037142Y-149642857D01*
X70894285Y-149738095D01*
X70703809Y-149785714D01*
X70322857Y-149785714D01*
X70227619Y-149738095D01*
X70180000Y-149690476D01*
X70132380Y-149595238D01*
X70132380Y-149404761D01*
X70180000Y-149309523D01*
X70227619Y-149261904D01*
X70322857Y-149214285D01*
X70560952Y-149214285D01*
X70656190Y-149261904D01*
X70703809Y-149309523D01*
X70751428Y-149404761D01*
X70751428Y-149595238D01*
X70703809Y-149690476D01*
X70656190Y-149738095D01*
X70560952Y-149785714D01*
%TO.C,P1*%
X225738095Y-29012380D02*
X225738095Y-28012380D01*
X225357142Y-28012380D01*
X225261904Y-28060000D01*
X225214285Y-28107619D01*
X225166666Y-28202857D01*
X225166666Y-28345714D01*
X225214285Y-28440952D01*
X225261904Y-28488571D01*
X225357142Y-28536190D01*
X225738095Y-28536190D01*
X224214285Y-29012380D02*
X224785714Y-29012380D01*
X224500000Y-29012380D02*
X224500000Y-28012380D01*
X224595238Y-28155238D01*
X224690476Y-28250476D01*
X224785714Y-28298095D01*
X221595238Y-20107619D02*
X221595238Y-21107619D01*
X221976190Y-21107619D01*
X222071428Y-21060000D01*
X222119047Y-21012380D01*
X222166666Y-20917142D01*
X222166666Y-20774285D01*
X222119047Y-20679047D01*
X222071428Y-20631428D01*
X221976190Y-20583809D01*
X221595238Y-20583809D01*
X223166666Y-20202857D02*
X223119047Y-20155238D01*
X222976190Y-20107619D01*
X222880952Y-20107619D01*
X222738095Y-20155238D01*
X222642857Y-20250476D01*
X222595238Y-20345714D01*
X222547619Y-20536190D01*
X222547619Y-20679047D01*
X222595238Y-20869523D01*
X222642857Y-20964761D01*
X222738095Y-21060000D01*
X222880952Y-21107619D01*
X222976190Y-21107619D01*
X223119047Y-21060000D01*
X223166666Y-21012380D01*
X223928571Y-20631428D02*
X224071428Y-20583809D01*
X224119047Y-20536190D01*
X224166666Y-20440952D01*
X224166666Y-20298095D01*
X224119047Y-20202857D01*
X224071428Y-20155238D01*
X223976190Y-20107619D01*
X223595238Y-20107619D01*
X223595238Y-21107619D01*
X223928571Y-21107619D01*
X224023809Y-21060000D01*
X224071428Y-21012380D01*
X224119047Y-20917142D01*
X224119047Y-20821904D01*
X224071428Y-20726666D01*
X224023809Y-20679047D01*
X223928571Y-20631428D01*
X223595238Y-20631428D01*
X225738095Y-20155238D02*
X225642857Y-20107619D01*
X225452380Y-20107619D01*
X225357142Y-20155238D01*
X225309523Y-20250476D01*
X225309523Y-20631428D01*
X225357142Y-20726666D01*
X225452380Y-20774285D01*
X225642857Y-20774285D01*
X225738095Y-20726666D01*
X225785714Y-20631428D01*
X225785714Y-20536190D01*
X225309523Y-20440952D01*
X226642857Y-20107619D02*
X226642857Y-21107619D01*
X226642857Y-20155238D02*
X226547619Y-20107619D01*
X226357142Y-20107619D01*
X226261904Y-20155238D01*
X226214285Y-20202857D01*
X226166666Y-20298095D01*
X226166666Y-20583809D01*
X226214285Y-20679047D01*
X226261904Y-20726666D01*
X226357142Y-20774285D01*
X226547619Y-20774285D01*
X226642857Y-20726666D01*
X227547619Y-20774285D02*
X227547619Y-19964761D01*
X227500000Y-19869523D01*
X227452380Y-19821904D01*
X227357142Y-19774285D01*
X227214285Y-19774285D01*
X227119047Y-19821904D01*
X227547619Y-20155238D02*
X227452380Y-20107619D01*
X227261904Y-20107619D01*
X227166666Y-20155238D01*
X227119047Y-20202857D01*
X227071428Y-20298095D01*
X227071428Y-20583809D01*
X227119047Y-20679047D01*
X227166666Y-20726666D01*
X227261904Y-20774285D01*
X227452380Y-20774285D01*
X227547619Y-20726666D01*
X228404761Y-20155238D02*
X228309523Y-20107619D01*
X228119047Y-20107619D01*
X228023809Y-20155238D01*
X227976190Y-20250476D01*
X227976190Y-20631428D01*
X228023809Y-20726666D01*
X228119047Y-20774285D01*
X228309523Y-20774285D01*
X228404761Y-20726666D01*
X228452380Y-20631428D01*
X228452380Y-20536190D01*
X227976190Y-20440952D01*
%TO.C,R19*%
X105467857Y-56132380D02*
X105801190Y-55656190D01*
X106039285Y-56132380D02*
X106039285Y-55132380D01*
X105658333Y-55132380D01*
X105563095Y-55180000D01*
X105515476Y-55227619D01*
X105467857Y-55322857D01*
X105467857Y-55465714D01*
X105515476Y-55560952D01*
X105563095Y-55608571D01*
X105658333Y-55656190D01*
X106039285Y-55656190D01*
X104515476Y-56132380D02*
X105086904Y-56132380D01*
X104801190Y-56132380D02*
X104801190Y-55132380D01*
X104896428Y-55275238D01*
X104991666Y-55370476D01*
X105086904Y-55418095D01*
X104039285Y-56132380D02*
X103848809Y-56132380D01*
X103753571Y-56084761D01*
X103705952Y-56037142D01*
X103610714Y-55894285D01*
X103563095Y-55703809D01*
X103563095Y-55322857D01*
X103610714Y-55227619D01*
X103658333Y-55180000D01*
X103753571Y-55132380D01*
X103944047Y-55132380D01*
X104039285Y-55180000D01*
X104086904Y-55227619D01*
X104134523Y-55322857D01*
X104134523Y-55560952D01*
X104086904Y-55656190D01*
X104039285Y-55703809D01*
X103944047Y-55751428D01*
X103753571Y-55751428D01*
X103658333Y-55703809D01*
X103610714Y-55656190D01*
X103563095Y-55560952D01*
%TO.C,C16*%
X102142857Y-33107142D02*
X102190476Y-33154761D01*
X102333333Y-33202380D01*
X102428571Y-33202380D01*
X102571428Y-33154761D01*
X102666666Y-33059523D01*
X102714285Y-32964285D01*
X102761904Y-32773809D01*
X102761904Y-32630952D01*
X102714285Y-32440476D01*
X102666666Y-32345238D01*
X102571428Y-32250000D01*
X102428571Y-32202380D01*
X102333333Y-32202380D01*
X102190476Y-32250000D01*
X102142857Y-32297619D01*
X101190476Y-33202380D02*
X101761904Y-33202380D01*
X101476190Y-33202380D02*
X101476190Y-32202380D01*
X101571428Y-32345238D01*
X101666666Y-32440476D01*
X101761904Y-32488095D01*
X100333333Y-32202380D02*
X100523809Y-32202380D01*
X100619047Y-32250000D01*
X100666666Y-32297619D01*
X100761904Y-32440476D01*
X100809523Y-32630952D01*
X100809523Y-33011904D01*
X100761904Y-33107142D01*
X100714285Y-33154761D01*
X100619047Y-33202380D01*
X100428571Y-33202380D01*
X100333333Y-33154761D01*
X100285714Y-33107142D01*
X100238095Y-33011904D01*
X100238095Y-32773809D01*
X100285714Y-32678571D01*
X100333333Y-32630952D01*
X100428571Y-32583333D01*
X100619047Y-32583333D01*
X100714285Y-32630952D01*
X100761904Y-32678571D01*
X100809523Y-32773809D01*
%TO.C,R21*%
X102142857Y-51202380D02*
X102476190Y-50726190D01*
X102714285Y-51202380D02*
X102714285Y-50202380D01*
X102333333Y-50202380D01*
X102238095Y-50250000D01*
X102190476Y-50297619D01*
X102142857Y-50392857D01*
X102142857Y-50535714D01*
X102190476Y-50630952D01*
X102238095Y-50678571D01*
X102333333Y-50726190D01*
X102714285Y-50726190D01*
X101761904Y-50297619D02*
X101714285Y-50250000D01*
X101619047Y-50202380D01*
X101380952Y-50202380D01*
X101285714Y-50250000D01*
X101238095Y-50297619D01*
X101190476Y-50392857D01*
X101190476Y-50488095D01*
X101238095Y-50630952D01*
X101809523Y-51202380D01*
X101190476Y-51202380D01*
X100238095Y-51202380D02*
X100809523Y-51202380D01*
X100523809Y-51202380D02*
X100523809Y-50202380D01*
X100619047Y-50345238D01*
X100714285Y-50440476D01*
X100809523Y-50488095D01*
%TO.C,R20*%
X102142857Y-66202380D02*
X102476190Y-65726190D01*
X102714285Y-66202380D02*
X102714285Y-65202380D01*
X102333333Y-65202380D01*
X102238095Y-65250000D01*
X102190476Y-65297619D01*
X102142857Y-65392857D01*
X102142857Y-65535714D01*
X102190476Y-65630952D01*
X102238095Y-65678571D01*
X102333333Y-65726190D01*
X102714285Y-65726190D01*
X101761904Y-65297619D02*
X101714285Y-65250000D01*
X101619047Y-65202380D01*
X101380952Y-65202380D01*
X101285714Y-65250000D01*
X101238095Y-65297619D01*
X101190476Y-65392857D01*
X101190476Y-65488095D01*
X101238095Y-65630952D01*
X101809523Y-66202380D01*
X101190476Y-66202380D01*
X100571428Y-65202380D02*
X100476190Y-65202380D01*
X100380952Y-65250000D01*
X100333333Y-65297619D01*
X100285714Y-65392857D01*
X100238095Y-65583333D01*
X100238095Y-65821428D01*
X100285714Y-66011904D01*
X100333333Y-66107142D01*
X100380952Y-66154761D01*
X100476190Y-66202380D01*
X100571428Y-66202380D01*
X100666666Y-66154761D01*
X100714285Y-66107142D01*
X100761904Y-66011904D01*
X100809523Y-65821428D01*
X100809523Y-65583333D01*
X100761904Y-65392857D01*
X100714285Y-65297619D01*
X100666666Y-65250000D01*
X100571428Y-65202380D01*
%TO.C,U3*%
X115011904Y-59352380D02*
X115011904Y-60161904D01*
X114964285Y-60257142D01*
X114916666Y-60304761D01*
X114821428Y-60352380D01*
X114630952Y-60352380D01*
X114535714Y-60304761D01*
X114488095Y-60257142D01*
X114440476Y-60161904D01*
X114440476Y-59352380D01*
X114059523Y-59352380D02*
X113440476Y-59352380D01*
X113773809Y-59733333D01*
X113630952Y-59733333D01*
X113535714Y-59780952D01*
X113488095Y-59828571D01*
X113440476Y-59923809D01*
X113440476Y-60161904D01*
X113488095Y-60257142D01*
X113535714Y-60304761D01*
X113630952Y-60352380D01*
X113916666Y-60352380D01*
X114011904Y-60304761D01*
X114059523Y-60257142D01*
%TO.C,C13*%
X175607142Y-41357142D02*
X175654761Y-41309523D01*
X175702380Y-41166666D01*
X175702380Y-41071428D01*
X175654761Y-40928571D01*
X175559523Y-40833333D01*
X175464285Y-40785714D01*
X175273809Y-40738095D01*
X175130952Y-40738095D01*
X174940476Y-40785714D01*
X174845238Y-40833333D01*
X174750000Y-40928571D01*
X174702380Y-41071428D01*
X174702380Y-41166666D01*
X174750000Y-41309523D01*
X174797619Y-41357142D01*
X175702380Y-42309523D02*
X175702380Y-41738095D01*
X175702380Y-42023809D02*
X174702380Y-42023809D01*
X174845238Y-41928571D01*
X174940476Y-41833333D01*
X174988095Y-41738095D01*
X174702380Y-42642857D02*
X174702380Y-43261904D01*
X175083333Y-42928571D01*
X175083333Y-43071428D01*
X175130952Y-43166666D01*
X175178571Y-43214285D01*
X175273809Y-43261904D01*
X175511904Y-43261904D01*
X175607142Y-43214285D01*
X175654761Y-43166666D01*
X175702380Y-43071428D01*
X175702380Y-42785714D01*
X175654761Y-42690476D01*
X175607142Y-42642857D01*
%TO.C,C14*%
X169677142Y-41357142D02*
X169724761Y-41309523D01*
X169772380Y-41166666D01*
X169772380Y-41071428D01*
X169724761Y-40928571D01*
X169629523Y-40833333D01*
X169534285Y-40785714D01*
X169343809Y-40738095D01*
X169200952Y-40738095D01*
X169010476Y-40785714D01*
X168915238Y-40833333D01*
X168820000Y-40928571D01*
X168772380Y-41071428D01*
X168772380Y-41166666D01*
X168820000Y-41309523D01*
X168867619Y-41357142D01*
X169772380Y-42309523D02*
X169772380Y-41738095D01*
X169772380Y-42023809D02*
X168772380Y-42023809D01*
X168915238Y-41928571D01*
X169010476Y-41833333D01*
X169058095Y-41738095D01*
X169105714Y-43166666D02*
X169772380Y-43166666D01*
X168724761Y-42928571D02*
X169439047Y-42690476D01*
X169439047Y-43309523D01*
%TO.C,C7*%
X275037142Y-81833333D02*
X275084761Y-81785714D01*
X275132380Y-81642857D01*
X275132380Y-81547619D01*
X275084761Y-81404761D01*
X274989523Y-81309523D01*
X274894285Y-81261904D01*
X274703809Y-81214285D01*
X274560952Y-81214285D01*
X274370476Y-81261904D01*
X274275238Y-81309523D01*
X274180000Y-81404761D01*
X274132380Y-81547619D01*
X274132380Y-81642857D01*
X274180000Y-81785714D01*
X274227619Y-81833333D01*
X274132380Y-82166666D02*
X274132380Y-82833333D01*
X275132380Y-82404761D01*
%TO.C,C8*%
X253037142Y-225833333D02*
X253084761Y-225785714D01*
X253132380Y-225642857D01*
X253132380Y-225547619D01*
X253084761Y-225404761D01*
X252989523Y-225309523D01*
X252894285Y-225261904D01*
X252703809Y-225214285D01*
X252560952Y-225214285D01*
X252370476Y-225261904D01*
X252275238Y-225309523D01*
X252180000Y-225404761D01*
X252132380Y-225547619D01*
X252132380Y-225642857D01*
X252180000Y-225785714D01*
X252227619Y-225833333D01*
X252560952Y-226404761D02*
X252513333Y-226309523D01*
X252465714Y-226261904D01*
X252370476Y-226214285D01*
X252322857Y-226214285D01*
X252227619Y-226261904D01*
X252180000Y-226309523D01*
X252132380Y-226404761D01*
X252132380Y-226595238D01*
X252180000Y-226690476D01*
X252227619Y-226738095D01*
X252322857Y-226785714D01*
X252370476Y-226785714D01*
X252465714Y-226738095D01*
X252513333Y-226690476D01*
X252560952Y-226595238D01*
X252560952Y-226404761D01*
X252608571Y-226309523D01*
X252656190Y-226261904D01*
X252751428Y-226214285D01*
X252941904Y-226214285D01*
X253037142Y-226261904D01*
X253084761Y-226309523D01*
X253132380Y-226404761D01*
X253132380Y-226595238D01*
X253084761Y-226690476D01*
X253037142Y-226738095D01*
X252941904Y-226785714D01*
X252751428Y-226785714D01*
X252656190Y-226738095D01*
X252608571Y-226690476D01*
X252560952Y-226595238D01*
%TO.C,C2*%
X282037142Y-113333333D02*
X282084761Y-113285714D01*
X282132380Y-113142857D01*
X282132380Y-113047619D01*
X282084761Y-112904761D01*
X281989523Y-112809523D01*
X281894285Y-112761904D01*
X281703809Y-112714285D01*
X281560952Y-112714285D01*
X281370476Y-112761904D01*
X281275238Y-112809523D01*
X281180000Y-112904761D01*
X281132380Y-113047619D01*
X281132380Y-113142857D01*
X281180000Y-113285714D01*
X281227619Y-113333333D01*
X281227619Y-113714285D02*
X281180000Y-113761904D01*
X281132380Y-113857142D01*
X281132380Y-114095238D01*
X281180000Y-114190476D01*
X281227619Y-114238095D01*
X281322857Y-114285714D01*
X281418095Y-114285714D01*
X281560952Y-114238095D01*
X282132380Y-113666666D01*
X282132380Y-114285714D01*
%TO.C,R7*%
X168166666Y-69022380D02*
X168500000Y-68546190D01*
X168738095Y-69022380D02*
X168738095Y-68022380D01*
X168357142Y-68022380D01*
X168261904Y-68070000D01*
X168214285Y-68117619D01*
X168166666Y-68212857D01*
X168166666Y-68355714D01*
X168214285Y-68450952D01*
X168261904Y-68498571D01*
X168357142Y-68546190D01*
X168738095Y-68546190D01*
X167833333Y-68022380D02*
X167166666Y-68022380D01*
X167595238Y-69022380D01*
%TO.C,C20*%
X102142857Y-64357142D02*
X102190476Y-64404761D01*
X102333333Y-64452380D01*
X102428571Y-64452380D01*
X102571428Y-64404761D01*
X102666666Y-64309523D01*
X102714285Y-64214285D01*
X102761904Y-64023809D01*
X102761904Y-63880952D01*
X102714285Y-63690476D01*
X102666666Y-63595238D01*
X102571428Y-63500000D01*
X102428571Y-63452380D01*
X102333333Y-63452380D01*
X102190476Y-63500000D01*
X102142857Y-63547619D01*
X101761904Y-63547619D02*
X101714285Y-63500000D01*
X101619047Y-63452380D01*
X101380952Y-63452380D01*
X101285714Y-63500000D01*
X101238095Y-63547619D01*
X101190476Y-63642857D01*
X101190476Y-63738095D01*
X101238095Y-63880952D01*
X101809523Y-64452380D01*
X101190476Y-64452380D01*
X100571428Y-63452380D02*
X100476190Y-63452380D01*
X100380952Y-63500000D01*
X100333333Y-63547619D01*
X100285714Y-63642857D01*
X100238095Y-63833333D01*
X100238095Y-64071428D01*
X100285714Y-64261904D01*
X100333333Y-64357142D01*
X100380952Y-64404761D01*
X100476190Y-64452380D01*
X100571428Y-64452380D01*
X100666666Y-64404761D01*
X100714285Y-64357142D01*
X100761904Y-64261904D01*
X100809523Y-64071428D01*
X100809523Y-63833333D01*
X100761904Y-63642857D01*
X100714285Y-63547619D01*
X100666666Y-63500000D01*
X100571428Y-63452380D01*
%TO.C,R10*%
X288642857Y-33022380D02*
X288976190Y-32546190D01*
X289214285Y-33022380D02*
X289214285Y-32022380D01*
X288833333Y-32022380D01*
X288738095Y-32070000D01*
X288690476Y-32117619D01*
X288642857Y-32212857D01*
X288642857Y-32355714D01*
X288690476Y-32450952D01*
X288738095Y-32498571D01*
X288833333Y-32546190D01*
X289214285Y-32546190D01*
X287690476Y-33022380D02*
X288261904Y-33022380D01*
X287976190Y-33022380D02*
X287976190Y-32022380D01*
X288071428Y-32165238D01*
X288166666Y-32260476D01*
X288261904Y-32308095D01*
X287071428Y-32022380D02*
X286976190Y-32022380D01*
X286880952Y-32070000D01*
X286833333Y-32117619D01*
X286785714Y-32212857D01*
X286738095Y-32403333D01*
X286738095Y-32641428D01*
X286785714Y-32831904D01*
X286833333Y-32927142D01*
X286880952Y-32974761D01*
X286976190Y-33022380D01*
X287071428Y-33022380D01*
X287166666Y-32974761D01*
X287214285Y-32927142D01*
X287261904Y-32831904D01*
X287309523Y-32641428D01*
X287309523Y-32403333D01*
X287261904Y-32212857D01*
X287214285Y-32117619D01*
X287166666Y-32070000D01*
X287071428Y-32022380D01*
%TO.C,C19*%
X105467857Y-44977142D02*
X105515476Y-45024761D01*
X105658333Y-45072380D01*
X105753571Y-45072380D01*
X105896428Y-45024761D01*
X105991666Y-44929523D01*
X106039285Y-44834285D01*
X106086904Y-44643809D01*
X106086904Y-44500952D01*
X106039285Y-44310476D01*
X105991666Y-44215238D01*
X105896428Y-44120000D01*
X105753571Y-44072380D01*
X105658333Y-44072380D01*
X105515476Y-44120000D01*
X105467857Y-44167619D01*
X104515476Y-45072380D02*
X105086904Y-45072380D01*
X104801190Y-45072380D02*
X104801190Y-44072380D01*
X104896428Y-44215238D01*
X104991666Y-44310476D01*
X105086904Y-44358095D01*
X104039285Y-45072380D02*
X103848809Y-45072380D01*
X103753571Y-45024761D01*
X103705952Y-44977142D01*
X103610714Y-44834285D01*
X103563095Y-44643809D01*
X103563095Y-44262857D01*
X103610714Y-44167619D01*
X103658333Y-44120000D01*
X103753571Y-44072380D01*
X103944047Y-44072380D01*
X104039285Y-44120000D01*
X104086904Y-44167619D01*
X104134523Y-44262857D01*
X104134523Y-44500952D01*
X104086904Y-44596190D01*
X104039285Y-44643809D01*
X103944047Y-44691428D01*
X103753571Y-44691428D01*
X103658333Y-44643809D01*
X103610714Y-44596190D01*
X103563095Y-44500952D01*
%TO.C,R5*%
X130166666Y-126022380D02*
X130500000Y-125546190D01*
X130738095Y-126022380D02*
X130738095Y-125022380D01*
X130357142Y-125022380D01*
X130261904Y-125070000D01*
X130214285Y-125117619D01*
X130166666Y-125212857D01*
X130166666Y-125355714D01*
X130214285Y-125450952D01*
X130261904Y-125498571D01*
X130357142Y-125546190D01*
X130738095Y-125546190D01*
X129261904Y-125022380D02*
X129738095Y-125022380D01*
X129785714Y-125498571D01*
X129738095Y-125450952D01*
X129642857Y-125403333D01*
X129404761Y-125403333D01*
X129309523Y-125450952D01*
X129261904Y-125498571D01*
X129214285Y-125593809D01*
X129214285Y-125831904D01*
X129261904Y-125927142D01*
X129309523Y-125974761D01*
X129404761Y-126022380D01*
X129642857Y-126022380D01*
X129738095Y-125974761D01*
X129785714Y-125927142D01*
%TO.C,R11*%
X255882380Y-73766234D02*
X255406190Y-73432901D01*
X255882380Y-73194806D02*
X254882380Y-73194806D01*
X254882380Y-73575758D01*
X254930000Y-73670996D01*
X254977619Y-73718615D01*
X255072857Y-73766234D01*
X255215714Y-73766234D01*
X255310952Y-73718615D01*
X255358571Y-73670996D01*
X255406190Y-73575758D01*
X255406190Y-73194806D01*
X255882380Y-74718615D02*
X255882380Y-74147187D01*
X255882380Y-74432901D02*
X254882380Y-74432901D01*
X255025238Y-74337663D01*
X255120476Y-74242425D01*
X255168095Y-74147187D01*
X255882380Y-75670996D02*
X255882380Y-75099568D01*
X255882380Y-75385282D02*
X254882380Y-75385282D01*
X255025238Y-75290044D01*
X255120476Y-75194806D01*
X255168095Y-75099568D01*
%TO.C,R9*%
X224166666Y-44022380D02*
X224500000Y-43546190D01*
X224738095Y-44022380D02*
X224738095Y-43022380D01*
X224357142Y-43022380D01*
X224261904Y-43070000D01*
X224214285Y-43117619D01*
X224166666Y-43212857D01*
X224166666Y-43355714D01*
X224214285Y-43450952D01*
X224261904Y-43498571D01*
X224357142Y-43546190D01*
X224738095Y-43546190D01*
X223690476Y-44022380D02*
X223500000Y-44022380D01*
X223404761Y-43974761D01*
X223357142Y-43927142D01*
X223261904Y-43784285D01*
X223214285Y-43593809D01*
X223214285Y-43212857D01*
X223261904Y-43117619D01*
X223309523Y-43070000D01*
X223404761Y-43022380D01*
X223595238Y-43022380D01*
X223690476Y-43070000D01*
X223738095Y-43117619D01*
X223785714Y-43212857D01*
X223785714Y-43450952D01*
X223738095Y-43546190D01*
X223690476Y-43593809D01*
X223595238Y-43641428D01*
X223404761Y-43641428D01*
X223309523Y-43593809D01*
X223261904Y-43546190D01*
X223214285Y-43450952D01*
%TO.C,D13*%
X174952380Y-30785714D02*
X173952380Y-30785714D01*
X173952380Y-31023809D01*
X174000000Y-31166666D01*
X174095238Y-31261904D01*
X174190476Y-31309523D01*
X174380952Y-31357142D01*
X174523809Y-31357142D01*
X174714285Y-31309523D01*
X174809523Y-31261904D01*
X174904761Y-31166666D01*
X174952380Y-31023809D01*
X174952380Y-30785714D01*
X174952380Y-32309523D02*
X174952380Y-31738095D01*
X174952380Y-32023809D02*
X173952380Y-32023809D01*
X174095238Y-31928571D01*
X174190476Y-31833333D01*
X174238095Y-31738095D01*
X173952380Y-32642857D02*
X173952380Y-33261904D01*
X174333333Y-32928571D01*
X174333333Y-33071428D01*
X174380952Y-33166666D01*
X174428571Y-33214285D01*
X174523809Y-33261904D01*
X174761904Y-33261904D01*
X174857142Y-33214285D01*
X174904761Y-33166666D01*
X174952380Y-33071428D01*
X174952380Y-32785714D01*
X174904761Y-32690476D01*
X174857142Y-32642857D01*
%TO.C,R24*%
X105467857Y-40132380D02*
X105801190Y-39656190D01*
X106039285Y-40132380D02*
X106039285Y-39132380D01*
X105658333Y-39132380D01*
X105563095Y-39180000D01*
X105515476Y-39227619D01*
X105467857Y-39322857D01*
X105467857Y-39465714D01*
X105515476Y-39560952D01*
X105563095Y-39608571D01*
X105658333Y-39656190D01*
X106039285Y-39656190D01*
X105086904Y-39227619D02*
X105039285Y-39180000D01*
X104944047Y-39132380D01*
X104705952Y-39132380D01*
X104610714Y-39180000D01*
X104563095Y-39227619D01*
X104515476Y-39322857D01*
X104515476Y-39418095D01*
X104563095Y-39560952D01*
X105134523Y-40132380D01*
X104515476Y-40132380D01*
X103658333Y-39465714D02*
X103658333Y-40132380D01*
X103896428Y-39084761D02*
X104134523Y-39799047D01*
X103515476Y-39799047D01*
%TO.C,R4*%
X212882380Y-128833333D02*
X212406190Y-128500000D01*
X212882380Y-128261904D02*
X211882380Y-128261904D01*
X211882380Y-128642857D01*
X211930000Y-128738095D01*
X211977619Y-128785714D01*
X212072857Y-128833333D01*
X212215714Y-128833333D01*
X212310952Y-128785714D01*
X212358571Y-128738095D01*
X212406190Y-128642857D01*
X212406190Y-128261904D01*
X212215714Y-129690476D02*
X212882380Y-129690476D01*
X211834761Y-129452380D02*
X212549047Y-129214285D01*
X212549047Y-129833333D01*
%TO.C,J1*%
X285437380Y-69666666D02*
X286151666Y-69666666D01*
X286294523Y-69619047D01*
X286389761Y-69523809D01*
X286437380Y-69380952D01*
X286437380Y-69285714D01*
X286437380Y-70666666D02*
X286437380Y-70095238D01*
X286437380Y-70380952D02*
X285437380Y-70380952D01*
X285580238Y-70285714D01*
X285675476Y-70190476D01*
X285723095Y-70095238D01*
D11*
X295063095Y-66500000D02*
X295063095Y-66666666D01*
X295313095Y-66559523D01*
X295289285Y-66761904D02*
X295301190Y-66773809D01*
X295313095Y-66761904D01*
X295301190Y-66750000D01*
X295289285Y-66761904D01*
X295313095Y-66761904D01*
X295063095Y-66857142D02*
X295063095Y-67011904D01*
X295158333Y-66928571D01*
X295158333Y-66964285D01*
X295170238Y-66988095D01*
X295182142Y-67000000D01*
X295205952Y-67011904D01*
X295265476Y-67011904D01*
X295289285Y-67000000D01*
X295301190Y-66988095D01*
X295313095Y-66964285D01*
X295313095Y-66892857D01*
X295301190Y-66869047D01*
X295289285Y-66857142D01*
X295063095Y-67238095D02*
X295063095Y-67119047D01*
X295182142Y-67107142D01*
X295170238Y-67119047D01*
X295158333Y-67142857D01*
X295158333Y-67202380D01*
X295170238Y-67226190D01*
X295182142Y-67238095D01*
X295205952Y-67250000D01*
X295265476Y-67250000D01*
X295289285Y-67238095D01*
X295301190Y-67226190D01*
X295313095Y-67202380D01*
X295313095Y-67142857D01*
X295301190Y-67119047D01*
X295289285Y-67107142D01*
X295313095Y-67357142D02*
X295146428Y-67357142D01*
X295170238Y-67357142D02*
X295158333Y-67369047D01*
X295146428Y-67392857D01*
X295146428Y-67428571D01*
X295158333Y-67452380D01*
X295182142Y-67464285D01*
X295313095Y-67464285D01*
X295182142Y-67464285D02*
X295158333Y-67476190D01*
X295146428Y-67500000D01*
X295146428Y-67535714D01*
X295158333Y-67559523D01*
X295182142Y-67571428D01*
X295313095Y-67571428D01*
X295313095Y-67690476D02*
X295146428Y-67690476D01*
X295170238Y-67690476D02*
X295158333Y-67702380D01*
X295146428Y-67726190D01*
X295146428Y-67761904D01*
X295158333Y-67785714D01*
X295182142Y-67797619D01*
X295313095Y-67797619D01*
X295182142Y-67797619D02*
X295158333Y-67809523D01*
X295146428Y-67833333D01*
X295146428Y-67869047D01*
X295158333Y-67892857D01*
X295182142Y-67904761D01*
X295313095Y-67904761D01*
X295146428Y-68178571D02*
X295146428Y-68273809D01*
X295313095Y-68214285D02*
X295098809Y-68214285D01*
X295075000Y-68226190D01*
X295063095Y-68250000D01*
X295063095Y-68273809D01*
X295313095Y-68357142D02*
X295146428Y-68357142D01*
X295194047Y-68357142D02*
X295170238Y-68369047D01*
X295158333Y-68380952D01*
X295146428Y-68404761D01*
X295146428Y-68428571D01*
X295313095Y-68547619D02*
X295301190Y-68523809D01*
X295289285Y-68511904D01*
X295265476Y-68500000D01*
X295194047Y-68500000D01*
X295170238Y-68511904D01*
X295158333Y-68523809D01*
X295146428Y-68547619D01*
X295146428Y-68583333D01*
X295158333Y-68607142D01*
X295170238Y-68619047D01*
X295194047Y-68630952D01*
X295265476Y-68630952D01*
X295289285Y-68619047D01*
X295301190Y-68607142D01*
X295313095Y-68583333D01*
X295313095Y-68547619D01*
X295313095Y-68738095D02*
X295146428Y-68738095D01*
X295170238Y-68738095D02*
X295158333Y-68750000D01*
X295146428Y-68773809D01*
X295146428Y-68809523D01*
X295158333Y-68833333D01*
X295182142Y-68845238D01*
X295313095Y-68845238D01*
X295182142Y-68845238D02*
X295158333Y-68857142D01*
X295146428Y-68880952D01*
X295146428Y-68916666D01*
X295158333Y-68940476D01*
X295182142Y-68952380D01*
X295313095Y-68952380D01*
X295313095Y-69261904D02*
X295063095Y-69261904D01*
X295158333Y-69261904D02*
X295146428Y-69285714D01*
X295146428Y-69333333D01*
X295158333Y-69357142D01*
X295170238Y-69369047D01*
X295194047Y-69380952D01*
X295265476Y-69380952D01*
X295289285Y-69369047D01*
X295301190Y-69357142D01*
X295313095Y-69333333D01*
X295313095Y-69285714D01*
X295301190Y-69261904D01*
X295313095Y-69595238D02*
X295182142Y-69595238D01*
X295158333Y-69583333D01*
X295146428Y-69559523D01*
X295146428Y-69511904D01*
X295158333Y-69488095D01*
X295301190Y-69595238D02*
X295313095Y-69571428D01*
X295313095Y-69511904D01*
X295301190Y-69488095D01*
X295277380Y-69476190D01*
X295253571Y-69476190D01*
X295229761Y-69488095D01*
X295217857Y-69511904D01*
X295217857Y-69571428D01*
X295205952Y-69595238D01*
X295301190Y-69821428D02*
X295313095Y-69797619D01*
X295313095Y-69750000D01*
X295301190Y-69726190D01*
X295289285Y-69714285D01*
X295265476Y-69702380D01*
X295194047Y-69702380D01*
X295170238Y-69714285D01*
X295158333Y-69726190D01*
X295146428Y-69750000D01*
X295146428Y-69797619D01*
X295158333Y-69821428D01*
X295313095Y-69928571D02*
X295063095Y-69928571D01*
X295217857Y-69952380D02*
X295313095Y-70023809D01*
X295146428Y-70023809D02*
X295241666Y-69928571D01*
X295313095Y-70357142D02*
X295301190Y-70333333D01*
X295289285Y-70321428D01*
X295265476Y-70309523D01*
X295194047Y-70309523D01*
X295170238Y-70321428D01*
X295158333Y-70333333D01*
X295146428Y-70357142D01*
X295146428Y-70392857D01*
X295158333Y-70416666D01*
X295170238Y-70428571D01*
X295194047Y-70440476D01*
X295265476Y-70440476D01*
X295289285Y-70428571D01*
X295301190Y-70416666D01*
X295313095Y-70392857D01*
X295313095Y-70357142D01*
X295146428Y-70511904D02*
X295146428Y-70607142D01*
X295313095Y-70547619D02*
X295098809Y-70547619D01*
X295075000Y-70559523D01*
X295063095Y-70583333D01*
X295063095Y-70607142D01*
X295313095Y-70880952D02*
X295146428Y-70880952D01*
X295170238Y-70880952D02*
X295158333Y-70892857D01*
X295146428Y-70916666D01*
X295146428Y-70952380D01*
X295158333Y-70976190D01*
X295182142Y-70988095D01*
X295313095Y-70988095D01*
X295182142Y-70988095D02*
X295158333Y-71000000D01*
X295146428Y-71023809D01*
X295146428Y-71059523D01*
X295158333Y-71083333D01*
X295182142Y-71095238D01*
X295313095Y-71095238D01*
X295313095Y-71250000D02*
X295301190Y-71226190D01*
X295289285Y-71214285D01*
X295265476Y-71202380D01*
X295194047Y-71202380D01*
X295170238Y-71214285D01*
X295158333Y-71226190D01*
X295146428Y-71250000D01*
X295146428Y-71285714D01*
X295158333Y-71309523D01*
X295170238Y-71321428D01*
X295194047Y-71333333D01*
X295265476Y-71333333D01*
X295289285Y-71321428D01*
X295301190Y-71309523D01*
X295313095Y-71285714D01*
X295313095Y-71250000D01*
X295146428Y-71547619D02*
X295313095Y-71547619D01*
X295146428Y-71440476D02*
X295277380Y-71440476D01*
X295301190Y-71452380D01*
X295313095Y-71476190D01*
X295313095Y-71511904D01*
X295301190Y-71535714D01*
X295289285Y-71547619D01*
X295146428Y-71666666D02*
X295313095Y-71666666D01*
X295170238Y-71666666D02*
X295158333Y-71678571D01*
X295146428Y-71702380D01*
X295146428Y-71738095D01*
X295158333Y-71761904D01*
X295182142Y-71773809D01*
X295313095Y-71773809D01*
X295146428Y-71857142D02*
X295146428Y-71952380D01*
X295063095Y-71892857D02*
X295277380Y-71892857D01*
X295301190Y-71904761D01*
X295313095Y-71928571D01*
X295313095Y-71952380D01*
X295313095Y-72035714D02*
X295146428Y-72035714D01*
X295063095Y-72035714D02*
X295075000Y-72023809D01*
X295086904Y-72035714D01*
X295075000Y-72047619D01*
X295063095Y-72035714D01*
X295086904Y-72035714D01*
X295146428Y-72154761D02*
X295313095Y-72154761D01*
X295170238Y-72154761D02*
X295158333Y-72166666D01*
X295146428Y-72190476D01*
X295146428Y-72226190D01*
X295158333Y-72250000D01*
X295182142Y-72261904D01*
X295313095Y-72261904D01*
X295146428Y-72488095D02*
X295348809Y-72488095D01*
X295372619Y-72476190D01*
X295384523Y-72464285D01*
X295396428Y-72440476D01*
X295396428Y-72404761D01*
X295384523Y-72380952D01*
X295301190Y-72488095D02*
X295313095Y-72464285D01*
X295313095Y-72416666D01*
X295301190Y-72392857D01*
X295289285Y-72380952D01*
X295265476Y-72369047D01*
X295194047Y-72369047D01*
X295170238Y-72380952D01*
X295158333Y-72392857D01*
X295146428Y-72416666D01*
X295146428Y-72464285D01*
X295158333Y-72488095D01*
X295313095Y-72797619D02*
X295063095Y-72797619D01*
X295313095Y-72904761D02*
X295182142Y-72904761D01*
X295158333Y-72892857D01*
X295146428Y-72869047D01*
X295146428Y-72833333D01*
X295158333Y-72809523D01*
X295170238Y-72797619D01*
X295313095Y-73059523D02*
X295301190Y-73035714D01*
X295289285Y-73023809D01*
X295265476Y-73011904D01*
X295194047Y-73011904D01*
X295170238Y-73023809D01*
X295158333Y-73035714D01*
X295146428Y-73059523D01*
X295146428Y-73095238D01*
X295158333Y-73119047D01*
X295170238Y-73130952D01*
X295194047Y-73142857D01*
X295265476Y-73142857D01*
X295289285Y-73130952D01*
X295301190Y-73119047D01*
X295313095Y-73095238D01*
X295313095Y-73059523D01*
X295313095Y-73285714D02*
X295301190Y-73261904D01*
X295277380Y-73250000D01*
X295063095Y-73250000D01*
X295301190Y-73476190D02*
X295313095Y-73452380D01*
X295313095Y-73404761D01*
X295301190Y-73380952D01*
X295277380Y-73369047D01*
X295182142Y-73369047D01*
X295158333Y-73380952D01*
X295146428Y-73404761D01*
X295146428Y-73452380D01*
X295158333Y-73476190D01*
X295182142Y-73488095D01*
X295205952Y-73488095D01*
X295229761Y-73369047D01*
D10*
%TO.C,C10*%
X282037142Y-41307142D02*
X282084761Y-41259523D01*
X282132380Y-41116666D01*
X282132380Y-41021428D01*
X282084761Y-40878571D01*
X281989523Y-40783333D01*
X281894285Y-40735714D01*
X281703809Y-40688095D01*
X281560952Y-40688095D01*
X281370476Y-40735714D01*
X281275238Y-40783333D01*
X281180000Y-40878571D01*
X281132380Y-41021428D01*
X281132380Y-41116666D01*
X281180000Y-41259523D01*
X281227619Y-41307142D01*
X282132380Y-42259523D02*
X282132380Y-41688095D01*
X282132380Y-41973809D02*
X281132380Y-41973809D01*
X281275238Y-41878571D01*
X281370476Y-41783333D01*
X281418095Y-41688095D01*
X281132380Y-42878571D02*
X281132380Y-42973809D01*
X281180000Y-43069047D01*
X281227619Y-43116666D01*
X281322857Y-43164285D01*
X281513333Y-43211904D01*
X281751428Y-43211904D01*
X281941904Y-43164285D01*
X282037142Y-43116666D01*
X282084761Y-43069047D01*
X282132380Y-42973809D01*
X282132380Y-42878571D01*
X282084761Y-42783333D01*
X282037142Y-42735714D01*
X281941904Y-42688095D01*
X281751428Y-42640476D01*
X281513333Y-42640476D01*
X281322857Y-42688095D01*
X281227619Y-42735714D01*
X281180000Y-42783333D01*
X281132380Y-42878571D01*
%TO.C,U4*%
X115011904Y-44352380D02*
X115011904Y-45161904D01*
X114964285Y-45257142D01*
X114916666Y-45304761D01*
X114821428Y-45352380D01*
X114630952Y-45352380D01*
X114535714Y-45304761D01*
X114488095Y-45257142D01*
X114440476Y-45161904D01*
X114440476Y-44352380D01*
X113535714Y-44685714D02*
X113535714Y-45352380D01*
X113773809Y-44304761D02*
X114011904Y-45019047D01*
X113392857Y-45019047D01*
%TO.C,R8*%
X190166666Y-77422380D02*
X190500000Y-76946190D01*
X190738095Y-77422380D02*
X190738095Y-76422380D01*
X190357142Y-76422380D01*
X190261904Y-76470000D01*
X190214285Y-76517619D01*
X190166666Y-76612857D01*
X190166666Y-76755714D01*
X190214285Y-76850952D01*
X190261904Y-76898571D01*
X190357142Y-76946190D01*
X190738095Y-76946190D01*
X189595238Y-76850952D02*
X189690476Y-76803333D01*
X189738095Y-76755714D01*
X189785714Y-76660476D01*
X189785714Y-76612857D01*
X189738095Y-76517619D01*
X189690476Y-76470000D01*
X189595238Y-76422380D01*
X189404761Y-76422380D01*
X189309523Y-76470000D01*
X189261904Y-76517619D01*
X189214285Y-76612857D01*
X189214285Y-76660476D01*
X189261904Y-76755714D01*
X189309523Y-76803333D01*
X189404761Y-76850952D01*
X189595238Y-76850952D01*
X189690476Y-76898571D01*
X189738095Y-76946190D01*
X189785714Y-77041428D01*
X189785714Y-77231904D01*
X189738095Y-77327142D01*
X189690476Y-77374761D01*
X189595238Y-77422380D01*
X189404761Y-77422380D01*
X189309523Y-77374761D01*
X189261904Y-77327142D01*
X189214285Y-77231904D01*
X189214285Y-77041428D01*
X189261904Y-76946190D01*
X189309523Y-76898571D01*
X189404761Y-76850952D01*
%TO.C,C6*%
X207987142Y-34833333D02*
X208034761Y-34785714D01*
X208082380Y-34642857D01*
X208082380Y-34547619D01*
X208034761Y-34404761D01*
X207939523Y-34309523D01*
X207844285Y-34261904D01*
X207653809Y-34214285D01*
X207510952Y-34214285D01*
X207320476Y-34261904D01*
X207225238Y-34309523D01*
X207130000Y-34404761D01*
X207082380Y-34547619D01*
X207082380Y-34642857D01*
X207130000Y-34785714D01*
X207177619Y-34833333D01*
X207082380Y-35690476D02*
X207082380Y-35500000D01*
X207130000Y-35404761D01*
X207177619Y-35357142D01*
X207320476Y-35261904D01*
X207510952Y-35214285D01*
X207891904Y-35214285D01*
X207987142Y-35261904D01*
X208034761Y-35309523D01*
X208082380Y-35404761D01*
X208082380Y-35595238D01*
X208034761Y-35690476D01*
X207987142Y-35738095D01*
X207891904Y-35785714D01*
X207653809Y-35785714D01*
X207558571Y-35738095D01*
X207510952Y-35690476D01*
X207463333Y-35595238D01*
X207463333Y-35404761D01*
X207510952Y-35309523D01*
X207558571Y-35261904D01*
X207653809Y-35214285D01*
%TO.C,R18*%
X102142857Y-52952380D02*
X102476190Y-52476190D01*
X102714285Y-52952380D02*
X102714285Y-51952380D01*
X102333333Y-51952380D01*
X102238095Y-52000000D01*
X102190476Y-52047619D01*
X102142857Y-52142857D01*
X102142857Y-52285714D01*
X102190476Y-52380952D01*
X102238095Y-52428571D01*
X102333333Y-52476190D01*
X102714285Y-52476190D01*
X101190476Y-52952380D02*
X101761904Y-52952380D01*
X101476190Y-52952380D02*
X101476190Y-51952380D01*
X101571428Y-52095238D01*
X101666666Y-52190476D01*
X101761904Y-52238095D01*
X100619047Y-52380952D02*
X100714285Y-52333333D01*
X100761904Y-52285714D01*
X100809523Y-52190476D01*
X100809523Y-52142857D01*
X100761904Y-52047619D01*
X100714285Y-52000000D01*
X100619047Y-51952380D01*
X100428571Y-51952380D01*
X100333333Y-52000000D01*
X100285714Y-52047619D01*
X100238095Y-52142857D01*
X100238095Y-52190476D01*
X100285714Y-52285714D01*
X100333333Y-52333333D01*
X100428571Y-52380952D01*
X100619047Y-52380952D01*
X100714285Y-52428571D01*
X100761904Y-52476190D01*
X100809523Y-52571428D01*
X100809523Y-52761904D01*
X100761904Y-52857142D01*
X100714285Y-52904761D01*
X100619047Y-52952380D01*
X100428571Y-52952380D01*
X100333333Y-52904761D01*
X100285714Y-52857142D01*
X100238095Y-52761904D01*
X100238095Y-52571428D01*
X100285714Y-52476190D01*
X100333333Y-52428571D01*
X100428571Y-52380952D01*
%TO.C,R16*%
X291142857Y-78882380D02*
X291476190Y-78406190D01*
X291714285Y-78882380D02*
X291714285Y-77882380D01*
X291333333Y-77882380D01*
X291238095Y-77930000D01*
X291190476Y-77977619D01*
X291142857Y-78072857D01*
X291142857Y-78215714D01*
X291190476Y-78310952D01*
X291238095Y-78358571D01*
X291333333Y-78406190D01*
X291714285Y-78406190D01*
X290190476Y-78882380D02*
X290761904Y-78882380D01*
X290476190Y-78882380D02*
X290476190Y-77882380D01*
X290571428Y-78025238D01*
X290666666Y-78120476D01*
X290761904Y-78168095D01*
X289333333Y-77882380D02*
X289523809Y-77882380D01*
X289619047Y-77930000D01*
X289666666Y-77977619D01*
X289761904Y-78120476D01*
X289809523Y-78310952D01*
X289809523Y-78691904D01*
X289761904Y-78787142D01*
X289714285Y-78834761D01*
X289619047Y-78882380D01*
X289428571Y-78882380D01*
X289333333Y-78834761D01*
X289285714Y-78787142D01*
X289238095Y-78691904D01*
X289238095Y-78453809D01*
X289285714Y-78358571D01*
X289333333Y-78310952D01*
X289428571Y-78263333D01*
X289619047Y-78263333D01*
X289714285Y-78310952D01*
X289761904Y-78358571D01*
X289809523Y-78453809D01*
%TO.C,R3*%
X240166666Y-240022380D02*
X240500000Y-239546190D01*
X240738095Y-240022380D02*
X240738095Y-239022380D01*
X240357142Y-239022380D01*
X240261904Y-239070000D01*
X240214285Y-239117619D01*
X240166666Y-239212857D01*
X240166666Y-239355714D01*
X240214285Y-239450952D01*
X240261904Y-239498571D01*
X240357142Y-239546190D01*
X240738095Y-239546190D01*
X239833333Y-239022380D02*
X239214285Y-239022380D01*
X239547619Y-239403333D01*
X239404761Y-239403333D01*
X239309523Y-239450952D01*
X239261904Y-239498571D01*
X239214285Y-239593809D01*
X239214285Y-239831904D01*
X239261904Y-239927142D01*
X239309523Y-239974761D01*
X239404761Y-240022380D01*
X239690476Y-240022380D01*
X239785714Y-239974761D01*
X239833333Y-239927142D01*
%TO.C,R17*%
X102392857Y-35202380D02*
X102726190Y-34726190D01*
X102964285Y-35202380D02*
X102964285Y-34202380D01*
X102583333Y-34202380D01*
X102488095Y-34250000D01*
X102440476Y-34297619D01*
X102392857Y-34392857D01*
X102392857Y-34535714D01*
X102440476Y-34630952D01*
X102488095Y-34678571D01*
X102583333Y-34726190D01*
X102964285Y-34726190D01*
X101440476Y-35202380D02*
X102011904Y-35202380D01*
X101726190Y-35202380D02*
X101726190Y-34202380D01*
X101821428Y-34345238D01*
X101916666Y-34440476D01*
X102011904Y-34488095D01*
X101107142Y-34202380D02*
X100440476Y-34202380D01*
X100869047Y-35202380D01*
%TO.C,R23*%
X102392857Y-36952380D02*
X102726190Y-36476190D01*
X102964285Y-36952380D02*
X102964285Y-35952380D01*
X102583333Y-35952380D01*
X102488095Y-36000000D01*
X102440476Y-36047619D01*
X102392857Y-36142857D01*
X102392857Y-36285714D01*
X102440476Y-36380952D01*
X102488095Y-36428571D01*
X102583333Y-36476190D01*
X102964285Y-36476190D01*
X102011904Y-36047619D02*
X101964285Y-36000000D01*
X101869047Y-35952380D01*
X101630952Y-35952380D01*
X101535714Y-36000000D01*
X101488095Y-36047619D01*
X101440476Y-36142857D01*
X101440476Y-36238095D01*
X101488095Y-36380952D01*
X102059523Y-36952380D01*
X101440476Y-36952380D01*
X101107142Y-35952380D02*
X100488095Y-35952380D01*
X100821428Y-36333333D01*
X100678571Y-36333333D01*
X100583333Y-36380952D01*
X100535714Y-36428571D01*
X100488095Y-36523809D01*
X100488095Y-36761904D01*
X100535714Y-36857142D01*
X100583333Y-36904761D01*
X100678571Y-36952380D01*
X100964285Y-36952380D01*
X101059523Y-36904761D01*
X101107142Y-36857142D01*
%TO.C,R6*%
X89166666Y-134022380D02*
X89500000Y-133546190D01*
X89738095Y-134022380D02*
X89738095Y-133022380D01*
X89357142Y-133022380D01*
X89261904Y-133070000D01*
X89214285Y-133117619D01*
X89166666Y-133212857D01*
X89166666Y-133355714D01*
X89214285Y-133450952D01*
X89261904Y-133498571D01*
X89357142Y-133546190D01*
X89738095Y-133546190D01*
X88309523Y-133022380D02*
X88500000Y-133022380D01*
X88595238Y-133070000D01*
X88642857Y-133117619D01*
X88738095Y-133260476D01*
X88785714Y-133450952D01*
X88785714Y-133831904D01*
X88738095Y-133927142D01*
X88690476Y-133974761D01*
X88595238Y-134022380D01*
X88404761Y-134022380D01*
X88309523Y-133974761D01*
X88261904Y-133927142D01*
X88214285Y-133831904D01*
X88214285Y-133593809D01*
X88261904Y-133498571D01*
X88309523Y-133450952D01*
X88404761Y-133403333D01*
X88595238Y-133403333D01*
X88690476Y-133450952D01*
X88738095Y-133498571D01*
X88785714Y-133593809D01*
%TO.C,C18*%
X102142857Y-49107142D02*
X102190476Y-49154761D01*
X102333333Y-49202380D01*
X102428571Y-49202380D01*
X102571428Y-49154761D01*
X102666666Y-49059523D01*
X102714285Y-48964285D01*
X102761904Y-48773809D01*
X102761904Y-48630952D01*
X102714285Y-48440476D01*
X102666666Y-48345238D01*
X102571428Y-48250000D01*
X102428571Y-48202380D01*
X102333333Y-48202380D01*
X102190476Y-48250000D01*
X102142857Y-48297619D01*
X101190476Y-49202380D02*
X101761904Y-49202380D01*
X101476190Y-49202380D02*
X101476190Y-48202380D01*
X101571428Y-48345238D01*
X101666666Y-48440476D01*
X101761904Y-48488095D01*
X100619047Y-48630952D02*
X100714285Y-48583333D01*
X100761904Y-48535714D01*
X100809523Y-48440476D01*
X100809523Y-48392857D01*
X100761904Y-48297619D01*
X100714285Y-48250000D01*
X100619047Y-48202380D01*
X100428571Y-48202380D01*
X100333333Y-48250000D01*
X100285714Y-48297619D01*
X100238095Y-48392857D01*
X100238095Y-48440476D01*
X100285714Y-48535714D01*
X100333333Y-48583333D01*
X100428571Y-48630952D01*
X100619047Y-48630952D01*
X100714285Y-48678571D01*
X100761904Y-48726190D01*
X100809523Y-48821428D01*
X100809523Y-49011904D01*
X100761904Y-49107142D01*
X100714285Y-49154761D01*
X100619047Y-49202380D01*
X100428571Y-49202380D01*
X100333333Y-49154761D01*
X100285714Y-49107142D01*
X100238095Y-49011904D01*
X100238095Y-48821428D01*
X100285714Y-48726190D01*
X100333333Y-48678571D01*
X100428571Y-48630952D01*
%TO.C,R13*%
X236642857Y-31022380D02*
X236976190Y-30546190D01*
X237214285Y-31022380D02*
X237214285Y-30022380D01*
X236833333Y-30022380D01*
X236738095Y-30070000D01*
X236690476Y-30117619D01*
X236642857Y-30212857D01*
X236642857Y-30355714D01*
X236690476Y-30450952D01*
X236738095Y-30498571D01*
X236833333Y-30546190D01*
X237214285Y-30546190D01*
X235690476Y-31022380D02*
X236261904Y-31022380D01*
X235976190Y-31022380D02*
X235976190Y-30022380D01*
X236071428Y-30165238D01*
X236166666Y-30260476D01*
X236261904Y-30308095D01*
X235357142Y-30022380D02*
X234738095Y-30022380D01*
X235071428Y-30403333D01*
X234928571Y-30403333D01*
X234833333Y-30450952D01*
X234785714Y-30498571D01*
X234738095Y-30593809D01*
X234738095Y-30831904D01*
X234785714Y-30927142D01*
X234833333Y-30974761D01*
X234928571Y-31022380D01*
X235214285Y-31022380D01*
X235309523Y-30974761D01*
X235357142Y-30927142D01*
%TO.C,R2*%
X275166666Y-159022380D02*
X275500000Y-158546190D01*
X275738095Y-159022380D02*
X275738095Y-158022380D01*
X275357142Y-158022380D01*
X275261904Y-158070000D01*
X275214285Y-158117619D01*
X275166666Y-158212857D01*
X275166666Y-158355714D01*
X275214285Y-158450952D01*
X275261904Y-158498571D01*
X275357142Y-158546190D01*
X275738095Y-158546190D01*
X274785714Y-158117619D02*
X274738095Y-158070000D01*
X274642857Y-158022380D01*
X274404761Y-158022380D01*
X274309523Y-158070000D01*
X274261904Y-158117619D01*
X274214285Y-158212857D01*
X274214285Y-158308095D01*
X274261904Y-158450952D01*
X274833333Y-159022380D01*
X274214285Y-159022380D01*
%TO.C,R22*%
X102142857Y-67952380D02*
X102476190Y-67476190D01*
X102714285Y-67952380D02*
X102714285Y-66952380D01*
X102333333Y-66952380D01*
X102238095Y-67000000D01*
X102190476Y-67047619D01*
X102142857Y-67142857D01*
X102142857Y-67285714D01*
X102190476Y-67380952D01*
X102238095Y-67428571D01*
X102333333Y-67476190D01*
X102714285Y-67476190D01*
X101761904Y-67047619D02*
X101714285Y-67000000D01*
X101619047Y-66952380D01*
X101380952Y-66952380D01*
X101285714Y-67000000D01*
X101238095Y-67047619D01*
X101190476Y-67142857D01*
X101190476Y-67238095D01*
X101238095Y-67380952D01*
X101809523Y-67952380D01*
X101190476Y-67952380D01*
X100809523Y-67047619D02*
X100761904Y-67000000D01*
X100666666Y-66952380D01*
X100428571Y-66952380D01*
X100333333Y-67000000D01*
X100285714Y-67047619D01*
X100238095Y-67142857D01*
X100238095Y-67238095D01*
X100285714Y-67380952D01*
X100857142Y-67952380D01*
X100238095Y-67952380D01*
%TO.C,C4*%
X154037142Y-49833333D02*
X154084761Y-49785714D01*
X154132380Y-49642857D01*
X154132380Y-49547619D01*
X154084761Y-49404761D01*
X153989523Y-49309523D01*
X153894285Y-49261904D01*
X153703809Y-49214285D01*
X153560952Y-49214285D01*
X153370476Y-49261904D01*
X153275238Y-49309523D01*
X153180000Y-49404761D01*
X153132380Y-49547619D01*
X153132380Y-49642857D01*
X153180000Y-49785714D01*
X153227619Y-49833333D01*
X153465714Y-50690476D02*
X154132380Y-50690476D01*
X153084761Y-50452380D02*
X153799047Y-50214285D01*
X153799047Y-50833333D01*
%TO.C,C11*%
X239037142Y-21307142D02*
X239084761Y-21259523D01*
X239132380Y-21116666D01*
X239132380Y-21021428D01*
X239084761Y-20878571D01*
X238989523Y-20783333D01*
X238894285Y-20735714D01*
X238703809Y-20688095D01*
X238560952Y-20688095D01*
X238370476Y-20735714D01*
X238275238Y-20783333D01*
X238180000Y-20878571D01*
X238132380Y-21021428D01*
X238132380Y-21116666D01*
X238180000Y-21259523D01*
X238227619Y-21307142D01*
X239132380Y-22259523D02*
X239132380Y-21688095D01*
X239132380Y-21973809D02*
X238132380Y-21973809D01*
X238275238Y-21878571D01*
X238370476Y-21783333D01*
X238418095Y-21688095D01*
X239132380Y-23211904D02*
X239132380Y-22640476D01*
X239132380Y-22926190D02*
X238132380Y-22926190D01*
X238275238Y-22830952D01*
X238370476Y-22735714D01*
X238418095Y-22640476D01*
%TO.C,C3*%
X279987142Y-150833333D02*
X280034761Y-150785714D01*
X280082380Y-150642857D01*
X280082380Y-150547619D01*
X280034761Y-150404761D01*
X279939523Y-150309523D01*
X279844285Y-150261904D01*
X279653809Y-150214285D01*
X279510952Y-150214285D01*
X279320476Y-150261904D01*
X279225238Y-150309523D01*
X279130000Y-150404761D01*
X279082380Y-150547619D01*
X279082380Y-150642857D01*
X279130000Y-150785714D01*
X279177619Y-150833333D01*
X279082380Y-151166666D02*
X279082380Y-151785714D01*
X279463333Y-151452380D01*
X279463333Y-151595238D01*
X279510952Y-151690476D01*
X279558571Y-151738095D01*
X279653809Y-151785714D01*
X279891904Y-151785714D01*
X279987142Y-151738095D01*
X280034761Y-151690476D01*
X280082380Y-151595238D01*
X280082380Y-151309523D01*
X280034761Y-151214285D01*
X279987142Y-151166666D01*
%TO.C,C15*%
X170537142Y-32357142D02*
X170584761Y-32309523D01*
X170632380Y-32166666D01*
X170632380Y-32071428D01*
X170584761Y-31928571D01*
X170489523Y-31833333D01*
X170394285Y-31785714D01*
X170203809Y-31738095D01*
X170060952Y-31738095D01*
X169870476Y-31785714D01*
X169775238Y-31833333D01*
X169680000Y-31928571D01*
X169632380Y-32071428D01*
X169632380Y-32166666D01*
X169680000Y-32309523D01*
X169727619Y-32357142D01*
X170632380Y-33309523D02*
X170632380Y-32738095D01*
X170632380Y-33023809D02*
X169632380Y-33023809D01*
X169775238Y-32928571D01*
X169870476Y-32833333D01*
X169918095Y-32738095D01*
X169632380Y-34214285D02*
X169632380Y-33738095D01*
X170108571Y-33690476D01*
X170060952Y-33738095D01*
X170013333Y-33833333D01*
X170013333Y-34071428D01*
X170060952Y-34166666D01*
X170108571Y-34214285D01*
X170203809Y-34261904D01*
X170441904Y-34261904D01*
X170537142Y-34214285D01*
X170584761Y-34166666D01*
X170632380Y-34071428D01*
X170632380Y-33833333D01*
X170584761Y-33738095D01*
X170537142Y-33690476D01*
%TO.C,R25*%
X105467857Y-71132380D02*
X105801190Y-70656190D01*
X106039285Y-71132380D02*
X106039285Y-70132380D01*
X105658333Y-70132380D01*
X105563095Y-70180000D01*
X105515476Y-70227619D01*
X105467857Y-70322857D01*
X105467857Y-70465714D01*
X105515476Y-70560952D01*
X105563095Y-70608571D01*
X105658333Y-70656190D01*
X106039285Y-70656190D01*
X105086904Y-70227619D02*
X105039285Y-70180000D01*
X104944047Y-70132380D01*
X104705952Y-70132380D01*
X104610714Y-70180000D01*
X104563095Y-70227619D01*
X104515476Y-70322857D01*
X104515476Y-70418095D01*
X104563095Y-70560952D01*
X105134523Y-71132380D01*
X104515476Y-71132380D01*
X103610714Y-70132380D02*
X104086904Y-70132380D01*
X104134523Y-70608571D01*
X104086904Y-70560952D01*
X103991666Y-70513333D01*
X103753571Y-70513333D01*
X103658333Y-70560952D01*
X103610714Y-70608571D01*
X103563095Y-70703809D01*
X103563095Y-70941904D01*
X103610714Y-71037142D01*
X103658333Y-71084761D01*
X103753571Y-71132380D01*
X103991666Y-71132380D01*
X104086904Y-71084761D01*
X104134523Y-71037142D01*
%TO.C,R12*%
X275240587Y-127522380D02*
X275573920Y-127046190D01*
X275812015Y-127522380D02*
X275812015Y-126522380D01*
X275431063Y-126522380D01*
X275335825Y-126570000D01*
X275288206Y-126617619D01*
X275240587Y-126712857D01*
X275240587Y-126855714D01*
X275288206Y-126950952D01*
X275335825Y-126998571D01*
X275431063Y-127046190D01*
X275812015Y-127046190D01*
X274288206Y-127522380D02*
X274859634Y-127522380D01*
X274573920Y-127522380D02*
X274573920Y-126522380D01*
X274669158Y-126665238D01*
X274764396Y-126760476D01*
X274859634Y-126808095D01*
X273907253Y-126617619D02*
X273859634Y-126570000D01*
X273764396Y-126522380D01*
X273526301Y-126522380D01*
X273431063Y-126570000D01*
X273383444Y-126617619D01*
X273335825Y-126712857D01*
X273335825Y-126808095D01*
X273383444Y-126950952D01*
X273954872Y-127522380D01*
X273335825Y-127522380D01*
%TO.C,C1*%
X204037142Y-59833333D02*
X204084761Y-59785714D01*
X204132380Y-59642857D01*
X204132380Y-59547619D01*
X204084761Y-59404761D01*
X203989523Y-59309523D01*
X203894285Y-59261904D01*
X203703809Y-59214285D01*
X203560952Y-59214285D01*
X203370476Y-59261904D01*
X203275238Y-59309523D01*
X203180000Y-59404761D01*
X203132380Y-59547619D01*
X203132380Y-59642857D01*
X203180000Y-59785714D01*
X203227619Y-59833333D01*
X204132380Y-60785714D02*
X204132380Y-60214285D01*
X204132380Y-60500000D02*
X203132380Y-60500000D01*
X203275238Y-60404761D01*
X203370476Y-60309523D01*
X203418095Y-60214285D01*
%TO.C,R1*%
X219382380Y-25893333D02*
X218906190Y-25560000D01*
X219382380Y-25321904D02*
X218382380Y-25321904D01*
X218382380Y-25702857D01*
X218430000Y-25798095D01*
X218477619Y-25845714D01*
X218572857Y-25893333D01*
X218715714Y-25893333D01*
X218810952Y-25845714D01*
X218858571Y-25798095D01*
X218906190Y-25702857D01*
X218906190Y-25321904D01*
X219382380Y-26845714D02*
X219382380Y-26274285D01*
X219382380Y-26560000D02*
X218382380Y-26560000D01*
X218525238Y-26464761D01*
X218620476Y-26369523D01*
X218668095Y-26274285D01*
%TO.C,C17*%
X105467857Y-28977142D02*
X105515476Y-29024761D01*
X105658333Y-29072380D01*
X105753571Y-29072380D01*
X105896428Y-29024761D01*
X105991666Y-28929523D01*
X106039285Y-28834285D01*
X106086904Y-28643809D01*
X106086904Y-28500952D01*
X106039285Y-28310476D01*
X105991666Y-28215238D01*
X105896428Y-28120000D01*
X105753571Y-28072380D01*
X105658333Y-28072380D01*
X105515476Y-28120000D01*
X105467857Y-28167619D01*
X104515476Y-29072380D02*
X105086904Y-29072380D01*
X104801190Y-29072380D02*
X104801190Y-28072380D01*
X104896428Y-28215238D01*
X104991666Y-28310476D01*
X105086904Y-28358095D01*
X104182142Y-28072380D02*
X103515476Y-28072380D01*
X103944047Y-29072380D01*
%TO.C,C21*%
X105467857Y-59977142D02*
X105515476Y-60024761D01*
X105658333Y-60072380D01*
X105753571Y-60072380D01*
X105896428Y-60024761D01*
X105991666Y-59929523D01*
X106039285Y-59834285D01*
X106086904Y-59643809D01*
X106086904Y-59500952D01*
X106039285Y-59310476D01*
X105991666Y-59215238D01*
X105896428Y-59120000D01*
X105753571Y-59072380D01*
X105658333Y-59072380D01*
X105515476Y-59120000D01*
X105467857Y-59167619D01*
X105086904Y-59167619D02*
X105039285Y-59120000D01*
X104944047Y-59072380D01*
X104705952Y-59072380D01*
X104610714Y-59120000D01*
X104563095Y-59167619D01*
X104515476Y-59262857D01*
X104515476Y-59358095D01*
X104563095Y-59500952D01*
X105134523Y-60072380D01*
X104515476Y-60072380D01*
X103563095Y-60072380D02*
X104134523Y-60072380D01*
X103848809Y-60072380D02*
X103848809Y-59072380D01*
X103944047Y-59215238D01*
X104039285Y-59310476D01*
X104134523Y-59358095D01*
D12*
%TO.C,D6*%
X148825000Y-49175000D02*
X147175000Y-49175000D01*
X148500000Y-49900000D02*
X148500000Y-50100000D01*
X148500000Y-50100000D02*
X148350000Y-49900000D01*
X147175000Y-50825000D02*
X148825000Y-50825000D01*
X148350000Y-49900000D02*
X148650000Y-49900000D01*
X147175000Y-49175000D02*
X147175000Y-50825000D01*
X148825000Y-50825000D02*
X148825000Y-49175000D01*
X148500000Y-50100000D02*
X148650000Y-49900000D01*
D10*
%TO.C,TP15*%
X215925000Y-125000000D02*
G75*
G03*
X215925000Y-125000000I-1500000J0D01*
G01*
%TO.C,TP11*%
X271500000Y-117100000D02*
G75*
G03*
X271500000Y-117100000I-1500000J0D01*
G01*
%TO.C,TP19*%
X187500000Y-80900000D02*
G75*
G03*
X187500000Y-80900000I-1500000J0D01*
G01*
%TO.C,TP25*%
X112000000Y-185000000D02*
G75*
G03*
X112000000Y-185000000I-1500000J0D01*
G01*
%TO.C,TP9*%
X241550610Y-23449390D02*
G75*
G03*
X241550610Y-23449390I-1500000J0D01*
G01*
%TO.C,TP1*%
X187500000Y-66500000D02*
G75*
G03*
X187500000Y-66500000I-1500000J0D01*
G01*
%TO.C,TP17*%
X85500000Y-137500000D02*
G75*
G03*
X85500000Y-137500000I-1500000J0D01*
G01*
%TO.C,TP6*%
X201525000Y-125000000D02*
G75*
G03*
X201525000Y-125000000I-1500000J0D01*
G01*
%TO.C,TP14*%
X235500000Y-243500000D02*
G75*
G03*
X235500000Y-243500000I-1500000J0D01*
G01*
%TO.C,TP21*%
X285500000Y-36975000D02*
G75*
G03*
X285500000Y-36975000I-1500000J0D01*
G01*
%TO.C,TP5*%
X267400000Y-70000000D02*
G75*
G03*
X267400000Y-70000000I-1500000J0D01*
G01*
%TO.C,TP3*%
X165500000Y-58100000D02*
G75*
G03*
X165500000Y-58100000I-1500000J0D01*
G01*
%TO.C,TP18*%
X165500000Y-72500000D02*
G75*
G03*
X165500000Y-72500000I-1500000J0D01*
G01*
%TO.C,TP8*%
X85500000Y-123100000D02*
G75*
G03*
X85500000Y-123100000I-1500000J0D01*
G01*
%TO.C,TP16*%
X126500000Y-130500000D02*
G75*
G03*
X126500000Y-130500000I-1500000J0D01*
G01*
D12*
%TO.C,D12*%
X233650000Y-22800000D02*
X235300000Y-22800000D01*
X234975000Y-22075000D02*
X235125000Y-21875000D01*
X235300000Y-21150000D02*
X233650000Y-21150000D01*
X234975000Y-22075000D02*
X234825000Y-21875000D01*
X234975000Y-21875000D02*
X234975000Y-22075000D01*
X233650000Y-21150000D02*
X233650000Y-22800000D01*
X234825000Y-21875000D02*
X235125000Y-21875000D01*
X235300000Y-22800000D02*
X235300000Y-21150000D01*
D10*
%TO.C,TP12*%
X235500000Y-229100000D02*
G75*
G03*
X235500000Y-229100000I-1500000J0D01*
G01*
D12*
%TO.C,D7*%
X197175000Y-60825000D02*
X198825000Y-60825000D01*
X198500000Y-59900000D02*
X198500000Y-60100000D01*
X198825000Y-59175000D02*
X197175000Y-59175000D01*
X198500000Y-60100000D02*
X198650000Y-59900000D01*
X198825000Y-60825000D02*
X198825000Y-59175000D01*
X198500000Y-60100000D02*
X198350000Y-59900000D01*
X198350000Y-59900000D02*
X198650000Y-59900000D01*
X197175000Y-59175000D02*
X197175000Y-60825000D01*
%TO.C,D11*%
X277000000Y-113600000D02*
X277150000Y-113400000D01*
X275675000Y-114325000D02*
X277325000Y-114325000D01*
X277325000Y-114325000D02*
X277325000Y-112675000D01*
X277325000Y-112675000D02*
X275675000Y-112675000D01*
X277000000Y-113400000D02*
X277000000Y-113600000D01*
X277000000Y-113600000D02*
X276850000Y-113400000D01*
X276850000Y-113400000D02*
X277150000Y-113400000D01*
X275675000Y-112675000D02*
X275675000Y-114325000D01*
D10*
%TO.C,TP10*%
X280631728Y-168131728D02*
G75*
G03*
X280631728Y-168131728I-1500000J0D01*
G01*
D12*
%TO.C,D9*%
X277825000Y-41375000D02*
X278125000Y-41375000D01*
X278300000Y-42300000D02*
X278300000Y-40650000D01*
X277975000Y-41575000D02*
X277825000Y-41375000D01*
X277975000Y-41375000D02*
X277975000Y-41575000D01*
X278300000Y-40650000D02*
X276650000Y-40650000D01*
X277975000Y-41575000D02*
X278125000Y-41375000D01*
X276650000Y-40650000D02*
X276650000Y-42300000D01*
X276650000Y-42300000D02*
X278300000Y-42300000D01*
%TO.C,D4*%
X118825000Y-150825000D02*
X118825000Y-149175000D01*
X118350000Y-149900000D02*
X118650000Y-149900000D01*
X117175000Y-150825000D02*
X118825000Y-150825000D01*
X118500000Y-150100000D02*
X118650000Y-149900000D01*
X118500000Y-149900000D02*
X118500000Y-150100000D01*
X118825000Y-149175000D02*
X117175000Y-149175000D01*
X117175000Y-149175000D02*
X117175000Y-150825000D01*
X118500000Y-150100000D02*
X118350000Y-149900000D01*
D10*
%TO.C,TP26*%
X126400000Y-185000000D02*
G75*
G03*
X126400000Y-185000000I-1500000J0D01*
G01*
D12*
%TO.C,D5*%
X65350000Y-148900000D02*
X65650000Y-148900000D01*
X65825000Y-148175000D02*
X64175000Y-148175000D01*
X65500000Y-149100000D02*
X65350000Y-148900000D01*
X64175000Y-149825000D02*
X65825000Y-149825000D01*
X65825000Y-149825000D02*
X65825000Y-148175000D01*
X65500000Y-149100000D02*
X65650000Y-148900000D01*
X65500000Y-148900000D02*
X65500000Y-149100000D01*
X64175000Y-148175000D02*
X64175000Y-149825000D01*
D10*
%TO.C,TP13*%
X270449390Y-157949390D02*
G75*
G03*
X270449390Y-157949390I-1500000J0D01*
G01*
%TO.C,TP20*%
X223631729Y-48131729D02*
G75*
G03*
X223631729Y-48131729I-1500000J0D01*
G01*
%TO.C,TP7*%
X126500000Y-116100000D02*
G75*
G03*
X126500000Y-116100000I-1500000J0D01*
G01*
D12*
%TO.C,D1*%
X273175000Y-150175000D02*
X273175000Y-151825000D01*
X274825000Y-150175000D02*
X273175000Y-150175000D01*
X274350000Y-150900000D02*
X274650000Y-150900000D01*
X274500000Y-151100000D02*
X274350000Y-150900000D01*
X273175000Y-151825000D02*
X274825000Y-151825000D01*
X274500000Y-150900000D02*
X274500000Y-151100000D01*
X274825000Y-151825000D02*
X274825000Y-150175000D01*
X274500000Y-151100000D02*
X274650000Y-150900000D01*
%TO.C,D2*%
X247500000Y-225900000D02*
X247500000Y-226100000D01*
X246175000Y-225175000D02*
X246175000Y-226825000D01*
X247825000Y-226825000D02*
X247825000Y-225175000D01*
X246175000Y-226825000D02*
X247825000Y-226825000D01*
X247825000Y-225175000D02*
X246175000Y-225175000D01*
X247350000Y-225900000D02*
X247650000Y-225900000D01*
X247500000Y-226100000D02*
X247350000Y-225900000D01*
X247500000Y-226100000D02*
X247650000Y-225900000D01*
D10*
%TO.C,TP23*%
X271500000Y-131500000D02*
G75*
G03*
X271500000Y-131500000I-1500000J0D01*
G01*
%TO.C,TP24*%
X231368271Y-33631729D02*
G75*
G03*
X231368271Y-33631729I-1500000J0D01*
G01*
D12*
%TO.C,D8*%
X202350000Y-34900000D02*
X202650000Y-34900000D01*
X202500000Y-35100000D02*
X202650000Y-34900000D01*
X201175000Y-35825000D02*
X202825000Y-35825000D01*
X202500000Y-35100000D02*
X202350000Y-34900000D01*
X202825000Y-34175000D02*
X201175000Y-34175000D01*
X202825000Y-35825000D02*
X202825000Y-34175000D01*
X202500000Y-34900000D02*
X202500000Y-35100000D01*
X201175000Y-34175000D02*
X201175000Y-35825000D01*
D10*
%TO.C,TP22*%
X253000000Y-70000000D02*
G75*
G03*
X253000000Y-70000000I-1500000J0D01*
G01*
D12*
%TO.C,D3*%
X217175000Y-135175000D02*
X217175000Y-136825000D01*
X218825000Y-135175000D02*
X217175000Y-135175000D01*
X218350000Y-135900000D02*
X218650000Y-135900000D01*
X218500000Y-136100000D02*
X218650000Y-135900000D01*
X217175000Y-136825000D02*
X218825000Y-136825000D01*
X218500000Y-136100000D02*
X218350000Y-135900000D01*
X218825000Y-136825000D02*
X218825000Y-135175000D01*
X218500000Y-135900000D02*
X218500000Y-136100000D01*
%TO.C,D10*%
X270800000Y-82350000D02*
X270800000Y-80700000D01*
X269150000Y-80700000D02*
X269150000Y-82350000D01*
X270475000Y-81625000D02*
X270325000Y-81425000D01*
X270800000Y-80700000D02*
X269150000Y-80700000D01*
X270475000Y-81625000D02*
X270625000Y-81425000D01*
X270475000Y-81425000D02*
X270475000Y-81625000D01*
X269150000Y-82350000D02*
X270800000Y-82350000D01*
X270325000Y-81425000D02*
X270625000Y-81425000D01*
D10*
%TO.C,TP4*%
X213449390Y-37949390D02*
G75*
G03*
X213449390Y-37949390I-1500000J0D01*
G01*
%TO.C,TP2*%
X285500000Y-22575000D02*
G75*
G03*
X285500000Y-22575000I-1500000J0D01*
G01*
D12*
%TO.C,U2*%
X110390000Y-30740000D02*
X110390000Y-30995000D01*
X118110000Y-30995000D02*
X119925000Y-30995000D01*
X110390000Y-41260000D02*
X110390000Y-41005000D01*
X114250000Y-30740000D02*
X110390000Y-30740000D01*
X114250000Y-41260000D02*
X118110000Y-41260000D01*
X114250000Y-30740000D02*
X118110000Y-30740000D01*
X118110000Y-30740000D02*
X118110000Y-30995000D01*
X118110000Y-41260000D02*
X118110000Y-41005000D01*
X114250000Y-41260000D02*
X110390000Y-41260000D01*
%TO.C,R14*%
X176022500Y-35237258D02*
X176022500Y-34762742D01*
X174977500Y-35237258D02*
X174977500Y-34762742D01*
%TO.C,R15*%
X169737258Y-29477500D02*
X169262742Y-29477500D01*
X169737258Y-30522500D02*
X169262742Y-30522500D01*
%TO.C,U1*%
X173560000Y-37500000D02*
X173560000Y-38300000D01*
X173560000Y-37500000D02*
X173560000Y-36700000D01*
X170440000Y-37500000D02*
X170440000Y-38300000D01*
X170440000Y-37500000D02*
X170440000Y-35700000D01*
%TO.C,C5*%
X121265000Y-150261252D02*
X121265000Y-149738748D01*
X122735000Y-150261252D02*
X122735000Y-149738748D01*
%TO.C,C12*%
X223735000Y-136261252D02*
X223735000Y-135738748D01*
X222265000Y-136261252D02*
X222265000Y-135738748D01*
%TO.C,C9*%
X68265000Y-149261252D02*
X68265000Y-148738748D01*
X69735000Y-149261252D02*
X69735000Y-148738748D01*
D13*
%TO.C,P1*%
X220880000Y-21560000D02*
X229120000Y-21560000D01*
D12*
X229125000Y-15360000D02*
X220875000Y-15360000D01*
X230300000Y-22700000D02*
X219700000Y-22700000D01*
D13*
X220880000Y-20000000D02*
X229120000Y-20000000D01*
D12*
X229125000Y-27525000D02*
X229125000Y-26550000D01*
X229125000Y-26550000D02*
X229125000Y-15360000D01*
X220875000Y-27550000D02*
X220875000Y-26600000D01*
X220875000Y-26600000D02*
X220875000Y-15360000D01*
X225000000Y-27550000D02*
X229125000Y-27550000D01*
X220900000Y-27550000D02*
X220875000Y-27550000D01*
X225000000Y-27550000D02*
X220900000Y-27550000D01*
%TO.C,G\u002A\u002A\u002A*%
G36*
X292163452Y-62843608D02*
G01*
X292262353Y-62853036D01*
X292374893Y-62863807D01*
X292481197Y-62874028D01*
X292580149Y-62883589D01*
X292670634Y-62892383D01*
X292751536Y-62900299D01*
X292821742Y-62907228D01*
X292880135Y-62913061D01*
X292925600Y-62917689D01*
X292957023Y-62921003D01*
X292973288Y-62922893D01*
X293000337Y-62929824D01*
X293032538Y-62951036D01*
X293049191Y-62972231D01*
X293055107Y-62997093D01*
X293047919Y-63027644D01*
X293040807Y-63041907D01*
X293028309Y-63055086D01*
X293009062Y-63065217D01*
X292980668Y-63073166D01*
X292940730Y-63079803D01*
X292886850Y-63085997D01*
X292869278Y-63087781D01*
X292732519Y-63101614D01*
X292610932Y-63113785D01*
X292503549Y-63124355D01*
X292409405Y-63133381D01*
X292327534Y-63140925D01*
X292256969Y-63147045D01*
X292196746Y-63151802D01*
X292145897Y-63155254D01*
X292103456Y-63157460D01*
X292068459Y-63158482D01*
X292039938Y-63158377D01*
X292016928Y-63157206D01*
X291998462Y-63155028D01*
X291983575Y-63151902D01*
X291971301Y-63147889D01*
X291960674Y-63143047D01*
X291949332Y-63136485D01*
X291915884Y-63106375D01*
X291893087Y-63068049D01*
X291881125Y-63024769D01*
X291880180Y-62979800D01*
X291890434Y-62936406D01*
X291912069Y-62897849D01*
X291945269Y-62867395D01*
X291969211Y-62854642D01*
X292003347Y-62844176D01*
X292045354Y-62839038D01*
X292097851Y-62838944D01*
X292163452Y-62843608D01*
G37*
G36*
X293762296Y-61320162D02*
G01*
X293788826Y-61325123D01*
X293843273Y-61344234D01*
X293894214Y-61372934D01*
X293935391Y-61408045D01*
X293950776Y-61425319D01*
X293972686Y-61453938D01*
X293987969Y-61482204D01*
X294000571Y-61516699D01*
X294001467Y-61520848D01*
X294002718Y-61532043D01*
X294003853Y-61549725D01*
X294004875Y-61574509D01*
X294005788Y-61607011D01*
X294006595Y-61647847D01*
X294007300Y-61697634D01*
X294007907Y-61756988D01*
X294008419Y-61826524D01*
X294008839Y-61906860D01*
X294009173Y-61998611D01*
X294009422Y-62102394D01*
X294009591Y-62218824D01*
X294009684Y-62348519D01*
X294009704Y-62492093D01*
X294009654Y-62650164D01*
X294009538Y-62823347D01*
X294009360Y-63012258D01*
X294007818Y-64475128D01*
X293990008Y-64513680D01*
X293969038Y-64549498D01*
X293936361Y-64589743D01*
X293898840Y-64624852D01*
X293861405Y-64649616D01*
X293854975Y-64652728D01*
X293796721Y-64673039D01*
X293737116Y-64681093D01*
X293681248Y-64676141D01*
X293676514Y-64675066D01*
X293662186Y-64671482D01*
X293647820Y-64667059D01*
X293632007Y-64661059D01*
X293613341Y-64652740D01*
X293590414Y-64641361D01*
X293561818Y-64626181D01*
X293526147Y-64606460D01*
X293481993Y-64581457D01*
X293427947Y-64550431D01*
X293362604Y-64512642D01*
X293284556Y-64467348D01*
X293227270Y-64434085D01*
X293164828Y-64397847D01*
X293105681Y-64363540D01*
X293051998Y-64332421D01*
X293005945Y-64305746D01*
X292969690Y-64284771D01*
X292945399Y-64270752D01*
X292944035Y-64269968D01*
X292810477Y-64193043D01*
X292671382Y-64112815D01*
X292523894Y-64027635D01*
X292365154Y-63935853D01*
X292300549Y-63898486D01*
X292179158Y-63828305D01*
X292060375Y-63759671D01*
X291945249Y-63693188D01*
X291834829Y-63629461D01*
X291730164Y-63569093D01*
X291632302Y-63512690D01*
X291542291Y-63460854D01*
X291461180Y-63414191D01*
X291390017Y-63373304D01*
X291329852Y-63338799D01*
X291281733Y-63311278D01*
X291246708Y-63291347D01*
X291239169Y-63287050D01*
X291175139Y-63247684D01*
X291125032Y-63210367D01*
X291087149Y-63173150D01*
X291059794Y-63134087D01*
X291041268Y-63091231D01*
X291029875Y-63042634D01*
X291027375Y-63022073D01*
X291028591Y-62988669D01*
X291251629Y-62988669D01*
X291252628Y-63014855D01*
X291268002Y-63038107D01*
X291271799Y-63040989D01*
X291289369Y-63052473D01*
X291318374Y-63070374D01*
X291356933Y-63093567D01*
X291403166Y-63120925D01*
X291455193Y-63151324D01*
X291511132Y-63183637D01*
X291569391Y-63217134D01*
X291647327Y-63262018D01*
X291730592Y-63310037D01*
X291814422Y-63358440D01*
X291894048Y-63404476D01*
X291964704Y-63445394D01*
X291999971Y-63465823D01*
X292052633Y-63496295D01*
X292116709Y-63533344D01*
X292190728Y-63576120D01*
X292273218Y-63623775D01*
X292362709Y-63675459D01*
X292457729Y-63730321D01*
X292556806Y-63787512D01*
X292658471Y-63846183D01*
X292761250Y-63905484D01*
X292863674Y-63964564D01*
X292877076Y-63972294D01*
X292975277Y-64028933D01*
X293070877Y-64084073D01*
X293162719Y-64137047D01*
X293249648Y-64187190D01*
X293330508Y-64233833D01*
X293404143Y-64276311D01*
X293469398Y-64313957D01*
X293525117Y-64346104D01*
X293570144Y-64372085D01*
X293603324Y-64391234D01*
X293623500Y-64402883D01*
X293660001Y-64423378D01*
X293696706Y-64441627D01*
X293724178Y-64451266D01*
X293744728Y-64452759D01*
X293760669Y-64446570D01*
X293774310Y-64433164D01*
X293791248Y-64411631D01*
X293791248Y-61588369D01*
X293774310Y-61566835D01*
X293763678Y-61555690D01*
X293748537Y-61548006D01*
X293729289Y-61547844D01*
X293703614Y-61555669D01*
X293669194Y-61571947D01*
X293623713Y-61597146D01*
X293596130Y-61613035D01*
X293550842Y-61639142D01*
X293499242Y-61668904D01*
X293445774Y-61699757D01*
X293394884Y-61729139D01*
X293351205Y-61754345D01*
X293304701Y-61781142D01*
X293262221Y-61805583D01*
X293227139Y-61825726D01*
X293202831Y-61839629D01*
X293197226Y-61842823D01*
X293145797Y-61872232D01*
X293085611Y-61906827D01*
X293015333Y-61947379D01*
X292933627Y-61994659D01*
X292839157Y-62049436D01*
X292837509Y-62050393D01*
X292780022Y-62083698D01*
X292713842Y-62121957D01*
X292644289Y-62162099D01*
X292576684Y-62201053D01*
X292516345Y-62235750D01*
X292495833Y-62247536D01*
X292443655Y-62277572D01*
X292393214Y-62306680D01*
X292347622Y-62333062D01*
X292309990Y-62354917D01*
X292283430Y-62370447D01*
X292273584Y-62376230D01*
X292238515Y-62396714D01*
X292195468Y-62421740D01*
X292148991Y-62448665D01*
X292103635Y-62474849D01*
X292092260Y-62481405D01*
X292051635Y-62504831D01*
X292000755Y-62534190D01*
X291942496Y-62567820D01*
X291879736Y-62604061D01*
X291815351Y-62641251D01*
X291752220Y-62677729D01*
X291730125Y-62690493D01*
X291666233Y-62727353D01*
X291602110Y-62764280D01*
X291540630Y-62799624D01*
X291484669Y-62831730D01*
X291437102Y-62858949D01*
X291400804Y-62879628D01*
X291377671Y-62892886D01*
X291339073Y-62915595D01*
X291305974Y-62935795D01*
X291281306Y-62951681D01*
X291268002Y-62961446D01*
X291265005Y-62964395D01*
X291251629Y-62988669D01*
X291028591Y-62988669D01*
X291029729Y-62957404D01*
X291046821Y-62895436D01*
X291077576Y-62839136D01*
X291120918Y-62791473D01*
X291126260Y-62787176D01*
X291137773Y-62778903D01*
X291154248Y-62767966D01*
X291176454Y-62753912D01*
X291205161Y-62736287D01*
X291241139Y-62714637D01*
X291285155Y-62688508D01*
X291337980Y-62657448D01*
X291400382Y-62621003D01*
X291473131Y-62578719D01*
X291556996Y-62530142D01*
X291652746Y-62474819D01*
X291761151Y-62412297D01*
X291882979Y-62342122D01*
X291938798Y-62309980D01*
X292059601Y-62240385D01*
X292173973Y-62174448D01*
X292279979Y-62113287D01*
X292375679Y-62058019D01*
X292459137Y-62009762D01*
X292489796Y-61992021D01*
X292560120Y-61951338D01*
X292622578Y-61915224D01*
X292680842Y-61881558D01*
X292738584Y-61848221D01*
X292799476Y-61813092D01*
X292867190Y-61774050D01*
X292945399Y-61728975D01*
X292976287Y-61711168D01*
X293037474Y-61675868D01*
X293099880Y-61639831D01*
X293159659Y-61605280D01*
X293212965Y-61574438D01*
X293255952Y-61549527D01*
X293336179Y-61503022D01*
X293411606Y-61459511D01*
X293475421Y-61423113D01*
X293528931Y-61393236D01*
X293573441Y-61369289D01*
X293610258Y-61350679D01*
X293640688Y-61336816D01*
X293666037Y-61327106D01*
X293687612Y-61320959D01*
X293706719Y-61317783D01*
X293724665Y-61316986D01*
X293729289Y-61317239D01*
X293742755Y-61317976D01*
X293762296Y-61320162D01*
G37*
G36*
X293415309Y-62839467D02*
G01*
X293456460Y-62858073D01*
X293491705Y-62888464D01*
X293518224Y-62930534D01*
X293523488Y-62945493D01*
X293529085Y-62986719D01*
X293525488Y-63030761D01*
X293512973Y-63070315D01*
X293501825Y-63089313D01*
X293469930Y-63123274D01*
X293429714Y-63147902D01*
X293385308Y-63161031D01*
X293340846Y-63160496D01*
X293315887Y-63153888D01*
X293272477Y-63131366D01*
X293238519Y-63098624D01*
X293215326Y-63058358D01*
X293204210Y-63013264D01*
X293206484Y-62966039D01*
X293223462Y-62919381D01*
X293247987Y-62885025D01*
X293284589Y-62855425D01*
X293326555Y-62838036D01*
X293371067Y-62832753D01*
X293415309Y-62839467D01*
G37*
%TO.C,R19*%
X104587742Y-54772500D02*
X105062258Y-54772500D01*
X104587742Y-53727500D02*
X105062258Y-53727500D01*
%TO.C,C16*%
X105086252Y-32065000D02*
X104563748Y-32065000D01*
X105086252Y-33535000D02*
X104563748Y-33535000D01*
%TO.C,R21*%
X105062258Y-50277500D02*
X104587742Y-50277500D01*
X105062258Y-51322500D02*
X104587742Y-51322500D01*
%TO.C,R20*%
X105062258Y-65277500D02*
X104587742Y-65277500D01*
X105062258Y-66322500D02*
X104587742Y-66322500D01*
%TO.C,U3*%
X110390000Y-71260000D02*
X110390000Y-71005000D01*
X114250000Y-60740000D02*
X110390000Y-60740000D01*
X118110000Y-71260000D02*
X118110000Y-71005000D01*
X114250000Y-60740000D02*
X118110000Y-60740000D01*
X114250000Y-71260000D02*
X110390000Y-71260000D01*
X118110000Y-60740000D02*
X118110000Y-60995000D01*
X110390000Y-60740000D02*
X110390000Y-60995000D01*
X118110000Y-60995000D02*
X119925000Y-60995000D01*
X114250000Y-71260000D02*
X118110000Y-71260000D01*
%TO.C,G\u002A\u002A\u002A*%
G36*
X293762296Y-75320162D02*
G01*
X293788826Y-75325123D01*
X293843273Y-75344234D01*
X293894214Y-75372934D01*
X293935391Y-75408045D01*
X293950776Y-75425319D01*
X293972686Y-75453938D01*
X293987969Y-75482204D01*
X294000571Y-75516699D01*
X294001467Y-75520848D01*
X294002718Y-75532043D01*
X294003853Y-75549725D01*
X294004875Y-75574509D01*
X294005788Y-75607011D01*
X294006595Y-75647847D01*
X294007300Y-75697634D01*
X294007907Y-75756988D01*
X294008419Y-75826524D01*
X294008839Y-75906860D01*
X294009173Y-75998611D01*
X294009422Y-76102394D01*
X294009591Y-76218824D01*
X294009684Y-76348519D01*
X294009704Y-76492093D01*
X294009654Y-76650164D01*
X294009538Y-76823347D01*
X294009360Y-77012258D01*
X294007818Y-78475128D01*
X293990008Y-78513680D01*
X293969038Y-78549498D01*
X293936361Y-78589743D01*
X293898840Y-78624852D01*
X293861405Y-78649616D01*
X293854975Y-78652728D01*
X293796721Y-78673039D01*
X293737116Y-78681093D01*
X293681248Y-78676141D01*
X293676514Y-78675066D01*
X293662186Y-78671482D01*
X293647820Y-78667059D01*
X293632007Y-78661059D01*
X293613341Y-78652740D01*
X293590414Y-78641361D01*
X293561818Y-78626181D01*
X293526147Y-78606460D01*
X293481993Y-78581457D01*
X293427947Y-78550431D01*
X293362604Y-78512642D01*
X293284556Y-78467348D01*
X293227270Y-78434085D01*
X293164828Y-78397847D01*
X293105681Y-78363540D01*
X293051998Y-78332421D01*
X293005945Y-78305746D01*
X292969690Y-78284771D01*
X292945399Y-78270752D01*
X292944035Y-78269968D01*
X292810477Y-78193043D01*
X292671382Y-78112815D01*
X292523894Y-78027635D01*
X292365154Y-77935853D01*
X292300549Y-77898486D01*
X292179158Y-77828305D01*
X292060375Y-77759671D01*
X291945249Y-77693188D01*
X291834829Y-77629461D01*
X291730164Y-77569093D01*
X291632302Y-77512690D01*
X291542291Y-77460854D01*
X291461180Y-77414191D01*
X291390017Y-77373304D01*
X291329852Y-77338799D01*
X291281733Y-77311278D01*
X291246708Y-77291347D01*
X291239169Y-77287050D01*
X291175139Y-77247684D01*
X291125032Y-77210367D01*
X291087149Y-77173150D01*
X291059794Y-77134087D01*
X291041268Y-77091231D01*
X291029875Y-77042634D01*
X291027375Y-77022073D01*
X291028591Y-76988669D01*
X291251629Y-76988669D01*
X291252628Y-77014855D01*
X291268002Y-77038107D01*
X291271799Y-77040989D01*
X291289369Y-77052473D01*
X291318374Y-77070374D01*
X291356933Y-77093567D01*
X291403166Y-77120925D01*
X291455193Y-77151324D01*
X291511132Y-77183637D01*
X291569391Y-77217134D01*
X291647327Y-77262018D01*
X291730592Y-77310037D01*
X291814422Y-77358440D01*
X291894048Y-77404476D01*
X291964704Y-77445394D01*
X291999971Y-77465823D01*
X292052633Y-77496295D01*
X292116709Y-77533344D01*
X292190728Y-77576120D01*
X292273218Y-77623775D01*
X292362709Y-77675459D01*
X292457729Y-77730321D01*
X292556806Y-77787512D01*
X292658471Y-77846183D01*
X292761250Y-77905484D01*
X292863674Y-77964564D01*
X292877076Y-77972294D01*
X292975277Y-78028933D01*
X293070877Y-78084073D01*
X293162719Y-78137047D01*
X293249648Y-78187190D01*
X293330508Y-78233833D01*
X293404143Y-78276311D01*
X293469398Y-78313957D01*
X293525117Y-78346104D01*
X293570144Y-78372085D01*
X293603324Y-78391234D01*
X293623500Y-78402883D01*
X293660001Y-78423378D01*
X293696706Y-78441627D01*
X293724178Y-78451266D01*
X293744728Y-78452759D01*
X293760669Y-78446570D01*
X293774310Y-78433164D01*
X293791248Y-78411631D01*
X293791248Y-75588369D01*
X293774310Y-75566835D01*
X293763678Y-75555690D01*
X293748537Y-75548006D01*
X293729289Y-75547844D01*
X293703614Y-75555669D01*
X293669194Y-75571947D01*
X293623713Y-75597146D01*
X293596130Y-75613035D01*
X293550842Y-75639142D01*
X293499242Y-75668904D01*
X293445774Y-75699757D01*
X293394884Y-75729139D01*
X293351205Y-75754345D01*
X293304701Y-75781142D01*
X293262221Y-75805583D01*
X293227139Y-75825726D01*
X293202831Y-75839629D01*
X293197226Y-75842823D01*
X293145797Y-75872232D01*
X293085611Y-75906827D01*
X293015333Y-75947379D01*
X292933627Y-75994659D01*
X292839157Y-76049436D01*
X292837509Y-76050393D01*
X292780022Y-76083698D01*
X292713842Y-76121957D01*
X292644289Y-76162099D01*
X292576684Y-76201053D01*
X292516345Y-76235750D01*
X292495833Y-76247536D01*
X292443655Y-76277572D01*
X292393214Y-76306680D01*
X292347622Y-76333062D01*
X292309990Y-76354917D01*
X292283430Y-76370447D01*
X292273584Y-76376230D01*
X292238515Y-76396714D01*
X292195468Y-76421740D01*
X292148991Y-76448665D01*
X292103635Y-76474849D01*
X292092260Y-76481405D01*
X292051635Y-76504831D01*
X292000755Y-76534190D01*
X291942496Y-76567820D01*
X291879736Y-76604061D01*
X291815351Y-76641251D01*
X291752220Y-76677729D01*
X291730125Y-76690493D01*
X291666233Y-76727353D01*
X291602110Y-76764280D01*
X291540630Y-76799624D01*
X291484669Y-76831730D01*
X291437102Y-76858949D01*
X291400804Y-76879628D01*
X291377671Y-76892886D01*
X291339073Y-76915595D01*
X291305974Y-76935795D01*
X291281306Y-76951681D01*
X291268002Y-76961446D01*
X291265005Y-76964395D01*
X291251629Y-76988669D01*
X291028591Y-76988669D01*
X291029729Y-76957404D01*
X291046821Y-76895436D01*
X291077576Y-76839136D01*
X291120918Y-76791473D01*
X291126260Y-76787176D01*
X291137773Y-76778903D01*
X291154248Y-76767966D01*
X291176454Y-76753912D01*
X291205161Y-76736287D01*
X291241139Y-76714637D01*
X291285155Y-76688508D01*
X291337980Y-76657448D01*
X291400382Y-76621003D01*
X291473131Y-76578719D01*
X291556996Y-76530142D01*
X291652746Y-76474819D01*
X291761151Y-76412297D01*
X291882979Y-76342122D01*
X291938798Y-76309980D01*
X292059601Y-76240385D01*
X292173973Y-76174448D01*
X292279979Y-76113287D01*
X292375679Y-76058019D01*
X292459137Y-76009762D01*
X292489796Y-75992021D01*
X292560120Y-75951338D01*
X292622578Y-75915224D01*
X292680842Y-75881558D01*
X292738584Y-75848221D01*
X292799476Y-75813092D01*
X292867190Y-75774050D01*
X292945399Y-75728975D01*
X292976287Y-75711168D01*
X293037474Y-75675868D01*
X293099880Y-75639831D01*
X293159659Y-75605280D01*
X293212965Y-75574438D01*
X293255952Y-75549527D01*
X293336179Y-75503022D01*
X293411606Y-75459511D01*
X293475421Y-75423113D01*
X293528931Y-75393236D01*
X293573441Y-75369289D01*
X293610258Y-75350679D01*
X293640688Y-75336816D01*
X293666037Y-75327106D01*
X293687612Y-75320959D01*
X293706719Y-75317783D01*
X293724665Y-75316986D01*
X293729289Y-75317239D01*
X293742755Y-75317976D01*
X293762296Y-75320162D01*
G37*
G36*
X293415309Y-76839467D02*
G01*
X293456460Y-76858073D01*
X293491705Y-76888464D01*
X293518224Y-76930534D01*
X293523488Y-76945493D01*
X293529085Y-76986719D01*
X293525488Y-77030761D01*
X293512973Y-77070315D01*
X293501825Y-77089313D01*
X293469930Y-77123274D01*
X293429714Y-77147902D01*
X293385308Y-77161031D01*
X293340846Y-77160496D01*
X293315887Y-77153888D01*
X293272477Y-77131366D01*
X293238519Y-77098624D01*
X293215326Y-77058358D01*
X293204210Y-77013264D01*
X293206484Y-76966039D01*
X293223462Y-76919381D01*
X293247987Y-76885025D01*
X293284589Y-76855425D01*
X293326555Y-76838036D01*
X293371067Y-76832753D01*
X293415309Y-76839467D01*
G37*
G36*
X292163452Y-76843608D02*
G01*
X292262353Y-76853036D01*
X292374893Y-76863807D01*
X292481197Y-76874028D01*
X292580149Y-76883589D01*
X292670634Y-76892383D01*
X292751536Y-76900299D01*
X292821742Y-76907228D01*
X292880135Y-76913061D01*
X292925600Y-76917689D01*
X292957023Y-76921003D01*
X292973288Y-76922893D01*
X293000337Y-76929824D01*
X293032538Y-76951036D01*
X293049191Y-76972231D01*
X293055107Y-76997093D01*
X293047919Y-77027644D01*
X293040807Y-77041907D01*
X293028309Y-77055086D01*
X293009062Y-77065217D01*
X292980668Y-77073166D01*
X292940730Y-77079803D01*
X292886850Y-77085997D01*
X292869278Y-77087781D01*
X292732519Y-77101614D01*
X292610932Y-77113785D01*
X292503549Y-77124355D01*
X292409405Y-77133381D01*
X292327534Y-77140925D01*
X292256969Y-77147045D01*
X292196746Y-77151802D01*
X292145897Y-77155254D01*
X292103456Y-77157460D01*
X292068459Y-77158482D01*
X292039938Y-77158377D01*
X292016928Y-77157206D01*
X291998462Y-77155028D01*
X291983575Y-77151902D01*
X291971301Y-77147889D01*
X291960674Y-77143047D01*
X291949332Y-77136485D01*
X291915884Y-77106375D01*
X291893087Y-77068049D01*
X291881125Y-77024769D01*
X291880180Y-76979800D01*
X291890434Y-76936406D01*
X291912069Y-76897849D01*
X291945269Y-76867395D01*
X291969211Y-76854642D01*
X292003347Y-76844176D01*
X292045354Y-76839038D01*
X292097851Y-76838944D01*
X292163452Y-76843608D01*
G37*
%TO.C,C13*%
X172765000Y-41738748D02*
X172765000Y-42261252D01*
X174235000Y-41738748D02*
X174235000Y-42261252D01*
%TO.C,C14*%
X170265000Y-41738748D02*
X170265000Y-42261252D01*
X171735000Y-41738748D02*
X171735000Y-42261252D01*
%TO.C,C7*%
X272265000Y-82261252D02*
X272265000Y-81738748D01*
X273735000Y-82261252D02*
X273735000Y-81738748D01*
%TO.C,C8*%
X251735000Y-226261252D02*
X251735000Y-225738748D01*
X250265000Y-226261252D02*
X250265000Y-225738748D01*
%TO.C,C2*%
X280735000Y-113761252D02*
X280735000Y-113238748D01*
X279265000Y-113761252D02*
X279265000Y-113238748D01*
%TO.C,R7*%
X168237258Y-70522500D02*
X167762742Y-70522500D01*
X168237258Y-69477500D02*
X167762742Y-69477500D01*
%TO.C,C20*%
X105086252Y-64535000D02*
X104563748Y-64535000D01*
X105086252Y-63065000D02*
X104563748Y-63065000D01*
%TO.C,R10*%
X288237258Y-33477500D02*
X287762742Y-33477500D01*
X288237258Y-34522500D02*
X287762742Y-34522500D01*
%TO.C,C19*%
X105086252Y-47035000D02*
X104563748Y-47035000D01*
X105086252Y-45565000D02*
X104563748Y-45565000D01*
%TO.C,R5*%
X130237258Y-126477500D02*
X129762742Y-126477500D01*
X130237258Y-127522500D02*
X129762742Y-127522500D01*
%TO.C,R11*%
X254522500Y-74646350D02*
X254522500Y-74171834D01*
X253477500Y-74646350D02*
X253477500Y-74171834D01*
%TO.C,R9*%
X224237258Y-44477500D02*
X223762742Y-44477500D01*
X224237258Y-45522500D02*
X223762742Y-45522500D01*
%TO.C,D13*%
X173500000Y-34250000D02*
X173500000Y-30350000D01*
X171500000Y-34250000D02*
X171500000Y-30350000D01*
X173500000Y-34250000D02*
X171500000Y-34250000D01*
%TO.C,R24*%
X104587742Y-38772500D02*
X105062258Y-38772500D01*
X104587742Y-37727500D02*
X105062258Y-37727500D01*
%TO.C,R4*%
X210477500Y-129237258D02*
X210477500Y-128762742D01*
X211522500Y-129237258D02*
X211522500Y-128762742D01*
D13*
%TO.C,J1*%
X295000000Y-65530000D02*
X295000000Y-74470000D01*
D12*
X295530000Y-65300000D02*
X295530000Y-74700000D01*
X293630000Y-74700000D02*
X295530000Y-74700000D01*
X293630000Y-65300000D02*
X295530000Y-65300000D01*
X289730000Y-65300000D02*
X291730000Y-65300000D01*
X289730000Y-74700000D02*
X291730000Y-74700000D01*
%TO.C,C10*%
X280735000Y-42211252D02*
X280735000Y-41688748D01*
X279265000Y-42211252D02*
X279265000Y-41688748D01*
%TO.C,U4*%
X118110000Y-45740000D02*
X118110000Y-45995000D01*
X110390000Y-45740000D02*
X110390000Y-45995000D01*
X114250000Y-56260000D02*
X118110000Y-56260000D01*
X114250000Y-45740000D02*
X110390000Y-45740000D01*
X118110000Y-56260000D02*
X118110000Y-56005000D01*
X114250000Y-56260000D02*
X110390000Y-56260000D01*
X114250000Y-45740000D02*
X118110000Y-45740000D01*
X110390000Y-56260000D02*
X110390000Y-56005000D01*
X118110000Y-45995000D02*
X119925000Y-45995000D01*
%TO.C,G\u002A\u002A\u002A*%
G36*
X232027644Y-21952081D02*
G01*
X232041907Y-21959193D01*
X232055086Y-21971691D01*
X232065217Y-21990938D01*
X232073166Y-22019332D01*
X232079803Y-22059270D01*
X232085997Y-22113150D01*
X232087781Y-22130722D01*
X232101614Y-22267481D01*
X232113785Y-22389068D01*
X232124355Y-22496451D01*
X232133381Y-22590595D01*
X232140925Y-22672466D01*
X232147045Y-22743031D01*
X232151802Y-22803254D01*
X232155254Y-22854103D01*
X232157460Y-22896544D01*
X232158482Y-22931541D01*
X232158377Y-22960062D01*
X232157206Y-22983072D01*
X232155028Y-23001538D01*
X232151902Y-23016425D01*
X232147889Y-23028699D01*
X232143047Y-23039326D01*
X232136485Y-23050668D01*
X232106375Y-23084116D01*
X232068049Y-23106913D01*
X232024769Y-23118875D01*
X231979800Y-23119820D01*
X231936406Y-23109566D01*
X231897849Y-23087931D01*
X231867395Y-23054731D01*
X231854642Y-23030789D01*
X231844176Y-22996653D01*
X231839038Y-22954646D01*
X231838944Y-22902149D01*
X231843608Y-22836548D01*
X231853036Y-22737647D01*
X231863807Y-22625107D01*
X231874028Y-22518803D01*
X231883589Y-22419851D01*
X231892383Y-22329366D01*
X231900299Y-22248464D01*
X231907228Y-22178258D01*
X231913061Y-22119865D01*
X231917689Y-22074400D01*
X231921003Y-22042977D01*
X231922893Y-22026712D01*
X231929824Y-21999663D01*
X231951036Y-21967462D01*
X231972231Y-21950809D01*
X231997093Y-21944893D01*
X232027644Y-21952081D01*
G37*
G36*
X230320162Y-21237704D02*
G01*
X230325123Y-21211174D01*
X230344234Y-21156727D01*
X230372934Y-21105786D01*
X230408045Y-21064609D01*
X230425319Y-21049224D01*
X230453938Y-21027314D01*
X230482204Y-21012031D01*
X230516699Y-20999429D01*
X230520848Y-20998533D01*
X230532043Y-20997282D01*
X230549725Y-20996147D01*
X230574509Y-20995125D01*
X230607011Y-20994212D01*
X230647847Y-20993405D01*
X230697634Y-20992700D01*
X230756988Y-20992093D01*
X230826524Y-20991581D01*
X230906860Y-20991161D01*
X230998611Y-20990827D01*
X231102394Y-20990578D01*
X231218824Y-20990409D01*
X231348519Y-20990316D01*
X231492093Y-20990296D01*
X231650164Y-20990346D01*
X231823347Y-20990462D01*
X232012258Y-20990640D01*
X233475128Y-20992182D01*
X233513680Y-21009992D01*
X233549498Y-21030962D01*
X233589743Y-21063639D01*
X233624852Y-21101160D01*
X233649616Y-21138595D01*
X233652728Y-21145025D01*
X233673039Y-21203279D01*
X233681093Y-21262884D01*
X233676141Y-21318752D01*
X233675066Y-21323486D01*
X233671482Y-21337814D01*
X233667059Y-21352180D01*
X233661059Y-21367993D01*
X233652740Y-21386659D01*
X233641361Y-21409586D01*
X233626181Y-21438182D01*
X233606460Y-21473853D01*
X233581457Y-21518007D01*
X233550431Y-21572053D01*
X233512642Y-21637396D01*
X233467348Y-21715444D01*
X233434085Y-21772730D01*
X233397847Y-21835172D01*
X233363540Y-21894319D01*
X233332421Y-21948002D01*
X233305746Y-21994055D01*
X233284771Y-22030310D01*
X233270752Y-22054601D01*
X233269968Y-22055965D01*
X233193043Y-22189523D01*
X233112815Y-22328618D01*
X233027635Y-22476106D01*
X232935853Y-22634846D01*
X232898486Y-22699451D01*
X232828305Y-22820842D01*
X232759671Y-22939625D01*
X232693188Y-23054751D01*
X232629461Y-23165171D01*
X232569093Y-23269836D01*
X232512690Y-23367698D01*
X232460854Y-23457709D01*
X232414191Y-23538820D01*
X232373304Y-23609983D01*
X232338799Y-23670148D01*
X232311278Y-23718267D01*
X232291347Y-23753292D01*
X232287050Y-23760831D01*
X232247684Y-23824861D01*
X232210367Y-23874968D01*
X232173150Y-23912851D01*
X232134087Y-23940206D01*
X232091231Y-23958732D01*
X232042634Y-23970125D01*
X232022073Y-23972625D01*
X231957404Y-23970271D01*
X231895436Y-23953179D01*
X231839136Y-23922424D01*
X231791473Y-23879082D01*
X231787176Y-23873740D01*
X231778903Y-23862227D01*
X231767966Y-23845752D01*
X231753912Y-23823546D01*
X231736287Y-23794839D01*
X231714637Y-23758861D01*
X231688508Y-23714845D01*
X231657448Y-23662020D01*
X231621003Y-23599618D01*
X231578719Y-23526869D01*
X231530142Y-23443004D01*
X231474819Y-23347254D01*
X231412297Y-23238849D01*
X231342122Y-23117021D01*
X231309980Y-23061202D01*
X231240385Y-22940399D01*
X231174448Y-22826027D01*
X231113287Y-22720021D01*
X231058019Y-22624321D01*
X231009762Y-22540863D01*
X230992021Y-22510204D01*
X230951338Y-22439880D01*
X230915224Y-22377422D01*
X230881558Y-22319158D01*
X230848221Y-22261416D01*
X230813092Y-22200524D01*
X230774050Y-22132810D01*
X230728975Y-22054601D01*
X230711168Y-22023713D01*
X230675868Y-21962526D01*
X230639831Y-21900120D01*
X230605280Y-21840341D01*
X230574438Y-21787035D01*
X230549527Y-21744048D01*
X230503022Y-21663821D01*
X230459511Y-21588394D01*
X230423113Y-21524579D01*
X230393236Y-21471069D01*
X230369289Y-21426559D01*
X230350679Y-21389742D01*
X230336816Y-21359312D01*
X230327106Y-21333963D01*
X230320959Y-21312388D01*
X230317783Y-21293281D01*
X230316986Y-21275335D01*
X230317239Y-21270711D01*
X230547844Y-21270711D01*
X230555669Y-21296386D01*
X230571947Y-21330806D01*
X230597146Y-21376287D01*
X230613035Y-21403870D01*
X230639142Y-21449158D01*
X230668904Y-21500758D01*
X230699757Y-21554226D01*
X230729139Y-21605116D01*
X230754345Y-21648795D01*
X230781142Y-21695299D01*
X230805583Y-21737779D01*
X230825726Y-21772861D01*
X230839629Y-21797169D01*
X230842823Y-21802774D01*
X230872232Y-21854203D01*
X230906827Y-21914389D01*
X230947379Y-21984667D01*
X230994659Y-22066373D01*
X231049436Y-22160843D01*
X231050393Y-22162491D01*
X231083698Y-22219978D01*
X231121957Y-22286158D01*
X231162099Y-22355711D01*
X231201053Y-22423316D01*
X231235750Y-22483655D01*
X231247536Y-22504167D01*
X231277572Y-22556345D01*
X231306680Y-22606786D01*
X231333062Y-22652378D01*
X231354917Y-22690010D01*
X231370447Y-22716570D01*
X231376230Y-22726416D01*
X231396714Y-22761485D01*
X231421740Y-22804532D01*
X231448665Y-22851009D01*
X231474849Y-22896365D01*
X231481405Y-22907740D01*
X231504831Y-22948365D01*
X231534190Y-22999245D01*
X231567820Y-23057504D01*
X231604061Y-23120264D01*
X231641251Y-23184649D01*
X231677729Y-23247780D01*
X231690493Y-23269875D01*
X231727353Y-23333767D01*
X231764280Y-23397890D01*
X231799624Y-23459370D01*
X231831730Y-23515331D01*
X231858949Y-23562898D01*
X231879628Y-23599196D01*
X231892886Y-23622329D01*
X231915595Y-23660927D01*
X231935795Y-23694026D01*
X231951681Y-23718694D01*
X231961446Y-23731998D01*
X231964395Y-23734995D01*
X231988669Y-23748371D01*
X232014855Y-23747372D01*
X232038107Y-23731998D01*
X232040989Y-23728201D01*
X232052473Y-23710631D01*
X232070374Y-23681626D01*
X232093567Y-23643067D01*
X232120925Y-23596834D01*
X232151324Y-23544807D01*
X232183637Y-23488868D01*
X232217134Y-23430609D01*
X232262018Y-23352673D01*
X232310037Y-23269408D01*
X232358440Y-23185578D01*
X232404476Y-23105952D01*
X232445394Y-23035296D01*
X232465823Y-23000029D01*
X232496295Y-22947367D01*
X232533344Y-22883291D01*
X232576120Y-22809272D01*
X232623775Y-22726782D01*
X232675459Y-22637291D01*
X232730321Y-22542271D01*
X232787512Y-22443194D01*
X232846183Y-22341529D01*
X232905484Y-22238750D01*
X232964564Y-22136326D01*
X232972294Y-22122924D01*
X233028933Y-22024723D01*
X233084073Y-21929123D01*
X233137047Y-21837281D01*
X233187190Y-21750352D01*
X233233833Y-21669492D01*
X233276311Y-21595857D01*
X233313957Y-21530602D01*
X233346104Y-21474883D01*
X233372085Y-21429856D01*
X233391234Y-21396676D01*
X233402883Y-21376500D01*
X233423378Y-21339999D01*
X233441627Y-21303294D01*
X233451266Y-21275822D01*
X233452759Y-21255272D01*
X233446570Y-21239331D01*
X233433164Y-21225690D01*
X233411631Y-21208752D01*
X230588369Y-21208752D01*
X230566835Y-21225690D01*
X230555690Y-21236322D01*
X230548006Y-21251463D01*
X230547844Y-21270711D01*
X230317239Y-21270711D01*
X230317976Y-21257245D01*
X230320162Y-21237704D01*
G37*
G36*
X232030761Y-21474512D02*
G01*
X232070315Y-21487027D01*
X232089313Y-21498175D01*
X232123274Y-21530070D01*
X232147902Y-21570286D01*
X232161031Y-21614692D01*
X232160496Y-21659154D01*
X232153888Y-21684113D01*
X232131366Y-21727523D01*
X232098624Y-21761481D01*
X232058358Y-21784674D01*
X232013264Y-21795790D01*
X231966039Y-21793516D01*
X231919381Y-21776538D01*
X231885025Y-21752013D01*
X231855425Y-21715411D01*
X231838036Y-21673445D01*
X231832753Y-21628933D01*
X231839467Y-21584691D01*
X231858073Y-21543540D01*
X231888464Y-21508295D01*
X231930534Y-21481776D01*
X231945493Y-21476512D01*
X231986719Y-21470915D01*
X232030761Y-21474512D01*
G37*
%TO.C,R8*%
X190237258Y-78922500D02*
X189762742Y-78922500D01*
X190237258Y-77877500D02*
X189762742Y-77877500D01*
%TO.C,C6*%
X206685000Y-35261252D02*
X206685000Y-34738748D01*
X205215000Y-35261252D02*
X205215000Y-34738748D01*
%TO.C,R18*%
X104587742Y-51977500D02*
X105062258Y-51977500D01*
X104587742Y-53022500D02*
X105062258Y-53022500D01*
%TO.C,R16*%
X290262742Y-76477500D02*
X290737258Y-76477500D01*
X290262742Y-77522500D02*
X290737258Y-77522500D01*
%TO.C,R3*%
X240237258Y-240477500D02*
X239762742Y-240477500D01*
X240237258Y-241522500D02*
X239762742Y-241522500D01*
%TO.C,R17*%
X105062258Y-34277500D02*
X104587742Y-34277500D01*
X105062258Y-35322500D02*
X104587742Y-35322500D01*
%TO.C,R23*%
X104587742Y-35977500D02*
X105062258Y-35977500D01*
X104587742Y-37022500D02*
X105062258Y-37022500D01*
%TO.C,R6*%
X89237258Y-134477500D02*
X88762742Y-134477500D01*
X89237258Y-135522500D02*
X88762742Y-135522500D01*
%TO.C,C18*%
X105086252Y-48065000D02*
X104563748Y-48065000D01*
X105086252Y-49535000D02*
X104563748Y-49535000D01*
%TO.C,R13*%
X236237258Y-31477500D02*
X235762742Y-31477500D01*
X236237258Y-32522500D02*
X235762742Y-32522500D01*
%TO.C,R2*%
X275237258Y-160522500D02*
X274762742Y-160522500D01*
X275237258Y-159477500D02*
X274762742Y-159477500D01*
%TO.C,R22*%
X104587742Y-68022500D02*
X105062258Y-68022500D01*
X104587742Y-66977500D02*
X105062258Y-66977500D01*
%TO.C,C4*%
X152735000Y-50261252D02*
X152735000Y-49738748D01*
X151265000Y-50261252D02*
X151265000Y-49738748D01*
%TO.C,C11*%
X237735000Y-22211252D02*
X237735000Y-21688748D01*
X236265000Y-22211252D02*
X236265000Y-21688748D01*
%TO.C,C3*%
X277215000Y-151261252D02*
X277215000Y-150738748D01*
X278685000Y-151261252D02*
X278685000Y-150738748D01*
%TO.C,C15*%
X169235000Y-33261252D02*
X169235000Y-32738748D01*
X167765000Y-33261252D02*
X167765000Y-32738748D01*
%TO.C,G\u002A\u002A\u002A*%
G36*
X216320162Y-21237704D02*
G01*
X216325123Y-21211174D01*
X216344234Y-21156727D01*
X216372934Y-21105786D01*
X216408045Y-21064609D01*
X216425319Y-21049224D01*
X216453938Y-21027314D01*
X216482204Y-21012031D01*
X216516699Y-20999429D01*
X216520848Y-20998533D01*
X216532043Y-20997282D01*
X216549725Y-20996147D01*
X216574509Y-20995125D01*
X216607011Y-20994212D01*
X216647847Y-20993405D01*
X216697634Y-20992700D01*
X216756988Y-20992093D01*
X216826524Y-20991581D01*
X216906860Y-20991161D01*
X216998611Y-20990827D01*
X217102394Y-20990578D01*
X217218824Y-20990409D01*
X217348519Y-20990316D01*
X217492093Y-20990296D01*
X217650164Y-20990346D01*
X217823347Y-20990462D01*
X218012258Y-20990640D01*
X219475128Y-20992182D01*
X219513680Y-21009992D01*
X219549498Y-21030962D01*
X219589743Y-21063639D01*
X219624852Y-21101160D01*
X219649616Y-21138595D01*
X219652728Y-21145025D01*
X219673039Y-21203279D01*
X219681093Y-21262884D01*
X219676141Y-21318752D01*
X219675066Y-21323486D01*
X219671482Y-21337814D01*
X219667059Y-21352180D01*
X219661059Y-21367993D01*
X219652740Y-21386659D01*
X219641361Y-21409586D01*
X219626181Y-21438182D01*
X219606460Y-21473853D01*
X219581457Y-21518007D01*
X219550431Y-21572053D01*
X219512642Y-21637396D01*
X219467348Y-21715444D01*
X219434085Y-21772730D01*
X219397847Y-21835172D01*
X219363540Y-21894319D01*
X219332421Y-21948002D01*
X219305746Y-21994055D01*
X219284771Y-22030310D01*
X219270752Y-22054601D01*
X219269968Y-22055965D01*
X219193043Y-22189523D01*
X219112815Y-22328618D01*
X219027635Y-22476106D01*
X218935853Y-22634846D01*
X218898486Y-22699451D01*
X218828305Y-22820842D01*
X218759671Y-22939625D01*
X218693188Y-23054751D01*
X218629461Y-23165171D01*
X218569093Y-23269836D01*
X218512690Y-23367698D01*
X218460854Y-23457709D01*
X218414191Y-23538820D01*
X218373304Y-23609983D01*
X218338799Y-23670148D01*
X218311278Y-23718267D01*
X218291347Y-23753292D01*
X218287050Y-23760831D01*
X218247684Y-23824861D01*
X218210367Y-23874968D01*
X218173150Y-23912851D01*
X218134087Y-23940206D01*
X218091231Y-23958732D01*
X218042634Y-23970125D01*
X218022073Y-23972625D01*
X217957404Y-23970271D01*
X217895436Y-23953179D01*
X217839136Y-23922424D01*
X217791473Y-23879082D01*
X217787176Y-23873740D01*
X217778903Y-23862227D01*
X217767966Y-23845752D01*
X217753912Y-23823546D01*
X217736287Y-23794839D01*
X217714637Y-23758861D01*
X217688508Y-23714845D01*
X217657448Y-23662020D01*
X217621003Y-23599618D01*
X217578719Y-23526869D01*
X217530142Y-23443004D01*
X217474819Y-23347254D01*
X217412297Y-23238849D01*
X217342122Y-23117021D01*
X217309980Y-23061202D01*
X217240385Y-22940399D01*
X217174448Y-22826027D01*
X217113287Y-22720021D01*
X217058019Y-22624321D01*
X217009762Y-22540863D01*
X216992021Y-22510204D01*
X216951338Y-22439880D01*
X216915224Y-22377422D01*
X216881558Y-22319158D01*
X216848221Y-22261416D01*
X216813092Y-22200524D01*
X216774050Y-22132810D01*
X216728975Y-22054601D01*
X216711168Y-22023713D01*
X216675868Y-21962526D01*
X216639831Y-21900120D01*
X216605280Y-21840341D01*
X216574438Y-21787035D01*
X216549527Y-21744048D01*
X216503022Y-21663821D01*
X216459511Y-21588394D01*
X216423113Y-21524579D01*
X216393236Y-21471069D01*
X216369289Y-21426559D01*
X216350679Y-21389742D01*
X216336816Y-21359312D01*
X216327106Y-21333963D01*
X216320959Y-21312388D01*
X216317783Y-21293281D01*
X216316986Y-21275335D01*
X216317239Y-21270711D01*
X216547844Y-21270711D01*
X216555669Y-21296386D01*
X216571947Y-21330806D01*
X216597146Y-21376287D01*
X216613035Y-21403870D01*
X216639142Y-21449158D01*
X216668904Y-21500758D01*
X216699757Y-21554226D01*
X216729139Y-21605116D01*
X216754345Y-21648795D01*
X216781142Y-21695299D01*
X216805583Y-21737779D01*
X216825726Y-21772861D01*
X216839629Y-21797169D01*
X216842823Y-21802774D01*
X216872232Y-21854203D01*
X216906827Y-21914389D01*
X216947379Y-21984667D01*
X216994659Y-22066373D01*
X217049436Y-22160843D01*
X217050393Y-22162491D01*
X217083698Y-22219978D01*
X217121957Y-22286158D01*
X217162099Y-22355711D01*
X217201053Y-22423316D01*
X217235750Y-22483655D01*
X217247536Y-22504167D01*
X217277572Y-22556345D01*
X217306680Y-22606786D01*
X217333062Y-22652378D01*
X217354917Y-22690010D01*
X217370447Y-22716570D01*
X217376230Y-22726416D01*
X217396714Y-22761485D01*
X217421740Y-22804532D01*
X217448665Y-22851009D01*
X217474849Y-22896365D01*
X217481405Y-22907740D01*
X217504831Y-22948365D01*
X217534190Y-22999245D01*
X217567820Y-23057504D01*
X217604061Y-23120264D01*
X217641251Y-23184649D01*
X217677729Y-23247780D01*
X217690493Y-23269875D01*
X217727353Y-23333767D01*
X217764280Y-23397890D01*
X217799624Y-23459370D01*
X217831730Y-23515331D01*
X217858949Y-23562898D01*
X217879628Y-23599196D01*
X217892886Y-23622329D01*
X217915595Y-23660927D01*
X217935795Y-23694026D01*
X217951681Y-23718694D01*
X217961446Y-23731998D01*
X217964395Y-23734995D01*
X217988669Y-23748371D01*
X218014855Y-23747372D01*
X218038107Y-23731998D01*
X218040989Y-23728201D01*
X218052473Y-23710631D01*
X218070374Y-23681626D01*
X218093567Y-23643067D01*
X218120925Y-23596834D01*
X218151324Y-23544807D01*
X218183637Y-23488868D01*
X218217134Y-23430609D01*
X218262018Y-23352673D01*
X218310037Y-23269408D01*
X218358440Y-23185578D01*
X218404476Y-23105952D01*
X218445394Y-23035296D01*
X218465823Y-23000029D01*
X218496295Y-22947367D01*
X218533344Y-22883291D01*
X218576120Y-22809272D01*
X218623775Y-22726782D01*
X218675459Y-22637291D01*
X218730321Y-22542271D01*
X218787512Y-22443194D01*
X218846183Y-22341529D01*
X218905484Y-22238750D01*
X218964564Y-22136326D01*
X218972294Y-22122924D01*
X219028933Y-22024723D01*
X219084073Y-21929123D01*
X219137047Y-21837281D01*
X219187190Y-21750352D01*
X219233833Y-21669492D01*
X219276311Y-21595857D01*
X219313957Y-21530602D01*
X219346104Y-21474883D01*
X219372085Y-21429856D01*
X219391234Y-21396676D01*
X219402883Y-21376500D01*
X219423378Y-21339999D01*
X219441627Y-21303294D01*
X219451266Y-21275822D01*
X219452759Y-21255272D01*
X219446570Y-21239331D01*
X219433164Y-21225690D01*
X219411631Y-21208752D01*
X216588369Y-21208752D01*
X216566835Y-21225690D01*
X216555690Y-21236322D01*
X216548006Y-21251463D01*
X216547844Y-21270711D01*
X216317239Y-21270711D01*
X216317976Y-21257245D01*
X216320162Y-21237704D01*
G37*
G36*
X218027644Y-21952081D02*
G01*
X218041907Y-21959193D01*
X218055086Y-21971691D01*
X218065217Y-21990938D01*
X218073166Y-22019332D01*
X218079803Y-22059270D01*
X218085997Y-22113150D01*
X218087781Y-22130722D01*
X218101614Y-22267481D01*
X218113785Y-22389068D01*
X218124355Y-22496451D01*
X218133381Y-22590595D01*
X218140925Y-22672466D01*
X218147045Y-22743031D01*
X218151802Y-22803254D01*
X218155254Y-22854103D01*
X218157460Y-22896544D01*
X218158482Y-22931541D01*
X218158377Y-22960062D01*
X218157206Y-22983072D01*
X218155028Y-23001538D01*
X218151902Y-23016425D01*
X218147889Y-23028699D01*
X218143047Y-23039326D01*
X218136485Y-23050668D01*
X218106375Y-23084116D01*
X218068049Y-23106913D01*
X218024769Y-23118875D01*
X217979800Y-23119820D01*
X217936406Y-23109566D01*
X217897849Y-23087931D01*
X217867395Y-23054731D01*
X217854642Y-23030789D01*
X217844176Y-22996653D01*
X217839038Y-22954646D01*
X217838944Y-22902149D01*
X217843608Y-22836548D01*
X217853036Y-22737647D01*
X217863807Y-22625107D01*
X217874028Y-22518803D01*
X217883589Y-22419851D01*
X217892383Y-22329366D01*
X217900299Y-22248464D01*
X217907228Y-22178258D01*
X217913061Y-22119865D01*
X217917689Y-22074400D01*
X217921003Y-22042977D01*
X217922893Y-22026712D01*
X217929824Y-21999663D01*
X217951036Y-21967462D01*
X217972231Y-21950809D01*
X217997093Y-21944893D01*
X218027644Y-21952081D01*
G37*
G36*
X218030761Y-21474512D02*
G01*
X218070315Y-21487027D01*
X218089313Y-21498175D01*
X218123274Y-21530070D01*
X218147902Y-21570286D01*
X218161031Y-21614692D01*
X218160496Y-21659154D01*
X218153888Y-21684113D01*
X218131366Y-21727523D01*
X218098624Y-21761481D01*
X218058358Y-21784674D01*
X218013264Y-21795790D01*
X217966039Y-21793516D01*
X217919381Y-21776538D01*
X217885025Y-21752013D01*
X217855425Y-21715411D01*
X217838036Y-21673445D01*
X217832753Y-21628933D01*
X217839467Y-21584691D01*
X217858073Y-21543540D01*
X217888464Y-21508295D01*
X217930534Y-21481776D01*
X217945493Y-21476512D01*
X217986719Y-21470915D01*
X218030761Y-21474512D01*
G37*
%TO.C,R25*%
X104587742Y-68727500D02*
X105062258Y-68727500D01*
X104587742Y-69772500D02*
X105062258Y-69772500D01*
%TO.C,R12*%
X274834988Y-129022500D02*
X274360472Y-129022500D01*
X274834988Y-127977500D02*
X274360472Y-127977500D01*
%TO.C,C1*%
X202735000Y-60261252D02*
X202735000Y-59738748D01*
X201265000Y-60261252D02*
X201265000Y-59738748D01*
%TO.C,R1*%
X218022500Y-26297258D02*
X218022500Y-25822742D01*
X216977500Y-26297258D02*
X216977500Y-25822742D01*
%TO.C,C17*%
X105086252Y-29565000D02*
X104563748Y-29565000D01*
X105086252Y-31035000D02*
X104563748Y-31035000D01*
%TO.C,C21*%
X105086252Y-60565000D02*
X104563748Y-60565000D01*
X105086252Y-62035000D02*
X104563748Y-62035000D01*
%TD*%
%LPC*%
D14*
%TO.C,H1*%
X23000000Y-23000000D03*
%TD*%
%TO.C,H5*%
X292000000Y-247000000D03*
%TD*%
%TO.C,H3*%
X24000000Y-246000000D03*
%TD*%
%TO.C,H2*%
X23000000Y-135000000D03*
%TD*%
%TO.C,H4*%
X180000000Y-247000000D03*
%TD*%
%TO.C,*%
X23000000Y-23000000D03*
%TD*%
D15*
%TO.C,U2*%
X118900000Y-31555000D03*
X118900000Y-32825000D03*
X118900000Y-34095000D03*
X118900000Y-35365000D03*
X118900000Y-36635000D03*
X118900000Y-37905000D03*
X118900000Y-39175000D03*
X118900000Y-40445000D03*
X109600000Y-40445000D03*
X109600000Y-39175000D03*
X109600000Y-37905000D03*
X109600000Y-36635000D03*
X109600000Y-35365000D03*
X109600000Y-34095000D03*
X109600000Y-32825000D03*
X109600000Y-31555000D03*
%TD*%
D16*
%TO.C,R14*%
X175500000Y-35825000D03*
X175500000Y-34175000D03*
%TD*%
D17*
%TO.C,R15*%
X170325000Y-30000000D03*
X168675000Y-30000000D03*
%TD*%
D18*
%TO.C,U1*%
X171050000Y-36362500D03*
X172000000Y-36362500D03*
X172950000Y-36362500D03*
X172950000Y-38637500D03*
X171050000Y-38637500D03*
%TD*%
D19*
%TO.C,C5*%
X122000000Y-150950000D03*
X122000000Y-149050000D03*
%TD*%
%TO.C,C12*%
X223000000Y-136950000D03*
X223000000Y-135050000D03*
%TD*%
%TO.C,C9*%
X69000000Y-149950000D03*
X69000000Y-148050000D03*
%TD*%
D20*
%TO.C,P1*%
X227750000Y-28450000D03*
X226250000Y-28450000D03*
X225750000Y-28450000D03*
X225250000Y-28450000D03*
X224750000Y-28450000D03*
X223250000Y-28450000D03*
X222750000Y-28450000D03*
X222250000Y-28450000D03*
X223750000Y-28450000D03*
X224250000Y-28450000D03*
X226750000Y-28450000D03*
X227250000Y-28450000D03*
D21*
X226750000Y-23900000D03*
D22*
X220450000Y-23950000D03*
D21*
X223750000Y-25650000D03*
X223250000Y-23900000D03*
D23*
X221750000Y-28350000D03*
X228250000Y-28356250D03*
D21*
X226250000Y-25650000D03*
D22*
X229550000Y-26550000D03*
X229550000Y-23900000D03*
X220450000Y-26600000D03*
%TD*%
D24*
%TO.C,R19*%
X104000000Y-54250000D03*
X105650000Y-54250000D03*
%TD*%
D25*
%TO.C,C16*%
X105775000Y-32800000D03*
X103875000Y-32800000D03*
%TD*%
D17*
%TO.C,R21*%
X105650000Y-50800000D03*
X104000000Y-50800000D03*
%TD*%
%TO.C,R20*%
X105650000Y-65800000D03*
X104000000Y-65800000D03*
%TD*%
D15*
%TO.C,U3*%
X118900000Y-61555000D03*
X118900000Y-62825000D03*
X118900000Y-64095000D03*
X118900000Y-65365000D03*
X118900000Y-66635000D03*
X118900000Y-67905000D03*
X118900000Y-69175000D03*
X118900000Y-70445000D03*
X109600000Y-70445000D03*
X109600000Y-69175000D03*
X109600000Y-67905000D03*
X109600000Y-66635000D03*
X109600000Y-65365000D03*
X109600000Y-64095000D03*
X109600000Y-62825000D03*
X109600000Y-61555000D03*
%TD*%
D26*
%TO.C,C13*%
X173500000Y-41050000D03*
X173500000Y-42950000D03*
%TD*%
%TO.C,C14*%
X171000000Y-41050000D03*
X171000000Y-42950000D03*
%TD*%
D19*
%TO.C,C7*%
X273000000Y-82950000D03*
X273000000Y-81050000D03*
%TD*%
%TO.C,C8*%
X251000000Y-226950000D03*
X251000000Y-225050000D03*
%TD*%
%TO.C,C2*%
X280000000Y-114450000D03*
X280000000Y-112550000D03*
%TD*%
D17*
%TO.C,R7*%
X168825000Y-70000000D03*
X167175000Y-70000000D03*
%TD*%
D25*
%TO.C,C20*%
X105775000Y-63800000D03*
X103875000Y-63800000D03*
%TD*%
D17*
%TO.C,R10*%
X288825000Y-34000000D03*
X287175000Y-34000000D03*
%TD*%
D25*
%TO.C,C19*%
X105775000Y-46300000D03*
X103875000Y-46300000D03*
%TD*%
D17*
%TO.C,R5*%
X130825000Y-127000000D03*
X129175000Y-127000000D03*
%TD*%
D16*
%TO.C,R11*%
X254000000Y-75234092D03*
X254000000Y-73584092D03*
%TD*%
D17*
%TO.C,R9*%
X224825000Y-45000000D03*
X223175000Y-45000000D03*
%TD*%
D27*
%TO.C,D13*%
X172500000Y-33650000D03*
X172500000Y-30350000D03*
%TD*%
D24*
%TO.C,R24*%
X104000000Y-38250000D03*
X105650000Y-38250000D03*
%TD*%
D16*
%TO.C,R4*%
X211000000Y-129825000D03*
X211000000Y-128175000D03*
%TD*%
D28*
%TO.C,J1*%
X289030000Y-67110000D03*
X289030000Y-72890000D03*
D29*
X287585000Y-66750000D03*
X287585000Y-67550000D03*
D30*
X287585000Y-68750000D03*
X287585000Y-69750000D03*
X287585000Y-70250000D03*
X287585000Y-71250000D03*
D29*
X287585000Y-72450000D03*
X287585000Y-73250000D03*
X287585000Y-73250000D03*
X287585000Y-72450000D03*
D30*
X287585000Y-71750000D03*
X287585000Y-70750000D03*
X287585000Y-69250000D03*
X287585000Y-68250000D03*
D29*
X287585000Y-67550000D03*
X287585000Y-66750000D03*
D31*
X288500000Y-65680000D03*
D32*
X292680000Y-74320000D03*
X292680000Y-65680000D03*
D31*
X288500000Y-74320000D03*
%TD*%
D19*
%TO.C,C10*%
X280000000Y-42900000D03*
X280000000Y-41000000D03*
%TD*%
D15*
%TO.C,U4*%
X118900000Y-46555000D03*
X118900000Y-47825000D03*
X118900000Y-49095000D03*
X118900000Y-50365000D03*
X118900000Y-51635000D03*
X118900000Y-52905000D03*
X118900000Y-54175000D03*
X118900000Y-55445000D03*
X109600000Y-55445000D03*
X109600000Y-54175000D03*
X109600000Y-52905000D03*
X109600000Y-51635000D03*
X109600000Y-50365000D03*
X109600000Y-49095000D03*
X109600000Y-47825000D03*
X109600000Y-46555000D03*
%TD*%
D17*
%TO.C,R8*%
X190825000Y-78400000D03*
X189175000Y-78400000D03*
%TD*%
D19*
%TO.C,C6*%
X205950000Y-35950000D03*
X205950000Y-34050000D03*
%TD*%
D24*
%TO.C,R18*%
X104000000Y-52500000D03*
X105650000Y-52500000D03*
%TD*%
%TO.C,R16*%
X289675000Y-77000000D03*
X291325000Y-77000000D03*
%TD*%
D17*
%TO.C,R3*%
X240825000Y-241000000D03*
X239175000Y-241000000D03*
%TD*%
%TO.C,R17*%
X105650000Y-34800000D03*
X104000000Y-34800000D03*
%TD*%
D24*
%TO.C,R23*%
X104000000Y-36500000D03*
X105650000Y-36500000D03*
%TD*%
D17*
%TO.C,R6*%
X89825000Y-135000000D03*
X88175000Y-135000000D03*
%TD*%
D25*
%TO.C,C18*%
X105775000Y-48800000D03*
X103875000Y-48800000D03*
%TD*%
D17*
%TO.C,R13*%
X236825000Y-32000000D03*
X235175000Y-32000000D03*
%TD*%
%TO.C,R2*%
X275825000Y-160000000D03*
X274175000Y-160000000D03*
%TD*%
D24*
%TO.C,R22*%
X104000000Y-67500000D03*
X105650000Y-67500000D03*
%TD*%
D19*
%TO.C,C4*%
X152000000Y-50950000D03*
X152000000Y-49050000D03*
%TD*%
%TO.C,C11*%
X237000000Y-22900000D03*
X237000000Y-21000000D03*
%TD*%
%TO.C,C3*%
X277950000Y-151950000D03*
X277950000Y-150050000D03*
%TD*%
%TO.C,C15*%
X168500000Y-33950000D03*
X168500000Y-32050000D03*
%TD*%
D24*
%TO.C,R25*%
X104000000Y-69250000D03*
X105650000Y-69250000D03*
%TD*%
D17*
%TO.C,R12*%
X275422730Y-128500000D03*
X273772730Y-128500000D03*
%TD*%
D19*
%TO.C,C1*%
X202000000Y-60950000D03*
X202000000Y-59050000D03*
%TD*%
D16*
%TO.C,R1*%
X217500000Y-26885000D03*
X217500000Y-25235000D03*
%TD*%
D25*
%TO.C,C17*%
X105775000Y-30300000D03*
X103875000Y-30300000D03*
%TD*%
%TO.C,C21*%
X105775000Y-61300000D03*
X103875000Y-61300000D03*
%TD*%
M02*
