%TF.GenerationSoftware,KiCad,Pcbnew,(6.0.4)*%
%TF.CreationDate,2022-05-26T23:51:16-07:00*%
%TF.ProjectId,bot_R,626f745f-522e-46b6-9963-61645f706362,rev?*%
%TF.SameCoordinates,Original*%
%TF.FileFunction,Legend,Bot*%
%TF.FilePolarity,Positive*%
%FSLAX46Y46*%
G04 Gerber Fmt 4.6, Leading zero omitted, Abs format (unit mm)*
G04 Created by KiCad (PCBNEW (6.0.4)) date 2022-05-26 23:51:16*
%MOMM*%
%LPD*%
G01*
G04 APERTURE LIST*
G04 Aperture macros list*
%AMRoundRect*
0 Rectangle with rounded corners*
0 $1 Rounding radius*
0 $2 $3 $4 $5 $6 $7 $8 $9 X,Y pos of 4 corners*
0 Add a 4 corners polygon primitive as box body*
4,1,4,$2,$3,$4,$5,$6,$7,$8,$9,$2,$3,0*
0 Add four circle primitives for the rounded corners*
1,1,$1+$1,$2,$3*
1,1,$1+$1,$4,$5*
1,1,$1+$1,$6,$7*
1,1,$1+$1,$8,$9*
0 Add four rect primitives between the rounded corners*
20,1,$1+$1,$2,$3,$4,$5,0*
20,1,$1+$1,$4,$5,$6,$7,0*
20,1,$1+$1,$6,$7,$8,$9,0*
20,1,$1+$1,$8,$9,$2,$3,0*%
G04 Aperture macros list end*
%ADD10C,0.150000*%
%ADD11C,0.062500*%
%ADD12C,0.120000*%
%ADD13C,0.010000*%
%ADD14C,2.200000*%
%ADD15RoundRect,0.200000X0.200000X0.275000X-0.200000X0.275000X-0.200000X-0.275000X0.200000X-0.275000X0*%
%ADD16C,0.650000*%
%ADD17R,0.600000X1.450000*%
%ADD18R,0.300000X1.450000*%
%ADD19O,1.000000X1.600000*%
%ADD20O,1.000000X2.100000*%
%ADD21RoundRect,0.250000X0.250000X0.475000X-0.250000X0.475000X-0.250000X-0.475000X0.250000X-0.475000X0*%
%ADD22RoundRect,0.250000X-0.250000X-0.475000X0.250000X-0.475000X0.250000X0.475000X-0.250000X0.475000X0*%
%ADD23RoundRect,0.200000X-0.200000X-0.275000X0.200000X-0.275000X0.200000X0.275000X-0.200000X0.275000X0*%
%ADD24RoundRect,0.150000X-0.512500X-0.150000X0.512500X-0.150000X0.512500X0.150000X-0.512500X0.150000X0*%
%ADD25RoundRect,0.150000X0.875000X0.150000X-0.875000X0.150000X-0.875000X-0.150000X0.875000X-0.150000X0*%
%ADD26RoundRect,0.250000X-0.475000X0.250000X-0.475000X-0.250000X0.475000X-0.250000X0.475000X0.250000X0*%
%ADD27R,0.900000X1.200000*%
%ADD28R,1.825000X0.400000*%
%ADD29R,1.200000X1.500000*%
%ADD30R,1.200000X1.200000*%
%ADD31R,2.012500X0.400000*%
%ADD32RoundRect,0.200000X0.275000X-0.200000X0.275000X0.200000X-0.275000X0.200000X-0.275000X-0.200000X0*%
G04 APERTURE END LIST*
D10*
X275380952Y-23047619D02*
X275380952Y-22333333D01*
X275333333Y-22190476D01*
X275238095Y-22095238D01*
X275095238Y-22047619D01*
X275000000Y-22047619D01*
X276333333Y-22047619D02*
X275857142Y-22047619D01*
X275857142Y-23047619D01*
X277238095Y-22142857D02*
X277190476Y-22095238D01*
X277047619Y-22047619D01*
X276952380Y-22047619D01*
X276809523Y-22095238D01*
X276714285Y-22190476D01*
X276666666Y-22285714D01*
X276619047Y-22476190D01*
X276619047Y-22619047D01*
X276666666Y-22809523D01*
X276714285Y-22904761D01*
X276809523Y-23000000D01*
X276952380Y-23047619D01*
X277047619Y-23047619D01*
X277190476Y-23000000D01*
X277238095Y-22952380D01*
X277952380Y-23047619D02*
X277952380Y-22333333D01*
X277904761Y-22190476D01*
X277809523Y-22095238D01*
X277666666Y-22047619D01*
X277571428Y-22047619D01*
X278904761Y-22047619D02*
X278428571Y-22047619D01*
X278428571Y-23047619D01*
X279809523Y-22142857D02*
X279761904Y-22095238D01*
X279619047Y-22047619D01*
X279523809Y-22047619D01*
X279380952Y-22095238D01*
X279285714Y-22190476D01*
X279238095Y-22285714D01*
X279190476Y-22476190D01*
X279190476Y-22619047D01*
X279238095Y-22809523D01*
X279285714Y-22904761D01*
X279380952Y-23000000D01*
X279523809Y-23047619D01*
X279619047Y-23047619D01*
X279761904Y-23000000D01*
X279809523Y-22952380D01*
X280523809Y-23047619D02*
X280523809Y-22333333D01*
X280476190Y-22190476D01*
X280380952Y-22095238D01*
X280238095Y-22047619D01*
X280142857Y-22047619D01*
X281476190Y-22047619D02*
X281000000Y-22047619D01*
X281000000Y-23047619D01*
X282380952Y-22142857D02*
X282333333Y-22095238D01*
X282190476Y-22047619D01*
X282095238Y-22047619D01*
X281952380Y-22095238D01*
X281857142Y-22190476D01*
X281809523Y-22285714D01*
X281761904Y-22476190D01*
X281761904Y-22619047D01*
X281809523Y-22809523D01*
X281857142Y-22904761D01*
X281952380Y-23000000D01*
X282095238Y-23047619D01*
X282190476Y-23047619D01*
X282333333Y-23000000D01*
X282380952Y-22952380D01*
X283095238Y-23047619D02*
X283095238Y-22333333D01*
X283047619Y-22190476D01*
X282952380Y-22095238D01*
X282809523Y-22047619D01*
X282714285Y-22047619D01*
X284047619Y-22047619D02*
X283571428Y-22047619D01*
X283571428Y-23047619D01*
X284952380Y-22142857D02*
X284904761Y-22095238D01*
X284761904Y-22047619D01*
X284666666Y-22047619D01*
X284523809Y-22095238D01*
X284428571Y-22190476D01*
X284380952Y-22285714D01*
X284333333Y-22476190D01*
X284333333Y-22619047D01*
X284380952Y-22809523D01*
X284428571Y-22904761D01*
X284523809Y-23000000D01*
X284666666Y-23047619D01*
X284761904Y-23047619D01*
X284904761Y-23000000D01*
X284952380Y-22952380D01*
X106400000Y-69000000D02*
G75*
G03*
X106400000Y-69000000I-1500000J0D01*
G01*
X268500000Y-176900000D02*
G75*
G03*
X268500000Y-176900000I-1500000J0D01*
G01*
X92000000Y-69000000D02*
G75*
G03*
X92000000Y-69000000I-1500000J0D01*
G01*
X63950000Y-21050000D02*
X63950000Y-27800000D01*
X30900000Y-60000000D02*
G75*
G03*
X30900000Y-60000000I-1500000J0D01*
G01*
X185400000Y-238000000D02*
G75*
G03*
X185400000Y-238000000I-1500000J0D01*
G01*
X193500000Y-132500000D02*
G75*
G03*
X193500000Y-132500000I-1500000J0D01*
G01*
X137000000Y-64400000D02*
G75*
G03*
X137000000Y-64400000I-1500000J0D01*
G01*
X127900000Y-220000000D02*
G75*
G03*
X127900000Y-220000000I-1500000J0D01*
G01*
X21050000Y-79550000D02*
X27800000Y-79550000D01*
X26200000Y-96050000D02*
X26200000Y-79550000D01*
X80450000Y-21050000D02*
X80450000Y-27800000D01*
X59000000Y-234500000D02*
G75*
G03*
X59000000Y-234500000I-1500000J0D01*
G01*
X137000000Y-50000000D02*
G75*
G03*
X137000000Y-50000000I-1500000J0D01*
G01*
X171000000Y-238000000D02*
G75*
G03*
X171000000Y-238000000I-1500000J0D01*
G01*
X21050000Y-79550000D02*
X21050000Y-96050000D01*
X21050000Y-96050000D02*
X27800000Y-96050000D01*
X35682338Y-156682338D02*
G75*
G03*
X35682338Y-156682338I-1500000J0D01*
G01*
X25500000Y-146500000D02*
G75*
G03*
X25500000Y-146500000I-1500000J0D01*
G01*
X16500000Y-60000000D02*
G75*
G03*
X16500000Y-60000000I-1500000J0D01*
G01*
X36682338Y-177682338D02*
G75*
G03*
X36682338Y-177682338I-1500000J0D01*
G01*
X67000000Y-180400000D02*
G75*
G03*
X67000000Y-180400000I-1500000J0D01*
G01*
X113500000Y-220000000D02*
G75*
G03*
X113500000Y-220000000I-1500000J0D01*
G01*
X73400000Y-234500000D02*
G75*
G03*
X73400000Y-234500000I-1500000J0D01*
G01*
X268500000Y-162500000D02*
G75*
G03*
X268500000Y-162500000I-1500000J0D01*
G01*
X67000000Y-166000000D02*
G75*
G03*
X67000000Y-166000000I-1500000J0D01*
G01*
X63950000Y-27800000D02*
X80450000Y-27800000D01*
X27800000Y-96050000D02*
X27800000Y-79550000D01*
X63950000Y-26200000D02*
X80450000Y-26200000D01*
X207900000Y-132500000D02*
G75*
G03*
X207900000Y-132500000I-1500000J0D01*
G01*
X80450000Y-21050000D02*
X63950000Y-21050000D01*
X254500000Y-229400000D02*
G75*
G03*
X254500000Y-229400000I-1500000J0D01*
G01*
X254500000Y-215000000D02*
G75*
G03*
X254500000Y-215000000I-1500000J0D01*
G01*
X26500000Y-167500000D02*
G75*
G03*
X26500000Y-167500000I-1500000J0D01*
G01*
X65914285Y-27512619D02*
X65914285Y-26703095D01*
X65961904Y-26607857D01*
X66009523Y-26560238D01*
X66104761Y-26512619D01*
X66295238Y-26512619D01*
X66390476Y-26560238D01*
X66438095Y-26607857D01*
X66485714Y-26703095D01*
X66485714Y-27512619D01*
X66914285Y-26560238D02*
X67057142Y-26512619D01*
X67295238Y-26512619D01*
X67390476Y-26560238D01*
X67438095Y-26607857D01*
X67485714Y-26703095D01*
X67485714Y-26798333D01*
X67438095Y-26893571D01*
X67390476Y-26941190D01*
X67295238Y-26988809D01*
X67104761Y-27036428D01*
X67009523Y-27084047D01*
X66961904Y-27131666D01*
X66914285Y-27226904D01*
X66914285Y-27322142D01*
X66961904Y-27417380D01*
X67009523Y-27465000D01*
X67104761Y-27512619D01*
X67342857Y-27512619D01*
X67485714Y-27465000D01*
X68247619Y-27036428D02*
X68390476Y-26988809D01*
X68438095Y-26941190D01*
X68485714Y-26845952D01*
X68485714Y-26703095D01*
X68438095Y-26607857D01*
X68390476Y-26560238D01*
X68295238Y-26512619D01*
X67914285Y-26512619D01*
X67914285Y-27512619D01*
X68247619Y-27512619D01*
X68342857Y-27465000D01*
X68390476Y-27417380D01*
X68438095Y-27322142D01*
X68438095Y-27226904D01*
X68390476Y-27131666D01*
X68342857Y-27084047D01*
X68247619Y-27036428D01*
X67914285Y-27036428D01*
X69676190Y-27179285D02*
X69676190Y-26512619D01*
X69676190Y-27084047D02*
X69723809Y-27131666D01*
X69819047Y-27179285D01*
X69961904Y-27179285D01*
X70057142Y-27131666D01*
X70104761Y-27036428D01*
X70104761Y-26512619D01*
X70723809Y-26512619D02*
X70628571Y-26560238D01*
X70580952Y-26607857D01*
X70533333Y-26703095D01*
X70533333Y-26988809D01*
X70580952Y-27084047D01*
X70628571Y-27131666D01*
X70723809Y-27179285D01*
X70866666Y-27179285D01*
X70961904Y-27131666D01*
X71009523Y-27084047D01*
X71057142Y-26988809D01*
X71057142Y-26703095D01*
X71009523Y-26607857D01*
X70961904Y-26560238D01*
X70866666Y-26512619D01*
X70723809Y-26512619D01*
X71342857Y-27179285D02*
X71723809Y-27179285D01*
X71485714Y-27512619D02*
X71485714Y-26655476D01*
X71533333Y-26560238D01*
X71628571Y-26512619D01*
X71723809Y-26512619D01*
X72676190Y-27179285D02*
X73057142Y-27179285D01*
X72819047Y-27512619D02*
X72819047Y-26655476D01*
X72866666Y-26560238D01*
X72961904Y-26512619D01*
X73057142Y-26512619D01*
X73533333Y-26512619D02*
X73438095Y-26560238D01*
X73390476Y-26607857D01*
X73342857Y-26703095D01*
X73342857Y-26988809D01*
X73390476Y-27084047D01*
X73438095Y-27131666D01*
X73533333Y-27179285D01*
X73676190Y-27179285D01*
X73771428Y-27131666D01*
X73819047Y-27084047D01*
X73866666Y-26988809D01*
X73866666Y-26703095D01*
X73819047Y-26607857D01*
X73771428Y-26560238D01*
X73676190Y-26512619D01*
X73533333Y-26512619D01*
X75009523Y-26560238D02*
X75104761Y-26512619D01*
X75295238Y-26512619D01*
X75390476Y-26560238D01*
X75438095Y-26655476D01*
X75438095Y-26703095D01*
X75390476Y-26798333D01*
X75295238Y-26845952D01*
X75152380Y-26845952D01*
X75057142Y-26893571D01*
X75009523Y-26988809D01*
X75009523Y-27036428D01*
X75057142Y-27131666D01*
X75152380Y-27179285D01*
X75295238Y-27179285D01*
X75390476Y-27131666D01*
X75866666Y-27179285D02*
X75866666Y-26179285D01*
X75866666Y-27131666D02*
X75961904Y-27179285D01*
X76152380Y-27179285D01*
X76247619Y-27131666D01*
X76295238Y-27084047D01*
X76342857Y-26988809D01*
X76342857Y-26703095D01*
X76295238Y-26607857D01*
X76247619Y-26560238D01*
X76152380Y-26512619D01*
X75961904Y-26512619D01*
X75866666Y-26560238D01*
X77152380Y-26560238D02*
X77057142Y-26512619D01*
X76866666Y-26512619D01*
X76771428Y-26560238D01*
X76723809Y-26655476D01*
X76723809Y-27036428D01*
X76771428Y-27131666D01*
X76866666Y-27179285D01*
X77057142Y-27179285D01*
X77152380Y-27131666D01*
X77200000Y-27036428D01*
X77200000Y-26941190D01*
X76723809Y-26845952D01*
X78057142Y-26560238D02*
X77961904Y-26512619D01*
X77771428Y-26512619D01*
X77676190Y-26560238D01*
X77628571Y-26607857D01*
X77580952Y-26703095D01*
X77580952Y-26988809D01*
X77628571Y-27084047D01*
X77676190Y-27131666D01*
X77771428Y-27179285D01*
X77961904Y-27179285D01*
X78057142Y-27131666D01*
X78485714Y-26607857D02*
X78533333Y-26560238D01*
X78485714Y-26512619D01*
X78438095Y-26560238D01*
X78485714Y-26607857D01*
X78485714Y-26512619D01*
X78485714Y-27131666D02*
X78533333Y-27084047D01*
X78485714Y-27036428D01*
X78438095Y-27084047D01*
X78485714Y-27131666D01*
X78485714Y-27036428D01*
X65866666Y-24902619D02*
X65866666Y-25902619D01*
X66104761Y-25902619D01*
X66247619Y-25855000D01*
X66342857Y-25759761D01*
X66390476Y-25664523D01*
X66438095Y-25474047D01*
X66438095Y-25331190D01*
X66390476Y-25140714D01*
X66342857Y-25045476D01*
X66247619Y-24950238D01*
X66104761Y-24902619D01*
X65866666Y-24902619D01*
X67009523Y-24902619D02*
X66914285Y-24950238D01*
X66866666Y-24997857D01*
X66819047Y-25093095D01*
X66819047Y-25378809D01*
X66866666Y-25474047D01*
X66914285Y-25521666D01*
X67009523Y-25569285D01*
X67152380Y-25569285D01*
X67247619Y-25521666D01*
X67295238Y-25474047D01*
X67342857Y-25378809D01*
X67342857Y-25093095D01*
X67295238Y-24997857D01*
X67247619Y-24950238D01*
X67152380Y-24902619D01*
X67009523Y-24902619D01*
X68533333Y-24902619D02*
X68533333Y-25902619D01*
X69104761Y-24902619D01*
X69104761Y-25902619D01*
X69771428Y-25902619D02*
X69961904Y-25902619D01*
X70057142Y-25855000D01*
X70152380Y-25759761D01*
X70200000Y-25569285D01*
X70200000Y-25235952D01*
X70152380Y-25045476D01*
X70057142Y-24950238D01*
X69961904Y-24902619D01*
X69771428Y-24902619D01*
X69676190Y-24950238D01*
X69580952Y-25045476D01*
X69533333Y-25235952D01*
X69533333Y-25569285D01*
X69580952Y-25759761D01*
X69676190Y-25855000D01*
X69771428Y-25902619D01*
X70485714Y-25902619D02*
X71057142Y-25902619D01*
X70771428Y-24902619D02*
X70771428Y-25902619D01*
X72152380Y-25569285D02*
X72152380Y-24569285D01*
X72152380Y-25521666D02*
X72247619Y-25569285D01*
X72438095Y-25569285D01*
X72533333Y-25521666D01*
X72580952Y-25474047D01*
X72628571Y-25378809D01*
X72628571Y-25093095D01*
X72580952Y-24997857D01*
X72533333Y-24950238D01*
X72438095Y-24902619D01*
X72247619Y-24902619D01*
X72152380Y-24950238D01*
X73200000Y-24902619D02*
X73104761Y-24950238D01*
X73057142Y-25045476D01*
X73057142Y-25902619D01*
X74009523Y-25569285D02*
X74009523Y-24902619D01*
X73580952Y-25569285D02*
X73580952Y-25045476D01*
X73628571Y-24950238D01*
X73723809Y-24902619D01*
X73866666Y-24902619D01*
X73961904Y-24950238D01*
X74009523Y-24997857D01*
X74914285Y-25569285D02*
X74914285Y-24759761D01*
X74866666Y-24664523D01*
X74819047Y-24616904D01*
X74723809Y-24569285D01*
X74580952Y-24569285D01*
X74485714Y-24616904D01*
X74914285Y-24950238D02*
X74819047Y-24902619D01*
X74628571Y-24902619D01*
X74533333Y-24950238D01*
X74485714Y-24997857D01*
X74438095Y-25093095D01*
X74438095Y-25378809D01*
X74485714Y-25474047D01*
X74533333Y-25521666D01*
X74628571Y-25569285D01*
X74819047Y-25569285D01*
X74914285Y-25521666D01*
X76152380Y-24902619D02*
X76152380Y-25569285D01*
X76152380Y-25902619D02*
X76104761Y-25855000D01*
X76152380Y-25807380D01*
X76200000Y-25855000D01*
X76152380Y-25902619D01*
X76152380Y-25807380D01*
X76628571Y-25569285D02*
X76628571Y-24902619D01*
X76628571Y-25474047D02*
X76676190Y-25521666D01*
X76771428Y-25569285D01*
X76914285Y-25569285D01*
X77009523Y-25521666D01*
X77057142Y-25426428D01*
X77057142Y-24902619D01*
X77390476Y-25569285D02*
X77771428Y-25569285D01*
X77533333Y-25902619D02*
X77533333Y-25045476D01*
X77580952Y-24950238D01*
X77676190Y-24902619D01*
X77771428Y-24902619D01*
X78247619Y-24902619D02*
X78152380Y-24950238D01*
X78104761Y-24997857D01*
X78057142Y-25093095D01*
X78057142Y-25378809D01*
X78104761Y-25474047D01*
X78152380Y-25521666D01*
X78247619Y-25569285D01*
X78390476Y-25569285D01*
X78485714Y-25521666D01*
X78533333Y-25474047D01*
X78580952Y-25378809D01*
X78580952Y-25093095D01*
X78533333Y-24997857D01*
X78485714Y-24950238D01*
X78390476Y-24902619D01*
X78247619Y-24902619D01*
X66890476Y-23292619D02*
X66890476Y-23816428D01*
X66842857Y-23911666D01*
X66747619Y-23959285D01*
X66557142Y-23959285D01*
X66461904Y-23911666D01*
X66890476Y-23340238D02*
X66795238Y-23292619D01*
X66557142Y-23292619D01*
X66461904Y-23340238D01*
X66414285Y-23435476D01*
X66414285Y-23530714D01*
X66461904Y-23625952D01*
X66557142Y-23673571D01*
X66795238Y-23673571D01*
X66890476Y-23721190D01*
X67366666Y-23959285D02*
X67366666Y-23292619D01*
X67366666Y-23864047D02*
X67414285Y-23911666D01*
X67509523Y-23959285D01*
X67652380Y-23959285D01*
X67747619Y-23911666D01*
X67795238Y-23816428D01*
X67795238Y-23292619D01*
X68176190Y-23959285D02*
X68414285Y-23292619D01*
X68652380Y-23959285D02*
X68414285Y-23292619D01*
X68319047Y-23054523D01*
X68271428Y-23006904D01*
X68176190Y-22959285D01*
X68890476Y-23959285D02*
X69271428Y-23959285D01*
X69033333Y-24292619D02*
X69033333Y-23435476D01*
X69080952Y-23340238D01*
X69176190Y-23292619D01*
X69271428Y-23292619D01*
X69604761Y-23292619D02*
X69604761Y-24292619D01*
X70033333Y-23292619D02*
X70033333Y-23816428D01*
X69985714Y-23911666D01*
X69890476Y-23959285D01*
X69747619Y-23959285D01*
X69652380Y-23911666D01*
X69604761Y-23864047D01*
X70509523Y-23292619D02*
X70509523Y-23959285D01*
X70509523Y-24292619D02*
X70461904Y-24245000D01*
X70509523Y-24197380D01*
X70557142Y-24245000D01*
X70509523Y-24292619D01*
X70509523Y-24197380D01*
X70985714Y-23959285D02*
X70985714Y-23292619D01*
X70985714Y-23864047D02*
X71033333Y-23911666D01*
X71128571Y-23959285D01*
X71271428Y-23959285D01*
X71366666Y-23911666D01*
X71414285Y-23816428D01*
X71414285Y-23292619D01*
X72319047Y-23959285D02*
X72319047Y-23149761D01*
X72271428Y-23054523D01*
X72223809Y-23006904D01*
X72128571Y-22959285D01*
X71985714Y-22959285D01*
X71890476Y-23006904D01*
X72319047Y-23340238D02*
X72223809Y-23292619D01*
X72033333Y-23292619D01*
X71938095Y-23340238D01*
X71890476Y-23387857D01*
X71842857Y-23483095D01*
X71842857Y-23768809D01*
X71890476Y-23864047D01*
X71938095Y-23911666D01*
X72033333Y-23959285D01*
X72223809Y-23959285D01*
X72319047Y-23911666D01*
X73938095Y-23340238D02*
X73842857Y-23292619D01*
X73652380Y-23292619D01*
X73557142Y-23340238D01*
X73509523Y-23435476D01*
X73509523Y-23816428D01*
X73557142Y-23911666D01*
X73652380Y-23959285D01*
X73842857Y-23959285D01*
X73938095Y-23911666D01*
X73985714Y-23816428D01*
X73985714Y-23721190D01*
X73509523Y-23625952D01*
X74319047Y-23292619D02*
X74842857Y-23959285D01*
X74319047Y-23959285D02*
X74842857Y-23292619D01*
X75652380Y-23340238D02*
X75557142Y-23292619D01*
X75366666Y-23292619D01*
X75271428Y-23340238D01*
X75223809Y-23387857D01*
X75176190Y-23483095D01*
X75176190Y-23768809D01*
X75223809Y-23864047D01*
X75271428Y-23911666D01*
X75366666Y-23959285D01*
X75557142Y-23959285D01*
X75652380Y-23911666D01*
X76461904Y-23340238D02*
X76366666Y-23292619D01*
X76176190Y-23292619D01*
X76080952Y-23340238D01*
X76033333Y-23435476D01*
X76033333Y-23816428D01*
X76080952Y-23911666D01*
X76176190Y-23959285D01*
X76366666Y-23959285D01*
X76461904Y-23911666D01*
X76509523Y-23816428D01*
X76509523Y-23721190D01*
X76033333Y-23625952D01*
X76938095Y-23959285D02*
X76938095Y-22959285D01*
X76938095Y-23911666D02*
X77033333Y-23959285D01*
X77223809Y-23959285D01*
X77319047Y-23911666D01*
X77366666Y-23864047D01*
X77414285Y-23768809D01*
X77414285Y-23483095D01*
X77366666Y-23387857D01*
X77319047Y-23340238D01*
X77223809Y-23292619D01*
X77033333Y-23292619D01*
X76938095Y-23340238D01*
X77700000Y-23959285D02*
X78080952Y-23959285D01*
X77842857Y-24292619D02*
X77842857Y-23435476D01*
X77890476Y-23340238D01*
X77985714Y-23292619D01*
X78080952Y-23292619D01*
X64842857Y-21730238D02*
X64747619Y-21682619D01*
X64557142Y-21682619D01*
X64461904Y-21730238D01*
X64414285Y-21777857D01*
X64366666Y-21873095D01*
X64366666Y-22158809D01*
X64414285Y-22254047D01*
X64461904Y-22301666D01*
X64557142Y-22349285D01*
X64747619Y-22349285D01*
X64842857Y-22301666D01*
X65414285Y-21682619D02*
X65319047Y-21730238D01*
X65271428Y-21777857D01*
X65223809Y-21873095D01*
X65223809Y-22158809D01*
X65271428Y-22254047D01*
X65319047Y-22301666D01*
X65414285Y-22349285D01*
X65557142Y-22349285D01*
X65652380Y-22301666D01*
X65700000Y-22254047D01*
X65747619Y-22158809D01*
X65747619Y-21873095D01*
X65700000Y-21777857D01*
X65652380Y-21730238D01*
X65557142Y-21682619D01*
X65414285Y-21682619D01*
X66176190Y-21682619D02*
X66176190Y-22349285D01*
X66176190Y-22158809D02*
X66223809Y-22254047D01*
X66271428Y-22301666D01*
X66366666Y-22349285D01*
X66461904Y-22349285D01*
X66795238Y-21682619D02*
X66795238Y-22349285D01*
X66795238Y-22158809D02*
X66842857Y-22254047D01*
X66890476Y-22301666D01*
X66985714Y-22349285D01*
X67080952Y-22349285D01*
X67795238Y-21730238D02*
X67700000Y-21682619D01*
X67509523Y-21682619D01*
X67414285Y-21730238D01*
X67366666Y-21825476D01*
X67366666Y-22206428D01*
X67414285Y-22301666D01*
X67509523Y-22349285D01*
X67700000Y-22349285D01*
X67795238Y-22301666D01*
X67842857Y-22206428D01*
X67842857Y-22111190D01*
X67366666Y-22015952D01*
X68223809Y-21730238D02*
X68319047Y-21682619D01*
X68509523Y-21682619D01*
X68604761Y-21730238D01*
X68652380Y-21825476D01*
X68652380Y-21873095D01*
X68604761Y-21968333D01*
X68509523Y-22015952D01*
X68366666Y-22015952D01*
X68271428Y-22063571D01*
X68223809Y-22158809D01*
X68223809Y-22206428D01*
X68271428Y-22301666D01*
X68366666Y-22349285D01*
X68509523Y-22349285D01*
X68604761Y-22301666D01*
X69080952Y-22349285D02*
X69080952Y-21349285D01*
X69080952Y-22301666D02*
X69176190Y-22349285D01*
X69366666Y-22349285D01*
X69461904Y-22301666D01*
X69509523Y-22254047D01*
X69557142Y-22158809D01*
X69557142Y-21873095D01*
X69509523Y-21777857D01*
X69461904Y-21730238D01*
X69366666Y-21682619D01*
X69176190Y-21682619D01*
X69080952Y-21730238D01*
X70128571Y-21682619D02*
X70033333Y-21730238D01*
X69985714Y-21777857D01*
X69938095Y-21873095D01*
X69938095Y-22158809D01*
X69985714Y-22254047D01*
X70033333Y-22301666D01*
X70128571Y-22349285D01*
X70271428Y-22349285D01*
X70366666Y-22301666D01*
X70414285Y-22254047D01*
X70461904Y-22158809D01*
X70461904Y-21873095D01*
X70414285Y-21777857D01*
X70366666Y-21730238D01*
X70271428Y-21682619D01*
X70128571Y-21682619D01*
X70890476Y-22349285D02*
X70890476Y-21682619D01*
X70890476Y-22254047D02*
X70938095Y-22301666D01*
X71033333Y-22349285D01*
X71176190Y-22349285D01*
X71271428Y-22301666D01*
X71319047Y-22206428D01*
X71319047Y-21682619D01*
X72223809Y-21682619D02*
X72223809Y-22682619D01*
X72223809Y-21730238D02*
X72128571Y-21682619D01*
X71938095Y-21682619D01*
X71842857Y-21730238D01*
X71795238Y-21777857D01*
X71747619Y-21873095D01*
X71747619Y-22158809D01*
X71795238Y-22254047D01*
X71842857Y-22301666D01*
X71938095Y-22349285D01*
X72128571Y-22349285D01*
X72223809Y-22301666D01*
X72700000Y-21682619D02*
X72700000Y-22349285D01*
X72700000Y-22682619D02*
X72652380Y-22635000D01*
X72700000Y-22587380D01*
X72747619Y-22635000D01*
X72700000Y-22682619D01*
X72700000Y-22587380D01*
X73176190Y-22349285D02*
X73176190Y-21682619D01*
X73176190Y-22254047D02*
X73223809Y-22301666D01*
X73319047Y-22349285D01*
X73461904Y-22349285D01*
X73557142Y-22301666D01*
X73604761Y-22206428D01*
X73604761Y-21682619D01*
X74509523Y-22349285D02*
X74509523Y-21539761D01*
X74461904Y-21444523D01*
X74414285Y-21396904D01*
X74319047Y-21349285D01*
X74176190Y-21349285D01*
X74080952Y-21396904D01*
X74509523Y-21730238D02*
X74414285Y-21682619D01*
X74223809Y-21682619D01*
X74128571Y-21730238D01*
X74080952Y-21777857D01*
X74033333Y-21873095D01*
X74033333Y-22158809D01*
X74080952Y-22254047D01*
X74128571Y-22301666D01*
X74223809Y-22349285D01*
X74414285Y-22349285D01*
X74509523Y-22301666D01*
X75747619Y-21682619D02*
X75747619Y-22682619D01*
X75747619Y-22301666D02*
X75842857Y-22349285D01*
X76033333Y-22349285D01*
X76128571Y-22301666D01*
X76176190Y-22254047D01*
X76223809Y-22158809D01*
X76223809Y-21873095D01*
X76176190Y-21777857D01*
X76128571Y-21730238D01*
X76033333Y-21682619D01*
X75842857Y-21682619D01*
X75747619Y-21730238D01*
X76795238Y-21682619D02*
X76700000Y-21730238D01*
X76652380Y-21777857D01*
X76604761Y-21873095D01*
X76604761Y-22158809D01*
X76652380Y-22254047D01*
X76700000Y-22301666D01*
X76795238Y-22349285D01*
X76938095Y-22349285D01*
X77033333Y-22301666D01*
X77080952Y-22254047D01*
X77128571Y-22158809D01*
X77128571Y-21873095D01*
X77080952Y-21777857D01*
X77033333Y-21730238D01*
X76938095Y-21682619D01*
X76795238Y-21682619D01*
X77985714Y-21682619D02*
X77985714Y-22206428D01*
X77938095Y-22301666D01*
X77842857Y-22349285D01*
X77652380Y-22349285D01*
X77557142Y-22301666D01*
X77985714Y-21730238D02*
X77890476Y-21682619D01*
X77652380Y-21682619D01*
X77557142Y-21730238D01*
X77509523Y-21825476D01*
X77509523Y-21920714D01*
X77557142Y-22015952D01*
X77652380Y-22063571D01*
X77890476Y-22063571D01*
X77985714Y-22111190D01*
X78461904Y-21682619D02*
X78461904Y-22349285D01*
X78461904Y-22158809D02*
X78509523Y-22254047D01*
X78557142Y-22301666D01*
X78652380Y-22349285D01*
X78747619Y-22349285D01*
X79509523Y-21682619D02*
X79509523Y-22682619D01*
X79509523Y-21730238D02*
X79414285Y-21682619D01*
X79223809Y-21682619D01*
X79128571Y-21730238D01*
X79080952Y-21777857D01*
X79033333Y-21873095D01*
X79033333Y-22158809D01*
X79080952Y-22254047D01*
X79128571Y-22301666D01*
X79223809Y-22349285D01*
X79414285Y-22349285D01*
X79509523Y-22301666D01*
X79985714Y-21777857D02*
X80033333Y-21730238D01*
X79985714Y-21682619D01*
X79938095Y-21730238D01*
X79985714Y-21777857D01*
X79985714Y-21682619D01*
X79985714Y-22063571D02*
X79938095Y-22635000D01*
X79985714Y-22682619D01*
X80033333Y-22635000D01*
X79985714Y-22063571D01*
X79985714Y-22682619D01*
X27512619Y-94085714D02*
X26703095Y-94085714D01*
X26607857Y-94038095D01*
X26560238Y-93990476D01*
X26512619Y-93895238D01*
X26512619Y-93704761D01*
X26560238Y-93609523D01*
X26607857Y-93561904D01*
X26703095Y-93514285D01*
X27512619Y-93514285D01*
X26560238Y-93085714D02*
X26512619Y-92942857D01*
X26512619Y-92704761D01*
X26560238Y-92609523D01*
X26607857Y-92561904D01*
X26703095Y-92514285D01*
X26798333Y-92514285D01*
X26893571Y-92561904D01*
X26941190Y-92609523D01*
X26988809Y-92704761D01*
X27036428Y-92895238D01*
X27084047Y-92990476D01*
X27131666Y-93038095D01*
X27226904Y-93085714D01*
X27322142Y-93085714D01*
X27417380Y-93038095D01*
X27465000Y-92990476D01*
X27512619Y-92895238D01*
X27512619Y-92657142D01*
X27465000Y-92514285D01*
X27036428Y-91752380D02*
X26988809Y-91609523D01*
X26941190Y-91561904D01*
X26845952Y-91514285D01*
X26703095Y-91514285D01*
X26607857Y-91561904D01*
X26560238Y-91609523D01*
X26512619Y-91704761D01*
X26512619Y-92085714D01*
X27512619Y-92085714D01*
X27512619Y-91752380D01*
X27465000Y-91657142D01*
X27417380Y-91609523D01*
X27322142Y-91561904D01*
X27226904Y-91561904D01*
X27131666Y-91609523D01*
X27084047Y-91657142D01*
X27036428Y-91752380D01*
X27036428Y-92085714D01*
X27179285Y-90323809D02*
X26512619Y-90323809D01*
X27084047Y-90323809D02*
X27131666Y-90276190D01*
X27179285Y-90180952D01*
X27179285Y-90038095D01*
X27131666Y-89942857D01*
X27036428Y-89895238D01*
X26512619Y-89895238D01*
X26512619Y-89276190D02*
X26560238Y-89371428D01*
X26607857Y-89419047D01*
X26703095Y-89466666D01*
X26988809Y-89466666D01*
X27084047Y-89419047D01*
X27131666Y-89371428D01*
X27179285Y-89276190D01*
X27179285Y-89133333D01*
X27131666Y-89038095D01*
X27084047Y-88990476D01*
X26988809Y-88942857D01*
X26703095Y-88942857D01*
X26607857Y-88990476D01*
X26560238Y-89038095D01*
X26512619Y-89133333D01*
X26512619Y-89276190D01*
X27179285Y-88657142D02*
X27179285Y-88276190D01*
X27512619Y-88514285D02*
X26655476Y-88514285D01*
X26560238Y-88466666D01*
X26512619Y-88371428D01*
X26512619Y-88276190D01*
X27179285Y-87323809D02*
X27179285Y-86942857D01*
X27512619Y-87180952D02*
X26655476Y-87180952D01*
X26560238Y-87133333D01*
X26512619Y-87038095D01*
X26512619Y-86942857D01*
X26512619Y-86466666D02*
X26560238Y-86561904D01*
X26607857Y-86609523D01*
X26703095Y-86657142D01*
X26988809Y-86657142D01*
X27084047Y-86609523D01*
X27131666Y-86561904D01*
X27179285Y-86466666D01*
X27179285Y-86323809D01*
X27131666Y-86228571D01*
X27084047Y-86180952D01*
X26988809Y-86133333D01*
X26703095Y-86133333D01*
X26607857Y-86180952D01*
X26560238Y-86228571D01*
X26512619Y-86323809D01*
X26512619Y-86466666D01*
X26560238Y-84990476D02*
X26512619Y-84895238D01*
X26512619Y-84704761D01*
X26560238Y-84609523D01*
X26655476Y-84561904D01*
X26703095Y-84561904D01*
X26798333Y-84609523D01*
X26845952Y-84704761D01*
X26845952Y-84847619D01*
X26893571Y-84942857D01*
X26988809Y-84990476D01*
X27036428Y-84990476D01*
X27131666Y-84942857D01*
X27179285Y-84847619D01*
X27179285Y-84704761D01*
X27131666Y-84609523D01*
X27179285Y-84133333D02*
X26179285Y-84133333D01*
X27131666Y-84133333D02*
X27179285Y-84038095D01*
X27179285Y-83847619D01*
X27131666Y-83752380D01*
X27084047Y-83704761D01*
X26988809Y-83657142D01*
X26703095Y-83657142D01*
X26607857Y-83704761D01*
X26560238Y-83752380D01*
X26512619Y-83847619D01*
X26512619Y-84038095D01*
X26560238Y-84133333D01*
X26560238Y-82847619D02*
X26512619Y-82942857D01*
X26512619Y-83133333D01*
X26560238Y-83228571D01*
X26655476Y-83276190D01*
X27036428Y-83276190D01*
X27131666Y-83228571D01*
X27179285Y-83133333D01*
X27179285Y-82942857D01*
X27131666Y-82847619D01*
X27036428Y-82800000D01*
X26941190Y-82800000D01*
X26845952Y-83276190D01*
X26560238Y-81942857D02*
X26512619Y-82038095D01*
X26512619Y-82228571D01*
X26560238Y-82323809D01*
X26607857Y-82371428D01*
X26703095Y-82419047D01*
X26988809Y-82419047D01*
X27084047Y-82371428D01*
X27131666Y-82323809D01*
X27179285Y-82228571D01*
X27179285Y-82038095D01*
X27131666Y-81942857D01*
X26607857Y-81514285D02*
X26560238Y-81466666D01*
X26512619Y-81514285D01*
X26560238Y-81561904D01*
X26607857Y-81514285D01*
X26512619Y-81514285D01*
X27131666Y-81514285D02*
X27084047Y-81466666D01*
X27036428Y-81514285D01*
X27084047Y-81561904D01*
X27131666Y-81514285D01*
X27036428Y-81514285D01*
X24902619Y-94133333D02*
X25902619Y-94133333D01*
X25902619Y-93895238D01*
X25855000Y-93752380D01*
X25759761Y-93657142D01*
X25664523Y-93609523D01*
X25474047Y-93561904D01*
X25331190Y-93561904D01*
X25140714Y-93609523D01*
X25045476Y-93657142D01*
X24950238Y-93752380D01*
X24902619Y-93895238D01*
X24902619Y-94133333D01*
X24902619Y-92990476D02*
X24950238Y-93085714D01*
X24997857Y-93133333D01*
X25093095Y-93180952D01*
X25378809Y-93180952D01*
X25474047Y-93133333D01*
X25521666Y-93085714D01*
X25569285Y-92990476D01*
X25569285Y-92847619D01*
X25521666Y-92752380D01*
X25474047Y-92704761D01*
X25378809Y-92657142D01*
X25093095Y-92657142D01*
X24997857Y-92704761D01*
X24950238Y-92752380D01*
X24902619Y-92847619D01*
X24902619Y-92990476D01*
X24902619Y-91466666D02*
X25902619Y-91466666D01*
X24902619Y-90895238D01*
X25902619Y-90895238D01*
X25902619Y-90228571D02*
X25902619Y-90038095D01*
X25855000Y-89942857D01*
X25759761Y-89847619D01*
X25569285Y-89800000D01*
X25235952Y-89800000D01*
X25045476Y-89847619D01*
X24950238Y-89942857D01*
X24902619Y-90038095D01*
X24902619Y-90228571D01*
X24950238Y-90323809D01*
X25045476Y-90419047D01*
X25235952Y-90466666D01*
X25569285Y-90466666D01*
X25759761Y-90419047D01*
X25855000Y-90323809D01*
X25902619Y-90228571D01*
X25902619Y-89514285D02*
X25902619Y-88942857D01*
X24902619Y-89228571D02*
X25902619Y-89228571D01*
X25569285Y-87847619D02*
X24569285Y-87847619D01*
X25521666Y-87847619D02*
X25569285Y-87752380D01*
X25569285Y-87561904D01*
X25521666Y-87466666D01*
X25474047Y-87419047D01*
X25378809Y-87371428D01*
X25093095Y-87371428D01*
X24997857Y-87419047D01*
X24950238Y-87466666D01*
X24902619Y-87561904D01*
X24902619Y-87752380D01*
X24950238Y-87847619D01*
X24902619Y-86800000D02*
X24950238Y-86895238D01*
X25045476Y-86942857D01*
X25902619Y-86942857D01*
X25569285Y-85990476D02*
X24902619Y-85990476D01*
X25569285Y-86419047D02*
X25045476Y-86419047D01*
X24950238Y-86371428D01*
X24902619Y-86276190D01*
X24902619Y-86133333D01*
X24950238Y-86038095D01*
X24997857Y-85990476D01*
X25569285Y-85085714D02*
X24759761Y-85085714D01*
X24664523Y-85133333D01*
X24616904Y-85180952D01*
X24569285Y-85276190D01*
X24569285Y-85419047D01*
X24616904Y-85514285D01*
X24950238Y-85085714D02*
X24902619Y-85180952D01*
X24902619Y-85371428D01*
X24950238Y-85466666D01*
X24997857Y-85514285D01*
X25093095Y-85561904D01*
X25378809Y-85561904D01*
X25474047Y-85514285D01*
X25521666Y-85466666D01*
X25569285Y-85371428D01*
X25569285Y-85180952D01*
X25521666Y-85085714D01*
X24902619Y-83847619D02*
X25569285Y-83847619D01*
X25902619Y-83847619D02*
X25855000Y-83895238D01*
X25807380Y-83847619D01*
X25855000Y-83800000D01*
X25902619Y-83847619D01*
X25807380Y-83847619D01*
X25569285Y-83371428D02*
X24902619Y-83371428D01*
X25474047Y-83371428D02*
X25521666Y-83323809D01*
X25569285Y-83228571D01*
X25569285Y-83085714D01*
X25521666Y-82990476D01*
X25426428Y-82942857D01*
X24902619Y-82942857D01*
X25569285Y-82609523D02*
X25569285Y-82228571D01*
X25902619Y-82466666D02*
X25045476Y-82466666D01*
X24950238Y-82419047D01*
X24902619Y-82323809D01*
X24902619Y-82228571D01*
X24902619Y-81752380D02*
X24950238Y-81847619D01*
X24997857Y-81895238D01*
X25093095Y-81942857D01*
X25378809Y-81942857D01*
X25474047Y-81895238D01*
X25521666Y-81847619D01*
X25569285Y-81752380D01*
X25569285Y-81609523D01*
X25521666Y-81514285D01*
X25474047Y-81466666D01*
X25378809Y-81419047D01*
X25093095Y-81419047D01*
X24997857Y-81466666D01*
X24950238Y-81514285D01*
X24902619Y-81609523D01*
X24902619Y-81752380D01*
X23292619Y-93109523D02*
X23816428Y-93109523D01*
X23911666Y-93157142D01*
X23959285Y-93252380D01*
X23959285Y-93442857D01*
X23911666Y-93538095D01*
X23340238Y-93109523D02*
X23292619Y-93204761D01*
X23292619Y-93442857D01*
X23340238Y-93538095D01*
X23435476Y-93585714D01*
X23530714Y-93585714D01*
X23625952Y-93538095D01*
X23673571Y-93442857D01*
X23673571Y-93204761D01*
X23721190Y-93109523D01*
X23959285Y-92633333D02*
X23292619Y-92633333D01*
X23864047Y-92633333D02*
X23911666Y-92585714D01*
X23959285Y-92490476D01*
X23959285Y-92347619D01*
X23911666Y-92252380D01*
X23816428Y-92204761D01*
X23292619Y-92204761D01*
X23959285Y-91823809D02*
X23292619Y-91585714D01*
X23959285Y-91347619D02*
X23292619Y-91585714D01*
X23054523Y-91680952D01*
X23006904Y-91728571D01*
X22959285Y-91823809D01*
X23959285Y-91109523D02*
X23959285Y-90728571D01*
X24292619Y-90966666D02*
X23435476Y-90966666D01*
X23340238Y-90919047D01*
X23292619Y-90823809D01*
X23292619Y-90728571D01*
X23292619Y-90395238D02*
X24292619Y-90395238D01*
X23292619Y-89966666D02*
X23816428Y-89966666D01*
X23911666Y-90014285D01*
X23959285Y-90109523D01*
X23959285Y-90252380D01*
X23911666Y-90347619D01*
X23864047Y-90395238D01*
X23292619Y-89490476D02*
X23959285Y-89490476D01*
X24292619Y-89490476D02*
X24245000Y-89538095D01*
X24197380Y-89490476D01*
X24245000Y-89442857D01*
X24292619Y-89490476D01*
X24197380Y-89490476D01*
X23959285Y-89014285D02*
X23292619Y-89014285D01*
X23864047Y-89014285D02*
X23911666Y-88966666D01*
X23959285Y-88871428D01*
X23959285Y-88728571D01*
X23911666Y-88633333D01*
X23816428Y-88585714D01*
X23292619Y-88585714D01*
X23959285Y-87680952D02*
X23149761Y-87680952D01*
X23054523Y-87728571D01*
X23006904Y-87776190D01*
X22959285Y-87871428D01*
X22959285Y-88014285D01*
X23006904Y-88109523D01*
X23340238Y-87680952D02*
X23292619Y-87776190D01*
X23292619Y-87966666D01*
X23340238Y-88061904D01*
X23387857Y-88109523D01*
X23483095Y-88157142D01*
X23768809Y-88157142D01*
X23864047Y-88109523D01*
X23911666Y-88061904D01*
X23959285Y-87966666D01*
X23959285Y-87776190D01*
X23911666Y-87680952D01*
X23340238Y-86061904D02*
X23292619Y-86157142D01*
X23292619Y-86347619D01*
X23340238Y-86442857D01*
X23435476Y-86490476D01*
X23816428Y-86490476D01*
X23911666Y-86442857D01*
X23959285Y-86347619D01*
X23959285Y-86157142D01*
X23911666Y-86061904D01*
X23816428Y-86014285D01*
X23721190Y-86014285D01*
X23625952Y-86490476D01*
X23292619Y-85680952D02*
X23959285Y-85157142D01*
X23959285Y-85680952D02*
X23292619Y-85157142D01*
X23340238Y-84347619D02*
X23292619Y-84442857D01*
X23292619Y-84633333D01*
X23340238Y-84728571D01*
X23387857Y-84776190D01*
X23483095Y-84823809D01*
X23768809Y-84823809D01*
X23864047Y-84776190D01*
X23911666Y-84728571D01*
X23959285Y-84633333D01*
X23959285Y-84442857D01*
X23911666Y-84347619D01*
X23340238Y-83538095D02*
X23292619Y-83633333D01*
X23292619Y-83823809D01*
X23340238Y-83919047D01*
X23435476Y-83966666D01*
X23816428Y-83966666D01*
X23911666Y-83919047D01*
X23959285Y-83823809D01*
X23959285Y-83633333D01*
X23911666Y-83538095D01*
X23816428Y-83490476D01*
X23721190Y-83490476D01*
X23625952Y-83966666D01*
X23959285Y-83061904D02*
X22959285Y-83061904D01*
X23911666Y-83061904D02*
X23959285Y-82966666D01*
X23959285Y-82776190D01*
X23911666Y-82680952D01*
X23864047Y-82633333D01*
X23768809Y-82585714D01*
X23483095Y-82585714D01*
X23387857Y-82633333D01*
X23340238Y-82680952D01*
X23292619Y-82776190D01*
X23292619Y-82966666D01*
X23340238Y-83061904D01*
X23959285Y-82300000D02*
X23959285Y-81919047D01*
X24292619Y-82157142D02*
X23435476Y-82157142D01*
X23340238Y-82109523D01*
X23292619Y-82014285D01*
X23292619Y-81919047D01*
X21730238Y-95157142D02*
X21682619Y-95252380D01*
X21682619Y-95442857D01*
X21730238Y-95538095D01*
X21777857Y-95585714D01*
X21873095Y-95633333D01*
X22158809Y-95633333D01*
X22254047Y-95585714D01*
X22301666Y-95538095D01*
X22349285Y-95442857D01*
X22349285Y-95252380D01*
X22301666Y-95157142D01*
X21682619Y-94585714D02*
X21730238Y-94680952D01*
X21777857Y-94728571D01*
X21873095Y-94776190D01*
X22158809Y-94776190D01*
X22254047Y-94728571D01*
X22301666Y-94680952D01*
X22349285Y-94585714D01*
X22349285Y-94442857D01*
X22301666Y-94347619D01*
X22254047Y-94300000D01*
X22158809Y-94252380D01*
X21873095Y-94252380D01*
X21777857Y-94300000D01*
X21730238Y-94347619D01*
X21682619Y-94442857D01*
X21682619Y-94585714D01*
X21682619Y-93823809D02*
X22349285Y-93823809D01*
X22158809Y-93823809D02*
X22254047Y-93776190D01*
X22301666Y-93728571D01*
X22349285Y-93633333D01*
X22349285Y-93538095D01*
X21682619Y-93204761D02*
X22349285Y-93204761D01*
X22158809Y-93204761D02*
X22254047Y-93157142D01*
X22301666Y-93109523D01*
X22349285Y-93014285D01*
X22349285Y-92919047D01*
X21730238Y-92204761D02*
X21682619Y-92300000D01*
X21682619Y-92490476D01*
X21730238Y-92585714D01*
X21825476Y-92633333D01*
X22206428Y-92633333D01*
X22301666Y-92585714D01*
X22349285Y-92490476D01*
X22349285Y-92300000D01*
X22301666Y-92204761D01*
X22206428Y-92157142D01*
X22111190Y-92157142D01*
X22015952Y-92633333D01*
X21730238Y-91776190D02*
X21682619Y-91680952D01*
X21682619Y-91490476D01*
X21730238Y-91395238D01*
X21825476Y-91347619D01*
X21873095Y-91347619D01*
X21968333Y-91395238D01*
X22015952Y-91490476D01*
X22015952Y-91633333D01*
X22063571Y-91728571D01*
X22158809Y-91776190D01*
X22206428Y-91776190D01*
X22301666Y-91728571D01*
X22349285Y-91633333D01*
X22349285Y-91490476D01*
X22301666Y-91395238D01*
X22349285Y-90919047D02*
X21349285Y-90919047D01*
X22301666Y-90919047D02*
X22349285Y-90823809D01*
X22349285Y-90633333D01*
X22301666Y-90538095D01*
X22254047Y-90490476D01*
X22158809Y-90442857D01*
X21873095Y-90442857D01*
X21777857Y-90490476D01*
X21730238Y-90538095D01*
X21682619Y-90633333D01*
X21682619Y-90823809D01*
X21730238Y-90919047D01*
X21682619Y-89871428D02*
X21730238Y-89966666D01*
X21777857Y-90014285D01*
X21873095Y-90061904D01*
X22158809Y-90061904D01*
X22254047Y-90014285D01*
X22301666Y-89966666D01*
X22349285Y-89871428D01*
X22349285Y-89728571D01*
X22301666Y-89633333D01*
X22254047Y-89585714D01*
X22158809Y-89538095D01*
X21873095Y-89538095D01*
X21777857Y-89585714D01*
X21730238Y-89633333D01*
X21682619Y-89728571D01*
X21682619Y-89871428D01*
X22349285Y-89109523D02*
X21682619Y-89109523D01*
X22254047Y-89109523D02*
X22301666Y-89061904D01*
X22349285Y-88966666D01*
X22349285Y-88823809D01*
X22301666Y-88728571D01*
X22206428Y-88680952D01*
X21682619Y-88680952D01*
X21682619Y-87776190D02*
X22682619Y-87776190D01*
X21730238Y-87776190D02*
X21682619Y-87871428D01*
X21682619Y-88061904D01*
X21730238Y-88157142D01*
X21777857Y-88204761D01*
X21873095Y-88252380D01*
X22158809Y-88252380D01*
X22254047Y-88204761D01*
X22301666Y-88157142D01*
X22349285Y-88061904D01*
X22349285Y-87871428D01*
X22301666Y-87776190D01*
X21682619Y-87300000D02*
X22349285Y-87300000D01*
X22682619Y-87300000D02*
X22635000Y-87347619D01*
X22587380Y-87300000D01*
X22635000Y-87252380D01*
X22682619Y-87300000D01*
X22587380Y-87300000D01*
X22349285Y-86823809D02*
X21682619Y-86823809D01*
X22254047Y-86823809D02*
X22301666Y-86776190D01*
X22349285Y-86680952D01*
X22349285Y-86538095D01*
X22301666Y-86442857D01*
X22206428Y-86395238D01*
X21682619Y-86395238D01*
X22349285Y-85490476D02*
X21539761Y-85490476D01*
X21444523Y-85538095D01*
X21396904Y-85585714D01*
X21349285Y-85680952D01*
X21349285Y-85823809D01*
X21396904Y-85919047D01*
X21730238Y-85490476D02*
X21682619Y-85585714D01*
X21682619Y-85776190D01*
X21730238Y-85871428D01*
X21777857Y-85919047D01*
X21873095Y-85966666D01*
X22158809Y-85966666D01*
X22254047Y-85919047D01*
X22301666Y-85871428D01*
X22349285Y-85776190D01*
X22349285Y-85585714D01*
X22301666Y-85490476D01*
X21682619Y-84252380D02*
X22682619Y-84252380D01*
X22301666Y-84252380D02*
X22349285Y-84157142D01*
X22349285Y-83966666D01*
X22301666Y-83871428D01*
X22254047Y-83823809D01*
X22158809Y-83776190D01*
X21873095Y-83776190D01*
X21777857Y-83823809D01*
X21730238Y-83871428D01*
X21682619Y-83966666D01*
X21682619Y-84157142D01*
X21730238Y-84252380D01*
X21682619Y-83204761D02*
X21730238Y-83300000D01*
X21777857Y-83347619D01*
X21873095Y-83395238D01*
X22158809Y-83395238D01*
X22254047Y-83347619D01*
X22301666Y-83300000D01*
X22349285Y-83204761D01*
X22349285Y-83061904D01*
X22301666Y-82966666D01*
X22254047Y-82919047D01*
X22158809Y-82871428D01*
X21873095Y-82871428D01*
X21777857Y-82919047D01*
X21730238Y-82966666D01*
X21682619Y-83061904D01*
X21682619Y-83204761D01*
X21682619Y-82014285D02*
X22206428Y-82014285D01*
X22301666Y-82061904D01*
X22349285Y-82157142D01*
X22349285Y-82347619D01*
X22301666Y-82442857D01*
X21730238Y-82014285D02*
X21682619Y-82109523D01*
X21682619Y-82347619D01*
X21730238Y-82442857D01*
X21825476Y-82490476D01*
X21920714Y-82490476D01*
X22015952Y-82442857D01*
X22063571Y-82347619D01*
X22063571Y-82109523D01*
X22111190Y-82014285D01*
X21682619Y-81538095D02*
X22349285Y-81538095D01*
X22158809Y-81538095D02*
X22254047Y-81490476D01*
X22301666Y-81442857D01*
X22349285Y-81347619D01*
X22349285Y-81252380D01*
X21682619Y-80490476D02*
X22682619Y-80490476D01*
X21730238Y-80490476D02*
X21682619Y-80585714D01*
X21682619Y-80776190D01*
X21730238Y-80871428D01*
X21777857Y-80919047D01*
X21873095Y-80966666D01*
X22158809Y-80966666D01*
X22254047Y-80919047D01*
X22301666Y-80871428D01*
X22349285Y-80776190D01*
X22349285Y-80585714D01*
X22301666Y-80490476D01*
X21777857Y-80014285D02*
X21730238Y-79966666D01*
X21682619Y-80014285D01*
X21730238Y-80061904D01*
X21777857Y-80014285D01*
X21682619Y-80014285D01*
X22063571Y-80014285D02*
X22635000Y-80061904D01*
X22682619Y-80014285D01*
X22635000Y-79966666D01*
X22063571Y-80014285D01*
X22682619Y-80014285D01*
%TO.C,R12*%
X134142857Y-118022380D02*
X134476190Y-117546190D01*
X134714285Y-118022380D02*
X134714285Y-117022380D01*
X134333333Y-117022380D01*
X134238095Y-117070000D01*
X134190476Y-117117619D01*
X134142857Y-117212857D01*
X134142857Y-117355714D01*
X134190476Y-117450952D01*
X134238095Y-117498571D01*
X134333333Y-117546190D01*
X134714285Y-117546190D01*
X133190476Y-118022380D02*
X133761904Y-118022380D01*
X133476190Y-118022380D02*
X133476190Y-117022380D01*
X133571428Y-117165238D01*
X133666666Y-117260476D01*
X133761904Y-117308095D01*
X132809523Y-117117619D02*
X132761904Y-117070000D01*
X132666666Y-117022380D01*
X132428571Y-117022380D01*
X132333333Y-117070000D01*
X132285714Y-117117619D01*
X132238095Y-117212857D01*
X132238095Y-117308095D01*
X132285714Y-117450952D01*
X132857142Y-118022380D01*
X132238095Y-118022380D01*
%TO.C,J1*%
X90333333Y-28467380D02*
X90333333Y-29181666D01*
X90380952Y-29324523D01*
X90476190Y-29419761D01*
X90619047Y-29467380D01*
X90714285Y-29467380D01*
X89333333Y-29467380D02*
X89904761Y-29467380D01*
X89619047Y-29467380D02*
X89619047Y-28467380D01*
X89714285Y-28610238D01*
X89809523Y-28705476D01*
X89904761Y-28753095D01*
D11*
X86500000Y-19936904D02*
X86666666Y-19936904D01*
X86559523Y-19686904D01*
X86761904Y-19710714D02*
X86773809Y-19698809D01*
X86761904Y-19686904D01*
X86750000Y-19698809D01*
X86761904Y-19710714D01*
X86761904Y-19686904D01*
X86857142Y-19936904D02*
X87011904Y-19936904D01*
X86928571Y-19841666D01*
X86964285Y-19841666D01*
X86988095Y-19829761D01*
X87000000Y-19817857D01*
X87011904Y-19794047D01*
X87011904Y-19734523D01*
X87000000Y-19710714D01*
X86988095Y-19698809D01*
X86964285Y-19686904D01*
X86892857Y-19686904D01*
X86869047Y-19698809D01*
X86857142Y-19710714D01*
X87238095Y-19936904D02*
X87119047Y-19936904D01*
X87107142Y-19817857D01*
X87119047Y-19829761D01*
X87142857Y-19841666D01*
X87202380Y-19841666D01*
X87226190Y-19829761D01*
X87238095Y-19817857D01*
X87250000Y-19794047D01*
X87250000Y-19734523D01*
X87238095Y-19710714D01*
X87226190Y-19698809D01*
X87202380Y-19686904D01*
X87142857Y-19686904D01*
X87119047Y-19698809D01*
X87107142Y-19710714D01*
X87357142Y-19686904D02*
X87357142Y-19853571D01*
X87357142Y-19829761D02*
X87369047Y-19841666D01*
X87392857Y-19853571D01*
X87428571Y-19853571D01*
X87452380Y-19841666D01*
X87464285Y-19817857D01*
X87464285Y-19686904D01*
X87464285Y-19817857D02*
X87476190Y-19841666D01*
X87500000Y-19853571D01*
X87535714Y-19853571D01*
X87559523Y-19841666D01*
X87571428Y-19817857D01*
X87571428Y-19686904D01*
X87690476Y-19686904D02*
X87690476Y-19853571D01*
X87690476Y-19829761D02*
X87702380Y-19841666D01*
X87726190Y-19853571D01*
X87761904Y-19853571D01*
X87785714Y-19841666D01*
X87797619Y-19817857D01*
X87797619Y-19686904D01*
X87797619Y-19817857D02*
X87809523Y-19841666D01*
X87833333Y-19853571D01*
X87869047Y-19853571D01*
X87892857Y-19841666D01*
X87904761Y-19817857D01*
X87904761Y-19686904D01*
X88178571Y-19853571D02*
X88273809Y-19853571D01*
X88214285Y-19686904D02*
X88214285Y-19901190D01*
X88226190Y-19925000D01*
X88250000Y-19936904D01*
X88273809Y-19936904D01*
X88357142Y-19686904D02*
X88357142Y-19853571D01*
X88357142Y-19805952D02*
X88369047Y-19829761D01*
X88380952Y-19841666D01*
X88404761Y-19853571D01*
X88428571Y-19853571D01*
X88547619Y-19686904D02*
X88523809Y-19698809D01*
X88511904Y-19710714D01*
X88500000Y-19734523D01*
X88500000Y-19805952D01*
X88511904Y-19829761D01*
X88523809Y-19841666D01*
X88547619Y-19853571D01*
X88583333Y-19853571D01*
X88607142Y-19841666D01*
X88619047Y-19829761D01*
X88630952Y-19805952D01*
X88630952Y-19734523D01*
X88619047Y-19710714D01*
X88607142Y-19698809D01*
X88583333Y-19686904D01*
X88547619Y-19686904D01*
X88738095Y-19686904D02*
X88738095Y-19853571D01*
X88738095Y-19829761D02*
X88750000Y-19841666D01*
X88773809Y-19853571D01*
X88809523Y-19853571D01*
X88833333Y-19841666D01*
X88845238Y-19817857D01*
X88845238Y-19686904D01*
X88845238Y-19817857D02*
X88857142Y-19841666D01*
X88880952Y-19853571D01*
X88916666Y-19853571D01*
X88940476Y-19841666D01*
X88952380Y-19817857D01*
X88952380Y-19686904D01*
X89261904Y-19686904D02*
X89261904Y-19936904D01*
X89261904Y-19841666D02*
X89285714Y-19853571D01*
X89333333Y-19853571D01*
X89357142Y-19841666D01*
X89369047Y-19829761D01*
X89380952Y-19805952D01*
X89380952Y-19734523D01*
X89369047Y-19710714D01*
X89357142Y-19698809D01*
X89333333Y-19686904D01*
X89285714Y-19686904D01*
X89261904Y-19698809D01*
X89595238Y-19686904D02*
X89595238Y-19817857D01*
X89583333Y-19841666D01*
X89559523Y-19853571D01*
X89511904Y-19853571D01*
X89488095Y-19841666D01*
X89595238Y-19698809D02*
X89571428Y-19686904D01*
X89511904Y-19686904D01*
X89488095Y-19698809D01*
X89476190Y-19722619D01*
X89476190Y-19746428D01*
X89488095Y-19770238D01*
X89511904Y-19782142D01*
X89571428Y-19782142D01*
X89595238Y-19794047D01*
X89821428Y-19698809D02*
X89797619Y-19686904D01*
X89750000Y-19686904D01*
X89726190Y-19698809D01*
X89714285Y-19710714D01*
X89702380Y-19734523D01*
X89702380Y-19805952D01*
X89714285Y-19829761D01*
X89726190Y-19841666D01*
X89750000Y-19853571D01*
X89797619Y-19853571D01*
X89821428Y-19841666D01*
X89928571Y-19686904D02*
X89928571Y-19936904D01*
X89952380Y-19782142D02*
X90023809Y-19686904D01*
X90023809Y-19853571D02*
X89928571Y-19758333D01*
X90357142Y-19686904D02*
X90333333Y-19698809D01*
X90321428Y-19710714D01*
X90309523Y-19734523D01*
X90309523Y-19805952D01*
X90321428Y-19829761D01*
X90333333Y-19841666D01*
X90357142Y-19853571D01*
X90392857Y-19853571D01*
X90416666Y-19841666D01*
X90428571Y-19829761D01*
X90440476Y-19805952D01*
X90440476Y-19734523D01*
X90428571Y-19710714D01*
X90416666Y-19698809D01*
X90392857Y-19686904D01*
X90357142Y-19686904D01*
X90511904Y-19853571D02*
X90607142Y-19853571D01*
X90547619Y-19686904D02*
X90547619Y-19901190D01*
X90559523Y-19925000D01*
X90583333Y-19936904D01*
X90607142Y-19936904D01*
X90880952Y-19686904D02*
X90880952Y-19853571D01*
X90880952Y-19829761D02*
X90892857Y-19841666D01*
X90916666Y-19853571D01*
X90952380Y-19853571D01*
X90976190Y-19841666D01*
X90988095Y-19817857D01*
X90988095Y-19686904D01*
X90988095Y-19817857D02*
X91000000Y-19841666D01*
X91023809Y-19853571D01*
X91059523Y-19853571D01*
X91083333Y-19841666D01*
X91095238Y-19817857D01*
X91095238Y-19686904D01*
X91250000Y-19686904D02*
X91226190Y-19698809D01*
X91214285Y-19710714D01*
X91202380Y-19734523D01*
X91202380Y-19805952D01*
X91214285Y-19829761D01*
X91226190Y-19841666D01*
X91250000Y-19853571D01*
X91285714Y-19853571D01*
X91309523Y-19841666D01*
X91321428Y-19829761D01*
X91333333Y-19805952D01*
X91333333Y-19734523D01*
X91321428Y-19710714D01*
X91309523Y-19698809D01*
X91285714Y-19686904D01*
X91250000Y-19686904D01*
X91547619Y-19853571D02*
X91547619Y-19686904D01*
X91440476Y-19853571D02*
X91440476Y-19722619D01*
X91452380Y-19698809D01*
X91476190Y-19686904D01*
X91511904Y-19686904D01*
X91535714Y-19698809D01*
X91547619Y-19710714D01*
X91666666Y-19853571D02*
X91666666Y-19686904D01*
X91666666Y-19829761D02*
X91678571Y-19841666D01*
X91702380Y-19853571D01*
X91738095Y-19853571D01*
X91761904Y-19841666D01*
X91773809Y-19817857D01*
X91773809Y-19686904D01*
X91857142Y-19853571D02*
X91952380Y-19853571D01*
X91892857Y-19936904D02*
X91892857Y-19722619D01*
X91904761Y-19698809D01*
X91928571Y-19686904D01*
X91952380Y-19686904D01*
X92035714Y-19686904D02*
X92035714Y-19853571D01*
X92035714Y-19936904D02*
X92023809Y-19925000D01*
X92035714Y-19913095D01*
X92047619Y-19925000D01*
X92035714Y-19936904D01*
X92035714Y-19913095D01*
X92154761Y-19853571D02*
X92154761Y-19686904D01*
X92154761Y-19829761D02*
X92166666Y-19841666D01*
X92190476Y-19853571D01*
X92226190Y-19853571D01*
X92250000Y-19841666D01*
X92261904Y-19817857D01*
X92261904Y-19686904D01*
X92488095Y-19853571D02*
X92488095Y-19651190D01*
X92476190Y-19627380D01*
X92464285Y-19615476D01*
X92440476Y-19603571D01*
X92404761Y-19603571D01*
X92380952Y-19615476D01*
X92488095Y-19698809D02*
X92464285Y-19686904D01*
X92416666Y-19686904D01*
X92392857Y-19698809D01*
X92380952Y-19710714D01*
X92369047Y-19734523D01*
X92369047Y-19805952D01*
X92380952Y-19829761D01*
X92392857Y-19841666D01*
X92416666Y-19853571D01*
X92464285Y-19853571D01*
X92488095Y-19841666D01*
X92797619Y-19686904D02*
X92797619Y-19936904D01*
X92904761Y-19686904D02*
X92904761Y-19817857D01*
X92892857Y-19841666D01*
X92869047Y-19853571D01*
X92833333Y-19853571D01*
X92809523Y-19841666D01*
X92797619Y-19829761D01*
X93059523Y-19686904D02*
X93035714Y-19698809D01*
X93023809Y-19710714D01*
X93011904Y-19734523D01*
X93011904Y-19805952D01*
X93023809Y-19829761D01*
X93035714Y-19841666D01*
X93059523Y-19853571D01*
X93095238Y-19853571D01*
X93119047Y-19841666D01*
X93130952Y-19829761D01*
X93142857Y-19805952D01*
X93142857Y-19734523D01*
X93130952Y-19710714D01*
X93119047Y-19698809D01*
X93095238Y-19686904D01*
X93059523Y-19686904D01*
X93285714Y-19686904D02*
X93261904Y-19698809D01*
X93250000Y-19722619D01*
X93250000Y-19936904D01*
X93476190Y-19698809D02*
X93452380Y-19686904D01*
X93404761Y-19686904D01*
X93380952Y-19698809D01*
X93369047Y-19722619D01*
X93369047Y-19817857D01*
X93380952Y-19841666D01*
X93404761Y-19853571D01*
X93452380Y-19853571D01*
X93476190Y-19841666D01*
X93488095Y-19817857D01*
X93488095Y-19794047D01*
X93369047Y-19770238D01*
D10*
%TO.C,C13*%
X186642857Y-105677142D02*
X186690476Y-105724761D01*
X186833333Y-105772380D01*
X186928571Y-105772380D01*
X187071428Y-105724761D01*
X187166666Y-105629523D01*
X187214285Y-105534285D01*
X187261904Y-105343809D01*
X187261904Y-105200952D01*
X187214285Y-105010476D01*
X187166666Y-104915238D01*
X187071428Y-104820000D01*
X186928571Y-104772380D01*
X186833333Y-104772380D01*
X186690476Y-104820000D01*
X186642857Y-104867619D01*
X185690476Y-105772380D02*
X186261904Y-105772380D01*
X185976190Y-105772380D02*
X185976190Y-104772380D01*
X186071428Y-104915238D01*
X186166666Y-105010476D01*
X186261904Y-105058095D01*
X185357142Y-104772380D02*
X184738095Y-104772380D01*
X185071428Y-105153333D01*
X184928571Y-105153333D01*
X184833333Y-105200952D01*
X184785714Y-105248571D01*
X184738095Y-105343809D01*
X184738095Y-105581904D01*
X184785714Y-105677142D01*
X184833333Y-105724761D01*
X184928571Y-105772380D01*
X185214285Y-105772380D01*
X185309523Y-105724761D01*
X185357142Y-105677142D01*
%TO.C,R23*%
X188142857Y-30022380D02*
X188476190Y-29546190D01*
X188714285Y-30022380D02*
X188714285Y-29022380D01*
X188333333Y-29022380D01*
X188238095Y-29070000D01*
X188190476Y-29117619D01*
X188142857Y-29212857D01*
X188142857Y-29355714D01*
X188190476Y-29450952D01*
X188238095Y-29498571D01*
X188333333Y-29546190D01*
X188714285Y-29546190D01*
X187761904Y-29117619D02*
X187714285Y-29070000D01*
X187619047Y-29022380D01*
X187380952Y-29022380D01*
X187285714Y-29070000D01*
X187238095Y-29117619D01*
X187190476Y-29212857D01*
X187190476Y-29308095D01*
X187238095Y-29450952D01*
X187809523Y-30022380D01*
X187190476Y-30022380D01*
X186857142Y-29022380D02*
X186238095Y-29022380D01*
X186571428Y-29403333D01*
X186428571Y-29403333D01*
X186333333Y-29450952D01*
X186285714Y-29498571D01*
X186238095Y-29593809D01*
X186238095Y-29831904D01*
X186285714Y-29927142D01*
X186333333Y-29974761D01*
X186428571Y-30022380D01*
X186714285Y-30022380D01*
X186809523Y-29974761D01*
X186857142Y-29927142D01*
%TO.C,R8*%
X157166666Y-182522380D02*
X157500000Y-182046190D01*
X157738095Y-182522380D02*
X157738095Y-181522380D01*
X157357142Y-181522380D01*
X157261904Y-181570000D01*
X157214285Y-181617619D01*
X157166666Y-181712857D01*
X157166666Y-181855714D01*
X157214285Y-181950952D01*
X157261904Y-181998571D01*
X157357142Y-182046190D01*
X157738095Y-182046190D01*
X156595238Y-181950952D02*
X156690476Y-181903333D01*
X156738095Y-181855714D01*
X156785714Y-181760476D01*
X156785714Y-181712857D01*
X156738095Y-181617619D01*
X156690476Y-181570000D01*
X156595238Y-181522380D01*
X156404761Y-181522380D01*
X156309523Y-181570000D01*
X156261904Y-181617619D01*
X156214285Y-181712857D01*
X156214285Y-181760476D01*
X156261904Y-181855714D01*
X156309523Y-181903333D01*
X156404761Y-181950952D01*
X156595238Y-181950952D01*
X156690476Y-181998571D01*
X156738095Y-182046190D01*
X156785714Y-182141428D01*
X156785714Y-182331904D01*
X156738095Y-182427142D01*
X156690476Y-182474761D01*
X156595238Y-182522380D01*
X156404761Y-182522380D01*
X156309523Y-182474761D01*
X156261904Y-182427142D01*
X156214285Y-182331904D01*
X156214285Y-182141428D01*
X156261904Y-182046190D01*
X156309523Y-181998571D01*
X156404761Y-181950952D01*
%TO.C,R14*%
X45142857Y-133022380D02*
X45476190Y-132546190D01*
X45714285Y-133022380D02*
X45714285Y-132022380D01*
X45333333Y-132022380D01*
X45238095Y-132070000D01*
X45190476Y-132117619D01*
X45142857Y-132212857D01*
X45142857Y-132355714D01*
X45190476Y-132450952D01*
X45238095Y-132498571D01*
X45333333Y-132546190D01*
X45714285Y-132546190D01*
X44190476Y-133022380D02*
X44761904Y-133022380D01*
X44476190Y-133022380D02*
X44476190Y-132022380D01*
X44571428Y-132165238D01*
X44666666Y-132260476D01*
X44761904Y-132308095D01*
X43333333Y-132355714D02*
X43333333Y-133022380D01*
X43571428Y-131974761D02*
X43809523Y-132689047D01*
X43190476Y-132689047D01*
%TO.C,C5*%
X196166666Y-37037142D02*
X196214285Y-37084761D01*
X196357142Y-37132380D01*
X196452380Y-37132380D01*
X196595238Y-37084761D01*
X196690476Y-36989523D01*
X196738095Y-36894285D01*
X196785714Y-36703809D01*
X196785714Y-36560952D01*
X196738095Y-36370476D01*
X196690476Y-36275238D01*
X196595238Y-36180000D01*
X196452380Y-36132380D01*
X196357142Y-36132380D01*
X196214285Y-36180000D01*
X196166666Y-36227619D01*
X195261904Y-36132380D02*
X195738095Y-36132380D01*
X195785714Y-36608571D01*
X195738095Y-36560952D01*
X195642857Y-36513333D01*
X195404761Y-36513333D01*
X195309523Y-36560952D01*
X195261904Y-36608571D01*
X195214285Y-36703809D01*
X195214285Y-36941904D01*
X195261904Y-37037142D01*
X195309523Y-37084761D01*
X195404761Y-37132380D01*
X195642857Y-37132380D01*
X195738095Y-37084761D01*
X195785714Y-37037142D01*
%TO.C,R22*%
X157142857Y-67702380D02*
X157476190Y-67226190D01*
X157714285Y-67702380D02*
X157714285Y-66702380D01*
X157333333Y-66702380D01*
X157238095Y-66750000D01*
X157190476Y-66797619D01*
X157142857Y-66892857D01*
X157142857Y-67035714D01*
X157190476Y-67130952D01*
X157238095Y-67178571D01*
X157333333Y-67226190D01*
X157714285Y-67226190D01*
X156761904Y-66797619D02*
X156714285Y-66750000D01*
X156619047Y-66702380D01*
X156380952Y-66702380D01*
X156285714Y-66750000D01*
X156238095Y-66797619D01*
X156190476Y-66892857D01*
X156190476Y-66988095D01*
X156238095Y-67130952D01*
X156809523Y-67702380D01*
X156190476Y-67702380D01*
X155809523Y-66797619D02*
X155761904Y-66750000D01*
X155666666Y-66702380D01*
X155428571Y-66702380D01*
X155333333Y-66750000D01*
X155285714Y-66797619D01*
X155238095Y-66892857D01*
X155238095Y-66988095D01*
X155285714Y-67130952D01*
X155857142Y-67702380D01*
X155238095Y-67702380D01*
%TO.C,C8*%
X153666666Y-31857142D02*
X153714285Y-31904761D01*
X153857142Y-31952380D01*
X153952380Y-31952380D01*
X154095238Y-31904761D01*
X154190476Y-31809523D01*
X154238095Y-31714285D01*
X154285714Y-31523809D01*
X154285714Y-31380952D01*
X154238095Y-31190476D01*
X154190476Y-31095238D01*
X154095238Y-31000000D01*
X153952380Y-30952380D01*
X153857142Y-30952380D01*
X153714285Y-31000000D01*
X153666666Y-31047619D01*
X153095238Y-31380952D02*
X153190476Y-31333333D01*
X153238095Y-31285714D01*
X153285714Y-31190476D01*
X153285714Y-31142857D01*
X153238095Y-31047619D01*
X153190476Y-31000000D01*
X153095238Y-30952380D01*
X152904761Y-30952380D01*
X152809523Y-31000000D01*
X152761904Y-31047619D01*
X152714285Y-31142857D01*
X152714285Y-31190476D01*
X152761904Y-31285714D01*
X152809523Y-31333333D01*
X152904761Y-31380952D01*
X153095238Y-31380952D01*
X153190476Y-31428571D01*
X153238095Y-31476190D01*
X153285714Y-31571428D01*
X153285714Y-31761904D01*
X153238095Y-31857142D01*
X153190476Y-31904761D01*
X153095238Y-31952380D01*
X152904761Y-31952380D01*
X152809523Y-31904761D01*
X152761904Y-31857142D01*
X152714285Y-31761904D01*
X152714285Y-31571428D01*
X152761904Y-31476190D01*
X152809523Y-31428571D01*
X152904761Y-31380952D01*
%TO.C,R20*%
X156892857Y-57382380D02*
X157226190Y-56906190D01*
X157464285Y-57382380D02*
X157464285Y-56382380D01*
X157083333Y-56382380D01*
X156988095Y-56430000D01*
X156940476Y-56477619D01*
X156892857Y-56572857D01*
X156892857Y-56715714D01*
X156940476Y-56810952D01*
X156988095Y-56858571D01*
X157083333Y-56906190D01*
X157464285Y-56906190D01*
X156511904Y-56477619D02*
X156464285Y-56430000D01*
X156369047Y-56382380D01*
X156130952Y-56382380D01*
X156035714Y-56430000D01*
X155988095Y-56477619D01*
X155940476Y-56572857D01*
X155940476Y-56668095D01*
X155988095Y-56810952D01*
X156559523Y-57382380D01*
X155940476Y-57382380D01*
X155321428Y-56382380D02*
X155226190Y-56382380D01*
X155130952Y-56430000D01*
X155083333Y-56477619D01*
X155035714Y-56572857D01*
X154988095Y-56763333D01*
X154988095Y-57001428D01*
X155035714Y-57191904D01*
X155083333Y-57287142D01*
X155130952Y-57334761D01*
X155226190Y-57382380D01*
X155321428Y-57382380D01*
X155416666Y-57334761D01*
X155464285Y-57287142D01*
X155511904Y-57191904D01*
X155559523Y-57001428D01*
X155559523Y-56763333D01*
X155511904Y-56572857D01*
X155464285Y-56477619D01*
X155416666Y-56430000D01*
X155321428Y-56382380D01*
%TO.C,R13*%
X85142857Y-153022380D02*
X85476190Y-152546190D01*
X85714285Y-153022380D02*
X85714285Y-152022380D01*
X85333333Y-152022380D01*
X85238095Y-152070000D01*
X85190476Y-152117619D01*
X85142857Y-152212857D01*
X85142857Y-152355714D01*
X85190476Y-152450952D01*
X85238095Y-152498571D01*
X85333333Y-152546190D01*
X85714285Y-152546190D01*
X84190476Y-153022380D02*
X84761904Y-153022380D01*
X84476190Y-153022380D02*
X84476190Y-152022380D01*
X84571428Y-152165238D01*
X84666666Y-152260476D01*
X84761904Y-152308095D01*
X83857142Y-152022380D02*
X83238095Y-152022380D01*
X83571428Y-152403333D01*
X83428571Y-152403333D01*
X83333333Y-152450952D01*
X83285714Y-152498571D01*
X83238095Y-152593809D01*
X83238095Y-152831904D01*
X83285714Y-152927142D01*
X83333333Y-152974761D01*
X83428571Y-153022380D01*
X83714285Y-153022380D01*
X83809523Y-152974761D01*
X83857142Y-152927142D01*
%TO.C,C10*%
X142642857Y-158677142D02*
X142690476Y-158724761D01*
X142833333Y-158772380D01*
X142928571Y-158772380D01*
X143071428Y-158724761D01*
X143166666Y-158629523D01*
X143214285Y-158534285D01*
X143261904Y-158343809D01*
X143261904Y-158200952D01*
X143214285Y-158010476D01*
X143166666Y-157915238D01*
X143071428Y-157820000D01*
X142928571Y-157772380D01*
X142833333Y-157772380D01*
X142690476Y-157820000D01*
X142642857Y-157867619D01*
X141690476Y-158772380D02*
X142261904Y-158772380D01*
X141976190Y-158772380D02*
X141976190Y-157772380D01*
X142071428Y-157915238D01*
X142166666Y-158010476D01*
X142261904Y-158058095D01*
X141071428Y-157772380D02*
X140976190Y-157772380D01*
X140880952Y-157820000D01*
X140833333Y-157867619D01*
X140785714Y-157962857D01*
X140738095Y-158153333D01*
X140738095Y-158391428D01*
X140785714Y-158581904D01*
X140833333Y-158677142D01*
X140880952Y-158724761D01*
X140976190Y-158772380D01*
X141071428Y-158772380D01*
X141166666Y-158724761D01*
X141214285Y-158677142D01*
X141261904Y-158581904D01*
X141309523Y-158391428D01*
X141309523Y-158153333D01*
X141261904Y-157962857D01*
X141214285Y-157867619D01*
X141166666Y-157820000D01*
X141071428Y-157772380D01*
%TO.C,R9*%
X181166666Y-211022380D02*
X181500000Y-210546190D01*
X181738095Y-211022380D02*
X181738095Y-210022380D01*
X181357142Y-210022380D01*
X181261904Y-210070000D01*
X181214285Y-210117619D01*
X181166666Y-210212857D01*
X181166666Y-210355714D01*
X181214285Y-210450952D01*
X181261904Y-210498571D01*
X181357142Y-210546190D01*
X181738095Y-210546190D01*
X180690476Y-211022380D02*
X180500000Y-211022380D01*
X180404761Y-210974761D01*
X180357142Y-210927142D01*
X180261904Y-210784285D01*
X180214285Y-210593809D01*
X180214285Y-210212857D01*
X180261904Y-210117619D01*
X180309523Y-210070000D01*
X180404761Y-210022380D01*
X180595238Y-210022380D01*
X180690476Y-210070000D01*
X180738095Y-210117619D01*
X180785714Y-210212857D01*
X180785714Y-210450952D01*
X180738095Y-210546190D01*
X180690476Y-210593809D01*
X180595238Y-210641428D01*
X180404761Y-210641428D01*
X180309523Y-210593809D01*
X180261904Y-210546190D01*
X180214285Y-210450952D01*
%TO.C,C1*%
X156416666Y-43177142D02*
X156464285Y-43224761D01*
X156607142Y-43272380D01*
X156702380Y-43272380D01*
X156845238Y-43224761D01*
X156940476Y-43129523D01*
X156988095Y-43034285D01*
X157035714Y-42843809D01*
X157035714Y-42700952D01*
X156988095Y-42510476D01*
X156940476Y-42415238D01*
X156845238Y-42320000D01*
X156702380Y-42272380D01*
X156607142Y-42272380D01*
X156464285Y-42320000D01*
X156416666Y-42367619D01*
X155464285Y-43272380D02*
X156035714Y-43272380D01*
X155750000Y-43272380D02*
X155750000Y-42272380D01*
X155845238Y-42415238D01*
X155940476Y-42510476D01*
X156035714Y-42558095D01*
%TO.C,U3*%
X192261904Y-35352380D02*
X192261904Y-36161904D01*
X192214285Y-36257142D01*
X192166666Y-36304761D01*
X192071428Y-36352380D01*
X191880952Y-36352380D01*
X191785714Y-36304761D01*
X191738095Y-36257142D01*
X191690476Y-36161904D01*
X191690476Y-35352380D01*
X191309523Y-35352380D02*
X190690476Y-35352380D01*
X191023809Y-35733333D01*
X190880952Y-35733333D01*
X190785714Y-35780952D01*
X190738095Y-35828571D01*
X190690476Y-35923809D01*
X190690476Y-36161904D01*
X190738095Y-36257142D01*
X190785714Y-36304761D01*
X190880952Y-36352380D01*
X191166666Y-36352380D01*
X191261904Y-36304761D01*
X191309523Y-36257142D01*
%TO.C,C20*%
X97142857Y-155177142D02*
X97190476Y-155224761D01*
X97333333Y-155272380D01*
X97428571Y-155272380D01*
X97571428Y-155224761D01*
X97666666Y-155129523D01*
X97714285Y-155034285D01*
X97761904Y-154843809D01*
X97761904Y-154700952D01*
X97714285Y-154510476D01*
X97666666Y-154415238D01*
X97571428Y-154320000D01*
X97428571Y-154272380D01*
X97333333Y-154272380D01*
X97190476Y-154320000D01*
X97142857Y-154367619D01*
X96761904Y-154367619D02*
X96714285Y-154320000D01*
X96619047Y-154272380D01*
X96380952Y-154272380D01*
X96285714Y-154320000D01*
X96238095Y-154367619D01*
X96190476Y-154462857D01*
X96190476Y-154558095D01*
X96238095Y-154700952D01*
X96809523Y-155272380D01*
X96190476Y-155272380D01*
X95571428Y-154272380D02*
X95476190Y-154272380D01*
X95380952Y-154320000D01*
X95333333Y-154367619D01*
X95285714Y-154462857D01*
X95238095Y-154653333D01*
X95238095Y-154891428D01*
X95285714Y-155081904D01*
X95333333Y-155177142D01*
X95380952Y-155224761D01*
X95476190Y-155272380D01*
X95571428Y-155272380D01*
X95666666Y-155224761D01*
X95714285Y-155177142D01*
X95761904Y-155081904D01*
X95809523Y-154891428D01*
X95809523Y-154653333D01*
X95761904Y-154462857D01*
X95714285Y-154367619D01*
X95666666Y-154320000D01*
X95571428Y-154272380D01*
%TO.C,R10*%
X89642857Y-210022380D02*
X89976190Y-209546190D01*
X90214285Y-210022380D02*
X90214285Y-209022380D01*
X89833333Y-209022380D01*
X89738095Y-209070000D01*
X89690476Y-209117619D01*
X89642857Y-209212857D01*
X89642857Y-209355714D01*
X89690476Y-209450952D01*
X89738095Y-209498571D01*
X89833333Y-209546190D01*
X90214285Y-209546190D01*
X88690476Y-210022380D02*
X89261904Y-210022380D01*
X88976190Y-210022380D02*
X88976190Y-209022380D01*
X89071428Y-209165238D01*
X89166666Y-209260476D01*
X89261904Y-209308095D01*
X88071428Y-209022380D02*
X87976190Y-209022380D01*
X87880952Y-209070000D01*
X87833333Y-209117619D01*
X87785714Y-209212857D01*
X87738095Y-209403333D01*
X87738095Y-209641428D01*
X87785714Y-209831904D01*
X87833333Y-209927142D01*
X87880952Y-209974761D01*
X87976190Y-210022380D01*
X88071428Y-210022380D01*
X88166666Y-209974761D01*
X88214285Y-209927142D01*
X88261904Y-209831904D01*
X88309523Y-209641428D01*
X88309523Y-209403333D01*
X88261904Y-209212857D01*
X88214285Y-209117619D01*
X88166666Y-209070000D01*
X88071428Y-209022380D01*
%TO.C,R26*%
X156892857Y-73452380D02*
X157226190Y-72976190D01*
X157464285Y-73452380D02*
X157464285Y-72452380D01*
X157083333Y-72452380D01*
X156988095Y-72500000D01*
X156940476Y-72547619D01*
X156892857Y-72642857D01*
X156892857Y-72785714D01*
X156940476Y-72880952D01*
X156988095Y-72928571D01*
X157083333Y-72976190D01*
X157464285Y-72976190D01*
X156511904Y-72547619D02*
X156464285Y-72500000D01*
X156369047Y-72452380D01*
X156130952Y-72452380D01*
X156035714Y-72500000D01*
X155988095Y-72547619D01*
X155940476Y-72642857D01*
X155940476Y-72738095D01*
X155988095Y-72880952D01*
X156559523Y-73452380D01*
X155940476Y-73452380D01*
X155083333Y-72452380D02*
X155273809Y-72452380D01*
X155369047Y-72500000D01*
X155416666Y-72547619D01*
X155511904Y-72690476D01*
X155559523Y-72880952D01*
X155559523Y-73261904D01*
X155511904Y-73357142D01*
X155464285Y-73404761D01*
X155369047Y-73452380D01*
X155178571Y-73452380D01*
X155083333Y-73404761D01*
X155035714Y-73357142D01*
X154988095Y-73261904D01*
X154988095Y-73023809D01*
X155035714Y-72928571D01*
X155083333Y-72880952D01*
X155178571Y-72833333D01*
X155369047Y-72833333D01*
X155464285Y-72880952D01*
X155511904Y-72928571D01*
X155559523Y-73023809D01*
%TO.C,C3*%
X156416666Y-59677142D02*
X156464285Y-59724761D01*
X156607142Y-59772380D01*
X156702380Y-59772380D01*
X156845238Y-59724761D01*
X156940476Y-59629523D01*
X156988095Y-59534285D01*
X157035714Y-59343809D01*
X157035714Y-59200952D01*
X156988095Y-59010476D01*
X156940476Y-58915238D01*
X156845238Y-58820000D01*
X156702380Y-58772380D01*
X156607142Y-58772380D01*
X156464285Y-58820000D01*
X156416666Y-58867619D01*
X156083333Y-58772380D02*
X155464285Y-58772380D01*
X155797619Y-59153333D01*
X155654761Y-59153333D01*
X155559523Y-59200952D01*
X155511904Y-59248571D01*
X155464285Y-59343809D01*
X155464285Y-59581904D01*
X155511904Y-59677142D01*
X155559523Y-59724761D01*
X155654761Y-59772380D01*
X155940476Y-59772380D01*
X156035714Y-59724761D01*
X156083333Y-59677142D01*
%TO.C,C19*%
X30642857Y-125677142D02*
X30690476Y-125724761D01*
X30833333Y-125772380D01*
X30928571Y-125772380D01*
X31071428Y-125724761D01*
X31166666Y-125629523D01*
X31214285Y-125534285D01*
X31261904Y-125343809D01*
X31261904Y-125200952D01*
X31214285Y-125010476D01*
X31166666Y-124915238D01*
X31071428Y-124820000D01*
X30928571Y-124772380D01*
X30833333Y-124772380D01*
X30690476Y-124820000D01*
X30642857Y-124867619D01*
X29690476Y-125772380D02*
X30261904Y-125772380D01*
X29976190Y-125772380D02*
X29976190Y-124772380D01*
X30071428Y-124915238D01*
X30166666Y-125010476D01*
X30261904Y-125058095D01*
X29214285Y-125772380D02*
X29023809Y-125772380D01*
X28928571Y-125724761D01*
X28880952Y-125677142D01*
X28785714Y-125534285D01*
X28738095Y-125343809D01*
X28738095Y-124962857D01*
X28785714Y-124867619D01*
X28833333Y-124820000D01*
X28928571Y-124772380D01*
X29119047Y-124772380D01*
X29214285Y-124820000D01*
X29261904Y-124867619D01*
X29309523Y-124962857D01*
X29309523Y-125200952D01*
X29261904Y-125296190D01*
X29214285Y-125343809D01*
X29119047Y-125391428D01*
X28928571Y-125391428D01*
X28833333Y-125343809D01*
X28785714Y-125296190D01*
X28738095Y-125200952D01*
%TO.C,C9*%
X156416666Y-27677142D02*
X156464285Y-27724761D01*
X156607142Y-27772380D01*
X156702380Y-27772380D01*
X156845238Y-27724761D01*
X156940476Y-27629523D01*
X156988095Y-27534285D01*
X157035714Y-27343809D01*
X157035714Y-27200952D01*
X156988095Y-27010476D01*
X156940476Y-26915238D01*
X156845238Y-26820000D01*
X156702380Y-26772380D01*
X156607142Y-26772380D01*
X156464285Y-26820000D01*
X156416666Y-26867619D01*
X155940476Y-27772380D02*
X155750000Y-27772380D01*
X155654761Y-27724761D01*
X155607142Y-27677142D01*
X155511904Y-27534285D01*
X155464285Y-27343809D01*
X155464285Y-26962857D01*
X155511904Y-26867619D01*
X155559523Y-26820000D01*
X155654761Y-26772380D01*
X155845238Y-26772380D01*
X155940476Y-26820000D01*
X155988095Y-26867619D01*
X156035714Y-26962857D01*
X156035714Y-27200952D01*
X155988095Y-27296190D01*
X155940476Y-27343809D01*
X155845238Y-27391428D01*
X155654761Y-27391428D01*
X155559523Y-27343809D01*
X155511904Y-27296190D01*
X155464285Y-27200952D01*
%TO.C,C2*%
X153666666Y-47357142D02*
X153714285Y-47404761D01*
X153857142Y-47452380D01*
X153952380Y-47452380D01*
X154095238Y-47404761D01*
X154190476Y-47309523D01*
X154238095Y-47214285D01*
X154285714Y-47023809D01*
X154285714Y-46880952D01*
X154238095Y-46690476D01*
X154190476Y-46595238D01*
X154095238Y-46500000D01*
X153952380Y-46452380D01*
X153857142Y-46452380D01*
X153714285Y-46500000D01*
X153666666Y-46547619D01*
X153285714Y-46547619D02*
X153238095Y-46500000D01*
X153142857Y-46452380D01*
X152904761Y-46452380D01*
X152809523Y-46500000D01*
X152761904Y-46547619D01*
X152714285Y-46642857D01*
X152714285Y-46738095D01*
X152761904Y-46880952D01*
X153333333Y-47452380D01*
X152714285Y-47452380D01*
%TO.C,C6*%
X196166666Y-31107142D02*
X196214285Y-31154761D01*
X196357142Y-31202380D01*
X196452380Y-31202380D01*
X196595238Y-31154761D01*
X196690476Y-31059523D01*
X196738095Y-30964285D01*
X196785714Y-30773809D01*
X196785714Y-30630952D01*
X196738095Y-30440476D01*
X196690476Y-30345238D01*
X196595238Y-30250000D01*
X196452380Y-30202380D01*
X196357142Y-30202380D01*
X196214285Y-30250000D01*
X196166666Y-30297619D01*
X195309523Y-30202380D02*
X195500000Y-30202380D01*
X195595238Y-30250000D01*
X195642857Y-30297619D01*
X195738095Y-30440476D01*
X195785714Y-30630952D01*
X195785714Y-31011904D01*
X195738095Y-31107142D01*
X195690476Y-31154761D01*
X195595238Y-31202380D01*
X195404761Y-31202380D01*
X195309523Y-31154761D01*
X195261904Y-31107142D01*
X195214285Y-31011904D01*
X195214285Y-30773809D01*
X195261904Y-30678571D01*
X195309523Y-30630952D01*
X195404761Y-30583333D01*
X195595238Y-30583333D01*
X195690476Y-30630952D01*
X195738095Y-30678571D01*
X195785714Y-30773809D01*
%TO.C,U4*%
X166011904Y-59852380D02*
X166011904Y-60661904D01*
X165964285Y-60757142D01*
X165916666Y-60804761D01*
X165821428Y-60852380D01*
X165630952Y-60852380D01*
X165535714Y-60804761D01*
X165488095Y-60757142D01*
X165440476Y-60661904D01*
X165440476Y-59852380D01*
X164535714Y-60185714D02*
X164535714Y-60852380D01*
X164773809Y-59804761D02*
X165011904Y-60519047D01*
X164392857Y-60519047D01*
%TO.C,R18*%
X157142857Y-51202380D02*
X157476190Y-50726190D01*
X157714285Y-51202380D02*
X157714285Y-50202380D01*
X157333333Y-50202380D01*
X157238095Y-50250000D01*
X157190476Y-50297619D01*
X157142857Y-50392857D01*
X157142857Y-50535714D01*
X157190476Y-50630952D01*
X157238095Y-50678571D01*
X157333333Y-50726190D01*
X157714285Y-50726190D01*
X156190476Y-51202380D02*
X156761904Y-51202380D01*
X156476190Y-51202380D02*
X156476190Y-50202380D01*
X156571428Y-50345238D01*
X156666666Y-50440476D01*
X156761904Y-50488095D01*
X155619047Y-50630952D02*
X155714285Y-50583333D01*
X155761904Y-50535714D01*
X155809523Y-50440476D01*
X155809523Y-50392857D01*
X155761904Y-50297619D01*
X155714285Y-50250000D01*
X155619047Y-50202380D01*
X155428571Y-50202380D01*
X155333333Y-50250000D01*
X155285714Y-50297619D01*
X155238095Y-50392857D01*
X155238095Y-50440476D01*
X155285714Y-50535714D01*
X155333333Y-50583333D01*
X155428571Y-50630952D01*
X155619047Y-50630952D01*
X155714285Y-50678571D01*
X155761904Y-50726190D01*
X155809523Y-50821428D01*
X155809523Y-51011904D01*
X155761904Y-51107142D01*
X155714285Y-51154761D01*
X155619047Y-51202380D01*
X155428571Y-51202380D01*
X155333333Y-51154761D01*
X155285714Y-51107142D01*
X155238095Y-51011904D01*
X155238095Y-50821428D01*
X155285714Y-50726190D01*
X155333333Y-50678571D01*
X155428571Y-50630952D01*
%TO.C,C7*%
X188677142Y-38083333D02*
X188724761Y-38035714D01*
X188772380Y-37892857D01*
X188772380Y-37797619D01*
X188724761Y-37654761D01*
X188629523Y-37559523D01*
X188534285Y-37511904D01*
X188343809Y-37464285D01*
X188200952Y-37464285D01*
X188010476Y-37511904D01*
X187915238Y-37559523D01*
X187820000Y-37654761D01*
X187772380Y-37797619D01*
X187772380Y-37892857D01*
X187820000Y-38035714D01*
X187867619Y-38083333D01*
X187772380Y-38416666D02*
X187772380Y-39083333D01*
X188772380Y-38654761D01*
%TO.C,U2*%
X166011904Y-43852380D02*
X166011904Y-44661904D01*
X165964285Y-44757142D01*
X165916666Y-44804761D01*
X165821428Y-44852380D01*
X165630952Y-44852380D01*
X165535714Y-44804761D01*
X165488095Y-44757142D01*
X165440476Y-44661904D01*
X165440476Y-43852380D01*
X165011904Y-43947619D02*
X164964285Y-43900000D01*
X164869047Y-43852380D01*
X164630952Y-43852380D01*
X164535714Y-43900000D01*
X164488095Y-43947619D01*
X164440476Y-44042857D01*
X164440476Y-44138095D01*
X164488095Y-44280952D01*
X165059523Y-44852380D01*
X164440476Y-44852380D01*
%TO.C,D1*%
X187238095Y-32952380D02*
X187238095Y-31952380D01*
X187000000Y-31952380D01*
X186857142Y-32000000D01*
X186761904Y-32095238D01*
X186714285Y-32190476D01*
X186666666Y-32380952D01*
X186666666Y-32523809D01*
X186714285Y-32714285D01*
X186761904Y-32809523D01*
X186857142Y-32904761D01*
X187000000Y-32952380D01*
X187238095Y-32952380D01*
X185714285Y-32952380D02*
X186285714Y-32952380D01*
X186000000Y-32952380D02*
X186000000Y-31952380D01*
X186095238Y-32095238D01*
X186190476Y-32190476D01*
X186285714Y-32238095D01*
%TO.C,P1*%
X31212380Y-69261904D02*
X30212380Y-69261904D01*
X30212380Y-69642857D01*
X30260000Y-69738095D01*
X30307619Y-69785714D01*
X30402857Y-69833333D01*
X30545714Y-69833333D01*
X30640952Y-69785714D01*
X30688571Y-69738095D01*
X30736190Y-69642857D01*
X30736190Y-69261904D01*
X31212380Y-70785714D02*
X31212380Y-70214285D01*
X31212380Y-70500000D02*
X30212380Y-70500000D01*
X30355238Y-70404761D01*
X30450476Y-70309523D01*
X30498095Y-70214285D01*
X21247619Y-73404761D02*
X22247619Y-73404761D01*
X22247619Y-73023809D01*
X22200000Y-72928571D01*
X22152380Y-72880952D01*
X22057142Y-72833333D01*
X21914285Y-72833333D01*
X21819047Y-72880952D01*
X21771428Y-72928571D01*
X21723809Y-73023809D01*
X21723809Y-73404761D01*
X21342857Y-71833333D02*
X21295238Y-71880952D01*
X21247619Y-72023809D01*
X21247619Y-72119047D01*
X21295238Y-72261904D01*
X21390476Y-72357142D01*
X21485714Y-72404761D01*
X21676190Y-72452380D01*
X21819047Y-72452380D01*
X22009523Y-72404761D01*
X22104761Y-72357142D01*
X22200000Y-72261904D01*
X22247619Y-72119047D01*
X22247619Y-72023809D01*
X22200000Y-71880952D01*
X22152380Y-71833333D01*
X21771428Y-71071428D02*
X21723809Y-70928571D01*
X21676190Y-70880952D01*
X21580952Y-70833333D01*
X21438095Y-70833333D01*
X21342857Y-70880952D01*
X21295238Y-70928571D01*
X21247619Y-71023809D01*
X21247619Y-71404761D01*
X22247619Y-71404761D01*
X22247619Y-71071428D01*
X22200000Y-70976190D01*
X22152380Y-70928571D01*
X22057142Y-70880952D01*
X21961904Y-70880952D01*
X21866666Y-70928571D01*
X21819047Y-70976190D01*
X21771428Y-71071428D01*
X21771428Y-71404761D01*
X21295238Y-69261904D02*
X21247619Y-69357142D01*
X21247619Y-69547619D01*
X21295238Y-69642857D01*
X21390476Y-69690476D01*
X21771428Y-69690476D01*
X21866666Y-69642857D01*
X21914285Y-69547619D01*
X21914285Y-69357142D01*
X21866666Y-69261904D01*
X21771428Y-69214285D01*
X21676190Y-69214285D01*
X21580952Y-69690476D01*
X21247619Y-68357142D02*
X22247619Y-68357142D01*
X21295238Y-68357142D02*
X21247619Y-68452380D01*
X21247619Y-68642857D01*
X21295238Y-68738095D01*
X21342857Y-68785714D01*
X21438095Y-68833333D01*
X21723809Y-68833333D01*
X21819047Y-68785714D01*
X21866666Y-68738095D01*
X21914285Y-68642857D01*
X21914285Y-68452380D01*
X21866666Y-68357142D01*
X21914285Y-67452380D02*
X21104761Y-67452380D01*
X21009523Y-67500000D01*
X20961904Y-67547619D01*
X20914285Y-67642857D01*
X20914285Y-67785714D01*
X20961904Y-67880952D01*
X21295238Y-67452380D02*
X21247619Y-67547619D01*
X21247619Y-67738095D01*
X21295238Y-67833333D01*
X21342857Y-67880952D01*
X21438095Y-67928571D01*
X21723809Y-67928571D01*
X21819047Y-67880952D01*
X21866666Y-67833333D01*
X21914285Y-67738095D01*
X21914285Y-67547619D01*
X21866666Y-67452380D01*
X21295238Y-66595238D02*
X21247619Y-66690476D01*
X21247619Y-66880952D01*
X21295238Y-66976190D01*
X21390476Y-67023809D01*
X21771428Y-67023809D01*
X21866666Y-66976190D01*
X21914285Y-66880952D01*
X21914285Y-66690476D01*
X21866666Y-66595238D01*
X21771428Y-66547619D01*
X21676190Y-66547619D01*
X21580952Y-67023809D01*
%TO.C,C14*%
X65642857Y-31107142D02*
X65690476Y-31154761D01*
X65833333Y-31202380D01*
X65928571Y-31202380D01*
X66071428Y-31154761D01*
X66166666Y-31059523D01*
X66214285Y-30964285D01*
X66261904Y-30773809D01*
X66261904Y-30630952D01*
X66214285Y-30440476D01*
X66166666Y-30345238D01*
X66071428Y-30250000D01*
X65928571Y-30202380D01*
X65833333Y-30202380D01*
X65690476Y-30250000D01*
X65642857Y-30297619D01*
X64690476Y-31202380D02*
X65261904Y-31202380D01*
X64976190Y-31202380D02*
X64976190Y-30202380D01*
X65071428Y-30345238D01*
X65166666Y-30440476D01*
X65261904Y-30488095D01*
X63833333Y-30535714D02*
X63833333Y-31202380D01*
X64071428Y-30154761D02*
X64309523Y-30869047D01*
X63690476Y-30869047D01*
%TO.C,C17*%
X59642857Y-86677142D02*
X59690476Y-86724761D01*
X59833333Y-86772380D01*
X59928571Y-86772380D01*
X60071428Y-86724761D01*
X60166666Y-86629523D01*
X60214285Y-86534285D01*
X60261904Y-86343809D01*
X60261904Y-86200952D01*
X60214285Y-86010476D01*
X60166666Y-85915238D01*
X60071428Y-85820000D01*
X59928571Y-85772380D01*
X59833333Y-85772380D01*
X59690476Y-85820000D01*
X59642857Y-85867619D01*
X58690476Y-86772380D02*
X59261904Y-86772380D01*
X58976190Y-86772380D02*
X58976190Y-85772380D01*
X59071428Y-85915238D01*
X59166666Y-86010476D01*
X59261904Y-86058095D01*
X58357142Y-85772380D02*
X57690476Y-85772380D01*
X58119047Y-86772380D01*
%TO.C,R3*%
X156666666Y-41382380D02*
X157000000Y-40906190D01*
X157238095Y-41382380D02*
X157238095Y-40382380D01*
X156857142Y-40382380D01*
X156761904Y-40430000D01*
X156714285Y-40477619D01*
X156666666Y-40572857D01*
X156666666Y-40715714D01*
X156714285Y-40810952D01*
X156761904Y-40858571D01*
X156857142Y-40906190D01*
X157238095Y-40906190D01*
X156333333Y-40382380D02*
X155714285Y-40382380D01*
X156047619Y-40763333D01*
X155904761Y-40763333D01*
X155809523Y-40810952D01*
X155761904Y-40858571D01*
X155714285Y-40953809D01*
X155714285Y-41191904D01*
X155761904Y-41287142D01*
X155809523Y-41334761D01*
X155904761Y-41382380D01*
X156190476Y-41382380D01*
X156285714Y-41334761D01*
X156333333Y-41287142D01*
%TO.C,R4*%
X99882380Y-27033333D02*
X99406190Y-26700000D01*
X99882380Y-26461904D02*
X98882380Y-26461904D01*
X98882380Y-26842857D01*
X98930000Y-26938095D01*
X98977619Y-26985714D01*
X99072857Y-27033333D01*
X99215714Y-27033333D01*
X99310952Y-26985714D01*
X99358571Y-26938095D01*
X99406190Y-26842857D01*
X99406190Y-26461904D01*
X99215714Y-27890476D02*
X99882380Y-27890476D01*
X98834761Y-27652380D02*
X99549047Y-27414285D01*
X99549047Y-28033333D01*
%TO.C,C21*%
X97142857Y-202677142D02*
X97190476Y-202724761D01*
X97333333Y-202772380D01*
X97428571Y-202772380D01*
X97571428Y-202724761D01*
X97666666Y-202629523D01*
X97714285Y-202534285D01*
X97761904Y-202343809D01*
X97761904Y-202200952D01*
X97714285Y-202010476D01*
X97666666Y-201915238D01*
X97571428Y-201820000D01*
X97428571Y-201772380D01*
X97333333Y-201772380D01*
X97190476Y-201820000D01*
X97142857Y-201867619D01*
X96761904Y-201867619D02*
X96714285Y-201820000D01*
X96619047Y-201772380D01*
X96380952Y-201772380D01*
X96285714Y-201820000D01*
X96238095Y-201867619D01*
X96190476Y-201962857D01*
X96190476Y-202058095D01*
X96238095Y-202200952D01*
X96809523Y-202772380D01*
X96190476Y-202772380D01*
X95238095Y-202772380D02*
X95809523Y-202772380D01*
X95523809Y-202772380D02*
X95523809Y-201772380D01*
X95619047Y-201915238D01*
X95714285Y-202010476D01*
X95809523Y-202058095D01*
%TO.C,C12*%
X184642857Y-177177142D02*
X184690476Y-177224761D01*
X184833333Y-177272380D01*
X184928571Y-177272380D01*
X185071428Y-177224761D01*
X185166666Y-177129523D01*
X185214285Y-177034285D01*
X185261904Y-176843809D01*
X185261904Y-176700952D01*
X185214285Y-176510476D01*
X185166666Y-176415238D01*
X185071428Y-176320000D01*
X184928571Y-176272380D01*
X184833333Y-176272380D01*
X184690476Y-176320000D01*
X184642857Y-176367619D01*
X183690476Y-177272380D02*
X184261904Y-177272380D01*
X183976190Y-177272380D02*
X183976190Y-176272380D01*
X184071428Y-176415238D01*
X184166666Y-176510476D01*
X184261904Y-176558095D01*
X183309523Y-176367619D02*
X183261904Y-176320000D01*
X183166666Y-176272380D01*
X182928571Y-176272380D01*
X182833333Y-176320000D01*
X182785714Y-176367619D01*
X182738095Y-176462857D01*
X182738095Y-176558095D01*
X182785714Y-176700952D01*
X183357142Y-177272380D01*
X182738095Y-177272380D01*
%TO.C,C22*%
X26642857Y-182677142D02*
X26690476Y-182724761D01*
X26833333Y-182772380D01*
X26928571Y-182772380D01*
X27071428Y-182724761D01*
X27166666Y-182629523D01*
X27214285Y-182534285D01*
X27261904Y-182343809D01*
X27261904Y-182200952D01*
X27214285Y-182010476D01*
X27166666Y-181915238D01*
X27071428Y-181820000D01*
X26928571Y-181772380D01*
X26833333Y-181772380D01*
X26690476Y-181820000D01*
X26642857Y-181867619D01*
X26261904Y-181867619D02*
X26214285Y-181820000D01*
X26119047Y-181772380D01*
X25880952Y-181772380D01*
X25785714Y-181820000D01*
X25738095Y-181867619D01*
X25690476Y-181962857D01*
X25690476Y-182058095D01*
X25738095Y-182200952D01*
X26309523Y-182772380D01*
X25690476Y-182772380D01*
X25309523Y-181867619D02*
X25261904Y-181820000D01*
X25166666Y-181772380D01*
X24928571Y-181772380D01*
X24833333Y-181820000D01*
X24785714Y-181867619D01*
X24738095Y-181962857D01*
X24738095Y-182058095D01*
X24785714Y-182200952D01*
X25357142Y-182772380D01*
X24738095Y-182772380D01*
%TO.C,R17*%
X36142857Y-201022380D02*
X36476190Y-200546190D01*
X36714285Y-201022380D02*
X36714285Y-200022380D01*
X36333333Y-200022380D01*
X36238095Y-200070000D01*
X36190476Y-200117619D01*
X36142857Y-200212857D01*
X36142857Y-200355714D01*
X36190476Y-200450952D01*
X36238095Y-200498571D01*
X36333333Y-200546190D01*
X36714285Y-200546190D01*
X35190476Y-201022380D02*
X35761904Y-201022380D01*
X35476190Y-201022380D02*
X35476190Y-200022380D01*
X35571428Y-200165238D01*
X35666666Y-200260476D01*
X35761904Y-200308095D01*
X34857142Y-200022380D02*
X34190476Y-200022380D01*
X34619047Y-201022380D01*
%TO.C,C15*%
X114142857Y-124677142D02*
X114190476Y-124724761D01*
X114333333Y-124772380D01*
X114428571Y-124772380D01*
X114571428Y-124724761D01*
X114666666Y-124629523D01*
X114714285Y-124534285D01*
X114761904Y-124343809D01*
X114761904Y-124200952D01*
X114714285Y-124010476D01*
X114666666Y-123915238D01*
X114571428Y-123820000D01*
X114428571Y-123772380D01*
X114333333Y-123772380D01*
X114190476Y-123820000D01*
X114142857Y-123867619D01*
X113190476Y-124772380D02*
X113761904Y-124772380D01*
X113476190Y-124772380D02*
X113476190Y-123772380D01*
X113571428Y-123915238D01*
X113666666Y-124010476D01*
X113761904Y-124058095D01*
X112285714Y-123772380D02*
X112761904Y-123772380D01*
X112809523Y-124248571D01*
X112761904Y-124200952D01*
X112666666Y-124153333D01*
X112428571Y-124153333D01*
X112333333Y-124200952D01*
X112285714Y-124248571D01*
X112238095Y-124343809D01*
X112238095Y-124581904D01*
X112285714Y-124677142D01*
X112333333Y-124724761D01*
X112428571Y-124772380D01*
X112666666Y-124772380D01*
X112761904Y-124724761D01*
X112809523Y-124677142D01*
%TO.C,R25*%
X157142857Y-36952380D02*
X157476190Y-36476190D01*
X157714285Y-36952380D02*
X157714285Y-35952380D01*
X157333333Y-35952380D01*
X157238095Y-36000000D01*
X157190476Y-36047619D01*
X157142857Y-36142857D01*
X157142857Y-36285714D01*
X157190476Y-36380952D01*
X157238095Y-36428571D01*
X157333333Y-36476190D01*
X157714285Y-36476190D01*
X156761904Y-36047619D02*
X156714285Y-36000000D01*
X156619047Y-35952380D01*
X156380952Y-35952380D01*
X156285714Y-36000000D01*
X156238095Y-36047619D01*
X156190476Y-36142857D01*
X156190476Y-36238095D01*
X156238095Y-36380952D01*
X156809523Y-36952380D01*
X156190476Y-36952380D01*
X155285714Y-35952380D02*
X155761904Y-35952380D01*
X155809523Y-36428571D01*
X155761904Y-36380952D01*
X155666666Y-36333333D01*
X155428571Y-36333333D01*
X155333333Y-36380952D01*
X155285714Y-36428571D01*
X155238095Y-36523809D01*
X155238095Y-36761904D01*
X155285714Y-36857142D01*
X155333333Y-36904761D01*
X155428571Y-36952380D01*
X155666666Y-36952380D01*
X155761904Y-36904761D01*
X155809523Y-36857142D01*
%TO.C,R19*%
X153892857Y-70202380D02*
X154226190Y-69726190D01*
X154464285Y-70202380D02*
X154464285Y-69202380D01*
X154083333Y-69202380D01*
X153988095Y-69250000D01*
X153940476Y-69297619D01*
X153892857Y-69392857D01*
X153892857Y-69535714D01*
X153940476Y-69630952D01*
X153988095Y-69678571D01*
X154083333Y-69726190D01*
X154464285Y-69726190D01*
X152940476Y-70202380D02*
X153511904Y-70202380D01*
X153226190Y-70202380D02*
X153226190Y-69202380D01*
X153321428Y-69345238D01*
X153416666Y-69440476D01*
X153511904Y-69488095D01*
X152464285Y-70202380D02*
X152273809Y-70202380D01*
X152178571Y-70154761D01*
X152130952Y-70107142D01*
X152035714Y-69964285D01*
X151988095Y-69773809D01*
X151988095Y-69392857D01*
X152035714Y-69297619D01*
X152083333Y-69250000D01*
X152178571Y-69202380D01*
X152369047Y-69202380D01*
X152464285Y-69250000D01*
X152511904Y-69297619D01*
X152559523Y-69392857D01*
X152559523Y-69630952D01*
X152511904Y-69726190D01*
X152464285Y-69773809D01*
X152369047Y-69821428D01*
X152178571Y-69821428D01*
X152083333Y-69773809D01*
X152035714Y-69726190D01*
X151988095Y-69630952D01*
%TO.C,C4*%
X153666666Y-63857142D02*
X153714285Y-63904761D01*
X153857142Y-63952380D01*
X153952380Y-63952380D01*
X154095238Y-63904761D01*
X154190476Y-63809523D01*
X154238095Y-63714285D01*
X154285714Y-63523809D01*
X154285714Y-63380952D01*
X154238095Y-63190476D01*
X154190476Y-63095238D01*
X154095238Y-63000000D01*
X153952380Y-62952380D01*
X153857142Y-62952380D01*
X153714285Y-63000000D01*
X153666666Y-63047619D01*
X152809523Y-63285714D02*
X152809523Y-63952380D01*
X153047619Y-62904761D02*
X153285714Y-63619047D01*
X152666666Y-63619047D01*
%TO.C,R6*%
X219166666Y-53522380D02*
X219500000Y-53046190D01*
X219738095Y-53522380D02*
X219738095Y-52522380D01*
X219357142Y-52522380D01*
X219261904Y-52570000D01*
X219214285Y-52617619D01*
X219166666Y-52712857D01*
X219166666Y-52855714D01*
X219214285Y-52950952D01*
X219261904Y-52998571D01*
X219357142Y-53046190D01*
X219738095Y-53046190D01*
X218309523Y-52522380D02*
X218500000Y-52522380D01*
X218595238Y-52570000D01*
X218642857Y-52617619D01*
X218738095Y-52760476D01*
X218785714Y-52950952D01*
X218785714Y-53331904D01*
X218738095Y-53427142D01*
X218690476Y-53474761D01*
X218595238Y-53522380D01*
X218404761Y-53522380D01*
X218309523Y-53474761D01*
X218261904Y-53427142D01*
X218214285Y-53331904D01*
X218214285Y-53093809D01*
X218261904Y-52998571D01*
X218309523Y-52950952D01*
X218404761Y-52903333D01*
X218595238Y-52903333D01*
X218690476Y-52950952D01*
X218738095Y-52998571D01*
X218785714Y-53093809D01*
%TO.C,C18*%
X72142857Y-124177142D02*
X72190476Y-124224761D01*
X72333333Y-124272380D01*
X72428571Y-124272380D01*
X72571428Y-124224761D01*
X72666666Y-124129523D01*
X72714285Y-124034285D01*
X72761904Y-123843809D01*
X72761904Y-123700952D01*
X72714285Y-123510476D01*
X72666666Y-123415238D01*
X72571428Y-123320000D01*
X72428571Y-123272380D01*
X72333333Y-123272380D01*
X72190476Y-123320000D01*
X72142857Y-123367619D01*
X71190476Y-124272380D02*
X71761904Y-124272380D01*
X71476190Y-124272380D02*
X71476190Y-123272380D01*
X71571428Y-123415238D01*
X71666666Y-123510476D01*
X71761904Y-123558095D01*
X70619047Y-123700952D02*
X70714285Y-123653333D01*
X70761904Y-123605714D01*
X70809523Y-123510476D01*
X70809523Y-123462857D01*
X70761904Y-123367619D01*
X70714285Y-123320000D01*
X70619047Y-123272380D01*
X70428571Y-123272380D01*
X70333333Y-123320000D01*
X70285714Y-123367619D01*
X70238095Y-123462857D01*
X70238095Y-123510476D01*
X70285714Y-123605714D01*
X70333333Y-123653333D01*
X70428571Y-123700952D01*
X70619047Y-123700952D01*
X70714285Y-123748571D01*
X70761904Y-123796190D01*
X70809523Y-123891428D01*
X70809523Y-124081904D01*
X70761904Y-124177142D01*
X70714285Y-124224761D01*
X70619047Y-124272380D01*
X70428571Y-124272380D01*
X70333333Y-124224761D01*
X70285714Y-124177142D01*
X70238095Y-124081904D01*
X70238095Y-123891428D01*
X70285714Y-123796190D01*
X70333333Y-123748571D01*
X70428571Y-123700952D01*
%TO.C,R1*%
X156666666Y-35202380D02*
X157000000Y-34726190D01*
X157238095Y-35202380D02*
X157238095Y-34202380D01*
X156857142Y-34202380D01*
X156761904Y-34250000D01*
X156714285Y-34297619D01*
X156666666Y-34392857D01*
X156666666Y-34535714D01*
X156714285Y-34630952D01*
X156761904Y-34678571D01*
X156857142Y-34726190D01*
X157238095Y-34726190D01*
X155714285Y-35202380D02*
X156285714Y-35202380D01*
X156000000Y-35202380D02*
X156000000Y-34202380D01*
X156095238Y-34345238D01*
X156190476Y-34440476D01*
X156285714Y-34488095D01*
%TO.C,R7*%
X206666666Y-169522380D02*
X207000000Y-169046190D01*
X207238095Y-169522380D02*
X207238095Y-168522380D01*
X206857142Y-168522380D01*
X206761904Y-168570000D01*
X206714285Y-168617619D01*
X206666666Y-168712857D01*
X206666666Y-168855714D01*
X206714285Y-168950952D01*
X206761904Y-168998571D01*
X206857142Y-169046190D01*
X207238095Y-169046190D01*
X206333333Y-168522380D02*
X205666666Y-168522380D01*
X206095238Y-169522380D01*
%TO.C,R16*%
X48142857Y-84522380D02*
X48476190Y-84046190D01*
X48714285Y-84522380D02*
X48714285Y-83522380D01*
X48333333Y-83522380D01*
X48238095Y-83570000D01*
X48190476Y-83617619D01*
X48142857Y-83712857D01*
X48142857Y-83855714D01*
X48190476Y-83950952D01*
X48238095Y-83998571D01*
X48333333Y-84046190D01*
X48714285Y-84046190D01*
X47190476Y-84522380D02*
X47761904Y-84522380D01*
X47476190Y-84522380D02*
X47476190Y-83522380D01*
X47571428Y-83665238D01*
X47666666Y-83760476D01*
X47761904Y-83808095D01*
X46333333Y-83522380D02*
X46523809Y-83522380D01*
X46619047Y-83570000D01*
X46666666Y-83617619D01*
X46761904Y-83760476D01*
X46809523Y-83950952D01*
X46809523Y-84331904D01*
X46761904Y-84427142D01*
X46714285Y-84474761D01*
X46619047Y-84522380D01*
X46428571Y-84522380D01*
X46333333Y-84474761D01*
X46285714Y-84427142D01*
X46238095Y-84331904D01*
X46238095Y-84093809D01*
X46285714Y-83998571D01*
X46333333Y-83950952D01*
X46428571Y-83903333D01*
X46619047Y-83903333D01*
X46714285Y-83950952D01*
X46761904Y-83998571D01*
X46809523Y-84093809D01*
%TO.C,R15*%
X85142857Y-103522380D02*
X85476190Y-103046190D01*
X85714285Y-103522380D02*
X85714285Y-102522380D01*
X85333333Y-102522380D01*
X85238095Y-102570000D01*
X85190476Y-102617619D01*
X85142857Y-102712857D01*
X85142857Y-102855714D01*
X85190476Y-102950952D01*
X85238095Y-102998571D01*
X85333333Y-103046190D01*
X85714285Y-103046190D01*
X84190476Y-103522380D02*
X84761904Y-103522380D01*
X84476190Y-103522380D02*
X84476190Y-102522380D01*
X84571428Y-102665238D01*
X84666666Y-102760476D01*
X84761904Y-102808095D01*
X83285714Y-102522380D02*
X83761904Y-102522380D01*
X83809523Y-102998571D01*
X83761904Y-102950952D01*
X83666666Y-102903333D01*
X83428571Y-102903333D01*
X83333333Y-102950952D01*
X83285714Y-102998571D01*
X83238095Y-103093809D01*
X83238095Y-103331904D01*
X83285714Y-103427142D01*
X83333333Y-103474761D01*
X83428571Y-103522380D01*
X83666666Y-103522380D01*
X83761904Y-103474761D01*
X83809523Y-103427142D01*
%TO.C,R21*%
X28402857Y-61822380D02*
X28736190Y-61346190D01*
X28974285Y-61822380D02*
X28974285Y-60822380D01*
X28593333Y-60822380D01*
X28498095Y-60870000D01*
X28450476Y-60917619D01*
X28402857Y-61012857D01*
X28402857Y-61155714D01*
X28450476Y-61250952D01*
X28498095Y-61298571D01*
X28593333Y-61346190D01*
X28974285Y-61346190D01*
X28021904Y-60917619D02*
X27974285Y-60870000D01*
X27879047Y-60822380D01*
X27640952Y-60822380D01*
X27545714Y-60870000D01*
X27498095Y-60917619D01*
X27450476Y-61012857D01*
X27450476Y-61108095D01*
X27498095Y-61250952D01*
X28069523Y-61822380D01*
X27450476Y-61822380D01*
X26498095Y-61822380D02*
X27069523Y-61822380D01*
X26783809Y-61822380D02*
X26783809Y-60822380D01*
X26879047Y-60965238D01*
X26974285Y-61060476D01*
X27069523Y-61108095D01*
%TO.C,C11*%
X135142857Y-198177142D02*
X135190476Y-198224761D01*
X135333333Y-198272380D01*
X135428571Y-198272380D01*
X135571428Y-198224761D01*
X135666666Y-198129523D01*
X135714285Y-198034285D01*
X135761904Y-197843809D01*
X135761904Y-197700952D01*
X135714285Y-197510476D01*
X135666666Y-197415238D01*
X135571428Y-197320000D01*
X135428571Y-197272380D01*
X135333333Y-197272380D01*
X135190476Y-197320000D01*
X135142857Y-197367619D01*
X134190476Y-198272380D02*
X134761904Y-198272380D01*
X134476190Y-198272380D02*
X134476190Y-197272380D01*
X134571428Y-197415238D01*
X134666666Y-197510476D01*
X134761904Y-197558095D01*
X133238095Y-198272380D02*
X133809523Y-198272380D01*
X133523809Y-198272380D02*
X133523809Y-197272380D01*
X133619047Y-197415238D01*
X133714285Y-197510476D01*
X133809523Y-197558095D01*
%TO.C,R2*%
X156416666Y-52702380D02*
X156750000Y-52226190D01*
X156988095Y-52702380D02*
X156988095Y-51702380D01*
X156607142Y-51702380D01*
X156511904Y-51750000D01*
X156464285Y-51797619D01*
X156416666Y-51892857D01*
X156416666Y-52035714D01*
X156464285Y-52130952D01*
X156511904Y-52178571D01*
X156607142Y-52226190D01*
X156988095Y-52226190D01*
X156035714Y-51797619D02*
X155988095Y-51750000D01*
X155892857Y-51702380D01*
X155654761Y-51702380D01*
X155559523Y-51750000D01*
X155511904Y-51797619D01*
X155464285Y-51892857D01*
X155464285Y-51988095D01*
X155511904Y-52130952D01*
X156083333Y-52702380D01*
X155464285Y-52702380D01*
%TO.C,R11*%
X134142857Y-151522380D02*
X134476190Y-151046190D01*
X134714285Y-151522380D02*
X134714285Y-150522380D01*
X134333333Y-150522380D01*
X134238095Y-150570000D01*
X134190476Y-150617619D01*
X134142857Y-150712857D01*
X134142857Y-150855714D01*
X134190476Y-150950952D01*
X134238095Y-150998571D01*
X134333333Y-151046190D01*
X134714285Y-151046190D01*
X133190476Y-151522380D02*
X133761904Y-151522380D01*
X133476190Y-151522380D02*
X133476190Y-150522380D01*
X133571428Y-150665238D01*
X133666666Y-150760476D01*
X133761904Y-150808095D01*
X132238095Y-151522380D02*
X132809523Y-151522380D01*
X132523809Y-151522380D02*
X132523809Y-150522380D01*
X132619047Y-150665238D01*
X132714285Y-150760476D01*
X132809523Y-150808095D01*
%TO.C,R5*%
X83166666Y-42522380D02*
X83500000Y-42046190D01*
X83738095Y-42522380D02*
X83738095Y-41522380D01*
X83357142Y-41522380D01*
X83261904Y-41570000D01*
X83214285Y-41617619D01*
X83166666Y-41712857D01*
X83166666Y-41855714D01*
X83214285Y-41950952D01*
X83261904Y-41998571D01*
X83357142Y-42046190D01*
X83738095Y-42046190D01*
X82261904Y-41522380D02*
X82738095Y-41522380D01*
X82785714Y-41998571D01*
X82738095Y-41950952D01*
X82642857Y-41903333D01*
X82404761Y-41903333D01*
X82309523Y-41950952D01*
X82261904Y-41998571D01*
X82214285Y-42093809D01*
X82214285Y-42331904D01*
X82261904Y-42427142D01*
X82309523Y-42474761D01*
X82404761Y-42522380D01*
X82642857Y-42522380D01*
X82738095Y-42474761D01*
X82785714Y-42427142D01*
%TO.C,R24*%
X186142857Y-38882380D02*
X186476190Y-38406190D01*
X186714285Y-38882380D02*
X186714285Y-37882380D01*
X186333333Y-37882380D01*
X186238095Y-37930000D01*
X186190476Y-37977619D01*
X186142857Y-38072857D01*
X186142857Y-38215714D01*
X186190476Y-38310952D01*
X186238095Y-38358571D01*
X186333333Y-38406190D01*
X186714285Y-38406190D01*
X185761904Y-37977619D02*
X185714285Y-37930000D01*
X185619047Y-37882380D01*
X185380952Y-37882380D01*
X185285714Y-37930000D01*
X185238095Y-37977619D01*
X185190476Y-38072857D01*
X185190476Y-38168095D01*
X185238095Y-38310952D01*
X185809523Y-38882380D01*
X185190476Y-38882380D01*
X184333333Y-38215714D02*
X184333333Y-38882380D01*
X184571428Y-37834761D02*
X184809523Y-38549047D01*
X184190476Y-38549047D01*
%TO.C,C16*%
X31142857Y-79177142D02*
X31190476Y-79224761D01*
X31333333Y-79272380D01*
X31428571Y-79272380D01*
X31571428Y-79224761D01*
X31666666Y-79129523D01*
X31714285Y-79034285D01*
X31761904Y-78843809D01*
X31761904Y-78700952D01*
X31714285Y-78510476D01*
X31666666Y-78415238D01*
X31571428Y-78320000D01*
X31428571Y-78272380D01*
X31333333Y-78272380D01*
X31190476Y-78320000D01*
X31142857Y-78367619D01*
X30190476Y-79272380D02*
X30761904Y-79272380D01*
X30476190Y-79272380D02*
X30476190Y-78272380D01*
X30571428Y-78415238D01*
X30666666Y-78510476D01*
X30761904Y-78558095D01*
X29333333Y-78272380D02*
X29523809Y-78272380D01*
X29619047Y-78320000D01*
X29666666Y-78367619D01*
X29761904Y-78510476D01*
X29809523Y-78700952D01*
X29809523Y-79081904D01*
X29761904Y-79177142D01*
X29714285Y-79224761D01*
X29619047Y-79272380D01*
X29428571Y-79272380D01*
X29333333Y-79224761D01*
X29285714Y-79177142D01*
X29238095Y-79081904D01*
X29238095Y-78843809D01*
X29285714Y-78748571D01*
X29333333Y-78700952D01*
X29428571Y-78653333D01*
X29619047Y-78653333D01*
X29714285Y-78700952D01*
X29761904Y-78748571D01*
X29809523Y-78843809D01*
%TO.C,U1*%
X166011904Y-27852380D02*
X166011904Y-28661904D01*
X165964285Y-28757142D01*
X165916666Y-28804761D01*
X165821428Y-28852380D01*
X165630952Y-28852380D01*
X165535714Y-28804761D01*
X165488095Y-28757142D01*
X165440476Y-28661904D01*
X165440476Y-27852380D01*
X164440476Y-28852380D02*
X165011904Y-28852380D01*
X164726190Y-28852380D02*
X164726190Y-27852380D01*
X164821428Y-27995238D01*
X164916666Y-28090476D01*
X165011904Y-28138095D01*
%TO.C,TP13*%
X42000000Y-73600000D02*
G75*
G03*
X42000000Y-73600000I-1500000J0D01*
G01*
%TO.C,TP21*%
X129500000Y-122425000D02*
G75*
G03*
X129500000Y-122425000I-1500000J0D01*
G01*
%TO.C,TP27*%
X85500000Y-199600000D02*
G75*
G03*
X85500000Y-199600000I-1500000J0D01*
G01*
%TO.C,TP22*%
X78500000Y-157000000D02*
G75*
G03*
X78500000Y-157000000I-1500000J0D01*
G01*
%TO.C,TP6*%
X40000000Y-122075000D02*
G75*
G03*
X40000000Y-122075000I-1500000J0D01*
G01*
D12*
%TO.C,D14*%
X22825000Y-180825000D02*
X22825000Y-179175000D01*
X22350000Y-179900000D02*
X22650000Y-179900000D01*
X22500000Y-179900000D02*
X22500000Y-180100000D01*
X22500000Y-180100000D02*
X22350000Y-179900000D01*
X22825000Y-179175000D02*
X21175000Y-179175000D01*
X22500000Y-180100000D02*
X22650000Y-179900000D01*
X21175000Y-179175000D02*
X21175000Y-180825000D01*
X21175000Y-180825000D02*
X22825000Y-180825000D01*
%TO.C,D6*%
X134825000Y-206325000D02*
X134825000Y-204675000D01*
X134500000Y-205400000D02*
X134500000Y-205600000D01*
X134500000Y-205600000D02*
X134650000Y-205400000D01*
X133175000Y-206325000D02*
X134825000Y-206325000D01*
X134500000Y-205600000D02*
X134350000Y-205400000D01*
X134825000Y-204675000D02*
X133175000Y-204675000D01*
X133175000Y-204675000D02*
X133175000Y-206325000D01*
X134350000Y-205400000D02*
X134650000Y-205400000D01*
D10*
%TO.C,TP14*%
X78500000Y-46700000D02*
G75*
G03*
X78500000Y-46700000I-1500000J0D01*
G01*
%TO.C,TP10*%
X214900000Y-43025000D02*
G75*
G03*
X214900000Y-43025000I-1500000J0D01*
G01*
%TO.C,TP1*%
X129500000Y-108025000D02*
G75*
G03*
X129500000Y-108025000I-1500000J0D01*
G01*
%TO.C,TP8*%
X118000000Y-164600000D02*
G75*
G03*
X118000000Y-164600000I-1500000J0D01*
G01*
%TO.C,TP18*%
X175000000Y-214900000D02*
G75*
G03*
X175000000Y-214900000I-1500000J0D01*
G01*
%TO.C,TP26*%
X30500000Y-204900000D02*
G75*
G03*
X30500000Y-204900000I-1500000J0D01*
G01*
%TO.C,TP16*%
X199700000Y-173425000D02*
G75*
G03*
X199700000Y-173425000I-1500000J0D01*
G01*
D12*
%TO.C,D12*%
X59350000Y-94800000D02*
X59350000Y-93150000D01*
X58875000Y-93875000D02*
X59175000Y-93875000D01*
X59350000Y-93150000D02*
X57700000Y-93150000D01*
X57700000Y-93150000D02*
X57700000Y-94800000D01*
X57700000Y-94800000D02*
X59350000Y-94800000D01*
X59025000Y-94075000D02*
X58875000Y-93875000D01*
X59025000Y-94075000D02*
X59175000Y-93875000D01*
X59025000Y-93875000D02*
X59025000Y-94075000D01*
D10*
%TO.C,TP23*%
X40000000Y-136475000D02*
G75*
G03*
X40000000Y-136475000I-1500000J0D01*
G01*
%TO.C,TP17*%
X153500000Y-186500000D02*
G75*
G03*
X153500000Y-186500000I-1500000J0D01*
G01*
D12*
%TO.C,D2*%
X65900000Y-33700000D02*
X66050000Y-33500000D01*
X65750000Y-33500000D02*
X66050000Y-33500000D01*
X66225000Y-32775000D02*
X64575000Y-32775000D01*
X65900000Y-33500000D02*
X65900000Y-33700000D01*
X64575000Y-32775000D02*
X64575000Y-34425000D01*
X65900000Y-33700000D02*
X65750000Y-33500000D01*
X66225000Y-34425000D02*
X66225000Y-32775000D01*
X64575000Y-34425000D02*
X66225000Y-34425000D01*
%TO.C,D4*%
X184500000Y-184400000D02*
X184500000Y-184600000D01*
X183175000Y-183675000D02*
X183175000Y-185325000D01*
X184825000Y-183675000D02*
X183175000Y-183675000D01*
X184825000Y-185325000D02*
X184825000Y-183675000D01*
X184500000Y-184600000D02*
X184350000Y-184400000D01*
X184500000Y-184600000D02*
X184650000Y-184400000D01*
X184350000Y-184400000D02*
X184650000Y-184400000D01*
X183175000Y-185325000D02*
X184825000Y-185325000D01*
D10*
%TO.C,TP11*%
X175000000Y-200500000D02*
G75*
G03*
X175000000Y-200500000I-1500000J0D01*
G01*
%TO.C,TP25*%
X42000000Y-88000000D02*
G75*
G03*
X42000000Y-88000000I-1500000J0D01*
G01*
%TO.C,TP15*%
X214900000Y-57425000D02*
G75*
G03*
X214900000Y-57425000I-1500000J0D01*
G01*
%TO.C,TP3*%
X153500000Y-172100000D02*
G75*
G03*
X153500000Y-172100000I-1500000J0D01*
G01*
D12*
%TO.C,D9*%
X114500000Y-130600000D02*
X114350000Y-130400000D01*
X114500000Y-130600000D02*
X114650000Y-130400000D01*
X114825000Y-131325000D02*
X114825000Y-129675000D01*
X114500000Y-130400000D02*
X114500000Y-130600000D01*
X113175000Y-129675000D02*
X113175000Y-131325000D01*
X114350000Y-130400000D02*
X114650000Y-130400000D01*
X114825000Y-129675000D02*
X113175000Y-129675000D01*
X113175000Y-131325000D02*
X114825000Y-131325000D01*
D10*
%TO.C,TP5*%
X79500000Y-93100000D02*
G75*
G03*
X79500000Y-93100000I-1500000J0D01*
G01*
D12*
%TO.C,D11*%
X29000000Y-133600000D02*
X28850000Y-133400000D01*
X29000000Y-133600000D02*
X29150000Y-133400000D01*
X29325000Y-134325000D02*
X29325000Y-132675000D01*
X28850000Y-133400000D02*
X29150000Y-133400000D01*
X27675000Y-134325000D02*
X29325000Y-134325000D01*
X29325000Y-132675000D02*
X27675000Y-132675000D01*
X29000000Y-133400000D02*
X29000000Y-133600000D01*
X27675000Y-132675000D02*
X27675000Y-134325000D01*
%TO.C,D7*%
X95675000Y-209675000D02*
X95675000Y-211325000D01*
X97000000Y-210400000D02*
X97000000Y-210600000D01*
X97325000Y-211325000D02*
X97325000Y-209675000D01*
X97000000Y-210600000D02*
X97150000Y-210400000D01*
X96850000Y-210400000D02*
X97150000Y-210400000D01*
X95675000Y-211325000D02*
X97325000Y-211325000D01*
X97000000Y-210600000D02*
X96850000Y-210400000D01*
X97325000Y-209675000D02*
X95675000Y-209675000D01*
D10*
%TO.C,TP7*%
X78500000Y-142600000D02*
G75*
G03*
X78500000Y-142600000I-1500000J0D01*
G01*
%TO.C,TP28*%
X129500000Y-155400000D02*
G75*
G03*
X129500000Y-155400000I-1500000J0D01*
G01*
%TO.C,TP24*%
X79500000Y-107500000D02*
G75*
G03*
X79500000Y-107500000I-1500000J0D01*
G01*
%TO.C,TP2*%
X30500000Y-190500000D02*
G75*
G03*
X30500000Y-190500000I-1500000J0D01*
G01*
%TO.C,TP12*%
X199700000Y-159025000D02*
G75*
G03*
X199700000Y-159025000I-1500000J0D01*
G01*
D12*
%TO.C,D13*%
X29175000Y-86325000D02*
X30825000Y-86325000D01*
X29175000Y-84675000D02*
X29175000Y-86325000D01*
X30350000Y-85400000D02*
X30650000Y-85400000D01*
X30825000Y-84675000D02*
X29175000Y-84675000D01*
X30500000Y-85400000D02*
X30500000Y-85600000D01*
X30825000Y-86325000D02*
X30825000Y-84675000D01*
X30500000Y-85600000D02*
X30650000Y-85400000D01*
X30500000Y-85600000D02*
X30350000Y-85400000D01*
D10*
%TO.C,TP19*%
X85500000Y-214000000D02*
G75*
G03*
X85500000Y-214000000I-1500000J0D01*
G01*
D12*
%TO.C,D8*%
X93675000Y-161175000D02*
X93675000Y-162825000D01*
X94850000Y-161900000D02*
X95150000Y-161900000D01*
X95325000Y-161175000D02*
X93675000Y-161175000D01*
X93675000Y-162825000D02*
X95325000Y-162825000D01*
X95000000Y-161900000D02*
X95000000Y-162100000D01*
X95000000Y-162100000D02*
X94850000Y-161900000D01*
X95325000Y-162825000D02*
X95325000Y-161175000D01*
X95000000Y-162100000D02*
X95150000Y-161900000D01*
D10*
%TO.C,TP9*%
X129500000Y-141000000D02*
G75*
G03*
X129500000Y-141000000I-1500000J0D01*
G01*
%TO.C,TP4*%
X78500000Y-32300000D02*
G75*
G03*
X78500000Y-32300000I-1500000J0D01*
G01*
D12*
%TO.C,D10*%
X72350000Y-131300000D02*
X72350000Y-129650000D01*
X72025000Y-130375000D02*
X72025000Y-130575000D01*
X72025000Y-130575000D02*
X71875000Y-130375000D01*
X70700000Y-129650000D02*
X70700000Y-131300000D01*
X72350000Y-129650000D02*
X70700000Y-129650000D01*
X70700000Y-131300000D02*
X72350000Y-131300000D01*
X72025000Y-130575000D02*
X72175000Y-130375000D01*
X71875000Y-130375000D02*
X72175000Y-130375000D01*
%TO.C,D5*%
X140675000Y-165175000D02*
X140675000Y-166825000D01*
X142000000Y-166100000D02*
X141850000Y-165900000D01*
X141850000Y-165900000D02*
X142150000Y-165900000D01*
X142325000Y-166825000D02*
X142325000Y-165175000D01*
X142325000Y-165175000D02*
X140675000Y-165175000D01*
X140675000Y-166825000D02*
X142325000Y-166825000D01*
X142000000Y-166100000D02*
X142150000Y-165900000D01*
X142000000Y-165900000D02*
X142000000Y-166100000D01*
%TO.C,D3*%
X184975000Y-114025000D02*
X186625000Y-114025000D01*
X186625000Y-112375000D02*
X184975000Y-112375000D01*
X184975000Y-112375000D02*
X184975000Y-114025000D01*
X186300000Y-113300000D02*
X186150000Y-113100000D01*
X186300000Y-113300000D02*
X186450000Y-113100000D01*
X186300000Y-113100000D02*
X186300000Y-113300000D01*
X186625000Y-114025000D02*
X186625000Y-112375000D01*
X186150000Y-113100000D02*
X186450000Y-113100000D01*
D10*
%TO.C,TP20*%
X118000000Y-179000000D02*
G75*
G03*
X118000000Y-179000000I-1500000J0D01*
G01*
D12*
%TO.C,R12*%
X133737258Y-119522500D02*
X133262742Y-119522500D01*
X133737258Y-118477500D02*
X133262742Y-118477500D01*
%TO.C,J1*%
X85300000Y-25270000D02*
X85300000Y-23270000D01*
X85300000Y-19470000D02*
X94700000Y-19470000D01*
D13*
X85530000Y-20000000D02*
X94470000Y-20000000D01*
D12*
X94700000Y-21370000D02*
X94700000Y-19470000D01*
X85300000Y-21370000D02*
X85300000Y-19470000D01*
X94700000Y-25270000D02*
X94700000Y-23270000D01*
%TO.C,C13*%
X186261252Y-107735000D02*
X185738748Y-107735000D01*
X186261252Y-106265000D02*
X185738748Y-106265000D01*
%TO.C,R23*%
X187737258Y-30477500D02*
X187262742Y-30477500D01*
X187737258Y-31522500D02*
X187262742Y-31522500D01*
%TO.C,R8*%
X157237258Y-184022500D02*
X156762742Y-184022500D01*
X157237258Y-182977500D02*
X156762742Y-182977500D01*
%TO.C,R14*%
X44737258Y-133477500D02*
X44262742Y-133477500D01*
X44737258Y-134522500D02*
X44262742Y-134522500D01*
%TO.C,C5*%
X195738748Y-34265000D02*
X196261252Y-34265000D01*
X195738748Y-35735000D02*
X196261252Y-35735000D01*
%TO.C,R22*%
X156737258Y-66022500D02*
X156262742Y-66022500D01*
X156737258Y-64977500D02*
X156262742Y-64977500D01*
%TO.C,C8*%
X156511252Y-30765000D02*
X155988748Y-30765000D01*
X156511252Y-32235000D02*
X155988748Y-32235000D01*
%TO.C,R20*%
X156012742Y-54977500D02*
X156487258Y-54977500D01*
X156012742Y-56022500D02*
X156487258Y-56022500D01*
%TO.C,R13*%
X84737258Y-154522500D02*
X84262742Y-154522500D01*
X84737258Y-153477500D02*
X84262742Y-153477500D01*
%TO.C,C10*%
X142261252Y-159265000D02*
X141738748Y-159265000D01*
X142261252Y-160735000D02*
X141738748Y-160735000D01*
%TO.C,R9*%
X181237258Y-211477500D02*
X180762742Y-211477500D01*
X181237258Y-212522500D02*
X180762742Y-212522500D01*
%TO.C,C1*%
X156511252Y-45235000D02*
X155988748Y-45235000D01*
X156511252Y-43765000D02*
X155988748Y-43765000D01*
%TO.C,U3*%
X191500000Y-35060000D02*
X192300000Y-35060000D01*
X191500000Y-31940000D02*
X192300000Y-31940000D01*
X191500000Y-35060000D02*
X189700000Y-35060000D01*
X191500000Y-31940000D02*
X190700000Y-31940000D01*
%TO.C,C20*%
X96761252Y-157235000D02*
X96238748Y-157235000D01*
X96761252Y-155765000D02*
X96238748Y-155765000D01*
%TO.C,R10*%
X89237258Y-211522500D02*
X88762742Y-211522500D01*
X89237258Y-210477500D02*
X88762742Y-210477500D01*
%TO.C,R26*%
X156012742Y-70977500D02*
X156487258Y-70977500D01*
X156012742Y-72022500D02*
X156487258Y-72022500D01*
%TO.C,C3*%
X156511252Y-61735000D02*
X155988748Y-61735000D01*
X156511252Y-60265000D02*
X155988748Y-60265000D01*
%TO.C,G\u002A\u002A\u002A*%
G36*
X83027644Y-21952081D02*
G01*
X83041907Y-21959193D01*
X83055086Y-21971691D01*
X83065217Y-21990938D01*
X83073166Y-22019332D01*
X83079803Y-22059270D01*
X83085997Y-22113150D01*
X83087781Y-22130722D01*
X83101614Y-22267481D01*
X83113785Y-22389068D01*
X83124355Y-22496451D01*
X83133381Y-22590595D01*
X83140925Y-22672466D01*
X83147045Y-22743031D01*
X83151802Y-22803254D01*
X83155254Y-22854103D01*
X83157460Y-22896544D01*
X83158482Y-22931541D01*
X83158377Y-22960062D01*
X83157206Y-22983072D01*
X83155028Y-23001538D01*
X83151902Y-23016425D01*
X83147889Y-23028699D01*
X83143047Y-23039326D01*
X83136485Y-23050668D01*
X83106375Y-23084116D01*
X83068049Y-23106913D01*
X83024769Y-23118875D01*
X82979800Y-23119820D01*
X82936406Y-23109566D01*
X82897849Y-23087931D01*
X82867395Y-23054731D01*
X82854642Y-23030789D01*
X82844176Y-22996653D01*
X82839038Y-22954646D01*
X82838944Y-22902149D01*
X82843608Y-22836548D01*
X82853036Y-22737647D01*
X82863807Y-22625107D01*
X82874028Y-22518803D01*
X82883589Y-22419851D01*
X82892383Y-22329366D01*
X82900299Y-22248464D01*
X82907228Y-22178258D01*
X82913061Y-22119865D01*
X82917689Y-22074400D01*
X82921003Y-22042977D01*
X82922893Y-22026712D01*
X82929824Y-21999663D01*
X82951036Y-21967462D01*
X82972231Y-21950809D01*
X82997093Y-21944893D01*
X83027644Y-21952081D01*
G37*
G36*
X81320162Y-21237704D02*
G01*
X81325123Y-21211174D01*
X81344234Y-21156727D01*
X81372934Y-21105786D01*
X81408045Y-21064609D01*
X81425319Y-21049224D01*
X81453938Y-21027314D01*
X81482204Y-21012031D01*
X81516699Y-20999429D01*
X81520848Y-20998533D01*
X81532043Y-20997282D01*
X81549725Y-20996147D01*
X81574509Y-20995125D01*
X81607011Y-20994212D01*
X81647847Y-20993405D01*
X81697634Y-20992700D01*
X81756988Y-20992093D01*
X81826524Y-20991581D01*
X81906860Y-20991161D01*
X81998611Y-20990827D01*
X82102394Y-20990578D01*
X82218824Y-20990409D01*
X82348519Y-20990316D01*
X82492093Y-20990296D01*
X82650164Y-20990346D01*
X82823347Y-20990462D01*
X83012258Y-20990640D01*
X84475128Y-20992182D01*
X84513680Y-21009992D01*
X84549498Y-21030962D01*
X84589743Y-21063639D01*
X84624852Y-21101160D01*
X84649616Y-21138595D01*
X84652728Y-21145025D01*
X84673039Y-21203279D01*
X84681093Y-21262884D01*
X84676141Y-21318752D01*
X84675066Y-21323486D01*
X84671482Y-21337814D01*
X84667059Y-21352180D01*
X84661059Y-21367993D01*
X84652740Y-21386659D01*
X84641361Y-21409586D01*
X84626181Y-21438182D01*
X84606460Y-21473853D01*
X84581457Y-21518007D01*
X84550431Y-21572053D01*
X84512642Y-21637396D01*
X84467348Y-21715444D01*
X84434085Y-21772730D01*
X84397847Y-21835172D01*
X84363540Y-21894319D01*
X84332421Y-21948002D01*
X84305746Y-21994055D01*
X84284771Y-22030310D01*
X84270752Y-22054601D01*
X84269968Y-22055965D01*
X84193043Y-22189523D01*
X84112815Y-22328618D01*
X84027635Y-22476106D01*
X83935853Y-22634846D01*
X83898486Y-22699451D01*
X83828305Y-22820842D01*
X83759671Y-22939625D01*
X83693188Y-23054751D01*
X83629461Y-23165171D01*
X83569093Y-23269836D01*
X83512690Y-23367698D01*
X83460854Y-23457709D01*
X83414191Y-23538820D01*
X83373304Y-23609983D01*
X83338799Y-23670148D01*
X83311278Y-23718267D01*
X83291347Y-23753292D01*
X83287050Y-23760831D01*
X83247684Y-23824861D01*
X83210367Y-23874968D01*
X83173150Y-23912851D01*
X83134087Y-23940206D01*
X83091231Y-23958732D01*
X83042634Y-23970125D01*
X83022073Y-23972625D01*
X82957404Y-23970271D01*
X82895436Y-23953179D01*
X82839136Y-23922424D01*
X82791473Y-23879082D01*
X82787176Y-23873740D01*
X82778903Y-23862227D01*
X82767966Y-23845752D01*
X82753912Y-23823546D01*
X82736287Y-23794839D01*
X82714637Y-23758861D01*
X82688508Y-23714845D01*
X82657448Y-23662020D01*
X82621003Y-23599618D01*
X82578719Y-23526869D01*
X82530142Y-23443004D01*
X82474819Y-23347254D01*
X82412297Y-23238849D01*
X82342122Y-23117021D01*
X82309980Y-23061202D01*
X82240385Y-22940399D01*
X82174448Y-22826027D01*
X82113287Y-22720021D01*
X82058019Y-22624321D01*
X82009762Y-22540863D01*
X81992021Y-22510204D01*
X81951338Y-22439880D01*
X81915224Y-22377422D01*
X81881558Y-22319158D01*
X81848221Y-22261416D01*
X81813092Y-22200524D01*
X81774050Y-22132810D01*
X81728975Y-22054601D01*
X81711168Y-22023713D01*
X81675868Y-21962526D01*
X81639831Y-21900120D01*
X81605280Y-21840341D01*
X81574438Y-21787035D01*
X81549527Y-21744048D01*
X81503022Y-21663821D01*
X81459511Y-21588394D01*
X81423113Y-21524579D01*
X81393236Y-21471069D01*
X81369289Y-21426559D01*
X81350679Y-21389742D01*
X81336816Y-21359312D01*
X81327106Y-21333963D01*
X81320959Y-21312388D01*
X81317783Y-21293281D01*
X81316986Y-21275335D01*
X81317239Y-21270711D01*
X81547844Y-21270711D01*
X81555669Y-21296386D01*
X81571947Y-21330806D01*
X81597146Y-21376287D01*
X81613035Y-21403870D01*
X81639142Y-21449158D01*
X81668904Y-21500758D01*
X81699757Y-21554226D01*
X81729139Y-21605116D01*
X81754345Y-21648795D01*
X81781142Y-21695299D01*
X81805583Y-21737779D01*
X81825726Y-21772861D01*
X81839629Y-21797169D01*
X81842823Y-21802774D01*
X81872232Y-21854203D01*
X81906827Y-21914389D01*
X81947379Y-21984667D01*
X81994659Y-22066373D01*
X82049436Y-22160843D01*
X82050393Y-22162491D01*
X82083698Y-22219978D01*
X82121957Y-22286158D01*
X82162099Y-22355711D01*
X82201053Y-22423316D01*
X82235750Y-22483655D01*
X82247536Y-22504167D01*
X82277572Y-22556345D01*
X82306680Y-22606786D01*
X82333062Y-22652378D01*
X82354917Y-22690010D01*
X82370447Y-22716570D01*
X82376230Y-22726416D01*
X82396714Y-22761485D01*
X82421740Y-22804532D01*
X82448665Y-22851009D01*
X82474849Y-22896365D01*
X82481405Y-22907740D01*
X82504831Y-22948365D01*
X82534190Y-22999245D01*
X82567820Y-23057504D01*
X82604061Y-23120264D01*
X82641251Y-23184649D01*
X82677729Y-23247780D01*
X82690493Y-23269875D01*
X82727353Y-23333767D01*
X82764280Y-23397890D01*
X82799624Y-23459370D01*
X82831730Y-23515331D01*
X82858949Y-23562898D01*
X82879628Y-23599196D01*
X82892886Y-23622329D01*
X82915595Y-23660927D01*
X82935795Y-23694026D01*
X82951681Y-23718694D01*
X82961446Y-23731998D01*
X82964395Y-23734995D01*
X82988669Y-23748371D01*
X83014855Y-23747372D01*
X83038107Y-23731998D01*
X83040989Y-23728201D01*
X83052473Y-23710631D01*
X83070374Y-23681626D01*
X83093567Y-23643067D01*
X83120925Y-23596834D01*
X83151324Y-23544807D01*
X83183637Y-23488868D01*
X83217134Y-23430609D01*
X83262018Y-23352673D01*
X83310037Y-23269408D01*
X83358440Y-23185578D01*
X83404476Y-23105952D01*
X83445394Y-23035296D01*
X83465823Y-23000029D01*
X83496295Y-22947367D01*
X83533344Y-22883291D01*
X83576120Y-22809272D01*
X83623775Y-22726782D01*
X83675459Y-22637291D01*
X83730321Y-22542271D01*
X83787512Y-22443194D01*
X83846183Y-22341529D01*
X83905484Y-22238750D01*
X83964564Y-22136326D01*
X83972294Y-22122924D01*
X84028933Y-22024723D01*
X84084073Y-21929123D01*
X84137047Y-21837281D01*
X84187190Y-21750352D01*
X84233833Y-21669492D01*
X84276311Y-21595857D01*
X84313957Y-21530602D01*
X84346104Y-21474883D01*
X84372085Y-21429856D01*
X84391234Y-21396676D01*
X84402883Y-21376500D01*
X84423378Y-21339999D01*
X84441627Y-21303294D01*
X84451266Y-21275822D01*
X84452759Y-21255272D01*
X84446570Y-21239331D01*
X84433164Y-21225690D01*
X84411631Y-21208752D01*
X81588369Y-21208752D01*
X81566835Y-21225690D01*
X81555690Y-21236322D01*
X81548006Y-21251463D01*
X81547844Y-21270711D01*
X81317239Y-21270711D01*
X81317976Y-21257245D01*
X81320162Y-21237704D01*
G37*
G36*
X83030761Y-21474512D02*
G01*
X83070315Y-21487027D01*
X83089313Y-21498175D01*
X83123274Y-21530070D01*
X83147902Y-21570286D01*
X83161031Y-21614692D01*
X83160496Y-21659154D01*
X83153888Y-21684113D01*
X83131366Y-21727523D01*
X83098624Y-21761481D01*
X83058358Y-21784674D01*
X83013264Y-21795790D01*
X82966039Y-21793516D01*
X82919381Y-21776538D01*
X82885025Y-21752013D01*
X82855425Y-21715411D01*
X82838036Y-21673445D01*
X82832753Y-21628933D01*
X82839467Y-21584691D01*
X82858073Y-21543540D01*
X82888464Y-21508295D01*
X82930534Y-21481776D01*
X82945493Y-21476512D01*
X82986719Y-21470915D01*
X83030761Y-21474512D01*
G37*
%TO.C,C19*%
X30261252Y-127735000D02*
X29738748Y-127735000D01*
X30261252Y-126265000D02*
X29738748Y-126265000D01*
%TO.C,C9*%
X156511252Y-29735000D02*
X155988748Y-29735000D01*
X156511252Y-28265000D02*
X155988748Y-28265000D01*
%TO.C,C2*%
X156511252Y-47735000D02*
X155988748Y-47735000D01*
X156511252Y-46265000D02*
X155988748Y-46265000D01*
%TO.C,C6*%
X195738748Y-31515000D02*
X196261252Y-31515000D01*
X195738748Y-32985000D02*
X196261252Y-32985000D01*
%TO.C,U4*%
X169110000Y-61495000D02*
X170925000Y-61495000D01*
X165250000Y-71760000D02*
X169110000Y-71760000D01*
X169110000Y-71760000D02*
X169110000Y-71505000D01*
X161390000Y-71760000D02*
X161390000Y-71505000D01*
X165250000Y-61240000D02*
X169110000Y-61240000D01*
X165250000Y-71760000D02*
X161390000Y-71760000D01*
X165250000Y-61240000D02*
X161390000Y-61240000D01*
X161390000Y-61240000D02*
X161390000Y-61495000D01*
X169110000Y-61240000D02*
X169110000Y-61495000D01*
%TO.C,R18*%
X156737258Y-48477500D02*
X156262742Y-48477500D01*
X156737258Y-49522500D02*
X156262742Y-49522500D01*
%TO.C,C7*%
X189265000Y-37988748D02*
X189265000Y-38511252D01*
X190735000Y-37988748D02*
X190735000Y-38511252D01*
%TO.C,U2*%
X169110000Y-45240000D02*
X169110000Y-45495000D01*
X165250000Y-45240000D02*
X161390000Y-45240000D01*
X169110000Y-55760000D02*
X169110000Y-55505000D01*
X165250000Y-55760000D02*
X169110000Y-55760000D01*
X161390000Y-55760000D02*
X161390000Y-55505000D01*
X165250000Y-45240000D02*
X169110000Y-45240000D01*
X161390000Y-45240000D02*
X161390000Y-45495000D01*
X165250000Y-55760000D02*
X161390000Y-55760000D01*
X169110000Y-45495000D02*
X170925000Y-45495000D01*
%TO.C,D1*%
X188750000Y-35500000D02*
X184850000Y-35500000D01*
X188750000Y-33500000D02*
X188750000Y-35500000D01*
X188750000Y-33500000D02*
X184850000Y-33500000D01*
%TO.C,P1*%
X22700000Y-64700000D02*
X22700000Y-75300000D01*
D13*
X20000000Y-74120000D02*
X20000000Y-65880000D01*
D12*
X27550000Y-70000000D02*
X27550000Y-65875000D01*
X27525000Y-65875000D02*
X26550000Y-65875000D01*
X26550000Y-65875000D02*
X15360000Y-65875000D01*
X27550000Y-70000000D02*
X27550000Y-74100000D01*
D13*
X21560000Y-74120000D02*
X21560000Y-65880000D01*
D12*
X15360000Y-65875000D02*
X15360000Y-74125000D01*
X26600000Y-74125000D02*
X15360000Y-74125000D01*
X27550000Y-74125000D02*
X26600000Y-74125000D01*
X27550000Y-74100000D02*
X27550000Y-74125000D01*
%TO.C,C14*%
X65261252Y-28265000D02*
X64738748Y-28265000D01*
X65261252Y-29735000D02*
X64738748Y-29735000D01*
%TO.C,C17*%
X59261252Y-87265000D02*
X58738748Y-87265000D01*
X59261252Y-88735000D02*
X58738748Y-88735000D01*
%TO.C,R3*%
X156262742Y-40022500D02*
X156737258Y-40022500D01*
X156262742Y-38977500D02*
X156737258Y-38977500D01*
%TO.C,G\u002A\u002A\u002A*%
G36*
X21237704Y-64679838D02*
G01*
X21211174Y-64674877D01*
X21156727Y-64655766D01*
X21105786Y-64627066D01*
X21064609Y-64591955D01*
X21049224Y-64574681D01*
X21027314Y-64546062D01*
X21012031Y-64517796D01*
X20999429Y-64483301D01*
X20998533Y-64479152D01*
X20997282Y-64467957D01*
X20996147Y-64450275D01*
X20995125Y-64425491D01*
X20994736Y-64411631D01*
X21208752Y-64411631D01*
X21225690Y-64433165D01*
X21236322Y-64444310D01*
X21251463Y-64451994D01*
X21270711Y-64452156D01*
X21296386Y-64444331D01*
X21330806Y-64428053D01*
X21376287Y-64402854D01*
X21403870Y-64386965D01*
X21449158Y-64360858D01*
X21500758Y-64331096D01*
X21554226Y-64300243D01*
X21605116Y-64270861D01*
X21648795Y-64245655D01*
X21695299Y-64218858D01*
X21737779Y-64194417D01*
X21772861Y-64174274D01*
X21797169Y-64160371D01*
X21802774Y-64157177D01*
X21854203Y-64127768D01*
X21914389Y-64093173D01*
X21984667Y-64052621D01*
X22066373Y-64005341D01*
X22160843Y-63950564D01*
X22162491Y-63949607D01*
X22219978Y-63916302D01*
X22286158Y-63878043D01*
X22355711Y-63837901D01*
X22423316Y-63798947D01*
X22483655Y-63764250D01*
X22504167Y-63752464D01*
X22556345Y-63722428D01*
X22606786Y-63693320D01*
X22652378Y-63666938D01*
X22690010Y-63645083D01*
X22716570Y-63629553D01*
X22726416Y-63623770D01*
X22761485Y-63603286D01*
X22804532Y-63578260D01*
X22851009Y-63551335D01*
X22896365Y-63525151D01*
X22907740Y-63518595D01*
X22948365Y-63495169D01*
X22999245Y-63465810D01*
X23057504Y-63432180D01*
X23120264Y-63395939D01*
X23184649Y-63358749D01*
X23247780Y-63322271D01*
X23269875Y-63309507D01*
X23333767Y-63272647D01*
X23397890Y-63235720D01*
X23459370Y-63200376D01*
X23515331Y-63168270D01*
X23562898Y-63141051D01*
X23599196Y-63120372D01*
X23622329Y-63107114D01*
X23660927Y-63084405D01*
X23694026Y-63064205D01*
X23718694Y-63048319D01*
X23731998Y-63038554D01*
X23734995Y-63035605D01*
X23748371Y-63011331D01*
X23747372Y-62985145D01*
X23731998Y-62961893D01*
X23728201Y-62959011D01*
X23710631Y-62947527D01*
X23681626Y-62929626D01*
X23643067Y-62906433D01*
X23596834Y-62879075D01*
X23544807Y-62848676D01*
X23488868Y-62816363D01*
X23430609Y-62782866D01*
X23352673Y-62737982D01*
X23269408Y-62689963D01*
X23185578Y-62641560D01*
X23105952Y-62595524D01*
X23035296Y-62554606D01*
X23000029Y-62534177D01*
X22947367Y-62503705D01*
X22883291Y-62466656D01*
X22809272Y-62423880D01*
X22726782Y-62376225D01*
X22637291Y-62324541D01*
X22542271Y-62269679D01*
X22443194Y-62212488D01*
X22341529Y-62153817D01*
X22238750Y-62094516D01*
X22136326Y-62035436D01*
X22122924Y-62027706D01*
X22024723Y-61971067D01*
X21929123Y-61915927D01*
X21837281Y-61862953D01*
X21750352Y-61812810D01*
X21669492Y-61766167D01*
X21595857Y-61723689D01*
X21530602Y-61686043D01*
X21474883Y-61653896D01*
X21429856Y-61627915D01*
X21396676Y-61608766D01*
X21376500Y-61597117D01*
X21339999Y-61576622D01*
X21303294Y-61558373D01*
X21275822Y-61548734D01*
X21255272Y-61547241D01*
X21239331Y-61553430D01*
X21225690Y-61566836D01*
X21208752Y-61588369D01*
X21208752Y-64411631D01*
X20994736Y-64411631D01*
X20994212Y-64392989D01*
X20993405Y-64352153D01*
X20992700Y-64302366D01*
X20992093Y-64243012D01*
X20991581Y-64173476D01*
X20991161Y-64093140D01*
X20990827Y-64001389D01*
X20990578Y-63897606D01*
X20990409Y-63781176D01*
X20990316Y-63651481D01*
X20990296Y-63507907D01*
X20990346Y-63349836D01*
X20990462Y-63176653D01*
X20990640Y-62987742D01*
X20992182Y-61524872D01*
X21009992Y-61486320D01*
X21030962Y-61450502D01*
X21063639Y-61410257D01*
X21101160Y-61375148D01*
X21138595Y-61350384D01*
X21145025Y-61347272D01*
X21203279Y-61326961D01*
X21262884Y-61318907D01*
X21318752Y-61323859D01*
X21323486Y-61324934D01*
X21337814Y-61328518D01*
X21352180Y-61332941D01*
X21367993Y-61338941D01*
X21386659Y-61347260D01*
X21409586Y-61358639D01*
X21438182Y-61373819D01*
X21473853Y-61393540D01*
X21518007Y-61418543D01*
X21572053Y-61449569D01*
X21637396Y-61487358D01*
X21715444Y-61532652D01*
X21772730Y-61565915D01*
X21835172Y-61602153D01*
X21894319Y-61636460D01*
X21948002Y-61667579D01*
X21994055Y-61694254D01*
X22030310Y-61715229D01*
X22054601Y-61729248D01*
X22055965Y-61730032D01*
X22189523Y-61806957D01*
X22328618Y-61887185D01*
X22476106Y-61972365D01*
X22634846Y-62064147D01*
X22699451Y-62101514D01*
X22820842Y-62171695D01*
X22939625Y-62240329D01*
X23054751Y-62306812D01*
X23165171Y-62370539D01*
X23269836Y-62430907D01*
X23367698Y-62487310D01*
X23457709Y-62539146D01*
X23538820Y-62585809D01*
X23609983Y-62626696D01*
X23670148Y-62661201D01*
X23718267Y-62688722D01*
X23753292Y-62708653D01*
X23760831Y-62712950D01*
X23824861Y-62752316D01*
X23874968Y-62789633D01*
X23912851Y-62826850D01*
X23940206Y-62865913D01*
X23958732Y-62908769D01*
X23970125Y-62957366D01*
X23972625Y-62977927D01*
X23970271Y-63042596D01*
X23953179Y-63104564D01*
X23922424Y-63160864D01*
X23879082Y-63208527D01*
X23873740Y-63212824D01*
X23862227Y-63221097D01*
X23845752Y-63232034D01*
X23823546Y-63246088D01*
X23794839Y-63263713D01*
X23758861Y-63285363D01*
X23714845Y-63311492D01*
X23662020Y-63342552D01*
X23599618Y-63378997D01*
X23526869Y-63421281D01*
X23443004Y-63469858D01*
X23347254Y-63525181D01*
X23238849Y-63587703D01*
X23117021Y-63657878D01*
X23061202Y-63690020D01*
X22940399Y-63759615D01*
X22826027Y-63825552D01*
X22720021Y-63886713D01*
X22624321Y-63941981D01*
X22540863Y-63990238D01*
X22510204Y-64007979D01*
X22439880Y-64048662D01*
X22377422Y-64084776D01*
X22319158Y-64118442D01*
X22261416Y-64151779D01*
X22200524Y-64186908D01*
X22132810Y-64225950D01*
X22054601Y-64271025D01*
X22023713Y-64288832D01*
X21962526Y-64324132D01*
X21900120Y-64360169D01*
X21840341Y-64394720D01*
X21787035Y-64425562D01*
X21744048Y-64450473D01*
X21663821Y-64496978D01*
X21588394Y-64540489D01*
X21524579Y-64576887D01*
X21471069Y-64606764D01*
X21426559Y-64630711D01*
X21389742Y-64649321D01*
X21359312Y-64663184D01*
X21333963Y-64672894D01*
X21312388Y-64679041D01*
X21293281Y-64682217D01*
X21275335Y-64683014D01*
X21270711Y-64682761D01*
X21257245Y-64682024D01*
X21237704Y-64679838D01*
G37*
G36*
X21659154Y-62839504D02*
G01*
X21684113Y-62846112D01*
X21727523Y-62868634D01*
X21761481Y-62901376D01*
X21784674Y-62941642D01*
X21795790Y-62986736D01*
X21793516Y-63033961D01*
X21776538Y-63080619D01*
X21752013Y-63114975D01*
X21715411Y-63144575D01*
X21673445Y-63161964D01*
X21628933Y-63167247D01*
X21584691Y-63160533D01*
X21543540Y-63141927D01*
X21508295Y-63111536D01*
X21481776Y-63069466D01*
X21476512Y-63054507D01*
X21470915Y-63013281D01*
X21474512Y-62969239D01*
X21487027Y-62929685D01*
X21498175Y-62910687D01*
X21530070Y-62876726D01*
X21570286Y-62852098D01*
X21614692Y-62838969D01*
X21659154Y-62839504D01*
G37*
G36*
X22960062Y-62841623D02*
G01*
X22983072Y-62842794D01*
X23001538Y-62844972D01*
X23016425Y-62848098D01*
X23028699Y-62852111D01*
X23039326Y-62856953D01*
X23050668Y-62863515D01*
X23084116Y-62893625D01*
X23106913Y-62931951D01*
X23118875Y-62975231D01*
X23119820Y-63020200D01*
X23109566Y-63063594D01*
X23087931Y-63102151D01*
X23054731Y-63132605D01*
X23030789Y-63145358D01*
X22996653Y-63155824D01*
X22954646Y-63160962D01*
X22902149Y-63161056D01*
X22836548Y-63156392D01*
X22737647Y-63146964D01*
X22625107Y-63136193D01*
X22518803Y-63125972D01*
X22419851Y-63116411D01*
X22329366Y-63107617D01*
X22248464Y-63099701D01*
X22178258Y-63092772D01*
X22119865Y-63086939D01*
X22074400Y-63082311D01*
X22042977Y-63078997D01*
X22026712Y-63077107D01*
X21999663Y-63070176D01*
X21967462Y-63048964D01*
X21950809Y-63027769D01*
X21944893Y-63002907D01*
X21952081Y-62972356D01*
X21959193Y-62958093D01*
X21971691Y-62944914D01*
X21990938Y-62934783D01*
X22019332Y-62926834D01*
X22059270Y-62920197D01*
X22113150Y-62914003D01*
X22130722Y-62912219D01*
X22267481Y-62898386D01*
X22389068Y-62886215D01*
X22496451Y-62875645D01*
X22590595Y-62866619D01*
X22672466Y-62859075D01*
X22743031Y-62852955D01*
X22803254Y-62848198D01*
X22854103Y-62844746D01*
X22896544Y-62842540D01*
X22931541Y-62841518D01*
X22960062Y-62841623D01*
G37*
%TO.C,R4*%
X98522500Y-27437258D02*
X98522500Y-26962742D01*
X97477500Y-27437258D02*
X97477500Y-26962742D01*
%TO.C,C21*%
X96761252Y-204735000D02*
X96238748Y-204735000D01*
X96761252Y-203265000D02*
X96238748Y-203265000D01*
%TO.C,C12*%
X184261252Y-177765000D02*
X183738748Y-177765000D01*
X184261252Y-179235000D02*
X183738748Y-179235000D01*
%TO.C,C22*%
X26261252Y-184735000D02*
X25738748Y-184735000D01*
X26261252Y-183265000D02*
X25738748Y-183265000D01*
%TO.C,R17*%
X35737258Y-202522500D02*
X35262742Y-202522500D01*
X35737258Y-201477500D02*
X35262742Y-201477500D01*
%TO.C,C15*%
X113761252Y-125265000D02*
X113238748Y-125265000D01*
X113761252Y-126735000D02*
X113238748Y-126735000D01*
%TO.C,R25*%
X156262742Y-37227500D02*
X156737258Y-37227500D01*
X156262742Y-38272500D02*
X156737258Y-38272500D01*
%TO.C,R19*%
X156012742Y-69227500D02*
X156487258Y-69227500D01*
X156012742Y-70272500D02*
X156487258Y-70272500D01*
%TO.C,C4*%
X156511252Y-62765000D02*
X155988748Y-62765000D01*
X156511252Y-64235000D02*
X155988748Y-64235000D01*
%TO.C,R6*%
X219237258Y-53977500D02*
X218762742Y-53977500D01*
X219237258Y-55022500D02*
X218762742Y-55022500D01*
%TO.C,C18*%
X71761252Y-124765000D02*
X71238748Y-124765000D01*
X71761252Y-126235000D02*
X71238748Y-126235000D01*
%TO.C,G\u002A\u002A\u002A*%
G36*
X95320162Y-21237704D02*
G01*
X95325123Y-21211174D01*
X95344234Y-21156727D01*
X95372934Y-21105786D01*
X95408045Y-21064609D01*
X95425319Y-21049224D01*
X95453938Y-21027314D01*
X95482204Y-21012031D01*
X95516699Y-20999429D01*
X95520848Y-20998533D01*
X95532043Y-20997282D01*
X95549725Y-20996147D01*
X95574509Y-20995125D01*
X95607011Y-20994212D01*
X95647847Y-20993405D01*
X95697634Y-20992700D01*
X95756988Y-20992093D01*
X95826524Y-20991581D01*
X95906860Y-20991161D01*
X95998611Y-20990827D01*
X96102394Y-20990578D01*
X96218824Y-20990409D01*
X96348519Y-20990316D01*
X96492093Y-20990296D01*
X96650164Y-20990346D01*
X96823347Y-20990462D01*
X97012258Y-20990640D01*
X98475128Y-20992182D01*
X98513680Y-21009992D01*
X98549498Y-21030962D01*
X98589743Y-21063639D01*
X98624852Y-21101160D01*
X98649616Y-21138595D01*
X98652728Y-21145025D01*
X98673039Y-21203279D01*
X98681093Y-21262884D01*
X98676141Y-21318752D01*
X98675066Y-21323486D01*
X98671482Y-21337814D01*
X98667059Y-21352180D01*
X98661059Y-21367993D01*
X98652740Y-21386659D01*
X98641361Y-21409586D01*
X98626181Y-21438182D01*
X98606460Y-21473853D01*
X98581457Y-21518007D01*
X98550431Y-21572053D01*
X98512642Y-21637396D01*
X98467348Y-21715444D01*
X98434085Y-21772730D01*
X98397847Y-21835172D01*
X98363540Y-21894319D01*
X98332421Y-21948002D01*
X98305746Y-21994055D01*
X98284771Y-22030310D01*
X98270752Y-22054601D01*
X98269968Y-22055965D01*
X98193043Y-22189523D01*
X98112815Y-22328618D01*
X98027635Y-22476106D01*
X97935853Y-22634846D01*
X97898486Y-22699451D01*
X97828305Y-22820842D01*
X97759671Y-22939625D01*
X97693188Y-23054751D01*
X97629461Y-23165171D01*
X97569093Y-23269836D01*
X97512690Y-23367698D01*
X97460854Y-23457709D01*
X97414191Y-23538820D01*
X97373304Y-23609983D01*
X97338799Y-23670148D01*
X97311278Y-23718267D01*
X97291347Y-23753292D01*
X97287050Y-23760831D01*
X97247684Y-23824861D01*
X97210367Y-23874968D01*
X97173150Y-23912851D01*
X97134087Y-23940206D01*
X97091231Y-23958732D01*
X97042634Y-23970125D01*
X97022073Y-23972625D01*
X96957404Y-23970271D01*
X96895436Y-23953179D01*
X96839136Y-23922424D01*
X96791473Y-23879082D01*
X96787176Y-23873740D01*
X96778903Y-23862227D01*
X96767966Y-23845752D01*
X96753912Y-23823546D01*
X96736287Y-23794839D01*
X96714637Y-23758861D01*
X96688508Y-23714845D01*
X96657448Y-23662020D01*
X96621003Y-23599618D01*
X96578719Y-23526869D01*
X96530142Y-23443004D01*
X96474819Y-23347254D01*
X96412297Y-23238849D01*
X96342122Y-23117021D01*
X96309980Y-23061202D01*
X96240385Y-22940399D01*
X96174448Y-22826027D01*
X96113287Y-22720021D01*
X96058019Y-22624321D01*
X96009762Y-22540863D01*
X95992021Y-22510204D01*
X95951338Y-22439880D01*
X95915224Y-22377422D01*
X95881558Y-22319158D01*
X95848221Y-22261416D01*
X95813092Y-22200524D01*
X95774050Y-22132810D01*
X95728975Y-22054601D01*
X95711168Y-22023713D01*
X95675868Y-21962526D01*
X95639831Y-21900120D01*
X95605280Y-21840341D01*
X95574438Y-21787035D01*
X95549527Y-21744048D01*
X95503022Y-21663821D01*
X95459511Y-21588394D01*
X95423113Y-21524579D01*
X95393236Y-21471069D01*
X95369289Y-21426559D01*
X95350679Y-21389742D01*
X95336816Y-21359312D01*
X95327106Y-21333963D01*
X95320959Y-21312388D01*
X95317783Y-21293281D01*
X95316986Y-21275335D01*
X95317239Y-21270711D01*
X95547844Y-21270711D01*
X95555669Y-21296386D01*
X95571947Y-21330806D01*
X95597146Y-21376287D01*
X95613035Y-21403870D01*
X95639142Y-21449158D01*
X95668904Y-21500758D01*
X95699757Y-21554226D01*
X95729139Y-21605116D01*
X95754345Y-21648795D01*
X95781142Y-21695299D01*
X95805583Y-21737779D01*
X95825726Y-21772861D01*
X95839629Y-21797169D01*
X95842823Y-21802774D01*
X95872232Y-21854203D01*
X95906827Y-21914389D01*
X95947379Y-21984667D01*
X95994659Y-22066373D01*
X96049436Y-22160843D01*
X96050393Y-22162491D01*
X96083698Y-22219978D01*
X96121957Y-22286158D01*
X96162099Y-22355711D01*
X96201053Y-22423316D01*
X96235750Y-22483655D01*
X96247536Y-22504167D01*
X96277572Y-22556345D01*
X96306680Y-22606786D01*
X96333062Y-22652378D01*
X96354917Y-22690010D01*
X96370447Y-22716570D01*
X96376230Y-22726416D01*
X96396714Y-22761485D01*
X96421740Y-22804532D01*
X96448665Y-22851009D01*
X96474849Y-22896365D01*
X96481405Y-22907740D01*
X96504831Y-22948365D01*
X96534190Y-22999245D01*
X96567820Y-23057504D01*
X96604061Y-23120264D01*
X96641251Y-23184649D01*
X96677729Y-23247780D01*
X96690493Y-23269875D01*
X96727353Y-23333767D01*
X96764280Y-23397890D01*
X96799624Y-23459370D01*
X96831730Y-23515331D01*
X96858949Y-23562898D01*
X96879628Y-23599196D01*
X96892886Y-23622329D01*
X96915595Y-23660927D01*
X96935795Y-23694026D01*
X96951681Y-23718694D01*
X96961446Y-23731998D01*
X96964395Y-23734995D01*
X96988669Y-23748371D01*
X97014855Y-23747372D01*
X97038107Y-23731998D01*
X97040989Y-23728201D01*
X97052473Y-23710631D01*
X97070374Y-23681626D01*
X97093567Y-23643067D01*
X97120925Y-23596834D01*
X97151324Y-23544807D01*
X97183637Y-23488868D01*
X97217134Y-23430609D01*
X97262018Y-23352673D01*
X97310037Y-23269408D01*
X97358440Y-23185578D01*
X97404476Y-23105952D01*
X97445394Y-23035296D01*
X97465823Y-23000029D01*
X97496295Y-22947367D01*
X97533344Y-22883291D01*
X97576120Y-22809272D01*
X97623775Y-22726782D01*
X97675459Y-22637291D01*
X97730321Y-22542271D01*
X97787512Y-22443194D01*
X97846183Y-22341529D01*
X97905484Y-22238750D01*
X97964564Y-22136326D01*
X97972294Y-22122924D01*
X98028933Y-22024723D01*
X98084073Y-21929123D01*
X98137047Y-21837281D01*
X98187190Y-21750352D01*
X98233833Y-21669492D01*
X98276311Y-21595857D01*
X98313957Y-21530602D01*
X98346104Y-21474883D01*
X98372085Y-21429856D01*
X98391234Y-21396676D01*
X98402883Y-21376500D01*
X98423378Y-21339999D01*
X98441627Y-21303294D01*
X98451266Y-21275822D01*
X98452759Y-21255272D01*
X98446570Y-21239331D01*
X98433164Y-21225690D01*
X98411631Y-21208752D01*
X95588369Y-21208752D01*
X95566835Y-21225690D01*
X95555690Y-21236322D01*
X95548006Y-21251463D01*
X95547844Y-21270711D01*
X95317239Y-21270711D01*
X95317976Y-21257245D01*
X95320162Y-21237704D01*
G37*
G36*
X97027644Y-21952081D02*
G01*
X97041907Y-21959193D01*
X97055086Y-21971691D01*
X97065217Y-21990938D01*
X97073166Y-22019332D01*
X97079803Y-22059270D01*
X97085997Y-22113150D01*
X97087781Y-22130722D01*
X97101614Y-22267481D01*
X97113785Y-22389068D01*
X97124355Y-22496451D01*
X97133381Y-22590595D01*
X97140925Y-22672466D01*
X97147045Y-22743031D01*
X97151802Y-22803254D01*
X97155254Y-22854103D01*
X97157460Y-22896544D01*
X97158482Y-22931541D01*
X97158377Y-22960062D01*
X97157206Y-22983072D01*
X97155028Y-23001538D01*
X97151902Y-23016425D01*
X97147889Y-23028699D01*
X97143047Y-23039326D01*
X97136485Y-23050668D01*
X97106375Y-23084116D01*
X97068049Y-23106913D01*
X97024769Y-23118875D01*
X96979800Y-23119820D01*
X96936406Y-23109566D01*
X96897849Y-23087931D01*
X96867395Y-23054731D01*
X96854642Y-23030789D01*
X96844176Y-22996653D01*
X96839038Y-22954646D01*
X96838944Y-22902149D01*
X96843608Y-22836548D01*
X96853036Y-22737647D01*
X96863807Y-22625107D01*
X96874028Y-22518803D01*
X96883589Y-22419851D01*
X96892383Y-22329366D01*
X96900299Y-22248464D01*
X96907228Y-22178258D01*
X96913061Y-22119865D01*
X96917689Y-22074400D01*
X96921003Y-22042977D01*
X96922893Y-22026712D01*
X96929824Y-21999663D01*
X96951036Y-21967462D01*
X96972231Y-21950809D01*
X96997093Y-21944893D01*
X97027644Y-21952081D01*
G37*
G36*
X97030761Y-21474512D02*
G01*
X97070315Y-21487027D01*
X97089313Y-21498175D01*
X97123274Y-21530070D01*
X97147902Y-21570286D01*
X97161031Y-21614692D01*
X97160496Y-21659154D01*
X97153888Y-21684113D01*
X97131366Y-21727523D01*
X97098624Y-21761481D01*
X97058358Y-21784674D01*
X97013264Y-21795790D01*
X96966039Y-21793516D01*
X96919381Y-21776538D01*
X96885025Y-21752013D01*
X96855425Y-21715411D01*
X96838036Y-21673445D01*
X96832753Y-21628933D01*
X96839467Y-21584691D01*
X96858073Y-21543540D01*
X96888464Y-21508295D01*
X96930534Y-21481776D01*
X96945493Y-21476512D01*
X96986719Y-21470915D01*
X97030761Y-21474512D01*
G37*
%TO.C,R1*%
X156737258Y-32977500D02*
X156262742Y-32977500D01*
X156737258Y-34022500D02*
X156262742Y-34022500D01*
%TO.C,R7*%
X206737258Y-169977500D02*
X206262742Y-169977500D01*
X206737258Y-171022500D02*
X206262742Y-171022500D01*
%TO.C,R16*%
X47737258Y-84977500D02*
X47262742Y-84977500D01*
X47737258Y-86022500D02*
X47262742Y-86022500D01*
%TO.C,R15*%
X84737258Y-103977500D02*
X84262742Y-103977500D01*
X84737258Y-105022500D02*
X84262742Y-105022500D01*
%TO.C,R21*%
X27997258Y-62277500D02*
X27522742Y-62277500D01*
X27997258Y-63322500D02*
X27522742Y-63322500D01*
%TO.C,C11*%
X134761252Y-200235000D02*
X134238748Y-200235000D01*
X134761252Y-198765000D02*
X134238748Y-198765000D01*
%TO.C,R2*%
X156012742Y-54272500D02*
X156487258Y-54272500D01*
X156012742Y-53227500D02*
X156487258Y-53227500D01*
%TO.C,R11*%
X133737258Y-151977500D02*
X133262742Y-151977500D01*
X133737258Y-153022500D02*
X133262742Y-153022500D01*
%TO.C,R5*%
X83237258Y-44022500D02*
X82762742Y-44022500D01*
X83237258Y-42977500D02*
X82762742Y-42977500D01*
%TO.C,G\u002A\u002A\u002A*%
G36*
X21659154Y-76839504D02*
G01*
X21684113Y-76846112D01*
X21727523Y-76868634D01*
X21761481Y-76901376D01*
X21784674Y-76941642D01*
X21795790Y-76986736D01*
X21793516Y-77033961D01*
X21776538Y-77080619D01*
X21752013Y-77114975D01*
X21715411Y-77144575D01*
X21673445Y-77161964D01*
X21628933Y-77167247D01*
X21584691Y-77160533D01*
X21543540Y-77141927D01*
X21508295Y-77111536D01*
X21481776Y-77069466D01*
X21476512Y-77054507D01*
X21470915Y-77013281D01*
X21474512Y-76969239D01*
X21487027Y-76929685D01*
X21498175Y-76910687D01*
X21530070Y-76876726D01*
X21570286Y-76852098D01*
X21614692Y-76838969D01*
X21659154Y-76839504D01*
G37*
G36*
X21237704Y-78679838D02*
G01*
X21211174Y-78674877D01*
X21156727Y-78655766D01*
X21105786Y-78627066D01*
X21064609Y-78591955D01*
X21049224Y-78574681D01*
X21027314Y-78546062D01*
X21012031Y-78517796D01*
X20999429Y-78483301D01*
X20998533Y-78479152D01*
X20997282Y-78467957D01*
X20996147Y-78450275D01*
X20995125Y-78425491D01*
X20994736Y-78411631D01*
X21208752Y-78411631D01*
X21225690Y-78433165D01*
X21236322Y-78444310D01*
X21251463Y-78451994D01*
X21270711Y-78452156D01*
X21296386Y-78444331D01*
X21330806Y-78428053D01*
X21376287Y-78402854D01*
X21403870Y-78386965D01*
X21449158Y-78360858D01*
X21500758Y-78331096D01*
X21554226Y-78300243D01*
X21605116Y-78270861D01*
X21648795Y-78245655D01*
X21695299Y-78218858D01*
X21737779Y-78194417D01*
X21772861Y-78174274D01*
X21797169Y-78160371D01*
X21802774Y-78157177D01*
X21854203Y-78127768D01*
X21914389Y-78093173D01*
X21984667Y-78052621D01*
X22066373Y-78005341D01*
X22160843Y-77950564D01*
X22162491Y-77949607D01*
X22219978Y-77916302D01*
X22286158Y-77878043D01*
X22355711Y-77837901D01*
X22423316Y-77798947D01*
X22483655Y-77764250D01*
X22504167Y-77752464D01*
X22556345Y-77722428D01*
X22606786Y-77693320D01*
X22652378Y-77666938D01*
X22690010Y-77645083D01*
X22716570Y-77629553D01*
X22726416Y-77623770D01*
X22761485Y-77603286D01*
X22804532Y-77578260D01*
X22851009Y-77551335D01*
X22896365Y-77525151D01*
X22907740Y-77518595D01*
X22948365Y-77495169D01*
X22999245Y-77465810D01*
X23057504Y-77432180D01*
X23120264Y-77395939D01*
X23184649Y-77358749D01*
X23247780Y-77322271D01*
X23269875Y-77309507D01*
X23333767Y-77272647D01*
X23397890Y-77235720D01*
X23459370Y-77200376D01*
X23515331Y-77168270D01*
X23562898Y-77141051D01*
X23599196Y-77120372D01*
X23622329Y-77107114D01*
X23660927Y-77084405D01*
X23694026Y-77064205D01*
X23718694Y-77048319D01*
X23731998Y-77038554D01*
X23734995Y-77035605D01*
X23748371Y-77011331D01*
X23747372Y-76985145D01*
X23731998Y-76961893D01*
X23728201Y-76959011D01*
X23710631Y-76947527D01*
X23681626Y-76929626D01*
X23643067Y-76906433D01*
X23596834Y-76879075D01*
X23544807Y-76848676D01*
X23488868Y-76816363D01*
X23430609Y-76782866D01*
X23352673Y-76737982D01*
X23269408Y-76689963D01*
X23185578Y-76641560D01*
X23105952Y-76595524D01*
X23035296Y-76554606D01*
X23000029Y-76534177D01*
X22947367Y-76503705D01*
X22883291Y-76466656D01*
X22809272Y-76423880D01*
X22726782Y-76376225D01*
X22637291Y-76324541D01*
X22542271Y-76269679D01*
X22443194Y-76212488D01*
X22341529Y-76153817D01*
X22238750Y-76094516D01*
X22136326Y-76035436D01*
X22122924Y-76027706D01*
X22024723Y-75971067D01*
X21929123Y-75915927D01*
X21837281Y-75862953D01*
X21750352Y-75812810D01*
X21669492Y-75766167D01*
X21595857Y-75723689D01*
X21530602Y-75686043D01*
X21474883Y-75653896D01*
X21429856Y-75627915D01*
X21396676Y-75608766D01*
X21376500Y-75597117D01*
X21339999Y-75576622D01*
X21303294Y-75558373D01*
X21275822Y-75548734D01*
X21255272Y-75547241D01*
X21239331Y-75553430D01*
X21225690Y-75566836D01*
X21208752Y-75588369D01*
X21208752Y-78411631D01*
X20994736Y-78411631D01*
X20994212Y-78392989D01*
X20993405Y-78352153D01*
X20992700Y-78302366D01*
X20992093Y-78243012D01*
X20991581Y-78173476D01*
X20991161Y-78093140D01*
X20990827Y-78001389D01*
X20990578Y-77897606D01*
X20990409Y-77781176D01*
X20990316Y-77651481D01*
X20990296Y-77507907D01*
X20990346Y-77349836D01*
X20990462Y-77176653D01*
X20990640Y-76987742D01*
X20992182Y-75524872D01*
X21009992Y-75486320D01*
X21030962Y-75450502D01*
X21063639Y-75410257D01*
X21101160Y-75375148D01*
X21138595Y-75350384D01*
X21145025Y-75347272D01*
X21203279Y-75326961D01*
X21262884Y-75318907D01*
X21318752Y-75323859D01*
X21323486Y-75324934D01*
X21337814Y-75328518D01*
X21352180Y-75332941D01*
X21367993Y-75338941D01*
X21386659Y-75347260D01*
X21409586Y-75358639D01*
X21438182Y-75373819D01*
X21473853Y-75393540D01*
X21518007Y-75418543D01*
X21572053Y-75449569D01*
X21637396Y-75487358D01*
X21715444Y-75532652D01*
X21772730Y-75565915D01*
X21835172Y-75602153D01*
X21894319Y-75636460D01*
X21948002Y-75667579D01*
X21994055Y-75694254D01*
X22030310Y-75715229D01*
X22054601Y-75729248D01*
X22055965Y-75730032D01*
X22189523Y-75806957D01*
X22328618Y-75887185D01*
X22476106Y-75972365D01*
X22634846Y-76064147D01*
X22699451Y-76101514D01*
X22820842Y-76171695D01*
X22939625Y-76240329D01*
X23054751Y-76306812D01*
X23165171Y-76370539D01*
X23269836Y-76430907D01*
X23367698Y-76487310D01*
X23457709Y-76539146D01*
X23538820Y-76585809D01*
X23609983Y-76626696D01*
X23670148Y-76661201D01*
X23718267Y-76688722D01*
X23753292Y-76708653D01*
X23760831Y-76712950D01*
X23824861Y-76752316D01*
X23874968Y-76789633D01*
X23912851Y-76826850D01*
X23940206Y-76865913D01*
X23958732Y-76908769D01*
X23970125Y-76957366D01*
X23972625Y-76977927D01*
X23970271Y-77042596D01*
X23953179Y-77104564D01*
X23922424Y-77160864D01*
X23879082Y-77208527D01*
X23873740Y-77212824D01*
X23862227Y-77221097D01*
X23845752Y-77232034D01*
X23823546Y-77246088D01*
X23794839Y-77263713D01*
X23758861Y-77285363D01*
X23714845Y-77311492D01*
X23662020Y-77342552D01*
X23599618Y-77378997D01*
X23526869Y-77421281D01*
X23443004Y-77469858D01*
X23347254Y-77525181D01*
X23238849Y-77587703D01*
X23117021Y-77657878D01*
X23061202Y-77690020D01*
X22940399Y-77759615D01*
X22826027Y-77825552D01*
X22720021Y-77886713D01*
X22624321Y-77941981D01*
X22540863Y-77990238D01*
X22510204Y-78007979D01*
X22439880Y-78048662D01*
X22377422Y-78084776D01*
X22319158Y-78118442D01*
X22261416Y-78151779D01*
X22200524Y-78186908D01*
X22132810Y-78225950D01*
X22054601Y-78271025D01*
X22023713Y-78288832D01*
X21962526Y-78324132D01*
X21900120Y-78360169D01*
X21840341Y-78394720D01*
X21787035Y-78425562D01*
X21744048Y-78450473D01*
X21663821Y-78496978D01*
X21588394Y-78540489D01*
X21524579Y-78576887D01*
X21471069Y-78606764D01*
X21426559Y-78630711D01*
X21389742Y-78649321D01*
X21359312Y-78663184D01*
X21333963Y-78672894D01*
X21312388Y-78679041D01*
X21293281Y-78682217D01*
X21275335Y-78683014D01*
X21270711Y-78682761D01*
X21257245Y-78682024D01*
X21237704Y-78679838D01*
G37*
G36*
X22960062Y-76841623D02*
G01*
X22983072Y-76842794D01*
X23001538Y-76844972D01*
X23016425Y-76848098D01*
X23028699Y-76852111D01*
X23039326Y-76856953D01*
X23050668Y-76863515D01*
X23084116Y-76893625D01*
X23106913Y-76931951D01*
X23118875Y-76975231D01*
X23119820Y-77020200D01*
X23109566Y-77063594D01*
X23087931Y-77102151D01*
X23054731Y-77132605D01*
X23030789Y-77145358D01*
X22996653Y-77155824D01*
X22954646Y-77160962D01*
X22902149Y-77161056D01*
X22836548Y-77156392D01*
X22737647Y-77146964D01*
X22625107Y-77136193D01*
X22518803Y-77125972D01*
X22419851Y-77116411D01*
X22329366Y-77107617D01*
X22248464Y-77099701D01*
X22178258Y-77092772D01*
X22119865Y-77086939D01*
X22074400Y-77082311D01*
X22042977Y-77078997D01*
X22026712Y-77077107D01*
X21999663Y-77070176D01*
X21967462Y-77048964D01*
X21950809Y-77027769D01*
X21944893Y-77002907D01*
X21952081Y-76972356D01*
X21959193Y-76958093D01*
X21971691Y-76944914D01*
X21990938Y-76934783D01*
X22019332Y-76926834D01*
X22059270Y-76920197D01*
X22113150Y-76914003D01*
X22130722Y-76912219D01*
X22267481Y-76898386D01*
X22389068Y-76886215D01*
X22496451Y-76875645D01*
X22590595Y-76866619D01*
X22672466Y-76859075D01*
X22743031Y-76852955D01*
X22803254Y-76848198D01*
X22854103Y-76844746D01*
X22896544Y-76842540D01*
X22931541Y-76841518D01*
X22960062Y-76841623D01*
G37*
%TO.C,R24*%
X185262742Y-36477500D02*
X185737258Y-36477500D01*
X185262742Y-37522500D02*
X185737258Y-37522500D01*
%TO.C,C16*%
X30761252Y-81235000D02*
X30238748Y-81235000D01*
X30761252Y-79765000D02*
X30238748Y-79765000D01*
%TO.C,U1*%
X165250000Y-39760000D02*
X169110000Y-39760000D01*
X169110000Y-29495000D02*
X170925000Y-29495000D01*
X165250000Y-29240000D02*
X161390000Y-29240000D01*
X169110000Y-39760000D02*
X169110000Y-39505000D01*
X161390000Y-29240000D02*
X161390000Y-29495000D01*
X161390000Y-39760000D02*
X161390000Y-39505000D01*
X165250000Y-39760000D02*
X161390000Y-39760000D01*
X169110000Y-29240000D02*
X169110000Y-29495000D01*
X165250000Y-29240000D02*
X169110000Y-29240000D01*
%TD*%
%LPC*%
D14*
%TO.C,H5*%
X23000000Y-247000000D03*
%TD*%
%TO.C,H4*%
X135000000Y-247000000D03*
%TD*%
%TO.C,H1*%
X292000000Y-23000000D03*
%TD*%
%TO.C,H2*%
X292000000Y-135000000D03*
%TD*%
%TO.C,H3*%
X291000000Y-246000000D03*
%TD*%
D15*
%TO.C,R12*%
X134325000Y-119000000D03*
X132675000Y-119000000D03*
%TD*%
D16*
%TO.C,J1*%
X87110000Y-25970000D03*
X92890000Y-25970000D03*
D17*
X86750000Y-27415000D03*
X87550000Y-27415000D03*
D18*
X88750000Y-27415000D03*
X89750000Y-27415000D03*
X90250000Y-27415000D03*
X91250000Y-27415000D03*
D17*
X92450000Y-27415000D03*
X93250000Y-27415000D03*
X93250000Y-27415000D03*
X92450000Y-27415000D03*
D18*
X91750000Y-27415000D03*
X90750000Y-27415000D03*
X89250000Y-27415000D03*
X88250000Y-27415000D03*
D17*
X87550000Y-27415000D03*
X86750000Y-27415000D03*
D19*
X94320000Y-22320000D03*
D20*
X85680000Y-26500000D03*
D19*
X85680000Y-22320000D03*
D20*
X94320000Y-26500000D03*
%TD*%
D21*
%TO.C,C13*%
X186950000Y-107000000D03*
X185050000Y-107000000D03*
%TD*%
D15*
%TO.C,R23*%
X188325000Y-31000000D03*
X186675000Y-31000000D03*
%TD*%
%TO.C,R8*%
X157825000Y-183500000D03*
X156175000Y-183500000D03*
%TD*%
%TO.C,R14*%
X45325000Y-134000000D03*
X43675000Y-134000000D03*
%TD*%
D22*
%TO.C,C5*%
X195050000Y-35000000D03*
X196950000Y-35000000D03*
%TD*%
D15*
%TO.C,R22*%
X157325000Y-65500000D03*
X155675000Y-65500000D03*
%TD*%
D21*
%TO.C,C8*%
X157200000Y-31500000D03*
X155300000Y-31500000D03*
%TD*%
D23*
%TO.C,R20*%
X155425000Y-55500000D03*
X157075000Y-55500000D03*
%TD*%
D15*
%TO.C,R13*%
X85325000Y-154000000D03*
X83675000Y-154000000D03*
%TD*%
D21*
%TO.C,C10*%
X142950000Y-160000000D03*
X141050000Y-160000000D03*
%TD*%
D15*
%TO.C,R9*%
X181825000Y-212000000D03*
X180175000Y-212000000D03*
%TD*%
D21*
%TO.C,C1*%
X157200000Y-44500000D03*
X155300000Y-44500000D03*
%TD*%
D24*
%TO.C,U3*%
X190362500Y-34450000D03*
X190362500Y-33500000D03*
X190362500Y-32550000D03*
X192637500Y-32550000D03*
X192637500Y-34450000D03*
%TD*%
D21*
%TO.C,C20*%
X97450000Y-156500000D03*
X95550000Y-156500000D03*
%TD*%
D15*
%TO.C,R10*%
X89825000Y-211000000D03*
X88175000Y-211000000D03*
%TD*%
D23*
%TO.C,R26*%
X155425000Y-71500000D03*
X157075000Y-71500000D03*
%TD*%
D21*
%TO.C,C3*%
X157200000Y-61000000D03*
X155300000Y-61000000D03*
%TD*%
%TO.C,C19*%
X30950000Y-127000000D03*
X29050000Y-127000000D03*
%TD*%
%TO.C,C9*%
X157200000Y-29000000D03*
X155300000Y-29000000D03*
%TD*%
%TO.C,C2*%
X157200000Y-47000000D03*
X155300000Y-47000000D03*
%TD*%
D22*
%TO.C,C6*%
X195050000Y-32250000D03*
X196950000Y-32250000D03*
%TD*%
D25*
%TO.C,U4*%
X169900000Y-62055000D03*
X169900000Y-63325000D03*
X169900000Y-64595000D03*
X169900000Y-65865000D03*
X169900000Y-67135000D03*
X169900000Y-68405000D03*
X169900000Y-69675000D03*
X169900000Y-70945000D03*
X160600000Y-70945000D03*
X160600000Y-69675000D03*
X160600000Y-68405000D03*
X160600000Y-67135000D03*
X160600000Y-65865000D03*
X160600000Y-64595000D03*
X160600000Y-63325000D03*
X160600000Y-62055000D03*
%TD*%
D15*
%TO.C,R18*%
X157325000Y-49000000D03*
X155675000Y-49000000D03*
%TD*%
D26*
%TO.C,C7*%
X190000000Y-37300000D03*
X190000000Y-39200000D03*
%TD*%
D25*
%TO.C,U2*%
X169900000Y-46055000D03*
X169900000Y-47325000D03*
X169900000Y-48595000D03*
X169900000Y-49865000D03*
X169900000Y-51135000D03*
X169900000Y-52405000D03*
X169900000Y-53675000D03*
X169900000Y-54945000D03*
X160600000Y-54945000D03*
X160600000Y-53675000D03*
X160600000Y-52405000D03*
X160600000Y-51135000D03*
X160600000Y-49865000D03*
X160600000Y-48595000D03*
X160600000Y-47325000D03*
X160600000Y-46055000D03*
%TD*%
D27*
%TO.C,D1*%
X188150000Y-34500000D03*
X184850000Y-34500000D03*
%TD*%
D28*
%TO.C,P1*%
X28450000Y-67250000D03*
X28450000Y-68750000D03*
X28450000Y-69250000D03*
X28450000Y-69750000D03*
X28450000Y-70250000D03*
X28450000Y-71750000D03*
X28450000Y-72250000D03*
X28450000Y-72750000D03*
X28450000Y-71250000D03*
X28450000Y-70750000D03*
X28450000Y-68250000D03*
X28450000Y-67750000D03*
D29*
X23950000Y-74550000D03*
X26550000Y-65450000D03*
D30*
X23900000Y-71750000D03*
D29*
X26600000Y-74550000D03*
D31*
X28356250Y-66750000D03*
X28350000Y-73250000D03*
D30*
X25650000Y-68750000D03*
D29*
X23900000Y-65450000D03*
D30*
X23900000Y-68250000D03*
X25650000Y-71250000D03*
%TD*%
D21*
%TO.C,C14*%
X65950000Y-29000000D03*
X64050000Y-29000000D03*
%TD*%
%TO.C,C17*%
X59950000Y-88000000D03*
X58050000Y-88000000D03*
%TD*%
D23*
%TO.C,R3*%
X155675000Y-39500000D03*
X157325000Y-39500000D03*
%TD*%
D32*
%TO.C,R4*%
X98000000Y-28025000D03*
X98000000Y-26375000D03*
%TD*%
D21*
%TO.C,C21*%
X97450000Y-204000000D03*
X95550000Y-204000000D03*
%TD*%
%TO.C,C12*%
X184950000Y-178500000D03*
X183050000Y-178500000D03*
%TD*%
%TO.C,C22*%
X26950000Y-184000000D03*
X25050000Y-184000000D03*
%TD*%
D15*
%TO.C,R17*%
X36325000Y-202000000D03*
X34675000Y-202000000D03*
%TD*%
D21*
%TO.C,C15*%
X114450000Y-126000000D03*
X112550000Y-126000000D03*
%TD*%
D23*
%TO.C,R25*%
X155675000Y-37750000D03*
X157325000Y-37750000D03*
%TD*%
%TO.C,R19*%
X155425000Y-69750000D03*
X157075000Y-69750000D03*
%TD*%
D21*
%TO.C,C4*%
X157200000Y-63500000D03*
X155300000Y-63500000D03*
%TD*%
D15*
%TO.C,R6*%
X219825000Y-54500000D03*
X218175000Y-54500000D03*
%TD*%
D21*
%TO.C,C18*%
X72450000Y-125500000D03*
X70550000Y-125500000D03*
%TD*%
D15*
%TO.C,R1*%
X157325000Y-33500000D03*
X155675000Y-33500000D03*
%TD*%
%TO.C,R7*%
X207325000Y-170500000D03*
X205675000Y-170500000D03*
%TD*%
%TO.C,R16*%
X48325000Y-85500000D03*
X46675000Y-85500000D03*
%TD*%
%TO.C,R15*%
X85325000Y-104500000D03*
X83675000Y-104500000D03*
%TD*%
%TO.C,R21*%
X28585000Y-62800000D03*
X26935000Y-62800000D03*
%TD*%
D21*
%TO.C,C11*%
X135450000Y-199500000D03*
X133550000Y-199500000D03*
%TD*%
D23*
%TO.C,R2*%
X155425000Y-53750000D03*
X157075000Y-53750000D03*
%TD*%
D15*
%TO.C,R11*%
X134325000Y-152500000D03*
X132675000Y-152500000D03*
%TD*%
%TO.C,R5*%
X83825000Y-43500000D03*
X82175000Y-43500000D03*
%TD*%
D23*
%TO.C,R24*%
X184675000Y-37000000D03*
X186325000Y-37000000D03*
%TD*%
D21*
%TO.C,C16*%
X31450000Y-80500000D03*
X29550000Y-80500000D03*
%TD*%
D25*
%TO.C,U1*%
X169900000Y-30055000D03*
X169900000Y-31325000D03*
X169900000Y-32595000D03*
X169900000Y-33865000D03*
X169900000Y-35135000D03*
X169900000Y-36405000D03*
X169900000Y-37675000D03*
X169900000Y-38945000D03*
X160600000Y-38945000D03*
X160600000Y-37675000D03*
X160600000Y-36405000D03*
X160600000Y-35135000D03*
X160600000Y-33865000D03*
X160600000Y-32595000D03*
X160600000Y-31325000D03*
X160600000Y-30055000D03*
%TD*%
M02*
