M48
; DRILL file {KiCad (6.0.4)} date Thu May 26 23:51:21 2022
; FORMAT={-:-/ absolute / metric / decimal}
; #@! TF.CreationDate,2022-05-26T23:51:21-07:00
; #@! TF.GenerationSoftware,Kicad,Pcbnew,(6.0.4)
; #@! TF.FileFunction,Plated,1,2,PTH
FMAT,2
METRIC
; #@! TA.AperFunction,Plated,PTH,ViaDrill
T1C0.300
; #@! TA.AperFunction,Plated,PTH,ComponentDrill
T2C0.600
%
G90
G05
T1
X20.8Y-181.2
X22.6Y-177.6
X23.6Y-178.6
X24.8Y-88.4
X25.0Y-80.5
X26.0Y-83.0
X26.6Y-199.9
X27.0Y-134.6
X27.8Y-131.8
X28.2Y-80.5
X28.4Y-86.4
X30.0Y-133.0
X30.6Y-83.8
X31.0Y-182.8
X31.76Y-70.8
X32.26Y-70.0
X32.4Y-85.0
X32.4Y-202.0
X32.454Y-69.306
X32.8Y-127.8
X33.46Y-68.5
X40.8Y-133.8
X41.5Y-127.2
X42.0Y-89.5
X42.0Y-91.75
X43.4Y-85.4
X54.25Y-127.5
X54.25Y-129.75
X57.4Y-92.2
X58.0Y-95.4
X59.0Y-92.2
X61.0Y-92.6
X62.0Y-31.25
X64.2Y-31.4
X64.75Y-23.5
X64.9Y-35.1
X66.5Y-25.0
X67.2Y-30.4
X67.4Y-33.2
X69.0Y-130.4
X70.2Y-131.6
X70.5Y-111.5
X70.5Y-113.75
X73.0Y-129.6
X74.2Y-126.0
X76.0Y-79.5
X76.0Y-82.0
X79.2Y-43.6
X79.2Y-154.2
X80.2Y-104.6
X80.6Y-27.2
X86.4Y-211.0
X86.6Y-34.0
X86.7Y-31.6
X87.7Y-32.2
X88.9Y-25.8
X89.6Y-31.5
X92.8Y-163.0
X93.4Y-160.6
X94.8Y-211.8
X95.2Y-208.2
X96.2Y-161.4
X98.0Y-209.8
X98.4Y-159.4
X99.4Y-204.6
X99.8Y-28.2
X101.5Y-31.25
X101.5Y-34.25
X102.25Y-117.25
X102.25Y-120.25
X108.1Y-210.3
X111.7Y-152.5
X112.0Y-127.2
X112.4Y-131.0
X115.8Y-129.8
X115.9Y-124.0
X117.4Y-174.0
X123.25Y-43.25
X124.5Y-56.0
X126.75Y-85.25
X126.75Y-89.5
X128.0Y-43.25
X128.75Y-56.0
X130.2Y-119.6
X130.6Y-152.6
X132.4Y-206.0
X134.0Y-203.0
X135.8Y-205.0
X137.4Y-200.2
X139.4Y-164.3
X139.4Y-166.2
X142.8Y-165.0
X144.2Y-163.6
X152.8Y-61.0
X153.2Y-44.5
X154.1Y-39.4
X154.2Y-183.6
X155.6Y-86.6
X156.2Y-87.5
X156.8Y-88.1
X157.4Y-84.7
X157.4Y-88.8
X158.1Y-85.6
X158.4Y-35.5
X158.4Y-50.5
X158.6Y-66.5
X158.8Y-43.0
X158.8Y-86.1
X159.0Y-28.0
X159.4Y-59.8
X159.5Y-86.8
X159.75Y-141.75
X160.3Y-40.9
X160.7Y-56.8
X162.0Y-144.25
X162.25Y-79.5
X164.4Y-95.7
X165.2Y-96.8
X165.25Y-82.5
X165.8Y-97.9
X167.1Y-93.0
X167.8Y-94.2
X168.0Y-68.7
X168.4Y-95.3
X172.4Y-53.6
X172.75Y-77.25
X173.0Y-36.4
X176.0Y-77.25
X176.4Y-212.2
X182.0Y-184.8
X182.8Y-182.2
X183.0Y-34.4
X184.2Y-113.6
X184.6Y-111.2
X185.8Y-184.0
X186.0Y-145.25
X187.6Y-112.8
X188.2Y-179.6
X189.25Y-145.25
X190.2Y-108.2
X198.4Y-62.1
X199.75Y-145.25
X202.0Y-170.6
X203.5Y-145.25
X211.5Y-46.0
X215.8Y-54.6
T2
X85.68Y-22.02G85X85.68Y-22.62
G05
X85.68Y-25.95G85X85.68Y-27.05
G05
X94.32Y-22.02G85X94.32Y-22.62
G05
X94.32Y-25.95G85X94.32Y-27.05
G05
T0
M30
