%TF.GenerationSoftware,KiCad,Pcbnew,(6.0.4)*%
%TF.CreationDate,2022-05-26T23:51:16-07:00*%
%TF.ProjectId,bot_R,626f745f-522e-46b6-9963-61645f706362,rev?*%
%TF.SameCoordinates,Original*%
%TF.FileFunction,Soldermask,Bot*%
%TF.FilePolarity,Negative*%
%FSLAX46Y46*%
G04 Gerber Fmt 4.6, Leading zero omitted, Abs format (unit mm)*
G04 Created by KiCad (PCBNEW (6.0.4)) date 2022-05-26 23:51:16*
%MOMM*%
%LPD*%
G01*
G04 APERTURE LIST*
G04 Aperture macros list*
%AMRoundRect*
0 Rectangle with rounded corners*
0 $1 Rounding radius*
0 $2 $3 $4 $5 $6 $7 $8 $9 X,Y pos of 4 corners*
0 Add a 4 corners polygon primitive as box body*
4,1,4,$2,$3,$4,$5,$6,$7,$8,$9,$2,$3,0*
0 Add four circle primitives for the rounded corners*
1,1,$1+$1,$2,$3*
1,1,$1+$1,$4,$5*
1,1,$1+$1,$6,$7*
1,1,$1+$1,$8,$9*
0 Add four rect primitives between the rounded corners*
20,1,$1+$1,$2,$3,$4,$5,0*
20,1,$1+$1,$4,$5,$6,$7,0*
20,1,$1+$1,$6,$7,$8,$9,0*
20,1,$1+$1,$8,$9,$2,$3,0*%
G04 Aperture macros list end*
%ADD10C,2.200000*%
%ADD11RoundRect,0.200000X0.200000X0.275000X-0.200000X0.275000X-0.200000X-0.275000X0.200000X-0.275000X0*%
%ADD12C,0.650000*%
%ADD13R,0.600000X1.450000*%
%ADD14R,0.300000X1.450000*%
%ADD15O,1.000000X1.600000*%
%ADD16O,1.000000X2.100000*%
%ADD17RoundRect,0.250000X0.250000X0.475000X-0.250000X0.475000X-0.250000X-0.475000X0.250000X-0.475000X0*%
%ADD18RoundRect,0.250000X-0.250000X-0.475000X0.250000X-0.475000X0.250000X0.475000X-0.250000X0.475000X0*%
%ADD19RoundRect,0.200000X-0.200000X-0.275000X0.200000X-0.275000X0.200000X0.275000X-0.200000X0.275000X0*%
%ADD20RoundRect,0.150000X-0.512500X-0.150000X0.512500X-0.150000X0.512500X0.150000X-0.512500X0.150000X0*%
%ADD21RoundRect,0.150000X0.875000X0.150000X-0.875000X0.150000X-0.875000X-0.150000X0.875000X-0.150000X0*%
%ADD22RoundRect,0.250000X-0.475000X0.250000X-0.475000X-0.250000X0.475000X-0.250000X0.475000X0.250000X0*%
%ADD23R,0.900000X1.200000*%
%ADD24R,1.825000X0.400000*%
%ADD25R,1.200000X1.500000*%
%ADD26R,1.200000X1.200000*%
%ADD27R,2.012500X0.400000*%
%ADD28RoundRect,0.200000X0.275000X-0.200000X0.275000X0.200000X-0.275000X0.200000X-0.275000X-0.200000X0*%
G04 APERTURE END LIST*
D10*
%TO.C,H5*%
X23000000Y-247000000D03*
%TD*%
%TO.C,H4*%
X135000000Y-247000000D03*
%TD*%
%TO.C,H1*%
X292000000Y-23000000D03*
%TD*%
%TO.C,H2*%
X292000000Y-135000000D03*
%TD*%
%TO.C,H3*%
X291000000Y-246000000D03*
%TD*%
D11*
%TO.C,R12*%
X134325000Y-119000000D03*
X132675000Y-119000000D03*
%TD*%
D12*
%TO.C,J1*%
X87110000Y-25970000D03*
X92890000Y-25970000D03*
D13*
X86750000Y-27415000D03*
X87550000Y-27415000D03*
D14*
X88750000Y-27415000D03*
X89750000Y-27415000D03*
X90250000Y-27415000D03*
X91250000Y-27415000D03*
D13*
X92450000Y-27415000D03*
X93250000Y-27415000D03*
X93250000Y-27415000D03*
X92450000Y-27415000D03*
D14*
X91750000Y-27415000D03*
X90750000Y-27415000D03*
X89250000Y-27415000D03*
X88250000Y-27415000D03*
D13*
X87550000Y-27415000D03*
X86750000Y-27415000D03*
D15*
X94320000Y-22320000D03*
D16*
X85680000Y-26500000D03*
D15*
X85680000Y-22320000D03*
D16*
X94320000Y-26500000D03*
%TD*%
D17*
%TO.C,C13*%
X186950000Y-107000000D03*
X185050000Y-107000000D03*
%TD*%
D11*
%TO.C,R23*%
X188325000Y-31000000D03*
X186675000Y-31000000D03*
%TD*%
%TO.C,R8*%
X157825000Y-183500000D03*
X156175000Y-183500000D03*
%TD*%
%TO.C,R14*%
X45325000Y-134000000D03*
X43675000Y-134000000D03*
%TD*%
D18*
%TO.C,C5*%
X195050000Y-35000000D03*
X196950000Y-35000000D03*
%TD*%
D11*
%TO.C,R22*%
X157325000Y-65500000D03*
X155675000Y-65500000D03*
%TD*%
D17*
%TO.C,C8*%
X157200000Y-31500000D03*
X155300000Y-31500000D03*
%TD*%
D19*
%TO.C,R20*%
X155425000Y-55500000D03*
X157075000Y-55500000D03*
%TD*%
D11*
%TO.C,R13*%
X85325000Y-154000000D03*
X83675000Y-154000000D03*
%TD*%
D17*
%TO.C,C10*%
X142950000Y-160000000D03*
X141050000Y-160000000D03*
%TD*%
D11*
%TO.C,R9*%
X181825000Y-212000000D03*
X180175000Y-212000000D03*
%TD*%
D17*
%TO.C,C1*%
X157200000Y-44500000D03*
X155300000Y-44500000D03*
%TD*%
D20*
%TO.C,U3*%
X190362500Y-34450000D03*
X190362500Y-33500000D03*
X190362500Y-32550000D03*
X192637500Y-32550000D03*
X192637500Y-34450000D03*
%TD*%
D17*
%TO.C,C20*%
X97450000Y-156500000D03*
X95550000Y-156500000D03*
%TD*%
D11*
%TO.C,R10*%
X89825000Y-211000000D03*
X88175000Y-211000000D03*
%TD*%
D19*
%TO.C,R26*%
X155425000Y-71500000D03*
X157075000Y-71500000D03*
%TD*%
D17*
%TO.C,C3*%
X157200000Y-61000000D03*
X155300000Y-61000000D03*
%TD*%
%TO.C,C19*%
X30950000Y-127000000D03*
X29050000Y-127000000D03*
%TD*%
%TO.C,C9*%
X157200000Y-29000000D03*
X155300000Y-29000000D03*
%TD*%
%TO.C,C2*%
X157200000Y-47000000D03*
X155300000Y-47000000D03*
%TD*%
D18*
%TO.C,C6*%
X195050000Y-32250000D03*
X196950000Y-32250000D03*
%TD*%
D21*
%TO.C,U4*%
X169900000Y-62055000D03*
X169900000Y-63325000D03*
X169900000Y-64595000D03*
X169900000Y-65865000D03*
X169900000Y-67135000D03*
X169900000Y-68405000D03*
X169900000Y-69675000D03*
X169900000Y-70945000D03*
X160600000Y-70945000D03*
X160600000Y-69675000D03*
X160600000Y-68405000D03*
X160600000Y-67135000D03*
X160600000Y-65865000D03*
X160600000Y-64595000D03*
X160600000Y-63325000D03*
X160600000Y-62055000D03*
%TD*%
D11*
%TO.C,R18*%
X157325000Y-49000000D03*
X155675000Y-49000000D03*
%TD*%
D22*
%TO.C,C7*%
X190000000Y-37300000D03*
X190000000Y-39200000D03*
%TD*%
D21*
%TO.C,U2*%
X169900000Y-46055000D03*
X169900000Y-47325000D03*
X169900000Y-48595000D03*
X169900000Y-49865000D03*
X169900000Y-51135000D03*
X169900000Y-52405000D03*
X169900000Y-53675000D03*
X169900000Y-54945000D03*
X160600000Y-54945000D03*
X160600000Y-53675000D03*
X160600000Y-52405000D03*
X160600000Y-51135000D03*
X160600000Y-49865000D03*
X160600000Y-48595000D03*
X160600000Y-47325000D03*
X160600000Y-46055000D03*
%TD*%
D23*
%TO.C,D1*%
X188150000Y-34500000D03*
X184850000Y-34500000D03*
%TD*%
D24*
%TO.C,P1*%
X28450000Y-67250000D03*
X28450000Y-68750000D03*
X28450000Y-69250000D03*
X28450000Y-69750000D03*
X28450000Y-70250000D03*
X28450000Y-71750000D03*
X28450000Y-72250000D03*
X28450000Y-72750000D03*
X28450000Y-71250000D03*
X28450000Y-70750000D03*
X28450000Y-68250000D03*
X28450000Y-67750000D03*
D25*
X23950000Y-74550000D03*
X26550000Y-65450000D03*
D26*
X23900000Y-71750000D03*
D25*
X26600000Y-74550000D03*
D27*
X28356250Y-66750000D03*
X28350000Y-73250000D03*
D26*
X25650000Y-68750000D03*
D25*
X23900000Y-65450000D03*
D26*
X23900000Y-68250000D03*
X25650000Y-71250000D03*
%TD*%
D17*
%TO.C,C14*%
X65950000Y-29000000D03*
X64050000Y-29000000D03*
%TD*%
%TO.C,C17*%
X59950000Y-88000000D03*
X58050000Y-88000000D03*
%TD*%
D19*
%TO.C,R3*%
X155675000Y-39500000D03*
X157325000Y-39500000D03*
%TD*%
D28*
%TO.C,R4*%
X98000000Y-28025000D03*
X98000000Y-26375000D03*
%TD*%
D17*
%TO.C,C21*%
X97450000Y-204000000D03*
X95550000Y-204000000D03*
%TD*%
%TO.C,C12*%
X184950000Y-178500000D03*
X183050000Y-178500000D03*
%TD*%
%TO.C,C22*%
X26950000Y-184000000D03*
X25050000Y-184000000D03*
%TD*%
D11*
%TO.C,R17*%
X36325000Y-202000000D03*
X34675000Y-202000000D03*
%TD*%
D17*
%TO.C,C15*%
X114450000Y-126000000D03*
X112550000Y-126000000D03*
%TD*%
D19*
%TO.C,R25*%
X155675000Y-37750000D03*
X157325000Y-37750000D03*
%TD*%
%TO.C,R19*%
X155425000Y-69750000D03*
X157075000Y-69750000D03*
%TD*%
D17*
%TO.C,C4*%
X157200000Y-63500000D03*
X155300000Y-63500000D03*
%TD*%
D11*
%TO.C,R6*%
X219825000Y-54500000D03*
X218175000Y-54500000D03*
%TD*%
D17*
%TO.C,C18*%
X72450000Y-125500000D03*
X70550000Y-125500000D03*
%TD*%
D11*
%TO.C,R1*%
X157325000Y-33500000D03*
X155675000Y-33500000D03*
%TD*%
%TO.C,R7*%
X207325000Y-170500000D03*
X205675000Y-170500000D03*
%TD*%
%TO.C,R16*%
X48325000Y-85500000D03*
X46675000Y-85500000D03*
%TD*%
%TO.C,R15*%
X85325000Y-104500000D03*
X83675000Y-104500000D03*
%TD*%
%TO.C,R21*%
X28585000Y-62800000D03*
X26935000Y-62800000D03*
%TD*%
D17*
%TO.C,C11*%
X135450000Y-199500000D03*
X133550000Y-199500000D03*
%TD*%
D19*
%TO.C,R2*%
X155425000Y-53750000D03*
X157075000Y-53750000D03*
%TD*%
D11*
%TO.C,R11*%
X134325000Y-152500000D03*
X132675000Y-152500000D03*
%TD*%
%TO.C,R5*%
X83825000Y-43500000D03*
X82175000Y-43500000D03*
%TD*%
D19*
%TO.C,R24*%
X184675000Y-37000000D03*
X186325000Y-37000000D03*
%TD*%
D17*
%TO.C,C16*%
X31450000Y-80500000D03*
X29550000Y-80500000D03*
%TD*%
D21*
%TO.C,U1*%
X169900000Y-30055000D03*
X169900000Y-31325000D03*
X169900000Y-32595000D03*
X169900000Y-33865000D03*
X169900000Y-35135000D03*
X169900000Y-36405000D03*
X169900000Y-37675000D03*
X169900000Y-38945000D03*
X160600000Y-38945000D03*
X160600000Y-37675000D03*
X160600000Y-36405000D03*
X160600000Y-35135000D03*
X160600000Y-33865000D03*
X160600000Y-32595000D03*
X160600000Y-31325000D03*
X160600000Y-30055000D03*
%TD*%
M02*
